<?xml version="1.0" encoding="utf-8" standalone="no"?>
<!DOCTYPE svg PUBLIC "-//W3C//DTD SVG 1.1//EN"
  "http://www.w3.org/Graphics/SVG/1.1/DTD/svg11.dtd">
<!-- Created with matplotlib (https://matplotlib.org/) -->
<svg height="432pt" version="1.1" viewBox="0 0 720 432" width="720pt" xmlns="http://www.w3.org/2000/svg" xmlns:xlink="http://www.w3.org/1999/xlink">
 <defs>
  <style type="text/css">
*{stroke-linecap:butt;stroke-linejoin:round;}
  </style>
 </defs>
 <g id="figure_1">
  <g id="patch_1">
   <path d="M 0 432 
L 720 432 
L 720 0 
L 0 0 
z
" style="fill:#ffffff;"/>
  </g>
  <g id="axes_1">
   <g id="patch_2">
    <path d="M 60.59 390.04 
L 709.2 390.04 
L 709.2 10.8 
L 60.59 10.8 
z
" style="fill:#ffffff;"/>
   </g>
   <g id="PolyCollection_1">
    <defs>
     <path d="M 90.072273 -297.745762 
L 90.072273 -153.232894 
L 97.442841 -180.978166 
L 134.295682 -142.436815 
L 141.66625 -153.520406 
L 178.519091 -181.46426 
L 185.889659 -137.916951 
L 222.7425 -256.763253 
L 230.113068 -186.987304 
L 274.336477 -259.661456 
L 311.189318 -152.341512 
L 362.783295 -164.328114 
L 407.006705 -193.241336 
L 443.859545 -145.086042 
L 451.230114 -161.28728 
L 488.082955 -189.71538 
L 495.453523 -141.880655 
L 539.676932 -192.028146 
L 576.529773 -238.71226 
L 620.753182 -170.774945 
L 628.12375 -236.005922 
L 664.976591 -196.764807 
L 672.347159 -168.735457 
L 679.717727 -239.541421 
L 679.717727 -382.440342 
L 679.717727 -382.440342 
L 672.347159 -311.418146 
L 664.976591 -338.545406 
L 628.12375 -374.795974 
L 620.753182 -309.089076 
L 576.529773 -383.592105 
L 539.676932 -334.185702 
L 495.453523 -294.140799 
L 488.082955 -332.074963 
L 451.230114 -302.032247 
L 443.859545 -284.38436 
L 407.006705 -343.05144 
L 362.783295 -306.269637 
L 311.189318 -301.07211 
L 274.336477 -403.961818 
L 230.113068 -326.843764 
L 222.7425 -402.927772 
L 185.889659 -279.79737 
L 178.519091 -324.152909 
L 141.66625 -292.037281 
L 134.295682 -283.256848 
L 97.442841 -323.34781 
L 90.072273 -297.745762 
z
" id="m8216943b50" style="stroke:#0072b2;stroke-opacity:0.2;"/>
    </defs>
    <g clip-path="url(#p0e6e3bfd8f)">
     <use style="fill:#0072b2;fill-opacity:0.2;stroke:#0072b2;stroke-opacity:0.2;" x="0" xlink:href="#m8216943b50" y="432"/>
    </g>
   </g>
   <g id="matplotlib.axis_1">
    <g id="xtick_1">
     <g id="line2d_1">
      <path clip-path="url(#p0e6e3bfd8f)" d="M 119.554545 390.04 
L 119.554545 10.8 
" style="fill:none;stroke:#808080;stroke-linecap:square;stroke-opacity:0.2;"/>
     </g>
     <g id="line2d_2">
      <defs>
       <path d="M 0 0 
L 0 3.5 
" id="ma23b3bf37c" style="stroke:#000000;stroke-width:0.8;"/>
      </defs>
      <g>
       <use style="stroke:#000000;stroke-width:0.8;" x="119.554545" xlink:href="#ma23b3bf37c" y="390.04"/>
      </g>
     </g>
     <g id="text_1">
      <!-- 2019-01-24 -->
      <defs>
       <path d="M 19.1875 8.296875 
L 53.609375 8.296875 
L 53.609375 0 
L 7.328125 0 
L 7.328125 8.296875 
Q 12.9375 14.109375 22.625 23.890625 
Q 32.328125 33.6875 34.8125 36.53125 
Q 39.546875 41.84375 41.421875 45.53125 
Q 43.3125 49.21875 43.3125 52.78125 
Q 43.3125 58.59375 39.234375 62.25 
Q 35.15625 65.921875 28.609375 65.921875 
Q 23.96875 65.921875 18.8125 64.3125 
Q 13.671875 62.703125 7.8125 59.421875 
L 7.8125 69.390625 
Q 13.765625 71.78125 18.9375 73 
Q 24.125 74.21875 28.421875 74.21875 
Q 39.75 74.21875 46.484375 68.546875 
Q 53.21875 62.890625 53.21875 53.421875 
Q 53.21875 48.921875 51.53125 44.890625 
Q 49.859375 40.875 45.40625 35.40625 
Q 44.1875 33.984375 37.640625 27.21875 
Q 31.109375 20.453125 19.1875 8.296875 
z
" id="DejaVuSans-50"/>
       <path d="M 31.78125 66.40625 
Q 24.171875 66.40625 20.328125 58.90625 
Q 16.5 51.421875 16.5 36.375 
Q 16.5 21.390625 20.328125 13.890625 
Q 24.171875 6.390625 31.78125 6.390625 
Q 39.453125 6.390625 43.28125 13.890625 
Q 47.125 21.390625 47.125 36.375 
Q 47.125 51.421875 43.28125 58.90625 
Q 39.453125 66.40625 31.78125 66.40625 
z
M 31.78125 74.21875 
Q 44.046875 74.21875 50.515625 64.515625 
Q 56.984375 54.828125 56.984375 36.375 
Q 56.984375 17.96875 50.515625 8.265625 
Q 44.046875 -1.421875 31.78125 -1.421875 
Q 19.53125 -1.421875 13.0625 8.265625 
Q 6.59375 17.96875 6.59375 36.375 
Q 6.59375 54.828125 13.0625 64.515625 
Q 19.53125 74.21875 31.78125 74.21875 
z
" id="DejaVuSans-48"/>
       <path d="M 12.40625 8.296875 
L 28.515625 8.296875 
L 28.515625 63.921875 
L 10.984375 60.40625 
L 10.984375 69.390625 
L 28.421875 72.90625 
L 38.28125 72.90625 
L 38.28125 8.296875 
L 54.390625 8.296875 
L 54.390625 0 
L 12.40625 0 
z
" id="DejaVuSans-49"/>
       <path d="M 10.984375 1.515625 
L 10.984375 10.5 
Q 14.703125 8.734375 18.5 7.8125 
Q 22.3125 6.890625 25.984375 6.890625 
Q 35.75 6.890625 40.890625 13.453125 
Q 46.046875 20.015625 46.78125 33.40625 
Q 43.953125 29.203125 39.59375 26.953125 
Q 35.25 24.703125 29.984375 24.703125 
Q 19.046875 24.703125 12.671875 31.3125 
Q 6.296875 37.9375 6.296875 49.421875 
Q 6.296875 60.640625 12.9375 67.421875 
Q 19.578125 74.21875 30.609375 74.21875 
Q 43.265625 74.21875 49.921875 64.515625 
Q 56.59375 54.828125 56.59375 36.375 
Q 56.59375 19.140625 48.40625 8.859375 
Q 40.234375 -1.421875 26.421875 -1.421875 
Q 22.703125 -1.421875 18.890625 -0.6875 
Q 15.09375 0.046875 10.984375 1.515625 
z
M 30.609375 32.421875 
Q 37.25 32.421875 41.125 36.953125 
Q 45.015625 41.5 45.015625 49.421875 
Q 45.015625 57.28125 41.125 61.84375 
Q 37.25 66.40625 30.609375 66.40625 
Q 23.96875 66.40625 20.09375 61.84375 
Q 16.21875 57.28125 16.21875 49.421875 
Q 16.21875 41.5 20.09375 36.953125 
Q 23.96875 32.421875 30.609375 32.421875 
z
" id="DejaVuSans-57"/>
       <path d="M 4.890625 31.390625 
L 31.203125 31.390625 
L 31.203125 23.390625 
L 4.890625 23.390625 
z
" id="DejaVuSans-45"/>
       <path d="M 37.796875 64.3125 
L 12.890625 25.390625 
L 37.796875 25.390625 
z
M 35.203125 72.90625 
L 47.609375 72.90625 
L 47.609375 25.390625 
L 58.015625 25.390625 
L 58.015625 17.1875 
L 47.609375 17.1875 
L 47.609375 0 
L 37.796875 0 
L 37.796875 17.1875 
L 4.890625 17.1875 
L 4.890625 26.703125 
z
" id="DejaVuSans-52"/>
      </defs>
      <g transform="translate(90.496733 404.638438)scale(0.1 -0.1)">
       <use xlink:href="#DejaVuSans-50"/>
       <use x="63.623047" xlink:href="#DejaVuSans-48"/>
       <use x="127.246094" xlink:href="#DejaVuSans-49"/>
       <use x="190.869141" xlink:href="#DejaVuSans-57"/>
       <use x="254.492188" xlink:href="#DejaVuSans-45"/>
       <use x="290.576172" xlink:href="#DejaVuSans-48"/>
       <use x="354.199219" xlink:href="#DejaVuSans-49"/>
       <use x="417.822266" xlink:href="#DejaVuSans-45"/>
       <use x="453.90625" xlink:href="#DejaVuSans-50"/>
       <use x="517.529297" xlink:href="#DejaVuSans-52"/>
      </g>
     </g>
    </g>
    <g id="xtick_2">
     <g id="line2d_3">
      <path clip-path="url(#p0e6e3bfd8f)" d="M 222.7425 390.04 
L 222.7425 10.8 
" style="fill:none;stroke:#808080;stroke-linecap:square;stroke-opacity:0.2;"/>
     </g>
     <g id="line2d_4">
      <g>
       <use style="stroke:#000000;stroke-width:0.8;" x="222.7425" xlink:href="#ma23b3bf37c" y="390.04"/>
      </g>
     </g>
     <g id="text_2">
      <!-- 2019-02-07 -->
      <defs>
       <path d="M 8.203125 72.90625 
L 55.078125 72.90625 
L 55.078125 68.703125 
L 28.609375 0 
L 18.3125 0 
L 43.21875 64.59375 
L 8.203125 64.59375 
z
" id="DejaVuSans-55"/>
      </defs>
      <g transform="translate(193.684688 404.638438)scale(0.1 -0.1)">
       <use xlink:href="#DejaVuSans-50"/>
       <use x="63.623047" xlink:href="#DejaVuSans-48"/>
       <use x="127.246094" xlink:href="#DejaVuSans-49"/>
       <use x="190.869141" xlink:href="#DejaVuSans-57"/>
       <use x="254.492188" xlink:href="#DejaVuSans-45"/>
       <use x="290.576172" xlink:href="#DejaVuSans-48"/>
       <use x="354.199219" xlink:href="#DejaVuSans-50"/>
       <use x="417.822266" xlink:href="#DejaVuSans-45"/>
       <use x="453.90625" xlink:href="#DejaVuSans-48"/>
       <use x="517.529297" xlink:href="#DejaVuSans-55"/>
      </g>
     </g>
    </g>
    <g id="xtick_3">
     <g id="line2d_5">
      <path clip-path="url(#p0e6e3bfd8f)" d="M 325.930455 390.04 
L 325.930455 10.8 
" style="fill:none;stroke:#808080;stroke-linecap:square;stroke-opacity:0.2;"/>
     </g>
     <g id="line2d_6">
      <g>
       <use style="stroke:#000000;stroke-width:0.8;" x="325.930455" xlink:href="#ma23b3bf37c" y="390.04"/>
      </g>
     </g>
     <g id="text_3">
      <!-- 2019-02-21 -->
      <g transform="translate(296.872642 404.638438)scale(0.1 -0.1)">
       <use xlink:href="#DejaVuSans-50"/>
       <use x="63.623047" xlink:href="#DejaVuSans-48"/>
       <use x="127.246094" xlink:href="#DejaVuSans-49"/>
       <use x="190.869141" xlink:href="#DejaVuSans-57"/>
       <use x="254.492188" xlink:href="#DejaVuSans-45"/>
       <use x="290.576172" xlink:href="#DejaVuSans-48"/>
       <use x="354.199219" xlink:href="#DejaVuSans-50"/>
       <use x="417.822266" xlink:href="#DejaVuSans-45"/>
       <use x="453.90625" xlink:href="#DejaVuSans-50"/>
       <use x="517.529297" xlink:href="#DejaVuSans-49"/>
      </g>
     </g>
    </g>
    <g id="xtick_4">
     <g id="line2d_7">
      <path clip-path="url(#p0e6e3bfd8f)" d="M 429.118409 390.04 
L 429.118409 10.8 
" style="fill:none;stroke:#808080;stroke-linecap:square;stroke-opacity:0.2;"/>
     </g>
     <g id="line2d_8">
      <g>
       <use style="stroke:#000000;stroke-width:0.8;" x="429.118409" xlink:href="#ma23b3bf37c" y="390.04"/>
      </g>
     </g>
     <g id="text_4">
      <!-- 2019-03-07 -->
      <defs>
       <path d="M 40.578125 39.3125 
Q 47.65625 37.796875 51.625 33 
Q 55.609375 28.21875 55.609375 21.1875 
Q 55.609375 10.40625 48.1875 4.484375 
Q 40.765625 -1.421875 27.09375 -1.421875 
Q 22.515625 -1.421875 17.65625 -0.515625 
Q 12.796875 0.390625 7.625 2.203125 
L 7.625 11.71875 
Q 11.71875 9.328125 16.59375 8.109375 
Q 21.484375 6.890625 26.8125 6.890625 
Q 36.078125 6.890625 40.9375 10.546875 
Q 45.796875 14.203125 45.796875 21.1875 
Q 45.796875 27.640625 41.28125 31.265625 
Q 36.765625 34.90625 28.71875 34.90625 
L 20.21875 34.90625 
L 20.21875 43.015625 
L 29.109375 43.015625 
Q 36.375 43.015625 40.234375 45.921875 
Q 44.09375 48.828125 44.09375 54.296875 
Q 44.09375 59.90625 40.109375 62.90625 
Q 36.140625 65.921875 28.71875 65.921875 
Q 24.65625 65.921875 20.015625 65.03125 
Q 15.375 64.15625 9.8125 62.3125 
L 9.8125 71.09375 
Q 15.4375 72.65625 20.34375 73.4375 
Q 25.25 74.21875 29.59375 74.21875 
Q 40.828125 74.21875 47.359375 69.109375 
Q 53.90625 64.015625 53.90625 55.328125 
Q 53.90625 49.265625 50.4375 45.09375 
Q 46.96875 40.921875 40.578125 39.3125 
z
" id="DejaVuSans-51"/>
      </defs>
      <g transform="translate(400.060597 404.638438)scale(0.1 -0.1)">
       <use xlink:href="#DejaVuSans-50"/>
       <use x="63.623047" xlink:href="#DejaVuSans-48"/>
       <use x="127.246094" xlink:href="#DejaVuSans-49"/>
       <use x="190.869141" xlink:href="#DejaVuSans-57"/>
       <use x="254.492188" xlink:href="#DejaVuSans-45"/>
       <use x="290.576172" xlink:href="#DejaVuSans-48"/>
       <use x="354.199219" xlink:href="#DejaVuSans-51"/>
       <use x="417.822266" xlink:href="#DejaVuSans-45"/>
       <use x="453.90625" xlink:href="#DejaVuSans-48"/>
       <use x="517.529297" xlink:href="#DejaVuSans-55"/>
      </g>
     </g>
    </g>
    <g id="xtick_5">
     <g id="line2d_9">
      <path clip-path="url(#p0e6e3bfd8f)" d="M 532.306364 390.04 
L 532.306364 10.8 
" style="fill:none;stroke:#808080;stroke-linecap:square;stroke-opacity:0.2;"/>
     </g>
     <g id="line2d_10">
      <g>
       <use style="stroke:#000000;stroke-width:0.8;" x="532.306364" xlink:href="#ma23b3bf37c" y="390.04"/>
      </g>
     </g>
     <g id="text_5">
      <!-- 2019-03-21 -->
      <g transform="translate(503.248551 404.638438)scale(0.1 -0.1)">
       <use xlink:href="#DejaVuSans-50"/>
       <use x="63.623047" xlink:href="#DejaVuSans-48"/>
       <use x="127.246094" xlink:href="#DejaVuSans-49"/>
       <use x="190.869141" xlink:href="#DejaVuSans-57"/>
       <use x="254.492188" xlink:href="#DejaVuSans-45"/>
       <use x="290.576172" xlink:href="#DejaVuSans-48"/>
       <use x="354.199219" xlink:href="#DejaVuSans-51"/>
       <use x="417.822266" xlink:href="#DejaVuSans-45"/>
       <use x="453.90625" xlink:href="#DejaVuSans-50"/>
       <use x="517.529297" xlink:href="#DejaVuSans-49"/>
      </g>
     </g>
    </g>
    <g id="xtick_6">
     <g id="line2d_11">
      <path clip-path="url(#p0e6e3bfd8f)" d="M 635.494318 390.04 
L 635.494318 10.8 
" style="fill:none;stroke:#808080;stroke-linecap:square;stroke-opacity:0.2;"/>
     </g>
     <g id="line2d_12">
      <g>
       <use style="stroke:#000000;stroke-width:0.8;" x="635.494318" xlink:href="#ma23b3bf37c" y="390.04"/>
      </g>
     </g>
     <g id="text_6">
      <!-- 2019-04-04 -->
      <g transform="translate(606.436506 404.638438)scale(0.1 -0.1)">
       <use xlink:href="#DejaVuSans-50"/>
       <use x="63.623047" xlink:href="#DejaVuSans-48"/>
       <use x="127.246094" xlink:href="#DejaVuSans-49"/>
       <use x="190.869141" xlink:href="#DejaVuSans-57"/>
       <use x="254.492188" xlink:href="#DejaVuSans-45"/>
       <use x="290.576172" xlink:href="#DejaVuSans-48"/>
       <use x="354.199219" xlink:href="#DejaVuSans-52"/>
       <use x="417.822266" xlink:href="#DejaVuSans-45"/>
       <use x="453.90625" xlink:href="#DejaVuSans-48"/>
       <use x="517.529297" xlink:href="#DejaVuSans-52"/>
      </g>
     </g>
    </g>
    <g id="text_7">
     <!-- ds -->
     <defs>
      <path d="M 45.40625 46.390625 
L 45.40625 75.984375 
L 54.390625 75.984375 
L 54.390625 0 
L 45.40625 0 
L 45.40625 8.203125 
Q 42.578125 3.328125 38.25 0.953125 
Q 33.9375 -1.421875 27.875 -1.421875 
Q 17.96875 -1.421875 11.734375 6.484375 
Q 5.515625 14.40625 5.515625 27.296875 
Q 5.515625 40.1875 11.734375 48.09375 
Q 17.96875 56 27.875 56 
Q 33.9375 56 38.25 53.625 
Q 42.578125 51.265625 45.40625 46.390625 
z
M 14.796875 27.296875 
Q 14.796875 17.390625 18.875 11.75 
Q 22.953125 6.109375 30.078125 6.109375 
Q 37.203125 6.109375 41.296875 11.75 
Q 45.40625 17.390625 45.40625 27.296875 
Q 45.40625 37.203125 41.296875 42.84375 
Q 37.203125 48.484375 30.078125 48.484375 
Q 22.953125 48.484375 18.875 42.84375 
Q 14.796875 37.203125 14.796875 27.296875 
z
" id="DejaVuSans-100"/>
      <path d="M 44.28125 53.078125 
L 44.28125 44.578125 
Q 40.484375 46.53125 36.375 47.5 
Q 32.28125 48.484375 27.875 48.484375 
Q 21.1875 48.484375 17.84375 46.4375 
Q 14.5 44.390625 14.5 40.28125 
Q 14.5 37.15625 16.890625 35.375 
Q 19.28125 33.59375 26.515625 31.984375 
L 29.59375 31.296875 
Q 39.15625 29.25 43.1875 25.515625 
Q 47.21875 21.78125 47.21875 15.09375 
Q 47.21875 7.46875 41.1875 3.015625 
Q 35.15625 -1.421875 24.609375 -1.421875 
Q 20.21875 -1.421875 15.453125 -0.5625 
Q 10.6875 0.296875 5.421875 2 
L 5.421875 11.28125 
Q 10.40625 8.6875 15.234375 7.390625 
Q 20.0625 6.109375 24.8125 6.109375 
Q 31.15625 6.109375 34.5625 8.28125 
Q 37.984375 10.453125 37.984375 14.40625 
Q 37.984375 18.0625 35.515625 20.015625 
Q 33.0625 21.96875 24.703125 23.78125 
L 21.578125 24.515625 
Q 13.234375 26.265625 9.515625 29.90625 
Q 5.8125 33.546875 5.8125 39.890625 
Q 5.8125 47.609375 11.28125 51.796875 
Q 16.75 56 26.8125 56 
Q 31.78125 56 36.171875 55.265625 
Q 40.578125 54.546875 44.28125 53.078125 
z
" id="DejaVuSans-115"/>
     </defs>
     <g transform="translate(379.116094 418.316562)scale(0.1 -0.1)">
      <use xlink:href="#DejaVuSans-100"/>
      <use x="63.476562" xlink:href="#DejaVuSans-115"/>
     </g>
    </g>
   </g>
   <g id="matplotlib.axis_2">
    <g id="ytick_1">
     <g id="line2d_13">
      <path clip-path="url(#p0e6e3bfd8f)" d="M 60.59 382.08441 
L 709.2 382.08441 
" style="fill:none;stroke:#808080;stroke-linecap:square;stroke-opacity:0.2;"/>
     </g>
     <g id="line2d_14">
      <defs>
       <path d="M 0 0 
L -3.5 0 
" id="mde79896cdb" style="stroke:#000000;stroke-width:0.8;"/>
      </defs>
      <g>
       <use style="stroke:#000000;stroke-width:0.8;" x="60.59" xlink:href="#mde79896cdb" y="382.08441"/>
      </g>
     </g>
     <g id="text_8">
      <!-- 142.5 -->
      <defs>
       <path d="M 10.6875 12.40625 
L 21 12.40625 
L 21 0 
L 10.6875 0 
z
" id="DejaVuSans-46"/>
       <path d="M 10.796875 72.90625 
L 49.515625 72.90625 
L 49.515625 64.59375 
L 19.828125 64.59375 
L 19.828125 46.734375 
Q 21.96875 47.46875 24.109375 47.828125 
Q 26.265625 48.1875 28.421875 48.1875 
Q 40.625 48.1875 47.75 41.5 
Q 54.890625 34.8125 54.890625 23.390625 
Q 54.890625 11.625 47.5625 5.09375 
Q 40.234375 -1.421875 26.90625 -1.421875 
Q 22.3125 -1.421875 17.546875 -0.640625 
Q 12.796875 0.140625 7.71875 1.703125 
L 7.71875 11.625 
Q 12.109375 9.234375 16.796875 8.0625 
Q 21.484375 6.890625 26.703125 6.890625 
Q 35.15625 6.890625 40.078125 11.328125 
Q 45.015625 15.765625 45.015625 23.390625 
Q 45.015625 31 40.078125 35.4375 
Q 35.15625 39.890625 26.703125 39.890625 
Q 22.75 39.890625 18.8125 39.015625 
Q 14.890625 38.140625 10.796875 36.28125 
z
" id="DejaVuSans-53"/>
      </defs>
      <g transform="translate(24.961875 385.883628)scale(0.1 -0.1)">
       <use xlink:href="#DejaVuSans-49"/>
       <use x="63.623047" xlink:href="#DejaVuSans-52"/>
       <use x="127.246094" xlink:href="#DejaVuSans-50"/>
       <use x="190.869141" xlink:href="#DejaVuSans-46"/>
       <use x="222.65625" xlink:href="#DejaVuSans-53"/>
      </g>
     </g>
    </g>
    <g id="ytick_2">
     <g id="line2d_15">
      <path clip-path="url(#p0e6e3bfd8f)" d="M 60.59 335.671453 
L 709.2 335.671453 
" style="fill:none;stroke:#808080;stroke-linecap:square;stroke-opacity:0.2;"/>
     </g>
     <g id="line2d_16">
      <g>
       <use style="stroke:#000000;stroke-width:0.8;" x="60.59" xlink:href="#mde79896cdb" y="335.671453"/>
      </g>
     </g>
     <g id="text_9">
      <!-- 145.0 -->
      <g transform="translate(24.961875 339.470672)scale(0.1 -0.1)">
       <use xlink:href="#DejaVuSans-49"/>
       <use x="63.623047" xlink:href="#DejaVuSans-52"/>
       <use x="127.246094" xlink:href="#DejaVuSans-53"/>
       <use x="190.869141" xlink:href="#DejaVuSans-46"/>
       <use x="222.65625" xlink:href="#DejaVuSans-48"/>
      </g>
     </g>
    </g>
    <g id="ytick_3">
     <g id="line2d_17">
      <path clip-path="url(#p0e6e3bfd8f)" d="M 60.59 289.258496 
L 709.2 289.258496 
" style="fill:none;stroke:#808080;stroke-linecap:square;stroke-opacity:0.2;"/>
     </g>
     <g id="line2d_18">
      <g>
       <use style="stroke:#000000;stroke-width:0.8;" x="60.59" xlink:href="#mde79896cdb" y="289.258496"/>
      </g>
     </g>
     <g id="text_10">
      <!-- 147.5 -->
      <g transform="translate(24.961875 293.057715)scale(0.1 -0.1)">
       <use xlink:href="#DejaVuSans-49"/>
       <use x="63.623047" xlink:href="#DejaVuSans-52"/>
       <use x="127.246094" xlink:href="#DejaVuSans-55"/>
       <use x="190.869141" xlink:href="#DejaVuSans-46"/>
       <use x="222.65625" xlink:href="#DejaVuSans-53"/>
      </g>
     </g>
    </g>
    <g id="ytick_4">
     <g id="line2d_19">
      <path clip-path="url(#p0e6e3bfd8f)" d="M 60.59 242.84554 
L 709.2 242.84554 
" style="fill:none;stroke:#808080;stroke-linecap:square;stroke-opacity:0.2;"/>
     </g>
     <g id="line2d_20">
      <g>
       <use style="stroke:#000000;stroke-width:0.8;" x="60.59" xlink:href="#mde79896cdb" y="242.84554"/>
      </g>
     </g>
     <g id="text_11">
      <!-- 150.0 -->
      <g transform="translate(24.961875 246.644758)scale(0.1 -0.1)">
       <use xlink:href="#DejaVuSans-49"/>
       <use x="63.623047" xlink:href="#DejaVuSans-53"/>
       <use x="127.246094" xlink:href="#DejaVuSans-48"/>
       <use x="190.869141" xlink:href="#DejaVuSans-46"/>
       <use x="222.65625" xlink:href="#DejaVuSans-48"/>
      </g>
     </g>
    </g>
    <g id="ytick_5">
     <g id="line2d_21">
      <path clip-path="url(#p0e6e3bfd8f)" d="M 60.59 196.432583 
L 709.2 196.432583 
" style="fill:none;stroke:#808080;stroke-linecap:square;stroke-opacity:0.2;"/>
     </g>
     <g id="line2d_22">
      <g>
       <use style="stroke:#000000;stroke-width:0.8;" x="60.59" xlink:href="#mde79896cdb" y="196.432583"/>
      </g>
     </g>
     <g id="text_12">
      <!-- 152.5 -->
      <g transform="translate(24.961875 200.231802)scale(0.1 -0.1)">
       <use xlink:href="#DejaVuSans-49"/>
       <use x="63.623047" xlink:href="#DejaVuSans-53"/>
       <use x="127.246094" xlink:href="#DejaVuSans-50"/>
       <use x="190.869141" xlink:href="#DejaVuSans-46"/>
       <use x="222.65625" xlink:href="#DejaVuSans-53"/>
      </g>
     </g>
    </g>
    <g id="ytick_6">
     <g id="line2d_23">
      <path clip-path="url(#p0e6e3bfd8f)" d="M 60.59 150.019626 
L 709.2 150.019626 
" style="fill:none;stroke:#808080;stroke-linecap:square;stroke-opacity:0.2;"/>
     </g>
     <g id="line2d_24">
      <g>
       <use style="stroke:#000000;stroke-width:0.8;" x="60.59" xlink:href="#mde79896cdb" y="150.019626"/>
      </g>
     </g>
     <g id="text_13">
      <!-- 155.0 -->
      <g transform="translate(24.961875 153.818845)scale(0.1 -0.1)">
       <use xlink:href="#DejaVuSans-49"/>
       <use x="63.623047" xlink:href="#DejaVuSans-53"/>
       <use x="127.246094" xlink:href="#DejaVuSans-53"/>
       <use x="190.869141" xlink:href="#DejaVuSans-46"/>
       <use x="222.65625" xlink:href="#DejaVuSans-48"/>
      </g>
     </g>
    </g>
    <g id="ytick_7">
     <g id="line2d_25">
      <path clip-path="url(#p0e6e3bfd8f)" d="M 60.59 103.60667 
L 709.2 103.60667 
" style="fill:none;stroke:#808080;stroke-linecap:square;stroke-opacity:0.2;"/>
     </g>
     <g id="line2d_26">
      <g>
       <use style="stroke:#000000;stroke-width:0.8;" x="60.59" xlink:href="#mde79896cdb" y="103.60667"/>
      </g>
     </g>
     <g id="text_14">
      <!-- 157.5 -->
      <g transform="translate(24.961875 107.405889)scale(0.1 -0.1)">
       <use xlink:href="#DejaVuSans-49"/>
       <use x="63.623047" xlink:href="#DejaVuSans-53"/>
       <use x="127.246094" xlink:href="#DejaVuSans-55"/>
       <use x="190.869141" xlink:href="#DejaVuSans-46"/>
       <use x="222.65625" xlink:href="#DejaVuSans-53"/>
      </g>
     </g>
    </g>
    <g id="ytick_8">
     <g id="line2d_27">
      <path clip-path="url(#p0e6e3bfd8f)" d="M 60.59 57.193713 
L 709.2 57.193713 
" style="fill:none;stroke:#808080;stroke-linecap:square;stroke-opacity:0.2;"/>
     </g>
     <g id="line2d_28">
      <g>
       <use style="stroke:#000000;stroke-width:0.8;" x="60.59" xlink:href="#mde79896cdb" y="57.193713"/>
      </g>
     </g>
     <g id="text_15">
      <!-- 160.0 -->
      <defs>
       <path d="M 33.015625 40.375 
Q 26.375 40.375 22.484375 35.828125 
Q 18.609375 31.296875 18.609375 23.390625 
Q 18.609375 15.53125 22.484375 10.953125 
Q 26.375 6.390625 33.015625 6.390625 
Q 39.65625 6.390625 43.53125 10.953125 
Q 47.40625 15.53125 47.40625 23.390625 
Q 47.40625 31.296875 43.53125 35.828125 
Q 39.65625 40.375 33.015625 40.375 
z
M 52.59375 71.296875 
L 52.59375 62.3125 
Q 48.875 64.0625 45.09375 64.984375 
Q 41.3125 65.921875 37.59375 65.921875 
Q 27.828125 65.921875 22.671875 59.328125 
Q 17.53125 52.734375 16.796875 39.40625 
Q 19.671875 43.65625 24.015625 45.921875 
Q 28.375 48.1875 33.59375 48.1875 
Q 44.578125 48.1875 50.953125 41.515625 
Q 57.328125 34.859375 57.328125 23.390625 
Q 57.328125 12.15625 50.6875 5.359375 
Q 44.046875 -1.421875 33.015625 -1.421875 
Q 20.359375 -1.421875 13.671875 8.265625 
Q 6.984375 17.96875 6.984375 36.375 
Q 6.984375 53.65625 15.1875 63.9375 
Q 23.390625 74.21875 37.203125 74.21875 
Q 40.921875 74.21875 44.703125 73.484375 
Q 48.484375 72.75 52.59375 71.296875 
z
" id="DejaVuSans-54"/>
      </defs>
      <g transform="translate(24.961875 60.992932)scale(0.1 -0.1)">
       <use xlink:href="#DejaVuSans-49"/>
       <use x="63.623047" xlink:href="#DejaVuSans-54"/>
       <use x="127.246094" xlink:href="#DejaVuSans-48"/>
       <use x="190.869141" xlink:href="#DejaVuSans-46"/>
       <use x="222.65625" xlink:href="#DejaVuSans-48"/>
      </g>
     </g>
    </g>
    <g id="text_16">
     <!-- y -->
     <defs>
      <path d="M 32.171875 -5.078125 
Q 28.375 -14.84375 24.75 -17.8125 
Q 21.140625 -20.796875 15.09375 -20.796875 
L 7.90625 -20.796875 
L 7.90625 -13.28125 
L 13.1875 -13.28125 
Q 16.890625 -13.28125 18.9375 -11.515625 
Q 21 -9.765625 23.484375 -3.21875 
L 25.09375 0.875 
L 2.984375 54.6875 
L 12.5 54.6875 
L 29.59375 11.921875 
L 46.6875 54.6875 
L 56.203125 54.6875 
z
" id="DejaVuSans-121"/>
     </defs>
     <g transform="translate(18.882188 203.379375)rotate(-90)scale(0.1 -0.1)">
      <use xlink:href="#DejaVuSans-121"/>
     </g>
    </g>
   </g>
   <g id="line2d_29">
    <defs>
     <path d="M 0 1.5 
C 0.397805 1.5 0.77937 1.341951 1.06066 1.06066 
C 1.341951 0.77937 1.5 0.397805 1.5 0 
C 1.5 -0.397805 1.341951 -0.77937 1.06066 -1.06066 
C 0.77937 -1.341951 0.397805 -1.5 0 -1.5 
C -0.397805 -1.5 -0.77937 -1.341951 -1.06066 -1.06066 
C -1.341951 -0.77937 -1.5 -0.397805 -1.5 0 
C -1.5 0.397805 -1.341951 0.77937 -1.06066 1.06066 
C -0.77937 1.341951 -0.397805 1.5 0 1.5 
z
" id="m2eab7c96e6" style="stroke:#000000;"/>
    </defs>
    <g clip-path="url(#p0e6e3bfd8f)">
     <use style="stroke:#000000;" x="90.072273" xlink:href="#m2eab7c96e6" y="187.149992"/>
     <use style="stroke:#000000;" x="97.442841" xlink:href="#m2eab7c96e6" y="168.584809"/>
     <use style="stroke:#000000;" x="134.295682" xlink:href="#m2eab7c96e6" y="205.715174"/>
     <use style="stroke:#000000;" x="141.66625" xlink:href="#m2eab7c96e6" y="131.454444"/>
     <use style="stroke:#000000;" x="178.519091" xlink:href="#m2eab7c96e6" y="168.584809"/>
     <use style="stroke:#000000;" x="185.889659" xlink:href="#m2eab7c96e6" y="372.801818"/>
     <use style="stroke:#000000;" x="222.7425" xlink:href="#m2eab7c96e6" y="150.019626"/>
     <use style="stroke:#000000;" x="230.113068" xlink:href="#m2eab7c96e6" y="242.84554"/>
     <use style="stroke:#000000;" x="274.336477" xlink:href="#m2eab7c96e6" y="57.193713"/>
     <use style="stroke:#000000;" x="311.189318" xlink:href="#m2eab7c96e6" y="187.149992"/>
     <use style="stroke:#000000;" x="362.783295" xlink:href="#m2eab7c96e6" y="131.454444"/>
     <use style="stroke:#000000;" x="407.006705" xlink:href="#m2eab7c96e6" y="187.149992"/>
     <use style="stroke:#000000;" x="443.859545" xlink:href="#m2eab7c96e6" y="150.019626"/>
     <use style="stroke:#000000;" x="451.230114" xlink:href="#m2eab7c96e6" y="298.541088"/>
     <use style="stroke:#000000;" x="488.082955" xlink:href="#m2eab7c96e6" y="150.019626"/>
     <use style="stroke:#000000;" x="495.453523" xlink:href="#m2eab7c96e6" y="150.019626"/>
     <use style="stroke:#000000;" x="539.676932" xlink:href="#m2eab7c96e6" y="131.454444"/>
     <use style="stroke:#000000;" x="576.529773" xlink:href="#m2eab7c96e6" y="94.324078"/>
     <use style="stroke:#000000;" x="620.753182" xlink:href="#m2eab7c96e6" y="224.280357"/>
     <use style="stroke:#000000;" x="628.12375" xlink:href="#m2eab7c96e6" y="150.019626"/>
     <use style="stroke:#000000;" x="664.976591" xlink:href="#m2eab7c96e6" y="150.019626"/>
     <use style="stroke:#000000;" x="672.347159" xlink:href="#m2eab7c96e6" y="242.84554"/>
    </g>
   </g>
   <g id="line2d_30">
    <path clip-path="url(#p0e6e3bfd8f)" d="M 90.072273 208.801732 
L 97.442841 174.764248 
L 134.295682 223.66906 
L 141.66625 207.641921 
L 178.519091 177.165084 
L 185.889659 222.509249 
L 222.7425 104.153567 
L 230.113068 175.99407 
L 274.336477 102.978433 
L 311.189318 199.94931 
L 362.783295 198.7738 
L 407.006705 167.791834 
L 443.859545 216.728357 
L 451.230114 200.709174 
L 488.082955 170.294145 
L 495.453523 215.662364 
L 539.676932 169.399676 
L 576.529773 122.564879 
L 620.753182 193.900872 
L 628.12375 121.736796 
L 664.976591 163.165223 
L 672.347159 193.072789 
L 679.717727 120.908713 
" style="fill:none;stroke:#0072b2;stroke-linecap:square;stroke-width:1.5;"/>
   </g>
   <g id="patch_3">
    <path d="M 60.59 390.04 
L 60.59 10.8 
" style="fill:none;stroke:#000000;stroke-linecap:square;stroke-linejoin:miter;stroke-width:0.8;"/>
   </g>
   <g id="patch_4">
    <path d="M 709.2 390.04 
L 709.2 10.8 
" style="fill:none;stroke:#000000;stroke-linecap:square;stroke-linejoin:miter;stroke-width:0.8;"/>
   </g>
   <g id="patch_5">
    <path d="M 60.59 390.04 
L 709.2 390.04 
" style="fill:none;stroke:#000000;stroke-linecap:square;stroke-linejoin:miter;stroke-width:0.8;"/>
   </g>
   <g id="patch_6">
    <path d="M 60.59 10.8 
L 709.2 10.8 
" style="fill:none;stroke:#000000;stroke-linecap:square;stroke-linejoin:miter;stroke-width:0.8;"/>
   </g>
  </g>
 </g>
 <defs>
  <clipPath id="p0e6e3bfd8f">
   <rect height="379.24" width="648.61" x="60.59" y="10.8"/>
  </clipPath>
 </defs>
</svg>
