<?xml version="1.0" encoding="utf-8" standalone="no"?>
<!DOCTYPE svg PUBLIC "-//W3C//DTD SVG 1.1//EN"
  "http://www.w3.org/Graphics/SVG/1.1/DTD/svg11.dtd">
<!-- Created with matplotlib (https://matplotlib.org/) -->
<svg height="432pt" version="1.1" viewBox="0 0 720 432" width="720pt" xmlns="http://www.w3.org/2000/svg" xmlns:xlink="http://www.w3.org/1999/xlink">
 <defs>
  <style type="text/css">
*{stroke-linecap:butt;stroke-linejoin:round;}
  </style>
 </defs>
 <g id="figure_1">
  <g id="patch_1">
   <path d="M 0 432 
L 720 432 
L 720 0 
L 0 0 
z
" style="fill:#ffffff;"/>
  </g>
  <g id="axes_1">
   <g id="patch_2">
    <path d="M 51.05 390.04 
L 699.857273 390.04 
L 699.857273 10.8 
L 51.05 10.8 
z
" style="fill:#ffffff;"/>
   </g>
   <g id="PolyCollection_1">
    <defs>
     <path d="M 80.54124 -402.796693 
L 80.54124 -109.50137 
L 87.094848 -92.32846 
L 100.202066 -86.646119 
L 106.755675 -71.840613 
L 113.309284 -96.597431 
L 119.862893 -86.907778 
L 126.416501 -93.877022 
L 132.97011 -90.52923 
L 139.523719 -101.834311 
L 146.077328 -82.40126 
L 152.630937 -76.365195 
L 159.184545 -88.702208 
L 165.738154 -84.442828 
L 178.845372 -85.986795 
L 185.398981 -107.877927 
L 191.95259 -88.144111 
L 198.506198 -73.033939 
L 205.059807 -75.109079 
L 211.613416 -87.607598 
L 218.167025 -111.887087 
L 224.720634 -87.915202 
L 231.274242 -99.766242 
L 237.827851 -81.479396 
L 244.38146 -86.353423 
L 250.935069 -89.34817 
L 257.488678 -77.781493 
L 264.042287 -101.254 
L 270.595895 -87.084223 
L 277.149504 -99.933897 
L 283.703113 -88.923151 
L 290.256722 -88.480782 
L 296.810331 -94.481879 
L 303.363939 -91.146864 
L 309.917548 -91.070572 
L 316.471157 -83.173559 
L 323.024766 -94.503181 
L 329.578375 -83.052796 
L 336.131983 -81.620374 
L 342.685592 -82.6861 
L 349.239201 -84.233837 
L 355.79281 -107.358168 
L 368.900028 -101.565641 
L 382.007245 -76.442812 
L 388.560854 -77.017556 
L 395.114463 -90.224519 
L 401.668072 -99.08525 
L 414.775289 -105.785599 
L 421.328898 -85.287559 
L 427.882507 -91.047767 
L 434.436116 -81.031122 
L 447.543333 -95.020744 
L 454.096942 -86.385011 
L 460.650551 -101.051032 
L 467.20416 -88.65893 
L 473.757769 -59.198182 
L 486.864986 -89.840298 
L 493.418595 -92.844491 
L 499.972204 -93.762872 
L 506.525813 -103.768902 
L 513.079421 -88.278696 
L 519.63303 -87.941066 
L 526.186639 -84.973346 
L 532.740248 -79.425001 
L 539.293857 -104.881415 
L 545.847466 -94.543765 
L 552.401074 -103.228193 
L 558.954683 -91.842702 
L 565.508292 -79.937806 
L 572.061901 -80.817118 
L 578.61551 -88.275697 
L 585.169118 -105.409763 
L 591.722727 -83.433941 
L 604.829945 -76.16788 
L 611.383554 -87.710135 
L 617.937163 -79.279444 
L 624.490771 -89.905143 
L 631.04438 -109.280609 
L 637.597989 -83.576623 
L 650.705207 -71.971582 
L 657.258815 -79.353605 
L 663.812424 -81.677026 
L 670.366033 -84.524539 
L 670.366033 -379.400554 
L 670.366033 -379.400554 
L 663.812424 -379.882547 
L 657.258815 -362.99434 
L 650.705207 -382.067082 
L 637.597989 -393.91841 
L 631.04438 -398.047759 
L 624.490771 -384.959014 
L 617.937163 -382.224503 
L 611.383554 -373.097342 
L 604.829945 -379.832056 
L 591.722727 -382.184153 
L 585.169118 -395.919496 
L 578.61551 -371.193914 
L 572.061901 -366.562615 
L 565.508292 -364.894951 
L 558.954683 -379.712737 
L 552.401074 -398.87395 
L 545.847466 -380.739306 
L 539.293857 -403.519068 
L 532.740248 -391.360128 
L 526.186639 -366.478356 
L 519.63303 -370.437678 
L 513.079421 -377.43093 
L 506.525813 -394.473541 
L 499.972204 -383.889424 
L 493.418595 -391.349376 
L 486.864986 -393.735036 
L 473.757769 -365.780996 
L 467.20416 -372.216554 
L 460.650551 -392.337696 
L 454.096942 -390.063396 
L 447.543333 -401.369436 
L 434.436116 -376.504557 
L 427.882507 -375.830042 
L 421.328898 -381.58774 
L 414.775289 -401.158875 
L 401.668072 -395.158531 
L 395.114463 -382.755624 
L 388.560854 -385.093251 
L 382.007245 -359.876975 
L 368.900028 -403.306652 
L 355.79281 -387.578245 
L 349.239201 -389.194141 
L 342.685592 -387.762911 
L 336.131983 -372.014887 
L 329.578375 -381.9328 
L 323.024766 -403.961818 
L 316.471157 -388.101565 
L 309.917548 -399.929444 
L 303.363939 -377.802712 
L 296.810331 -380.815183 
L 290.256722 -378.932221 
L 283.703113 -385.396098 
L 277.149504 -402.56564 
L 270.595895 -401.260135 
L 264.042287 -402.961564 
L 257.488678 -383.213832 
L 250.935069 -372.421548 
L 244.38146 -361.438568 
L 237.827851 -390.462892 
L 231.274242 -399.999737 
L 224.720634 -387.487875 
L 218.167025 -395.04461 
L 211.613416 -383.185153 
L 205.059807 -381.879153 
L 198.506198 -372.332599 
L 191.95259 -378.937337 
L 185.398981 -399.503888 
L 178.845372 -376.911106 
L 165.738154 -390.521781 
L 159.184545 -370.770469 
L 152.630937 -362.224972 
L 146.077328 -387.067775 
L 139.523719 -398.332309 
L 132.97011 -383.444737 
L 126.416501 -393.952767 
L 119.862893 -380.716058 
L 113.309284 -386.223873 
L 106.755675 -380.644339 
L 100.202066 -385.65044 
L 87.094848 -384.355981 
L 80.54124 -402.796693 
z
" id="mc8ea0246b1" style="stroke:#0072b2;stroke-opacity:0.2;"/>
    </defs>
    <g clip-path="url(#p48a93ff6be)">
     <use style="fill:#0072b2;fill-opacity:0.2;stroke:#0072b2;stroke-opacity:0.2;" x="0" xlink:href="#mc8ea0246b1" y="432"/>
    </g>
   </g>
   <g id="matplotlib.axis_1">
    <g id="xtick_1">
     <g id="line2d_1">
      <path clip-path="url(#p48a93ff6be)" d="M 126.416501 390.04 
L 126.416501 10.8 
" style="fill:none;stroke:#808080;stroke-linecap:square;stroke-opacity:0.2;"/>
     </g>
     <g id="line2d_2">
      <defs>
       <path d="M 0 0 
L 0 3.5 
" id="me94e36abfc" style="stroke:#000000;stroke-width:0.8;"/>
      </defs>
      <g>
       <use style="stroke:#000000;stroke-width:0.8;" x="126.416501" xlink:href="#me94e36abfc" y="390.04"/>
      </g>
     </g>
     <g id="text_1">
      <!-- 2019-01-08 -->
      <defs>
       <path d="M 19.1875 8.296875 
L 53.609375 8.296875 
L 53.609375 0 
L 7.328125 0 
L 7.328125 8.296875 
Q 12.9375 14.109375 22.625 23.890625 
Q 32.328125 33.6875 34.8125 36.53125 
Q 39.546875 41.84375 41.421875 45.53125 
Q 43.3125 49.21875 43.3125 52.78125 
Q 43.3125 58.59375 39.234375 62.25 
Q 35.15625 65.921875 28.609375 65.921875 
Q 23.96875 65.921875 18.8125 64.3125 
Q 13.671875 62.703125 7.8125 59.421875 
L 7.8125 69.390625 
Q 13.765625 71.78125 18.9375 73 
Q 24.125 74.21875 28.421875 74.21875 
Q 39.75 74.21875 46.484375 68.546875 
Q 53.21875 62.890625 53.21875 53.421875 
Q 53.21875 48.921875 51.53125 44.890625 
Q 49.859375 40.875 45.40625 35.40625 
Q 44.1875 33.984375 37.640625 27.21875 
Q 31.109375 20.453125 19.1875 8.296875 
z
" id="DejaVuSans-50"/>
       <path d="M 31.78125 66.40625 
Q 24.171875 66.40625 20.328125 58.90625 
Q 16.5 51.421875 16.5 36.375 
Q 16.5 21.390625 20.328125 13.890625 
Q 24.171875 6.390625 31.78125 6.390625 
Q 39.453125 6.390625 43.28125 13.890625 
Q 47.125 21.390625 47.125 36.375 
Q 47.125 51.421875 43.28125 58.90625 
Q 39.453125 66.40625 31.78125 66.40625 
z
M 31.78125 74.21875 
Q 44.046875 74.21875 50.515625 64.515625 
Q 56.984375 54.828125 56.984375 36.375 
Q 56.984375 17.96875 50.515625 8.265625 
Q 44.046875 -1.421875 31.78125 -1.421875 
Q 19.53125 -1.421875 13.0625 8.265625 
Q 6.59375 17.96875 6.59375 36.375 
Q 6.59375 54.828125 13.0625 64.515625 
Q 19.53125 74.21875 31.78125 74.21875 
z
" id="DejaVuSans-48"/>
       <path d="M 12.40625 8.296875 
L 28.515625 8.296875 
L 28.515625 63.921875 
L 10.984375 60.40625 
L 10.984375 69.390625 
L 28.421875 72.90625 
L 38.28125 72.90625 
L 38.28125 8.296875 
L 54.390625 8.296875 
L 54.390625 0 
L 12.40625 0 
z
" id="DejaVuSans-49"/>
       <path d="M 10.984375 1.515625 
L 10.984375 10.5 
Q 14.703125 8.734375 18.5 7.8125 
Q 22.3125 6.890625 25.984375 6.890625 
Q 35.75 6.890625 40.890625 13.453125 
Q 46.046875 20.015625 46.78125 33.40625 
Q 43.953125 29.203125 39.59375 26.953125 
Q 35.25 24.703125 29.984375 24.703125 
Q 19.046875 24.703125 12.671875 31.3125 
Q 6.296875 37.9375 6.296875 49.421875 
Q 6.296875 60.640625 12.9375 67.421875 
Q 19.578125 74.21875 30.609375 74.21875 
Q 43.265625 74.21875 49.921875 64.515625 
Q 56.59375 54.828125 56.59375 36.375 
Q 56.59375 19.140625 48.40625 8.859375 
Q 40.234375 -1.421875 26.421875 -1.421875 
Q 22.703125 -1.421875 18.890625 -0.6875 
Q 15.09375 0.046875 10.984375 1.515625 
z
M 30.609375 32.421875 
Q 37.25 32.421875 41.125 36.953125 
Q 45.015625 41.5 45.015625 49.421875 
Q 45.015625 57.28125 41.125 61.84375 
Q 37.25 66.40625 30.609375 66.40625 
Q 23.96875 66.40625 20.09375 61.84375 
Q 16.21875 57.28125 16.21875 49.421875 
Q 16.21875 41.5 20.09375 36.953125 
Q 23.96875 32.421875 30.609375 32.421875 
z
" id="DejaVuSans-57"/>
       <path d="M 4.890625 31.390625 
L 31.203125 31.390625 
L 31.203125 23.390625 
L 4.890625 23.390625 
z
" id="DejaVuSans-45"/>
       <path d="M 31.78125 34.625 
Q 24.75 34.625 20.71875 30.859375 
Q 16.703125 27.09375 16.703125 20.515625 
Q 16.703125 13.921875 20.71875 10.15625 
Q 24.75 6.390625 31.78125 6.390625 
Q 38.8125 6.390625 42.859375 10.171875 
Q 46.921875 13.96875 46.921875 20.515625 
Q 46.921875 27.09375 42.890625 30.859375 
Q 38.875 34.625 31.78125 34.625 
z
M 21.921875 38.8125 
Q 15.578125 40.375 12.03125 44.71875 
Q 8.5 49.078125 8.5 55.328125 
Q 8.5 64.0625 14.71875 69.140625 
Q 20.953125 74.21875 31.78125 74.21875 
Q 42.671875 74.21875 48.875 69.140625 
Q 55.078125 64.0625 55.078125 55.328125 
Q 55.078125 49.078125 51.53125 44.71875 
Q 48 40.375 41.703125 38.8125 
Q 48.828125 37.15625 52.796875 32.3125 
Q 56.78125 27.484375 56.78125 20.515625 
Q 56.78125 9.90625 50.3125 4.234375 
Q 43.84375 -1.421875 31.78125 -1.421875 
Q 19.734375 -1.421875 13.25 4.234375 
Q 6.78125 9.90625 6.78125 20.515625 
Q 6.78125 27.484375 10.78125 32.3125 
Q 14.796875 37.15625 21.921875 38.8125 
z
M 18.3125 54.390625 
Q 18.3125 48.734375 21.84375 45.5625 
Q 25.390625 42.390625 31.78125 42.390625 
Q 38.140625 42.390625 41.71875 45.5625 
Q 45.3125 48.734375 45.3125 54.390625 
Q 45.3125 60.0625 41.71875 63.234375 
Q 38.140625 66.40625 31.78125 66.40625 
Q 25.390625 66.40625 21.84375 63.234375 
Q 18.3125 60.0625 18.3125 54.390625 
z
" id="DejaVuSans-56"/>
      </defs>
      <g transform="translate(97.358689 404.638438)scale(0.1 -0.1)">
       <use xlink:href="#DejaVuSans-50"/>
       <use x="63.623047" xlink:href="#DejaVuSans-48"/>
       <use x="127.246094" xlink:href="#DejaVuSans-49"/>
       <use x="190.869141" xlink:href="#DejaVuSans-57"/>
       <use x="254.492188" xlink:href="#DejaVuSans-45"/>
       <use x="290.576172" xlink:href="#DejaVuSans-48"/>
       <use x="354.199219" xlink:href="#DejaVuSans-49"/>
       <use x="417.822266" xlink:href="#DejaVuSans-45"/>
       <use x="453.90625" xlink:href="#DejaVuSans-48"/>
       <use x="517.529297" xlink:href="#DejaVuSans-56"/>
      </g>
     </g>
    </g>
    <g id="xtick_2">
     <g id="line2d_3">
      <path clip-path="url(#p48a93ff6be)" d="M 218.167025 390.04 
L 218.167025 10.8 
" style="fill:none;stroke:#808080;stroke-linecap:square;stroke-opacity:0.2;"/>
     </g>
     <g id="line2d_4">
      <g>
       <use style="stroke:#000000;stroke-width:0.8;" x="218.167025" xlink:href="#me94e36abfc" y="390.04"/>
      </g>
     </g>
     <g id="text_2">
      <!-- 2019-01-22 -->
      <g transform="translate(189.109212 404.638438)scale(0.1 -0.1)">
       <use xlink:href="#DejaVuSans-50"/>
       <use x="63.623047" xlink:href="#DejaVuSans-48"/>
       <use x="127.246094" xlink:href="#DejaVuSans-49"/>
       <use x="190.869141" xlink:href="#DejaVuSans-57"/>
       <use x="254.492188" xlink:href="#DejaVuSans-45"/>
       <use x="290.576172" xlink:href="#DejaVuSans-48"/>
       <use x="354.199219" xlink:href="#DejaVuSans-49"/>
       <use x="417.822266" xlink:href="#DejaVuSans-45"/>
       <use x="453.90625" xlink:href="#DejaVuSans-50"/>
       <use x="517.529297" xlink:href="#DejaVuSans-50"/>
      </g>
     </g>
    </g>
    <g id="xtick_3">
     <g id="line2d_5">
      <path clip-path="url(#p48a93ff6be)" d="M 309.917548 390.04 
L 309.917548 10.8 
" style="fill:none;stroke:#808080;stroke-linecap:square;stroke-opacity:0.2;"/>
     </g>
     <g id="line2d_6">
      <g>
       <use style="stroke:#000000;stroke-width:0.8;" x="309.917548" xlink:href="#me94e36abfc" y="390.04"/>
      </g>
     </g>
     <g id="text_3">
      <!-- 2019-02-05 -->
      <defs>
       <path d="M 10.796875 72.90625 
L 49.515625 72.90625 
L 49.515625 64.59375 
L 19.828125 64.59375 
L 19.828125 46.734375 
Q 21.96875 47.46875 24.109375 47.828125 
Q 26.265625 48.1875 28.421875 48.1875 
Q 40.625 48.1875 47.75 41.5 
Q 54.890625 34.8125 54.890625 23.390625 
Q 54.890625 11.625 47.5625 5.09375 
Q 40.234375 -1.421875 26.90625 -1.421875 
Q 22.3125 -1.421875 17.546875 -0.640625 
Q 12.796875 0.140625 7.71875 1.703125 
L 7.71875 11.625 
Q 12.109375 9.234375 16.796875 8.0625 
Q 21.484375 6.890625 26.703125 6.890625 
Q 35.15625 6.890625 40.078125 11.328125 
Q 45.015625 15.765625 45.015625 23.390625 
Q 45.015625 31 40.078125 35.4375 
Q 35.15625 39.890625 26.703125 39.890625 
Q 22.75 39.890625 18.8125 39.015625 
Q 14.890625 38.140625 10.796875 36.28125 
z
" id="DejaVuSans-53"/>
      </defs>
      <g transform="translate(280.859736 404.638438)scale(0.1 -0.1)">
       <use xlink:href="#DejaVuSans-50"/>
       <use x="63.623047" xlink:href="#DejaVuSans-48"/>
       <use x="127.246094" xlink:href="#DejaVuSans-49"/>
       <use x="190.869141" xlink:href="#DejaVuSans-57"/>
       <use x="254.492188" xlink:href="#DejaVuSans-45"/>
       <use x="290.576172" xlink:href="#DejaVuSans-48"/>
       <use x="354.199219" xlink:href="#DejaVuSans-50"/>
       <use x="417.822266" xlink:href="#DejaVuSans-45"/>
       <use x="453.90625" xlink:href="#DejaVuSans-48"/>
       <use x="517.529297" xlink:href="#DejaVuSans-53"/>
      </g>
     </g>
    </g>
    <g id="xtick_4">
     <g id="line2d_7">
      <path clip-path="url(#p48a93ff6be)" d="M 401.668072 390.04 
L 401.668072 10.8 
" style="fill:none;stroke:#808080;stroke-linecap:square;stroke-opacity:0.2;"/>
     </g>
     <g id="line2d_8">
      <g>
       <use style="stroke:#000000;stroke-width:0.8;" x="401.668072" xlink:href="#me94e36abfc" y="390.04"/>
      </g>
     </g>
     <g id="text_4">
      <!-- 2019-02-19 -->
      <g transform="translate(372.610259 404.638438)scale(0.1 -0.1)">
       <use xlink:href="#DejaVuSans-50"/>
       <use x="63.623047" xlink:href="#DejaVuSans-48"/>
       <use x="127.246094" xlink:href="#DejaVuSans-49"/>
       <use x="190.869141" xlink:href="#DejaVuSans-57"/>
       <use x="254.492188" xlink:href="#DejaVuSans-45"/>
       <use x="290.576172" xlink:href="#DejaVuSans-48"/>
       <use x="354.199219" xlink:href="#DejaVuSans-50"/>
       <use x="417.822266" xlink:href="#DejaVuSans-45"/>
       <use x="453.90625" xlink:href="#DejaVuSans-49"/>
       <use x="517.529297" xlink:href="#DejaVuSans-57"/>
      </g>
     </g>
    </g>
    <g id="xtick_5">
     <g id="line2d_9">
      <path clip-path="url(#p48a93ff6be)" d="M 493.418595 390.04 
L 493.418595 10.8 
" style="fill:none;stroke:#808080;stroke-linecap:square;stroke-opacity:0.2;"/>
     </g>
     <g id="line2d_10">
      <g>
       <use style="stroke:#000000;stroke-width:0.8;" x="493.418595" xlink:href="#me94e36abfc" y="390.04"/>
      </g>
     </g>
     <g id="text_5">
      <!-- 2019-03-05 -->
      <defs>
       <path d="M 40.578125 39.3125 
Q 47.65625 37.796875 51.625 33 
Q 55.609375 28.21875 55.609375 21.1875 
Q 55.609375 10.40625 48.1875 4.484375 
Q 40.765625 -1.421875 27.09375 -1.421875 
Q 22.515625 -1.421875 17.65625 -0.515625 
Q 12.796875 0.390625 7.625 2.203125 
L 7.625 11.71875 
Q 11.71875 9.328125 16.59375 8.109375 
Q 21.484375 6.890625 26.8125 6.890625 
Q 36.078125 6.890625 40.9375 10.546875 
Q 45.796875 14.203125 45.796875 21.1875 
Q 45.796875 27.640625 41.28125 31.265625 
Q 36.765625 34.90625 28.71875 34.90625 
L 20.21875 34.90625 
L 20.21875 43.015625 
L 29.109375 43.015625 
Q 36.375 43.015625 40.234375 45.921875 
Q 44.09375 48.828125 44.09375 54.296875 
Q 44.09375 59.90625 40.109375 62.90625 
Q 36.140625 65.921875 28.71875 65.921875 
Q 24.65625 65.921875 20.015625 65.03125 
Q 15.375 64.15625 9.8125 62.3125 
L 9.8125 71.09375 
Q 15.4375 72.65625 20.34375 73.4375 
Q 25.25 74.21875 29.59375 74.21875 
Q 40.828125 74.21875 47.359375 69.109375 
Q 53.90625 64.015625 53.90625 55.328125 
Q 53.90625 49.265625 50.4375 45.09375 
Q 46.96875 40.921875 40.578125 39.3125 
z
" id="DejaVuSans-51"/>
      </defs>
      <g transform="translate(464.360783 404.638438)scale(0.1 -0.1)">
       <use xlink:href="#DejaVuSans-50"/>
       <use x="63.623047" xlink:href="#DejaVuSans-48"/>
       <use x="127.246094" xlink:href="#DejaVuSans-49"/>
       <use x="190.869141" xlink:href="#DejaVuSans-57"/>
       <use x="254.492188" xlink:href="#DejaVuSans-45"/>
       <use x="290.576172" xlink:href="#DejaVuSans-48"/>
       <use x="354.199219" xlink:href="#DejaVuSans-51"/>
       <use x="417.822266" xlink:href="#DejaVuSans-45"/>
       <use x="453.90625" xlink:href="#DejaVuSans-48"/>
       <use x="517.529297" xlink:href="#DejaVuSans-53"/>
      </g>
     </g>
    </g>
    <g id="xtick_6">
     <g id="line2d_11">
      <path clip-path="url(#p48a93ff6be)" d="M 585.169118 390.04 
L 585.169118 10.8 
" style="fill:none;stroke:#808080;stroke-linecap:square;stroke-opacity:0.2;"/>
     </g>
     <g id="line2d_12">
      <g>
       <use style="stroke:#000000;stroke-width:0.8;" x="585.169118" xlink:href="#me94e36abfc" y="390.04"/>
      </g>
     </g>
     <g id="text_6">
      <!-- 2019-03-19 -->
      <g transform="translate(556.111306 404.638438)scale(0.1 -0.1)">
       <use xlink:href="#DejaVuSans-50"/>
       <use x="63.623047" xlink:href="#DejaVuSans-48"/>
       <use x="127.246094" xlink:href="#DejaVuSans-49"/>
       <use x="190.869141" xlink:href="#DejaVuSans-57"/>
       <use x="254.492188" xlink:href="#DejaVuSans-45"/>
       <use x="290.576172" xlink:href="#DejaVuSans-48"/>
       <use x="354.199219" xlink:href="#DejaVuSans-51"/>
       <use x="417.822266" xlink:href="#DejaVuSans-45"/>
       <use x="453.90625" xlink:href="#DejaVuSans-49"/>
       <use x="517.529297" xlink:href="#DejaVuSans-57"/>
      </g>
     </g>
    </g>
    <g id="xtick_7">
     <g id="line2d_13">
      <path clip-path="url(#p48a93ff6be)" d="M 676.919642 390.04 
L 676.919642 10.8 
" style="fill:none;stroke:#808080;stroke-linecap:square;stroke-opacity:0.2;"/>
     </g>
     <g id="line2d_14">
      <g>
       <use style="stroke:#000000;stroke-width:0.8;" x="676.919642" xlink:href="#me94e36abfc" y="390.04"/>
      </g>
     </g>
     <g id="text_7">
      <!-- 2019-04-02 -->
      <defs>
       <path d="M 37.796875 64.3125 
L 12.890625 25.390625 
L 37.796875 25.390625 
z
M 35.203125 72.90625 
L 47.609375 72.90625 
L 47.609375 25.390625 
L 58.015625 25.390625 
L 58.015625 17.1875 
L 47.609375 17.1875 
L 47.609375 0 
L 37.796875 0 
L 37.796875 17.1875 
L 4.890625 17.1875 
L 4.890625 26.703125 
z
" id="DejaVuSans-52"/>
      </defs>
      <g transform="translate(647.861829 404.638438)scale(0.1 -0.1)">
       <use xlink:href="#DejaVuSans-50"/>
       <use x="63.623047" xlink:href="#DejaVuSans-48"/>
       <use x="127.246094" xlink:href="#DejaVuSans-49"/>
       <use x="190.869141" xlink:href="#DejaVuSans-57"/>
       <use x="254.492188" xlink:href="#DejaVuSans-45"/>
       <use x="290.576172" xlink:href="#DejaVuSans-48"/>
       <use x="354.199219" xlink:href="#DejaVuSans-52"/>
       <use x="417.822266" xlink:href="#DejaVuSans-45"/>
       <use x="453.90625" xlink:href="#DejaVuSans-48"/>
       <use x="517.529297" xlink:href="#DejaVuSans-50"/>
      </g>
     </g>
    </g>
    <g id="text_8">
     <!-- ds -->
     <defs>
      <path d="M 45.40625 46.390625 
L 45.40625 75.984375 
L 54.390625 75.984375 
L 54.390625 0 
L 45.40625 0 
L 45.40625 8.203125 
Q 42.578125 3.328125 38.25 0.953125 
Q 33.9375 -1.421875 27.875 -1.421875 
Q 17.96875 -1.421875 11.734375 6.484375 
Q 5.515625 14.40625 5.515625 27.296875 
Q 5.515625 40.1875 11.734375 48.09375 
Q 17.96875 56 27.875 56 
Q 33.9375 56 38.25 53.625 
Q 42.578125 51.265625 45.40625 46.390625 
z
M 14.796875 27.296875 
Q 14.796875 17.390625 18.875 11.75 
Q 22.953125 6.109375 30.078125 6.109375 
Q 37.203125 6.109375 41.296875 11.75 
Q 45.40625 17.390625 45.40625 27.296875 
Q 45.40625 37.203125 41.296875 42.84375 
Q 37.203125 48.484375 30.078125 48.484375 
Q 22.953125 48.484375 18.875 42.84375 
Q 14.796875 37.203125 14.796875 27.296875 
z
" id="DejaVuSans-100"/>
      <path d="M 44.28125 53.078125 
L 44.28125 44.578125 
Q 40.484375 46.53125 36.375 47.5 
Q 32.28125 48.484375 27.875 48.484375 
Q 21.1875 48.484375 17.84375 46.4375 
Q 14.5 44.390625 14.5 40.28125 
Q 14.5 37.15625 16.890625 35.375 
Q 19.28125 33.59375 26.515625 31.984375 
L 29.59375 31.296875 
Q 39.15625 29.25 43.1875 25.515625 
Q 47.21875 21.78125 47.21875 15.09375 
Q 47.21875 7.46875 41.1875 3.015625 
Q 35.15625 -1.421875 24.609375 -1.421875 
Q 20.21875 -1.421875 15.453125 -0.5625 
Q 10.6875 0.296875 5.421875 2 
L 5.421875 11.28125 
Q 10.40625 8.6875 15.234375 7.390625 
Q 20.0625 6.109375 24.8125 6.109375 
Q 31.15625 6.109375 34.5625 8.28125 
Q 37.984375 10.453125 37.984375 14.40625 
Q 37.984375 18.0625 35.515625 20.015625 
Q 33.0625 21.96875 24.703125 23.78125 
L 21.578125 24.515625 
Q 13.234375 26.265625 9.515625 29.90625 
Q 5.8125 33.546875 5.8125 39.890625 
Q 5.8125 47.609375 11.28125 51.796875 
Q 16.75 56 26.8125 56 
Q 31.78125 56 36.171875 55.265625 
Q 40.578125 54.546875 44.28125 53.078125 
z
" id="DejaVuSans-115"/>
     </defs>
     <g transform="translate(369.67473 418.316562)scale(0.1 -0.1)">
      <use xlink:href="#DejaVuSans-100"/>
      <use x="63.476562" xlink:href="#DejaVuSans-115"/>
     </g>
    </g>
   </g>
   <g id="matplotlib.axis_2">
    <g id="ytick_1">
     <g id="line2d_15">
      <path clip-path="url(#p48a93ff6be)" d="M 51.05 386.54899 
L 699.857273 386.54899 
" style="fill:none;stroke:#808080;stroke-linecap:square;stroke-opacity:0.2;"/>
     </g>
     <g id="line2d_16">
      <defs>
       <path d="M 0 0 
L -3.5 0 
" id="m0ca904314a" style="stroke:#000000;stroke-width:0.8;"/>
      </defs>
      <g>
       <use style="stroke:#000000;stroke-width:0.8;" x="51.05" xlink:href="#m0ca904314a" y="386.54899"/>
      </g>
     </g>
     <g id="text_9">
      <!-- 100 -->
      <g transform="translate(24.9625 390.348209)scale(0.1 -0.1)">
       <use xlink:href="#DejaVuSans-49"/>
       <use x="63.623047" xlink:href="#DejaVuSans-48"/>
       <use x="127.246094" xlink:href="#DejaVuSans-48"/>
      </g>
     </g>
    </g>
    <g id="ytick_2">
     <g id="line2d_17">
      <path clip-path="url(#p48a93ff6be)" d="M 51.05 341.824823 
L 699.857273 341.824823 
" style="fill:none;stroke:#808080;stroke-linecap:square;stroke-opacity:0.2;"/>
     </g>
     <g id="line2d_18">
      <g>
       <use style="stroke:#000000;stroke-width:0.8;" x="51.05" xlink:href="#m0ca904314a" y="341.824823"/>
      </g>
     </g>
     <g id="text_10">
      <!-- 120 -->
      <g transform="translate(24.9625 345.624041)scale(0.1 -0.1)">
       <use xlink:href="#DejaVuSans-49"/>
       <use x="63.623047" xlink:href="#DejaVuSans-50"/>
       <use x="127.246094" xlink:href="#DejaVuSans-48"/>
      </g>
     </g>
    </g>
    <g id="ytick_3">
     <g id="line2d_19">
      <path clip-path="url(#p48a93ff6be)" d="M 51.05 297.100655 
L 699.857273 297.100655 
" style="fill:none;stroke:#808080;stroke-linecap:square;stroke-opacity:0.2;"/>
     </g>
     <g id="line2d_20">
      <g>
       <use style="stroke:#000000;stroke-width:0.8;" x="51.05" xlink:href="#m0ca904314a" y="297.100655"/>
      </g>
     </g>
     <g id="text_11">
      <!-- 140 -->
      <g transform="translate(24.9625 300.899874)scale(0.1 -0.1)">
       <use xlink:href="#DejaVuSans-49"/>
       <use x="63.623047" xlink:href="#DejaVuSans-52"/>
       <use x="127.246094" xlink:href="#DejaVuSans-48"/>
      </g>
     </g>
    </g>
    <g id="ytick_4">
     <g id="line2d_21">
      <path clip-path="url(#p48a93ff6be)" d="M 51.05 252.376488 
L 699.857273 252.376488 
" style="fill:none;stroke:#808080;stroke-linecap:square;stroke-opacity:0.2;"/>
     </g>
     <g id="line2d_22">
      <g>
       <use style="stroke:#000000;stroke-width:0.8;" x="51.05" xlink:href="#m0ca904314a" y="252.376488"/>
      </g>
     </g>
     <g id="text_12">
      <!-- 160 -->
      <defs>
       <path d="M 33.015625 40.375 
Q 26.375 40.375 22.484375 35.828125 
Q 18.609375 31.296875 18.609375 23.390625 
Q 18.609375 15.53125 22.484375 10.953125 
Q 26.375 6.390625 33.015625 6.390625 
Q 39.65625 6.390625 43.53125 10.953125 
Q 47.40625 15.53125 47.40625 23.390625 
Q 47.40625 31.296875 43.53125 35.828125 
Q 39.65625 40.375 33.015625 40.375 
z
M 52.59375 71.296875 
L 52.59375 62.3125 
Q 48.875 64.0625 45.09375 64.984375 
Q 41.3125 65.921875 37.59375 65.921875 
Q 27.828125 65.921875 22.671875 59.328125 
Q 17.53125 52.734375 16.796875 39.40625 
Q 19.671875 43.65625 24.015625 45.921875 
Q 28.375 48.1875 33.59375 48.1875 
Q 44.578125 48.1875 50.953125 41.515625 
Q 57.328125 34.859375 57.328125 23.390625 
Q 57.328125 12.15625 50.6875 5.359375 
Q 44.046875 -1.421875 33.015625 -1.421875 
Q 20.359375 -1.421875 13.671875 8.265625 
Q 6.984375 17.96875 6.984375 36.375 
Q 6.984375 53.65625 15.1875 63.9375 
Q 23.390625 74.21875 37.203125 74.21875 
Q 40.921875 74.21875 44.703125 73.484375 
Q 48.484375 72.75 52.59375 71.296875 
z
" id="DejaVuSans-54"/>
      </defs>
      <g transform="translate(24.9625 256.175706)scale(0.1 -0.1)">
       <use xlink:href="#DejaVuSans-49"/>
       <use x="63.623047" xlink:href="#DejaVuSans-54"/>
       <use x="127.246094" xlink:href="#DejaVuSans-48"/>
      </g>
     </g>
    </g>
    <g id="ytick_5">
     <g id="line2d_23">
      <path clip-path="url(#p48a93ff6be)" d="M 51.05 207.65232 
L 699.857273 207.65232 
" style="fill:none;stroke:#808080;stroke-linecap:square;stroke-opacity:0.2;"/>
     </g>
     <g id="line2d_24">
      <g>
       <use style="stroke:#000000;stroke-width:0.8;" x="51.05" xlink:href="#m0ca904314a" y="207.65232"/>
      </g>
     </g>
     <g id="text_13">
      <!-- 180 -->
      <g transform="translate(24.9625 211.451539)scale(0.1 -0.1)">
       <use xlink:href="#DejaVuSans-49"/>
       <use x="63.623047" xlink:href="#DejaVuSans-56"/>
       <use x="127.246094" xlink:href="#DejaVuSans-48"/>
      </g>
     </g>
    </g>
    <g id="ytick_6">
     <g id="line2d_25">
      <path clip-path="url(#p48a93ff6be)" d="M 51.05 162.928153 
L 699.857273 162.928153 
" style="fill:none;stroke:#808080;stroke-linecap:square;stroke-opacity:0.2;"/>
     </g>
     <g id="line2d_26">
      <g>
       <use style="stroke:#000000;stroke-width:0.8;" x="51.05" xlink:href="#m0ca904314a" y="162.928153"/>
      </g>
     </g>
     <g id="text_14">
      <!-- 200 -->
      <g transform="translate(24.9625 166.727372)scale(0.1 -0.1)">
       <use xlink:href="#DejaVuSans-50"/>
       <use x="63.623047" xlink:href="#DejaVuSans-48"/>
       <use x="127.246094" xlink:href="#DejaVuSans-48"/>
      </g>
     </g>
    </g>
    <g id="ytick_7">
     <g id="line2d_27">
      <path clip-path="url(#p48a93ff6be)" d="M 51.05 118.203985 
L 699.857273 118.203985 
" style="fill:none;stroke:#808080;stroke-linecap:square;stroke-opacity:0.2;"/>
     </g>
     <g id="line2d_28">
      <g>
       <use style="stroke:#000000;stroke-width:0.8;" x="51.05" xlink:href="#m0ca904314a" y="118.203985"/>
      </g>
     </g>
     <g id="text_15">
      <!-- 220 -->
      <g transform="translate(24.9625 122.003204)scale(0.1 -0.1)">
       <use xlink:href="#DejaVuSans-50"/>
       <use x="63.623047" xlink:href="#DejaVuSans-50"/>
       <use x="127.246094" xlink:href="#DejaVuSans-48"/>
      </g>
     </g>
    </g>
    <g id="ytick_8">
     <g id="line2d_29">
      <path clip-path="url(#p48a93ff6be)" d="M 51.05 73.479818 
L 699.857273 73.479818 
" style="fill:none;stroke:#808080;stroke-linecap:square;stroke-opacity:0.2;"/>
     </g>
     <g id="line2d_30">
      <g>
       <use style="stroke:#000000;stroke-width:0.8;" x="51.05" xlink:href="#m0ca904314a" y="73.479818"/>
      </g>
     </g>
     <g id="text_16">
      <!-- 240 -->
      <g transform="translate(24.9625 77.279037)scale(0.1 -0.1)">
       <use xlink:href="#DejaVuSans-50"/>
       <use x="63.623047" xlink:href="#DejaVuSans-52"/>
       <use x="127.246094" xlink:href="#DejaVuSans-48"/>
      </g>
     </g>
    </g>
    <g id="ytick_9">
     <g id="line2d_31">
      <path clip-path="url(#p48a93ff6be)" d="M 51.05 28.755651 
L 699.857273 28.755651 
" style="fill:none;stroke:#808080;stroke-linecap:square;stroke-opacity:0.2;"/>
     </g>
     <g id="line2d_32">
      <g>
       <use style="stroke:#000000;stroke-width:0.8;" x="51.05" xlink:href="#m0ca904314a" y="28.755651"/>
      </g>
     </g>
     <g id="text_17">
      <!-- 260 -->
      <g transform="translate(24.9625 32.554869)scale(0.1 -0.1)">
       <use xlink:href="#DejaVuSans-50"/>
       <use x="63.623047" xlink:href="#DejaVuSans-54"/>
       <use x="127.246094" xlink:href="#DejaVuSans-48"/>
      </g>
     </g>
    </g>
    <g id="text_18">
     <!-- y -->
     <defs>
      <path d="M 32.171875 -5.078125 
Q 28.375 -14.84375 24.75 -17.8125 
Q 21.140625 -20.796875 15.09375 -20.796875 
L 7.90625 -20.796875 
L 7.90625 -13.28125 
L 13.1875 -13.28125 
Q 16.890625 -13.28125 18.9375 -11.515625 
Q 21 -9.765625 23.484375 -3.21875 
L 25.09375 0.875 
L 2.984375 54.6875 
L 12.5 54.6875 
L 29.59375 11.921875 
L 46.6875 54.6875 
L 56.203125 54.6875 
z
" id="DejaVuSans-121"/>
     </defs>
     <g transform="translate(18.882812 203.379375)rotate(-90)scale(0.1 -0.1)">
      <use xlink:href="#DejaVuSans-121"/>
     </g>
    </g>
   </g>
   <g id="line2d_33">
    <defs>
     <path d="M 0 1.5 
C 0.397805 1.5 0.77937 1.341951 1.06066 1.06066 
C 1.341951 0.77937 1.5 0.397805 1.5 0 
C 1.5 -0.397805 1.341951 -0.77937 1.06066 -1.06066 
C 0.77937 -1.341951 0.397805 -1.5 0 -1.5 
C -0.397805 -1.5 -0.77937 -1.341951 -1.06066 -1.06066 
C -1.341951 -0.77937 -1.5 -0.397805 -1.5 0 
C -1.5 0.397805 -1.341951 0.77937 -1.06066 1.06066 
C -0.77937 1.341951 -0.397805 1.5 0 1.5 
z
" id="mac531639c6" style="stroke:#000000;"/>
    </defs>
    <g clip-path="url(#p48a93ff6be)">
     <use style="stroke:#000000;" x="80.54124" xlink:href="#mac531639c6" y="39.936692"/>
     <use style="stroke:#000000;" x="87.094848" xlink:href="#mac531639c6" y="290.39203"/>
     <use style="stroke:#000000;" x="100.202066" xlink:href="#mac531639c6" y="39.936692"/>
     <use style="stroke:#000000;" x="106.755675" xlink:href="#mac531639c6" y="285.919613"/>
     <use style="stroke:#000000;" x="113.309284" xlink:href="#mac531639c6" y="290.39203"/>
     <use style="stroke:#000000;" x="119.862893" xlink:href="#mac531639c6" y="39.936692"/>
     <use style="stroke:#000000;" x="126.416501" xlink:href="#mac531639c6" y="274.738571"/>
     <use style="stroke:#000000;" x="132.97011" xlink:href="#mac531639c6" y="292.628238"/>
     <use style="stroke:#000000;" x="139.523719" xlink:href="#mac531639c6" y="39.936692"/>
     <use style="stroke:#000000;" x="146.077328" xlink:href="#mac531639c6" y="274.738571"/>
     <use style="stroke:#000000;" x="152.630937" xlink:href="#mac531639c6" y="285.919613"/>
     <use style="stroke:#000000;" x="159.184545" xlink:href="#mac531639c6" y="39.936692"/>
     <use style="stroke:#000000;" x="165.738154" xlink:href="#mac531639c6" y="288.155822"/>
     <use style="stroke:#000000;" x="178.845372" xlink:href="#mac531639c6" y="39.936692"/>
     <use style="stroke:#000000;" x="185.398981" xlink:href="#mac531639c6" y="274.738571"/>
     <use style="stroke:#000000;" x="191.95259" xlink:href="#mac531639c6" y="279.210988"/>
     <use style="stroke:#000000;" x="198.506198" xlink:href="#mac531639c6" y="39.936692"/>
     <use style="stroke:#000000;" x="205.059807" xlink:href="#mac531639c6" y="283.683405"/>
     <use style="stroke:#000000;" x="211.613416" xlink:href="#mac531639c6" y="281.447196"/>
     <use style="stroke:#000000;" x="218.167025" xlink:href="#mac531639c6" y="39.936692"/>
     <use style="stroke:#000000;" x="224.720634" xlink:href="#mac531639c6" y="270.266155"/>
     <use style="stroke:#000000;" x="231.274242" xlink:href="#mac531639c6" y="274.738571"/>
     <use style="stroke:#000000;" x="237.827851" xlink:href="#mac531639c6" y="39.936692"/>
     <use style="stroke:#000000;" x="244.38146" xlink:href="#mac531639c6" y="301.573072"/>
     <use style="stroke:#000000;" x="250.935069" xlink:href="#mac531639c6" y="279.210988"/>
     <use style="stroke:#000000;" x="257.488678" xlink:href="#mac531639c6" y="39.936692"/>
     <use style="stroke:#000000;" x="264.042287" xlink:href="#mac531639c6" y="274.738571"/>
     <use style="stroke:#000000;" x="270.595895" xlink:href="#mac531639c6" y="283.683405"/>
     <use style="stroke:#000000;" x="277.149504" xlink:href="#mac531639c6" y="39.936692"/>
     <use style="stroke:#000000;" x="283.703113" xlink:href="#mac531639c6" y="285.919613"/>
     <use style="stroke:#000000;" x="290.256722" xlink:href="#mac531639c6" y="283.683405"/>
     <use style="stroke:#000000;" x="296.810331" xlink:href="#mac531639c6" y="39.936692"/>
     <use style="stroke:#000000;" x="303.363939" xlink:href="#mac531639c6" y="290.39203"/>
     <use style="stroke:#000000;" x="309.917548" xlink:href="#mac531639c6" y="283.683405"/>
     <use style="stroke:#000000;" x="316.471157" xlink:href="#mac531639c6" y="39.936692"/>
     <use style="stroke:#000000;" x="323.024766" xlink:href="#mac531639c6" y="288.155822"/>
     <use style="stroke:#000000;" x="329.578375" xlink:href="#mac531639c6" y="281.447196"/>
     <use style="stroke:#000000;" x="336.131983" xlink:href="#mac531639c6" y="39.936692"/>
     <use style="stroke:#000000;" x="342.685592" xlink:href="#mac531639c6" y="279.210988"/>
     <use style="stroke:#000000;" x="349.239201" xlink:href="#mac531639c6" y="292.628238"/>
     <use style="stroke:#000000;" x="355.79281" xlink:href="#mac531639c6" y="39.936692"/>
     <use style="stroke:#000000;" x="368.900028" xlink:href="#mac531639c6" y="290.39203"/>
     <use style="stroke:#000000;" x="382.007245" xlink:href="#mac531639c6" y="265.793738"/>
     <use style="stroke:#000000;" x="388.560854" xlink:href="#mac531639c6" y="281.447196"/>
     <use style="stroke:#000000;" x="395.114463" xlink:href="#mac531639c6" y="39.936692"/>
     <use style="stroke:#000000;" x="401.668072" xlink:href="#mac531639c6" y="288.155822"/>
     <use style="stroke:#000000;" x="414.775289" xlink:href="#mac531639c6" y="39.936692"/>
     <use style="stroke:#000000;" x="421.328898" xlink:href="#mac531639c6" y="276.97478"/>
     <use style="stroke:#000000;" x="427.882507" xlink:href="#mac531639c6" y="270.266155"/>
     <use style="stroke:#000000;" x="434.436116" xlink:href="#mac531639c6" y="39.936692"/>
     <use style="stroke:#000000;" x="447.543333" xlink:href="#mac531639c6" y="288.155822"/>
     <use style="stroke:#000000;" x="454.096942" xlink:href="#mac531639c6" y="39.936692"/>
     <use style="stroke:#000000;" x="460.650551" xlink:href="#mac531639c6" y="274.738571"/>
     <use style="stroke:#000000;" x="467.20416" xlink:href="#mac531639c6" y="270.266155"/>
     <use style="stroke:#000000;" x="473.757769" xlink:href="#mac531639c6" y="39.936692"/>
     <use style="stroke:#000000;" x="486.864986" xlink:href="#mac531639c6" y="288.155822"/>
     <use style="stroke:#000000;" x="493.418595" xlink:href="#mac531639c6" y="39.936692"/>
     <use style="stroke:#000000;" x="499.972204" xlink:href="#mac531639c6" y="288.155822"/>
     <use style="stroke:#000000;" x="506.525813" xlink:href="#mac531639c6" y="274.738571"/>
     <use style="stroke:#000000;" x="513.079421" xlink:href="#mac531639c6" y="39.936692"/>
     <use style="stroke:#000000;" x="519.63303" xlink:href="#mac531639c6" y="288.155822"/>
     <use style="stroke:#000000;" x="526.186639" xlink:href="#mac531639c6" y="288.155822"/>
     <use style="stroke:#000000;" x="532.740248" xlink:href="#mac531639c6" y="39.936692"/>
     <use style="stroke:#000000;" x="539.293857" xlink:href="#mac531639c6" y="283.683405"/>
     <use style="stroke:#000000;" x="545.847466" xlink:href="#mac531639c6" y="270.266155"/>
     <use style="stroke:#000000;" x="552.401074" xlink:href="#mac531639c6" y="39.936692"/>
     <use style="stroke:#000000;" x="558.954683" xlink:href="#mac531639c6" y="283.683405"/>
     <use style="stroke:#000000;" x="565.508292" xlink:href="#mac531639c6" y="285.919613"/>
     <use style="stroke:#000000;" x="572.061901" xlink:href="#mac531639c6" y="39.936692"/>
     <use style="stroke:#000000;" x="578.61551" xlink:href="#mac531639c6" y="270.266155"/>
     <use style="stroke:#000000;" x="585.169118" xlink:href="#mac531639c6" y="274.738571"/>
     <use style="stroke:#000000;" x="591.722727" xlink:href="#mac531639c6" y="39.936692"/>
     <use style="stroke:#000000;" x="604.829945" xlink:href="#mac531639c6" y="288.155822"/>
     <use style="stroke:#000000;" x="611.383554" xlink:href="#mac531639c6" y="39.936692"/>
     <use style="stroke:#000000;" x="617.937163" xlink:href="#mac531639c6" y="270.266155"/>
     <use style="stroke:#000000;" x="624.490771" xlink:href="#mac531639c6" y="283.683405"/>
     <use style="stroke:#000000;" x="631.04438" xlink:href="#mac531639c6" y="39.936692"/>
     <use style="stroke:#000000;" x="637.597989" xlink:href="#mac531639c6" y="276.97478"/>
     <use style="stroke:#000000;" x="650.705207" xlink:href="#mac531639c6" y="39.936692"/>
     <use style="stroke:#000000;" x="657.258815" xlink:href="#mac531639c6" y="288.155822"/>
     <use style="stroke:#000000;" x="663.812424" xlink:href="#mac531639c6" y="279.210988"/>
    </g>
   </g>
   <g id="line2d_34">
    <path clip-path="url(#p48a93ff6be)" d="M 80.54124 179.345709 
L 87.094848 192.643657 
L 100.202066 198.806914 
L 106.755675 207.654926 
L 113.309284 199.7722 
L 119.862893 194.788476 
L 126.416501 179.552342 
L 132.97011 192.85029 
L 139.523719 182.828737 
L 146.077328 199.013547 
L 152.630937 207.861559 
L 159.184545 199.978833 
L 165.738154 194.995109 
L 178.845372 193.056923 
L 185.398981 183.03537 
L 191.95259 199.22018 
L 198.506198 208.068192 
L 205.059807 200.185466 
L 211.613416 195.201743 
L 218.167025 179.965608 
L 224.720634 193.263556 
L 231.274242 183.242003 
L 237.827851 199.426813 
L 244.38146 208.274825 
L 250.935069 200.392099 
L 257.488678 195.408376 
L 264.042287 180.172242 
L 270.595895 193.47019 
L 277.149504 183.448636 
L 283.703113 199.633446 
L 290.256722 208.481459 
L 296.810331 200.598733 
L 303.363939 195.615009 
L 309.917548 180.378875 
L 316.471157 193.676823 
L 323.024766 183.655269 
L 329.578375 199.840079 
L 336.131983 208.688092 
L 342.685592 200.805366 
L 349.239201 195.821642 
L 355.79281 180.585508 
L 368.900028 183.861902 
L 382.007245 208.894725 
L 388.560854 201.011999 
L 395.114463 196.028275 
L 401.668072 180.792141 
L 414.775289 184.068535 
L 421.328898 200.253346 
L 427.882507 209.101358 
L 434.436116 201.218632 
L 447.543333 180.998774 
L 454.096942 194.296722 
L 460.650551 184.275168 
L 467.20416 200.459979 
L 473.757769 209.307991 
L 486.864986 196.441541 
L 493.418595 181.205407 
L 499.972204 194.503355 
L 506.525813 184.481802 
L 513.079421 200.666612 
L 519.63303 209.514624 
L 526.186639 201.631898 
L 532.740248 196.648174 
L 539.293857 181.41204 
L 545.847466 194.709988 
L 552.401074 184.688435 
L 558.954683 200.873245 
L 565.508292 209.721257 
L 572.061901 201.838531 
L 578.61551 196.854807 
L 585.169118 181.618673 
L 591.722727 194.916621 
L 604.829945 201.079878 
L 611.383554 209.92789 
L 617.937163 202.045164 
L 624.490771 197.061441 
L 631.04438 181.825306 
L 637.597989 195.123254 
L 650.705207 201.286511 
L 657.258815 210.134523 
L 663.812424 202.251797 
L 670.366033 197.268074 
" style="fill:none;stroke:#0072b2;stroke-linecap:square;stroke-width:1.5;"/>
   </g>
   <g id="patch_3">
    <path d="M 51.05 390.04 
L 51.05 10.8 
" style="fill:none;stroke:#000000;stroke-linecap:square;stroke-linejoin:miter;stroke-width:0.8;"/>
   </g>
   <g id="patch_4">
    <path d="M 699.857273 390.04 
L 699.857273 10.8 
" style="fill:none;stroke:#000000;stroke-linecap:square;stroke-linejoin:miter;stroke-width:0.8;"/>
   </g>
   <g id="patch_5">
    <path d="M 51.05 390.04 
L 699.857273 390.04 
" style="fill:none;stroke:#000000;stroke-linecap:square;stroke-linejoin:miter;stroke-width:0.8;"/>
   </g>
   <g id="patch_6">
    <path d="M 51.05 10.8 
L 699.857273 10.8 
" style="fill:none;stroke:#000000;stroke-linecap:square;stroke-linejoin:miter;stroke-width:0.8;"/>
   </g>
  </g>
 </g>
 <defs>
  <clipPath id="p48a93ff6be">
   <rect height="379.24" width="648.807273" x="51.05" y="10.8"/>
  </clipPath>
 </defs>
</svg>
