<?xml version="1.0" encoding="utf-8" standalone="no"?>
<!DOCTYPE svg PUBLIC "-//W3C//DTD SVG 1.1//EN"
  "http://www.w3.org/Graphics/SVG/1.1/DTD/svg11.dtd">
<!-- Created with matplotlib (https://matplotlib.org/) -->
<svg height="432pt" version="1.1" viewBox="0 0 720 432" width="720pt" xmlns="http://www.w3.org/2000/svg" xmlns:xlink="http://www.w3.org/1999/xlink">
 <defs>
  <style type="text/css">
*{stroke-linecap:butt;stroke-linejoin:round;}
  </style>
 </defs>
 <g id="figure_1">
  <g id="patch_1">
   <path d="M 0 432 
L 720 432 
L 720 0 
L 0 0 
z
" style="fill:#ffffff;"/>
  </g>
  <g id="axes_1">
   <g id="patch_2">
    <path d="M 51.05 390.04 
L 699.857273 390.04 
L 699.857273 13.154227 
L 51.05 13.154227 
z
" style="fill:#ffffff;"/>
   </g>
   <g id="PolyCollection_1">
    <defs>
     <path d="M 80.54124 -385.591919 
L 80.54124 -94.008039 
L 87.094848 -87.352413 
L 100.202066 -65.191052 
L 106.755675 -76.137326 
L 113.309284 -80.467735 
L 119.862893 -79.357532 
L 126.416501 -93.798315 
L 132.97011 -90.165693 
L 139.523719 -101.888541 
L 146.077328 -87.209012 
L 152.630937 -62.652045 
L 159.184545 -77.031104 
L 165.738154 -78.709887 
L 178.845372 -79.432086 
L 185.398981 -85.6937 
L 191.95259 -71.311997 
L 198.506198 -74.260688 
L 205.059807 -85.787685 
L 211.613416 -81.138307 
L 218.167025 -96.711291 
L 224.720634 -71.220729 
L 231.274242 -77.908106 
L 237.827851 -81.614889 
L 244.38146 -62.352799 
L 250.935069 -80.959472 
L 257.488678 -92.46984 
L 264.042287 -107.107047 
L 270.595895 -78.854745 
L 277.149504 -90.989339 
L 283.703113 -76.883373 
L 290.256722 -82.825656 
L 296.810331 -76.639453 
L 303.363939 -100.870484 
L 309.917548 -96.088764 
L 316.471157 -76.492674 
L 323.024766 -94.654361 
L 329.578375 -69.894834 
L 336.131983 -59.091171 
L 342.685592 -74.696998 
L 349.239201 -74.79186 
L 355.79281 -106.907664 
L 368.900028 -89.078668 
L 382.007245 -63.713656 
L 388.560854 -81.960551 
L 395.114463 -68.19411 
L 401.668072 -94.003679 
L 414.775289 -95.428753 
L 421.328898 -89.643501 
L 427.882507 -71.606781 
L 434.436116 -81.438749 
L 447.543333 -100.017549 
L 454.096942 -81.318681 
L 460.650551 -92.197163 
L 467.20416 -71.421863 
L 473.757769 -66.995166 
L 486.864986 -84.817002 
L 493.418595 -97.961583 
L 499.972204 -83.635091 
L 506.525813 -94.65321 
L 513.079421 -82.130131 
L 519.63303 -60.049023 
L 526.186639 -76.020381 
L 532.740248 -82.567243 
L 539.293857 -87.666953 
L 545.847466 -78.023337 
L 552.401074 -93.058301 
L 558.954683 -89.781483 
L 565.508292 -71.271059 
L 572.061901 -77.683065 
L 578.61551 -93.654142 
L 585.169118 -95.707901 
L 591.722727 -70.999856 
L 604.829945 -75.446293 
L 611.383554 -60.485859 
L 617.937163 -80.317596 
L 624.490771 -84.206774 
L 631.04438 -96.22436 
L 637.597989 -80.162928 
L 650.705207 -83.067665 
L 657.258815 -62.025273 
L 663.812424 -77.473913 
L 670.366033 -83.693361 
L 670.366033 -358.325348 
L 670.366033 -358.325348 
L 663.812424 -358.708605 
L 657.258815 -353.008298 
L 650.705207 -363.950256 
L 637.597989 -370.9066 
L 631.04438 -372.607996 
L 624.490771 -363.277138 
L 617.937163 -366.535613 
L 611.383554 -353.979299 
L 604.829945 -370.904651 
L 591.722727 -357.798601 
L 585.169118 -384.005053 
L 578.61551 -365.548512 
L 572.061901 -357.671324 
L 565.508292 -353.951802 
L 558.954683 -367.854987 
L 552.401074 -377.548005 
L 545.847466 -368.067215 
L 539.293857 -385.846794 
L 532.740248 -372.106814 
L 526.186639 -361.740463 
L 519.63303 -349.340854 
L 513.079421 -351.271299 
L 506.525813 -367.823792 
L 499.972204 -356.309626 
L 493.418595 -401.714601 
L 486.864986 -378.143905 
L 473.757769 -358.970349 
L 467.20416 -364.256458 
L 460.650551 -386.202268 
L 454.096942 -361.33972 
L 447.543333 -389.086399 
L 434.436116 -365.609812 
L 427.882507 -371.498192 
L 421.328898 -371.212158 
L 414.775289 -384.018971 
L 401.668072 -388.420044 
L 395.114463 -372.535684 
L 388.560854 -363.122414 
L 382.007245 -354.62982 
L 368.900028 -387.418705 
L 355.79281 -381.439712 
L 349.239201 -361.931291 
L 342.685592 -354.228823 
L 336.131983 -354.047583 
L 329.578375 -358.028664 
L 323.024766 -371.537543 
L 316.471157 -379.301569 
L 309.917548 -387.629371 
L 303.363939 -374.190849 
L 296.810331 -357.805422 
L 290.256722 -363.847664 
L 283.703113 -357.42582 
L 277.149504 -376.641773 
L 270.595895 -356.002115 
L 264.042287 -380.409267 
L 257.488678 -377.656316 
L 250.935069 -361.438985 
L 244.38146 -364.404039 
L 237.827851 -373.461672 
L 231.274242 -383.089011 
L 224.720634 -372.02072 
L 218.167025 -393.729667 
L 211.613416 -374.932622 
L 205.059807 -360.392506 
L 198.506198 -358.190613 
L 191.95259 -367.247308 
L 185.398981 -378.180927 
L 178.845372 -363.725586 
L 165.738154 -368.194751 
L 159.184545 -368.503617 
L 152.630937 -353.637846 
L 146.077328 -371.12088 
L 139.523719 -379.965939 
L 132.97011 -373.315956 
L 126.416501 -377.878309 
L 119.862893 -382.30733 
L 113.309284 -370.380227 
L 106.755675 -350.806105 
L 100.202066 -350.8762 
L 87.094848 -366.485334 
L 80.54124 -385.591919 
z
" id="m3ce12aec6e" style="stroke:#0072b2;stroke-opacity:0.2;"/>
    </defs>
    <g clip-path="url(#p6ab83030f0)">
     <use style="fill:#0072b2;fill-opacity:0.2;stroke:#0072b2;stroke-opacity:0.2;" x="0" xlink:href="#m3ce12aec6e" y="432"/>
    </g>
   </g>
   <g id="matplotlib.axis_1">
    <g id="xtick_1">
     <g id="line2d_1">
      <path clip-path="url(#p6ab83030f0)" d="M 126.416501 390.04 
L 126.416501 13.154227 
" style="fill:none;stroke:#808080;stroke-linecap:square;stroke-opacity:0.2;"/>
     </g>
     <g id="line2d_2">
      <defs>
       <path d="M 0 0 
L 0 3.5 
" id="mcf11699de6" style="stroke:#000000;stroke-width:0.8;"/>
      </defs>
      <g>
       <use style="stroke:#000000;stroke-width:0.8;" x="126.416501" xlink:href="#mcf11699de6" y="390.04"/>
      </g>
     </g>
     <g id="text_1">
      <!-- 2019-01-08 -->
      <defs>
       <path d="M 19.1875 8.296875 
L 53.609375 8.296875 
L 53.609375 0 
L 7.328125 0 
L 7.328125 8.296875 
Q 12.9375 14.109375 22.625 23.890625 
Q 32.328125 33.6875 34.8125 36.53125 
Q 39.546875 41.84375 41.421875 45.53125 
Q 43.3125 49.21875 43.3125 52.78125 
Q 43.3125 58.59375 39.234375 62.25 
Q 35.15625 65.921875 28.609375 65.921875 
Q 23.96875 65.921875 18.8125 64.3125 
Q 13.671875 62.703125 7.8125 59.421875 
L 7.8125 69.390625 
Q 13.765625 71.78125 18.9375 73 
Q 24.125 74.21875 28.421875 74.21875 
Q 39.75 74.21875 46.484375 68.546875 
Q 53.21875 62.890625 53.21875 53.421875 
Q 53.21875 48.921875 51.53125 44.890625 
Q 49.859375 40.875 45.40625 35.40625 
Q 44.1875 33.984375 37.640625 27.21875 
Q 31.109375 20.453125 19.1875 8.296875 
z
" id="DejaVuSans-50"/>
       <path d="M 31.78125 66.40625 
Q 24.171875 66.40625 20.328125 58.90625 
Q 16.5 51.421875 16.5 36.375 
Q 16.5 21.390625 20.328125 13.890625 
Q 24.171875 6.390625 31.78125 6.390625 
Q 39.453125 6.390625 43.28125 13.890625 
Q 47.125 21.390625 47.125 36.375 
Q 47.125 51.421875 43.28125 58.90625 
Q 39.453125 66.40625 31.78125 66.40625 
z
M 31.78125 74.21875 
Q 44.046875 74.21875 50.515625 64.515625 
Q 56.984375 54.828125 56.984375 36.375 
Q 56.984375 17.96875 50.515625 8.265625 
Q 44.046875 -1.421875 31.78125 -1.421875 
Q 19.53125 -1.421875 13.0625 8.265625 
Q 6.59375 17.96875 6.59375 36.375 
Q 6.59375 54.828125 13.0625 64.515625 
Q 19.53125 74.21875 31.78125 74.21875 
z
" id="DejaVuSans-48"/>
       <path d="M 12.40625 8.296875 
L 28.515625 8.296875 
L 28.515625 63.921875 
L 10.984375 60.40625 
L 10.984375 69.390625 
L 28.421875 72.90625 
L 38.28125 72.90625 
L 38.28125 8.296875 
L 54.390625 8.296875 
L 54.390625 0 
L 12.40625 0 
z
" id="DejaVuSans-49"/>
       <path d="M 10.984375 1.515625 
L 10.984375 10.5 
Q 14.703125 8.734375 18.5 7.8125 
Q 22.3125 6.890625 25.984375 6.890625 
Q 35.75 6.890625 40.890625 13.453125 
Q 46.046875 20.015625 46.78125 33.40625 
Q 43.953125 29.203125 39.59375 26.953125 
Q 35.25 24.703125 29.984375 24.703125 
Q 19.046875 24.703125 12.671875 31.3125 
Q 6.296875 37.9375 6.296875 49.421875 
Q 6.296875 60.640625 12.9375 67.421875 
Q 19.578125 74.21875 30.609375 74.21875 
Q 43.265625 74.21875 49.921875 64.515625 
Q 56.59375 54.828125 56.59375 36.375 
Q 56.59375 19.140625 48.40625 8.859375 
Q 40.234375 -1.421875 26.421875 -1.421875 
Q 22.703125 -1.421875 18.890625 -0.6875 
Q 15.09375 0.046875 10.984375 1.515625 
z
M 30.609375 32.421875 
Q 37.25 32.421875 41.125 36.953125 
Q 45.015625 41.5 45.015625 49.421875 
Q 45.015625 57.28125 41.125 61.84375 
Q 37.25 66.40625 30.609375 66.40625 
Q 23.96875 66.40625 20.09375 61.84375 
Q 16.21875 57.28125 16.21875 49.421875 
Q 16.21875 41.5 20.09375 36.953125 
Q 23.96875 32.421875 30.609375 32.421875 
z
" id="DejaVuSans-57"/>
       <path d="M 4.890625 31.390625 
L 31.203125 31.390625 
L 31.203125 23.390625 
L 4.890625 23.390625 
z
" id="DejaVuSans-45"/>
       <path d="M 31.78125 34.625 
Q 24.75 34.625 20.71875 30.859375 
Q 16.703125 27.09375 16.703125 20.515625 
Q 16.703125 13.921875 20.71875 10.15625 
Q 24.75 6.390625 31.78125 6.390625 
Q 38.8125 6.390625 42.859375 10.171875 
Q 46.921875 13.96875 46.921875 20.515625 
Q 46.921875 27.09375 42.890625 30.859375 
Q 38.875 34.625 31.78125 34.625 
z
M 21.921875 38.8125 
Q 15.578125 40.375 12.03125 44.71875 
Q 8.5 49.078125 8.5 55.328125 
Q 8.5 64.0625 14.71875 69.140625 
Q 20.953125 74.21875 31.78125 74.21875 
Q 42.671875 74.21875 48.875 69.140625 
Q 55.078125 64.0625 55.078125 55.328125 
Q 55.078125 49.078125 51.53125 44.71875 
Q 48 40.375 41.703125 38.8125 
Q 48.828125 37.15625 52.796875 32.3125 
Q 56.78125 27.484375 56.78125 20.515625 
Q 56.78125 9.90625 50.3125 4.234375 
Q 43.84375 -1.421875 31.78125 -1.421875 
Q 19.734375 -1.421875 13.25 4.234375 
Q 6.78125 9.90625 6.78125 20.515625 
Q 6.78125 27.484375 10.78125 32.3125 
Q 14.796875 37.15625 21.921875 38.8125 
z
M 18.3125 54.390625 
Q 18.3125 48.734375 21.84375 45.5625 
Q 25.390625 42.390625 31.78125 42.390625 
Q 38.140625 42.390625 41.71875 45.5625 
Q 45.3125 48.734375 45.3125 54.390625 
Q 45.3125 60.0625 41.71875 63.234375 
Q 38.140625 66.40625 31.78125 66.40625 
Q 25.390625 66.40625 21.84375 63.234375 
Q 18.3125 60.0625 18.3125 54.390625 
z
" id="DejaVuSans-56"/>
      </defs>
      <g transform="translate(97.358689 404.638438)scale(0.1 -0.1)">
       <use xlink:href="#DejaVuSans-50"/>
       <use x="63.623047" xlink:href="#DejaVuSans-48"/>
       <use x="127.246094" xlink:href="#DejaVuSans-49"/>
       <use x="190.869141" xlink:href="#DejaVuSans-57"/>
       <use x="254.492188" xlink:href="#DejaVuSans-45"/>
       <use x="290.576172" xlink:href="#DejaVuSans-48"/>
       <use x="354.199219" xlink:href="#DejaVuSans-49"/>
       <use x="417.822266" xlink:href="#DejaVuSans-45"/>
       <use x="453.90625" xlink:href="#DejaVuSans-48"/>
       <use x="517.529297" xlink:href="#DejaVuSans-56"/>
      </g>
     </g>
    </g>
    <g id="xtick_2">
     <g id="line2d_3">
      <path clip-path="url(#p6ab83030f0)" d="M 218.167025 390.04 
L 218.167025 13.154227 
" style="fill:none;stroke:#808080;stroke-linecap:square;stroke-opacity:0.2;"/>
     </g>
     <g id="line2d_4">
      <g>
       <use style="stroke:#000000;stroke-width:0.8;" x="218.167025" xlink:href="#mcf11699de6" y="390.04"/>
      </g>
     </g>
     <g id="text_2">
      <!-- 2019-01-22 -->
      <g transform="translate(189.109212 404.638438)scale(0.1 -0.1)">
       <use xlink:href="#DejaVuSans-50"/>
       <use x="63.623047" xlink:href="#DejaVuSans-48"/>
       <use x="127.246094" xlink:href="#DejaVuSans-49"/>
       <use x="190.869141" xlink:href="#DejaVuSans-57"/>
       <use x="254.492188" xlink:href="#DejaVuSans-45"/>
       <use x="290.576172" xlink:href="#DejaVuSans-48"/>
       <use x="354.199219" xlink:href="#DejaVuSans-49"/>
       <use x="417.822266" xlink:href="#DejaVuSans-45"/>
       <use x="453.90625" xlink:href="#DejaVuSans-50"/>
       <use x="517.529297" xlink:href="#DejaVuSans-50"/>
      </g>
     </g>
    </g>
    <g id="xtick_3">
     <g id="line2d_5">
      <path clip-path="url(#p6ab83030f0)" d="M 309.917548 390.04 
L 309.917548 13.154227 
" style="fill:none;stroke:#808080;stroke-linecap:square;stroke-opacity:0.2;"/>
     </g>
     <g id="line2d_6">
      <g>
       <use style="stroke:#000000;stroke-width:0.8;" x="309.917548" xlink:href="#mcf11699de6" y="390.04"/>
      </g>
     </g>
     <g id="text_3">
      <!-- 2019-02-05 -->
      <defs>
       <path d="M 10.796875 72.90625 
L 49.515625 72.90625 
L 49.515625 64.59375 
L 19.828125 64.59375 
L 19.828125 46.734375 
Q 21.96875 47.46875 24.109375 47.828125 
Q 26.265625 48.1875 28.421875 48.1875 
Q 40.625 48.1875 47.75 41.5 
Q 54.890625 34.8125 54.890625 23.390625 
Q 54.890625 11.625 47.5625 5.09375 
Q 40.234375 -1.421875 26.90625 -1.421875 
Q 22.3125 -1.421875 17.546875 -0.640625 
Q 12.796875 0.140625 7.71875 1.703125 
L 7.71875 11.625 
Q 12.109375 9.234375 16.796875 8.0625 
Q 21.484375 6.890625 26.703125 6.890625 
Q 35.15625 6.890625 40.078125 11.328125 
Q 45.015625 15.765625 45.015625 23.390625 
Q 45.015625 31 40.078125 35.4375 
Q 35.15625 39.890625 26.703125 39.890625 
Q 22.75 39.890625 18.8125 39.015625 
Q 14.890625 38.140625 10.796875 36.28125 
z
" id="DejaVuSans-53"/>
      </defs>
      <g transform="translate(280.859736 404.638438)scale(0.1 -0.1)">
       <use xlink:href="#DejaVuSans-50"/>
       <use x="63.623047" xlink:href="#DejaVuSans-48"/>
       <use x="127.246094" xlink:href="#DejaVuSans-49"/>
       <use x="190.869141" xlink:href="#DejaVuSans-57"/>
       <use x="254.492188" xlink:href="#DejaVuSans-45"/>
       <use x="290.576172" xlink:href="#DejaVuSans-48"/>
       <use x="354.199219" xlink:href="#DejaVuSans-50"/>
       <use x="417.822266" xlink:href="#DejaVuSans-45"/>
       <use x="453.90625" xlink:href="#DejaVuSans-48"/>
       <use x="517.529297" xlink:href="#DejaVuSans-53"/>
      </g>
     </g>
    </g>
    <g id="xtick_4">
     <g id="line2d_7">
      <path clip-path="url(#p6ab83030f0)" d="M 401.668072 390.04 
L 401.668072 13.154227 
" style="fill:none;stroke:#808080;stroke-linecap:square;stroke-opacity:0.2;"/>
     </g>
     <g id="line2d_8">
      <g>
       <use style="stroke:#000000;stroke-width:0.8;" x="401.668072" xlink:href="#mcf11699de6" y="390.04"/>
      </g>
     </g>
     <g id="text_4">
      <!-- 2019-02-19 -->
      <g transform="translate(372.610259 404.638438)scale(0.1 -0.1)">
       <use xlink:href="#DejaVuSans-50"/>
       <use x="63.623047" xlink:href="#DejaVuSans-48"/>
       <use x="127.246094" xlink:href="#DejaVuSans-49"/>
       <use x="190.869141" xlink:href="#DejaVuSans-57"/>
       <use x="254.492188" xlink:href="#DejaVuSans-45"/>
       <use x="290.576172" xlink:href="#DejaVuSans-48"/>
       <use x="354.199219" xlink:href="#DejaVuSans-50"/>
       <use x="417.822266" xlink:href="#DejaVuSans-45"/>
       <use x="453.90625" xlink:href="#DejaVuSans-49"/>
       <use x="517.529297" xlink:href="#DejaVuSans-57"/>
      </g>
     </g>
    </g>
    <g id="xtick_5">
     <g id="line2d_9">
      <path clip-path="url(#p6ab83030f0)" d="M 493.418595 390.04 
L 493.418595 13.154227 
" style="fill:none;stroke:#808080;stroke-linecap:square;stroke-opacity:0.2;"/>
     </g>
     <g id="line2d_10">
      <g>
       <use style="stroke:#000000;stroke-width:0.8;" x="493.418595" xlink:href="#mcf11699de6" y="390.04"/>
      </g>
     </g>
     <g id="text_5">
      <!-- 2019-03-05 -->
      <defs>
       <path d="M 40.578125 39.3125 
Q 47.65625 37.796875 51.625 33 
Q 55.609375 28.21875 55.609375 21.1875 
Q 55.609375 10.40625 48.1875 4.484375 
Q 40.765625 -1.421875 27.09375 -1.421875 
Q 22.515625 -1.421875 17.65625 -0.515625 
Q 12.796875 0.390625 7.625 2.203125 
L 7.625 11.71875 
Q 11.71875 9.328125 16.59375 8.109375 
Q 21.484375 6.890625 26.8125 6.890625 
Q 36.078125 6.890625 40.9375 10.546875 
Q 45.796875 14.203125 45.796875 21.1875 
Q 45.796875 27.640625 41.28125 31.265625 
Q 36.765625 34.90625 28.71875 34.90625 
L 20.21875 34.90625 
L 20.21875 43.015625 
L 29.109375 43.015625 
Q 36.375 43.015625 40.234375 45.921875 
Q 44.09375 48.828125 44.09375 54.296875 
Q 44.09375 59.90625 40.109375 62.90625 
Q 36.140625 65.921875 28.71875 65.921875 
Q 24.65625 65.921875 20.015625 65.03125 
Q 15.375 64.15625 9.8125 62.3125 
L 9.8125 71.09375 
Q 15.4375 72.65625 20.34375 73.4375 
Q 25.25 74.21875 29.59375 74.21875 
Q 40.828125 74.21875 47.359375 69.109375 
Q 53.90625 64.015625 53.90625 55.328125 
Q 53.90625 49.265625 50.4375 45.09375 
Q 46.96875 40.921875 40.578125 39.3125 
z
" id="DejaVuSans-51"/>
      </defs>
      <g transform="translate(464.360783 404.638438)scale(0.1 -0.1)">
       <use xlink:href="#DejaVuSans-50"/>
       <use x="63.623047" xlink:href="#DejaVuSans-48"/>
       <use x="127.246094" xlink:href="#DejaVuSans-49"/>
       <use x="190.869141" xlink:href="#DejaVuSans-57"/>
       <use x="254.492188" xlink:href="#DejaVuSans-45"/>
       <use x="290.576172" xlink:href="#DejaVuSans-48"/>
       <use x="354.199219" xlink:href="#DejaVuSans-51"/>
       <use x="417.822266" xlink:href="#DejaVuSans-45"/>
       <use x="453.90625" xlink:href="#DejaVuSans-48"/>
       <use x="517.529297" xlink:href="#DejaVuSans-53"/>
      </g>
     </g>
    </g>
    <g id="xtick_6">
     <g id="line2d_11">
      <path clip-path="url(#p6ab83030f0)" d="M 585.169118 390.04 
L 585.169118 13.154227 
" style="fill:none;stroke:#808080;stroke-linecap:square;stroke-opacity:0.2;"/>
     </g>
     <g id="line2d_12">
      <g>
       <use style="stroke:#000000;stroke-width:0.8;" x="585.169118" xlink:href="#mcf11699de6" y="390.04"/>
      </g>
     </g>
     <g id="text_6">
      <!-- 2019-03-19 -->
      <g transform="translate(556.111306 404.638438)scale(0.1 -0.1)">
       <use xlink:href="#DejaVuSans-50"/>
       <use x="63.623047" xlink:href="#DejaVuSans-48"/>
       <use x="127.246094" xlink:href="#DejaVuSans-49"/>
       <use x="190.869141" xlink:href="#DejaVuSans-57"/>
       <use x="254.492188" xlink:href="#DejaVuSans-45"/>
       <use x="290.576172" xlink:href="#DejaVuSans-48"/>
       <use x="354.199219" xlink:href="#DejaVuSans-51"/>
       <use x="417.822266" xlink:href="#DejaVuSans-45"/>
       <use x="453.90625" xlink:href="#DejaVuSans-49"/>
       <use x="517.529297" xlink:href="#DejaVuSans-57"/>
      </g>
     </g>
    </g>
    <g id="xtick_7">
     <g id="line2d_13">
      <path clip-path="url(#p6ab83030f0)" d="M 676.919642 390.04 
L 676.919642 13.154227 
" style="fill:none;stroke:#808080;stroke-linecap:square;stroke-opacity:0.2;"/>
     </g>
     <g id="line2d_14">
      <g>
       <use style="stroke:#000000;stroke-width:0.8;" x="676.919642" xlink:href="#mcf11699de6" y="390.04"/>
      </g>
     </g>
     <g id="text_7">
      <!-- 2019-04-02 -->
      <defs>
       <path d="M 37.796875 64.3125 
L 12.890625 25.390625 
L 37.796875 25.390625 
z
M 35.203125 72.90625 
L 47.609375 72.90625 
L 47.609375 25.390625 
L 58.015625 25.390625 
L 58.015625 17.1875 
L 47.609375 17.1875 
L 47.609375 0 
L 37.796875 0 
L 37.796875 17.1875 
L 4.890625 17.1875 
L 4.890625 26.703125 
z
" id="DejaVuSans-52"/>
      </defs>
      <g transform="translate(647.861829 404.638438)scale(0.1 -0.1)">
       <use xlink:href="#DejaVuSans-50"/>
       <use x="63.623047" xlink:href="#DejaVuSans-48"/>
       <use x="127.246094" xlink:href="#DejaVuSans-49"/>
       <use x="190.869141" xlink:href="#DejaVuSans-57"/>
       <use x="254.492188" xlink:href="#DejaVuSans-45"/>
       <use x="290.576172" xlink:href="#DejaVuSans-48"/>
       <use x="354.199219" xlink:href="#DejaVuSans-52"/>
       <use x="417.822266" xlink:href="#DejaVuSans-45"/>
       <use x="453.90625" xlink:href="#DejaVuSans-48"/>
       <use x="517.529297" xlink:href="#DejaVuSans-50"/>
      </g>
     </g>
    </g>
    <g id="text_8">
     <!-- ds -->
     <defs>
      <path d="M 45.40625 46.390625 
L 45.40625 75.984375 
L 54.390625 75.984375 
L 54.390625 0 
L 45.40625 0 
L 45.40625 8.203125 
Q 42.578125 3.328125 38.25 0.953125 
Q 33.9375 -1.421875 27.875 -1.421875 
Q 17.96875 -1.421875 11.734375 6.484375 
Q 5.515625 14.40625 5.515625 27.296875 
Q 5.515625 40.1875 11.734375 48.09375 
Q 17.96875 56 27.875 56 
Q 33.9375 56 38.25 53.625 
Q 42.578125 51.265625 45.40625 46.390625 
z
M 14.796875 27.296875 
Q 14.796875 17.390625 18.875 11.75 
Q 22.953125 6.109375 30.078125 6.109375 
Q 37.203125 6.109375 41.296875 11.75 
Q 45.40625 17.390625 45.40625 27.296875 
Q 45.40625 37.203125 41.296875 42.84375 
Q 37.203125 48.484375 30.078125 48.484375 
Q 22.953125 48.484375 18.875 42.84375 
Q 14.796875 37.203125 14.796875 27.296875 
z
" id="DejaVuSans-100"/>
      <path d="M 44.28125 53.078125 
L 44.28125 44.578125 
Q 40.484375 46.53125 36.375 47.5 
Q 32.28125 48.484375 27.875 48.484375 
Q 21.1875 48.484375 17.84375 46.4375 
Q 14.5 44.390625 14.5 40.28125 
Q 14.5 37.15625 16.890625 35.375 
Q 19.28125 33.59375 26.515625 31.984375 
L 29.59375 31.296875 
Q 39.15625 29.25 43.1875 25.515625 
Q 47.21875 21.78125 47.21875 15.09375 
Q 47.21875 7.46875 41.1875 3.015625 
Q 35.15625 -1.421875 24.609375 -1.421875 
Q 20.21875 -1.421875 15.453125 -0.5625 
Q 10.6875 0.296875 5.421875 2 
L 5.421875 11.28125 
Q 10.40625 8.6875 15.234375 7.390625 
Q 20.0625 6.109375 24.8125 6.109375 
Q 31.15625 6.109375 34.5625 8.28125 
Q 37.984375 10.453125 37.984375 14.40625 
Q 37.984375 18.0625 35.515625 20.015625 
Q 33.0625 21.96875 24.703125 23.78125 
L 21.578125 24.515625 
Q 13.234375 26.265625 9.515625 29.90625 
Q 5.8125 33.546875 5.8125 39.890625 
Q 5.8125 47.609375 11.28125 51.796875 
Q 16.75 56 26.8125 56 
Q 31.78125 56 36.171875 55.265625 
Q 40.578125 54.546875 44.28125 53.078125 
z
" id="DejaVuSans-115"/>
     </defs>
     <g transform="translate(369.67473 418.316562)scale(0.1 -0.1)">
      <use xlink:href="#DejaVuSans-100"/>
      <use x="63.476562" xlink:href="#DejaVuSans-115"/>
     </g>
    </g>
   </g>
   <g id="matplotlib.axis_2">
    <g id="ytick_1">
     <g id="line2d_15">
      <path clip-path="url(#p6ab83030f0)" d="M 51.05 376.243614 
L 699.857273 376.243614 
" style="fill:none;stroke:#808080;stroke-linecap:square;stroke-opacity:0.2;"/>
     </g>
     <g id="line2d_16">
      <defs>
       <path d="M 0 0 
L -3.5 0 
" id="mb33393ffa3" style="stroke:#000000;stroke-width:0.8;"/>
      </defs>
      <g>
       <use style="stroke:#000000;stroke-width:0.8;" x="51.05" xlink:href="#mb33393ffa3" y="376.243614"/>
      </g>
     </g>
     <g id="text_9">
      <!-- 100 -->
      <g transform="translate(24.9625 380.042833)scale(0.1 -0.1)">
       <use xlink:href="#DejaVuSans-49"/>
       <use x="63.623047" xlink:href="#DejaVuSans-48"/>
       <use x="127.246094" xlink:href="#DejaVuSans-48"/>
      </g>
     </g>
    </g>
    <g id="ytick_2">
     <g id="line2d_17">
      <path clip-path="url(#p6ab83030f0)" d="M 51.05 324.633611 
L 699.857273 324.633611 
" style="fill:none;stroke:#808080;stroke-linecap:square;stroke-opacity:0.2;"/>
     </g>
     <g id="line2d_18">
      <g>
       <use style="stroke:#000000;stroke-width:0.8;" x="51.05" xlink:href="#mb33393ffa3" y="324.633611"/>
      </g>
     </g>
     <g id="text_10">
      <!-- 125 -->
      <g transform="translate(24.9625 328.432829)scale(0.1 -0.1)">
       <use xlink:href="#DejaVuSans-49"/>
       <use x="63.623047" xlink:href="#DejaVuSans-50"/>
       <use x="127.246094" xlink:href="#DejaVuSans-53"/>
      </g>
     </g>
    </g>
    <g id="ytick_3">
     <g id="line2d_19">
      <path clip-path="url(#p6ab83030f0)" d="M 51.05 273.023607 
L 699.857273 273.023607 
" style="fill:none;stroke:#808080;stroke-linecap:square;stroke-opacity:0.2;"/>
     </g>
     <g id="line2d_20">
      <g>
       <use style="stroke:#000000;stroke-width:0.8;" x="51.05" xlink:href="#mb33393ffa3" y="273.023607"/>
      </g>
     </g>
     <g id="text_11">
      <!-- 150 -->
      <g transform="translate(24.9625 276.822826)scale(0.1 -0.1)">
       <use xlink:href="#DejaVuSans-49"/>
       <use x="63.623047" xlink:href="#DejaVuSans-53"/>
       <use x="127.246094" xlink:href="#DejaVuSans-48"/>
      </g>
     </g>
    </g>
    <g id="ytick_4">
     <g id="line2d_21">
      <path clip-path="url(#p6ab83030f0)" d="M 51.05 221.413604 
L 699.857273 221.413604 
" style="fill:none;stroke:#808080;stroke-linecap:square;stroke-opacity:0.2;"/>
     </g>
     <g id="line2d_22">
      <g>
       <use style="stroke:#000000;stroke-width:0.8;" x="51.05" xlink:href="#mb33393ffa3" y="221.413604"/>
      </g>
     </g>
     <g id="text_12">
      <!-- 175 -->
      <defs>
       <path d="M 8.203125 72.90625 
L 55.078125 72.90625 
L 55.078125 68.703125 
L 28.609375 0 
L 18.3125 0 
L 43.21875 64.59375 
L 8.203125 64.59375 
z
" id="DejaVuSans-55"/>
      </defs>
      <g transform="translate(24.9625 225.212823)scale(0.1 -0.1)">
       <use xlink:href="#DejaVuSans-49"/>
       <use x="63.623047" xlink:href="#DejaVuSans-55"/>
       <use x="127.246094" xlink:href="#DejaVuSans-53"/>
      </g>
     </g>
    </g>
    <g id="ytick_5">
     <g id="line2d_23">
      <path clip-path="url(#p6ab83030f0)" d="M 51.05 169.8036 
L 699.857273 169.8036 
" style="fill:none;stroke:#808080;stroke-linecap:square;stroke-opacity:0.2;"/>
     </g>
     <g id="line2d_24">
      <g>
       <use style="stroke:#000000;stroke-width:0.8;" x="51.05" xlink:href="#mb33393ffa3" y="169.8036"/>
      </g>
     </g>
     <g id="text_13">
      <!-- 200 -->
      <g transform="translate(24.9625 173.602819)scale(0.1 -0.1)">
       <use xlink:href="#DejaVuSans-50"/>
       <use x="63.623047" xlink:href="#DejaVuSans-48"/>
       <use x="127.246094" xlink:href="#DejaVuSans-48"/>
      </g>
     </g>
    </g>
    <g id="ytick_6">
     <g id="line2d_25">
      <path clip-path="url(#p6ab83030f0)" d="M 51.05 118.193597 
L 699.857273 118.193597 
" style="fill:none;stroke:#808080;stroke-linecap:square;stroke-opacity:0.2;"/>
     </g>
     <g id="line2d_26">
      <g>
       <use style="stroke:#000000;stroke-width:0.8;" x="51.05" xlink:href="#mb33393ffa3" y="118.193597"/>
      </g>
     </g>
     <g id="text_14">
      <!-- 225 -->
      <g transform="translate(24.9625 121.992816)scale(0.1 -0.1)">
       <use xlink:href="#DejaVuSans-50"/>
       <use x="63.623047" xlink:href="#DejaVuSans-50"/>
       <use x="127.246094" xlink:href="#DejaVuSans-53"/>
      </g>
     </g>
    </g>
    <g id="ytick_7">
     <g id="line2d_27">
      <path clip-path="url(#p6ab83030f0)" d="M 51.05 66.583594 
L 699.857273 66.583594 
" style="fill:none;stroke:#808080;stroke-linecap:square;stroke-opacity:0.2;"/>
     </g>
     <g id="line2d_28">
      <g>
       <use style="stroke:#000000;stroke-width:0.8;" x="51.05" xlink:href="#mb33393ffa3" y="66.583594"/>
      </g>
     </g>
     <g id="text_15">
      <!-- 250 -->
      <g transform="translate(24.9625 70.382812)scale(0.1 -0.1)">
       <use xlink:href="#DejaVuSans-50"/>
       <use x="63.623047" xlink:href="#DejaVuSans-53"/>
       <use x="127.246094" xlink:href="#DejaVuSans-48"/>
      </g>
     </g>
    </g>
    <g id="ytick_8">
     <g id="line2d_29">
      <path clip-path="url(#p6ab83030f0)" d="M 51.05 14.97359 
L 699.857273 14.97359 
" style="fill:none;stroke:#808080;stroke-linecap:square;stroke-opacity:0.2;"/>
     </g>
     <g id="line2d_30">
      <g>
       <use style="stroke:#000000;stroke-width:0.8;" x="51.05" xlink:href="#mb33393ffa3" y="14.97359"/>
      </g>
     </g>
     <g id="text_16">
      <!-- 275 -->
      <g transform="translate(24.9625 18.772809)scale(0.1 -0.1)">
       <use xlink:href="#DejaVuSans-50"/>
       <use x="63.623047" xlink:href="#DejaVuSans-55"/>
       <use x="127.246094" xlink:href="#DejaVuSans-53"/>
      </g>
     </g>
    </g>
    <g id="text_17">
     <!-- y -->
     <defs>
      <path d="M 32.171875 -5.078125 
Q 28.375 -14.84375 24.75 -17.8125 
Q 21.140625 -20.796875 15.09375 -20.796875 
L 7.90625 -20.796875 
L 7.90625 -13.28125 
L 13.1875 -13.28125 
Q 16.890625 -13.28125 18.9375 -11.515625 
Q 21 -9.765625 23.484375 -3.21875 
L 25.09375 0.875 
L 2.984375 54.6875 
L 12.5 54.6875 
L 29.59375 11.921875 
L 46.6875 54.6875 
L 56.203125 54.6875 
z
" id="DejaVuSans-121"/>
     </defs>
     <g transform="translate(18.882812 204.556489)rotate(-90)scale(0.1 -0.1)">
      <use xlink:href="#DejaVuSans-121"/>
     </g>
    </g>
   </g>
   <g id="line2d_31">
    <defs>
     <path d="M 0 1.5 
C 0.397805 1.5 0.77937 1.341951 1.06066 1.06066 
C 1.341951 0.77937 1.5 0.397805 1.5 0 
C 1.5 -0.397805 1.341951 -0.77937 1.06066 -1.06066 
C 0.77937 -1.341951 0.397805 -1.5 0 -1.5 
C -0.397805 -1.5 -0.77937 -1.341951 -1.06066 -1.06066 
C -1.341951 -0.77937 -1.5 -0.397805 -1.5 0 
C -1.5 0.397805 -1.341951 0.77937 -1.06066 1.06066 
C -0.77937 1.341951 -0.397805 1.5 0 1.5 
z
" id="ma5a99b79ff" style="stroke:#000000;"/>
    </defs>
    <g clip-path="url(#p6ab83030f0)">
     <use style="stroke:#000000;" x="80.54124" xlink:href="#ma5a99b79ff" y="56.261593"/>
     <use style="stroke:#000000;" x="87.094848" xlink:href="#ma5a99b79ff" y="299.860809"/>
     <use style="stroke:#000000;" x="100.202066" xlink:href="#ma5a99b79ff" y="56.261593"/>
     <use style="stroke:#000000;" x="106.755675" xlink:href="#ma5a99b79ff" y="289.538808"/>
     <use style="stroke:#000000;" x="113.309284" xlink:href="#ma5a99b79ff" y="287.474408"/>
     <use style="stroke:#000000;" x="119.862893" xlink:href="#ma5a99b79ff" y="56.261593"/>
     <use style="stroke:#000000;" x="126.416501" xlink:href="#ma5a99b79ff" y="285.410008"/>
     <use style="stroke:#000000;" x="132.97011" xlink:href="#ma5a99b79ff" y="297.796409"/>
     <use style="stroke:#000000;" x="139.523719" xlink:href="#ma5a99b79ff" y="56.261593"/>
     <use style="stroke:#000000;" x="146.077328" xlink:href="#ma5a99b79ff" y="289.538808"/>
     <use style="stroke:#000000;" x="152.630937" xlink:href="#ma5a99b79ff" y="285.410008"/>
     <use style="stroke:#000000;" x="159.184545" xlink:href="#ma5a99b79ff" y="56.261593"/>
     <use style="stroke:#000000;" x="165.738154" xlink:href="#ma5a99b79ff" y="301.925209"/>
     <use style="stroke:#000000;" x="178.845372" xlink:href="#ma5a99b79ff" y="56.261593"/>
     <use style="stroke:#000000;" x="185.398981" xlink:href="#ma5a99b79ff" y="287.474408"/>
     <use style="stroke:#000000;" x="191.95259" xlink:href="#ma5a99b79ff" y="285.410008"/>
     <use style="stroke:#000000;" x="198.506198" xlink:href="#ma5a99b79ff" y="56.261593"/>
     <use style="stroke:#000000;" x="205.059807" xlink:href="#ma5a99b79ff" y="289.538808"/>
     <use style="stroke:#000000;" x="211.613416" xlink:href="#ma5a99b79ff" y="301.925209"/>
     <use style="stroke:#000000;" x="218.167025" xlink:href="#ma5a99b79ff" y="56.261593"/>
     <use style="stroke:#000000;" x="224.720634" xlink:href="#ma5a99b79ff" y="293.667609"/>
     <use style="stroke:#000000;" x="231.274242" xlink:href="#ma5a99b79ff" y="285.410008"/>
     <use style="stroke:#000000;" x="237.827851" xlink:href="#ma5a99b79ff" y="56.261593"/>
     <use style="stroke:#000000;" x="244.38146" xlink:href="#ma5a99b79ff" y="295.732009"/>
     <use style="stroke:#000000;" x="250.935069" xlink:href="#ma5a99b79ff" y="289.538808"/>
     <use style="stroke:#000000;" x="257.488678" xlink:href="#ma5a99b79ff" y="56.261593"/>
     <use style="stroke:#000000;" x="264.042287" xlink:href="#ma5a99b79ff" y="287.474408"/>
     <use style="stroke:#000000;" x="270.595895" xlink:href="#ma5a99b79ff" y="291.603208"/>
     <use style="stroke:#000000;" x="277.149504" xlink:href="#ma5a99b79ff" y="56.261593"/>
     <use style="stroke:#000000;" x="283.703113" xlink:href="#ma5a99b79ff" y="287.474408"/>
     <use style="stroke:#000000;" x="290.256722" xlink:href="#ma5a99b79ff" y="293.667609"/>
     <use style="stroke:#000000;" x="296.810331" xlink:href="#ma5a99b79ff" y="56.261593"/>
     <use style="stroke:#000000;" x="303.363939" xlink:href="#ma5a99b79ff" y="289.538808"/>
     <use style="stroke:#000000;" x="309.917548" xlink:href="#ma5a99b79ff" y="285.410008"/>
     <use style="stroke:#000000;" x="316.471157" xlink:href="#ma5a99b79ff" y="56.261593"/>
     <use style="stroke:#000000;" x="323.024766" xlink:href="#ma5a99b79ff" y="291.603208"/>
     <use style="stroke:#000000;" x="329.578375" xlink:href="#ma5a99b79ff" y="289.538808"/>
     <use style="stroke:#000000;" x="336.131983" xlink:href="#ma5a99b79ff" y="56.261593"/>
     <use style="stroke:#000000;" x="342.685592" xlink:href="#ma5a99b79ff" y="285.410008"/>
     <use style="stroke:#000000;" x="349.239201" xlink:href="#ma5a99b79ff" y="289.538808"/>
     <use style="stroke:#000000;" x="355.79281" xlink:href="#ma5a99b79ff" y="56.261593"/>
     <use style="stroke:#000000;" x="368.900028" xlink:href="#ma5a99b79ff" y="293.667609"/>
     <use style="stroke:#000000;" x="382.007245" xlink:href="#ma5a99b79ff" y="291.603208"/>
     <use style="stroke:#000000;" x="388.560854" xlink:href="#ma5a99b79ff" y="297.796409"/>
     <use style="stroke:#000000;" x="395.114463" xlink:href="#ma5a99b79ff" y="56.261593"/>
     <use style="stroke:#000000;" x="401.668072" xlink:href="#ma5a99b79ff" y="301.925209"/>
     <use style="stroke:#000000;" x="414.775289" xlink:href="#ma5a99b79ff" y="56.261593"/>
     <use style="stroke:#000000;" x="421.328898" xlink:href="#ma5a99b79ff" y="289.538808"/>
     <use style="stroke:#000000;" x="427.882507" xlink:href="#ma5a99b79ff" y="293.667609"/>
     <use style="stroke:#000000;" x="434.436116" xlink:href="#ma5a99b79ff" y="56.261593"/>
     <use style="stroke:#000000;" x="447.543333" xlink:href="#ma5a99b79ff" y="297.796409"/>
     <use style="stroke:#000000;" x="454.096942" xlink:href="#ma5a99b79ff" y="56.261593"/>
     <use style="stroke:#000000;" x="460.650551" xlink:href="#ma5a99b79ff" y="297.796409"/>
     <use style="stroke:#000000;" x="467.20416" xlink:href="#ma5a99b79ff" y="277.152407"/>
     <use style="stroke:#000000;" x="473.757769" xlink:href="#ma5a99b79ff" y="56.261593"/>
     <use style="stroke:#000000;" x="486.864986" xlink:href="#ma5a99b79ff" y="295.732009"/>
     <use style="stroke:#000000;" x="493.418595" xlink:href="#ma5a99b79ff" y="56.261593"/>
     <use style="stroke:#000000;" x="499.972204" xlink:href="#ma5a99b79ff" y="287.474408"/>
     <use style="stroke:#000000;" x="506.525813" xlink:href="#ma5a99b79ff" y="289.538808"/>
     <use style="stroke:#000000;" x="513.079421" xlink:href="#ma5a99b79ff" y="56.261593"/>
     <use style="stroke:#000000;" x="519.63303" xlink:href="#ma5a99b79ff" y="291.603208"/>
     <use style="stroke:#000000;" x="526.186639" xlink:href="#ma5a99b79ff" y="291.603208"/>
     <use style="stroke:#000000;" x="532.740248" xlink:href="#ma5a99b79ff" y="56.261593"/>
     <use style="stroke:#000000;" x="539.293857" xlink:href="#ma5a99b79ff" y="293.667609"/>
     <use style="stroke:#000000;" x="545.847466" xlink:href="#ma5a99b79ff" y="291.603208"/>
     <use style="stroke:#000000;" x="552.401074" xlink:href="#ma5a99b79ff" y="56.261593"/>
     <use style="stroke:#000000;" x="558.954683" xlink:href="#ma5a99b79ff" y="289.538808"/>
     <use style="stroke:#000000;" x="565.508292" xlink:href="#ma5a99b79ff" y="289.538808"/>
     <use style="stroke:#000000;" x="572.061901" xlink:href="#ma5a99b79ff" y="56.261593"/>
     <use style="stroke:#000000;" x="578.61551" xlink:href="#ma5a99b79ff" y="279.216808"/>
     <use style="stroke:#000000;" x="585.169118" xlink:href="#ma5a99b79ff" y="285.410008"/>
     <use style="stroke:#000000;" x="591.722727" xlink:href="#ma5a99b79ff" y="56.261593"/>
     <use style="stroke:#000000;" x="604.829945" xlink:href="#ma5a99b79ff" y="285.410008"/>
     <use style="stroke:#000000;" x="611.383554" xlink:href="#ma5a99b79ff" y="56.261593"/>
     <use style="stroke:#000000;" x="617.937163" xlink:href="#ma5a99b79ff" y="287.474408"/>
     <use style="stroke:#000000;" x="624.490771" xlink:href="#ma5a99b79ff" y="287.474408"/>
     <use style="stroke:#000000;" x="631.04438" xlink:href="#ma5a99b79ff" y="56.261593"/>
     <use style="stroke:#000000;" x="637.597989" xlink:href="#ma5a99b79ff" y="281.281208"/>
     <use style="stroke:#000000;" x="650.705207" xlink:href="#ma5a99b79ff" y="56.261593"/>
     <use style="stroke:#000000;" x="657.258815" xlink:href="#ma5a99b79ff" y="273.023607"/>
     <use style="stroke:#000000;" x="663.812424" xlink:href="#ma5a99b79ff" y="283.345608"/>
    </g>
   </g>
   <g id="line2d_32">
    <path clip-path="url(#p6ab83030f0)" d="M 80.54124 192.544121 
L 87.094848 205.606783 
L 100.202066 209.270767 
L 106.755675 216.986583 
L 113.309284 210.836544 
L 119.862893 205.851435 
L 126.416501 192.650068 
L 132.97011 205.712729 
L 139.523719 196.59738 
L 146.077328 209.376714 
L 152.630937 217.092529 
L 159.184545 210.94249 
L 165.738154 205.957381 
L 178.845372 205.818676 
L 185.398981 196.703327 
L 191.95259 209.48266 
L 198.506198 217.198476 
L 205.059807 211.048436 
L 211.613416 206.063328 
L 218.167025 192.86196 
L 224.720634 205.924622 
L 231.274242 196.809273 
L 237.827851 209.588607 
L 244.38146 217.304422 
L 250.935069 211.154383 
L 257.488678 206.169274 
L 264.042287 192.967907 
L 270.595895 206.030568 
L 277.149504 196.91522 
L 283.703113 209.694553 
L 290.256722 217.410369 
L 296.810331 211.260329 
L 303.363939 206.275221 
L 309.917548 193.073853 
L 316.471157 206.136515 
L 323.024766 197.021166 
L 329.578375 209.8005 
L 336.131983 217.516315 
L 342.685592 211.366276 
L 349.239201 206.381167 
L 355.79281 193.1798 
L 368.900028 197.127113 
L 382.007245 217.622262 
L 388.560854 211.472222 
L 395.114463 206.487114 
L 401.668072 193.285746 
L 414.775289 197.233059 
L 421.328898 210.012393 
L 427.882507 217.728208 
L 434.436116 211.578169 
L 447.543333 193.391693 
L 454.096942 206.454354 
L 460.650551 197.339006 
L 467.20416 210.118339 
L 473.757769 217.834154 
L 486.864986 206.699007 
L 493.418595 193.497639 
L 499.972204 206.560301 
L 506.525813 197.444952 
L 513.079421 210.224285 
L 519.63303 217.940101 
L 526.186639 211.790062 
L 532.740248 206.804953 
L 539.293857 193.603586 
L 545.847466 206.666247 
L 552.401074 197.550898 
L 558.954683 210.330232 
L 565.508292 218.046047 
L 572.061901 211.896008 
L 578.61551 206.910899 
L 585.169118 193.709532 
L 591.722727 206.772194 
L 604.829945 210.436178 
L 611.383554 218.151994 
L 617.937163 212.001954 
L 624.490771 207.016846 
L 631.04438 193.815478 
L 637.597989 206.87814 
L 650.705207 210.542125 
L 657.258815 218.25794 
L 663.812424 212.107901 
L 670.366033 207.122792 
" style="fill:none;stroke:#0072b2;stroke-linecap:square;stroke-width:1.5;"/>
   </g>
   <g id="patch_3">
    <path d="M 51.05 390.04 
L 51.05 13.154227 
" style="fill:none;stroke:#000000;stroke-linecap:square;stroke-linejoin:miter;stroke-width:0.8;"/>
   </g>
   <g id="patch_4">
    <path d="M 699.857273 390.04 
L 699.857273 13.154227 
" style="fill:none;stroke:#000000;stroke-linecap:square;stroke-linejoin:miter;stroke-width:0.8;"/>
   </g>
   <g id="patch_5">
    <path d="M 51.05 390.04 
L 699.857273 390.04 
" style="fill:none;stroke:#000000;stroke-linecap:square;stroke-linejoin:miter;stroke-width:0.8;"/>
   </g>
   <g id="patch_6">
    <path d="M 51.05 13.154227 
L 699.857273 13.154227 
" style="fill:none;stroke:#000000;stroke-linecap:square;stroke-linejoin:miter;stroke-width:0.8;"/>
   </g>
  </g>
 </g>
 <defs>
  <clipPath id="p6ab83030f0">
   <rect height="376.885773" width="648.807273" x="51.05" y="13.154227"/>
  </clipPath>
 </defs>
</svg>
