<?xml version="1.0" encoding="utf-8" standalone="no"?>
<!DOCTYPE svg PUBLIC "-//W3C//DTD SVG 1.1//EN"
  "http://www.w3.org/Graphics/SVG/1.1/DTD/svg11.dtd">
<!-- Created with matplotlib (https://matplotlib.org/) -->
<svg height="432pt" version="1.1" viewBox="0 0 720 432" width="720pt" xmlns="http://www.w3.org/2000/svg" xmlns:xlink="http://www.w3.org/1999/xlink">
 <defs>
  <style type="text/css">
*{stroke-linecap:butt;stroke-linejoin:round;}
  </style>
 </defs>
 <g id="figure_1">
  <g id="patch_1">
   <path d="M 0 432 
L 720 432 
L 720 0 
L 0 0 
z
" style="fill:#ffffff;"/>
  </g>
  <g id="axes_1">
   <g id="patch_2">
    <path d="M 51.05 390.04 
L 699.857273 390.04 
L 699.857273 10.8 
L 51.05 10.8 
z
" style="fill:#ffffff;"/>
   </g>
   <g id="PolyCollection_1">
    <defs>
     <path d="M 80.54124 -381.987382 
L 80.54124 -97.764672 
L 87.094848 -77.900753 
L 100.202066 -86.062716 
L 106.755675 -61.928293 
L 113.309284 -79.954465 
L 119.862893 -79.196065 
L 126.416501 -91.661696 
L 132.97011 -87.640857 
L 139.523719 -83.582043 
L 146.077328 -78.486348 
L 152.630937 -67.704767 
L 159.184545 -66.497939 
L 165.738154 -91.507608 
L 178.845372 -81.409983 
L 185.398981 -99.644486 
L 191.95259 -78.325776 
L 198.506198 -70.442029 
L 205.059807 -74.709566 
L 211.613416 -78.038274 
L 218.167025 -98.802938 
L 224.720634 -81.979063 
L 231.274242 -87.737115 
L 237.827851 -91.916093 
L 244.38146 -77.567457 
L 250.935069 -84.957511 
L 257.488678 -79.043682 
L 264.042287 -90.685756 
L 270.595895 -74.239138 
L 277.149504 -92.524326 
L 283.703113 -77.565923 
L 290.256722 -59.198182 
L 296.810331 -77.138745 
L 303.363939 -84.871572 
L 309.917548 -97.355924 
L 316.471157 -81.752431 
L 323.024766 -86.63895 
L 329.578375 -65.715561 
L 336.131983 -69.868336 
L 342.685592 -73.88087 
L 349.239201 -81.66807 
L 355.79281 -97.83788 
L 368.900028 -85.898702 
L 382.007245 -70.627597 
L 388.560854 -74.641349 
L 395.114463 -84.445886 
L 401.668072 -84.092788 
L 414.775289 -88.563112 
L 421.328898 -73.663481 
L 427.882507 -62.135985 
L 434.436116 -66.620278 
L 447.543333 -91.988656 
L 454.096942 -88.593779 
L 460.650551 -94.926587 
L 467.20416 -76.746287 
L 473.757769 -65.532544 
L 486.864986 -78.302254 
L 493.418595 -92.209715 
L 499.972204 -80.532317 
L 506.525813 -86.167163 
L 513.079421 -75.615336 
L 519.63303 -75.915813 
L 526.186639 -78.087038 
L 532.740248 -82.21291 
L 539.293857 -103.253193 
L 545.847466 -87.263674 
L 552.401074 -96.009727 
L 558.954683 -82.759594 
L 565.508292 -71.50135 
L 572.061901 -73.856368 
L 578.61551 -79.948517 
L 585.169118 -89.072308 
L 591.722727 -76.554548 
L 604.829945 -83.501622 
L 611.383554 -77.990544 
L 617.937163 -73.907068 
L 624.490771 -85.530533 
L 631.04438 -89.880881 
L 637.597989 -82.567489 
L 650.705207 -86.153465 
L 657.258815 -67.233784 
L 663.812424 -83.216415 
L 670.366033 -74.994368 
L 670.366033 -371.13848 
L 670.366033 -371.13848 
L 663.812424 -350.046353 
L 657.258815 -353.150652 
L 650.705207 -376.293921 
L 637.597989 -371.889824 
L 631.04438 -377.265326 
L 624.490771 -372.983207 
L 617.937163 -364.464642 
L 611.383554 -359.169669 
L 604.829945 -373.923945 
L 591.722727 -368.291326 
L 585.169118 -389.484973 
L 578.61551 -365.373796 
L 572.061901 -368.725523 
L 565.508292 -367.934462 
L 558.954683 -359.118805 
L 552.401074 -391.048226 
L 545.847466 -365.176188 
L 539.293857 -381.751674 
L 532.740248 -369.310673 
L 526.186639 -367.879215 
L 519.63303 -361.590138 
L 513.079421 -358.083217 
L 506.525813 -379.165036 
L 499.972204 -375.435168 
L 493.418595 -379.01242 
L 486.864986 -366.966289 
L 473.757769 -361.367269 
L 467.20416 -368.053673 
L 460.650551 -374.567358 
L 454.096942 -377.210278 
L 447.543333 -383.280795 
L 434.436116 -369.634347 
L 427.882507 -360.925182 
L 421.328898 -357.58549 
L 414.775289 -386.185674 
L 401.668072 -379.305403 
L 395.114463 -372.660511 
L 388.560854 -354.749809 
L 382.007245 -362.004455 
L 368.900028 -377.372739 
L 355.79281 -379.409427 
L 349.239201 -364.855766 
L 342.685592 -368.820207 
L 336.131983 -349.513763 
L 329.578375 -361.021103 
L 323.024766 -382.411121 
L 316.471157 -365.626657 
L 309.917548 -383.526805 
L 303.363939 -376.116351 
L 296.810331 -364.524249 
L 290.256722 -364.851045 
L 283.703113 -367.243428 
L 277.149504 -377.693297 
L 270.595895 -375.740157 
L 264.042287 -403.961818 
L 257.488678 -373.717606 
L 250.935069 -379.573561 
L 244.38146 -354.757259 
L 237.827851 -371.973562 
L 231.274242 -376.679283 
L 224.720634 -383.686753 
L 218.167025 -395.499759 
L 211.613416 -369.352347 
L 205.059807 -375.984756 
L 198.506198 -355.452127 
L 191.95259 -362.690521 
L 185.398981 -382.854634 
L 178.845372 -365.689535 
L 165.738154 -379.73522 
L 159.184545 -370.251971 
L 152.630937 -356.37418 
L 146.077328 -360.809588 
L 139.523719 -381.000362 
L 132.97011 -368.968576 
L 126.416501 -377.392021 
L 119.862893 -366.764436 
L 113.309284 -371.948644 
L 106.755675 -364.919775 
L 100.202066 -377.41635 
L 87.094848 -373.912029 
L 80.54124 -381.987382 
z
" id="mef75e1c4e8" style="stroke:#0072b2;stroke-opacity:0.2;"/>
    </defs>
    <g clip-path="url(#pcaf4579e00)">
     <use style="fill:#0072b2;fill-opacity:0.2;stroke:#0072b2;stroke-opacity:0.2;" x="0" xlink:href="#mef75e1c4e8" y="432"/>
    </g>
   </g>
   <g id="matplotlib.axis_1">
    <g id="xtick_1">
     <g id="line2d_1">
      <path clip-path="url(#pcaf4579e00)" d="M 126.416501 390.04 
L 126.416501 10.8 
" style="fill:none;stroke:#808080;stroke-linecap:square;stroke-opacity:0.2;"/>
     </g>
     <g id="line2d_2">
      <defs>
       <path d="M 0 0 
L 0 3.5 
" id="m5927950d2c" style="stroke:#000000;stroke-width:0.8;"/>
      </defs>
      <g>
       <use style="stroke:#000000;stroke-width:0.8;" x="126.416501" xlink:href="#m5927950d2c" y="390.04"/>
      </g>
     </g>
     <g id="text_1">
      <!-- 2019-01-08 -->
      <defs>
       <path d="M 19.1875 8.296875 
L 53.609375 8.296875 
L 53.609375 0 
L 7.328125 0 
L 7.328125 8.296875 
Q 12.9375 14.109375 22.625 23.890625 
Q 32.328125 33.6875 34.8125 36.53125 
Q 39.546875 41.84375 41.421875 45.53125 
Q 43.3125 49.21875 43.3125 52.78125 
Q 43.3125 58.59375 39.234375 62.25 
Q 35.15625 65.921875 28.609375 65.921875 
Q 23.96875 65.921875 18.8125 64.3125 
Q 13.671875 62.703125 7.8125 59.421875 
L 7.8125 69.390625 
Q 13.765625 71.78125 18.9375 73 
Q 24.125 74.21875 28.421875 74.21875 
Q 39.75 74.21875 46.484375 68.546875 
Q 53.21875 62.890625 53.21875 53.421875 
Q 53.21875 48.921875 51.53125 44.890625 
Q 49.859375 40.875 45.40625 35.40625 
Q 44.1875 33.984375 37.640625 27.21875 
Q 31.109375 20.453125 19.1875 8.296875 
z
" id="DejaVuSans-50"/>
       <path d="M 31.78125 66.40625 
Q 24.171875 66.40625 20.328125 58.90625 
Q 16.5 51.421875 16.5 36.375 
Q 16.5 21.390625 20.328125 13.890625 
Q 24.171875 6.390625 31.78125 6.390625 
Q 39.453125 6.390625 43.28125 13.890625 
Q 47.125 21.390625 47.125 36.375 
Q 47.125 51.421875 43.28125 58.90625 
Q 39.453125 66.40625 31.78125 66.40625 
z
M 31.78125 74.21875 
Q 44.046875 74.21875 50.515625 64.515625 
Q 56.984375 54.828125 56.984375 36.375 
Q 56.984375 17.96875 50.515625 8.265625 
Q 44.046875 -1.421875 31.78125 -1.421875 
Q 19.53125 -1.421875 13.0625 8.265625 
Q 6.59375 17.96875 6.59375 36.375 
Q 6.59375 54.828125 13.0625 64.515625 
Q 19.53125 74.21875 31.78125 74.21875 
z
" id="DejaVuSans-48"/>
       <path d="M 12.40625 8.296875 
L 28.515625 8.296875 
L 28.515625 63.921875 
L 10.984375 60.40625 
L 10.984375 69.390625 
L 28.421875 72.90625 
L 38.28125 72.90625 
L 38.28125 8.296875 
L 54.390625 8.296875 
L 54.390625 0 
L 12.40625 0 
z
" id="DejaVuSans-49"/>
       <path d="M 10.984375 1.515625 
L 10.984375 10.5 
Q 14.703125 8.734375 18.5 7.8125 
Q 22.3125 6.890625 25.984375 6.890625 
Q 35.75 6.890625 40.890625 13.453125 
Q 46.046875 20.015625 46.78125 33.40625 
Q 43.953125 29.203125 39.59375 26.953125 
Q 35.25 24.703125 29.984375 24.703125 
Q 19.046875 24.703125 12.671875 31.3125 
Q 6.296875 37.9375 6.296875 49.421875 
Q 6.296875 60.640625 12.9375 67.421875 
Q 19.578125 74.21875 30.609375 74.21875 
Q 43.265625 74.21875 49.921875 64.515625 
Q 56.59375 54.828125 56.59375 36.375 
Q 56.59375 19.140625 48.40625 8.859375 
Q 40.234375 -1.421875 26.421875 -1.421875 
Q 22.703125 -1.421875 18.890625 -0.6875 
Q 15.09375 0.046875 10.984375 1.515625 
z
M 30.609375 32.421875 
Q 37.25 32.421875 41.125 36.953125 
Q 45.015625 41.5 45.015625 49.421875 
Q 45.015625 57.28125 41.125 61.84375 
Q 37.25 66.40625 30.609375 66.40625 
Q 23.96875 66.40625 20.09375 61.84375 
Q 16.21875 57.28125 16.21875 49.421875 
Q 16.21875 41.5 20.09375 36.953125 
Q 23.96875 32.421875 30.609375 32.421875 
z
" id="DejaVuSans-57"/>
       <path d="M 4.890625 31.390625 
L 31.203125 31.390625 
L 31.203125 23.390625 
L 4.890625 23.390625 
z
" id="DejaVuSans-45"/>
       <path d="M 31.78125 34.625 
Q 24.75 34.625 20.71875 30.859375 
Q 16.703125 27.09375 16.703125 20.515625 
Q 16.703125 13.921875 20.71875 10.15625 
Q 24.75 6.390625 31.78125 6.390625 
Q 38.8125 6.390625 42.859375 10.171875 
Q 46.921875 13.96875 46.921875 20.515625 
Q 46.921875 27.09375 42.890625 30.859375 
Q 38.875 34.625 31.78125 34.625 
z
M 21.921875 38.8125 
Q 15.578125 40.375 12.03125 44.71875 
Q 8.5 49.078125 8.5 55.328125 
Q 8.5 64.0625 14.71875 69.140625 
Q 20.953125 74.21875 31.78125 74.21875 
Q 42.671875 74.21875 48.875 69.140625 
Q 55.078125 64.0625 55.078125 55.328125 
Q 55.078125 49.078125 51.53125 44.71875 
Q 48 40.375 41.703125 38.8125 
Q 48.828125 37.15625 52.796875 32.3125 
Q 56.78125 27.484375 56.78125 20.515625 
Q 56.78125 9.90625 50.3125 4.234375 
Q 43.84375 -1.421875 31.78125 -1.421875 
Q 19.734375 -1.421875 13.25 4.234375 
Q 6.78125 9.90625 6.78125 20.515625 
Q 6.78125 27.484375 10.78125 32.3125 
Q 14.796875 37.15625 21.921875 38.8125 
z
M 18.3125 54.390625 
Q 18.3125 48.734375 21.84375 45.5625 
Q 25.390625 42.390625 31.78125 42.390625 
Q 38.140625 42.390625 41.71875 45.5625 
Q 45.3125 48.734375 45.3125 54.390625 
Q 45.3125 60.0625 41.71875 63.234375 
Q 38.140625 66.40625 31.78125 66.40625 
Q 25.390625 66.40625 21.84375 63.234375 
Q 18.3125 60.0625 18.3125 54.390625 
z
" id="DejaVuSans-56"/>
      </defs>
      <g transform="translate(97.358689 404.638438)scale(0.1 -0.1)">
       <use xlink:href="#DejaVuSans-50"/>
       <use x="63.623047" xlink:href="#DejaVuSans-48"/>
       <use x="127.246094" xlink:href="#DejaVuSans-49"/>
       <use x="190.869141" xlink:href="#DejaVuSans-57"/>
       <use x="254.492188" xlink:href="#DejaVuSans-45"/>
       <use x="290.576172" xlink:href="#DejaVuSans-48"/>
       <use x="354.199219" xlink:href="#DejaVuSans-49"/>
       <use x="417.822266" xlink:href="#DejaVuSans-45"/>
       <use x="453.90625" xlink:href="#DejaVuSans-48"/>
       <use x="517.529297" xlink:href="#DejaVuSans-56"/>
      </g>
     </g>
    </g>
    <g id="xtick_2">
     <g id="line2d_3">
      <path clip-path="url(#pcaf4579e00)" d="M 218.167025 390.04 
L 218.167025 10.8 
" style="fill:none;stroke:#808080;stroke-linecap:square;stroke-opacity:0.2;"/>
     </g>
     <g id="line2d_4">
      <g>
       <use style="stroke:#000000;stroke-width:0.8;" x="218.167025" xlink:href="#m5927950d2c" y="390.04"/>
      </g>
     </g>
     <g id="text_2">
      <!-- 2019-01-22 -->
      <g transform="translate(189.109212 404.638438)scale(0.1 -0.1)">
       <use xlink:href="#DejaVuSans-50"/>
       <use x="63.623047" xlink:href="#DejaVuSans-48"/>
       <use x="127.246094" xlink:href="#DejaVuSans-49"/>
       <use x="190.869141" xlink:href="#DejaVuSans-57"/>
       <use x="254.492188" xlink:href="#DejaVuSans-45"/>
       <use x="290.576172" xlink:href="#DejaVuSans-48"/>
       <use x="354.199219" xlink:href="#DejaVuSans-49"/>
       <use x="417.822266" xlink:href="#DejaVuSans-45"/>
       <use x="453.90625" xlink:href="#DejaVuSans-50"/>
       <use x="517.529297" xlink:href="#DejaVuSans-50"/>
      </g>
     </g>
    </g>
    <g id="xtick_3">
     <g id="line2d_5">
      <path clip-path="url(#pcaf4579e00)" d="M 309.917548 390.04 
L 309.917548 10.8 
" style="fill:none;stroke:#808080;stroke-linecap:square;stroke-opacity:0.2;"/>
     </g>
     <g id="line2d_6">
      <g>
       <use style="stroke:#000000;stroke-width:0.8;" x="309.917548" xlink:href="#m5927950d2c" y="390.04"/>
      </g>
     </g>
     <g id="text_3">
      <!-- 2019-02-05 -->
      <defs>
       <path d="M 10.796875 72.90625 
L 49.515625 72.90625 
L 49.515625 64.59375 
L 19.828125 64.59375 
L 19.828125 46.734375 
Q 21.96875 47.46875 24.109375 47.828125 
Q 26.265625 48.1875 28.421875 48.1875 
Q 40.625 48.1875 47.75 41.5 
Q 54.890625 34.8125 54.890625 23.390625 
Q 54.890625 11.625 47.5625 5.09375 
Q 40.234375 -1.421875 26.90625 -1.421875 
Q 22.3125 -1.421875 17.546875 -0.640625 
Q 12.796875 0.140625 7.71875 1.703125 
L 7.71875 11.625 
Q 12.109375 9.234375 16.796875 8.0625 
Q 21.484375 6.890625 26.703125 6.890625 
Q 35.15625 6.890625 40.078125 11.328125 
Q 45.015625 15.765625 45.015625 23.390625 
Q 45.015625 31 40.078125 35.4375 
Q 35.15625 39.890625 26.703125 39.890625 
Q 22.75 39.890625 18.8125 39.015625 
Q 14.890625 38.140625 10.796875 36.28125 
z
" id="DejaVuSans-53"/>
      </defs>
      <g transform="translate(280.859736 404.638438)scale(0.1 -0.1)">
       <use xlink:href="#DejaVuSans-50"/>
       <use x="63.623047" xlink:href="#DejaVuSans-48"/>
       <use x="127.246094" xlink:href="#DejaVuSans-49"/>
       <use x="190.869141" xlink:href="#DejaVuSans-57"/>
       <use x="254.492188" xlink:href="#DejaVuSans-45"/>
       <use x="290.576172" xlink:href="#DejaVuSans-48"/>
       <use x="354.199219" xlink:href="#DejaVuSans-50"/>
       <use x="417.822266" xlink:href="#DejaVuSans-45"/>
       <use x="453.90625" xlink:href="#DejaVuSans-48"/>
       <use x="517.529297" xlink:href="#DejaVuSans-53"/>
      </g>
     </g>
    </g>
    <g id="xtick_4">
     <g id="line2d_7">
      <path clip-path="url(#pcaf4579e00)" d="M 401.668072 390.04 
L 401.668072 10.8 
" style="fill:none;stroke:#808080;stroke-linecap:square;stroke-opacity:0.2;"/>
     </g>
     <g id="line2d_8">
      <g>
       <use style="stroke:#000000;stroke-width:0.8;" x="401.668072" xlink:href="#m5927950d2c" y="390.04"/>
      </g>
     </g>
     <g id="text_4">
      <!-- 2019-02-19 -->
      <g transform="translate(372.610259 404.638438)scale(0.1 -0.1)">
       <use xlink:href="#DejaVuSans-50"/>
       <use x="63.623047" xlink:href="#DejaVuSans-48"/>
       <use x="127.246094" xlink:href="#DejaVuSans-49"/>
       <use x="190.869141" xlink:href="#DejaVuSans-57"/>
       <use x="254.492188" xlink:href="#DejaVuSans-45"/>
       <use x="290.576172" xlink:href="#DejaVuSans-48"/>
       <use x="354.199219" xlink:href="#DejaVuSans-50"/>
       <use x="417.822266" xlink:href="#DejaVuSans-45"/>
       <use x="453.90625" xlink:href="#DejaVuSans-49"/>
       <use x="517.529297" xlink:href="#DejaVuSans-57"/>
      </g>
     </g>
    </g>
    <g id="xtick_5">
     <g id="line2d_9">
      <path clip-path="url(#pcaf4579e00)" d="M 493.418595 390.04 
L 493.418595 10.8 
" style="fill:none;stroke:#808080;stroke-linecap:square;stroke-opacity:0.2;"/>
     </g>
     <g id="line2d_10">
      <g>
       <use style="stroke:#000000;stroke-width:0.8;" x="493.418595" xlink:href="#m5927950d2c" y="390.04"/>
      </g>
     </g>
     <g id="text_5">
      <!-- 2019-03-05 -->
      <defs>
       <path d="M 40.578125 39.3125 
Q 47.65625 37.796875 51.625 33 
Q 55.609375 28.21875 55.609375 21.1875 
Q 55.609375 10.40625 48.1875 4.484375 
Q 40.765625 -1.421875 27.09375 -1.421875 
Q 22.515625 -1.421875 17.65625 -0.515625 
Q 12.796875 0.390625 7.625 2.203125 
L 7.625 11.71875 
Q 11.71875 9.328125 16.59375 8.109375 
Q 21.484375 6.890625 26.8125 6.890625 
Q 36.078125 6.890625 40.9375 10.546875 
Q 45.796875 14.203125 45.796875 21.1875 
Q 45.796875 27.640625 41.28125 31.265625 
Q 36.765625 34.90625 28.71875 34.90625 
L 20.21875 34.90625 
L 20.21875 43.015625 
L 29.109375 43.015625 
Q 36.375 43.015625 40.234375 45.921875 
Q 44.09375 48.828125 44.09375 54.296875 
Q 44.09375 59.90625 40.109375 62.90625 
Q 36.140625 65.921875 28.71875 65.921875 
Q 24.65625 65.921875 20.015625 65.03125 
Q 15.375 64.15625 9.8125 62.3125 
L 9.8125 71.09375 
Q 15.4375 72.65625 20.34375 73.4375 
Q 25.25 74.21875 29.59375 74.21875 
Q 40.828125 74.21875 47.359375 69.109375 
Q 53.90625 64.015625 53.90625 55.328125 
Q 53.90625 49.265625 50.4375 45.09375 
Q 46.96875 40.921875 40.578125 39.3125 
z
" id="DejaVuSans-51"/>
      </defs>
      <g transform="translate(464.360783 404.638438)scale(0.1 -0.1)">
       <use xlink:href="#DejaVuSans-50"/>
       <use x="63.623047" xlink:href="#DejaVuSans-48"/>
       <use x="127.246094" xlink:href="#DejaVuSans-49"/>
       <use x="190.869141" xlink:href="#DejaVuSans-57"/>
       <use x="254.492188" xlink:href="#DejaVuSans-45"/>
       <use x="290.576172" xlink:href="#DejaVuSans-48"/>
       <use x="354.199219" xlink:href="#DejaVuSans-51"/>
       <use x="417.822266" xlink:href="#DejaVuSans-45"/>
       <use x="453.90625" xlink:href="#DejaVuSans-48"/>
       <use x="517.529297" xlink:href="#DejaVuSans-53"/>
      </g>
     </g>
    </g>
    <g id="xtick_6">
     <g id="line2d_11">
      <path clip-path="url(#pcaf4579e00)" d="M 585.169118 390.04 
L 585.169118 10.8 
" style="fill:none;stroke:#808080;stroke-linecap:square;stroke-opacity:0.2;"/>
     </g>
     <g id="line2d_12">
      <g>
       <use style="stroke:#000000;stroke-width:0.8;" x="585.169118" xlink:href="#m5927950d2c" y="390.04"/>
      </g>
     </g>
     <g id="text_6">
      <!-- 2019-03-19 -->
      <g transform="translate(556.111306 404.638438)scale(0.1 -0.1)">
       <use xlink:href="#DejaVuSans-50"/>
       <use x="63.623047" xlink:href="#DejaVuSans-48"/>
       <use x="127.246094" xlink:href="#DejaVuSans-49"/>
       <use x="190.869141" xlink:href="#DejaVuSans-57"/>
       <use x="254.492188" xlink:href="#DejaVuSans-45"/>
       <use x="290.576172" xlink:href="#DejaVuSans-48"/>
       <use x="354.199219" xlink:href="#DejaVuSans-51"/>
       <use x="417.822266" xlink:href="#DejaVuSans-45"/>
       <use x="453.90625" xlink:href="#DejaVuSans-49"/>
       <use x="517.529297" xlink:href="#DejaVuSans-57"/>
      </g>
     </g>
    </g>
    <g id="xtick_7">
     <g id="line2d_13">
      <path clip-path="url(#pcaf4579e00)" d="M 676.919642 390.04 
L 676.919642 10.8 
" style="fill:none;stroke:#808080;stroke-linecap:square;stroke-opacity:0.2;"/>
     </g>
     <g id="line2d_14">
      <g>
       <use style="stroke:#000000;stroke-width:0.8;" x="676.919642" xlink:href="#m5927950d2c" y="390.04"/>
      </g>
     </g>
     <g id="text_7">
      <!-- 2019-04-02 -->
      <defs>
       <path d="M 37.796875 64.3125 
L 12.890625 25.390625 
L 37.796875 25.390625 
z
M 35.203125 72.90625 
L 47.609375 72.90625 
L 47.609375 25.390625 
L 58.015625 25.390625 
L 58.015625 17.1875 
L 47.609375 17.1875 
L 47.609375 0 
L 37.796875 0 
L 37.796875 17.1875 
L 4.890625 17.1875 
L 4.890625 26.703125 
z
" id="DejaVuSans-52"/>
      </defs>
      <g transform="translate(647.861829 404.638438)scale(0.1 -0.1)">
       <use xlink:href="#DejaVuSans-50"/>
       <use x="63.623047" xlink:href="#DejaVuSans-48"/>
       <use x="127.246094" xlink:href="#DejaVuSans-49"/>
       <use x="190.869141" xlink:href="#DejaVuSans-57"/>
       <use x="254.492188" xlink:href="#DejaVuSans-45"/>
       <use x="290.576172" xlink:href="#DejaVuSans-48"/>
       <use x="354.199219" xlink:href="#DejaVuSans-52"/>
       <use x="417.822266" xlink:href="#DejaVuSans-45"/>
       <use x="453.90625" xlink:href="#DejaVuSans-48"/>
       <use x="517.529297" xlink:href="#DejaVuSans-50"/>
      </g>
     </g>
    </g>
    <g id="text_8">
     <!-- ds -->
     <defs>
      <path d="M 45.40625 46.390625 
L 45.40625 75.984375 
L 54.390625 75.984375 
L 54.390625 0 
L 45.40625 0 
L 45.40625 8.203125 
Q 42.578125 3.328125 38.25 0.953125 
Q 33.9375 -1.421875 27.875 -1.421875 
Q 17.96875 -1.421875 11.734375 6.484375 
Q 5.515625 14.40625 5.515625 27.296875 
Q 5.515625 40.1875 11.734375 48.09375 
Q 17.96875 56 27.875 56 
Q 33.9375 56 38.25 53.625 
Q 42.578125 51.265625 45.40625 46.390625 
z
M 14.796875 27.296875 
Q 14.796875 17.390625 18.875 11.75 
Q 22.953125 6.109375 30.078125 6.109375 
Q 37.203125 6.109375 41.296875 11.75 
Q 45.40625 17.390625 45.40625 27.296875 
Q 45.40625 37.203125 41.296875 42.84375 
Q 37.203125 48.484375 30.078125 48.484375 
Q 22.953125 48.484375 18.875 42.84375 
Q 14.796875 37.203125 14.796875 27.296875 
z
" id="DejaVuSans-100"/>
      <path d="M 44.28125 53.078125 
L 44.28125 44.578125 
Q 40.484375 46.53125 36.375 47.5 
Q 32.28125 48.484375 27.875 48.484375 
Q 21.1875 48.484375 17.84375 46.4375 
Q 14.5 44.390625 14.5 40.28125 
Q 14.5 37.15625 16.890625 35.375 
Q 19.28125 33.59375 26.515625 31.984375 
L 29.59375 31.296875 
Q 39.15625 29.25 43.1875 25.515625 
Q 47.21875 21.78125 47.21875 15.09375 
Q 47.21875 7.46875 41.1875 3.015625 
Q 35.15625 -1.421875 24.609375 -1.421875 
Q 20.21875 -1.421875 15.453125 -0.5625 
Q 10.6875 0.296875 5.421875 2 
L 5.421875 11.28125 
Q 10.40625 8.6875 15.234375 7.390625 
Q 20.0625 6.109375 24.8125 6.109375 
Q 31.15625 6.109375 34.5625 8.28125 
Q 37.984375 10.453125 37.984375 14.40625 
Q 37.984375 18.0625 35.515625 20.015625 
Q 33.0625 21.96875 24.703125 23.78125 
L 21.578125 24.515625 
Q 13.234375 26.265625 9.515625 29.90625 
Q 5.8125 33.546875 5.8125 39.890625 
Q 5.8125 47.609375 11.28125 51.796875 
Q 16.75 56 26.8125 56 
Q 31.78125 56 36.171875 55.265625 
Q 40.578125 54.546875 44.28125 53.078125 
z
" id="DejaVuSans-115"/>
     </defs>
     <g transform="translate(369.67473 418.316562)scale(0.1 -0.1)">
      <use xlink:href="#DejaVuSans-100"/>
      <use x="63.476562" xlink:href="#DejaVuSans-115"/>
     </g>
    </g>
   </g>
   <g id="matplotlib.axis_2">
    <g id="ytick_1">
     <g id="line2d_15">
      <path clip-path="url(#pcaf4579e00)" d="M 51.05 378.17778 
L 699.857273 378.17778 
" style="fill:none;stroke:#808080;stroke-linecap:square;stroke-opacity:0.2;"/>
     </g>
     <g id="line2d_16">
      <defs>
       <path d="M 0 0 
L -3.5 0 
" id="m4cb63242d2" style="stroke:#000000;stroke-width:0.8;"/>
      </defs>
      <g>
       <use style="stroke:#000000;stroke-width:0.8;" x="51.05" xlink:href="#m4cb63242d2" y="378.17778"/>
      </g>
     </g>
     <g id="text_9">
      <!-- 100 -->
      <g transform="translate(24.9625 381.976998)scale(0.1 -0.1)">
       <use xlink:href="#DejaVuSans-49"/>
       <use x="63.623047" xlink:href="#DejaVuSans-48"/>
       <use x="127.246094" xlink:href="#DejaVuSans-48"/>
      </g>
     </g>
    </g>
    <g id="ytick_2">
     <g id="line2d_17">
      <path clip-path="url(#pcaf4579e00)" d="M 51.05 325.663264 
L 699.857273 325.663264 
" style="fill:none;stroke:#808080;stroke-linecap:square;stroke-opacity:0.2;"/>
     </g>
     <g id="line2d_18">
      <g>
       <use style="stroke:#000000;stroke-width:0.8;" x="51.05" xlink:href="#m4cb63242d2" y="325.663264"/>
      </g>
     </g>
     <g id="text_10">
      <!-- 125 -->
      <g transform="translate(24.9625 329.462483)scale(0.1 -0.1)">
       <use xlink:href="#DejaVuSans-49"/>
       <use x="63.623047" xlink:href="#DejaVuSans-50"/>
       <use x="127.246094" xlink:href="#DejaVuSans-53"/>
      </g>
     </g>
    </g>
    <g id="ytick_3">
     <g id="line2d_19">
      <path clip-path="url(#pcaf4579e00)" d="M 51.05 273.148748 
L 699.857273 273.148748 
" style="fill:none;stroke:#808080;stroke-linecap:square;stroke-opacity:0.2;"/>
     </g>
     <g id="line2d_20">
      <g>
       <use style="stroke:#000000;stroke-width:0.8;" x="51.05" xlink:href="#m4cb63242d2" y="273.148748"/>
      </g>
     </g>
     <g id="text_11">
      <!-- 150 -->
      <g transform="translate(24.9625 276.947967)scale(0.1 -0.1)">
       <use xlink:href="#DejaVuSans-49"/>
       <use x="63.623047" xlink:href="#DejaVuSans-53"/>
       <use x="127.246094" xlink:href="#DejaVuSans-48"/>
      </g>
     </g>
    </g>
    <g id="ytick_4">
     <g id="line2d_21">
      <path clip-path="url(#pcaf4579e00)" d="M 51.05 220.634232 
L 699.857273 220.634232 
" style="fill:none;stroke:#808080;stroke-linecap:square;stroke-opacity:0.2;"/>
     </g>
     <g id="line2d_22">
      <g>
       <use style="stroke:#000000;stroke-width:0.8;" x="51.05" xlink:href="#m4cb63242d2" y="220.634232"/>
      </g>
     </g>
     <g id="text_12">
      <!-- 175 -->
      <defs>
       <path d="M 8.203125 72.90625 
L 55.078125 72.90625 
L 55.078125 68.703125 
L 28.609375 0 
L 18.3125 0 
L 43.21875 64.59375 
L 8.203125 64.59375 
z
" id="DejaVuSans-55"/>
      </defs>
      <g transform="translate(24.9625 224.433451)scale(0.1 -0.1)">
       <use xlink:href="#DejaVuSans-49"/>
       <use x="63.623047" xlink:href="#DejaVuSans-55"/>
       <use x="127.246094" xlink:href="#DejaVuSans-53"/>
      </g>
     </g>
    </g>
    <g id="ytick_5">
     <g id="line2d_23">
      <path clip-path="url(#pcaf4579e00)" d="M 51.05 168.119717 
L 699.857273 168.119717 
" style="fill:none;stroke:#808080;stroke-linecap:square;stroke-opacity:0.2;"/>
     </g>
     <g id="line2d_24">
      <g>
       <use style="stroke:#000000;stroke-width:0.8;" x="51.05" xlink:href="#m4cb63242d2" y="168.119717"/>
      </g>
     </g>
     <g id="text_13">
      <!-- 200 -->
      <g transform="translate(24.9625 171.918936)scale(0.1 -0.1)">
       <use xlink:href="#DejaVuSans-50"/>
       <use x="63.623047" xlink:href="#DejaVuSans-48"/>
       <use x="127.246094" xlink:href="#DejaVuSans-48"/>
      </g>
     </g>
    </g>
    <g id="ytick_6">
     <g id="line2d_25">
      <path clip-path="url(#pcaf4579e00)" d="M 51.05 115.605201 
L 699.857273 115.605201 
" style="fill:none;stroke:#808080;stroke-linecap:square;stroke-opacity:0.2;"/>
     </g>
     <g id="line2d_26">
      <g>
       <use style="stroke:#000000;stroke-width:0.8;" x="51.05" xlink:href="#m4cb63242d2" y="115.605201"/>
      </g>
     </g>
     <g id="text_14">
      <!-- 225 -->
      <g transform="translate(24.9625 119.40442)scale(0.1 -0.1)">
       <use xlink:href="#DejaVuSans-50"/>
       <use x="63.623047" xlink:href="#DejaVuSans-50"/>
       <use x="127.246094" xlink:href="#DejaVuSans-53"/>
      </g>
     </g>
    </g>
    <g id="ytick_7">
     <g id="line2d_27">
      <path clip-path="url(#pcaf4579e00)" d="M 51.05 63.090685 
L 699.857273 63.090685 
" style="fill:none;stroke:#808080;stroke-linecap:square;stroke-opacity:0.2;"/>
     </g>
     <g id="line2d_28">
      <g>
       <use style="stroke:#000000;stroke-width:0.8;" x="51.05" xlink:href="#m4cb63242d2" y="63.090685"/>
      </g>
     </g>
     <g id="text_15">
      <!-- 250 -->
      <g transform="translate(24.9625 66.889904)scale(0.1 -0.1)">
       <use xlink:href="#DejaVuSans-50"/>
       <use x="63.623047" xlink:href="#DejaVuSans-53"/>
       <use x="127.246094" xlink:href="#DejaVuSans-48"/>
      </g>
     </g>
    </g>
    <g id="text_16">
     <!-- y -->
     <defs>
      <path d="M 32.171875 -5.078125 
Q 28.375 -14.84375 24.75 -17.8125 
Q 21.140625 -20.796875 15.09375 -20.796875 
L 7.90625 -20.796875 
L 7.90625 -13.28125 
L 13.1875 -13.28125 
Q 16.890625 -13.28125 18.9375 -11.515625 
Q 21 -9.765625 23.484375 -3.21875 
L 25.09375 0.875 
L 2.984375 54.6875 
L 12.5 54.6875 
L 29.59375 11.921875 
L 46.6875 54.6875 
L 56.203125 54.6875 
z
" id="DejaVuSans-121"/>
     </defs>
     <g transform="translate(18.882812 203.379375)rotate(-90)scale(0.1 -0.1)">
      <use xlink:href="#DejaVuSans-121"/>
     </g>
    </g>
   </g>
   <g id="line2d_29">
    <defs>
     <path d="M 0 1.5 
C 0.397805 1.5 0.77937 1.341951 1.06066 1.06066 
C 1.341951 0.77937 1.5 0.397805 1.5 0 
C 1.5 -0.397805 1.341951 -0.77937 1.06066 -1.06066 
C 0.77937 -1.341951 0.397805 -1.5 0 -1.5 
C -0.397805 -1.5 -0.77937 -1.341951 -1.06066 -1.06066 
C -1.341951 -0.77937 -1.5 -0.397805 -1.5 0 
C -1.5 0.397805 -1.341951 0.77937 -1.06066 1.06066 
C -0.77937 1.341951 -0.397805 1.5 0 1.5 
z
" id="m86238ea521" style="stroke:#000000;"/>
    </defs>
    <g clip-path="url(#pcaf4579e00)">
     <use style="stroke:#000000;" x="80.54124" xlink:href="#m86238ea521" y="52.587782"/>
     <use style="stroke:#000000;" x="87.094848" xlink:href="#m86238ea521" y="294.154554"/>
     <use style="stroke:#000000;" x="100.202066" xlink:href="#m86238ea521" y="52.587782"/>
     <use style="stroke:#000000;" x="106.755675" xlink:href="#m86238ea521" y="285.752232"/>
     <use style="stroke:#000000;" x="113.309284" xlink:href="#m86238ea521" y="285.752232"/>
     <use style="stroke:#000000;" x="119.862893" xlink:href="#m86238ea521" y="52.587782"/>
     <use style="stroke:#000000;" x="126.416501" xlink:href="#m86238ea521" y="283.651651"/>
     <use style="stroke:#000000;" x="132.97011" xlink:href="#m86238ea521" y="298.355716"/>
     <use style="stroke:#000000;" x="139.523719" xlink:href="#m86238ea521" y="52.587782"/>
     <use style="stroke:#000000;" x="146.077328" xlink:href="#m86238ea521" y="292.053974"/>
     <use style="stroke:#000000;" x="152.630937" xlink:href="#m86238ea521" y="287.852813"/>
     <use style="stroke:#000000;" x="159.184545" xlink:href="#m86238ea521" y="52.587782"/>
     <use style="stroke:#000000;" x="165.738154" xlink:href="#m86238ea521" y="302.556877"/>
     <use style="stroke:#000000;" x="178.845372" xlink:href="#m86238ea521" y="52.587782"/>
     <use style="stroke:#000000;" x="185.398981" xlink:href="#m86238ea521" y="289.953393"/>
     <use style="stroke:#000000;" x="191.95259" xlink:href="#m86238ea521" y="285.752232"/>
     <use style="stroke:#000000;" x="198.506198" xlink:href="#m86238ea521" y="52.587782"/>
     <use style="stroke:#000000;" x="205.059807" xlink:href="#m86238ea521" y="289.953393"/>
     <use style="stroke:#000000;" x="211.613416" xlink:href="#m86238ea521" y="302.556877"/>
     <use style="stroke:#000000;" x="218.167025" xlink:href="#m86238ea521" y="52.587782"/>
     <use style="stroke:#000000;" x="224.720634" xlink:href="#m86238ea521" y="294.154554"/>
     <use style="stroke:#000000;" x="231.274242" xlink:href="#m86238ea521" y="285.752232"/>
     <use style="stroke:#000000;" x="237.827851" xlink:href="#m86238ea521" y="52.587782"/>
     <use style="stroke:#000000;" x="244.38146" xlink:href="#m86238ea521" y="296.255135"/>
     <use style="stroke:#000000;" x="250.935069" xlink:href="#m86238ea521" y="294.154554"/>
     <use style="stroke:#000000;" x="257.488678" xlink:href="#m86238ea521" y="52.587782"/>
     <use style="stroke:#000000;" x="264.042287" xlink:href="#m86238ea521" y="289.953393"/>
     <use style="stroke:#000000;" x="270.595895" xlink:href="#m86238ea521" y="294.154554"/>
     <use style="stroke:#000000;" x="277.149504" xlink:href="#m86238ea521" y="52.587782"/>
     <use style="stroke:#000000;" x="283.703113" xlink:href="#m86238ea521" y="285.752232"/>
     <use style="stroke:#000000;" x="290.256722" xlink:href="#m86238ea521" y="296.255135"/>
     <use style="stroke:#000000;" x="296.810331" xlink:href="#m86238ea521" y="52.587782"/>
     <use style="stroke:#000000;" x="303.363939" xlink:href="#m86238ea521" y="289.953393"/>
     <use style="stroke:#000000;" x="309.917548" xlink:href="#m86238ea521" y="285.752232"/>
     <use style="stroke:#000000;" x="316.471157" xlink:href="#m86238ea521" y="52.587782"/>
     <use style="stroke:#000000;" x="323.024766" xlink:href="#m86238ea521" y="289.953393"/>
     <use style="stroke:#000000;" x="329.578375" xlink:href="#m86238ea521" y="289.953393"/>
     <use style="stroke:#000000;" x="336.131983" xlink:href="#m86238ea521" y="52.587782"/>
     <use style="stroke:#000000;" x="342.685592" xlink:href="#m86238ea521" y="281.551071"/>
     <use style="stroke:#000000;" x="349.239201" xlink:href="#m86238ea521" y="294.154554"/>
     <use style="stroke:#000000;" x="355.79281" xlink:href="#m86238ea521" y="52.587782"/>
     <use style="stroke:#000000;" x="368.900028" xlink:href="#m86238ea521" y="294.154554"/>
     <use style="stroke:#000000;" x="382.007245" xlink:href="#m86238ea521" y="298.355716"/>
     <use style="stroke:#000000;" x="388.560854" xlink:href="#m86238ea521" y="298.355716"/>
     <use style="stroke:#000000;" x="395.114463" xlink:href="#m86238ea521" y="52.587782"/>
     <use style="stroke:#000000;" x="401.668072" xlink:href="#m86238ea521" y="300.456296"/>
     <use style="stroke:#000000;" x="414.775289" xlink:href="#m86238ea521" y="52.587782"/>
     <use style="stroke:#000000;" x="421.328898" xlink:href="#m86238ea521" y="294.154554"/>
     <use style="stroke:#000000;" x="427.882507" xlink:href="#m86238ea521" y="294.154554"/>
     <use style="stroke:#000000;" x="434.436116" xlink:href="#m86238ea521" y="52.587782"/>
     <use style="stroke:#000000;" x="447.543333" xlink:href="#m86238ea521" y="298.355716"/>
     <use style="stroke:#000000;" x="454.096942" xlink:href="#m86238ea521" y="52.587782"/>
     <use style="stroke:#000000;" x="460.650551" xlink:href="#m86238ea521" y="294.154554"/>
     <use style="stroke:#000000;" x="467.20416" xlink:href="#m86238ea521" y="283.651651"/>
     <use style="stroke:#000000;" x="473.757769" xlink:href="#m86238ea521" y="52.587782"/>
     <use style="stroke:#000000;" x="486.864986" xlink:href="#m86238ea521" y="298.355716"/>
     <use style="stroke:#000000;" x="493.418595" xlink:href="#m86238ea521" y="52.587782"/>
     <use style="stroke:#000000;" x="499.972204" xlink:href="#m86238ea521" y="285.752232"/>
     <use style="stroke:#000000;" x="506.525813" xlink:href="#m86238ea521" y="285.752232"/>
     <use style="stroke:#000000;" x="513.079421" xlink:href="#m86238ea521" y="52.587782"/>
     <use style="stroke:#000000;" x="519.63303" xlink:href="#m86238ea521" y="289.953393"/>
     <use style="stroke:#000000;" x="526.186639" xlink:href="#m86238ea521" y="294.154554"/>
     <use style="stroke:#000000;" x="532.740248" xlink:href="#m86238ea521" y="52.587782"/>
     <use style="stroke:#000000;" x="539.293857" xlink:href="#m86238ea521" y="294.154554"/>
     <use style="stroke:#000000;" x="545.847466" xlink:href="#m86238ea521" y="292.053974"/>
     <use style="stroke:#000000;" x="552.401074" xlink:href="#m86238ea521" y="52.587782"/>
     <use style="stroke:#000000;" x="558.954683" xlink:href="#m86238ea521" y="289.953393"/>
     <use style="stroke:#000000;" x="565.508292" xlink:href="#m86238ea521" y="289.953393"/>
     <use style="stroke:#000000;" x="572.061901" xlink:href="#m86238ea521" y="52.587782"/>
     <use style="stroke:#000000;" x="578.61551" xlink:href="#m86238ea521" y="277.349909"/>
     <use style="stroke:#000000;" x="585.169118" xlink:href="#m86238ea521" y="292.053974"/>
     <use style="stroke:#000000;" x="591.722727" xlink:href="#m86238ea521" y="52.587782"/>
     <use style="stroke:#000000;" x="604.829945" xlink:href="#m86238ea521" y="289.953393"/>
     <use style="stroke:#000000;" x="611.383554" xlink:href="#m86238ea521" y="52.587782"/>
     <use style="stroke:#000000;" x="617.937163" xlink:href="#m86238ea521" y="289.953393"/>
     <use style="stroke:#000000;" x="624.490771" xlink:href="#m86238ea521" y="285.752232"/>
     <use style="stroke:#000000;" x="631.04438" xlink:href="#m86238ea521" y="52.587782"/>
     <use style="stroke:#000000;" x="637.597989" xlink:href="#m86238ea521" y="281.551071"/>
     <use style="stroke:#000000;" x="650.705207" xlink:href="#m86238ea521" y="52.587782"/>
     <use style="stroke:#000000;" x="657.258815" xlink:href="#m86238ea521" y="275.249329"/>
     <use style="stroke:#000000;" x="663.812424" xlink:href="#m86238ea521" y="285.752232"/>
    </g>
   </g>
   <g id="line2d_30">
    <path clip-path="url(#pcaf4579e00)" d="M 80.54124 191.074846 
L 87.094848 203.479732 
L 100.202066 208.998899 
L 106.755675 216.109317 
L 113.309284 209.730644 
L 119.862893 204.538694 
L 126.416501 191.267088 
L 132.97011 203.671974 
L 139.523719 194.163825 
L 146.077328 209.191141 
L 152.630937 216.301559 
L 159.184545 209.922886 
L 165.738154 204.730936 
L 178.845372 203.864217 
L 185.398981 194.356068 
L 191.95259 209.383384 
L 198.506198 216.493802 
L 205.059807 210.115129 
L 211.613416 204.923179 
L 218.167025 191.651573 
L 224.720634 204.056459 
L 231.274242 194.54831 
L 237.827851 209.575626 
L 244.38146 216.686044 
L 250.935069 210.307371 
L 257.488678 205.115421 
L 264.042287 191.843816 
L 270.595895 204.248702 
L 277.149504 194.740553 
L 283.703113 209.767869 
L 290.256722 216.878287 
L 296.810331 210.499614 
L 303.363939 205.307664 
L 309.917548 192.036058 
L 316.471157 204.440944 
L 323.024766 194.932795 
L 329.578375 209.960111 
L 336.131983 217.070529 
L 342.685592 210.691856 
L 349.239201 205.499906 
L 355.79281 192.228301 
L 368.900028 195.125038 
L 382.007245 217.262772 
L 388.560854 210.884098 
L 395.114463 205.692149 
L 401.668072 192.420543 
L 414.775289 195.31728 
L 421.328898 210.344596 
L 427.882507 217.455014 
L 434.436116 211.076341 
L 447.543333 192.612786 
L 454.096942 205.017671 
L 460.650551 195.509523 
L 467.20416 210.536839 
L 473.757769 217.647257 
L 486.864986 206.076634 
L 493.418595 192.805028 
L 499.972204 205.209914 
L 506.525813 195.701765 
L 513.079421 210.729081 
L 519.63303 217.839499 
L 526.186639 211.460826 
L 532.740248 206.268876 
L 539.293857 192.99727 
L 545.847466 205.402156 
L 552.401074 195.894007 
L 558.954683 210.921324 
L 565.508292 218.031742 
L 572.061901 211.653068 
L 578.61551 206.461119 
L 585.169118 193.189513 
L 591.722727 205.594399 
L 604.829945 211.113566 
L 611.383554 218.223984 
L 617.937163 211.845311 
L 624.490771 206.653361 
L 631.04438 193.381755 
L 637.597989 205.786641 
L 650.705207 211.305809 
L 657.258815 218.416227 
L 663.812424 212.037553 
L 670.366033 206.845604 
" style="fill:none;stroke:#0072b2;stroke-linecap:square;stroke-width:1.5;"/>
   </g>
   <g id="patch_3">
    <path d="M 51.05 390.04 
L 51.05 10.8 
" style="fill:none;stroke:#000000;stroke-linecap:square;stroke-linejoin:miter;stroke-width:0.8;"/>
   </g>
   <g id="patch_4">
    <path d="M 699.857273 390.04 
L 699.857273 10.8 
" style="fill:none;stroke:#000000;stroke-linecap:square;stroke-linejoin:miter;stroke-width:0.8;"/>
   </g>
   <g id="patch_5">
    <path d="M 51.05 390.04 
L 699.857273 390.04 
" style="fill:none;stroke:#000000;stroke-linecap:square;stroke-linejoin:miter;stroke-width:0.8;"/>
   </g>
   <g id="patch_6">
    <path d="M 51.05 10.8 
L 699.857273 10.8 
" style="fill:none;stroke:#000000;stroke-linecap:square;stroke-linejoin:miter;stroke-width:0.8;"/>
   </g>
  </g>
 </g>
 <defs>
  <clipPath id="pcaf4579e00">
   <rect height="379.24" width="648.807273" x="51.05" y="10.8"/>
  </clipPath>
 </defs>
</svg>
