<?xml version="1.0" encoding="utf-8" standalone="no"?>
<!DOCTYPE svg PUBLIC "-//W3C//DTD SVG 1.1//EN"
  "http://www.w3.org/Graphics/SVG/1.1/DTD/svg11.dtd">
<!-- Created with matplotlib (https://matplotlib.org/) -->
<svg height="432pt" version="1.1" viewBox="0 0 720 432" width="720pt" xmlns="http://www.w3.org/2000/svg" xmlns:xlink="http://www.w3.org/1999/xlink">
 <defs>
  <style type="text/css">
*{stroke-linecap:butt;stroke-linejoin:round;}
  </style>
 </defs>
 <g id="figure_1">
  <g id="patch_1">
   <path d="M 0 432 
L 720 432 
L 720 0 
L 0 0 
z
" style="fill:#ffffff;"/>
  </g>
  <g id="axes_1">
   <g id="patch_2">
    <path d="M 51.05 390.04 
L 699.857273 390.04 
L 699.857273 10.8 
L 51.05 10.8 
z
" style="fill:#ffffff;"/>
   </g>
   <g id="PolyCollection_1">
    <defs>
     <path d="M 80.54124 -391.793785 
L 80.54124 -109.161133 
L 87.094848 -104.729491 
L 100.202066 -84.563802 
L 106.755675 -80.945343 
L 113.309284 -84.277248 
L 119.862893 -90.880262 
L 126.416501 -114.760959 
L 132.97011 -102.835492 
L 139.523719 -102.512106 
L 146.077328 -87.0121 
L 152.630937 -76.515336 
L 159.184545 -95.661028 
L 165.738154 -95.957344 
L 178.845372 -91.967739 
L 185.398981 -107.206129 
L 191.95259 -79.626147 
L 198.506198 -69.722362 
L 205.059807 -95.723629 
L 211.613416 -95.860917 
L 218.167025 -118.442958 
L 224.720634 -88.122998 
L 231.274242 -97.60036 
L 237.827851 -91.27154 
L 244.38146 -94.342083 
L 250.935069 -87.993876 
L 257.488678 -82.594111 
L 264.042287 -97.672684 
L 270.595895 -98.406072 
L 277.149504 -108.705477 
L 283.703113 -83.438763 
L 290.256722 -59.198182 
L 296.810331 -88.168837 
L 303.363939 -103.141013 
L 309.917548 -104.68949 
L 316.471157 -109.085982 
L 323.024766 -103.525067 
L 329.578375 -91.699311 
L 336.131983 -82.604533 
L 342.685592 -83.473522 
L 349.239201 -86.426279 
L 355.79281 -106.399943 
L 368.900028 -113.324779 
L 382.007245 -85.706094 
L 388.560854 -82.942164 
L 395.114463 -91.500009 
L 401.668072 -104.272543 
L 414.775289 -106.010136 
L 421.328898 -84.865739 
L 427.882507 -88.378594 
L 434.436116 -84.091951 
L 447.543333 -113.707356 
L 454.096942 -98.414826 
L 460.650551 -96.04109 
L 467.20416 -89.978042 
L 473.757769 -76.839702 
L 486.864986 -84.428025 
L 493.418595 -117.41784 
L 499.972204 -96.644619 
L 506.525813 -100.889277 
L 513.079421 -102.842214 
L 519.63303 -81.560246 
L 526.186639 -82.208759 
L 532.740248 -92.8155 
L 539.293857 -104.757175 
L 545.847466 -99.450634 
L 552.401074 -109.394961 
L 558.954683 -91.232575 
L 565.508292 -83.545803 
L 572.061901 -89.676649 
L 578.61551 -98.133181 
L 585.169118 -109.009731 
L 591.722727 -90.553461 
L 604.829945 -89.318112 
L 611.383554 -78.930048 
L 617.937163 -97.586603 
L 624.490771 -99.655522 
L 631.04438 -121.86002 
L 637.597989 -99.384533 
L 650.705207 -96.926239 
L 657.258815 -82.343651 
L 663.812424 -93.022704 
L 670.366033 -87.104645 
L 670.366033 -372.719667 
L 670.366033 -372.719667 
L 663.812424 -373.890666 
L 657.258815 -363.953397 
L 650.705207 -366.051596 
L 637.597989 -378.303783 
L 631.04438 -384.44308 
L 624.490771 -371.623662 
L 617.937163 -377.873153 
L 611.383554 -360.39103 
L 604.829945 -370.347035 
L 591.722727 -381.99835 
L 585.169118 -395.479575 
L 578.61551 -380.954981 
L 572.061901 -378.513097 
L 565.508292 -366.415218 
L 558.954683 -386.361313 
L 552.401074 -376.266799 
L 545.847466 -371.190905 
L 539.293857 -396.532679 
L 532.740248 -372.233265 
L 526.186639 -374.346674 
L 519.63303 -375.150542 
L 513.079421 -384.930464 
L 506.525813 -382.532367 
L 499.972204 -386.456377 
L 493.418595 -384.157483 
L 486.864986 -382.295786 
L 473.757769 -362.710889 
L 467.20416 -370.955256 
L 460.650551 -383.596417 
L 454.096942 -384.011936 
L 447.543333 -390.165812 
L 434.436116 -366.978536 
L 427.882507 -364.793701 
L 421.328898 -376.496129 
L 414.775289 -387.243435 
L 401.668072 -396.484814 
L 395.114463 -374.72289 
L 388.560854 -364.725578 
L 382.007245 -369.807336 
L 368.900028 -392.785936 
L 355.79281 -382.526751 
L 349.239201 -390.756478 
L 342.685592 -373.047771 
L 336.131983 -365.472279 
L 329.578375 -368.707647 
L 323.024766 -385.405468 
L 316.471157 -375.248154 
L 309.917548 -392.3814 
L 303.363939 -372.445701 
L 296.810331 -373.752067 
L 290.256722 -367.645983 
L 283.703113 -380.845143 
L 277.149504 -403.961818 
L 270.595895 -369.167582 
L 264.042287 -387.807516 
L 257.488678 -376.265102 
L 250.935069 -385.150241 
L 244.38146 -361.037376 
L 237.827851 -380.336187 
L 231.274242 -385.859134 
L 224.720634 -377.185063 
L 218.167025 -396.545267 
L 211.613416 -378.948483 
L 205.059807 -360.842839 
L 198.506198 -365.21286 
L 191.95259 -381.447572 
L 185.398981 -386.341711 
L 178.845372 -378.776185 
L 165.738154 -368.193328 
L 159.184545 -377.460633 
L 152.630937 -355.645275 
L 146.077328 -380.750981 
L 139.523719 -386.118116 
L 132.97011 -385.137876 
L 126.416501 -392.096619 
L 119.862893 -373.801705 
L 113.309284 -375.312938 
L 106.755675 -375.123864 
L 100.202066 -381.439291 
L 87.094848 -387.198128 
L 80.54124 -391.793785 
z
" id="m220a166264" style="stroke:#0072b2;stroke-opacity:0.2;"/>
    </defs>
    <g clip-path="url(#p79d7fb29ca)">
     <use style="fill:#0072b2;fill-opacity:0.2;stroke:#0072b2;stroke-opacity:0.2;" x="0" xlink:href="#m220a166264" y="432"/>
    </g>
   </g>
   <g id="matplotlib.axis_1">
    <g id="xtick_1">
     <g id="line2d_1">
      <path clip-path="url(#p79d7fb29ca)" d="M 126.416501 390.04 
L 126.416501 10.8 
" style="fill:none;stroke:#808080;stroke-linecap:square;stroke-opacity:0.2;"/>
     </g>
     <g id="line2d_2">
      <defs>
       <path d="M 0 0 
L 0 3.5 
" id="m6e6316f050" style="stroke:#000000;stroke-width:0.8;"/>
      </defs>
      <g>
       <use style="stroke:#000000;stroke-width:0.8;" x="126.416501" xlink:href="#m6e6316f050" y="390.04"/>
      </g>
     </g>
     <g id="text_1">
      <!-- 2019-01-08 -->
      <defs>
       <path d="M 19.1875 8.296875 
L 53.609375 8.296875 
L 53.609375 0 
L 7.328125 0 
L 7.328125 8.296875 
Q 12.9375 14.109375 22.625 23.890625 
Q 32.328125 33.6875 34.8125 36.53125 
Q 39.546875 41.84375 41.421875 45.53125 
Q 43.3125 49.21875 43.3125 52.78125 
Q 43.3125 58.59375 39.234375 62.25 
Q 35.15625 65.921875 28.609375 65.921875 
Q 23.96875 65.921875 18.8125 64.3125 
Q 13.671875 62.703125 7.8125 59.421875 
L 7.8125 69.390625 
Q 13.765625 71.78125 18.9375 73 
Q 24.125 74.21875 28.421875 74.21875 
Q 39.75 74.21875 46.484375 68.546875 
Q 53.21875 62.890625 53.21875 53.421875 
Q 53.21875 48.921875 51.53125 44.890625 
Q 49.859375 40.875 45.40625 35.40625 
Q 44.1875 33.984375 37.640625 27.21875 
Q 31.109375 20.453125 19.1875 8.296875 
z
" id="DejaVuSans-50"/>
       <path d="M 31.78125 66.40625 
Q 24.171875 66.40625 20.328125 58.90625 
Q 16.5 51.421875 16.5 36.375 
Q 16.5 21.390625 20.328125 13.890625 
Q 24.171875 6.390625 31.78125 6.390625 
Q 39.453125 6.390625 43.28125 13.890625 
Q 47.125 21.390625 47.125 36.375 
Q 47.125 51.421875 43.28125 58.90625 
Q 39.453125 66.40625 31.78125 66.40625 
z
M 31.78125 74.21875 
Q 44.046875 74.21875 50.515625 64.515625 
Q 56.984375 54.828125 56.984375 36.375 
Q 56.984375 17.96875 50.515625 8.265625 
Q 44.046875 -1.421875 31.78125 -1.421875 
Q 19.53125 -1.421875 13.0625 8.265625 
Q 6.59375 17.96875 6.59375 36.375 
Q 6.59375 54.828125 13.0625 64.515625 
Q 19.53125 74.21875 31.78125 74.21875 
z
" id="DejaVuSans-48"/>
       <path d="M 12.40625 8.296875 
L 28.515625 8.296875 
L 28.515625 63.921875 
L 10.984375 60.40625 
L 10.984375 69.390625 
L 28.421875 72.90625 
L 38.28125 72.90625 
L 38.28125 8.296875 
L 54.390625 8.296875 
L 54.390625 0 
L 12.40625 0 
z
" id="DejaVuSans-49"/>
       <path d="M 10.984375 1.515625 
L 10.984375 10.5 
Q 14.703125 8.734375 18.5 7.8125 
Q 22.3125 6.890625 25.984375 6.890625 
Q 35.75 6.890625 40.890625 13.453125 
Q 46.046875 20.015625 46.78125 33.40625 
Q 43.953125 29.203125 39.59375 26.953125 
Q 35.25 24.703125 29.984375 24.703125 
Q 19.046875 24.703125 12.671875 31.3125 
Q 6.296875 37.9375 6.296875 49.421875 
Q 6.296875 60.640625 12.9375 67.421875 
Q 19.578125 74.21875 30.609375 74.21875 
Q 43.265625 74.21875 49.921875 64.515625 
Q 56.59375 54.828125 56.59375 36.375 
Q 56.59375 19.140625 48.40625 8.859375 
Q 40.234375 -1.421875 26.421875 -1.421875 
Q 22.703125 -1.421875 18.890625 -0.6875 
Q 15.09375 0.046875 10.984375 1.515625 
z
M 30.609375 32.421875 
Q 37.25 32.421875 41.125 36.953125 
Q 45.015625 41.5 45.015625 49.421875 
Q 45.015625 57.28125 41.125 61.84375 
Q 37.25 66.40625 30.609375 66.40625 
Q 23.96875 66.40625 20.09375 61.84375 
Q 16.21875 57.28125 16.21875 49.421875 
Q 16.21875 41.5 20.09375 36.953125 
Q 23.96875 32.421875 30.609375 32.421875 
z
" id="DejaVuSans-57"/>
       <path d="M 4.890625 31.390625 
L 31.203125 31.390625 
L 31.203125 23.390625 
L 4.890625 23.390625 
z
" id="DejaVuSans-45"/>
       <path d="M 31.78125 34.625 
Q 24.75 34.625 20.71875 30.859375 
Q 16.703125 27.09375 16.703125 20.515625 
Q 16.703125 13.921875 20.71875 10.15625 
Q 24.75 6.390625 31.78125 6.390625 
Q 38.8125 6.390625 42.859375 10.171875 
Q 46.921875 13.96875 46.921875 20.515625 
Q 46.921875 27.09375 42.890625 30.859375 
Q 38.875 34.625 31.78125 34.625 
z
M 21.921875 38.8125 
Q 15.578125 40.375 12.03125 44.71875 
Q 8.5 49.078125 8.5 55.328125 
Q 8.5 64.0625 14.71875 69.140625 
Q 20.953125 74.21875 31.78125 74.21875 
Q 42.671875 74.21875 48.875 69.140625 
Q 55.078125 64.0625 55.078125 55.328125 
Q 55.078125 49.078125 51.53125 44.71875 
Q 48 40.375 41.703125 38.8125 
Q 48.828125 37.15625 52.796875 32.3125 
Q 56.78125 27.484375 56.78125 20.515625 
Q 56.78125 9.90625 50.3125 4.234375 
Q 43.84375 -1.421875 31.78125 -1.421875 
Q 19.734375 -1.421875 13.25 4.234375 
Q 6.78125 9.90625 6.78125 20.515625 
Q 6.78125 27.484375 10.78125 32.3125 
Q 14.796875 37.15625 21.921875 38.8125 
z
M 18.3125 54.390625 
Q 18.3125 48.734375 21.84375 45.5625 
Q 25.390625 42.390625 31.78125 42.390625 
Q 38.140625 42.390625 41.71875 45.5625 
Q 45.3125 48.734375 45.3125 54.390625 
Q 45.3125 60.0625 41.71875 63.234375 
Q 38.140625 66.40625 31.78125 66.40625 
Q 25.390625 66.40625 21.84375 63.234375 
Q 18.3125 60.0625 18.3125 54.390625 
z
" id="DejaVuSans-56"/>
      </defs>
      <g transform="translate(97.358689 404.638438)scale(0.1 -0.1)">
       <use xlink:href="#DejaVuSans-50"/>
       <use x="63.623047" xlink:href="#DejaVuSans-48"/>
       <use x="127.246094" xlink:href="#DejaVuSans-49"/>
       <use x="190.869141" xlink:href="#DejaVuSans-57"/>
       <use x="254.492188" xlink:href="#DejaVuSans-45"/>
       <use x="290.576172" xlink:href="#DejaVuSans-48"/>
       <use x="354.199219" xlink:href="#DejaVuSans-49"/>
       <use x="417.822266" xlink:href="#DejaVuSans-45"/>
       <use x="453.90625" xlink:href="#DejaVuSans-48"/>
       <use x="517.529297" xlink:href="#DejaVuSans-56"/>
      </g>
     </g>
    </g>
    <g id="xtick_2">
     <g id="line2d_3">
      <path clip-path="url(#p79d7fb29ca)" d="M 218.167025 390.04 
L 218.167025 10.8 
" style="fill:none;stroke:#808080;stroke-linecap:square;stroke-opacity:0.2;"/>
     </g>
     <g id="line2d_4">
      <g>
       <use style="stroke:#000000;stroke-width:0.8;" x="218.167025" xlink:href="#m6e6316f050" y="390.04"/>
      </g>
     </g>
     <g id="text_2">
      <!-- 2019-01-22 -->
      <g transform="translate(189.109212 404.638438)scale(0.1 -0.1)">
       <use xlink:href="#DejaVuSans-50"/>
       <use x="63.623047" xlink:href="#DejaVuSans-48"/>
       <use x="127.246094" xlink:href="#DejaVuSans-49"/>
       <use x="190.869141" xlink:href="#DejaVuSans-57"/>
       <use x="254.492188" xlink:href="#DejaVuSans-45"/>
       <use x="290.576172" xlink:href="#DejaVuSans-48"/>
       <use x="354.199219" xlink:href="#DejaVuSans-49"/>
       <use x="417.822266" xlink:href="#DejaVuSans-45"/>
       <use x="453.90625" xlink:href="#DejaVuSans-50"/>
       <use x="517.529297" xlink:href="#DejaVuSans-50"/>
      </g>
     </g>
    </g>
    <g id="xtick_3">
     <g id="line2d_5">
      <path clip-path="url(#p79d7fb29ca)" d="M 309.917548 390.04 
L 309.917548 10.8 
" style="fill:none;stroke:#808080;stroke-linecap:square;stroke-opacity:0.2;"/>
     </g>
     <g id="line2d_6">
      <g>
       <use style="stroke:#000000;stroke-width:0.8;" x="309.917548" xlink:href="#m6e6316f050" y="390.04"/>
      </g>
     </g>
     <g id="text_3">
      <!-- 2019-02-05 -->
      <defs>
       <path d="M 10.796875 72.90625 
L 49.515625 72.90625 
L 49.515625 64.59375 
L 19.828125 64.59375 
L 19.828125 46.734375 
Q 21.96875 47.46875 24.109375 47.828125 
Q 26.265625 48.1875 28.421875 48.1875 
Q 40.625 48.1875 47.75 41.5 
Q 54.890625 34.8125 54.890625 23.390625 
Q 54.890625 11.625 47.5625 5.09375 
Q 40.234375 -1.421875 26.90625 -1.421875 
Q 22.3125 -1.421875 17.546875 -0.640625 
Q 12.796875 0.140625 7.71875 1.703125 
L 7.71875 11.625 
Q 12.109375 9.234375 16.796875 8.0625 
Q 21.484375 6.890625 26.703125 6.890625 
Q 35.15625 6.890625 40.078125 11.328125 
Q 45.015625 15.765625 45.015625 23.390625 
Q 45.015625 31 40.078125 35.4375 
Q 35.15625 39.890625 26.703125 39.890625 
Q 22.75 39.890625 18.8125 39.015625 
Q 14.890625 38.140625 10.796875 36.28125 
z
" id="DejaVuSans-53"/>
      </defs>
      <g transform="translate(280.859736 404.638438)scale(0.1 -0.1)">
       <use xlink:href="#DejaVuSans-50"/>
       <use x="63.623047" xlink:href="#DejaVuSans-48"/>
       <use x="127.246094" xlink:href="#DejaVuSans-49"/>
       <use x="190.869141" xlink:href="#DejaVuSans-57"/>
       <use x="254.492188" xlink:href="#DejaVuSans-45"/>
       <use x="290.576172" xlink:href="#DejaVuSans-48"/>
       <use x="354.199219" xlink:href="#DejaVuSans-50"/>
       <use x="417.822266" xlink:href="#DejaVuSans-45"/>
       <use x="453.90625" xlink:href="#DejaVuSans-48"/>
       <use x="517.529297" xlink:href="#DejaVuSans-53"/>
      </g>
     </g>
    </g>
    <g id="xtick_4">
     <g id="line2d_7">
      <path clip-path="url(#p79d7fb29ca)" d="M 401.668072 390.04 
L 401.668072 10.8 
" style="fill:none;stroke:#808080;stroke-linecap:square;stroke-opacity:0.2;"/>
     </g>
     <g id="line2d_8">
      <g>
       <use style="stroke:#000000;stroke-width:0.8;" x="401.668072" xlink:href="#m6e6316f050" y="390.04"/>
      </g>
     </g>
     <g id="text_4">
      <!-- 2019-02-19 -->
      <g transform="translate(372.610259 404.638438)scale(0.1 -0.1)">
       <use xlink:href="#DejaVuSans-50"/>
       <use x="63.623047" xlink:href="#DejaVuSans-48"/>
       <use x="127.246094" xlink:href="#DejaVuSans-49"/>
       <use x="190.869141" xlink:href="#DejaVuSans-57"/>
       <use x="254.492188" xlink:href="#DejaVuSans-45"/>
       <use x="290.576172" xlink:href="#DejaVuSans-48"/>
       <use x="354.199219" xlink:href="#DejaVuSans-50"/>
       <use x="417.822266" xlink:href="#DejaVuSans-45"/>
       <use x="453.90625" xlink:href="#DejaVuSans-49"/>
       <use x="517.529297" xlink:href="#DejaVuSans-57"/>
      </g>
     </g>
    </g>
    <g id="xtick_5">
     <g id="line2d_9">
      <path clip-path="url(#p79d7fb29ca)" d="M 493.418595 390.04 
L 493.418595 10.8 
" style="fill:none;stroke:#808080;stroke-linecap:square;stroke-opacity:0.2;"/>
     </g>
     <g id="line2d_10">
      <g>
       <use style="stroke:#000000;stroke-width:0.8;" x="493.418595" xlink:href="#m6e6316f050" y="390.04"/>
      </g>
     </g>
     <g id="text_5">
      <!-- 2019-03-05 -->
      <defs>
       <path d="M 40.578125 39.3125 
Q 47.65625 37.796875 51.625 33 
Q 55.609375 28.21875 55.609375 21.1875 
Q 55.609375 10.40625 48.1875 4.484375 
Q 40.765625 -1.421875 27.09375 -1.421875 
Q 22.515625 -1.421875 17.65625 -0.515625 
Q 12.796875 0.390625 7.625 2.203125 
L 7.625 11.71875 
Q 11.71875 9.328125 16.59375 8.109375 
Q 21.484375 6.890625 26.8125 6.890625 
Q 36.078125 6.890625 40.9375 10.546875 
Q 45.796875 14.203125 45.796875 21.1875 
Q 45.796875 27.640625 41.28125 31.265625 
Q 36.765625 34.90625 28.71875 34.90625 
L 20.21875 34.90625 
L 20.21875 43.015625 
L 29.109375 43.015625 
Q 36.375 43.015625 40.234375 45.921875 
Q 44.09375 48.828125 44.09375 54.296875 
Q 44.09375 59.90625 40.109375 62.90625 
Q 36.140625 65.921875 28.71875 65.921875 
Q 24.65625 65.921875 20.015625 65.03125 
Q 15.375 64.15625 9.8125 62.3125 
L 9.8125 71.09375 
Q 15.4375 72.65625 20.34375 73.4375 
Q 25.25 74.21875 29.59375 74.21875 
Q 40.828125 74.21875 47.359375 69.109375 
Q 53.90625 64.015625 53.90625 55.328125 
Q 53.90625 49.265625 50.4375 45.09375 
Q 46.96875 40.921875 40.578125 39.3125 
z
" id="DejaVuSans-51"/>
      </defs>
      <g transform="translate(464.360783 404.638438)scale(0.1 -0.1)">
       <use xlink:href="#DejaVuSans-50"/>
       <use x="63.623047" xlink:href="#DejaVuSans-48"/>
       <use x="127.246094" xlink:href="#DejaVuSans-49"/>
       <use x="190.869141" xlink:href="#DejaVuSans-57"/>
       <use x="254.492188" xlink:href="#DejaVuSans-45"/>
       <use x="290.576172" xlink:href="#DejaVuSans-48"/>
       <use x="354.199219" xlink:href="#DejaVuSans-51"/>
       <use x="417.822266" xlink:href="#DejaVuSans-45"/>
       <use x="453.90625" xlink:href="#DejaVuSans-48"/>
       <use x="517.529297" xlink:href="#DejaVuSans-53"/>
      </g>
     </g>
    </g>
    <g id="xtick_6">
     <g id="line2d_11">
      <path clip-path="url(#p79d7fb29ca)" d="M 585.169118 390.04 
L 585.169118 10.8 
" style="fill:none;stroke:#808080;stroke-linecap:square;stroke-opacity:0.2;"/>
     </g>
     <g id="line2d_12">
      <g>
       <use style="stroke:#000000;stroke-width:0.8;" x="585.169118" xlink:href="#m6e6316f050" y="390.04"/>
      </g>
     </g>
     <g id="text_6">
      <!-- 2019-03-19 -->
      <g transform="translate(556.111306 404.638438)scale(0.1 -0.1)">
       <use xlink:href="#DejaVuSans-50"/>
       <use x="63.623047" xlink:href="#DejaVuSans-48"/>
       <use x="127.246094" xlink:href="#DejaVuSans-49"/>
       <use x="190.869141" xlink:href="#DejaVuSans-57"/>
       <use x="254.492188" xlink:href="#DejaVuSans-45"/>
       <use x="290.576172" xlink:href="#DejaVuSans-48"/>
       <use x="354.199219" xlink:href="#DejaVuSans-51"/>
       <use x="417.822266" xlink:href="#DejaVuSans-45"/>
       <use x="453.90625" xlink:href="#DejaVuSans-49"/>
       <use x="517.529297" xlink:href="#DejaVuSans-57"/>
      </g>
     </g>
    </g>
    <g id="xtick_7">
     <g id="line2d_13">
      <path clip-path="url(#p79d7fb29ca)" d="M 676.919642 390.04 
L 676.919642 10.8 
" style="fill:none;stroke:#808080;stroke-linecap:square;stroke-opacity:0.2;"/>
     </g>
     <g id="line2d_14">
      <g>
       <use style="stroke:#000000;stroke-width:0.8;" x="676.919642" xlink:href="#m6e6316f050" y="390.04"/>
      </g>
     </g>
     <g id="text_7">
      <!-- 2019-04-02 -->
      <defs>
       <path d="M 37.796875 64.3125 
L 12.890625 25.390625 
L 37.796875 25.390625 
z
M 35.203125 72.90625 
L 47.609375 72.90625 
L 47.609375 25.390625 
L 58.015625 25.390625 
L 58.015625 17.1875 
L 47.609375 17.1875 
L 47.609375 0 
L 37.796875 0 
L 37.796875 17.1875 
L 4.890625 17.1875 
L 4.890625 26.703125 
z
" id="DejaVuSans-52"/>
      </defs>
      <g transform="translate(647.861829 404.638438)scale(0.1 -0.1)">
       <use xlink:href="#DejaVuSans-50"/>
       <use x="63.623047" xlink:href="#DejaVuSans-48"/>
       <use x="127.246094" xlink:href="#DejaVuSans-49"/>
       <use x="190.869141" xlink:href="#DejaVuSans-57"/>
       <use x="254.492188" xlink:href="#DejaVuSans-45"/>
       <use x="290.576172" xlink:href="#DejaVuSans-48"/>
       <use x="354.199219" xlink:href="#DejaVuSans-52"/>
       <use x="417.822266" xlink:href="#DejaVuSans-45"/>
       <use x="453.90625" xlink:href="#DejaVuSans-48"/>
       <use x="517.529297" xlink:href="#DejaVuSans-50"/>
      </g>
     </g>
    </g>
    <g id="text_8">
     <!-- ds -->
     <defs>
      <path d="M 45.40625 46.390625 
L 45.40625 75.984375 
L 54.390625 75.984375 
L 54.390625 0 
L 45.40625 0 
L 45.40625 8.203125 
Q 42.578125 3.328125 38.25 0.953125 
Q 33.9375 -1.421875 27.875 -1.421875 
Q 17.96875 -1.421875 11.734375 6.484375 
Q 5.515625 14.40625 5.515625 27.296875 
Q 5.515625 40.1875 11.734375 48.09375 
Q 17.96875 56 27.875 56 
Q 33.9375 56 38.25 53.625 
Q 42.578125 51.265625 45.40625 46.390625 
z
M 14.796875 27.296875 
Q 14.796875 17.390625 18.875 11.75 
Q 22.953125 6.109375 30.078125 6.109375 
Q 37.203125 6.109375 41.296875 11.75 
Q 45.40625 17.390625 45.40625 27.296875 
Q 45.40625 37.203125 41.296875 42.84375 
Q 37.203125 48.484375 30.078125 48.484375 
Q 22.953125 48.484375 18.875 42.84375 
Q 14.796875 37.203125 14.796875 27.296875 
z
" id="DejaVuSans-100"/>
      <path d="M 44.28125 53.078125 
L 44.28125 44.578125 
Q 40.484375 46.53125 36.375 47.5 
Q 32.28125 48.484375 27.875 48.484375 
Q 21.1875 48.484375 17.84375 46.4375 
Q 14.5 44.390625 14.5 40.28125 
Q 14.5 37.15625 16.890625 35.375 
Q 19.28125 33.59375 26.515625 31.984375 
L 29.59375 31.296875 
Q 39.15625 29.25 43.1875 25.515625 
Q 47.21875 21.78125 47.21875 15.09375 
Q 47.21875 7.46875 41.1875 3.015625 
Q 35.15625 -1.421875 24.609375 -1.421875 
Q 20.21875 -1.421875 15.453125 -0.5625 
Q 10.6875 0.296875 5.421875 2 
L 5.421875 11.28125 
Q 10.40625 8.6875 15.234375 7.390625 
Q 20.0625 6.109375 24.8125 6.109375 
Q 31.15625 6.109375 34.5625 8.28125 
Q 37.984375 10.453125 37.984375 14.40625 
Q 37.984375 18.0625 35.515625 20.015625 
Q 33.0625 21.96875 24.703125 23.78125 
L 21.578125 24.515625 
Q 13.234375 26.265625 9.515625 29.90625 
Q 5.8125 33.546875 5.8125 39.890625 
Q 5.8125 47.609375 11.28125 51.796875 
Q 16.75 56 26.8125 56 
Q 31.78125 56 36.171875 55.265625 
Q 40.578125 54.546875 44.28125 53.078125 
z
" id="DejaVuSans-115"/>
     </defs>
     <g transform="translate(369.67473 418.316562)scale(0.1 -0.1)">
      <use xlink:href="#DejaVuSans-100"/>
      <use x="63.476562" xlink:href="#DejaVuSans-115"/>
     </g>
    </g>
   </g>
   <g id="matplotlib.axis_2">
    <g id="ytick_1">
     <g id="line2d_15">
      <path clip-path="url(#p79d7fb29ca)" d="M 51.05 371.670604 
L 699.857273 371.670604 
" style="fill:none;stroke:#808080;stroke-linecap:square;stroke-opacity:0.2;"/>
     </g>
     <g id="line2d_16">
      <defs>
       <path d="M 0 0 
L -3.5 0 
" id="m77fcb6ef6d" style="stroke:#000000;stroke-width:0.8;"/>
      </defs>
      <g>
       <use style="stroke:#000000;stroke-width:0.8;" x="51.05" xlink:href="#m77fcb6ef6d" y="371.670604"/>
      </g>
     </g>
     <g id="text_9">
      <!-- 100 -->
      <g transform="translate(24.9625 375.469823)scale(0.1 -0.1)">
       <use xlink:href="#DejaVuSans-49"/>
       <use x="63.623047" xlink:href="#DejaVuSans-48"/>
       <use x="127.246094" xlink:href="#DejaVuSans-48"/>
      </g>
     </g>
    </g>
    <g id="ytick_2">
     <g id="line2d_17">
      <path clip-path="url(#p79d7fb29ca)" d="M 51.05 319.320319 
L 699.857273 319.320319 
" style="fill:none;stroke:#808080;stroke-linecap:square;stroke-opacity:0.2;"/>
     </g>
     <g id="line2d_18">
      <g>
       <use style="stroke:#000000;stroke-width:0.8;" x="51.05" xlink:href="#m77fcb6ef6d" y="319.320319"/>
      </g>
     </g>
     <g id="text_10">
      <!-- 125 -->
      <g transform="translate(24.9625 323.119538)scale(0.1 -0.1)">
       <use xlink:href="#DejaVuSans-49"/>
       <use x="63.623047" xlink:href="#DejaVuSans-50"/>
       <use x="127.246094" xlink:href="#DejaVuSans-53"/>
      </g>
     </g>
    </g>
    <g id="ytick_3">
     <g id="line2d_19">
      <path clip-path="url(#p79d7fb29ca)" d="M 51.05 266.970034 
L 699.857273 266.970034 
" style="fill:none;stroke:#808080;stroke-linecap:square;stroke-opacity:0.2;"/>
     </g>
     <g id="line2d_20">
      <g>
       <use style="stroke:#000000;stroke-width:0.8;" x="51.05" xlink:href="#m77fcb6ef6d" y="266.970034"/>
      </g>
     </g>
     <g id="text_11">
      <!-- 150 -->
      <g transform="translate(24.9625 270.769253)scale(0.1 -0.1)">
       <use xlink:href="#DejaVuSans-49"/>
       <use x="63.623047" xlink:href="#DejaVuSans-53"/>
       <use x="127.246094" xlink:href="#DejaVuSans-48"/>
      </g>
     </g>
    </g>
    <g id="ytick_4">
     <g id="line2d_21">
      <path clip-path="url(#p79d7fb29ca)" d="M 51.05 214.619749 
L 699.857273 214.619749 
" style="fill:none;stroke:#808080;stroke-linecap:square;stroke-opacity:0.2;"/>
     </g>
     <g id="line2d_22">
      <g>
       <use style="stroke:#000000;stroke-width:0.8;" x="51.05" xlink:href="#m77fcb6ef6d" y="214.619749"/>
      </g>
     </g>
     <g id="text_12">
      <!-- 175 -->
      <defs>
       <path d="M 8.203125 72.90625 
L 55.078125 72.90625 
L 55.078125 68.703125 
L 28.609375 0 
L 18.3125 0 
L 43.21875 64.59375 
L 8.203125 64.59375 
z
" id="DejaVuSans-55"/>
      </defs>
      <g transform="translate(24.9625 218.418968)scale(0.1 -0.1)">
       <use xlink:href="#DejaVuSans-49"/>
       <use x="63.623047" xlink:href="#DejaVuSans-55"/>
       <use x="127.246094" xlink:href="#DejaVuSans-53"/>
      </g>
     </g>
    </g>
    <g id="ytick_5">
     <g id="line2d_23">
      <path clip-path="url(#p79d7fb29ca)" d="M 51.05 162.269464 
L 699.857273 162.269464 
" style="fill:none;stroke:#808080;stroke-linecap:square;stroke-opacity:0.2;"/>
     </g>
     <g id="line2d_24">
      <g>
       <use style="stroke:#000000;stroke-width:0.8;" x="51.05" xlink:href="#m77fcb6ef6d" y="162.269464"/>
      </g>
     </g>
     <g id="text_13">
      <!-- 200 -->
      <g transform="translate(24.9625 166.068682)scale(0.1 -0.1)">
       <use xlink:href="#DejaVuSans-50"/>
       <use x="63.623047" xlink:href="#DejaVuSans-48"/>
       <use x="127.246094" xlink:href="#DejaVuSans-48"/>
      </g>
     </g>
    </g>
    <g id="ytick_6">
     <g id="line2d_25">
      <path clip-path="url(#p79d7fb29ca)" d="M 51.05 109.919178 
L 699.857273 109.919178 
" style="fill:none;stroke:#808080;stroke-linecap:square;stroke-opacity:0.2;"/>
     </g>
     <g id="line2d_26">
      <g>
       <use style="stroke:#000000;stroke-width:0.8;" x="51.05" xlink:href="#m77fcb6ef6d" y="109.919178"/>
      </g>
     </g>
     <g id="text_14">
      <!-- 225 -->
      <g transform="translate(24.9625 113.718397)scale(0.1 -0.1)">
       <use xlink:href="#DejaVuSans-50"/>
       <use x="63.623047" xlink:href="#DejaVuSans-50"/>
       <use x="127.246094" xlink:href="#DejaVuSans-53"/>
      </g>
     </g>
    </g>
    <g id="ytick_7">
     <g id="line2d_27">
      <path clip-path="url(#p79d7fb29ca)" d="M 51.05 57.568893 
L 699.857273 57.568893 
" style="fill:none;stroke:#808080;stroke-linecap:square;stroke-opacity:0.2;"/>
     </g>
     <g id="line2d_28">
      <g>
       <use style="stroke:#000000;stroke-width:0.8;" x="51.05" xlink:href="#m77fcb6ef6d" y="57.568893"/>
      </g>
     </g>
     <g id="text_15">
      <!-- 250 -->
      <g transform="translate(24.9625 61.368112)scale(0.1 -0.1)">
       <use xlink:href="#DejaVuSans-50"/>
       <use x="63.623047" xlink:href="#DejaVuSans-53"/>
       <use x="127.246094" xlink:href="#DejaVuSans-48"/>
      </g>
     </g>
    </g>
    <g id="text_16">
     <!-- y -->
     <defs>
      <path d="M 32.171875 -5.078125 
Q 28.375 -14.84375 24.75 -17.8125 
Q 21.140625 -20.796875 15.09375 -20.796875 
L 7.90625 -20.796875 
L 7.90625 -13.28125 
L 13.1875 -13.28125 
Q 16.890625 -13.28125 18.9375 -11.515625 
Q 21 -9.765625 23.484375 -3.21875 
L 25.09375 0.875 
L 2.984375 54.6875 
L 12.5 54.6875 
L 29.59375 11.921875 
L 46.6875 54.6875 
L 56.203125 54.6875 
z
" id="DejaVuSans-121"/>
     </defs>
     <g transform="translate(18.882812 203.379375)rotate(-90)scale(0.1 -0.1)">
      <use xlink:href="#DejaVuSans-121"/>
     </g>
    </g>
   </g>
   <g id="line2d_29">
    <defs>
     <path d="M 0 1.5 
C 0.397805 1.5 0.77937 1.341951 1.06066 1.06066 
C 1.341951 0.77937 1.5 0.397805 1.5 0 
C 1.5 -0.397805 1.341951 -0.77937 1.06066 -1.06066 
C 0.77937 -1.341951 0.397805 -1.5 0 -1.5 
C -0.397805 -1.5 -0.77937 -1.341951 -1.06066 -1.06066 
C -1.341951 -0.77937 -1.5 -0.397805 -1.5 0 
C -1.5 0.397805 -1.341951 0.77937 -1.06066 1.06066 
C -0.77937 1.341951 -0.397805 1.5 0 1.5 
z
" id="mb3bbf779c4" style="stroke:#000000;"/>
    </defs>
    <g clip-path="url(#p79d7fb29ca)">
     <use style="stroke:#000000;" x="80.54124" xlink:href="#mb3bbf779c4" y="47.098836"/>
     <use style="stroke:#000000;" x="87.094848" xlink:href="#mb3bbf779c4" y="279.534102"/>
     <use style="stroke:#000000;" x="100.202066" xlink:href="#mb3bbf779c4" y="47.098836"/>
     <use style="stroke:#000000;" x="106.755675" xlink:href="#mb3bbf779c4" y="275.34608"/>
     <use style="stroke:#000000;" x="113.309284" xlink:href="#mb3bbf779c4" y="285.816137"/>
     <use style="stroke:#000000;" x="119.862893" xlink:href="#mb3bbf779c4" y="47.098836"/>
     <use style="stroke:#000000;" x="126.416501" xlink:href="#mb3bbf779c4" y="269.064045"/>
     <use style="stroke:#000000;" x="132.97011" xlink:href="#mb3bbf779c4" y="281.628114"/>
     <use style="stroke:#000000;" x="139.523719" xlink:href="#mb3bbf779c4" y="47.098836"/>
     <use style="stroke:#000000;" x="146.077328" xlink:href="#mb3bbf779c4" y="271.158057"/>
     <use style="stroke:#000000;" x="152.630937" xlink:href="#mb3bbf779c4" y="279.534102"/>
     <use style="stroke:#000000;" x="159.184545" xlink:href="#mb3bbf779c4" y="47.098836"/>
     <use style="stroke:#000000;" x="165.738154" xlink:href="#mb3bbf779c4" y="292.098171"/>
     <use style="stroke:#000000;" x="178.845372" xlink:href="#mb3bbf779c4" y="47.098836"/>
     <use style="stroke:#000000;" x="185.398981" xlink:href="#mb3bbf779c4" y="279.534102"/>
     <use style="stroke:#000000;" x="191.95259" xlink:href="#mb3bbf779c4" y="277.440091"/>
     <use style="stroke:#000000;" x="198.506198" xlink:href="#mb3bbf779c4" y="47.098836"/>
     <use style="stroke:#000000;" x="205.059807" xlink:href="#mb3bbf779c4" y="281.628114"/>
     <use style="stroke:#000000;" x="211.613416" xlink:href="#mb3bbf779c4" y="281.628114"/>
     <use style="stroke:#000000;" x="218.167025" xlink:href="#mb3bbf779c4" y="47.098836"/>
     <use style="stroke:#000000;" x="224.720634" xlink:href="#mb3bbf779c4" y="271.158057"/>
     <use style="stroke:#000000;" x="231.274242" xlink:href="#mb3bbf779c4" y="266.970034"/>
     <use style="stroke:#000000;" x="237.827851" xlink:href="#mb3bbf779c4" y="47.098836"/>
     <use style="stroke:#000000;" x="244.38146" xlink:href="#mb3bbf779c4" y="294.192182"/>
     <use style="stroke:#000000;" x="250.935069" xlink:href="#mb3bbf779c4" y="283.722125"/>
     <use style="stroke:#000000;" x="257.488678" xlink:href="#mb3bbf779c4" y="47.098836"/>
     <use style="stroke:#000000;" x="264.042287" xlink:href="#mb3bbf779c4" y="277.440091"/>
     <use style="stroke:#000000;" x="270.595895" xlink:href="#mb3bbf779c4" y="279.534102"/>
     <use style="stroke:#000000;" x="277.149504" xlink:href="#mb3bbf779c4" y="47.098836"/>
     <use style="stroke:#000000;" x="283.703113" xlink:href="#mb3bbf779c4" y="271.158057"/>
     <use style="stroke:#000000;" x="290.256722" xlink:href="#mb3bbf779c4" y="296.286194"/>
     <use style="stroke:#000000;" x="296.810331" xlink:href="#mb3bbf779c4" y="47.098836"/>
     <use style="stroke:#000000;" x="303.363939" xlink:href="#mb3bbf779c4" y="283.722125"/>
     <use style="stroke:#000000;" x="309.917548" xlink:href="#mb3bbf779c4" y="277.440091"/>
     <use style="stroke:#000000;" x="316.471157" xlink:href="#mb3bbf779c4" y="47.098836"/>
     <use style="stroke:#000000;" x="323.024766" xlink:href="#mb3bbf779c4" y="275.34608"/>
     <use style="stroke:#000000;" x="329.578375" xlink:href="#mb3bbf779c4" y="275.34608"/>
     <use style="stroke:#000000;" x="336.131983" xlink:href="#mb3bbf779c4" y="47.098836"/>
     <use style="stroke:#000000;" x="342.685592" xlink:href="#mb3bbf779c4" y="271.158057"/>
     <use style="stroke:#000000;" x="349.239201" xlink:href="#mb3bbf779c4" y="283.722125"/>
     <use style="stroke:#000000;" x="355.79281" xlink:href="#mb3bbf779c4" y="47.098836"/>
     <use style="stroke:#000000;" x="368.900028" xlink:href="#mb3bbf779c4" y="283.722125"/>
     <use style="stroke:#000000;" x="382.007245" xlink:href="#mb3bbf779c4" y="277.440091"/>
     <use style="stroke:#000000;" x="388.560854" xlink:href="#mb3bbf779c4" y="287.910148"/>
     <use style="stroke:#000000;" x="395.114463" xlink:href="#mb3bbf779c4" y="47.098836"/>
     <use style="stroke:#000000;" x="401.668072" xlink:href="#mb3bbf779c4" y="277.440091"/>
     <use style="stroke:#000000;" x="414.775289" xlink:href="#mb3bbf779c4" y="47.098836"/>
     <use style="stroke:#000000;" x="421.328898" xlink:href="#mb3bbf779c4" y="279.534102"/>
     <use style="stroke:#000000;" x="427.882507" xlink:href="#mb3bbf779c4" y="266.970034"/>
     <use style="stroke:#000000;" x="434.436116" xlink:href="#mb3bbf779c4" y="47.098836"/>
     <use style="stroke:#000000;" x="447.543333" xlink:href="#mb3bbf779c4" y="275.34608"/>
     <use style="stroke:#000000;" x="454.096942" xlink:href="#mb3bbf779c4" y="47.098836"/>
     <use style="stroke:#000000;" x="460.650551" xlink:href="#mb3bbf779c4" y="271.158057"/>
     <use style="stroke:#000000;" x="467.20416" xlink:href="#mb3bbf779c4" y="266.970034"/>
     <use style="stroke:#000000;" x="473.757769" xlink:href="#mb3bbf779c4" y="47.098836"/>
     <use style="stroke:#000000;" x="486.864986" xlink:href="#mb3bbf779c4" y="277.440091"/>
     <use style="stroke:#000000;" x="493.418595" xlink:href="#mb3bbf779c4" y="47.098836"/>
     <use style="stroke:#000000;" x="499.972204" xlink:href="#mb3bbf779c4" y="279.534102"/>
     <use style="stroke:#000000;" x="506.525813" xlink:href="#mb3bbf779c4" y="283.722125"/>
     <use style="stroke:#000000;" x="513.079421" xlink:href="#mb3bbf779c4" y="47.098836"/>
     <use style="stroke:#000000;" x="519.63303" xlink:href="#mb3bbf779c4" y="287.910148"/>
     <use style="stroke:#000000;" x="526.186639" xlink:href="#mb3bbf779c4" y="279.534102"/>
     <use style="stroke:#000000;" x="532.740248" xlink:href="#mb3bbf779c4" y="47.098836"/>
     <use style="stroke:#000000;" x="539.293857" xlink:href="#mb3bbf779c4" y="273.252068"/>
     <use style="stroke:#000000;" x="545.847466" xlink:href="#mb3bbf779c4" y="281.628114"/>
     <use style="stroke:#000000;" x="552.401074" xlink:href="#mb3bbf779c4" y="47.098836"/>
     <use style="stroke:#000000;" x="558.954683" xlink:href="#mb3bbf779c4" y="279.534102"/>
     <use style="stroke:#000000;" x="565.508292" xlink:href="#mb3bbf779c4" y="277.440091"/>
     <use style="stroke:#000000;" x="572.061901" xlink:href="#mb3bbf779c4" y="47.098836"/>
     <use style="stroke:#000000;" x="578.61551" xlink:href="#mb3bbf779c4" y="275.34608"/>
     <use style="stroke:#000000;" x="585.169118" xlink:href="#mb3bbf779c4" y="281.628114"/>
     <use style="stroke:#000000;" x="591.722727" xlink:href="#mb3bbf779c4" y="47.098836"/>
     <use style="stroke:#000000;" x="604.829945" xlink:href="#mb3bbf779c4" y="279.534102"/>
     <use style="stroke:#000000;" x="611.383554" xlink:href="#mb3bbf779c4" y="47.098836"/>
     <use style="stroke:#000000;" x="617.937163" xlink:href="#mb3bbf779c4" y="273.252068"/>
     <use style="stroke:#000000;" x="624.490771" xlink:href="#mb3bbf779c4" y="275.34608"/>
     <use style="stroke:#000000;" x="631.04438" xlink:href="#mb3bbf779c4" y="47.098836"/>
     <use style="stroke:#000000;" x="637.597989" xlink:href="#mb3bbf779c4" y="275.34608"/>
     <use style="stroke:#000000;" x="650.705207" xlink:href="#mb3bbf779c4" y="47.098836"/>
     <use style="stroke:#000000;" x="657.258815" xlink:href="#mb3bbf779c4" y="279.534102"/>
     <use style="stroke:#000000;" x="663.812424" xlink:href="#mb3bbf779c4" y="275.34608"/>
    </g>
   </g>
   <g id="line2d_30">
    <path clip-path="url(#p79d7fb29ca)" d="M 80.54124 178.806705 
L 87.094848 192.594486 
L 100.202066 197.40549 
L 106.755675 207.784169 
L 113.309284 200.594309 
L 119.862893 194.652805 
L 126.416501 179.091178 
L 132.97011 192.878959 
L 139.523719 183.628437 
L 146.077328 197.689963 
L 152.630937 208.068641 
L 159.184545 200.878781 
L 165.738154 194.937278 
L 178.845372 193.163432 
L 185.398981 183.91291 
L 191.95259 197.974436 
L 198.506198 208.353114 
L 205.059807 201.163254 
L 211.613416 195.22175 
L 218.167025 179.660123 
L 224.720634 193.447904 
L 231.274242 184.197382 
L 237.827851 198.258908 
L 244.38146 208.637587 
L 250.935069 201.447727 
L 257.488678 195.506223 
L 264.042287 179.944596 
L 270.595895 193.732377 
L 277.149504 184.481855 
L 283.703113 198.543381 
L 290.256722 208.922059 
L 296.810331 201.7322 
L 303.363939 195.790696 
L 309.917548 180.229068 
L 316.471157 194.01685 
L 323.024766 184.766328 
L 329.578375 198.827854 
L 336.131983 209.206532 
L 342.685592 202.016672 
L 349.239201 196.075168 
L 355.79281 180.513541 
L 368.900028 185.0508 
L 382.007245 209.491005 
L 388.560854 202.301145 
L 395.114463 196.359641 
L 401.668072 180.798014 
L 414.775289 185.335273 
L 421.328898 199.396799 
L 427.882507 209.775477 
L 434.436116 202.585617 
L 447.543333 181.082486 
L 454.096942 194.870267 
L 460.650551 185.619746 
L 467.20416 199.681272 
L 473.757769 210.05995 
L 486.864986 196.928586 
L 493.418595 181.366959 
L 499.972204 195.15474 
L 506.525813 185.904218 
L 513.079421 199.965744 
L 519.63303 210.344422 
L 526.186639 203.154563 
L 532.740248 197.213059 
L 539.293857 181.651431 
L 545.847466 195.439213 
L 552.401074 186.188691 
L 558.954683 200.250217 
L 565.508292 210.628895 
L 572.061901 203.439035 
L 578.61551 197.497531 
L 585.169118 181.935904 
L 591.722727 195.723685 
L 604.829945 200.534689 
L 611.383554 210.913368 
L 617.937163 203.723508 
L 624.490771 197.782004 
L 631.04438 182.220377 
L 637.597989 196.008158 
L 650.705207 200.819162 
L 657.258815 211.19784 
L 663.812424 204.007981 
L 670.366033 198.066477 
" style="fill:none;stroke:#0072b2;stroke-linecap:square;stroke-width:1.5;"/>
   </g>
   <g id="patch_3">
    <path d="M 51.05 390.04 
L 51.05 10.8 
" style="fill:none;stroke:#000000;stroke-linecap:square;stroke-linejoin:miter;stroke-width:0.8;"/>
   </g>
   <g id="patch_4">
    <path d="M 699.857273 390.04 
L 699.857273 10.8 
" style="fill:none;stroke:#000000;stroke-linecap:square;stroke-linejoin:miter;stroke-width:0.8;"/>
   </g>
   <g id="patch_5">
    <path d="M 51.05 390.04 
L 699.857273 390.04 
" style="fill:none;stroke:#000000;stroke-linecap:square;stroke-linejoin:miter;stroke-width:0.8;"/>
   </g>
   <g id="patch_6">
    <path d="M 51.05 10.8 
L 699.857273 10.8 
" style="fill:none;stroke:#000000;stroke-linecap:square;stroke-linejoin:miter;stroke-width:0.8;"/>
   </g>
  </g>
 </g>
 <defs>
  <clipPath id="p79d7fb29ca">
   <rect height="379.24" width="648.807273" x="51.05" y="10.8"/>
  </clipPath>
 </defs>
</svg>
