<?xml version="1.0" encoding="utf-8" standalone="no"?>
<!DOCTYPE svg PUBLIC "-//W3C//DTD SVG 1.1//EN"
  "http://www.w3.org/Graphics/SVG/1.1/DTD/svg11.dtd">
<!-- Created with matplotlib (https://matplotlib.org/) -->
<svg height="432pt" version="1.1" viewBox="0 0 720 432" width="720pt" xmlns="http://www.w3.org/2000/svg" xmlns:xlink="http://www.w3.org/1999/xlink">
 <defs>
  <style type="text/css">
*{stroke-linecap:butt;stroke-linejoin:round;}
  </style>
 </defs>
 <g id="figure_1">
  <g id="patch_1">
   <path d="M 0 432 
L 720 432 
L 720 0 
L 0 0 
z
" style="fill:#ffffff;"/>
  </g>
  <g id="axes_1">
   <g id="patch_2">
    <path d="M 51.05 390.04 
L 699.857273 390.04 
L 699.857273 10.8 
L 51.05 10.8 
z
" style="fill:#ffffff;"/>
   </g>
   <g id="PolyCollection_1">
    <defs>
     <path d="M 80.54124 -392.138929 
L 80.54124 -102.411188 
L 87.094848 -80.523824 
L 100.202066 -78.371973 
L 106.755675 -59.198182 
L 113.309284 -87.03953 
L 119.862893 -79.421082 
L 126.416501 -114.119417 
L 132.97011 -81.486417 
L 139.523719 -86.598979 
L 146.077328 -79.921972 
L 152.630937 -68.501361 
L 159.184545 -76.757286 
L 165.738154 -80.907305 
L 178.845372 -95.549273 
L 185.398981 -104.310032 
L 191.95259 -86.597788 
L 198.506198 -81.415554 
L 205.059807 -80.152971 
L 211.613416 -84.270321 
L 218.167025 -99.133995 
L 224.720634 -85.892122 
L 231.274242 -101.193484 
L 237.827851 -77.483638 
L 244.38146 -73.538936 
L 250.935069 -77.483251 
L 257.488678 -77.281693 
L 264.042287 -103.786535 
L 270.595895 -86.383995 
L 277.149504 -103.017487 
L 283.703113 -78.217968 
L 290.256722 -74.3895 
L 296.810331 -75.239155 
L 303.363939 -83.014568 
L 309.917548 -104.492717 
L 316.471157 -89.752254 
L 323.024766 -86.637761 
L 329.578375 -79.585029 
L 336.131983 -75.257294 
L 342.685592 -87.489887 
L 349.239201 -92.604992 
L 355.79281 -115.073925 
L 368.900028 -84.058756 
L 382.007245 -65.191227 
L 388.560854 -85.234346 
L 395.114463 -82.127693 
L 401.668072 -92.317282 
L 414.775289 -86.855312 
L 421.328898 -69.898468 
L 427.882507 -75.135682 
L 434.436116 -74.519913 
L 447.543333 -107.269862 
L 454.096942 -77.844056 
L 460.650551 -88.691908 
L 467.20416 -81.034011 
L 473.757769 -64.460052 
L 486.864986 -83.855034 
L 493.418595 -93.134625 
L 499.972204 -82.171365 
L 506.525813 -93.468975 
L 513.079421 -76.065556 
L 519.63303 -77.511212 
L 526.186639 -76.936087 
L 532.740248 -80.009268 
L 539.293857 -106.689973 
L 545.847466 -76.174056 
L 552.401074 -98.988221 
L 558.954683 -83.964643 
L 565.508292 -67.784996 
L 572.061901 -80.016003 
L 578.61551 -93.816094 
L 585.169118 -101.387081 
L 591.722727 -77.698167 
L 604.829945 -71.147242 
L 611.383554 -66.734369 
L 617.937163 -85.693404 
L 624.490771 -87.014455 
L 631.04438 -97.786725 
L 637.597989 -84.125604 
L 650.705207 -85.341419 
L 657.258815 -74.91608 
L 663.812424 -78.855694 
L 670.366033 -88.58313 
L 670.366033 -372.560053 
L 670.366033 -372.560053 
L 663.812424 -374.834979 
L 657.258815 -361.324397 
L 650.705207 -372.122186 
L 637.597989 -376.899525 
L 631.04438 -390.88234 
L 624.490771 -372.970338 
L 617.937163 -376.44889 
L 611.383554 -364.538428 
L 604.829945 -373.789126 
L 591.722727 -373.509676 
L 585.169118 -388.680265 
L 578.61551 -373.764963 
L 572.061901 -374.505263 
L 565.508292 -371.083017 
L 558.954683 -376.016819 
L 552.401074 -382.771226 
L 545.847466 -383.840182 
L 539.293857 -386.806927 
L 532.740248 -369.196063 
L 526.186639 -370.668344 
L 519.63303 -372.10548 
L 513.079421 -378.975939 
L 506.525813 -378.585 
L 499.972204 -369.916967 
L 493.418595 -391.788156 
L 486.864986 -379.579291 
L 473.757769 -357.181546 
L 467.20416 -383.658704 
L 460.650551 -386.394513 
L 454.096942 -374.257503 
L 447.543333 -385.315937 
L 434.436116 -362.274209 
L 427.882507 -365.071196 
L 421.328898 -364.781972 
L 414.775289 -385.204328 
L 401.668072 -388.833258 
L 395.114463 -377.534978 
L 388.560854 -370.89717 
L 382.007245 -352.484699 
L 368.900028 -395.985317 
L 355.79281 -403.961818 
L 349.239201 -373.690266 
L 342.685592 -367.840625 
L 336.131983 -355.905553 
L 329.578375 -374.847812 
L 323.024766 -384.716677 
L 316.471157 -378.50298 
L 309.917548 -386.978051 
L 303.363939 -378.792302 
L 296.810331 -370.199023 
L 290.256722 -363.060671 
L 283.703113 -369.376564 
L 277.149504 -388.963466 
L 270.595895 -382.371814 
L 264.042287 -392.204777 
L 257.488678 -373.050419 
L 250.935069 -368.075219 
L 244.38146 -370.342304 
L 237.827851 -370.545704 
L 231.274242 -389.514132 
L 224.720634 -377.482289 
L 218.167025 -391.609811 
L 211.613416 -361.299272 
L 205.059807 -365.181385 
L 198.506198 -360.052378 
L 191.95259 -375.566864 
L 185.398981 -389.731284 
L 178.845372 -385.752162 
L 165.738154 -374.966331 
L 159.184545 -375.236075 
L 152.630937 -365.555488 
L 146.077328 -382.548553 
L 139.523719 -382.069614 
L 132.97011 -374.48096 
L 126.416501 -393.280492 
L 119.862893 -368.201807 
L 113.309284 -361.116757 
L 106.755675 -364.670248 
L 100.202066 -379.157852 
L 87.094848 -381.57761 
L 80.54124 -392.138929 
z
" id="m145488d96e" style="stroke:#0072b2;stroke-opacity:0.2;"/>
    </defs>
    <g clip-path="url(#pe2792a2d85)">
     <use style="fill:#0072b2;fill-opacity:0.2;stroke:#0072b2;stroke-opacity:0.2;" x="0" xlink:href="#m145488d96e" y="432"/>
    </g>
   </g>
   <g id="matplotlib.axis_1">
    <g id="xtick_1">
     <g id="line2d_1">
      <path clip-path="url(#pe2792a2d85)" d="M 126.416501 390.04 
L 126.416501 10.8 
" style="fill:none;stroke:#808080;stroke-linecap:square;stroke-opacity:0.2;"/>
     </g>
     <g id="line2d_2">
      <defs>
       <path d="M 0 0 
L 0 3.5 
" id="m41c44ab582" style="stroke:#000000;stroke-width:0.8;"/>
      </defs>
      <g>
       <use style="stroke:#000000;stroke-width:0.8;" x="126.416501" xlink:href="#m41c44ab582" y="390.04"/>
      </g>
     </g>
     <g id="text_1">
      <!-- 2019-01-08 -->
      <defs>
       <path d="M 19.1875 8.296875 
L 53.609375 8.296875 
L 53.609375 0 
L 7.328125 0 
L 7.328125 8.296875 
Q 12.9375 14.109375 22.625 23.890625 
Q 32.328125 33.6875 34.8125 36.53125 
Q 39.546875 41.84375 41.421875 45.53125 
Q 43.3125 49.21875 43.3125 52.78125 
Q 43.3125 58.59375 39.234375 62.25 
Q 35.15625 65.921875 28.609375 65.921875 
Q 23.96875 65.921875 18.8125 64.3125 
Q 13.671875 62.703125 7.8125 59.421875 
L 7.8125 69.390625 
Q 13.765625 71.78125 18.9375 73 
Q 24.125 74.21875 28.421875 74.21875 
Q 39.75 74.21875 46.484375 68.546875 
Q 53.21875 62.890625 53.21875 53.421875 
Q 53.21875 48.921875 51.53125 44.890625 
Q 49.859375 40.875 45.40625 35.40625 
Q 44.1875 33.984375 37.640625 27.21875 
Q 31.109375 20.453125 19.1875 8.296875 
z
" id="DejaVuSans-50"/>
       <path d="M 31.78125 66.40625 
Q 24.171875 66.40625 20.328125 58.90625 
Q 16.5 51.421875 16.5 36.375 
Q 16.5 21.390625 20.328125 13.890625 
Q 24.171875 6.390625 31.78125 6.390625 
Q 39.453125 6.390625 43.28125 13.890625 
Q 47.125 21.390625 47.125 36.375 
Q 47.125 51.421875 43.28125 58.90625 
Q 39.453125 66.40625 31.78125 66.40625 
z
M 31.78125 74.21875 
Q 44.046875 74.21875 50.515625 64.515625 
Q 56.984375 54.828125 56.984375 36.375 
Q 56.984375 17.96875 50.515625 8.265625 
Q 44.046875 -1.421875 31.78125 -1.421875 
Q 19.53125 -1.421875 13.0625 8.265625 
Q 6.59375 17.96875 6.59375 36.375 
Q 6.59375 54.828125 13.0625 64.515625 
Q 19.53125 74.21875 31.78125 74.21875 
z
" id="DejaVuSans-48"/>
       <path d="M 12.40625 8.296875 
L 28.515625 8.296875 
L 28.515625 63.921875 
L 10.984375 60.40625 
L 10.984375 69.390625 
L 28.421875 72.90625 
L 38.28125 72.90625 
L 38.28125 8.296875 
L 54.390625 8.296875 
L 54.390625 0 
L 12.40625 0 
z
" id="DejaVuSans-49"/>
       <path d="M 10.984375 1.515625 
L 10.984375 10.5 
Q 14.703125 8.734375 18.5 7.8125 
Q 22.3125 6.890625 25.984375 6.890625 
Q 35.75 6.890625 40.890625 13.453125 
Q 46.046875 20.015625 46.78125 33.40625 
Q 43.953125 29.203125 39.59375 26.953125 
Q 35.25 24.703125 29.984375 24.703125 
Q 19.046875 24.703125 12.671875 31.3125 
Q 6.296875 37.9375 6.296875 49.421875 
Q 6.296875 60.640625 12.9375 67.421875 
Q 19.578125 74.21875 30.609375 74.21875 
Q 43.265625 74.21875 49.921875 64.515625 
Q 56.59375 54.828125 56.59375 36.375 
Q 56.59375 19.140625 48.40625 8.859375 
Q 40.234375 -1.421875 26.421875 -1.421875 
Q 22.703125 -1.421875 18.890625 -0.6875 
Q 15.09375 0.046875 10.984375 1.515625 
z
M 30.609375 32.421875 
Q 37.25 32.421875 41.125 36.953125 
Q 45.015625 41.5 45.015625 49.421875 
Q 45.015625 57.28125 41.125 61.84375 
Q 37.25 66.40625 30.609375 66.40625 
Q 23.96875 66.40625 20.09375 61.84375 
Q 16.21875 57.28125 16.21875 49.421875 
Q 16.21875 41.5 20.09375 36.953125 
Q 23.96875 32.421875 30.609375 32.421875 
z
" id="DejaVuSans-57"/>
       <path d="M 4.890625 31.390625 
L 31.203125 31.390625 
L 31.203125 23.390625 
L 4.890625 23.390625 
z
" id="DejaVuSans-45"/>
       <path d="M 31.78125 34.625 
Q 24.75 34.625 20.71875 30.859375 
Q 16.703125 27.09375 16.703125 20.515625 
Q 16.703125 13.921875 20.71875 10.15625 
Q 24.75 6.390625 31.78125 6.390625 
Q 38.8125 6.390625 42.859375 10.171875 
Q 46.921875 13.96875 46.921875 20.515625 
Q 46.921875 27.09375 42.890625 30.859375 
Q 38.875 34.625 31.78125 34.625 
z
M 21.921875 38.8125 
Q 15.578125 40.375 12.03125 44.71875 
Q 8.5 49.078125 8.5 55.328125 
Q 8.5 64.0625 14.71875 69.140625 
Q 20.953125 74.21875 31.78125 74.21875 
Q 42.671875 74.21875 48.875 69.140625 
Q 55.078125 64.0625 55.078125 55.328125 
Q 55.078125 49.078125 51.53125 44.71875 
Q 48 40.375 41.703125 38.8125 
Q 48.828125 37.15625 52.796875 32.3125 
Q 56.78125 27.484375 56.78125 20.515625 
Q 56.78125 9.90625 50.3125 4.234375 
Q 43.84375 -1.421875 31.78125 -1.421875 
Q 19.734375 -1.421875 13.25 4.234375 
Q 6.78125 9.90625 6.78125 20.515625 
Q 6.78125 27.484375 10.78125 32.3125 
Q 14.796875 37.15625 21.921875 38.8125 
z
M 18.3125 54.390625 
Q 18.3125 48.734375 21.84375 45.5625 
Q 25.390625 42.390625 31.78125 42.390625 
Q 38.140625 42.390625 41.71875 45.5625 
Q 45.3125 48.734375 45.3125 54.390625 
Q 45.3125 60.0625 41.71875 63.234375 
Q 38.140625 66.40625 31.78125 66.40625 
Q 25.390625 66.40625 21.84375 63.234375 
Q 18.3125 60.0625 18.3125 54.390625 
z
" id="DejaVuSans-56"/>
      </defs>
      <g transform="translate(97.358689 404.638438)scale(0.1 -0.1)">
       <use xlink:href="#DejaVuSans-50"/>
       <use x="63.623047" xlink:href="#DejaVuSans-48"/>
       <use x="127.246094" xlink:href="#DejaVuSans-49"/>
       <use x="190.869141" xlink:href="#DejaVuSans-57"/>
       <use x="254.492188" xlink:href="#DejaVuSans-45"/>
       <use x="290.576172" xlink:href="#DejaVuSans-48"/>
       <use x="354.199219" xlink:href="#DejaVuSans-49"/>
       <use x="417.822266" xlink:href="#DejaVuSans-45"/>
       <use x="453.90625" xlink:href="#DejaVuSans-48"/>
       <use x="517.529297" xlink:href="#DejaVuSans-56"/>
      </g>
     </g>
    </g>
    <g id="xtick_2">
     <g id="line2d_3">
      <path clip-path="url(#pe2792a2d85)" d="M 218.167025 390.04 
L 218.167025 10.8 
" style="fill:none;stroke:#808080;stroke-linecap:square;stroke-opacity:0.2;"/>
     </g>
     <g id="line2d_4">
      <g>
       <use style="stroke:#000000;stroke-width:0.8;" x="218.167025" xlink:href="#m41c44ab582" y="390.04"/>
      </g>
     </g>
     <g id="text_2">
      <!-- 2019-01-22 -->
      <g transform="translate(189.109212 404.638438)scale(0.1 -0.1)">
       <use xlink:href="#DejaVuSans-50"/>
       <use x="63.623047" xlink:href="#DejaVuSans-48"/>
       <use x="127.246094" xlink:href="#DejaVuSans-49"/>
       <use x="190.869141" xlink:href="#DejaVuSans-57"/>
       <use x="254.492188" xlink:href="#DejaVuSans-45"/>
       <use x="290.576172" xlink:href="#DejaVuSans-48"/>
       <use x="354.199219" xlink:href="#DejaVuSans-49"/>
       <use x="417.822266" xlink:href="#DejaVuSans-45"/>
       <use x="453.90625" xlink:href="#DejaVuSans-50"/>
       <use x="517.529297" xlink:href="#DejaVuSans-50"/>
      </g>
     </g>
    </g>
    <g id="xtick_3">
     <g id="line2d_5">
      <path clip-path="url(#pe2792a2d85)" d="M 309.917548 390.04 
L 309.917548 10.8 
" style="fill:none;stroke:#808080;stroke-linecap:square;stroke-opacity:0.2;"/>
     </g>
     <g id="line2d_6">
      <g>
       <use style="stroke:#000000;stroke-width:0.8;" x="309.917548" xlink:href="#m41c44ab582" y="390.04"/>
      </g>
     </g>
     <g id="text_3">
      <!-- 2019-02-05 -->
      <defs>
       <path d="M 10.796875 72.90625 
L 49.515625 72.90625 
L 49.515625 64.59375 
L 19.828125 64.59375 
L 19.828125 46.734375 
Q 21.96875 47.46875 24.109375 47.828125 
Q 26.265625 48.1875 28.421875 48.1875 
Q 40.625 48.1875 47.75 41.5 
Q 54.890625 34.8125 54.890625 23.390625 
Q 54.890625 11.625 47.5625 5.09375 
Q 40.234375 -1.421875 26.90625 -1.421875 
Q 22.3125 -1.421875 17.546875 -0.640625 
Q 12.796875 0.140625 7.71875 1.703125 
L 7.71875 11.625 
Q 12.109375 9.234375 16.796875 8.0625 
Q 21.484375 6.890625 26.703125 6.890625 
Q 35.15625 6.890625 40.078125 11.328125 
Q 45.015625 15.765625 45.015625 23.390625 
Q 45.015625 31 40.078125 35.4375 
Q 35.15625 39.890625 26.703125 39.890625 
Q 22.75 39.890625 18.8125 39.015625 
Q 14.890625 38.140625 10.796875 36.28125 
z
" id="DejaVuSans-53"/>
      </defs>
      <g transform="translate(280.859736 404.638438)scale(0.1 -0.1)">
       <use xlink:href="#DejaVuSans-50"/>
       <use x="63.623047" xlink:href="#DejaVuSans-48"/>
       <use x="127.246094" xlink:href="#DejaVuSans-49"/>
       <use x="190.869141" xlink:href="#DejaVuSans-57"/>
       <use x="254.492188" xlink:href="#DejaVuSans-45"/>
       <use x="290.576172" xlink:href="#DejaVuSans-48"/>
       <use x="354.199219" xlink:href="#DejaVuSans-50"/>
       <use x="417.822266" xlink:href="#DejaVuSans-45"/>
       <use x="453.90625" xlink:href="#DejaVuSans-48"/>
       <use x="517.529297" xlink:href="#DejaVuSans-53"/>
      </g>
     </g>
    </g>
    <g id="xtick_4">
     <g id="line2d_7">
      <path clip-path="url(#pe2792a2d85)" d="M 401.668072 390.04 
L 401.668072 10.8 
" style="fill:none;stroke:#808080;stroke-linecap:square;stroke-opacity:0.2;"/>
     </g>
     <g id="line2d_8">
      <g>
       <use style="stroke:#000000;stroke-width:0.8;" x="401.668072" xlink:href="#m41c44ab582" y="390.04"/>
      </g>
     </g>
     <g id="text_4">
      <!-- 2019-02-19 -->
      <g transform="translate(372.610259 404.638438)scale(0.1 -0.1)">
       <use xlink:href="#DejaVuSans-50"/>
       <use x="63.623047" xlink:href="#DejaVuSans-48"/>
       <use x="127.246094" xlink:href="#DejaVuSans-49"/>
       <use x="190.869141" xlink:href="#DejaVuSans-57"/>
       <use x="254.492188" xlink:href="#DejaVuSans-45"/>
       <use x="290.576172" xlink:href="#DejaVuSans-48"/>
       <use x="354.199219" xlink:href="#DejaVuSans-50"/>
       <use x="417.822266" xlink:href="#DejaVuSans-45"/>
       <use x="453.90625" xlink:href="#DejaVuSans-49"/>
       <use x="517.529297" xlink:href="#DejaVuSans-57"/>
      </g>
     </g>
    </g>
    <g id="xtick_5">
     <g id="line2d_9">
      <path clip-path="url(#pe2792a2d85)" d="M 493.418595 390.04 
L 493.418595 10.8 
" style="fill:none;stroke:#808080;stroke-linecap:square;stroke-opacity:0.2;"/>
     </g>
     <g id="line2d_10">
      <g>
       <use style="stroke:#000000;stroke-width:0.8;" x="493.418595" xlink:href="#m41c44ab582" y="390.04"/>
      </g>
     </g>
     <g id="text_5">
      <!-- 2019-03-05 -->
      <defs>
       <path d="M 40.578125 39.3125 
Q 47.65625 37.796875 51.625 33 
Q 55.609375 28.21875 55.609375 21.1875 
Q 55.609375 10.40625 48.1875 4.484375 
Q 40.765625 -1.421875 27.09375 -1.421875 
Q 22.515625 -1.421875 17.65625 -0.515625 
Q 12.796875 0.390625 7.625 2.203125 
L 7.625 11.71875 
Q 11.71875 9.328125 16.59375 8.109375 
Q 21.484375 6.890625 26.8125 6.890625 
Q 36.078125 6.890625 40.9375 10.546875 
Q 45.796875 14.203125 45.796875 21.1875 
Q 45.796875 27.640625 41.28125 31.265625 
Q 36.765625 34.90625 28.71875 34.90625 
L 20.21875 34.90625 
L 20.21875 43.015625 
L 29.109375 43.015625 
Q 36.375 43.015625 40.234375 45.921875 
Q 44.09375 48.828125 44.09375 54.296875 
Q 44.09375 59.90625 40.109375 62.90625 
Q 36.140625 65.921875 28.71875 65.921875 
Q 24.65625 65.921875 20.015625 65.03125 
Q 15.375 64.15625 9.8125 62.3125 
L 9.8125 71.09375 
Q 15.4375 72.65625 20.34375 73.4375 
Q 25.25 74.21875 29.59375 74.21875 
Q 40.828125 74.21875 47.359375 69.109375 
Q 53.90625 64.015625 53.90625 55.328125 
Q 53.90625 49.265625 50.4375 45.09375 
Q 46.96875 40.921875 40.578125 39.3125 
z
" id="DejaVuSans-51"/>
      </defs>
      <g transform="translate(464.360783 404.638438)scale(0.1 -0.1)">
       <use xlink:href="#DejaVuSans-50"/>
       <use x="63.623047" xlink:href="#DejaVuSans-48"/>
       <use x="127.246094" xlink:href="#DejaVuSans-49"/>
       <use x="190.869141" xlink:href="#DejaVuSans-57"/>
       <use x="254.492188" xlink:href="#DejaVuSans-45"/>
       <use x="290.576172" xlink:href="#DejaVuSans-48"/>
       <use x="354.199219" xlink:href="#DejaVuSans-51"/>
       <use x="417.822266" xlink:href="#DejaVuSans-45"/>
       <use x="453.90625" xlink:href="#DejaVuSans-48"/>
       <use x="517.529297" xlink:href="#DejaVuSans-53"/>
      </g>
     </g>
    </g>
    <g id="xtick_6">
     <g id="line2d_11">
      <path clip-path="url(#pe2792a2d85)" d="M 585.169118 390.04 
L 585.169118 10.8 
" style="fill:none;stroke:#808080;stroke-linecap:square;stroke-opacity:0.2;"/>
     </g>
     <g id="line2d_12">
      <g>
       <use style="stroke:#000000;stroke-width:0.8;" x="585.169118" xlink:href="#m41c44ab582" y="390.04"/>
      </g>
     </g>
     <g id="text_6">
      <!-- 2019-03-19 -->
      <g transform="translate(556.111306 404.638438)scale(0.1 -0.1)">
       <use xlink:href="#DejaVuSans-50"/>
       <use x="63.623047" xlink:href="#DejaVuSans-48"/>
       <use x="127.246094" xlink:href="#DejaVuSans-49"/>
       <use x="190.869141" xlink:href="#DejaVuSans-57"/>
       <use x="254.492188" xlink:href="#DejaVuSans-45"/>
       <use x="290.576172" xlink:href="#DejaVuSans-48"/>
       <use x="354.199219" xlink:href="#DejaVuSans-51"/>
       <use x="417.822266" xlink:href="#DejaVuSans-45"/>
       <use x="453.90625" xlink:href="#DejaVuSans-49"/>
       <use x="517.529297" xlink:href="#DejaVuSans-57"/>
      </g>
     </g>
    </g>
    <g id="xtick_7">
     <g id="line2d_13">
      <path clip-path="url(#pe2792a2d85)" d="M 676.919642 390.04 
L 676.919642 10.8 
" style="fill:none;stroke:#808080;stroke-linecap:square;stroke-opacity:0.2;"/>
     </g>
     <g id="line2d_14">
      <g>
       <use style="stroke:#000000;stroke-width:0.8;" x="676.919642" xlink:href="#m41c44ab582" y="390.04"/>
      </g>
     </g>
     <g id="text_7">
      <!-- 2019-04-02 -->
      <defs>
       <path d="M 37.796875 64.3125 
L 12.890625 25.390625 
L 37.796875 25.390625 
z
M 35.203125 72.90625 
L 47.609375 72.90625 
L 47.609375 25.390625 
L 58.015625 25.390625 
L 58.015625 17.1875 
L 47.609375 17.1875 
L 47.609375 0 
L 37.796875 0 
L 37.796875 17.1875 
L 4.890625 17.1875 
L 4.890625 26.703125 
z
" id="DejaVuSans-52"/>
      </defs>
      <g transform="translate(647.861829 404.638438)scale(0.1 -0.1)">
       <use xlink:href="#DejaVuSans-50"/>
       <use x="63.623047" xlink:href="#DejaVuSans-48"/>
       <use x="127.246094" xlink:href="#DejaVuSans-49"/>
       <use x="190.869141" xlink:href="#DejaVuSans-57"/>
       <use x="254.492188" xlink:href="#DejaVuSans-45"/>
       <use x="290.576172" xlink:href="#DejaVuSans-48"/>
       <use x="354.199219" xlink:href="#DejaVuSans-52"/>
       <use x="417.822266" xlink:href="#DejaVuSans-45"/>
       <use x="453.90625" xlink:href="#DejaVuSans-48"/>
       <use x="517.529297" xlink:href="#DejaVuSans-50"/>
      </g>
     </g>
    </g>
    <g id="text_8">
     <!-- ds -->
     <defs>
      <path d="M 45.40625 46.390625 
L 45.40625 75.984375 
L 54.390625 75.984375 
L 54.390625 0 
L 45.40625 0 
L 45.40625 8.203125 
Q 42.578125 3.328125 38.25 0.953125 
Q 33.9375 -1.421875 27.875 -1.421875 
Q 17.96875 -1.421875 11.734375 6.484375 
Q 5.515625 14.40625 5.515625 27.296875 
Q 5.515625 40.1875 11.734375 48.09375 
Q 17.96875 56 27.875 56 
Q 33.9375 56 38.25 53.625 
Q 42.578125 51.265625 45.40625 46.390625 
z
M 14.796875 27.296875 
Q 14.796875 17.390625 18.875 11.75 
Q 22.953125 6.109375 30.078125 6.109375 
Q 37.203125 6.109375 41.296875 11.75 
Q 45.40625 17.390625 45.40625 27.296875 
Q 45.40625 37.203125 41.296875 42.84375 
Q 37.203125 48.484375 30.078125 48.484375 
Q 22.953125 48.484375 18.875 42.84375 
Q 14.796875 37.203125 14.796875 27.296875 
z
" id="DejaVuSans-100"/>
      <path d="M 44.28125 53.078125 
L 44.28125 44.578125 
Q 40.484375 46.53125 36.375 47.5 
Q 32.28125 48.484375 27.875 48.484375 
Q 21.1875 48.484375 17.84375 46.4375 
Q 14.5 44.390625 14.5 40.28125 
Q 14.5 37.15625 16.890625 35.375 
Q 19.28125 33.59375 26.515625 31.984375 
L 29.59375 31.296875 
Q 39.15625 29.25 43.1875 25.515625 
Q 47.21875 21.78125 47.21875 15.09375 
Q 47.21875 7.46875 41.1875 3.015625 
Q 35.15625 -1.421875 24.609375 -1.421875 
Q 20.21875 -1.421875 15.453125 -0.5625 
Q 10.6875 0.296875 5.421875 2 
L 5.421875 11.28125 
Q 10.40625 8.6875 15.234375 7.390625 
Q 20.0625 6.109375 24.8125 6.109375 
Q 31.15625 6.109375 34.5625 8.28125 
Q 37.984375 10.453125 37.984375 14.40625 
Q 37.984375 18.0625 35.515625 20.015625 
Q 33.0625 21.96875 24.703125 23.78125 
L 21.578125 24.515625 
Q 13.234375 26.265625 9.515625 29.90625 
Q 5.8125 33.546875 5.8125 39.890625 
Q 5.8125 47.609375 11.28125 51.796875 
Q 16.75 56 26.8125 56 
Q 31.78125 56 36.171875 55.265625 
Q 40.578125 54.546875 44.28125 53.078125 
z
" id="DejaVuSans-115"/>
     </defs>
     <g transform="translate(369.67473 418.316562)scale(0.1 -0.1)">
      <use xlink:href="#DejaVuSans-100"/>
      <use x="63.476562" xlink:href="#DejaVuSans-115"/>
     </g>
    </g>
   </g>
   <g id="matplotlib.axis_2">
    <g id="ytick_1">
     <g id="line2d_15">
      <path clip-path="url(#pe2792a2d85)" d="M 51.05 372.827512 
L 699.857273 372.827512 
" style="fill:none;stroke:#808080;stroke-linecap:square;stroke-opacity:0.2;"/>
     </g>
     <g id="line2d_16">
      <defs>
       <path d="M 0 0 
L -3.5 0 
" id="m00bf83542b" style="stroke:#000000;stroke-width:0.8;"/>
      </defs>
      <g>
       <use style="stroke:#000000;stroke-width:0.8;" x="51.05" xlink:href="#m00bf83542b" y="372.827512"/>
      </g>
     </g>
     <g id="text_9">
      <!-- 100 -->
      <g transform="translate(24.9625 376.62673)scale(0.1 -0.1)">
       <use xlink:href="#DejaVuSans-49"/>
       <use x="63.623047" xlink:href="#DejaVuSans-48"/>
       <use x="127.246094" xlink:href="#DejaVuSans-48"/>
      </g>
     </g>
    </g>
    <g id="ytick_2">
     <g id="line2d_17">
      <path clip-path="url(#pe2792a2d85)" d="M 51.05 320.525935 
L 699.857273 320.525935 
" style="fill:none;stroke:#808080;stroke-linecap:square;stroke-opacity:0.2;"/>
     </g>
     <g id="line2d_18">
      <g>
       <use style="stroke:#000000;stroke-width:0.8;" x="51.05" xlink:href="#m00bf83542b" y="320.525935"/>
      </g>
     </g>
     <g id="text_10">
      <!-- 125 -->
      <g transform="translate(24.9625 324.325154)scale(0.1 -0.1)">
       <use xlink:href="#DejaVuSans-49"/>
       <use x="63.623047" xlink:href="#DejaVuSans-50"/>
       <use x="127.246094" xlink:href="#DejaVuSans-53"/>
      </g>
     </g>
    </g>
    <g id="ytick_3">
     <g id="line2d_19">
      <path clip-path="url(#pe2792a2d85)" d="M 51.05 268.224359 
L 699.857273 268.224359 
" style="fill:none;stroke:#808080;stroke-linecap:square;stroke-opacity:0.2;"/>
     </g>
     <g id="line2d_20">
      <g>
       <use style="stroke:#000000;stroke-width:0.8;" x="51.05" xlink:href="#m00bf83542b" y="268.224359"/>
      </g>
     </g>
     <g id="text_11">
      <!-- 150 -->
      <g transform="translate(24.9625 272.023578)scale(0.1 -0.1)">
       <use xlink:href="#DejaVuSans-49"/>
       <use x="63.623047" xlink:href="#DejaVuSans-53"/>
       <use x="127.246094" xlink:href="#DejaVuSans-48"/>
      </g>
     </g>
    </g>
    <g id="ytick_4">
     <g id="line2d_21">
      <path clip-path="url(#pe2792a2d85)" d="M 51.05 215.922782 
L 699.857273 215.922782 
" style="fill:none;stroke:#808080;stroke-linecap:square;stroke-opacity:0.2;"/>
     </g>
     <g id="line2d_22">
      <g>
       <use style="stroke:#000000;stroke-width:0.8;" x="51.05" xlink:href="#m00bf83542b" y="215.922782"/>
      </g>
     </g>
     <g id="text_12">
      <!-- 175 -->
      <defs>
       <path d="M 8.203125 72.90625 
L 55.078125 72.90625 
L 55.078125 68.703125 
L 28.609375 0 
L 18.3125 0 
L 43.21875 64.59375 
L 8.203125 64.59375 
z
" id="DejaVuSans-55"/>
      </defs>
      <g transform="translate(24.9625 219.722001)scale(0.1 -0.1)">
       <use xlink:href="#DejaVuSans-49"/>
       <use x="63.623047" xlink:href="#DejaVuSans-55"/>
       <use x="127.246094" xlink:href="#DejaVuSans-53"/>
      </g>
     </g>
    </g>
    <g id="ytick_5">
     <g id="line2d_23">
      <path clip-path="url(#pe2792a2d85)" d="M 51.05 163.621206 
L 699.857273 163.621206 
" style="fill:none;stroke:#808080;stroke-linecap:square;stroke-opacity:0.2;"/>
     </g>
     <g id="line2d_24">
      <g>
       <use style="stroke:#000000;stroke-width:0.8;" x="51.05" xlink:href="#m00bf83542b" y="163.621206"/>
      </g>
     </g>
     <g id="text_13">
      <!-- 200 -->
      <g transform="translate(24.9625 167.420425)scale(0.1 -0.1)">
       <use xlink:href="#DejaVuSans-50"/>
       <use x="63.623047" xlink:href="#DejaVuSans-48"/>
       <use x="127.246094" xlink:href="#DejaVuSans-48"/>
      </g>
     </g>
    </g>
    <g id="ytick_6">
     <g id="line2d_25">
      <path clip-path="url(#pe2792a2d85)" d="M 51.05 111.319629 
L 699.857273 111.319629 
" style="fill:none;stroke:#808080;stroke-linecap:square;stroke-opacity:0.2;"/>
     </g>
     <g id="line2d_26">
      <g>
       <use style="stroke:#000000;stroke-width:0.8;" x="51.05" xlink:href="#m00bf83542b" y="111.319629"/>
      </g>
     </g>
     <g id="text_14">
      <!-- 225 -->
      <g transform="translate(24.9625 115.118848)scale(0.1 -0.1)">
       <use xlink:href="#DejaVuSans-50"/>
       <use x="63.623047" xlink:href="#DejaVuSans-50"/>
       <use x="127.246094" xlink:href="#DejaVuSans-53"/>
      </g>
     </g>
    </g>
    <g id="ytick_7">
     <g id="line2d_27">
      <path clip-path="url(#pe2792a2d85)" d="M 51.05 59.018053 
L 699.857273 59.018053 
" style="fill:none;stroke:#808080;stroke-linecap:square;stroke-opacity:0.2;"/>
     </g>
     <g id="line2d_28">
      <g>
       <use style="stroke:#000000;stroke-width:0.8;" x="51.05" xlink:href="#m00bf83542b" y="59.018053"/>
      </g>
     </g>
     <g id="text_15">
      <!-- 250 -->
      <g transform="translate(24.9625 62.817272)scale(0.1 -0.1)">
       <use xlink:href="#DejaVuSans-50"/>
       <use x="63.623047" xlink:href="#DejaVuSans-53"/>
       <use x="127.246094" xlink:href="#DejaVuSans-48"/>
      </g>
     </g>
    </g>
    <g id="text_16">
     <!-- y -->
     <defs>
      <path d="M 32.171875 -5.078125 
Q 28.375 -14.84375 24.75 -17.8125 
Q 21.140625 -20.796875 15.09375 -20.796875 
L 7.90625 -20.796875 
L 7.90625 -13.28125 
L 13.1875 -13.28125 
Q 16.890625 -13.28125 18.9375 -11.515625 
Q 21 -9.765625 23.484375 -3.21875 
L 25.09375 0.875 
L 2.984375 54.6875 
L 12.5 54.6875 
L 29.59375 11.921875 
L 46.6875 54.6875 
L 56.203125 54.6875 
z
" id="DejaVuSans-121"/>
     </defs>
     <g transform="translate(18.882812 203.379375)rotate(-90)scale(0.1 -0.1)">
      <use xlink:href="#DejaVuSans-121"/>
     </g>
    </g>
   </g>
   <g id="line2d_29">
    <defs>
     <path d="M 0 1.5 
C 0.397805 1.5 0.77937 1.341951 1.06066 1.06066 
C 1.341951 0.77937 1.5 0.397805 1.5 0 
C 1.5 -0.397805 1.341951 -0.77937 1.06066 -1.06066 
C 0.77937 -1.341951 0.397805 -1.5 0 -1.5 
C -0.397805 -1.5 -0.77937 -1.341951 -1.06066 -1.06066 
C -1.341951 -0.77937 -1.5 -0.397805 -1.5 0 
C -1.5 0.397805 -1.341951 0.77937 -1.06066 1.06066 
C -0.77937 1.341951 -0.397805 1.5 0 1.5 
z
" id="m2971d3a020" style="stroke:#000000;"/>
    </defs>
    <g clip-path="url(#pe2792a2d85)">
     <use style="stroke:#000000;" x="80.54124" xlink:href="#m2971d3a020" y="48.557738"/>
     <use style="stroke:#000000;" x="87.094848" xlink:href="#m2971d3a020" y="297.513242"/>
     <use style="stroke:#000000;" x="100.202066" xlink:href="#m2971d3a020" y="48.557738"/>
     <use style="stroke:#000000;" x="106.755675" xlink:href="#m2971d3a020" y="284.960863"/>
     <use style="stroke:#000000;" x="113.309284" xlink:href="#m2971d3a020" y="280.776737"/>
     <use style="stroke:#000000;" x="119.862893" xlink:href="#m2971d3a020" y="48.557738"/>
     <use style="stroke:#000000;" x="126.416501" xlink:href="#m2971d3a020" y="297.513242"/>
     <use style="stroke:#000000;" x="132.97011" xlink:href="#m2971d3a020" y="289.144989"/>
     <use style="stroke:#000000;" x="139.523719" xlink:href="#m2971d3a020" y="48.557738"/>
     <use style="stroke:#000000;" x="146.077328" xlink:href="#m2971d3a020" y="284.960863"/>
     <use style="stroke:#000000;" x="152.630937" xlink:href="#m2971d3a020" y="284.960863"/>
     <use style="stroke:#000000;" x="159.184545" xlink:href="#m2971d3a020" y="48.557738"/>
     <use style="stroke:#000000;" x="165.738154" xlink:href="#m2971d3a020" y="297.513242"/>
     <use style="stroke:#000000;" x="178.845372" xlink:href="#m2971d3a020" y="48.557738"/>
     <use style="stroke:#000000;" x="185.398981" xlink:href="#m2971d3a020" y="287.052926"/>
     <use style="stroke:#000000;" x="191.95259" xlink:href="#m2971d3a020" y="280.776737"/>
     <use style="stroke:#000000;" x="198.506198" xlink:href="#m2971d3a020" y="48.557738"/>
     <use style="stroke:#000000;" x="205.059807" xlink:href="#m2971d3a020" y="289.144989"/>
     <use style="stroke:#000000;" x="211.613416" xlink:href="#m2971d3a020" y="282.8688"/>
     <use style="stroke:#000000;" x="218.167025" xlink:href="#m2971d3a020" y="48.557738"/>
     <use style="stroke:#000000;" x="224.720634" xlink:href="#m2971d3a020" y="287.052926"/>
     <use style="stroke:#000000;" x="231.274242" xlink:href="#m2971d3a020" y="284.960863"/>
     <use style="stroke:#000000;" x="237.827851" xlink:href="#m2971d3a020" y="48.557738"/>
     <use style="stroke:#000000;" x="244.38146" xlink:href="#m2971d3a020" y="276.592611"/>
     <use style="stroke:#000000;" x="250.935069" xlink:href="#m2971d3a020" y="289.144989"/>
     <use style="stroke:#000000;" x="257.488678" xlink:href="#m2971d3a020" y="48.557738"/>
     <use style="stroke:#000000;" x="264.042287" xlink:href="#m2971d3a020" y="280.776737"/>
     <use style="stroke:#000000;" x="270.595895" xlink:href="#m2971d3a020" y="287.052926"/>
     <use style="stroke:#000000;" x="277.149504" xlink:href="#m2971d3a020" y="48.557738"/>
     <use style="stroke:#000000;" x="283.703113" xlink:href="#m2971d3a020" y="276.592611"/>
     <use style="stroke:#000000;" x="290.256722" xlink:href="#m2971d3a020" y="295.421179"/>
     <use style="stroke:#000000;" x="296.810331" xlink:href="#m2971d3a020" y="48.557738"/>
     <use style="stroke:#000000;" x="303.363939" xlink:href="#m2971d3a020" y="293.329115"/>
     <use style="stroke:#000000;" x="309.917548" xlink:href="#m2971d3a020" y="295.421179"/>
     <use style="stroke:#000000;" x="316.471157" xlink:href="#m2971d3a020" y="48.557738"/>
     <use style="stroke:#000000;" x="323.024766" xlink:href="#m2971d3a020" y="297.513242"/>
     <use style="stroke:#000000;" x="329.578375" xlink:href="#m2971d3a020" y="280.776737"/>
     <use style="stroke:#000000;" x="336.131983" xlink:href="#m2971d3a020" y="48.557738"/>
     <use style="stroke:#000000;" x="342.685592" xlink:href="#m2971d3a020" y="280.776737"/>
     <use style="stroke:#000000;" x="349.239201" xlink:href="#m2971d3a020" y="297.513242"/>
     <use style="stroke:#000000;" x="355.79281" xlink:href="#m2971d3a020" y="48.557738"/>
     <use style="stroke:#000000;" x="368.900028" xlink:href="#m2971d3a020" y="284.960863"/>
     <use style="stroke:#000000;" x="382.007245" xlink:href="#m2971d3a020" y="287.052926"/>
     <use style="stroke:#000000;" x="388.560854" xlink:href="#m2971d3a020" y="287.052926"/>
     <use style="stroke:#000000;" x="395.114463" xlink:href="#m2971d3a020" y="48.557738"/>
     <use style="stroke:#000000;" x="401.668072" xlink:href="#m2971d3a020" y="289.144989"/>
     <use style="stroke:#000000;" x="414.775289" xlink:href="#m2971d3a020" y="48.557738"/>
     <use style="stroke:#000000;" x="421.328898" xlink:href="#m2971d3a020" y="284.960863"/>
     <use style="stroke:#000000;" x="427.882507" xlink:href="#m2971d3a020" y="289.144989"/>
     <use style="stroke:#000000;" x="434.436116" xlink:href="#m2971d3a020" y="48.557738"/>
     <use style="stroke:#000000;" x="447.543333" xlink:href="#m2971d3a020" y="284.960863"/>
     <use style="stroke:#000000;" x="454.096942" xlink:href="#m2971d3a020" y="48.557738"/>
     <use style="stroke:#000000;" x="460.650551" xlink:href="#m2971d3a020" y="280.776737"/>
     <use style="stroke:#000000;" x="467.20416" xlink:href="#m2971d3a020" y="293.329115"/>
     <use style="stroke:#000000;" x="473.757769" xlink:href="#m2971d3a020" y="48.557738"/>
     <use style="stroke:#000000;" x="486.864986" xlink:href="#m2971d3a020" y="289.144989"/>
     <use style="stroke:#000000;" x="493.418595" xlink:href="#m2971d3a020" y="48.557738"/>
     <use style="stroke:#000000;" x="499.972204" xlink:href="#m2971d3a020" y="280.776737"/>
     <use style="stroke:#000000;" x="506.525813" xlink:href="#m2971d3a020" y="282.8688"/>
     <use style="stroke:#000000;" x="513.079421" xlink:href="#m2971d3a020" y="48.557738"/>
     <use style="stroke:#000000;" x="519.63303" xlink:href="#m2971d3a020" y="289.144989"/>
     <use style="stroke:#000000;" x="526.186639" xlink:href="#m2971d3a020" y="282.8688"/>
     <use style="stroke:#000000;" x="532.740248" xlink:href="#m2971d3a020" y="48.557738"/>
     <use style="stroke:#000000;" x="539.293857" xlink:href="#m2971d3a020" y="284.960863"/>
     <use style="stroke:#000000;" x="545.847466" xlink:href="#m2971d3a020" y="280.776737"/>
     <use style="stroke:#000000;" x="552.401074" xlink:href="#m2971d3a020" y="48.557738"/>
     <use style="stroke:#000000;" x="558.954683" xlink:href="#m2971d3a020" y="287.052926"/>
     <use style="stroke:#000000;" x="565.508292" xlink:href="#m2971d3a020" y="282.8688"/>
     <use style="stroke:#000000;" x="572.061901" xlink:href="#m2971d3a020" y="48.557738"/>
     <use style="stroke:#000000;" x="578.61551" xlink:href="#m2971d3a020" y="282.8688"/>
     <use style="stroke:#000000;" x="585.169118" xlink:href="#m2971d3a020" y="272.408485"/>
     <use style="stroke:#000000;" x="591.722727" xlink:href="#m2971d3a020" y="48.557738"/>
     <use style="stroke:#000000;" x="604.829945" xlink:href="#m2971d3a020" y="289.144989"/>
     <use style="stroke:#000000;" x="611.383554" xlink:href="#m2971d3a020" y="48.557738"/>
     <use style="stroke:#000000;" x="617.937163" xlink:href="#m2971d3a020" y="293.329115"/>
     <use style="stroke:#000000;" x="624.490771" xlink:href="#m2971d3a020" y="289.144989"/>
     <use style="stroke:#000000;" x="631.04438" xlink:href="#m2971d3a020" y="48.557738"/>
     <use style="stroke:#000000;" x="637.597989" xlink:href="#m2971d3a020" y="284.960863"/>
     <use style="stroke:#000000;" x="650.705207" xlink:href="#m2971d3a020" y="48.557738"/>
     <use style="stroke:#000000;" x="657.258815" xlink:href="#m2971d3a020" y="289.144989"/>
     <use style="stroke:#000000;" x="663.812424" xlink:href="#m2971d3a020" y="280.776737"/>
    </g>
   </g>
   <g id="line2d_30">
    <path clip-path="url(#pe2792a2d85)" d="M 80.54124 186.037094 
L 87.094848 198.914783 
L 100.202066 204.733388 
L 106.755675 212.100382 
L 113.309284 205.262339 
L 119.862893 201.330441 
L 126.416501 186.236285 
L 132.97011 199.113974 
L 139.523719 190.402724 
L 146.077328 204.932579 
L 152.630937 212.299573 
L 159.184545 205.46153 
L 165.738154 201.529632 
L 178.845372 199.313165 
L 185.398981 190.601914 
L 191.95259 205.13177 
L 198.506198 212.498764 
L 205.059807 205.660721 
L 211.613416 201.728823 
L 218.167025 186.634666 
L 224.720634 199.512356 
L 231.274242 190.801105 
L 237.827851 205.330961 
L 244.38146 212.697955 
L 250.935069 205.859912 
L 257.488678 201.928014 
L 264.042287 186.833857 
L 270.595895 199.711547 
L 277.149504 191.000296 
L 283.703113 205.530152 
L 290.256722 212.897146 
L 296.810331 206.059103 
L 303.363939 202.127205 
L 309.917548 187.033048 
L 316.471157 199.910738 
L 323.024766 191.199487 
L 329.578375 205.729342 
L 336.131983 213.096337 
L 342.685592 206.258293 
L 349.239201 202.326396 
L 355.79281 187.232239 
L 368.900028 191.398678 
L 382.007245 213.295528 
L 388.560854 206.457484 
L 395.114463 202.525587 
L 401.668072 187.43143 
L 414.775289 191.597869 
L 421.328898 206.127724 
L 427.882507 213.494719 
L 434.436116 206.656675 
L 447.543333 187.630621 
L 454.096942 200.508311 
L 460.650551 191.79706 
L 467.20416 206.326915 
L 473.757769 213.693909 
L 486.864986 202.923968 
L 493.418595 187.829812 
L 499.972204 200.707501 
L 506.525813 191.996251 
L 513.079421 206.526106 
L 519.63303 213.8931 
L 526.186639 207.055057 
L 532.740248 203.123159 
L 539.293857 188.029003 
L 545.847466 200.906692 
L 552.401074 192.195442 
L 558.954683 206.725297 
L 565.508292 214.092291 
L 572.061901 207.254248 
L 578.61551 203.32235 
L 585.169118 188.228194 
L 591.722727 201.105883 
L 604.829945 206.924488 
L 611.383554 214.291482 
L 617.937163 207.453439 
L 624.490771 203.521541 
L 631.04438 188.427384 
L 637.597989 201.305074 
L 650.705207 207.123679 
L 657.258815 214.490673 
L 663.812424 207.65263 
L 670.366033 203.720732 
" style="fill:none;stroke:#0072b2;stroke-linecap:square;stroke-width:1.5;"/>
   </g>
   <g id="patch_3">
    <path d="M 51.05 390.04 
L 51.05 10.8 
" style="fill:none;stroke:#000000;stroke-linecap:square;stroke-linejoin:miter;stroke-width:0.8;"/>
   </g>
   <g id="patch_4">
    <path d="M 699.857273 390.04 
L 699.857273 10.8 
" style="fill:none;stroke:#000000;stroke-linecap:square;stroke-linejoin:miter;stroke-width:0.8;"/>
   </g>
   <g id="patch_5">
    <path d="M 51.05 390.04 
L 699.857273 390.04 
" style="fill:none;stroke:#000000;stroke-linecap:square;stroke-linejoin:miter;stroke-width:0.8;"/>
   </g>
   <g id="patch_6">
    <path d="M 51.05 10.8 
L 699.857273 10.8 
" style="fill:none;stroke:#000000;stroke-linecap:square;stroke-linejoin:miter;stroke-width:0.8;"/>
   </g>
  </g>
 </g>
 <defs>
  <clipPath id="pe2792a2d85">
   <rect height="379.24" width="648.807273" x="51.05" y="10.8"/>
  </clipPath>
 </defs>
</svg>
