<?xml version="1.0" encoding="utf-8" standalone="no"?>
<!DOCTYPE svg PUBLIC "-//W3C//DTD SVG 1.1//EN"
  "http://www.w3.org/Graphics/SVG/1.1/DTD/svg11.dtd">
<!-- Created with matplotlib (https://matplotlib.org/) -->
<svg height="432pt" version="1.1" viewBox="0 0 720 432" width="720pt" xmlns="http://www.w3.org/2000/svg" xmlns:xlink="http://www.w3.org/1999/xlink">
 <defs>
  <style type="text/css">
*{stroke-linecap:butt;stroke-linejoin:round;}
  </style>
 </defs>
 <g id="figure_1">
  <g id="patch_1">
   <path d="M 0 432 
L 720 432 
L 720 0 
L 0 0 
z
" style="fill:#ffffff;"/>
  </g>
  <g id="axes_1">
   <g id="patch_2">
    <path d="M 51.05 390.04 
L 699.857273 390.04 
L 699.857273 10.8 
L 51.05 10.8 
z
" style="fill:#ffffff;"/>
   </g>
   <g id="PolyCollection_1">
    <defs>
     <path d="M 80.54124 -390.084649 
L 80.54124 -100.040948 
L 87.094848 -71.346591 
L 100.202066 -80.093761 
L 106.755675 -64.911091 
L 113.309284 -83.833867 
L 119.862893 -87.482721 
L 126.416501 -105.885237 
L 132.97011 -90.614843 
L 139.523719 -90.007014 
L 146.077328 -83.928552 
L 152.630937 -84.529476 
L 159.184545 -84.83562 
L 165.738154 -91.580179 
L 178.845372 -87.177257 
L 185.398981 -92.591761 
L 191.95259 -68.734386 
L 198.506198 -71.543838 
L 205.059807 -88.654069 
L 211.613416 -91.931423 
L 218.167025 -99.836656 
L 224.720634 -85.757683 
L 231.274242 -97.669647 
L 237.827851 -80.067413 
L 244.38146 -76.34655 
L 250.935069 -72.88001 
L 257.488678 -91.659023 
L 264.042287 -93.61509 
L 270.595895 -76.190518 
L 277.149504 -90.03524 
L 283.703113 -74.774114 
L 290.256722 -66.819618 
L 296.810331 -78.393111 
L 303.363939 -85.646169 
L 309.917548 -106.85711 
L 316.471157 -80.759078 
L 323.024766 -106.047516 
L 329.578375 -78.715318 
L 336.131983 -80.484901 
L 342.685592 -77.391865 
L 349.239201 -83.615572 
L 355.79281 -93.252537 
L 368.900028 -96.585048 
L 382.007245 -61.943577 
L 388.560854 -74.779335 
L 395.114463 -87.423449 
L 401.668072 -93.833429 
L 414.775289 -90.964897 
L 421.328898 -77.828086 
L 427.882507 -70.775707 
L 434.436116 -77.765936 
L 447.543333 -83.243189 
L 454.096942 -84.946439 
L 460.650551 -86.588025 
L 467.20416 -83.647826 
L 473.757769 -72.34496 
L 486.864986 -75.706987 
L 493.418595 -91.435782 
L 499.972204 -76.175058 
L 506.525813 -79.699539 
L 513.079421 -71.313069 
L 519.63303 -62.581145 
L 526.186639 -70.322888 
L 532.740248 -68.033763 
L 539.293857 -79.686728 
L 545.847466 -81.527015 
L 552.401074 -97.27627 
L 558.954683 -76.421002 
L 565.508292 -74.286356 
L 572.061901 -70.982483 
L 578.61551 -68.594126 
L 585.169118 -84.056184 
L 591.722727 -77.641121 
L 604.829945 -74.268848 
L 611.383554 -59.198182 
L 617.937163 -68.078271 
L 624.490771 -74.73692 
L 631.04438 -88.585323 
L 637.597989 -82.502126 
L 650.705207 -69.536477 
L 657.258815 -64.683395 
L 663.812424 -66.64098 
L 670.366033 -76.607345 
L 670.366033 -372.538637 
L 670.366033 -372.538637 
L 663.812424 -368.114977 
L 657.258815 -357.633867 
L 650.705207 -360.022051 
L 637.597989 -372.323771 
L 631.04438 -384.242 
L 624.490771 -375.248349 
L 617.937163 -371.7631 
L 611.383554 -361.719958 
L 604.829945 -369.973532 
L 591.722727 -373.441522 
L 585.169118 -379.899646 
L 578.61551 -368.98895 
L 572.061901 -375.968224 
L 565.508292 -368.604447 
L 558.954683 -375.819639 
L 552.401074 -382.751297 
L 545.847466 -373.654325 
L 539.293857 -382.006325 
L 532.740248 -378.233923 
L 526.186639 -365.499165 
L 519.63303 -362.812711 
L 513.079421 -379.375769 
L 506.525813 -382.448965 
L 499.972204 -376.192686 
L 493.418595 -382.810523 
L 486.864986 -373.971168 
L 473.757769 -363.543912 
L 467.20416 -362.988758 
L 460.650551 -374.124555 
L 454.096942 -371.900073 
L 447.543333 -386.309323 
L 434.436116 -365.670896 
L 427.882507 -371.915816 
L 421.328898 -371.17985 
L 414.775289 -389.67083 
L 401.668072 -396.03837 
L 395.114463 -385.758802 
L 388.560854 -373.186554 
L 382.007245 -368.564359 
L 368.900028 -403.961818 
L 355.79281 -383.492219 
L 349.239201 -370.646506 
L 342.685592 -372.550362 
L 336.131983 -362.094104 
L 329.578375 -374.275989 
L 323.024766 -386.140955 
L 316.471157 -376.311415 
L 309.917548 -402.838932 
L 303.363939 -374.575421 
L 296.810331 -365.764046 
L 290.256722 -370.492286 
L 283.703113 -367.494074 
L 277.149504 -388.980319 
L 270.595895 -374.4828 
L 264.042287 -385.44734 
L 257.488678 -375.338003 
L 250.935069 -371.589945 
L 244.38146 -370.38213 
L 237.827851 -370.708635 
L 231.274242 -385.701036 
L 224.720634 -377.097454 
L 218.167025 -394.817279 
L 211.613416 -374.484504 
L 205.059807 -370.390593 
L 198.506198 -358.601385 
L 191.95259 -369.273172 
L 185.398981 -387.268533 
L 178.845372 -377.275314 
L 165.738154 -392.601653 
L 159.184545 -365.672359 
L 152.630937 -363.825046 
L 146.077328 -368.531749 
L 139.523719 -390.144334 
L 132.97011 -379.67456 
L 126.416501 -398.017159 
L 119.862893 -377.781233 
L 113.309284 -382.331131 
L 106.755675 -371.320009 
L 100.202066 -372.604508 
L 87.094848 -377.941206 
L 80.54124 -390.084649 
z
" id="m679a6c41e9" style="stroke:#0072b2;stroke-opacity:0.2;"/>
    </defs>
    <g clip-path="url(#p01bf094e16)">
     <use style="fill:#0072b2;fill-opacity:0.2;stroke:#0072b2;stroke-opacity:0.2;" x="0" xlink:href="#m679a6c41e9" y="432"/>
    </g>
   </g>
   <g id="matplotlib.axis_1">
    <g id="xtick_1">
     <g id="line2d_1">
      <path clip-path="url(#p01bf094e16)" d="M 126.416501 390.04 
L 126.416501 10.8 
" style="fill:none;stroke:#808080;stroke-linecap:square;stroke-opacity:0.2;"/>
     </g>
     <g id="line2d_2">
      <defs>
       <path d="M 0 0 
L 0 3.5 
" id="m85061abc2c" style="stroke:#000000;stroke-width:0.8;"/>
      </defs>
      <g>
       <use style="stroke:#000000;stroke-width:0.8;" x="126.416501" xlink:href="#m85061abc2c" y="390.04"/>
      </g>
     </g>
     <g id="text_1">
      <!-- 2019-01-08 -->
      <defs>
       <path d="M 19.1875 8.296875 
L 53.609375 8.296875 
L 53.609375 0 
L 7.328125 0 
L 7.328125 8.296875 
Q 12.9375 14.109375 22.625 23.890625 
Q 32.328125 33.6875 34.8125 36.53125 
Q 39.546875 41.84375 41.421875 45.53125 
Q 43.3125 49.21875 43.3125 52.78125 
Q 43.3125 58.59375 39.234375 62.25 
Q 35.15625 65.921875 28.609375 65.921875 
Q 23.96875 65.921875 18.8125 64.3125 
Q 13.671875 62.703125 7.8125 59.421875 
L 7.8125 69.390625 
Q 13.765625 71.78125 18.9375 73 
Q 24.125 74.21875 28.421875 74.21875 
Q 39.75 74.21875 46.484375 68.546875 
Q 53.21875 62.890625 53.21875 53.421875 
Q 53.21875 48.921875 51.53125 44.890625 
Q 49.859375 40.875 45.40625 35.40625 
Q 44.1875 33.984375 37.640625 27.21875 
Q 31.109375 20.453125 19.1875 8.296875 
z
" id="DejaVuSans-50"/>
       <path d="M 31.78125 66.40625 
Q 24.171875 66.40625 20.328125 58.90625 
Q 16.5 51.421875 16.5 36.375 
Q 16.5 21.390625 20.328125 13.890625 
Q 24.171875 6.390625 31.78125 6.390625 
Q 39.453125 6.390625 43.28125 13.890625 
Q 47.125 21.390625 47.125 36.375 
Q 47.125 51.421875 43.28125 58.90625 
Q 39.453125 66.40625 31.78125 66.40625 
z
M 31.78125 74.21875 
Q 44.046875 74.21875 50.515625 64.515625 
Q 56.984375 54.828125 56.984375 36.375 
Q 56.984375 17.96875 50.515625 8.265625 
Q 44.046875 -1.421875 31.78125 -1.421875 
Q 19.53125 -1.421875 13.0625 8.265625 
Q 6.59375 17.96875 6.59375 36.375 
Q 6.59375 54.828125 13.0625 64.515625 
Q 19.53125 74.21875 31.78125 74.21875 
z
" id="DejaVuSans-48"/>
       <path d="M 12.40625 8.296875 
L 28.515625 8.296875 
L 28.515625 63.921875 
L 10.984375 60.40625 
L 10.984375 69.390625 
L 28.421875 72.90625 
L 38.28125 72.90625 
L 38.28125 8.296875 
L 54.390625 8.296875 
L 54.390625 0 
L 12.40625 0 
z
" id="DejaVuSans-49"/>
       <path d="M 10.984375 1.515625 
L 10.984375 10.5 
Q 14.703125 8.734375 18.5 7.8125 
Q 22.3125 6.890625 25.984375 6.890625 
Q 35.75 6.890625 40.890625 13.453125 
Q 46.046875 20.015625 46.78125 33.40625 
Q 43.953125 29.203125 39.59375 26.953125 
Q 35.25 24.703125 29.984375 24.703125 
Q 19.046875 24.703125 12.671875 31.3125 
Q 6.296875 37.9375 6.296875 49.421875 
Q 6.296875 60.640625 12.9375 67.421875 
Q 19.578125 74.21875 30.609375 74.21875 
Q 43.265625 74.21875 49.921875 64.515625 
Q 56.59375 54.828125 56.59375 36.375 
Q 56.59375 19.140625 48.40625 8.859375 
Q 40.234375 -1.421875 26.421875 -1.421875 
Q 22.703125 -1.421875 18.890625 -0.6875 
Q 15.09375 0.046875 10.984375 1.515625 
z
M 30.609375 32.421875 
Q 37.25 32.421875 41.125 36.953125 
Q 45.015625 41.5 45.015625 49.421875 
Q 45.015625 57.28125 41.125 61.84375 
Q 37.25 66.40625 30.609375 66.40625 
Q 23.96875 66.40625 20.09375 61.84375 
Q 16.21875 57.28125 16.21875 49.421875 
Q 16.21875 41.5 20.09375 36.953125 
Q 23.96875 32.421875 30.609375 32.421875 
z
" id="DejaVuSans-57"/>
       <path d="M 4.890625 31.390625 
L 31.203125 31.390625 
L 31.203125 23.390625 
L 4.890625 23.390625 
z
" id="DejaVuSans-45"/>
       <path d="M 31.78125 34.625 
Q 24.75 34.625 20.71875 30.859375 
Q 16.703125 27.09375 16.703125 20.515625 
Q 16.703125 13.921875 20.71875 10.15625 
Q 24.75 6.390625 31.78125 6.390625 
Q 38.8125 6.390625 42.859375 10.171875 
Q 46.921875 13.96875 46.921875 20.515625 
Q 46.921875 27.09375 42.890625 30.859375 
Q 38.875 34.625 31.78125 34.625 
z
M 21.921875 38.8125 
Q 15.578125 40.375 12.03125 44.71875 
Q 8.5 49.078125 8.5 55.328125 
Q 8.5 64.0625 14.71875 69.140625 
Q 20.953125 74.21875 31.78125 74.21875 
Q 42.671875 74.21875 48.875 69.140625 
Q 55.078125 64.0625 55.078125 55.328125 
Q 55.078125 49.078125 51.53125 44.71875 
Q 48 40.375 41.703125 38.8125 
Q 48.828125 37.15625 52.796875 32.3125 
Q 56.78125 27.484375 56.78125 20.515625 
Q 56.78125 9.90625 50.3125 4.234375 
Q 43.84375 -1.421875 31.78125 -1.421875 
Q 19.734375 -1.421875 13.25 4.234375 
Q 6.78125 9.90625 6.78125 20.515625 
Q 6.78125 27.484375 10.78125 32.3125 
Q 14.796875 37.15625 21.921875 38.8125 
z
M 18.3125 54.390625 
Q 18.3125 48.734375 21.84375 45.5625 
Q 25.390625 42.390625 31.78125 42.390625 
Q 38.140625 42.390625 41.71875 45.5625 
Q 45.3125 48.734375 45.3125 54.390625 
Q 45.3125 60.0625 41.71875 63.234375 
Q 38.140625 66.40625 31.78125 66.40625 
Q 25.390625 66.40625 21.84375 63.234375 
Q 18.3125 60.0625 18.3125 54.390625 
z
" id="DejaVuSans-56"/>
      </defs>
      <g transform="translate(97.358689 404.638438)scale(0.1 -0.1)">
       <use xlink:href="#DejaVuSans-50"/>
       <use x="63.623047" xlink:href="#DejaVuSans-48"/>
       <use x="127.246094" xlink:href="#DejaVuSans-49"/>
       <use x="190.869141" xlink:href="#DejaVuSans-57"/>
       <use x="254.492188" xlink:href="#DejaVuSans-45"/>
       <use x="290.576172" xlink:href="#DejaVuSans-48"/>
       <use x="354.199219" xlink:href="#DejaVuSans-49"/>
       <use x="417.822266" xlink:href="#DejaVuSans-45"/>
       <use x="453.90625" xlink:href="#DejaVuSans-48"/>
       <use x="517.529297" xlink:href="#DejaVuSans-56"/>
      </g>
     </g>
    </g>
    <g id="xtick_2">
     <g id="line2d_3">
      <path clip-path="url(#p01bf094e16)" d="M 218.167025 390.04 
L 218.167025 10.8 
" style="fill:none;stroke:#808080;stroke-linecap:square;stroke-opacity:0.2;"/>
     </g>
     <g id="line2d_4">
      <g>
       <use style="stroke:#000000;stroke-width:0.8;" x="218.167025" xlink:href="#m85061abc2c" y="390.04"/>
      </g>
     </g>
     <g id="text_2">
      <!-- 2019-01-22 -->
      <g transform="translate(189.109212 404.638438)scale(0.1 -0.1)">
       <use xlink:href="#DejaVuSans-50"/>
       <use x="63.623047" xlink:href="#DejaVuSans-48"/>
       <use x="127.246094" xlink:href="#DejaVuSans-49"/>
       <use x="190.869141" xlink:href="#DejaVuSans-57"/>
       <use x="254.492188" xlink:href="#DejaVuSans-45"/>
       <use x="290.576172" xlink:href="#DejaVuSans-48"/>
       <use x="354.199219" xlink:href="#DejaVuSans-49"/>
       <use x="417.822266" xlink:href="#DejaVuSans-45"/>
       <use x="453.90625" xlink:href="#DejaVuSans-50"/>
       <use x="517.529297" xlink:href="#DejaVuSans-50"/>
      </g>
     </g>
    </g>
    <g id="xtick_3">
     <g id="line2d_5">
      <path clip-path="url(#p01bf094e16)" d="M 309.917548 390.04 
L 309.917548 10.8 
" style="fill:none;stroke:#808080;stroke-linecap:square;stroke-opacity:0.2;"/>
     </g>
     <g id="line2d_6">
      <g>
       <use style="stroke:#000000;stroke-width:0.8;" x="309.917548" xlink:href="#m85061abc2c" y="390.04"/>
      </g>
     </g>
     <g id="text_3">
      <!-- 2019-02-05 -->
      <defs>
       <path d="M 10.796875 72.90625 
L 49.515625 72.90625 
L 49.515625 64.59375 
L 19.828125 64.59375 
L 19.828125 46.734375 
Q 21.96875 47.46875 24.109375 47.828125 
Q 26.265625 48.1875 28.421875 48.1875 
Q 40.625 48.1875 47.75 41.5 
Q 54.890625 34.8125 54.890625 23.390625 
Q 54.890625 11.625 47.5625 5.09375 
Q 40.234375 -1.421875 26.90625 -1.421875 
Q 22.3125 -1.421875 17.546875 -0.640625 
Q 12.796875 0.140625 7.71875 1.703125 
L 7.71875 11.625 
Q 12.109375 9.234375 16.796875 8.0625 
Q 21.484375 6.890625 26.703125 6.890625 
Q 35.15625 6.890625 40.078125 11.328125 
Q 45.015625 15.765625 45.015625 23.390625 
Q 45.015625 31 40.078125 35.4375 
Q 35.15625 39.890625 26.703125 39.890625 
Q 22.75 39.890625 18.8125 39.015625 
Q 14.890625 38.140625 10.796875 36.28125 
z
" id="DejaVuSans-53"/>
      </defs>
      <g transform="translate(280.859736 404.638438)scale(0.1 -0.1)">
       <use xlink:href="#DejaVuSans-50"/>
       <use x="63.623047" xlink:href="#DejaVuSans-48"/>
       <use x="127.246094" xlink:href="#DejaVuSans-49"/>
       <use x="190.869141" xlink:href="#DejaVuSans-57"/>
       <use x="254.492188" xlink:href="#DejaVuSans-45"/>
       <use x="290.576172" xlink:href="#DejaVuSans-48"/>
       <use x="354.199219" xlink:href="#DejaVuSans-50"/>
       <use x="417.822266" xlink:href="#DejaVuSans-45"/>
       <use x="453.90625" xlink:href="#DejaVuSans-48"/>
       <use x="517.529297" xlink:href="#DejaVuSans-53"/>
      </g>
     </g>
    </g>
    <g id="xtick_4">
     <g id="line2d_7">
      <path clip-path="url(#p01bf094e16)" d="M 401.668072 390.04 
L 401.668072 10.8 
" style="fill:none;stroke:#808080;stroke-linecap:square;stroke-opacity:0.2;"/>
     </g>
     <g id="line2d_8">
      <g>
       <use style="stroke:#000000;stroke-width:0.8;" x="401.668072" xlink:href="#m85061abc2c" y="390.04"/>
      </g>
     </g>
     <g id="text_4">
      <!-- 2019-02-19 -->
      <g transform="translate(372.610259 404.638438)scale(0.1 -0.1)">
       <use xlink:href="#DejaVuSans-50"/>
       <use x="63.623047" xlink:href="#DejaVuSans-48"/>
       <use x="127.246094" xlink:href="#DejaVuSans-49"/>
       <use x="190.869141" xlink:href="#DejaVuSans-57"/>
       <use x="254.492188" xlink:href="#DejaVuSans-45"/>
       <use x="290.576172" xlink:href="#DejaVuSans-48"/>
       <use x="354.199219" xlink:href="#DejaVuSans-50"/>
       <use x="417.822266" xlink:href="#DejaVuSans-45"/>
       <use x="453.90625" xlink:href="#DejaVuSans-49"/>
       <use x="517.529297" xlink:href="#DejaVuSans-57"/>
      </g>
     </g>
    </g>
    <g id="xtick_5">
     <g id="line2d_9">
      <path clip-path="url(#p01bf094e16)" d="M 493.418595 390.04 
L 493.418595 10.8 
" style="fill:none;stroke:#808080;stroke-linecap:square;stroke-opacity:0.2;"/>
     </g>
     <g id="line2d_10">
      <g>
       <use style="stroke:#000000;stroke-width:0.8;" x="493.418595" xlink:href="#m85061abc2c" y="390.04"/>
      </g>
     </g>
     <g id="text_5">
      <!-- 2019-03-05 -->
      <defs>
       <path d="M 40.578125 39.3125 
Q 47.65625 37.796875 51.625 33 
Q 55.609375 28.21875 55.609375 21.1875 
Q 55.609375 10.40625 48.1875 4.484375 
Q 40.765625 -1.421875 27.09375 -1.421875 
Q 22.515625 -1.421875 17.65625 -0.515625 
Q 12.796875 0.390625 7.625 2.203125 
L 7.625 11.71875 
Q 11.71875 9.328125 16.59375 8.109375 
Q 21.484375 6.890625 26.8125 6.890625 
Q 36.078125 6.890625 40.9375 10.546875 
Q 45.796875 14.203125 45.796875 21.1875 
Q 45.796875 27.640625 41.28125 31.265625 
Q 36.765625 34.90625 28.71875 34.90625 
L 20.21875 34.90625 
L 20.21875 43.015625 
L 29.109375 43.015625 
Q 36.375 43.015625 40.234375 45.921875 
Q 44.09375 48.828125 44.09375 54.296875 
Q 44.09375 59.90625 40.109375 62.90625 
Q 36.140625 65.921875 28.71875 65.921875 
Q 24.65625 65.921875 20.015625 65.03125 
Q 15.375 64.15625 9.8125 62.3125 
L 9.8125 71.09375 
Q 15.4375 72.65625 20.34375 73.4375 
Q 25.25 74.21875 29.59375 74.21875 
Q 40.828125 74.21875 47.359375 69.109375 
Q 53.90625 64.015625 53.90625 55.328125 
Q 53.90625 49.265625 50.4375 45.09375 
Q 46.96875 40.921875 40.578125 39.3125 
z
" id="DejaVuSans-51"/>
      </defs>
      <g transform="translate(464.360783 404.638438)scale(0.1 -0.1)">
       <use xlink:href="#DejaVuSans-50"/>
       <use x="63.623047" xlink:href="#DejaVuSans-48"/>
       <use x="127.246094" xlink:href="#DejaVuSans-49"/>
       <use x="190.869141" xlink:href="#DejaVuSans-57"/>
       <use x="254.492188" xlink:href="#DejaVuSans-45"/>
       <use x="290.576172" xlink:href="#DejaVuSans-48"/>
       <use x="354.199219" xlink:href="#DejaVuSans-51"/>
       <use x="417.822266" xlink:href="#DejaVuSans-45"/>
       <use x="453.90625" xlink:href="#DejaVuSans-48"/>
       <use x="517.529297" xlink:href="#DejaVuSans-53"/>
      </g>
     </g>
    </g>
    <g id="xtick_6">
     <g id="line2d_11">
      <path clip-path="url(#p01bf094e16)" d="M 585.169118 390.04 
L 585.169118 10.8 
" style="fill:none;stroke:#808080;stroke-linecap:square;stroke-opacity:0.2;"/>
     </g>
     <g id="line2d_12">
      <g>
       <use style="stroke:#000000;stroke-width:0.8;" x="585.169118" xlink:href="#m85061abc2c" y="390.04"/>
      </g>
     </g>
     <g id="text_6">
      <!-- 2019-03-19 -->
      <g transform="translate(556.111306 404.638438)scale(0.1 -0.1)">
       <use xlink:href="#DejaVuSans-50"/>
       <use x="63.623047" xlink:href="#DejaVuSans-48"/>
       <use x="127.246094" xlink:href="#DejaVuSans-49"/>
       <use x="190.869141" xlink:href="#DejaVuSans-57"/>
       <use x="254.492188" xlink:href="#DejaVuSans-45"/>
       <use x="290.576172" xlink:href="#DejaVuSans-48"/>
       <use x="354.199219" xlink:href="#DejaVuSans-51"/>
       <use x="417.822266" xlink:href="#DejaVuSans-45"/>
       <use x="453.90625" xlink:href="#DejaVuSans-49"/>
       <use x="517.529297" xlink:href="#DejaVuSans-57"/>
      </g>
     </g>
    </g>
    <g id="xtick_7">
     <g id="line2d_13">
      <path clip-path="url(#p01bf094e16)" d="M 676.919642 390.04 
L 676.919642 10.8 
" style="fill:none;stroke:#808080;stroke-linecap:square;stroke-opacity:0.2;"/>
     </g>
     <g id="line2d_14">
      <g>
       <use style="stroke:#000000;stroke-width:0.8;" x="676.919642" xlink:href="#m85061abc2c" y="390.04"/>
      </g>
     </g>
     <g id="text_7">
      <!-- 2019-04-02 -->
      <defs>
       <path d="M 37.796875 64.3125 
L 12.890625 25.390625 
L 37.796875 25.390625 
z
M 35.203125 72.90625 
L 47.609375 72.90625 
L 47.609375 25.390625 
L 58.015625 25.390625 
L 58.015625 17.1875 
L 47.609375 17.1875 
L 47.609375 0 
L 37.796875 0 
L 37.796875 17.1875 
L 4.890625 17.1875 
L 4.890625 26.703125 
z
" id="DejaVuSans-52"/>
      </defs>
      <g transform="translate(647.861829 404.638438)scale(0.1 -0.1)">
       <use xlink:href="#DejaVuSans-50"/>
       <use x="63.623047" xlink:href="#DejaVuSans-48"/>
       <use x="127.246094" xlink:href="#DejaVuSans-49"/>
       <use x="190.869141" xlink:href="#DejaVuSans-57"/>
       <use x="254.492188" xlink:href="#DejaVuSans-45"/>
       <use x="290.576172" xlink:href="#DejaVuSans-48"/>
       <use x="354.199219" xlink:href="#DejaVuSans-52"/>
       <use x="417.822266" xlink:href="#DejaVuSans-45"/>
       <use x="453.90625" xlink:href="#DejaVuSans-48"/>
       <use x="517.529297" xlink:href="#DejaVuSans-50"/>
      </g>
     </g>
    </g>
    <g id="text_8">
     <!-- ds -->
     <defs>
      <path d="M 45.40625 46.390625 
L 45.40625 75.984375 
L 54.390625 75.984375 
L 54.390625 0 
L 45.40625 0 
L 45.40625 8.203125 
Q 42.578125 3.328125 38.25 0.953125 
Q 33.9375 -1.421875 27.875 -1.421875 
Q 17.96875 -1.421875 11.734375 6.484375 
Q 5.515625 14.40625 5.515625 27.296875 
Q 5.515625 40.1875 11.734375 48.09375 
Q 17.96875 56 27.875 56 
Q 33.9375 56 38.25 53.625 
Q 42.578125 51.265625 45.40625 46.390625 
z
M 14.796875 27.296875 
Q 14.796875 17.390625 18.875 11.75 
Q 22.953125 6.109375 30.078125 6.109375 
Q 37.203125 6.109375 41.296875 11.75 
Q 45.40625 17.390625 45.40625 27.296875 
Q 45.40625 37.203125 41.296875 42.84375 
Q 37.203125 48.484375 30.078125 48.484375 
Q 22.953125 48.484375 18.875 42.84375 
Q 14.796875 37.203125 14.796875 27.296875 
z
" id="DejaVuSans-100"/>
      <path d="M 44.28125 53.078125 
L 44.28125 44.578125 
Q 40.484375 46.53125 36.375 47.5 
Q 32.28125 48.484375 27.875 48.484375 
Q 21.1875 48.484375 17.84375 46.4375 
Q 14.5 44.390625 14.5 40.28125 
Q 14.5 37.15625 16.890625 35.375 
Q 19.28125 33.59375 26.515625 31.984375 
L 29.59375 31.296875 
Q 39.15625 29.25 43.1875 25.515625 
Q 47.21875 21.78125 47.21875 15.09375 
Q 47.21875 7.46875 41.1875 3.015625 
Q 35.15625 -1.421875 24.609375 -1.421875 
Q 20.21875 -1.421875 15.453125 -0.5625 
Q 10.6875 0.296875 5.421875 2 
L 5.421875 11.28125 
Q 10.40625 8.6875 15.234375 7.390625 
Q 20.0625 6.109375 24.8125 6.109375 
Q 31.15625 6.109375 34.5625 8.28125 
Q 37.984375 10.453125 37.984375 14.40625 
Q 37.984375 18.0625 35.515625 20.015625 
Q 33.0625 21.96875 24.703125 23.78125 
L 21.578125 24.515625 
Q 13.234375 26.265625 9.515625 29.90625 
Q 5.8125 33.546875 5.8125 39.890625 
Q 5.8125 47.609375 11.28125 51.796875 
Q 16.75 56 26.8125 56 
Q 31.78125 56 36.171875 55.265625 
Q 40.578125 54.546875 44.28125 53.078125 
z
" id="DejaVuSans-115"/>
     </defs>
     <g transform="translate(369.67473 418.316562)scale(0.1 -0.1)">
      <use xlink:href="#DejaVuSans-100"/>
      <use x="63.476562" xlink:href="#DejaVuSans-115"/>
     </g>
    </g>
   </g>
   <g id="matplotlib.axis_2">
    <g id="ytick_1">
     <g id="line2d_15">
      <path clip-path="url(#p01bf094e16)" d="M 51.05 353.922333 
L 699.857273 353.922333 
" style="fill:none;stroke:#808080;stroke-linecap:square;stroke-opacity:0.2;"/>
     </g>
     <g id="line2d_16">
      <defs>
       <path d="M 0 0 
L -3.5 0 
" id="m74985ec2aa" style="stroke:#000000;stroke-width:0.8;"/>
      </defs>
      <g>
       <use style="stroke:#000000;stroke-width:0.8;" x="51.05" xlink:href="#m74985ec2aa" y="353.922333"/>
      </g>
     </g>
     <g id="text_9">
      <!-- 120 -->
      <g transform="translate(24.9625 357.721551)scale(0.1 -0.1)">
       <use xlink:href="#DejaVuSans-49"/>
       <use x="63.623047" xlink:href="#DejaVuSans-50"/>
       <use x="127.246094" xlink:href="#DejaVuSans-48"/>
      </g>
     </g>
    </g>
    <g id="ytick_2">
     <g id="line2d_17">
      <path clip-path="url(#p01bf094e16)" d="M 51.05 308.7694 
L 699.857273 308.7694 
" style="fill:none;stroke:#808080;stroke-linecap:square;stroke-opacity:0.2;"/>
     </g>
     <g id="line2d_18">
      <g>
       <use style="stroke:#000000;stroke-width:0.8;" x="51.05" xlink:href="#m74985ec2aa" y="308.7694"/>
      </g>
     </g>
     <g id="text_10">
      <!-- 140 -->
      <g transform="translate(24.9625 312.568619)scale(0.1 -0.1)">
       <use xlink:href="#DejaVuSans-49"/>
       <use x="63.623047" xlink:href="#DejaVuSans-52"/>
       <use x="127.246094" xlink:href="#DejaVuSans-48"/>
      </g>
     </g>
    </g>
    <g id="ytick_3">
     <g id="line2d_19">
      <path clip-path="url(#p01bf094e16)" d="M 51.05 263.616468 
L 699.857273 263.616468 
" style="fill:none;stroke:#808080;stroke-linecap:square;stroke-opacity:0.2;"/>
     </g>
     <g id="line2d_20">
      <g>
       <use style="stroke:#000000;stroke-width:0.8;" x="51.05" xlink:href="#m74985ec2aa" y="263.616468"/>
      </g>
     </g>
     <g id="text_11">
      <!-- 160 -->
      <defs>
       <path d="M 33.015625 40.375 
Q 26.375 40.375 22.484375 35.828125 
Q 18.609375 31.296875 18.609375 23.390625 
Q 18.609375 15.53125 22.484375 10.953125 
Q 26.375 6.390625 33.015625 6.390625 
Q 39.65625 6.390625 43.53125 10.953125 
Q 47.40625 15.53125 47.40625 23.390625 
Q 47.40625 31.296875 43.53125 35.828125 
Q 39.65625 40.375 33.015625 40.375 
z
M 52.59375 71.296875 
L 52.59375 62.3125 
Q 48.875 64.0625 45.09375 64.984375 
Q 41.3125 65.921875 37.59375 65.921875 
Q 27.828125 65.921875 22.671875 59.328125 
Q 17.53125 52.734375 16.796875 39.40625 
Q 19.671875 43.65625 24.015625 45.921875 
Q 28.375 48.1875 33.59375 48.1875 
Q 44.578125 48.1875 50.953125 41.515625 
Q 57.328125 34.859375 57.328125 23.390625 
Q 57.328125 12.15625 50.6875 5.359375 
Q 44.046875 -1.421875 33.015625 -1.421875 
Q 20.359375 -1.421875 13.671875 8.265625 
Q 6.984375 17.96875 6.984375 36.375 
Q 6.984375 53.65625 15.1875 63.9375 
Q 23.390625 74.21875 37.203125 74.21875 
Q 40.921875 74.21875 44.703125 73.484375 
Q 48.484375 72.75 52.59375 71.296875 
z
" id="DejaVuSans-54"/>
      </defs>
      <g transform="translate(24.9625 267.415687)scale(0.1 -0.1)">
       <use xlink:href="#DejaVuSans-49"/>
       <use x="63.623047" xlink:href="#DejaVuSans-54"/>
       <use x="127.246094" xlink:href="#DejaVuSans-48"/>
      </g>
     </g>
    </g>
    <g id="ytick_4">
     <g id="line2d_21">
      <path clip-path="url(#p01bf094e16)" d="M 51.05 218.463536 
L 699.857273 218.463536 
" style="fill:none;stroke:#808080;stroke-linecap:square;stroke-opacity:0.2;"/>
     </g>
     <g id="line2d_22">
      <g>
       <use style="stroke:#000000;stroke-width:0.8;" x="51.05" xlink:href="#m74985ec2aa" y="218.463536"/>
      </g>
     </g>
     <g id="text_12">
      <!-- 180 -->
      <g transform="translate(24.9625 222.262754)scale(0.1 -0.1)">
       <use xlink:href="#DejaVuSans-49"/>
       <use x="63.623047" xlink:href="#DejaVuSans-56"/>
       <use x="127.246094" xlink:href="#DejaVuSans-48"/>
      </g>
     </g>
    </g>
    <g id="ytick_5">
     <g id="line2d_23">
      <path clip-path="url(#p01bf094e16)" d="M 51.05 173.310603 
L 699.857273 173.310603 
" style="fill:none;stroke:#808080;stroke-linecap:square;stroke-opacity:0.2;"/>
     </g>
     <g id="line2d_24">
      <g>
       <use style="stroke:#000000;stroke-width:0.8;" x="51.05" xlink:href="#m74985ec2aa" y="173.310603"/>
      </g>
     </g>
     <g id="text_13">
      <!-- 200 -->
      <g transform="translate(24.9625 177.109822)scale(0.1 -0.1)">
       <use xlink:href="#DejaVuSans-50"/>
       <use x="63.623047" xlink:href="#DejaVuSans-48"/>
       <use x="127.246094" xlink:href="#DejaVuSans-48"/>
      </g>
     </g>
    </g>
    <g id="ytick_6">
     <g id="line2d_25">
      <path clip-path="url(#p01bf094e16)" d="M 51.05 128.157671 
L 699.857273 128.157671 
" style="fill:none;stroke:#808080;stroke-linecap:square;stroke-opacity:0.2;"/>
     </g>
     <g id="line2d_26">
      <g>
       <use style="stroke:#000000;stroke-width:0.8;" x="51.05" xlink:href="#m74985ec2aa" y="128.157671"/>
      </g>
     </g>
     <g id="text_14">
      <!-- 220 -->
      <g transform="translate(24.9625 131.95689)scale(0.1 -0.1)">
       <use xlink:href="#DejaVuSans-50"/>
       <use x="63.623047" xlink:href="#DejaVuSans-50"/>
       <use x="127.246094" xlink:href="#DejaVuSans-48"/>
      </g>
     </g>
    </g>
    <g id="ytick_7">
     <g id="line2d_27">
      <path clip-path="url(#p01bf094e16)" d="M 51.05 83.004739 
L 699.857273 83.004739 
" style="fill:none;stroke:#808080;stroke-linecap:square;stroke-opacity:0.2;"/>
     </g>
     <g id="line2d_28">
      <g>
       <use style="stroke:#000000;stroke-width:0.8;" x="51.05" xlink:href="#m74985ec2aa" y="83.004739"/>
      </g>
     </g>
     <g id="text_15">
      <!-- 240 -->
      <g transform="translate(24.9625 86.803957)scale(0.1 -0.1)">
       <use xlink:href="#DejaVuSans-50"/>
       <use x="63.623047" xlink:href="#DejaVuSans-52"/>
       <use x="127.246094" xlink:href="#DejaVuSans-48"/>
      </g>
     </g>
    </g>
    <g id="ytick_8">
     <g id="line2d_29">
      <path clip-path="url(#p01bf094e16)" d="M 51.05 37.851806 
L 699.857273 37.851806 
" style="fill:none;stroke:#808080;stroke-linecap:square;stroke-opacity:0.2;"/>
     </g>
     <g id="line2d_30">
      <g>
       <use style="stroke:#000000;stroke-width:0.8;" x="51.05" xlink:href="#m74985ec2aa" y="37.851806"/>
      </g>
     </g>
     <g id="text_16">
      <!-- 260 -->
      <g transform="translate(24.9625 41.651025)scale(0.1 -0.1)">
       <use xlink:href="#DejaVuSans-50"/>
       <use x="63.623047" xlink:href="#DejaVuSans-54"/>
       <use x="127.246094" xlink:href="#DejaVuSans-48"/>
      </g>
     </g>
    </g>
    <g id="text_17">
     <!-- y -->
     <defs>
      <path d="M 32.171875 -5.078125 
Q 28.375 -14.84375 24.75 -17.8125 
Q 21.140625 -20.796875 15.09375 -20.796875 
L 7.90625 -20.796875 
L 7.90625 -13.28125 
L 13.1875 -13.28125 
Q 16.890625 -13.28125 18.9375 -11.515625 
Q 21 -9.765625 23.484375 -3.21875 
L 25.09375 0.875 
L 2.984375 54.6875 
L 12.5 54.6875 
L 29.59375 11.921875 
L 46.6875 54.6875 
L 56.203125 54.6875 
z
" id="DejaVuSans-121"/>
     </defs>
     <g transform="translate(18.882812 203.379375)rotate(-90)scale(0.1 -0.1)">
      <use xlink:href="#DejaVuSans-121"/>
     </g>
    </g>
   </g>
   <g id="line2d_31">
    <defs>
     <path d="M 0 1.5 
C 0.397805 1.5 0.77937 1.341951 1.06066 1.06066 
C 1.341951 0.77937 1.5 0.397805 1.5 0 
C 1.5 -0.397805 1.341951 -0.77937 1.06066 -1.06066 
C 0.77937 -1.341951 0.397805 -1.5 0 -1.5 
C -0.397805 -1.5 -0.77937 -1.341951 -1.06066 -1.06066 
C -1.341951 -0.77937 -1.5 -0.397805 -1.5 0 
C -1.5 0.397805 -1.341951 0.77937 -1.06066 1.06066 
C -0.77937 1.341951 -0.397805 1.5 0 1.5 
z
" id="m8f7c4a0793" style="stroke:#000000;"/>
    </defs>
    <g clip-path="url(#p01bf094e16)">
     <use style="stroke:#000000;" x="80.54124" xlink:href="#m8f7c4a0793" y="49.140039"/>
     <use style="stroke:#000000;" x="87.094848" xlink:href="#m8f7c4a0793" y="290.708227"/>
     <use style="stroke:#000000;" x="100.202066" xlink:href="#m8f7c4a0793" y="49.140039"/>
     <use style="stroke:#000000;" x="106.755675" xlink:href="#m8f7c4a0793" y="281.677641"/>
     <use style="stroke:#000000;" x="113.309284" xlink:href="#m8f7c4a0793" y="286.192934"/>
     <use style="stroke:#000000;" x="119.862893" xlink:href="#m8f7c4a0793" y="49.140039"/>
     <use style="stroke:#000000;" x="126.416501" xlink:href="#m8f7c4a0793" y="281.677641"/>
     <use style="stroke:#000000;" x="132.97011" xlink:href="#m8f7c4a0793" y="281.677641"/>
     <use style="stroke:#000000;" x="139.523719" xlink:href="#m8f7c4a0793" y="49.140039"/>
     <use style="stroke:#000000;" x="146.077328" xlink:href="#m8f7c4a0793" y="277.162348"/>
     <use style="stroke:#000000;" x="152.630937" xlink:href="#m8f7c4a0793" y="290.708227"/>
     <use style="stroke:#000000;" x="159.184545" xlink:href="#m8f7c4a0793" y="49.140039"/>
     <use style="stroke:#000000;" x="165.738154" xlink:href="#m8f7c4a0793" y="292.965874"/>
     <use style="stroke:#000000;" x="178.845372" xlink:href="#m8f7c4a0793" y="49.140039"/>
     <use style="stroke:#000000;" x="185.398981" xlink:href="#m8f7c4a0793" y="281.677641"/>
     <use style="stroke:#000000;" x="191.95259" xlink:href="#m8f7c4a0793" y="283.935288"/>
     <use style="stroke:#000000;" x="198.506198" xlink:href="#m8f7c4a0793" y="49.140039"/>
     <use style="stroke:#000000;" x="205.059807" xlink:href="#m8f7c4a0793" y="290.708227"/>
     <use style="stroke:#000000;" x="211.613416" xlink:href="#m8f7c4a0793" y="295.223521"/>
     <use style="stroke:#000000;" x="218.167025" xlink:href="#m8f7c4a0793" y="49.140039"/>
     <use style="stroke:#000000;" x="224.720634" xlink:href="#m8f7c4a0793" y="299.738814"/>
     <use style="stroke:#000000;" x="231.274242" xlink:href="#m8f7c4a0793" y="286.192934"/>
     <use style="stroke:#000000;" x="237.827851" xlink:href="#m8f7c4a0793" y="49.140039"/>
     <use style="stroke:#000000;" x="244.38146" xlink:href="#m8f7c4a0793" y="281.677641"/>
     <use style="stroke:#000000;" x="250.935069" xlink:href="#m8f7c4a0793" y="286.192934"/>
     <use style="stroke:#000000;" x="257.488678" xlink:href="#m8f7c4a0793" y="49.140039"/>
     <use style="stroke:#000000;" x="264.042287" xlink:href="#m8f7c4a0793" y="286.192934"/>
     <use style="stroke:#000000;" x="270.595895" xlink:href="#m8f7c4a0793" y="283.935288"/>
     <use style="stroke:#000000;" x="277.149504" xlink:href="#m8f7c4a0793" y="49.140039"/>
     <use style="stroke:#000000;" x="283.703113" xlink:href="#m8f7c4a0793" y="281.677641"/>
     <use style="stroke:#000000;" x="290.256722" xlink:href="#m8f7c4a0793" y="286.192934"/>
     <use style="stroke:#000000;" x="296.810331" xlink:href="#m8f7c4a0793" y="49.140039"/>
     <use style="stroke:#000000;" x="303.363939" xlink:href="#m8f7c4a0793" y="277.162348"/>
     <use style="stroke:#000000;" x="309.917548" xlink:href="#m8f7c4a0793" y="290.708227"/>
     <use style="stroke:#000000;" x="316.471157" xlink:href="#m8f7c4a0793" y="49.140039"/>
     <use style="stroke:#000000;" x="323.024766" xlink:href="#m8f7c4a0793" y="290.708227"/>
     <use style="stroke:#000000;" x="329.578375" xlink:href="#m8f7c4a0793" y="288.450581"/>
     <use style="stroke:#000000;" x="336.131983" xlink:href="#m8f7c4a0793" y="49.140039"/>
     <use style="stroke:#000000;" x="342.685592" xlink:href="#m8f7c4a0793" y="290.708227"/>
     <use style="stroke:#000000;" x="349.239201" xlink:href="#m8f7c4a0793" y="295.223521"/>
     <use style="stroke:#000000;" x="355.79281" xlink:href="#m8f7c4a0793" y="49.140039"/>
     <use style="stroke:#000000;" x="368.900028" xlink:href="#m8f7c4a0793" y="286.192934"/>
     <use style="stroke:#000000;" x="382.007245" xlink:href="#m8f7c4a0793" y="290.708227"/>
     <use style="stroke:#000000;" x="388.560854" xlink:href="#m8f7c4a0793" y="295.223521"/>
     <use style="stroke:#000000;" x="395.114463" xlink:href="#m8f7c4a0793" y="49.140039"/>
     <use style="stroke:#000000;" x="401.668072" xlink:href="#m8f7c4a0793" y="297.481167"/>
     <use style="stroke:#000000;" x="414.775289" xlink:href="#m8f7c4a0793" y="49.140039"/>
     <use style="stroke:#000000;" x="421.328898" xlink:href="#m8f7c4a0793" y="295.223521"/>
     <use style="stroke:#000000;" x="427.882507" xlink:href="#m8f7c4a0793" y="292.965874"/>
     <use style="stroke:#000000;" x="434.436116" xlink:href="#m8f7c4a0793" y="49.140039"/>
     <use style="stroke:#000000;" x="447.543333" xlink:href="#m8f7c4a0793" y="290.708227"/>
     <use style="stroke:#000000;" x="454.096942" xlink:href="#m8f7c4a0793" y="49.140039"/>
     <use style="stroke:#000000;" x="460.650551" xlink:href="#m8f7c4a0793" y="295.223521"/>
     <use style="stroke:#000000;" x="467.20416" xlink:href="#m8f7c4a0793" y="290.708227"/>
     <use style="stroke:#000000;" x="473.757769" xlink:href="#m8f7c4a0793" y="49.140039"/>
     <use style="stroke:#000000;" x="486.864986" xlink:href="#m8f7c4a0793" y="290.708227"/>
     <use style="stroke:#000000;" x="493.418595" xlink:href="#m8f7c4a0793" y="49.140039"/>
     <use style="stroke:#000000;" x="499.972204" xlink:href="#m8f7c4a0793" y="292.965874"/>
     <use style="stroke:#000000;" x="506.525813" xlink:href="#m8f7c4a0793" y="286.192934"/>
     <use style="stroke:#000000;" x="513.079421" xlink:href="#m8f7c4a0793" y="49.140039"/>
     <use style="stroke:#000000;" x="519.63303" xlink:href="#m8f7c4a0793" y="297.481167"/>
     <use style="stroke:#000000;" x="526.186639" xlink:href="#m8f7c4a0793" y="281.677641"/>
     <use style="stroke:#000000;" x="532.740248" xlink:href="#m8f7c4a0793" y="49.140039"/>
     <use style="stroke:#000000;" x="539.293857" xlink:href="#m8f7c4a0793" y="299.738814"/>
     <use style="stroke:#000000;" x="545.847466" xlink:href="#m8f7c4a0793" y="290.708227"/>
     <use style="stroke:#000000;" x="552.401074" xlink:href="#m8f7c4a0793" y="49.140039"/>
     <use style="stroke:#000000;" x="558.954683" xlink:href="#m8f7c4a0793" y="299.738814"/>
     <use style="stroke:#000000;" x="565.508292" xlink:href="#m8f7c4a0793" y="297.481167"/>
     <use style="stroke:#000000;" x="572.061901" xlink:href="#m8f7c4a0793" y="49.140039"/>
     <use style="stroke:#000000;" x="578.61551" xlink:href="#m8f7c4a0793" y="297.481167"/>
     <use style="stroke:#000000;" x="585.169118" xlink:href="#m8f7c4a0793" y="295.223521"/>
     <use style="stroke:#000000;" x="591.722727" xlink:href="#m8f7c4a0793" y="49.140039"/>
     <use style="stroke:#000000;" x="604.829945" xlink:href="#m8f7c4a0793" y="299.738814"/>
     <use style="stroke:#000000;" x="611.383554" xlink:href="#m8f7c4a0793" y="49.140039"/>
     <use style="stroke:#000000;" x="617.937163" xlink:href="#m8f7c4a0793" y="295.223521"/>
     <use style="stroke:#000000;" x="624.490771" xlink:href="#m8f7c4a0793" y="290.708227"/>
     <use style="stroke:#000000;" x="631.04438" xlink:href="#m8f7c4a0793" y="49.140039"/>
     <use style="stroke:#000000;" x="637.597989" xlink:href="#m8f7c4a0793" y="286.192934"/>
     <use style="stroke:#000000;" x="650.705207" xlink:href="#m8f7c4a0793" y="49.140039"/>
     <use style="stroke:#000000;" x="657.258815" xlink:href="#m8f7c4a0793" y="297.481167"/>
     <use style="stroke:#000000;" x="663.812424" xlink:href="#m8f7c4a0793" y="290.708227"/>
    </g>
   </g>
   <g id="line2d_32">
    <path clip-path="url(#p01bf094e16)" d="M 80.54124 184.424188 
L 87.094848 196.278209 
L 100.202066 203.576981 
L 106.755675 210.525896 
L 113.309284 203.739021 
L 119.862893 198.043777 
L 126.416501 185.405992 
L 132.97011 197.260012 
L 139.523719 187.889874 
L 146.077328 204.558784 
L 152.630937 211.507699 
L 159.184545 204.720824 
L 165.738154 199.02558 
L 178.845372 198.241816 
L 185.398981 188.871677 
L 191.95259 205.540588 
L 198.506198 212.489503 
L 205.059807 205.702628 
L 211.613416 200.007384 
L 218.167025 187.369599 
L 224.720634 199.223619 
L 231.274242 189.853481 
L 237.827851 206.522391 
L 244.38146 213.471306 
L 250.935069 206.684431 
L 257.488678 200.989187 
L 264.042287 188.351402 
L 270.595895 200.205423 
L 277.149504 190.835284 
L 283.703113 207.504195 
L 290.256722 214.45311 
L 296.810331 207.666235 
L 303.363939 201.970991 
L 309.917548 189.333206 
L 316.471157 201.187226 
L 323.024766 191.817088 
L 329.578375 208.485998 
L 336.131983 215.434913 
L 342.685592 208.648038 
L 349.239201 202.952794 
L 355.79281 190.315009 
L 368.900028 192.798891 
L 382.007245 216.416717 
L 388.560854 209.629842 
L 395.114463 203.934598 
L 401.668072 191.296813 
L 414.775289 193.780695 
L 421.328898 210.449605 
L 427.882507 217.39852 
L 434.436116 210.611645 
L 447.543333 192.278616 
L 454.096942 204.132637 
L 460.650551 194.762498 
L 467.20416 211.431409 
L 473.757769 218.380324 
L 486.864986 205.898205 
L 493.418595 193.26042 
L 499.972204 205.11444 
L 506.525813 195.744302 
L 513.079421 212.413212 
L 519.63303 219.362127 
L 526.186639 212.575252 
L 532.740248 206.880008 
L 539.293857 194.242223 
L 545.847466 206.096244 
L 552.401074 196.726105 
L 558.954683 213.395016 
L 565.508292 220.343931 
L 572.061901 213.557056 
L 578.61551 207.861812 
L 585.169118 195.224027 
L 591.722727 207.078047 
L 604.829945 214.376819 
L 611.383554 221.325734 
L 617.937163 214.538859 
L 624.490771 208.843615 
L 631.04438 196.20583 
L 637.597989 208.059851 
L 650.705207 215.358623 
L 657.258815 222.307538 
L 663.812424 215.520663 
L 670.366033 209.825419 
" style="fill:none;stroke:#0072b2;stroke-linecap:square;stroke-width:1.5;"/>
   </g>
   <g id="patch_3">
    <path d="M 51.05 390.04 
L 51.05 10.8 
" style="fill:none;stroke:#000000;stroke-linecap:square;stroke-linejoin:miter;stroke-width:0.8;"/>
   </g>
   <g id="patch_4">
    <path d="M 699.857273 390.04 
L 699.857273 10.8 
" style="fill:none;stroke:#000000;stroke-linecap:square;stroke-linejoin:miter;stroke-width:0.8;"/>
   </g>
   <g id="patch_5">
    <path d="M 51.05 390.04 
L 699.857273 390.04 
" style="fill:none;stroke:#000000;stroke-linecap:square;stroke-linejoin:miter;stroke-width:0.8;"/>
   </g>
   <g id="patch_6">
    <path d="M 51.05 10.8 
L 699.857273 10.8 
" style="fill:none;stroke:#000000;stroke-linecap:square;stroke-linejoin:miter;stroke-width:0.8;"/>
   </g>
  </g>
 </g>
 <defs>
  <clipPath id="p01bf094e16">
   <rect height="379.24" width="648.807273" x="51.05" y="10.8"/>
  </clipPath>
 </defs>
</svg>
