<?xml version="1.0" encoding="utf-8" standalone="no"?>
<!DOCTYPE svg PUBLIC "-//W3C//DTD SVG 1.1//EN"
  "http://www.w3.org/Graphics/SVG/1.1/DTD/svg11.dtd">
<!-- Created with matplotlib (https://matplotlib.org/) -->
<svg height="432pt" version="1.1" viewBox="0 0 720 432" width="720pt" xmlns="http://www.w3.org/2000/svg" xmlns:xlink="http://www.w3.org/1999/xlink">
 <defs>
  <style type="text/css">
*{stroke-linecap:butt;stroke-linejoin:round;}
  </style>
 </defs>
 <g id="figure_1">
  <g id="patch_1">
   <path d="M 0 432 
L 720 432 
L 720 0 
L 0 0 
z
" style="fill:#ffffff;"/>
  </g>
  <g id="axes_1">
   <g id="patch_2">
    <path d="M 51.05 390.04 
L 699.857273 390.04 
L 699.857273 14.734373 
L 51.05 14.734373 
z
" style="fill:#ffffff;"/>
   </g>
   <g id="PolyCollection_1">
    <defs>
     <path d="M 80.54124 -391.708613 
L 80.54124 -109.171406 
L 87.094848 -93.160073 
L 100.202066 -81.110115 
L 106.755675 -71.522362 
L 113.309284 -77.970091 
L 119.862893 -86.24577 
L 126.416501 -100.107678 
L 132.97011 -87.480877 
L 139.523719 -95.395669 
L 146.077328 -81.826808 
L 152.630937 -72.980345 
L 159.184545 -76.725095 
L 165.738154 -91.724337 
L 178.845372 -91.391648 
L 185.398981 -97.176745 
L 191.95259 -85.763952 
L 198.506198 -75.883114 
L 205.059807 -70.886902 
L 211.613416 -88.327231 
L 218.167025 -101.426258 
L 224.720634 -79.011332 
L 231.274242 -100.943089 
L 237.827851 -74.572475 
L 244.38146 -80.677139 
L 250.935069 -80.392037 
L 257.488678 -85.409494 
L 264.042287 -103.087679 
L 270.595895 -80.426008 
L 277.149504 -100.138815 
L 283.703113 -70.873483 
L 290.256722 -75.567602 
L 296.810331 -79.211864 
L 303.363939 -77.79922 
L 309.917548 -101.315258 
L 316.471157 -96.625167 
L 323.024766 -87.045946 
L 329.578375 -87.880894 
L 336.131983 -75.795873 
L 342.685592 -83.101799 
L 349.239201 -81.240128 
L 355.79281 -86.941665 
L 368.900028 -84.130403 
L 382.007245 -60.634649 
L 388.560854 -72.665689 
L 395.114463 -84.507459 
L 401.668072 -92.201662 
L 414.775289 -95.102306 
L 421.328898 -81.174712 
L 427.882507 -83.403641 
L 434.436116 -83.09062 
L 447.543333 -93.185284 
L 454.096942 -79.298425 
L 460.650551 -95.379362 
L 467.20416 -70.805125 
L 473.757769 -69.013134 
L 486.864986 -85.617925 
L 493.418595 -85.463282 
L 499.972204 -82.958494 
L 506.525813 -92.030628 
L 513.079421 -76.165168 
L 519.63303 -59.019347 
L 526.186639 -81.004382 
L 532.740248 -86.886482 
L 539.293857 -88.742759 
L 545.847466 -87.469931 
L 552.401074 -89.272398 
L 558.954683 -81.599048 
L 565.508292 -69.39216 
L 572.061901 -82.518002 
L 578.61551 -85.880632 
L 585.169118 -95.955978 
L 591.722727 -79.855922 
L 604.829945 -70.608003 
L 611.383554 -84.075194 
L 617.937163 -66.670406 
L 624.490771 -82.84205 
L 631.04438 -98.227225 
L 637.597989 -80.439146 
L 650.705207 -77.886704 
L 657.258815 -60.76118 
L 663.812424 -65.477696 
L 670.366033 -79.208594 
L 670.366033 -370.863044 
L 670.366033 -370.863044 
L 663.812424 -354.979428 
L 657.258815 -347.888096 
L 650.705207 -354.534017 
L 637.597989 -375.645039 
L 631.04438 -390.797854 
L 624.490771 -364.705437 
L 617.937163 -357.782514 
L 611.383554 -357.683092 
L 604.829945 -352.57477 
L 591.722727 -360.956149 
L 585.169118 -372.233235 
L 578.61551 -355.430034 
L 572.061901 -366.822269 
L 565.508292 -344.908593 
L 558.954683 -364.006789 
L 552.401074 -379.05907 
L 545.847466 -365.318511 
L 539.293857 -380.660688 
L 532.740248 -367.243879 
L 526.186639 -352.336864 
L 519.63303 -350.515947 
L 513.079421 -357.40061 
L 506.525813 -370.970745 
L 499.972204 -361.613897 
L 493.418595 -369.879772 
L 486.864986 -365.919981 
L 473.757769 -355.060856 
L 467.20416 -370.36055 
L 460.650551 -360.61203 
L 454.096942 -371.064258 
L 447.543333 -393.556204 
L 434.436116 -363.48295 
L 427.882507 -356.799121 
L 421.328898 -360.049414 
L 414.775289 -377.225353 
L 401.668072 -383.668202 
L 395.114463 -354.889332 
L 388.560854 -358.660708 
L 382.007245 -342.358681 
L 368.900028 -371.141917 
L 355.79281 -388.518764 
L 349.239201 -367.127086 
L 342.685592 -367.423358 
L 336.131983 -368.289861 
L 329.578375 -355.08758 
L 323.024766 -379.433731 
L 316.471157 -374.231971 
L 309.917548 -386.911551 
L 303.363939 -369.489959 
L 296.810331 -361.023418 
L 290.256722 -358.972462 
L 283.703113 -366.68041 
L 277.149504 -373.051056 
L 270.595895 -385.766512 
L 264.042287 -400.20628 
L 257.488678 -357.986615 
L 250.935069 -360.718572 
L 244.38146 -364.800839 
L 237.827851 -361.900267 
L 231.274242 -382.415223 
L 224.720634 -387.113964 
L 218.167025 -397.110076 
L 211.613416 -368.688549 
L 205.059807 -363.984095 
L 198.506198 -352.914839 
L 191.95259 -372.30499 
L 185.398981 -376.425906 
L 178.845372 -374.088609 
L 165.738154 -376.143222 
L 159.184545 -365.848787 
L 152.630937 -366.038226 
L 146.077328 -367.018753 
L 139.523719 -392.338339 
L 132.97011 -376.906232 
L 126.416501 -385.091246 
L 119.862893 -386.111314 
L 113.309284 -357.438418 
L 106.755675 -361.918321 
L 100.202066 -369.087067 
L 87.094848 -371.146585 
L 80.54124 -391.708613 
z
" id="madd9724197" style="stroke:#0072b2;stroke-opacity:0.2;"/>
    </defs>
    <g clip-path="url(#p7fe5bb58e2)">
     <use style="fill:#0072b2;fill-opacity:0.2;stroke:#0072b2;stroke-opacity:0.2;" x="0" xlink:href="#madd9724197" y="432"/>
    </g>
   </g>
   <g id="matplotlib.axis_1">
    <g id="xtick_1">
     <g id="line2d_1">
      <path clip-path="url(#p7fe5bb58e2)" d="M 126.416501 390.04 
L 126.416501 14.734373 
" style="fill:none;stroke:#808080;stroke-linecap:square;stroke-opacity:0.2;"/>
     </g>
     <g id="line2d_2">
      <defs>
       <path d="M 0 0 
L 0 3.5 
" id="mcf974885f2" style="stroke:#000000;stroke-width:0.8;"/>
      </defs>
      <g>
       <use style="stroke:#000000;stroke-width:0.8;" x="126.416501" xlink:href="#mcf974885f2" y="390.04"/>
      </g>
     </g>
     <g id="text_1">
      <!-- 2019-01-08 -->
      <defs>
       <path d="M 19.1875 8.296875 
L 53.609375 8.296875 
L 53.609375 0 
L 7.328125 0 
L 7.328125 8.296875 
Q 12.9375 14.109375 22.625 23.890625 
Q 32.328125 33.6875 34.8125 36.53125 
Q 39.546875 41.84375 41.421875 45.53125 
Q 43.3125 49.21875 43.3125 52.78125 
Q 43.3125 58.59375 39.234375 62.25 
Q 35.15625 65.921875 28.609375 65.921875 
Q 23.96875 65.921875 18.8125 64.3125 
Q 13.671875 62.703125 7.8125 59.421875 
L 7.8125 69.390625 
Q 13.765625 71.78125 18.9375 73 
Q 24.125 74.21875 28.421875 74.21875 
Q 39.75 74.21875 46.484375 68.546875 
Q 53.21875 62.890625 53.21875 53.421875 
Q 53.21875 48.921875 51.53125 44.890625 
Q 49.859375 40.875 45.40625 35.40625 
Q 44.1875 33.984375 37.640625 27.21875 
Q 31.109375 20.453125 19.1875 8.296875 
z
" id="DejaVuSans-50"/>
       <path d="M 31.78125 66.40625 
Q 24.171875 66.40625 20.328125 58.90625 
Q 16.5 51.421875 16.5 36.375 
Q 16.5 21.390625 20.328125 13.890625 
Q 24.171875 6.390625 31.78125 6.390625 
Q 39.453125 6.390625 43.28125 13.890625 
Q 47.125 21.390625 47.125 36.375 
Q 47.125 51.421875 43.28125 58.90625 
Q 39.453125 66.40625 31.78125 66.40625 
z
M 31.78125 74.21875 
Q 44.046875 74.21875 50.515625 64.515625 
Q 56.984375 54.828125 56.984375 36.375 
Q 56.984375 17.96875 50.515625 8.265625 
Q 44.046875 -1.421875 31.78125 -1.421875 
Q 19.53125 -1.421875 13.0625 8.265625 
Q 6.59375 17.96875 6.59375 36.375 
Q 6.59375 54.828125 13.0625 64.515625 
Q 19.53125 74.21875 31.78125 74.21875 
z
" id="DejaVuSans-48"/>
       <path d="M 12.40625 8.296875 
L 28.515625 8.296875 
L 28.515625 63.921875 
L 10.984375 60.40625 
L 10.984375 69.390625 
L 28.421875 72.90625 
L 38.28125 72.90625 
L 38.28125 8.296875 
L 54.390625 8.296875 
L 54.390625 0 
L 12.40625 0 
z
" id="DejaVuSans-49"/>
       <path d="M 10.984375 1.515625 
L 10.984375 10.5 
Q 14.703125 8.734375 18.5 7.8125 
Q 22.3125 6.890625 25.984375 6.890625 
Q 35.75 6.890625 40.890625 13.453125 
Q 46.046875 20.015625 46.78125 33.40625 
Q 43.953125 29.203125 39.59375 26.953125 
Q 35.25 24.703125 29.984375 24.703125 
Q 19.046875 24.703125 12.671875 31.3125 
Q 6.296875 37.9375 6.296875 49.421875 
Q 6.296875 60.640625 12.9375 67.421875 
Q 19.578125 74.21875 30.609375 74.21875 
Q 43.265625 74.21875 49.921875 64.515625 
Q 56.59375 54.828125 56.59375 36.375 
Q 56.59375 19.140625 48.40625 8.859375 
Q 40.234375 -1.421875 26.421875 -1.421875 
Q 22.703125 -1.421875 18.890625 -0.6875 
Q 15.09375 0.046875 10.984375 1.515625 
z
M 30.609375 32.421875 
Q 37.25 32.421875 41.125 36.953125 
Q 45.015625 41.5 45.015625 49.421875 
Q 45.015625 57.28125 41.125 61.84375 
Q 37.25 66.40625 30.609375 66.40625 
Q 23.96875 66.40625 20.09375 61.84375 
Q 16.21875 57.28125 16.21875 49.421875 
Q 16.21875 41.5 20.09375 36.953125 
Q 23.96875 32.421875 30.609375 32.421875 
z
" id="DejaVuSans-57"/>
       <path d="M 4.890625 31.390625 
L 31.203125 31.390625 
L 31.203125 23.390625 
L 4.890625 23.390625 
z
" id="DejaVuSans-45"/>
       <path d="M 31.78125 34.625 
Q 24.75 34.625 20.71875 30.859375 
Q 16.703125 27.09375 16.703125 20.515625 
Q 16.703125 13.921875 20.71875 10.15625 
Q 24.75 6.390625 31.78125 6.390625 
Q 38.8125 6.390625 42.859375 10.171875 
Q 46.921875 13.96875 46.921875 20.515625 
Q 46.921875 27.09375 42.890625 30.859375 
Q 38.875 34.625 31.78125 34.625 
z
M 21.921875 38.8125 
Q 15.578125 40.375 12.03125 44.71875 
Q 8.5 49.078125 8.5 55.328125 
Q 8.5 64.0625 14.71875 69.140625 
Q 20.953125 74.21875 31.78125 74.21875 
Q 42.671875 74.21875 48.875 69.140625 
Q 55.078125 64.0625 55.078125 55.328125 
Q 55.078125 49.078125 51.53125 44.71875 
Q 48 40.375 41.703125 38.8125 
Q 48.828125 37.15625 52.796875 32.3125 
Q 56.78125 27.484375 56.78125 20.515625 
Q 56.78125 9.90625 50.3125 4.234375 
Q 43.84375 -1.421875 31.78125 -1.421875 
Q 19.734375 -1.421875 13.25 4.234375 
Q 6.78125 9.90625 6.78125 20.515625 
Q 6.78125 27.484375 10.78125 32.3125 
Q 14.796875 37.15625 21.921875 38.8125 
z
M 18.3125 54.390625 
Q 18.3125 48.734375 21.84375 45.5625 
Q 25.390625 42.390625 31.78125 42.390625 
Q 38.140625 42.390625 41.71875 45.5625 
Q 45.3125 48.734375 45.3125 54.390625 
Q 45.3125 60.0625 41.71875 63.234375 
Q 38.140625 66.40625 31.78125 66.40625 
Q 25.390625 66.40625 21.84375 63.234375 
Q 18.3125 60.0625 18.3125 54.390625 
z
" id="DejaVuSans-56"/>
      </defs>
      <g transform="translate(97.358689 404.638438)scale(0.1 -0.1)">
       <use xlink:href="#DejaVuSans-50"/>
       <use x="63.623047" xlink:href="#DejaVuSans-48"/>
       <use x="127.246094" xlink:href="#DejaVuSans-49"/>
       <use x="190.869141" xlink:href="#DejaVuSans-57"/>
       <use x="254.492188" xlink:href="#DejaVuSans-45"/>
       <use x="290.576172" xlink:href="#DejaVuSans-48"/>
       <use x="354.199219" xlink:href="#DejaVuSans-49"/>
       <use x="417.822266" xlink:href="#DejaVuSans-45"/>
       <use x="453.90625" xlink:href="#DejaVuSans-48"/>
       <use x="517.529297" xlink:href="#DejaVuSans-56"/>
      </g>
     </g>
    </g>
    <g id="xtick_2">
     <g id="line2d_3">
      <path clip-path="url(#p7fe5bb58e2)" d="M 218.167025 390.04 
L 218.167025 14.734373 
" style="fill:none;stroke:#808080;stroke-linecap:square;stroke-opacity:0.2;"/>
     </g>
     <g id="line2d_4">
      <g>
       <use style="stroke:#000000;stroke-width:0.8;" x="218.167025" xlink:href="#mcf974885f2" y="390.04"/>
      </g>
     </g>
     <g id="text_2">
      <!-- 2019-01-22 -->
      <g transform="translate(189.109212 404.638438)scale(0.1 -0.1)">
       <use xlink:href="#DejaVuSans-50"/>
       <use x="63.623047" xlink:href="#DejaVuSans-48"/>
       <use x="127.246094" xlink:href="#DejaVuSans-49"/>
       <use x="190.869141" xlink:href="#DejaVuSans-57"/>
       <use x="254.492188" xlink:href="#DejaVuSans-45"/>
       <use x="290.576172" xlink:href="#DejaVuSans-48"/>
       <use x="354.199219" xlink:href="#DejaVuSans-49"/>
       <use x="417.822266" xlink:href="#DejaVuSans-45"/>
       <use x="453.90625" xlink:href="#DejaVuSans-50"/>
       <use x="517.529297" xlink:href="#DejaVuSans-50"/>
      </g>
     </g>
    </g>
    <g id="xtick_3">
     <g id="line2d_5">
      <path clip-path="url(#p7fe5bb58e2)" d="M 309.917548 390.04 
L 309.917548 14.734373 
" style="fill:none;stroke:#808080;stroke-linecap:square;stroke-opacity:0.2;"/>
     </g>
     <g id="line2d_6">
      <g>
       <use style="stroke:#000000;stroke-width:0.8;" x="309.917548" xlink:href="#mcf974885f2" y="390.04"/>
      </g>
     </g>
     <g id="text_3">
      <!-- 2019-02-05 -->
      <defs>
       <path d="M 10.796875 72.90625 
L 49.515625 72.90625 
L 49.515625 64.59375 
L 19.828125 64.59375 
L 19.828125 46.734375 
Q 21.96875 47.46875 24.109375 47.828125 
Q 26.265625 48.1875 28.421875 48.1875 
Q 40.625 48.1875 47.75 41.5 
Q 54.890625 34.8125 54.890625 23.390625 
Q 54.890625 11.625 47.5625 5.09375 
Q 40.234375 -1.421875 26.90625 -1.421875 
Q 22.3125 -1.421875 17.546875 -0.640625 
Q 12.796875 0.140625 7.71875 1.703125 
L 7.71875 11.625 
Q 12.109375 9.234375 16.796875 8.0625 
Q 21.484375 6.890625 26.703125 6.890625 
Q 35.15625 6.890625 40.078125 11.328125 
Q 45.015625 15.765625 45.015625 23.390625 
Q 45.015625 31 40.078125 35.4375 
Q 35.15625 39.890625 26.703125 39.890625 
Q 22.75 39.890625 18.8125 39.015625 
Q 14.890625 38.140625 10.796875 36.28125 
z
" id="DejaVuSans-53"/>
      </defs>
      <g transform="translate(280.859736 404.638438)scale(0.1 -0.1)">
       <use xlink:href="#DejaVuSans-50"/>
       <use x="63.623047" xlink:href="#DejaVuSans-48"/>
       <use x="127.246094" xlink:href="#DejaVuSans-49"/>
       <use x="190.869141" xlink:href="#DejaVuSans-57"/>
       <use x="254.492188" xlink:href="#DejaVuSans-45"/>
       <use x="290.576172" xlink:href="#DejaVuSans-48"/>
       <use x="354.199219" xlink:href="#DejaVuSans-50"/>
       <use x="417.822266" xlink:href="#DejaVuSans-45"/>
       <use x="453.90625" xlink:href="#DejaVuSans-48"/>
       <use x="517.529297" xlink:href="#DejaVuSans-53"/>
      </g>
     </g>
    </g>
    <g id="xtick_4">
     <g id="line2d_7">
      <path clip-path="url(#p7fe5bb58e2)" d="M 401.668072 390.04 
L 401.668072 14.734373 
" style="fill:none;stroke:#808080;stroke-linecap:square;stroke-opacity:0.2;"/>
     </g>
     <g id="line2d_8">
      <g>
       <use style="stroke:#000000;stroke-width:0.8;" x="401.668072" xlink:href="#mcf974885f2" y="390.04"/>
      </g>
     </g>
     <g id="text_4">
      <!-- 2019-02-19 -->
      <g transform="translate(372.610259 404.638438)scale(0.1 -0.1)">
       <use xlink:href="#DejaVuSans-50"/>
       <use x="63.623047" xlink:href="#DejaVuSans-48"/>
       <use x="127.246094" xlink:href="#DejaVuSans-49"/>
       <use x="190.869141" xlink:href="#DejaVuSans-57"/>
       <use x="254.492188" xlink:href="#DejaVuSans-45"/>
       <use x="290.576172" xlink:href="#DejaVuSans-48"/>
       <use x="354.199219" xlink:href="#DejaVuSans-50"/>
       <use x="417.822266" xlink:href="#DejaVuSans-45"/>
       <use x="453.90625" xlink:href="#DejaVuSans-49"/>
       <use x="517.529297" xlink:href="#DejaVuSans-57"/>
      </g>
     </g>
    </g>
    <g id="xtick_5">
     <g id="line2d_9">
      <path clip-path="url(#p7fe5bb58e2)" d="M 493.418595 390.04 
L 493.418595 14.734373 
" style="fill:none;stroke:#808080;stroke-linecap:square;stroke-opacity:0.2;"/>
     </g>
     <g id="line2d_10">
      <g>
       <use style="stroke:#000000;stroke-width:0.8;" x="493.418595" xlink:href="#mcf974885f2" y="390.04"/>
      </g>
     </g>
     <g id="text_5">
      <!-- 2019-03-05 -->
      <defs>
       <path d="M 40.578125 39.3125 
Q 47.65625 37.796875 51.625 33 
Q 55.609375 28.21875 55.609375 21.1875 
Q 55.609375 10.40625 48.1875 4.484375 
Q 40.765625 -1.421875 27.09375 -1.421875 
Q 22.515625 -1.421875 17.65625 -0.515625 
Q 12.796875 0.390625 7.625 2.203125 
L 7.625 11.71875 
Q 11.71875 9.328125 16.59375 8.109375 
Q 21.484375 6.890625 26.8125 6.890625 
Q 36.078125 6.890625 40.9375 10.546875 
Q 45.796875 14.203125 45.796875 21.1875 
Q 45.796875 27.640625 41.28125 31.265625 
Q 36.765625 34.90625 28.71875 34.90625 
L 20.21875 34.90625 
L 20.21875 43.015625 
L 29.109375 43.015625 
Q 36.375 43.015625 40.234375 45.921875 
Q 44.09375 48.828125 44.09375 54.296875 
Q 44.09375 59.90625 40.109375 62.90625 
Q 36.140625 65.921875 28.71875 65.921875 
Q 24.65625 65.921875 20.015625 65.03125 
Q 15.375 64.15625 9.8125 62.3125 
L 9.8125 71.09375 
Q 15.4375 72.65625 20.34375 73.4375 
Q 25.25 74.21875 29.59375 74.21875 
Q 40.828125 74.21875 47.359375 69.109375 
Q 53.90625 64.015625 53.90625 55.328125 
Q 53.90625 49.265625 50.4375 45.09375 
Q 46.96875 40.921875 40.578125 39.3125 
z
" id="DejaVuSans-51"/>
      </defs>
      <g transform="translate(464.360783 404.638438)scale(0.1 -0.1)">
       <use xlink:href="#DejaVuSans-50"/>
       <use x="63.623047" xlink:href="#DejaVuSans-48"/>
       <use x="127.246094" xlink:href="#DejaVuSans-49"/>
       <use x="190.869141" xlink:href="#DejaVuSans-57"/>
       <use x="254.492188" xlink:href="#DejaVuSans-45"/>
       <use x="290.576172" xlink:href="#DejaVuSans-48"/>
       <use x="354.199219" xlink:href="#DejaVuSans-51"/>
       <use x="417.822266" xlink:href="#DejaVuSans-45"/>
       <use x="453.90625" xlink:href="#DejaVuSans-48"/>
       <use x="517.529297" xlink:href="#DejaVuSans-53"/>
      </g>
     </g>
    </g>
    <g id="xtick_6">
     <g id="line2d_11">
      <path clip-path="url(#p7fe5bb58e2)" d="M 585.169118 390.04 
L 585.169118 14.734373 
" style="fill:none;stroke:#808080;stroke-linecap:square;stroke-opacity:0.2;"/>
     </g>
     <g id="line2d_12">
      <g>
       <use style="stroke:#000000;stroke-width:0.8;" x="585.169118" xlink:href="#mcf974885f2" y="390.04"/>
      </g>
     </g>
     <g id="text_6">
      <!-- 2019-03-19 -->
      <g transform="translate(556.111306 404.638438)scale(0.1 -0.1)">
       <use xlink:href="#DejaVuSans-50"/>
       <use x="63.623047" xlink:href="#DejaVuSans-48"/>
       <use x="127.246094" xlink:href="#DejaVuSans-49"/>
       <use x="190.869141" xlink:href="#DejaVuSans-57"/>
       <use x="254.492188" xlink:href="#DejaVuSans-45"/>
       <use x="290.576172" xlink:href="#DejaVuSans-48"/>
       <use x="354.199219" xlink:href="#DejaVuSans-51"/>
       <use x="417.822266" xlink:href="#DejaVuSans-45"/>
       <use x="453.90625" xlink:href="#DejaVuSans-49"/>
       <use x="517.529297" xlink:href="#DejaVuSans-57"/>
      </g>
     </g>
    </g>
    <g id="xtick_7">
     <g id="line2d_13">
      <path clip-path="url(#p7fe5bb58e2)" d="M 676.919642 390.04 
L 676.919642 14.734373 
" style="fill:none;stroke:#808080;stroke-linecap:square;stroke-opacity:0.2;"/>
     </g>
     <g id="line2d_14">
      <g>
       <use style="stroke:#000000;stroke-width:0.8;" x="676.919642" xlink:href="#mcf974885f2" y="390.04"/>
      </g>
     </g>
     <g id="text_7">
      <!-- 2019-04-02 -->
      <defs>
       <path d="M 37.796875 64.3125 
L 12.890625 25.390625 
L 37.796875 25.390625 
z
M 35.203125 72.90625 
L 47.609375 72.90625 
L 47.609375 25.390625 
L 58.015625 25.390625 
L 58.015625 17.1875 
L 47.609375 17.1875 
L 47.609375 0 
L 37.796875 0 
L 37.796875 17.1875 
L 4.890625 17.1875 
L 4.890625 26.703125 
z
" id="DejaVuSans-52"/>
      </defs>
      <g transform="translate(647.861829 404.638438)scale(0.1 -0.1)">
       <use xlink:href="#DejaVuSans-50"/>
       <use x="63.623047" xlink:href="#DejaVuSans-48"/>
       <use x="127.246094" xlink:href="#DejaVuSans-49"/>
       <use x="190.869141" xlink:href="#DejaVuSans-57"/>
       <use x="254.492188" xlink:href="#DejaVuSans-45"/>
       <use x="290.576172" xlink:href="#DejaVuSans-48"/>
       <use x="354.199219" xlink:href="#DejaVuSans-52"/>
       <use x="417.822266" xlink:href="#DejaVuSans-45"/>
       <use x="453.90625" xlink:href="#DejaVuSans-48"/>
       <use x="517.529297" xlink:href="#DejaVuSans-50"/>
      </g>
     </g>
    </g>
    <g id="text_8">
     <!-- ds -->
     <defs>
      <path d="M 45.40625 46.390625 
L 45.40625 75.984375 
L 54.390625 75.984375 
L 54.390625 0 
L 45.40625 0 
L 45.40625 8.203125 
Q 42.578125 3.328125 38.25 0.953125 
Q 33.9375 -1.421875 27.875 -1.421875 
Q 17.96875 -1.421875 11.734375 6.484375 
Q 5.515625 14.40625 5.515625 27.296875 
Q 5.515625 40.1875 11.734375 48.09375 
Q 17.96875 56 27.875 56 
Q 33.9375 56 38.25 53.625 
Q 42.578125 51.265625 45.40625 46.390625 
z
M 14.796875 27.296875 
Q 14.796875 17.390625 18.875 11.75 
Q 22.953125 6.109375 30.078125 6.109375 
Q 37.203125 6.109375 41.296875 11.75 
Q 45.40625 17.390625 45.40625 27.296875 
Q 45.40625 37.203125 41.296875 42.84375 
Q 37.203125 48.484375 30.078125 48.484375 
Q 22.953125 48.484375 18.875 42.84375 
Q 14.796875 37.203125 14.796875 27.296875 
z
" id="DejaVuSans-100"/>
      <path d="M 44.28125 53.078125 
L 44.28125 44.578125 
Q 40.484375 46.53125 36.375 47.5 
Q 32.28125 48.484375 27.875 48.484375 
Q 21.1875 48.484375 17.84375 46.4375 
Q 14.5 44.390625 14.5 40.28125 
Q 14.5 37.15625 16.890625 35.375 
Q 19.28125 33.59375 26.515625 31.984375 
L 29.59375 31.296875 
Q 39.15625 29.25 43.1875 25.515625 
Q 47.21875 21.78125 47.21875 15.09375 
Q 47.21875 7.46875 41.1875 3.015625 
Q 35.15625 -1.421875 24.609375 -1.421875 
Q 20.21875 -1.421875 15.453125 -0.5625 
Q 10.6875 0.296875 5.421875 2 
L 5.421875 11.28125 
Q 10.40625 8.6875 15.234375 7.390625 
Q 20.0625 6.109375 24.8125 6.109375 
Q 31.15625 6.109375 34.5625 8.28125 
Q 37.984375 10.453125 37.984375 14.40625 
Q 37.984375 18.0625 35.515625 20.015625 
Q 33.0625 21.96875 24.703125 23.78125 
L 21.578125 24.515625 
Q 13.234375 26.265625 9.515625 29.90625 
Q 5.8125 33.546875 5.8125 39.890625 
Q 5.8125 47.609375 11.28125 51.796875 
Q 16.75 56 26.8125 56 
Q 31.78125 56 36.171875 55.265625 
Q 40.578125 54.546875 44.28125 53.078125 
z
" id="DejaVuSans-115"/>
     </defs>
     <g transform="translate(369.67473 418.316562)scale(0.1 -0.1)">
      <use xlink:href="#DejaVuSans-100"/>
      <use x="63.476562" xlink:href="#DejaVuSans-115"/>
     </g>
    </g>
   </g>
   <g id="matplotlib.axis_2">
    <g id="ytick_1">
     <g id="line2d_15">
      <path clip-path="url(#p7fe5bb58e2)" d="M 51.05 375.069141 
L 699.857273 375.069141 
" style="fill:none;stroke:#808080;stroke-linecap:square;stroke-opacity:0.2;"/>
     </g>
     <g id="line2d_16">
      <defs>
       <path d="M 0 0 
L -3.5 0 
" id="m3f572cf135" style="stroke:#000000;stroke-width:0.8;"/>
      </defs>
      <g>
       <use style="stroke:#000000;stroke-width:0.8;" x="51.05" xlink:href="#m3f572cf135" y="375.069141"/>
      </g>
     </g>
     <g id="text_9">
      <!-- 100 -->
      <g transform="translate(24.9625 378.868359)scale(0.1 -0.1)">
       <use xlink:href="#DejaVuSans-49"/>
       <use x="63.623047" xlink:href="#DejaVuSans-48"/>
       <use x="127.246094" xlink:href="#DejaVuSans-48"/>
      </g>
     </g>
    </g>
    <g id="ytick_2">
     <g id="line2d_17">
      <path clip-path="url(#p7fe5bb58e2)" d="M 51.05 323.596876 
L 699.857273 323.596876 
" style="fill:none;stroke:#808080;stroke-linecap:square;stroke-opacity:0.2;"/>
     </g>
     <g id="line2d_18">
      <g>
       <use style="stroke:#000000;stroke-width:0.8;" x="51.05" xlink:href="#m3f572cf135" y="323.596876"/>
      </g>
     </g>
     <g id="text_10">
      <!-- 125 -->
      <g transform="translate(24.9625 327.396095)scale(0.1 -0.1)">
       <use xlink:href="#DejaVuSans-49"/>
       <use x="63.623047" xlink:href="#DejaVuSans-50"/>
       <use x="127.246094" xlink:href="#DejaVuSans-53"/>
      </g>
     </g>
    </g>
    <g id="ytick_3">
     <g id="line2d_19">
      <path clip-path="url(#p7fe5bb58e2)" d="M 51.05 272.124611 
L 699.857273 272.124611 
" style="fill:none;stroke:#808080;stroke-linecap:square;stroke-opacity:0.2;"/>
     </g>
     <g id="line2d_20">
      <g>
       <use style="stroke:#000000;stroke-width:0.8;" x="51.05" xlink:href="#m3f572cf135" y="272.124611"/>
      </g>
     </g>
     <g id="text_11">
      <!-- 150 -->
      <g transform="translate(24.9625 275.92383)scale(0.1 -0.1)">
       <use xlink:href="#DejaVuSans-49"/>
       <use x="63.623047" xlink:href="#DejaVuSans-53"/>
       <use x="127.246094" xlink:href="#DejaVuSans-48"/>
      </g>
     </g>
    </g>
    <g id="ytick_4">
     <g id="line2d_21">
      <path clip-path="url(#p7fe5bb58e2)" d="M 51.05 220.652346 
L 699.857273 220.652346 
" style="fill:none;stroke:#808080;stroke-linecap:square;stroke-opacity:0.2;"/>
     </g>
     <g id="line2d_22">
      <g>
       <use style="stroke:#000000;stroke-width:0.8;" x="51.05" xlink:href="#m3f572cf135" y="220.652346"/>
      </g>
     </g>
     <g id="text_12">
      <!-- 175 -->
      <defs>
       <path d="M 8.203125 72.90625 
L 55.078125 72.90625 
L 55.078125 68.703125 
L 28.609375 0 
L 18.3125 0 
L 43.21875 64.59375 
L 8.203125 64.59375 
z
" id="DejaVuSans-55"/>
      </defs>
      <g transform="translate(24.9625 224.451565)scale(0.1 -0.1)">
       <use xlink:href="#DejaVuSans-49"/>
       <use x="63.623047" xlink:href="#DejaVuSans-55"/>
       <use x="127.246094" xlink:href="#DejaVuSans-53"/>
      </g>
     </g>
    </g>
    <g id="ytick_5">
     <g id="line2d_23">
      <path clip-path="url(#p7fe5bb58e2)" d="M 51.05 169.180081 
L 699.857273 169.180081 
" style="fill:none;stroke:#808080;stroke-linecap:square;stroke-opacity:0.2;"/>
     </g>
     <g id="line2d_24">
      <g>
       <use style="stroke:#000000;stroke-width:0.8;" x="51.05" xlink:href="#m3f572cf135" y="169.180081"/>
      </g>
     </g>
     <g id="text_13">
      <!-- 200 -->
      <g transform="translate(24.9625 172.9793)scale(0.1 -0.1)">
       <use xlink:href="#DejaVuSans-50"/>
       <use x="63.623047" xlink:href="#DejaVuSans-48"/>
       <use x="127.246094" xlink:href="#DejaVuSans-48"/>
      </g>
     </g>
    </g>
    <g id="ytick_6">
     <g id="line2d_25">
      <path clip-path="url(#p7fe5bb58e2)" d="M 51.05 117.707817 
L 699.857273 117.707817 
" style="fill:none;stroke:#808080;stroke-linecap:square;stroke-opacity:0.2;"/>
     </g>
     <g id="line2d_26">
      <g>
       <use style="stroke:#000000;stroke-width:0.8;" x="51.05" xlink:href="#m3f572cf135" y="117.707817"/>
      </g>
     </g>
     <g id="text_14">
      <!-- 225 -->
      <g transform="translate(24.9625 121.507035)scale(0.1 -0.1)">
       <use xlink:href="#DejaVuSans-50"/>
       <use x="63.623047" xlink:href="#DejaVuSans-50"/>
       <use x="127.246094" xlink:href="#DejaVuSans-53"/>
      </g>
     </g>
    </g>
    <g id="ytick_7">
     <g id="line2d_27">
      <path clip-path="url(#p7fe5bb58e2)" d="M 51.05 66.235552 
L 699.857273 66.235552 
" style="fill:none;stroke:#808080;stroke-linecap:square;stroke-opacity:0.2;"/>
     </g>
     <g id="line2d_28">
      <g>
       <use style="stroke:#000000;stroke-width:0.8;" x="51.05" xlink:href="#m3f572cf135" y="66.235552"/>
      </g>
     </g>
     <g id="text_15">
      <!-- 250 -->
      <g transform="translate(24.9625 70.034771)scale(0.1 -0.1)">
       <use xlink:href="#DejaVuSans-50"/>
       <use x="63.623047" xlink:href="#DejaVuSans-53"/>
       <use x="127.246094" xlink:href="#DejaVuSans-48"/>
      </g>
     </g>
    </g>
    <g id="ytick_8">
     <g id="line2d_29">
      <path clip-path="url(#p7fe5bb58e2)" d="M 51.05 14.763287 
L 699.857273 14.763287 
" style="fill:none;stroke:#808080;stroke-linecap:square;stroke-opacity:0.2;"/>
     </g>
     <g id="line2d_30">
      <g>
       <use style="stroke:#000000;stroke-width:0.8;" x="51.05" xlink:href="#m3f572cf135" y="14.763287"/>
      </g>
     </g>
     <g id="text_16">
      <!-- 275 -->
      <g transform="translate(24.9625 18.562506)scale(0.1 -0.1)">
       <use xlink:href="#DejaVuSans-50"/>
       <use x="63.623047" xlink:href="#DejaVuSans-55"/>
       <use x="127.246094" xlink:href="#DejaVuSans-53"/>
      </g>
     </g>
    </g>
    <g id="text_17">
     <!-- y -->
     <defs>
      <path d="M 32.171875 -5.078125 
Q 28.375 -14.84375 24.75 -17.8125 
Q 21.140625 -20.796875 15.09375 -20.796875 
L 7.90625 -20.796875 
L 7.90625 -13.28125 
L 13.1875 -13.28125 
Q 16.890625 -13.28125 18.9375 -11.515625 
Q 21 -9.765625 23.484375 -3.21875 
L 25.09375 0.875 
L 2.984375 54.6875 
L 12.5 54.6875 
L 29.59375 11.921875 
L 46.6875 54.6875 
L 56.203125 54.6875 
z
" id="DejaVuSans-121"/>
     </defs>
     <g transform="translate(18.882812 205.346562)rotate(-90)scale(0.1 -0.1)">
      <use xlink:href="#DejaVuSans-121"/>
     </g>
    </g>
   </g>
   <g id="line2d_31">
    <defs>
     <path d="M 0 1.5 
C 0.397805 1.5 0.77937 1.341951 1.06066 1.06066 
C 1.341951 0.77937 1.5 0.397805 1.5 0 
C 1.5 -0.397805 1.341951 -0.77937 1.06066 -1.06066 
C 0.77937 -1.341951 0.397805 -1.5 0 -1.5 
C -0.397805 -1.5 -0.77937 -1.341951 -1.06066 -1.06066 
C -1.341951 -0.77937 -1.5 -0.397805 -1.5 0 
C -1.5 0.397805 -1.341951 0.77937 -1.06066 1.06066 
C -0.77937 1.341951 -0.397805 1.5 0 1.5 
z
" id="mcc33c677e5" style="stroke:#000000;"/>
    </defs>
    <g clip-path="url(#p7fe5bb58e2)">
     <use style="stroke:#000000;" x="80.54124" xlink:href="#mcc33c677e5" y="55.941099"/>
     <use style="stroke:#000000;" x="87.094848" xlink:href="#mcc33c677e5" y="292.713517"/>
     <use style="stroke:#000000;" x="100.202066" xlink:href="#mcc33c677e5" y="55.941099"/>
     <use style="stroke:#000000;" x="106.755675" xlink:href="#mcc33c677e5" y="284.477955"/>
     <use style="stroke:#000000;" x="113.309284" xlink:href="#mcc33c677e5" y="288.595736"/>
     <use style="stroke:#000000;" x="119.862893" xlink:href="#mcc33c677e5" y="55.941099"/>
     <use style="stroke:#000000;" x="126.416501" xlink:href="#mcc33c677e5" y="284.477955"/>
     <use style="stroke:#000000;" x="132.97011" xlink:href="#mcc33c677e5" y="284.477955"/>
     <use style="stroke:#000000;" x="139.523719" xlink:href="#mcc33c677e5" y="55.941099"/>
     <use style="stroke:#000000;" x="146.077328" xlink:href="#mcc33c677e5" y="288.595736"/>
     <use style="stroke:#000000;" x="152.630937" xlink:href="#mcc33c677e5" y="290.654626"/>
     <use style="stroke:#000000;" x="159.184545" xlink:href="#mcc33c677e5" y="55.941099"/>
     <use style="stroke:#000000;" x="165.738154" xlink:href="#mcc33c677e5" y="284.477955"/>
     <use style="stroke:#000000;" x="178.845372" xlink:href="#mcc33c677e5" y="55.941099"/>
     <use style="stroke:#000000;" x="185.398981" xlink:href="#mcc33c677e5" y="280.360173"/>
     <use style="stroke:#000000;" x="191.95259" xlink:href="#mcc33c677e5" y="284.477955"/>
     <use style="stroke:#000000;" x="198.506198" xlink:href="#mcc33c677e5" y="55.941099"/>
     <use style="stroke:#000000;" x="205.059807" xlink:href="#mcc33c677e5" y="280.360173"/>
     <use style="stroke:#000000;" x="211.613416" xlink:href="#mcc33c677e5" y="294.772408"/>
     <use style="stroke:#000000;" x="218.167025" xlink:href="#mcc33c677e5" y="55.941099"/>
     <use style="stroke:#000000;" x="224.720634" xlink:href="#mcc33c677e5" y="288.595736"/>
     <use style="stroke:#000000;" x="231.274242" xlink:href="#mcc33c677e5" y="288.595736"/>
     <use style="stroke:#000000;" x="237.827851" xlink:href="#mcc33c677e5" y="55.941099"/>
     <use style="stroke:#000000;" x="244.38146" xlink:href="#mcc33c677e5" y="288.595736"/>
     <use style="stroke:#000000;" x="250.935069" xlink:href="#mcc33c677e5" y="288.595736"/>
     <use style="stroke:#000000;" x="257.488678" xlink:href="#mcc33c677e5" y="55.941099"/>
     <use style="stroke:#000000;" x="264.042287" xlink:href="#mcc33c677e5" y="288.595736"/>
     <use style="stroke:#000000;" x="270.595895" xlink:href="#mcc33c677e5" y="286.536845"/>
     <use style="stroke:#000000;" x="277.149504" xlink:href="#mcc33c677e5" y="55.941099"/>
     <use style="stroke:#000000;" x="283.703113" xlink:href="#mcc33c677e5" y="292.713517"/>
     <use style="stroke:#000000;" x="290.256722" xlink:href="#mcc33c677e5" y="288.595736"/>
     <use style="stroke:#000000;" x="296.810331" xlink:href="#mcc33c677e5" y="55.941099"/>
     <use style="stroke:#000000;" x="303.363939" xlink:href="#mcc33c677e5" y="284.477955"/>
     <use style="stroke:#000000;" x="309.917548" xlink:href="#mcc33c677e5" y="300.949079"/>
     <use style="stroke:#000000;" x="316.471157" xlink:href="#mcc33c677e5" y="55.941099"/>
     <use style="stroke:#000000;" x="323.024766" xlink:href="#mcc33c677e5" y="290.654626"/>
     <use style="stroke:#000000;" x="329.578375" xlink:href="#mcc33c677e5" y="294.772408"/>
     <use style="stroke:#000000;" x="336.131983" xlink:href="#mcc33c677e5" y="55.941099"/>
     <use style="stroke:#000000;" x="342.685592" xlink:href="#mcc33c677e5" y="286.536845"/>
     <use style="stroke:#000000;" x="349.239201" xlink:href="#mcc33c677e5" y="292.713517"/>
     <use style="stroke:#000000;" x="355.79281" xlink:href="#mcc33c677e5" y="55.941099"/>
     <use style="stroke:#000000;" x="368.900028" xlink:href="#mcc33c677e5" y="292.713517"/>
     <use style="stroke:#000000;" x="382.007245" xlink:href="#mcc33c677e5" y="292.713517"/>
     <use style="stroke:#000000;" x="388.560854" xlink:href="#mcc33c677e5" y="300.949079"/>
     <use style="stroke:#000000;" x="395.114463" xlink:href="#mcc33c677e5" y="55.941099"/>
     <use style="stroke:#000000;" x="401.668072" xlink:href="#mcc33c677e5" y="288.595736"/>
     <use style="stroke:#000000;" x="414.775289" xlink:href="#mcc33c677e5" y="55.941099"/>
     <use style="stroke:#000000;" x="421.328898" xlink:href="#mcc33c677e5" y="288.595736"/>
     <use style="stroke:#000000;" x="427.882507" xlink:href="#mcc33c677e5" y="282.419064"/>
     <use style="stroke:#000000;" x="434.436116" xlink:href="#mcc33c677e5" y="55.941099"/>
     <use style="stroke:#000000;" x="447.543333" xlink:href="#mcc33c677e5" y="280.360173"/>
     <use style="stroke:#000000;" x="454.096942" xlink:href="#mcc33c677e5" y="55.941099"/>
     <use style="stroke:#000000;" x="460.650551" xlink:href="#mcc33c677e5" y="288.595736"/>
     <use style="stroke:#000000;" x="467.20416" xlink:href="#mcc33c677e5" y="288.595736"/>
     <use style="stroke:#000000;" x="473.757769" xlink:href="#mcc33c677e5" y="55.941099"/>
     <use style="stroke:#000000;" x="486.864986" xlink:href="#mcc33c677e5" y="290.654626"/>
     <use style="stroke:#000000;" x="493.418595" xlink:href="#mcc33c677e5" y="55.941099"/>
     <use style="stroke:#000000;" x="499.972204" xlink:href="#mcc33c677e5" y="288.595736"/>
     <use style="stroke:#000000;" x="506.525813" xlink:href="#mcc33c677e5" y="288.595736"/>
     <use style="stroke:#000000;" x="513.079421" xlink:href="#mcc33c677e5" y="55.941099"/>
     <use style="stroke:#000000;" x="519.63303" xlink:href="#mcc33c677e5" y="305.066861"/>
     <use style="stroke:#000000;" x="526.186639" xlink:href="#mcc33c677e5" y="292.713517"/>
     <use style="stroke:#000000;" x="532.740248" xlink:href="#mcc33c677e5" y="55.941099"/>
     <use style="stroke:#000000;" x="539.293857" xlink:href="#mcc33c677e5" y="290.654626"/>
     <use style="stroke:#000000;" x="545.847466" xlink:href="#mcc33c677e5" y="292.713517"/>
     <use style="stroke:#000000;" x="552.401074" xlink:href="#mcc33c677e5" y="55.941099"/>
     <use style="stroke:#000000;" x="558.954683" xlink:href="#mcc33c677e5" y="288.595736"/>
     <use style="stroke:#000000;" x="565.508292" xlink:href="#mcc33c677e5" y="292.713517"/>
     <use style="stroke:#000000;" x="572.061901" xlink:href="#mcc33c677e5" y="55.941099"/>
     <use style="stroke:#000000;" x="578.61551" xlink:href="#mcc33c677e5" y="288.595736"/>
     <use style="stroke:#000000;" x="585.169118" xlink:href="#mcc33c677e5" y="288.595736"/>
     <use style="stroke:#000000;" x="591.722727" xlink:href="#mcc33c677e5" y="55.941099"/>
     <use style="stroke:#000000;" x="604.829945" xlink:href="#mcc33c677e5" y="288.595736"/>
     <use style="stroke:#000000;" x="611.383554" xlink:href="#mcc33c677e5" y="55.941099"/>
     <use style="stroke:#000000;" x="617.937163" xlink:href="#mcc33c677e5" y="305.066861"/>
     <use style="stroke:#000000;" x="624.490771" xlink:href="#mcc33c677e5" y="288.595736"/>
     <use style="stroke:#000000;" x="631.04438" xlink:href="#mcc33c677e5" y="55.941099"/>
     <use style="stroke:#000000;" x="637.597989" xlink:href="#mcc33c677e5" y="288.595736"/>
     <use style="stroke:#000000;" x="650.705207" xlink:href="#mcc33c677e5" y="55.941099"/>
     <use style="stroke:#000000;" x="657.258815" xlink:href="#mcc33c677e5" y="290.654626"/>
     <use style="stroke:#000000;" x="663.812424" xlink:href="#mcc33c677e5" y="290.654626"/>
    </g>
   </g>
   <g id="line2d_32">
    <path clip-path="url(#p7fe5bb58e2)" d="M 80.54124 187.507291 
L 87.094848 200.159816 
L 100.202066 207.474627 
L 106.755675 214.352049 
L 113.309284 209.132624 
L 119.862893 200.719211 
L 126.416501 188.19216 
L 132.97011 200.844686 
L 139.523719 192.270825 
L 146.077328 208.159496 
L 152.630937 215.036918 
L 159.184545 209.817493 
L 165.738154 201.40408 
L 178.845372 201.529555 
L 185.398981 192.955694 
L 191.95259 208.844365 
L 198.506198 215.721787 
L 205.059807 210.502363 
L 211.613416 202.08895 
L 218.167025 189.561899 
L 224.720634 202.214424 
L 231.274242 193.640564 
L 237.827851 209.529235 
L 244.38146 216.406656 
L 250.935069 211.187232 
L 257.488678 202.773819 
L 264.042287 190.246768 
L 270.595895 202.899294 
L 277.149504 194.325433 
L 283.703113 210.214104 
L 290.256722 217.091526 
L 296.810331 211.872101 
L 303.363939 203.458688 
L 309.917548 190.931637 
L 316.471157 203.584163 
L 323.024766 195.010302 
L 329.578375 210.898973 
L 336.131983 217.776395 
L 342.685592 212.55697 
L 349.239201 204.143557 
L 355.79281 191.616507 
L 368.900028 195.695171 
L 382.007245 218.461264 
L 388.560854 213.24184 
L 395.114463 204.828427 
L 401.668072 192.301376 
L 414.775289 196.380041 
L 421.328898 212.268712 
L 427.882507 219.146133 
L 434.436116 213.926709 
L 447.543333 192.986245 
L 454.096942 205.638771 
L 460.650551 197.06491 
L 467.20416 212.953581 
L 473.757769 219.831003 
L 486.864986 206.198165 
L 493.418595 193.671114 
L 499.972204 206.32364 
L 506.525813 197.749779 
L 513.079421 213.63845 
L 519.63303 220.515872 
L 526.186639 215.296448 
L 532.740248 206.883035 
L 539.293857 194.355984 
L 545.847466 207.008509 
L 552.401074 198.434648 
L 558.954683 214.323319 
L 565.508292 221.200741 
L 572.061901 215.981317 
L 578.61551 207.567904 
L 585.169118 195.040853 
L 591.722727 207.693378 
L 604.829945 215.008189 
L 611.383554 221.88561 
L 617.937163 216.666186 
L 624.490771 208.252773 
L 631.04438 195.725722 
L 637.597989 208.378248 
L 650.705207 215.693058 
L 657.258815 222.57048 
L 663.812424 217.351055 
L 670.366033 208.937642 
" style="fill:none;stroke:#0072b2;stroke-linecap:square;stroke-width:1.5;"/>
   </g>
   <g id="patch_3">
    <path d="M 51.05 390.04 
L 51.05 14.734373 
" style="fill:none;stroke:#000000;stroke-linecap:square;stroke-linejoin:miter;stroke-width:0.8;"/>
   </g>
   <g id="patch_4">
    <path d="M 699.857273 390.04 
L 699.857273 14.734373 
" style="fill:none;stroke:#000000;stroke-linecap:square;stroke-linejoin:miter;stroke-width:0.8;"/>
   </g>
   <g id="patch_5">
    <path d="M 51.05 390.04 
L 699.857273 390.04 
" style="fill:none;stroke:#000000;stroke-linecap:square;stroke-linejoin:miter;stroke-width:0.8;"/>
   </g>
   <g id="patch_6">
    <path d="M 51.05 14.734373 
L 699.857273 14.734373 
" style="fill:none;stroke:#000000;stroke-linecap:square;stroke-linejoin:miter;stroke-width:0.8;"/>
   </g>
  </g>
 </g>
 <defs>
  <clipPath id="p7fe5bb58e2">
   <rect height="375.305627" width="648.807273" x="51.05" y="14.734373"/>
  </clipPath>
 </defs>
</svg>
