<?xml version="1.0" encoding="utf-8" standalone="no"?>
<!DOCTYPE svg PUBLIC "-//W3C//DTD SVG 1.1//EN"
  "http://www.w3.org/Graphics/SVG/1.1/DTD/svg11.dtd">
<!-- Created with matplotlib (https://matplotlib.org/) -->
<svg height="432pt" version="1.1" viewBox="0 0 720 432" width="720pt" xmlns="http://www.w3.org/2000/svg" xmlns:xlink="http://www.w3.org/1999/xlink">
 <defs>
  <style type="text/css">
*{stroke-linecap:butt;stroke-linejoin:round;}
  </style>
 </defs>
 <g id="figure_1">
  <g id="patch_1">
   <path d="M 0 432 
L 720 432 
L 720 0 
L 0 0 
z
" style="fill:#ffffff;"/>
  </g>
  <g id="axes_1">
   <g id="patch_2">
    <path d="M 51.05 390.04 
L 699.857273 390.04 
L 699.857273 10.8 
L 51.05 10.8 
z
" style="fill:#ffffff;"/>
   </g>
   <g id="PolyCollection_1">
    <defs>
     <path d="M 80.54124 -385.80454 
L 80.54124 -106.306132 
L 87.094848 -82.826394 
L 100.202066 -83.07659 
L 106.755675 -84.989137 
L 113.309284 -78.294231 
L 119.862893 -73.258931 
L 126.416501 -104.037952 
L 132.97011 -97.426445 
L 139.523719 -106.382989 
L 146.077328 -94.590047 
L 152.630937 -78.806665 
L 159.184545 -86.079788 
L 165.738154 -91.073421 
L 178.845372 -104.245133 
L 185.398981 -93.376299 
L 191.95259 -95.228505 
L 198.506198 -76.141571 
L 205.059807 -80.636896 
L 211.613416 -93.257221 
L 218.167025 -111.521608 
L 224.720634 -91.790195 
L 231.274242 -89.105061 
L 237.827851 -77.0123 
L 244.38146 -64.538552 
L 250.935069 -87.610903 
L 257.488678 -93.469205 
L 264.042287 -103.58366 
L 270.595895 -98.971819 
L 277.149504 -108.475446 
L 283.703113 -88.529954 
L 290.256722 -78.930103 
L 296.810331 -84.565527 
L 303.363939 -93.633181 
L 309.917548 -114.611587 
L 316.471157 -92.240133 
L 323.024766 -90.505001 
L 329.578375 -81.555581 
L 336.131983 -74.832938 
L 342.685592 -73.470175 
L 349.239201 -80.439586 
L 355.79281 -103.497495 
L 368.900028 -101.578295 
L 382.007245 -82.125704 
L 388.560854 -82.373394 
L 395.114463 -96.148726 
L 401.668072 -103.602623 
L 414.775289 -98.060241 
L 421.328898 -75.674214 
L 427.882507 -75.951621 
L 434.436116 -78.794225 
L 447.543333 -108.34079 
L 454.096942 -91.604787 
L 460.650551 -104.239758 
L 467.20416 -76.258403 
L 473.757769 -70.979997 
L 486.864986 -91.746575 
L 493.418595 -108.027278 
L 499.972204 -89.092457 
L 506.525813 -108.811671 
L 513.079421 -88.359084 
L 519.63303 -76.086164 
L 526.186639 -85.607902 
L 532.740248 -98.929813 
L 539.293857 -112.664025 
L 545.847466 -79.237509 
L 552.401074 -98.365688 
L 558.954683 -83.024547 
L 565.508292 -69.866459 
L 572.061901 -59.198182 
L 578.61551 -83.955324 
L 585.169118 -101.853394 
L 591.722727 -90.109697 
L 604.829945 -80.918927 
L 611.383554 -73.094364 
L 617.937163 -84.309499 
L 624.490771 -86.787124 
L 631.04438 -100.242998 
L 637.597989 -87.823776 
L 650.705207 -74.655099 
L 657.258815 -79.786671 
L 663.812424 -78.589714 
L 670.366033 -89.863624 
L 670.366033 -378.817711 
L 670.366033 -378.817711 
L 663.812424 -364.554072 
L 657.258815 -365.737124 
L 650.705207 -364.086558 
L 637.597989 -374.398482 
L 631.04438 -385.49319 
L 624.490771 -373.865765 
L 617.937163 -368.395874 
L 611.383554 -355.202311 
L 604.829945 -365.200959 
L 591.722727 -381.798235 
L 585.169118 -379.477484 
L 578.61551 -375.829607 
L 572.061901 -363.618128 
L 565.508292 -349.326658 
L 558.954683 -363.341522 
L 552.401074 -385.042227 
L 545.847466 -385.807589 
L 539.293857 -387.870287 
L 532.740248 -366.560765 
L 526.186639 -370.222677 
L 519.63303 -359.785908 
L 513.079421 -370.620895 
L 506.525813 -396.688149 
L 499.972204 -388.108436 
L 493.418595 -393.763313 
L 486.864986 -378.688464 
L 473.757769 -361.91468 
L 467.20416 -361.409747 
L 460.650551 -394.269415 
L 454.096942 -374.940841 
L 447.543333 -403.92654 
L 434.436116 -357.460602 
L 427.882507 -357.647187 
L 421.328898 -369.231751 
L 414.775289 -377.883416 
L 401.668072 -378.571807 
L 395.114463 -372.580471 
L 388.560854 -367.764869 
L 382.007245 -364.405043 
L 368.900028 -393.302206 
L 355.79281 -394.267708 
L 349.239201 -376.961174 
L 342.685592 -370.243093 
L 336.131983 -360.110575 
L 329.578375 -365.728083 
L 323.024766 -381.055552 
L 316.471157 -378.75057 
L 309.917548 -383.866452 
L 303.363939 -376.071381 
L 296.810331 -365.1888 
L 290.256722 -363.855591 
L 283.703113 -377.969958 
L 277.149504 -403.961818 
L 270.595895 -379.334101 
L 264.042287 -386.107904 
L 257.488678 -373.751135 
L 250.935069 -371.404873 
L 244.38146 -374.795136 
L 237.827851 -372.796033 
L 231.274242 -384.864521 
L 224.720634 -368.508282 
L 218.167025 -389.343881 
L 211.613416 -373.683016 
L 205.059807 -371.296031 
L 198.506198 -365.283394 
L 191.95259 -379.952389 
L 185.398981 -395.06732 
L 178.845372 -381.983031 
L 165.738154 -390.360044 
L 159.184545 -368.487998 
L 152.630937 -364.083097 
L 146.077328 -363.314198 
L 139.523719 -390.603982 
L 132.97011 -381.635257 
L 126.416501 -400.71655 
L 119.862893 -377.429378 
L 113.309284 -370.795965 
L 106.755675 -356.226477 
L 100.202066 -369.870058 
L 87.094848 -374.474705 
L 80.54124 -385.80454 
z
" id="mf76d94a95c" style="stroke:#0072b2;stroke-opacity:0.2;"/>
    </defs>
    <g clip-path="url(#pc6424c10d0)">
     <use style="fill:#0072b2;fill-opacity:0.2;stroke:#0072b2;stroke-opacity:0.2;" x="0" xlink:href="#mf76d94a95c" y="432"/>
    </g>
   </g>
   <g id="matplotlib.axis_1">
    <g id="xtick_1">
     <g id="line2d_1">
      <path clip-path="url(#pc6424c10d0)" d="M 126.416501 390.04 
L 126.416501 10.8 
" style="fill:none;stroke:#808080;stroke-linecap:square;stroke-opacity:0.2;"/>
     </g>
     <g id="line2d_2">
      <defs>
       <path d="M 0 0 
L 0 3.5 
" id="mff36411621" style="stroke:#000000;stroke-width:0.8;"/>
      </defs>
      <g>
       <use style="stroke:#000000;stroke-width:0.8;" x="126.416501" xlink:href="#mff36411621" y="390.04"/>
      </g>
     </g>
     <g id="text_1">
      <!-- 2019-01-08 -->
      <defs>
       <path d="M 19.1875 8.296875 
L 53.609375 8.296875 
L 53.609375 0 
L 7.328125 0 
L 7.328125 8.296875 
Q 12.9375 14.109375 22.625 23.890625 
Q 32.328125 33.6875 34.8125 36.53125 
Q 39.546875 41.84375 41.421875 45.53125 
Q 43.3125 49.21875 43.3125 52.78125 
Q 43.3125 58.59375 39.234375 62.25 
Q 35.15625 65.921875 28.609375 65.921875 
Q 23.96875 65.921875 18.8125 64.3125 
Q 13.671875 62.703125 7.8125 59.421875 
L 7.8125 69.390625 
Q 13.765625 71.78125 18.9375 73 
Q 24.125 74.21875 28.421875 74.21875 
Q 39.75 74.21875 46.484375 68.546875 
Q 53.21875 62.890625 53.21875 53.421875 
Q 53.21875 48.921875 51.53125 44.890625 
Q 49.859375 40.875 45.40625 35.40625 
Q 44.1875 33.984375 37.640625 27.21875 
Q 31.109375 20.453125 19.1875 8.296875 
z
" id="DejaVuSans-50"/>
       <path d="M 31.78125 66.40625 
Q 24.171875 66.40625 20.328125 58.90625 
Q 16.5 51.421875 16.5 36.375 
Q 16.5 21.390625 20.328125 13.890625 
Q 24.171875 6.390625 31.78125 6.390625 
Q 39.453125 6.390625 43.28125 13.890625 
Q 47.125 21.390625 47.125 36.375 
Q 47.125 51.421875 43.28125 58.90625 
Q 39.453125 66.40625 31.78125 66.40625 
z
M 31.78125 74.21875 
Q 44.046875 74.21875 50.515625 64.515625 
Q 56.984375 54.828125 56.984375 36.375 
Q 56.984375 17.96875 50.515625 8.265625 
Q 44.046875 -1.421875 31.78125 -1.421875 
Q 19.53125 -1.421875 13.0625 8.265625 
Q 6.59375 17.96875 6.59375 36.375 
Q 6.59375 54.828125 13.0625 64.515625 
Q 19.53125 74.21875 31.78125 74.21875 
z
" id="DejaVuSans-48"/>
       <path d="M 12.40625 8.296875 
L 28.515625 8.296875 
L 28.515625 63.921875 
L 10.984375 60.40625 
L 10.984375 69.390625 
L 28.421875 72.90625 
L 38.28125 72.90625 
L 38.28125 8.296875 
L 54.390625 8.296875 
L 54.390625 0 
L 12.40625 0 
z
" id="DejaVuSans-49"/>
       <path d="M 10.984375 1.515625 
L 10.984375 10.5 
Q 14.703125 8.734375 18.5 7.8125 
Q 22.3125 6.890625 25.984375 6.890625 
Q 35.75 6.890625 40.890625 13.453125 
Q 46.046875 20.015625 46.78125 33.40625 
Q 43.953125 29.203125 39.59375 26.953125 
Q 35.25 24.703125 29.984375 24.703125 
Q 19.046875 24.703125 12.671875 31.3125 
Q 6.296875 37.9375 6.296875 49.421875 
Q 6.296875 60.640625 12.9375 67.421875 
Q 19.578125 74.21875 30.609375 74.21875 
Q 43.265625 74.21875 49.921875 64.515625 
Q 56.59375 54.828125 56.59375 36.375 
Q 56.59375 19.140625 48.40625 8.859375 
Q 40.234375 -1.421875 26.421875 -1.421875 
Q 22.703125 -1.421875 18.890625 -0.6875 
Q 15.09375 0.046875 10.984375 1.515625 
z
M 30.609375 32.421875 
Q 37.25 32.421875 41.125 36.953125 
Q 45.015625 41.5 45.015625 49.421875 
Q 45.015625 57.28125 41.125 61.84375 
Q 37.25 66.40625 30.609375 66.40625 
Q 23.96875 66.40625 20.09375 61.84375 
Q 16.21875 57.28125 16.21875 49.421875 
Q 16.21875 41.5 20.09375 36.953125 
Q 23.96875 32.421875 30.609375 32.421875 
z
" id="DejaVuSans-57"/>
       <path d="M 4.890625 31.390625 
L 31.203125 31.390625 
L 31.203125 23.390625 
L 4.890625 23.390625 
z
" id="DejaVuSans-45"/>
       <path d="M 31.78125 34.625 
Q 24.75 34.625 20.71875 30.859375 
Q 16.703125 27.09375 16.703125 20.515625 
Q 16.703125 13.921875 20.71875 10.15625 
Q 24.75 6.390625 31.78125 6.390625 
Q 38.8125 6.390625 42.859375 10.171875 
Q 46.921875 13.96875 46.921875 20.515625 
Q 46.921875 27.09375 42.890625 30.859375 
Q 38.875 34.625 31.78125 34.625 
z
M 21.921875 38.8125 
Q 15.578125 40.375 12.03125 44.71875 
Q 8.5 49.078125 8.5 55.328125 
Q 8.5 64.0625 14.71875 69.140625 
Q 20.953125 74.21875 31.78125 74.21875 
Q 42.671875 74.21875 48.875 69.140625 
Q 55.078125 64.0625 55.078125 55.328125 
Q 55.078125 49.078125 51.53125 44.71875 
Q 48 40.375 41.703125 38.8125 
Q 48.828125 37.15625 52.796875 32.3125 
Q 56.78125 27.484375 56.78125 20.515625 
Q 56.78125 9.90625 50.3125 4.234375 
Q 43.84375 -1.421875 31.78125 -1.421875 
Q 19.734375 -1.421875 13.25 4.234375 
Q 6.78125 9.90625 6.78125 20.515625 
Q 6.78125 27.484375 10.78125 32.3125 
Q 14.796875 37.15625 21.921875 38.8125 
z
M 18.3125 54.390625 
Q 18.3125 48.734375 21.84375 45.5625 
Q 25.390625 42.390625 31.78125 42.390625 
Q 38.140625 42.390625 41.71875 45.5625 
Q 45.3125 48.734375 45.3125 54.390625 
Q 45.3125 60.0625 41.71875 63.234375 
Q 38.140625 66.40625 31.78125 66.40625 
Q 25.390625 66.40625 21.84375 63.234375 
Q 18.3125 60.0625 18.3125 54.390625 
z
" id="DejaVuSans-56"/>
      </defs>
      <g transform="translate(97.358689 404.638438)scale(0.1 -0.1)">
       <use xlink:href="#DejaVuSans-50"/>
       <use x="63.623047" xlink:href="#DejaVuSans-48"/>
       <use x="127.246094" xlink:href="#DejaVuSans-49"/>
       <use x="190.869141" xlink:href="#DejaVuSans-57"/>
       <use x="254.492188" xlink:href="#DejaVuSans-45"/>
       <use x="290.576172" xlink:href="#DejaVuSans-48"/>
       <use x="354.199219" xlink:href="#DejaVuSans-49"/>
       <use x="417.822266" xlink:href="#DejaVuSans-45"/>
       <use x="453.90625" xlink:href="#DejaVuSans-48"/>
       <use x="517.529297" xlink:href="#DejaVuSans-56"/>
      </g>
     </g>
    </g>
    <g id="xtick_2">
     <g id="line2d_3">
      <path clip-path="url(#pc6424c10d0)" d="M 218.167025 390.04 
L 218.167025 10.8 
" style="fill:none;stroke:#808080;stroke-linecap:square;stroke-opacity:0.2;"/>
     </g>
     <g id="line2d_4">
      <g>
       <use style="stroke:#000000;stroke-width:0.8;" x="218.167025" xlink:href="#mff36411621" y="390.04"/>
      </g>
     </g>
     <g id="text_2">
      <!-- 2019-01-22 -->
      <g transform="translate(189.109212 404.638438)scale(0.1 -0.1)">
       <use xlink:href="#DejaVuSans-50"/>
       <use x="63.623047" xlink:href="#DejaVuSans-48"/>
       <use x="127.246094" xlink:href="#DejaVuSans-49"/>
       <use x="190.869141" xlink:href="#DejaVuSans-57"/>
       <use x="254.492188" xlink:href="#DejaVuSans-45"/>
       <use x="290.576172" xlink:href="#DejaVuSans-48"/>
       <use x="354.199219" xlink:href="#DejaVuSans-49"/>
       <use x="417.822266" xlink:href="#DejaVuSans-45"/>
       <use x="453.90625" xlink:href="#DejaVuSans-50"/>
       <use x="517.529297" xlink:href="#DejaVuSans-50"/>
      </g>
     </g>
    </g>
    <g id="xtick_3">
     <g id="line2d_5">
      <path clip-path="url(#pc6424c10d0)" d="M 309.917548 390.04 
L 309.917548 10.8 
" style="fill:none;stroke:#808080;stroke-linecap:square;stroke-opacity:0.2;"/>
     </g>
     <g id="line2d_6">
      <g>
       <use style="stroke:#000000;stroke-width:0.8;" x="309.917548" xlink:href="#mff36411621" y="390.04"/>
      </g>
     </g>
     <g id="text_3">
      <!-- 2019-02-05 -->
      <defs>
       <path d="M 10.796875 72.90625 
L 49.515625 72.90625 
L 49.515625 64.59375 
L 19.828125 64.59375 
L 19.828125 46.734375 
Q 21.96875 47.46875 24.109375 47.828125 
Q 26.265625 48.1875 28.421875 48.1875 
Q 40.625 48.1875 47.75 41.5 
Q 54.890625 34.8125 54.890625 23.390625 
Q 54.890625 11.625 47.5625 5.09375 
Q 40.234375 -1.421875 26.90625 -1.421875 
Q 22.3125 -1.421875 17.546875 -0.640625 
Q 12.796875 0.140625 7.71875 1.703125 
L 7.71875 11.625 
Q 12.109375 9.234375 16.796875 8.0625 
Q 21.484375 6.890625 26.703125 6.890625 
Q 35.15625 6.890625 40.078125 11.328125 
Q 45.015625 15.765625 45.015625 23.390625 
Q 45.015625 31 40.078125 35.4375 
Q 35.15625 39.890625 26.703125 39.890625 
Q 22.75 39.890625 18.8125 39.015625 
Q 14.890625 38.140625 10.796875 36.28125 
z
" id="DejaVuSans-53"/>
      </defs>
      <g transform="translate(280.859736 404.638438)scale(0.1 -0.1)">
       <use xlink:href="#DejaVuSans-50"/>
       <use x="63.623047" xlink:href="#DejaVuSans-48"/>
       <use x="127.246094" xlink:href="#DejaVuSans-49"/>
       <use x="190.869141" xlink:href="#DejaVuSans-57"/>
       <use x="254.492188" xlink:href="#DejaVuSans-45"/>
       <use x="290.576172" xlink:href="#DejaVuSans-48"/>
       <use x="354.199219" xlink:href="#DejaVuSans-50"/>
       <use x="417.822266" xlink:href="#DejaVuSans-45"/>
       <use x="453.90625" xlink:href="#DejaVuSans-48"/>
       <use x="517.529297" xlink:href="#DejaVuSans-53"/>
      </g>
     </g>
    </g>
    <g id="xtick_4">
     <g id="line2d_7">
      <path clip-path="url(#pc6424c10d0)" d="M 401.668072 390.04 
L 401.668072 10.8 
" style="fill:none;stroke:#808080;stroke-linecap:square;stroke-opacity:0.2;"/>
     </g>
     <g id="line2d_8">
      <g>
       <use style="stroke:#000000;stroke-width:0.8;" x="401.668072" xlink:href="#mff36411621" y="390.04"/>
      </g>
     </g>
     <g id="text_4">
      <!-- 2019-02-19 -->
      <g transform="translate(372.610259 404.638438)scale(0.1 -0.1)">
       <use xlink:href="#DejaVuSans-50"/>
       <use x="63.623047" xlink:href="#DejaVuSans-48"/>
       <use x="127.246094" xlink:href="#DejaVuSans-49"/>
       <use x="190.869141" xlink:href="#DejaVuSans-57"/>
       <use x="254.492188" xlink:href="#DejaVuSans-45"/>
       <use x="290.576172" xlink:href="#DejaVuSans-48"/>
       <use x="354.199219" xlink:href="#DejaVuSans-50"/>
       <use x="417.822266" xlink:href="#DejaVuSans-45"/>
       <use x="453.90625" xlink:href="#DejaVuSans-49"/>
       <use x="517.529297" xlink:href="#DejaVuSans-57"/>
      </g>
     </g>
    </g>
    <g id="xtick_5">
     <g id="line2d_9">
      <path clip-path="url(#pc6424c10d0)" d="M 493.418595 390.04 
L 493.418595 10.8 
" style="fill:none;stroke:#808080;stroke-linecap:square;stroke-opacity:0.2;"/>
     </g>
     <g id="line2d_10">
      <g>
       <use style="stroke:#000000;stroke-width:0.8;" x="493.418595" xlink:href="#mff36411621" y="390.04"/>
      </g>
     </g>
     <g id="text_5">
      <!-- 2019-03-05 -->
      <defs>
       <path d="M 40.578125 39.3125 
Q 47.65625 37.796875 51.625 33 
Q 55.609375 28.21875 55.609375 21.1875 
Q 55.609375 10.40625 48.1875 4.484375 
Q 40.765625 -1.421875 27.09375 -1.421875 
Q 22.515625 -1.421875 17.65625 -0.515625 
Q 12.796875 0.390625 7.625 2.203125 
L 7.625 11.71875 
Q 11.71875 9.328125 16.59375 8.109375 
Q 21.484375 6.890625 26.8125 6.890625 
Q 36.078125 6.890625 40.9375 10.546875 
Q 45.796875 14.203125 45.796875 21.1875 
Q 45.796875 27.640625 41.28125 31.265625 
Q 36.765625 34.90625 28.71875 34.90625 
L 20.21875 34.90625 
L 20.21875 43.015625 
L 29.109375 43.015625 
Q 36.375 43.015625 40.234375 45.921875 
Q 44.09375 48.828125 44.09375 54.296875 
Q 44.09375 59.90625 40.109375 62.90625 
Q 36.140625 65.921875 28.71875 65.921875 
Q 24.65625 65.921875 20.015625 65.03125 
Q 15.375 64.15625 9.8125 62.3125 
L 9.8125 71.09375 
Q 15.4375 72.65625 20.34375 73.4375 
Q 25.25 74.21875 29.59375 74.21875 
Q 40.828125 74.21875 47.359375 69.109375 
Q 53.90625 64.015625 53.90625 55.328125 
Q 53.90625 49.265625 50.4375 45.09375 
Q 46.96875 40.921875 40.578125 39.3125 
z
" id="DejaVuSans-51"/>
      </defs>
      <g transform="translate(464.360783 404.638438)scale(0.1 -0.1)">
       <use xlink:href="#DejaVuSans-50"/>
       <use x="63.623047" xlink:href="#DejaVuSans-48"/>
       <use x="127.246094" xlink:href="#DejaVuSans-49"/>
       <use x="190.869141" xlink:href="#DejaVuSans-57"/>
       <use x="254.492188" xlink:href="#DejaVuSans-45"/>
       <use x="290.576172" xlink:href="#DejaVuSans-48"/>
       <use x="354.199219" xlink:href="#DejaVuSans-51"/>
       <use x="417.822266" xlink:href="#DejaVuSans-45"/>
       <use x="453.90625" xlink:href="#DejaVuSans-48"/>
       <use x="517.529297" xlink:href="#DejaVuSans-53"/>
      </g>
     </g>
    </g>
    <g id="xtick_6">
     <g id="line2d_11">
      <path clip-path="url(#pc6424c10d0)" d="M 585.169118 390.04 
L 585.169118 10.8 
" style="fill:none;stroke:#808080;stroke-linecap:square;stroke-opacity:0.2;"/>
     </g>
     <g id="line2d_12">
      <g>
       <use style="stroke:#000000;stroke-width:0.8;" x="585.169118" xlink:href="#mff36411621" y="390.04"/>
      </g>
     </g>
     <g id="text_6">
      <!-- 2019-03-19 -->
      <g transform="translate(556.111306 404.638438)scale(0.1 -0.1)">
       <use xlink:href="#DejaVuSans-50"/>
       <use x="63.623047" xlink:href="#DejaVuSans-48"/>
       <use x="127.246094" xlink:href="#DejaVuSans-49"/>
       <use x="190.869141" xlink:href="#DejaVuSans-57"/>
       <use x="254.492188" xlink:href="#DejaVuSans-45"/>
       <use x="290.576172" xlink:href="#DejaVuSans-48"/>
       <use x="354.199219" xlink:href="#DejaVuSans-51"/>
       <use x="417.822266" xlink:href="#DejaVuSans-45"/>
       <use x="453.90625" xlink:href="#DejaVuSans-49"/>
       <use x="517.529297" xlink:href="#DejaVuSans-57"/>
      </g>
     </g>
    </g>
    <g id="xtick_7">
     <g id="line2d_13">
      <path clip-path="url(#pc6424c10d0)" d="M 676.919642 390.04 
L 676.919642 10.8 
" style="fill:none;stroke:#808080;stroke-linecap:square;stroke-opacity:0.2;"/>
     </g>
     <g id="line2d_14">
      <g>
       <use style="stroke:#000000;stroke-width:0.8;" x="676.919642" xlink:href="#mff36411621" y="390.04"/>
      </g>
     </g>
     <g id="text_7">
      <!-- 2019-04-02 -->
      <defs>
       <path d="M 37.796875 64.3125 
L 12.890625 25.390625 
L 37.796875 25.390625 
z
M 35.203125 72.90625 
L 47.609375 72.90625 
L 47.609375 25.390625 
L 58.015625 25.390625 
L 58.015625 17.1875 
L 47.609375 17.1875 
L 47.609375 0 
L 37.796875 0 
L 37.796875 17.1875 
L 4.890625 17.1875 
L 4.890625 26.703125 
z
" id="DejaVuSans-52"/>
      </defs>
      <g transform="translate(647.861829 404.638438)scale(0.1 -0.1)">
       <use xlink:href="#DejaVuSans-50"/>
       <use x="63.623047" xlink:href="#DejaVuSans-48"/>
       <use x="127.246094" xlink:href="#DejaVuSans-49"/>
       <use x="190.869141" xlink:href="#DejaVuSans-57"/>
       <use x="254.492188" xlink:href="#DejaVuSans-45"/>
       <use x="290.576172" xlink:href="#DejaVuSans-48"/>
       <use x="354.199219" xlink:href="#DejaVuSans-52"/>
       <use x="417.822266" xlink:href="#DejaVuSans-45"/>
       <use x="453.90625" xlink:href="#DejaVuSans-48"/>
       <use x="517.529297" xlink:href="#DejaVuSans-50"/>
      </g>
     </g>
    </g>
    <g id="text_8">
     <!-- ds -->
     <defs>
      <path d="M 45.40625 46.390625 
L 45.40625 75.984375 
L 54.390625 75.984375 
L 54.390625 0 
L 45.40625 0 
L 45.40625 8.203125 
Q 42.578125 3.328125 38.25 0.953125 
Q 33.9375 -1.421875 27.875 -1.421875 
Q 17.96875 -1.421875 11.734375 6.484375 
Q 5.515625 14.40625 5.515625 27.296875 
Q 5.515625 40.1875 11.734375 48.09375 
Q 17.96875 56 27.875 56 
Q 33.9375 56 38.25 53.625 
Q 42.578125 51.265625 45.40625 46.390625 
z
M 14.796875 27.296875 
Q 14.796875 17.390625 18.875 11.75 
Q 22.953125 6.109375 30.078125 6.109375 
Q 37.203125 6.109375 41.296875 11.75 
Q 45.40625 17.390625 45.40625 27.296875 
Q 45.40625 37.203125 41.296875 42.84375 
Q 37.203125 48.484375 30.078125 48.484375 
Q 22.953125 48.484375 18.875 42.84375 
Q 14.796875 37.203125 14.796875 27.296875 
z
" id="DejaVuSans-100"/>
      <path d="M 44.28125 53.078125 
L 44.28125 44.578125 
Q 40.484375 46.53125 36.375 47.5 
Q 32.28125 48.484375 27.875 48.484375 
Q 21.1875 48.484375 17.84375 46.4375 
Q 14.5 44.390625 14.5 40.28125 
Q 14.5 37.15625 16.890625 35.375 
Q 19.28125 33.59375 26.515625 31.984375 
L 29.59375 31.296875 
Q 39.15625 29.25 43.1875 25.515625 
Q 47.21875 21.78125 47.21875 15.09375 
Q 47.21875 7.46875 41.1875 3.015625 
Q 35.15625 -1.421875 24.609375 -1.421875 
Q 20.21875 -1.421875 15.453125 -0.5625 
Q 10.6875 0.296875 5.421875 2 
L 5.421875 11.28125 
Q 10.40625 8.6875 15.234375 7.390625 
Q 20.0625 6.109375 24.8125 6.109375 
Q 31.15625 6.109375 34.5625 8.28125 
Q 37.984375 10.453125 37.984375 14.40625 
Q 37.984375 18.0625 35.515625 20.015625 
Q 33.0625 21.96875 24.703125 23.78125 
L 21.578125 24.515625 
Q 13.234375 26.265625 9.515625 29.90625 
Q 5.8125 33.546875 5.8125 39.890625 
Q 5.8125 47.609375 11.28125 51.796875 
Q 16.75 56 26.8125 56 
Q 31.78125 56 36.171875 55.265625 
Q 40.578125 54.546875 44.28125 53.078125 
z
" id="DejaVuSans-115"/>
     </defs>
     <g transform="translate(369.67473 418.316562)scale(0.1 -0.1)">
      <use xlink:href="#DejaVuSans-100"/>
      <use x="63.476562" xlink:href="#DejaVuSans-115"/>
     </g>
    </g>
   </g>
   <g id="matplotlib.axis_2">
    <g id="ytick_1">
     <g id="line2d_15">
      <path clip-path="url(#pc6424c10d0)" d="M 51.05 372.029425 
L 699.857273 372.029425 
" style="fill:none;stroke:#808080;stroke-linecap:square;stroke-opacity:0.2;"/>
     </g>
     <g id="line2d_16">
      <defs>
       <path d="M 0 0 
L -3.5 0 
" id="m170ff5633e" style="stroke:#000000;stroke-width:0.8;"/>
      </defs>
      <g>
       <use style="stroke:#000000;stroke-width:0.8;" x="51.05" xlink:href="#m170ff5633e" y="372.029425"/>
      </g>
     </g>
     <g id="text_9">
      <!-- 100 -->
      <g transform="translate(24.9625 375.828644)scale(0.1 -0.1)">
       <use xlink:href="#DejaVuSans-49"/>
       <use x="63.623047" xlink:href="#DejaVuSans-48"/>
       <use x="127.246094" xlink:href="#DejaVuSans-48"/>
      </g>
     </g>
    </g>
    <g id="ytick_2">
     <g id="line2d_17">
      <path clip-path="url(#pc6424c10d0)" d="M 51.05 320.108013 
L 699.857273 320.108013 
" style="fill:none;stroke:#808080;stroke-linecap:square;stroke-opacity:0.2;"/>
     </g>
     <g id="line2d_18">
      <g>
       <use style="stroke:#000000;stroke-width:0.8;" x="51.05" xlink:href="#m170ff5633e" y="320.108013"/>
      </g>
     </g>
     <g id="text_10">
      <!-- 125 -->
      <g transform="translate(24.9625 323.907231)scale(0.1 -0.1)">
       <use xlink:href="#DejaVuSans-49"/>
       <use x="63.623047" xlink:href="#DejaVuSans-50"/>
       <use x="127.246094" xlink:href="#DejaVuSans-53"/>
      </g>
     </g>
    </g>
    <g id="ytick_3">
     <g id="line2d_19">
      <path clip-path="url(#pc6424c10d0)" d="M 51.05 268.1866 
L 699.857273 268.1866 
" style="fill:none;stroke:#808080;stroke-linecap:square;stroke-opacity:0.2;"/>
     </g>
     <g id="line2d_20">
      <g>
       <use style="stroke:#000000;stroke-width:0.8;" x="51.05" xlink:href="#m170ff5633e" y="268.1866"/>
      </g>
     </g>
     <g id="text_11">
      <!-- 150 -->
      <g transform="translate(24.9625 271.985818)scale(0.1 -0.1)">
       <use xlink:href="#DejaVuSans-49"/>
       <use x="63.623047" xlink:href="#DejaVuSans-53"/>
       <use x="127.246094" xlink:href="#DejaVuSans-48"/>
      </g>
     </g>
    </g>
    <g id="ytick_4">
     <g id="line2d_21">
      <path clip-path="url(#pc6424c10d0)" d="M 51.05 216.265187 
L 699.857273 216.265187 
" style="fill:none;stroke:#808080;stroke-linecap:square;stroke-opacity:0.2;"/>
     </g>
     <g id="line2d_22">
      <g>
       <use style="stroke:#000000;stroke-width:0.8;" x="51.05" xlink:href="#m170ff5633e" y="216.265187"/>
      </g>
     </g>
     <g id="text_12">
      <!-- 175 -->
      <defs>
       <path d="M 8.203125 72.90625 
L 55.078125 72.90625 
L 55.078125 68.703125 
L 28.609375 0 
L 18.3125 0 
L 43.21875 64.59375 
L 8.203125 64.59375 
z
" id="DejaVuSans-55"/>
      </defs>
      <g transform="translate(24.9625 220.064406)scale(0.1 -0.1)">
       <use xlink:href="#DejaVuSans-49"/>
       <use x="63.623047" xlink:href="#DejaVuSans-55"/>
       <use x="127.246094" xlink:href="#DejaVuSans-53"/>
      </g>
     </g>
    </g>
    <g id="ytick_5">
     <g id="line2d_23">
      <path clip-path="url(#pc6424c10d0)" d="M 51.05 164.343774 
L 699.857273 164.343774 
" style="fill:none;stroke:#808080;stroke-linecap:square;stroke-opacity:0.2;"/>
     </g>
     <g id="line2d_24">
      <g>
       <use style="stroke:#000000;stroke-width:0.8;" x="51.05" xlink:href="#m170ff5633e" y="164.343774"/>
      </g>
     </g>
     <g id="text_13">
      <!-- 200 -->
      <g transform="translate(24.9625 168.142993)scale(0.1 -0.1)">
       <use xlink:href="#DejaVuSans-50"/>
       <use x="63.623047" xlink:href="#DejaVuSans-48"/>
       <use x="127.246094" xlink:href="#DejaVuSans-48"/>
      </g>
     </g>
    </g>
    <g id="ytick_6">
     <g id="line2d_25">
      <path clip-path="url(#pc6424c10d0)" d="M 51.05 112.422361 
L 699.857273 112.422361 
" style="fill:none;stroke:#808080;stroke-linecap:square;stroke-opacity:0.2;"/>
     </g>
     <g id="line2d_26">
      <g>
       <use style="stroke:#000000;stroke-width:0.8;" x="51.05" xlink:href="#m170ff5633e" y="112.422361"/>
      </g>
     </g>
     <g id="text_14">
      <!-- 225 -->
      <g transform="translate(24.9625 116.22158)scale(0.1 -0.1)">
       <use xlink:href="#DejaVuSans-50"/>
       <use x="63.623047" xlink:href="#DejaVuSans-50"/>
       <use x="127.246094" xlink:href="#DejaVuSans-53"/>
      </g>
     </g>
    </g>
    <g id="ytick_7">
     <g id="line2d_27">
      <path clip-path="url(#pc6424c10d0)" d="M 51.05 60.500948 
L 699.857273 60.500948 
" style="fill:none;stroke:#808080;stroke-linecap:square;stroke-opacity:0.2;"/>
     </g>
     <g id="line2d_28">
      <g>
       <use style="stroke:#000000;stroke-width:0.8;" x="51.05" xlink:href="#m170ff5633e" y="60.500948"/>
      </g>
     </g>
     <g id="text_15">
      <!-- 250 -->
      <g transform="translate(24.9625 64.300167)scale(0.1 -0.1)">
       <use xlink:href="#DejaVuSans-50"/>
       <use x="63.623047" xlink:href="#DejaVuSans-53"/>
       <use x="127.246094" xlink:href="#DejaVuSans-48"/>
      </g>
     </g>
    </g>
    <g id="text_16">
     <!-- y -->
     <defs>
      <path d="M 32.171875 -5.078125 
Q 28.375 -14.84375 24.75 -17.8125 
Q 21.140625 -20.796875 15.09375 -20.796875 
L 7.90625 -20.796875 
L 7.90625 -13.28125 
L 13.1875 -13.28125 
Q 16.890625 -13.28125 18.9375 -11.515625 
Q 21 -9.765625 23.484375 -3.21875 
L 25.09375 0.875 
L 2.984375 54.6875 
L 12.5 54.6875 
L 29.59375 11.921875 
L 46.6875 54.6875 
L 56.203125 54.6875 
z
" id="DejaVuSans-121"/>
     </defs>
     <g transform="translate(18.882812 203.379375)rotate(-90)scale(0.1 -0.1)">
      <use xlink:href="#DejaVuSans-121"/>
     </g>
    </g>
   </g>
   <g id="line2d_29">
    <defs>
     <path d="M 0 1.5 
C 0.397805 1.5 0.77937 1.341951 1.06066 1.06066 
C 1.341951 0.77937 1.5 0.397805 1.5 0 
C 1.5 -0.397805 1.341951 -0.77937 1.06066 -1.06066 
C 0.77937 -1.341951 0.397805 -1.5 0 -1.5 
C -0.397805 -1.5 -0.77937 -1.341951 -1.06066 -1.06066 
C -1.341951 -0.77937 -1.5 -0.397805 -1.5 0 
C -1.5 0.397805 -1.341951 0.77937 -1.06066 1.06066 
C -0.77937 1.341951 -0.397805 1.5 0 1.5 
z
" id="me89a4795ea" style="stroke:#000000;"/>
    </defs>
    <g clip-path="url(#pc6424c10d0)">
     <use style="stroke:#000000;" x="80.54124" xlink:href="#me89a4795ea" y="50.116666"/>
     <use style="stroke:#000000;" x="87.094848" xlink:href="#me89a4795ea" y="291.032021"/>
     <use style="stroke:#000000;" x="100.202066" xlink:href="#me89a4795ea" y="50.116666"/>
     <use style="stroke:#000000;" x="106.755675" xlink:href="#me89a4795ea" y="286.878308"/>
     <use style="stroke:#000000;" x="113.309284" xlink:href="#me89a4795ea" y="282.724595"/>
     <use style="stroke:#000000;" x="119.862893" xlink:href="#me89a4795ea" y="50.116666"/>
     <use style="stroke:#000000;" x="126.416501" xlink:href="#me89a4795ea" y="288.955165"/>
     <use style="stroke:#000000;" x="132.97011" xlink:href="#me89a4795ea" y="284.801452"/>
     <use style="stroke:#000000;" x="139.523719" xlink:href="#me89a4795ea" y="50.116666"/>
     <use style="stroke:#000000;" x="146.077328" xlink:href="#me89a4795ea" y="278.570882"/>
     <use style="stroke:#000000;" x="152.630937" xlink:href="#me89a4795ea" y="286.878308"/>
     <use style="stroke:#000000;" x="159.184545" xlink:href="#me89a4795ea" y="50.116666"/>
     <use style="stroke:#000000;" x="165.738154" xlink:href="#me89a4795ea" y="288.955165"/>
     <use style="stroke:#000000;" x="178.845372" xlink:href="#me89a4795ea" y="50.116666"/>
     <use style="stroke:#000000;" x="185.398981" xlink:href="#me89a4795ea" y="288.955165"/>
     <use style="stroke:#000000;" x="191.95259" xlink:href="#me89a4795ea" y="272.340313"/>
     <use style="stroke:#000000;" x="198.506198" xlink:href="#me89a4795ea" y="50.116666"/>
     <use style="stroke:#000000;" x="205.059807" xlink:href="#me89a4795ea" y="284.801452"/>
     <use style="stroke:#000000;" x="211.613416" xlink:href="#me89a4795ea" y="293.108878"/>
     <use style="stroke:#000000;" x="218.167025" xlink:href="#me89a4795ea" y="50.116666"/>
     <use style="stroke:#000000;" x="224.720634" xlink:href="#me89a4795ea" y="288.955165"/>
     <use style="stroke:#000000;" x="231.274242" xlink:href="#me89a4795ea" y="272.340313"/>
     <use style="stroke:#000000;" x="237.827851" xlink:href="#me89a4795ea" y="50.116666"/>
     <use style="stroke:#000000;" x="244.38146" xlink:href="#me89a4795ea" y="282.724595"/>
     <use style="stroke:#000000;" x="250.935069" xlink:href="#me89a4795ea" y="280.647739"/>
     <use style="stroke:#000000;" x="257.488678" xlink:href="#me89a4795ea" y="50.116666"/>
     <use style="stroke:#000000;" x="264.042287" xlink:href="#me89a4795ea" y="276.494026"/>
     <use style="stroke:#000000;" x="270.595895" xlink:href="#me89a4795ea" y="280.647739"/>
     <use style="stroke:#000000;" x="277.149504" xlink:href="#me89a4795ea" y="50.116666"/>
     <use style="stroke:#000000;" x="283.703113" xlink:href="#me89a4795ea" y="284.801452"/>
     <use style="stroke:#000000;" x="290.256722" xlink:href="#me89a4795ea" y="276.494026"/>
     <use style="stroke:#000000;" x="296.810331" xlink:href="#me89a4795ea" y="50.116666"/>
     <use style="stroke:#000000;" x="303.363939" xlink:href="#me89a4795ea" y="295.185734"/>
     <use style="stroke:#000000;" x="309.917548" xlink:href="#me89a4795ea" y="276.494026"/>
     <use style="stroke:#000000;" x="316.471157" xlink:href="#me89a4795ea" y="50.116666"/>
     <use style="stroke:#000000;" x="323.024766" xlink:href="#me89a4795ea" y="293.108878"/>
     <use style="stroke:#000000;" x="329.578375" xlink:href="#me89a4795ea" y="286.878308"/>
     <use style="stroke:#000000;" x="336.131983" xlink:href="#me89a4795ea" y="50.116666"/>
     <use style="stroke:#000000;" x="342.685592" xlink:href="#me89a4795ea" y="280.647739"/>
     <use style="stroke:#000000;" x="349.239201" xlink:href="#me89a4795ea" y="286.878308"/>
     <use style="stroke:#000000;" x="355.79281" xlink:href="#me89a4795ea" y="50.116666"/>
     <use style="stroke:#000000;" x="368.900028" xlink:href="#me89a4795ea" y="280.647739"/>
     <use style="stroke:#000000;" x="382.007245" xlink:href="#me89a4795ea" y="282.724595"/>
     <use style="stroke:#000000;" x="388.560854" xlink:href="#me89a4795ea" y="284.801452"/>
     <use style="stroke:#000000;" x="395.114463" xlink:href="#me89a4795ea" y="50.116666"/>
     <use style="stroke:#000000;" x="401.668072" xlink:href="#me89a4795ea" y="282.724595"/>
     <use style="stroke:#000000;" x="414.775289" xlink:href="#me89a4795ea" y="50.116666"/>
     <use style="stroke:#000000;" x="421.328898" xlink:href="#me89a4795ea" y="282.724595"/>
     <use style="stroke:#000000;" x="427.882507" xlink:href="#me89a4795ea" y="288.955165"/>
     <use style="stroke:#000000;" x="434.436116" xlink:href="#me89a4795ea" y="50.116666"/>
     <use style="stroke:#000000;" x="447.543333" xlink:href="#me89a4795ea" y="276.494026"/>
     <use style="stroke:#000000;" x="454.096942" xlink:href="#me89a4795ea" y="50.116666"/>
     <use style="stroke:#000000;" x="460.650551" xlink:href="#me89a4795ea" y="284.801452"/>
     <use style="stroke:#000000;" x="467.20416" xlink:href="#me89a4795ea" y="293.108878"/>
     <use style="stroke:#000000;" x="473.757769" xlink:href="#me89a4795ea" y="50.116666"/>
     <use style="stroke:#000000;" x="486.864986" xlink:href="#me89a4795ea" y="272.340313"/>
     <use style="stroke:#000000;" x="493.418595" xlink:href="#me89a4795ea" y="50.116666"/>
     <use style="stroke:#000000;" x="499.972204" xlink:href="#me89a4795ea" y="272.340313"/>
     <use style="stroke:#000000;" x="506.525813" xlink:href="#me89a4795ea" y="280.647739"/>
     <use style="stroke:#000000;" x="513.079421" xlink:href="#me89a4795ea" y="50.116666"/>
     <use style="stroke:#000000;" x="519.63303" xlink:href="#me89a4795ea" y="284.801452"/>
     <use style="stroke:#000000;" x="526.186639" xlink:href="#me89a4795ea" y="291.032021"/>
     <use style="stroke:#000000;" x="532.740248" xlink:href="#me89a4795ea" y="50.116666"/>
     <use style="stroke:#000000;" x="539.293857" xlink:href="#me89a4795ea" y="284.801452"/>
     <use style="stroke:#000000;" x="545.847466" xlink:href="#me89a4795ea" y="280.647739"/>
     <use style="stroke:#000000;" x="552.401074" xlink:href="#me89a4795ea" y="50.116666"/>
     <use style="stroke:#000000;" x="558.954683" xlink:href="#me89a4795ea" y="288.955165"/>
     <use style="stroke:#000000;" x="565.508292" xlink:href="#me89a4795ea" y="278.570882"/>
     <use style="stroke:#000000;" x="572.061901" xlink:href="#me89a4795ea" y="50.116666"/>
     <use style="stroke:#000000;" x="578.61551" xlink:href="#me89a4795ea" y="284.801452"/>
     <use style="stroke:#000000;" x="585.169118" xlink:href="#me89a4795ea" y="282.724595"/>
     <use style="stroke:#000000;" x="591.722727" xlink:href="#me89a4795ea" y="50.116666"/>
     <use style="stroke:#000000;" x="604.829945" xlink:href="#me89a4795ea" y="288.955165"/>
     <use style="stroke:#000000;" x="611.383554" xlink:href="#me89a4795ea" y="50.116666"/>
     <use style="stroke:#000000;" x="617.937163" xlink:href="#me89a4795ea" y="280.647739"/>
     <use style="stroke:#000000;" x="624.490771" xlink:href="#me89a4795ea" y="284.801452"/>
     <use style="stroke:#000000;" x="631.04438" xlink:href="#me89a4795ea" y="50.116666"/>
     <use style="stroke:#000000;" x="637.597989" xlink:href="#me89a4795ea" y="276.494026"/>
     <use style="stroke:#000000;" x="650.705207" xlink:href="#me89a4795ea" y="50.116666"/>
     <use style="stroke:#000000;" x="657.258815" xlink:href="#me89a4795ea" y="295.185734"/>
     <use style="stroke:#000000;" x="663.812424" xlink:href="#me89a4795ea" y="288.955165"/>
    </g>
   </g>
   <g id="line2d_30">
    <path clip-path="url(#pc6424c10d0)" d="M 80.54124 182.837022 
L 87.094848 195.765739 
L 100.202066 204.365996 
L 106.755675 210.562148 
L 113.309284 204.212398 
L 119.862893 198.805325 
L 126.416501 183.155813 
L 132.97011 196.08453 
L 139.523719 188.704225 
L 146.077328 204.684787 
L 152.630937 210.880939 
L 159.184545 204.531189 
L 165.738154 199.124116 
L 178.845372 196.40332 
L 185.398981 189.023016 
L 191.95259 205.003577 
L 198.506198 211.19973 
L 205.059807 204.84998 
L 211.613416 199.442907 
L 218.167025 183.793395 
L 224.720634 196.722111 
L 231.274242 189.341806 
L 237.827851 205.322368 
L 244.38146 211.51852 
L 250.935069 205.168771 
L 257.488678 199.761697 
L 264.042287 184.112186 
L 270.595895 197.040902 
L 277.149504 189.660597 
L 283.703113 205.641159 
L 290.256722 211.837311 
L 296.810331 205.487561 
L 303.363939 200.080488 
L 309.917548 184.430976 
L 316.471157 197.359693 
L 323.024766 189.979388 
L 329.578375 205.95995 
L 336.131983 212.156102 
L 342.685592 205.806352 
L 349.239201 200.399279 
L 355.79281 184.749767 
L 368.900028 190.298179 
L 382.007245 212.474893 
L 388.560854 206.125143 
L 395.114463 200.71807 
L 401.668072 185.068558 
L 414.775289 190.61697 
L 421.328898 206.597531 
L 427.882507 212.793683 
L 434.436116 206.443934 
L 447.543333 185.387349 
L 454.096942 198.316065 
L 460.650551 190.93576 
L 467.20416 206.916322 
L 473.757769 213.112474 
L 486.864986 201.355651 
L 493.418595 185.706139 
L 499.972204 198.634856 
L 506.525813 191.254551 
L 513.079421 207.235113 
L 519.63303 213.431265 
L 526.186639 207.081515 
L 532.740248 201.674442 
L 539.293857 186.02493 
L 545.847466 198.953647 
L 552.401074 191.573342 
L 558.954683 207.553903 
L 565.508292 213.750056 
L 572.061901 207.400306 
L 578.61551 201.993233 
L 585.169118 186.343721 
L 591.722727 199.272437 
L 604.829945 207.872694 
L 611.383554 214.068846 
L 617.937163 207.719097 
L 624.490771 202.312023 
L 631.04438 186.662512 
L 637.597989 199.591228 
L 650.705207 208.191485 
L 657.258815 214.387637 
L 663.812424 208.037888 
L 670.366033 202.630814 
" style="fill:none;stroke:#0072b2;stroke-linecap:square;stroke-width:1.5;"/>
   </g>
   <g id="patch_3">
    <path d="M 51.05 390.04 
L 51.05 10.8 
" style="fill:none;stroke:#000000;stroke-linecap:square;stroke-linejoin:miter;stroke-width:0.8;"/>
   </g>
   <g id="patch_4">
    <path d="M 699.857273 390.04 
L 699.857273 10.8 
" style="fill:none;stroke:#000000;stroke-linecap:square;stroke-linejoin:miter;stroke-width:0.8;"/>
   </g>
   <g id="patch_5">
    <path d="M 51.05 390.04 
L 699.857273 390.04 
" style="fill:none;stroke:#000000;stroke-linecap:square;stroke-linejoin:miter;stroke-width:0.8;"/>
   </g>
   <g id="patch_6">
    <path d="M 51.05 10.8 
L 699.857273 10.8 
" style="fill:none;stroke:#000000;stroke-linecap:square;stroke-linejoin:miter;stroke-width:0.8;"/>
   </g>
  </g>
 </g>
 <defs>
  <clipPath id="pc6424c10d0">
   <rect height="379.24" width="648.807273" x="51.05" y="10.8"/>
  </clipPath>
 </defs>
</svg>
