<?xml version="1.0" encoding="utf-8" standalone="no"?>
<!DOCTYPE svg PUBLIC "-//W3C//DTD SVG 1.1//EN"
  "http://www.w3.org/Graphics/SVG/1.1/DTD/svg11.dtd">
<!-- Created with matplotlib (https://matplotlib.org/) -->
<svg height="432pt" version="1.1" viewBox="0 0 720 432" width="720pt" xmlns="http://www.w3.org/2000/svg" xmlns:xlink="http://www.w3.org/1999/xlink">
 <defs>
  <style type="text/css">
*{stroke-linecap:butt;stroke-linejoin:round;}
  </style>
 </defs>
 <g id="figure_1">
  <g id="patch_1">
   <path d="M 0 432 
L 720 432 
L 720 0 
L 0 0 
z
" style="fill:#ffffff;"/>
  </g>
  <g id="axes_1">
   <g id="patch_2">
    <path d="M 51.05 390.04 
L 699.857273 390.04 
L 699.857273 10.8 
L 51.05 10.8 
z
" style="fill:#ffffff;"/>
   </g>
   <g id="PolyCollection_1">
    <defs>
     <path d="M 80.54124 -403.961818 
L 80.54124 -103.081839 
L 87.094848 -80.658918 
L 100.202066 -80.659681 
L 106.755675 -60.363607 
L 113.309284 -73.800179 
L 119.862893 -86.494973 
L 126.416501 -96.104911 
L 132.97011 -82.134236 
L 139.523719 -105.776031 
L 146.077328 -88.124982 
L 152.630937 -71.317643 
L 159.184545 -84.706021 
L 165.738154 -78.502717 
L 178.845372 -83.713764 
L 185.398981 -80.59893 
L 191.95259 -87.673204 
L 198.506198 -81.317625 
L 205.059807 -85.288404 
L 211.613416 -80.99017 
L 218.167025 -99.036694 
L 224.720634 -86.305588 
L 231.274242 -86.120812 
L 237.827851 -84.289854 
L 244.38146 -83.635203 
L 250.935069 -85.119698 
L 257.488678 -88.744646 
L 264.042287 -91.947675 
L 270.595895 -85.340559 
L 277.149504 -76.644619 
L 283.703113 -84.675174 
L 290.256722 -76.323495 
L 296.810331 -76.131415 
L 303.363939 -77.272724 
L 309.917548 -95.606797 
L 316.471157 -82.804086 
L 323.024766 -85.752398 
L 329.578375 -84.402947 
L 336.131983 -66.286599 
L 342.685592 -75.850704 
L 349.239201 -88.332982 
L 355.79281 -91.44414 
L 368.900028 -103.104845 
L 382.007245 -71.111301 
L 388.560854 -78.378835 
L 395.114463 -76.015912 
L 401.668072 -94.269162 
L 414.775289 -101.183688 
L 421.328898 -75.445203 
L 427.882507 -66.643097 
L 434.436116 -75.262681 
L 447.543333 -94.120201 
L 454.096942 -77.777142 
L 460.650551 -96.266863 
L 467.20416 -88.355412 
L 473.757769 -84.508751 
L 486.864986 -80.168883 
L 493.418595 -93.842448 
L 499.972204 -83.300592 
L 506.525813 -90.258241 
L 513.079421 -83.112686 
L 519.63303 -78.346258 
L 526.186639 -74.040374 
L 532.740248 -81.729473 
L 539.293857 -96.401999 
L 545.847466 -87.289009 
L 552.401074 -85.616366 
L 558.954683 -78.363614 
L 565.508292 -65.955755 
L 572.061901 -76.800292 
L 578.61551 -86.418492 
L 585.169118 -89.569629 
L 591.722727 -86.860213 
L 604.829945 -67.182624 
L 611.383554 -59.501237 
L 617.937163 -85.146985 
L 624.490771 -79.593737 
L 631.04438 -98.959114 
L 637.597989 -83.908381 
L 650.705207 -68.939305 
L 657.258815 -59.198182 
L 663.812424 -70.842363 
L 670.366033 -79.42947 
L 670.366033 -390.460082 
L 670.366033 -390.460082 
L 663.812424 -381.76286 
L 657.258815 -368.589602 
L 650.705207 -360.902136 
L 637.597989 -380.787519 
L 631.04438 -396.242217 
L 624.490771 -377.302531 
L 617.937163 -376.598284 
L 611.383554 -375.967776 
L 604.829945 -366.282429 
L 591.722727 -378.300307 
L 585.169118 -396.457127 
L 578.61551 -371.892952 
L 572.061901 -375.265454 
L 565.508292 -381.721238 
L 558.954683 -367.705671 
L 552.401074 -388.141683 
L 545.847466 -380.625944 
L 539.293857 -398.204274 
L 532.740248 -396.828621 
L 526.186639 -371.250133 
L 519.63303 -376.794519 
L 513.079421 -382.709145 
L 506.525813 -386.352465 
L 499.972204 -388.789889 
L 493.418595 -397.974871 
L 486.864986 -384.067038 
L 473.757769 -370.541061 
L 467.20416 -381.331673 
L 460.650551 -390.594155 
L 454.096942 -379.604104 
L 447.543333 -397.416761 
L 434.436116 -378.240534 
L 427.882507 -369.74338 
L 421.328898 -379.363513 
L 414.775289 -397.418942 
L 401.668072 -396.530895 
L 395.114463 -384.780331 
L 388.560854 -378.74912 
L 382.007245 -375.257725 
L 368.900028 -384.825261 
L 355.79281 -389.880329 
L 349.239201 -394.488763 
L 342.685592 -385.947228 
L 336.131983 -374.316768 
L 329.578375 -384.2962 
L 323.024766 -395.641917 
L 316.471157 -387.851132 
L 309.917548 -395.49729 
L 303.363939 -395.792024 
L 296.810331 -384.503595 
L 290.256722 -374.236945 
L 283.703113 -386.66382 
L 277.149504 -391.145235 
L 270.595895 -400.589201 
L 264.042287 -394.585983 
L 257.488678 -384.77091 
L 250.935069 -371.484115 
L 244.38146 -378.513433 
L 237.827851 -390.020472 
L 231.274242 -394.232913 
L 224.720634 -378.563058 
L 218.167025 -401.218315 
L 211.613416 -381.072363 
L 205.059807 -385.266722 
L 198.506198 -375.2303 
L 191.95259 -385.820981 
L 185.398981 -390.603567 
L 178.845372 -385.519705 
L 165.738154 -378.013121 
L 159.184545 -379.218073 
L 152.630937 -377.072647 
L 146.077328 -389.617462 
L 139.523719 -395.027378 
L 132.97011 -397.137501 
L 126.416501 -401.212962 
L 119.862893 -389.157597 
L 113.309284 -374.509657 
L 106.755675 -373.739726 
L 100.202066 -372.510053 
L 87.094848 -383.840511 
L 80.54124 -403.961818 
z
" id="mde9f3b9e74" style="stroke:#0072b2;stroke-opacity:0.2;"/>
    </defs>
    <g clip-path="url(#pfb25cfbc69)">
     <use style="fill:#0072b2;fill-opacity:0.2;stroke:#0072b2;stroke-opacity:0.2;" x="0" xlink:href="#mde9f3b9e74" y="432"/>
    </g>
   </g>
   <g id="matplotlib.axis_1">
    <g id="xtick_1">
     <g id="line2d_1">
      <path clip-path="url(#pfb25cfbc69)" d="M 126.416501 390.04 
L 126.416501 10.8 
" style="fill:none;stroke:#808080;stroke-linecap:square;stroke-opacity:0.2;"/>
     </g>
     <g id="line2d_2">
      <defs>
       <path d="M 0 0 
L 0 3.5 
" id="mc892f7e84f" style="stroke:#000000;stroke-width:0.8;"/>
      </defs>
      <g>
       <use style="stroke:#000000;stroke-width:0.8;" x="126.416501" xlink:href="#mc892f7e84f" y="390.04"/>
      </g>
     </g>
     <g id="text_1">
      <!-- 2019-01-08 -->
      <defs>
       <path d="M 19.1875 8.296875 
L 53.609375 8.296875 
L 53.609375 0 
L 7.328125 0 
L 7.328125 8.296875 
Q 12.9375 14.109375 22.625 23.890625 
Q 32.328125 33.6875 34.8125 36.53125 
Q 39.546875 41.84375 41.421875 45.53125 
Q 43.3125 49.21875 43.3125 52.78125 
Q 43.3125 58.59375 39.234375 62.25 
Q 35.15625 65.921875 28.609375 65.921875 
Q 23.96875 65.921875 18.8125 64.3125 
Q 13.671875 62.703125 7.8125 59.421875 
L 7.8125 69.390625 
Q 13.765625 71.78125 18.9375 73 
Q 24.125 74.21875 28.421875 74.21875 
Q 39.75 74.21875 46.484375 68.546875 
Q 53.21875 62.890625 53.21875 53.421875 
Q 53.21875 48.921875 51.53125 44.890625 
Q 49.859375 40.875 45.40625 35.40625 
Q 44.1875 33.984375 37.640625 27.21875 
Q 31.109375 20.453125 19.1875 8.296875 
z
" id="DejaVuSans-50"/>
       <path d="M 31.78125 66.40625 
Q 24.171875 66.40625 20.328125 58.90625 
Q 16.5 51.421875 16.5 36.375 
Q 16.5 21.390625 20.328125 13.890625 
Q 24.171875 6.390625 31.78125 6.390625 
Q 39.453125 6.390625 43.28125 13.890625 
Q 47.125 21.390625 47.125 36.375 
Q 47.125 51.421875 43.28125 58.90625 
Q 39.453125 66.40625 31.78125 66.40625 
z
M 31.78125 74.21875 
Q 44.046875 74.21875 50.515625 64.515625 
Q 56.984375 54.828125 56.984375 36.375 
Q 56.984375 17.96875 50.515625 8.265625 
Q 44.046875 -1.421875 31.78125 -1.421875 
Q 19.53125 -1.421875 13.0625 8.265625 
Q 6.59375 17.96875 6.59375 36.375 
Q 6.59375 54.828125 13.0625 64.515625 
Q 19.53125 74.21875 31.78125 74.21875 
z
" id="DejaVuSans-48"/>
       <path d="M 12.40625 8.296875 
L 28.515625 8.296875 
L 28.515625 63.921875 
L 10.984375 60.40625 
L 10.984375 69.390625 
L 28.421875 72.90625 
L 38.28125 72.90625 
L 38.28125 8.296875 
L 54.390625 8.296875 
L 54.390625 0 
L 12.40625 0 
z
" id="DejaVuSans-49"/>
       <path d="M 10.984375 1.515625 
L 10.984375 10.5 
Q 14.703125 8.734375 18.5 7.8125 
Q 22.3125 6.890625 25.984375 6.890625 
Q 35.75 6.890625 40.890625 13.453125 
Q 46.046875 20.015625 46.78125 33.40625 
Q 43.953125 29.203125 39.59375 26.953125 
Q 35.25 24.703125 29.984375 24.703125 
Q 19.046875 24.703125 12.671875 31.3125 
Q 6.296875 37.9375 6.296875 49.421875 
Q 6.296875 60.640625 12.9375 67.421875 
Q 19.578125 74.21875 30.609375 74.21875 
Q 43.265625 74.21875 49.921875 64.515625 
Q 56.59375 54.828125 56.59375 36.375 
Q 56.59375 19.140625 48.40625 8.859375 
Q 40.234375 -1.421875 26.421875 -1.421875 
Q 22.703125 -1.421875 18.890625 -0.6875 
Q 15.09375 0.046875 10.984375 1.515625 
z
M 30.609375 32.421875 
Q 37.25 32.421875 41.125 36.953125 
Q 45.015625 41.5 45.015625 49.421875 
Q 45.015625 57.28125 41.125 61.84375 
Q 37.25 66.40625 30.609375 66.40625 
Q 23.96875 66.40625 20.09375 61.84375 
Q 16.21875 57.28125 16.21875 49.421875 
Q 16.21875 41.5 20.09375 36.953125 
Q 23.96875 32.421875 30.609375 32.421875 
z
" id="DejaVuSans-57"/>
       <path d="M 4.890625 31.390625 
L 31.203125 31.390625 
L 31.203125 23.390625 
L 4.890625 23.390625 
z
" id="DejaVuSans-45"/>
       <path d="M 31.78125 34.625 
Q 24.75 34.625 20.71875 30.859375 
Q 16.703125 27.09375 16.703125 20.515625 
Q 16.703125 13.921875 20.71875 10.15625 
Q 24.75 6.390625 31.78125 6.390625 
Q 38.8125 6.390625 42.859375 10.171875 
Q 46.921875 13.96875 46.921875 20.515625 
Q 46.921875 27.09375 42.890625 30.859375 
Q 38.875 34.625 31.78125 34.625 
z
M 21.921875 38.8125 
Q 15.578125 40.375 12.03125 44.71875 
Q 8.5 49.078125 8.5 55.328125 
Q 8.5 64.0625 14.71875 69.140625 
Q 20.953125 74.21875 31.78125 74.21875 
Q 42.671875 74.21875 48.875 69.140625 
Q 55.078125 64.0625 55.078125 55.328125 
Q 55.078125 49.078125 51.53125 44.71875 
Q 48 40.375 41.703125 38.8125 
Q 48.828125 37.15625 52.796875 32.3125 
Q 56.78125 27.484375 56.78125 20.515625 
Q 56.78125 9.90625 50.3125 4.234375 
Q 43.84375 -1.421875 31.78125 -1.421875 
Q 19.734375 -1.421875 13.25 4.234375 
Q 6.78125 9.90625 6.78125 20.515625 
Q 6.78125 27.484375 10.78125 32.3125 
Q 14.796875 37.15625 21.921875 38.8125 
z
M 18.3125 54.390625 
Q 18.3125 48.734375 21.84375 45.5625 
Q 25.390625 42.390625 31.78125 42.390625 
Q 38.140625 42.390625 41.71875 45.5625 
Q 45.3125 48.734375 45.3125 54.390625 
Q 45.3125 60.0625 41.71875 63.234375 
Q 38.140625 66.40625 31.78125 66.40625 
Q 25.390625 66.40625 21.84375 63.234375 
Q 18.3125 60.0625 18.3125 54.390625 
z
" id="DejaVuSans-56"/>
      </defs>
      <g transform="translate(97.358689 404.638438)scale(0.1 -0.1)">
       <use xlink:href="#DejaVuSans-50"/>
       <use x="63.623047" xlink:href="#DejaVuSans-48"/>
       <use x="127.246094" xlink:href="#DejaVuSans-49"/>
       <use x="190.869141" xlink:href="#DejaVuSans-57"/>
       <use x="254.492188" xlink:href="#DejaVuSans-45"/>
       <use x="290.576172" xlink:href="#DejaVuSans-48"/>
       <use x="354.199219" xlink:href="#DejaVuSans-49"/>
       <use x="417.822266" xlink:href="#DejaVuSans-45"/>
       <use x="453.90625" xlink:href="#DejaVuSans-48"/>
       <use x="517.529297" xlink:href="#DejaVuSans-56"/>
      </g>
     </g>
    </g>
    <g id="xtick_2">
     <g id="line2d_3">
      <path clip-path="url(#pfb25cfbc69)" d="M 218.167025 390.04 
L 218.167025 10.8 
" style="fill:none;stroke:#808080;stroke-linecap:square;stroke-opacity:0.2;"/>
     </g>
     <g id="line2d_4">
      <g>
       <use style="stroke:#000000;stroke-width:0.8;" x="218.167025" xlink:href="#mc892f7e84f" y="390.04"/>
      </g>
     </g>
     <g id="text_2">
      <!-- 2019-01-22 -->
      <g transform="translate(189.109212 404.638438)scale(0.1 -0.1)">
       <use xlink:href="#DejaVuSans-50"/>
       <use x="63.623047" xlink:href="#DejaVuSans-48"/>
       <use x="127.246094" xlink:href="#DejaVuSans-49"/>
       <use x="190.869141" xlink:href="#DejaVuSans-57"/>
       <use x="254.492188" xlink:href="#DejaVuSans-45"/>
       <use x="290.576172" xlink:href="#DejaVuSans-48"/>
       <use x="354.199219" xlink:href="#DejaVuSans-49"/>
       <use x="417.822266" xlink:href="#DejaVuSans-45"/>
       <use x="453.90625" xlink:href="#DejaVuSans-50"/>
       <use x="517.529297" xlink:href="#DejaVuSans-50"/>
      </g>
     </g>
    </g>
    <g id="xtick_3">
     <g id="line2d_5">
      <path clip-path="url(#pfb25cfbc69)" d="M 309.917548 390.04 
L 309.917548 10.8 
" style="fill:none;stroke:#808080;stroke-linecap:square;stroke-opacity:0.2;"/>
     </g>
     <g id="line2d_6">
      <g>
       <use style="stroke:#000000;stroke-width:0.8;" x="309.917548" xlink:href="#mc892f7e84f" y="390.04"/>
      </g>
     </g>
     <g id="text_3">
      <!-- 2019-02-05 -->
      <defs>
       <path d="M 10.796875 72.90625 
L 49.515625 72.90625 
L 49.515625 64.59375 
L 19.828125 64.59375 
L 19.828125 46.734375 
Q 21.96875 47.46875 24.109375 47.828125 
Q 26.265625 48.1875 28.421875 48.1875 
Q 40.625 48.1875 47.75 41.5 
Q 54.890625 34.8125 54.890625 23.390625 
Q 54.890625 11.625 47.5625 5.09375 
Q 40.234375 -1.421875 26.90625 -1.421875 
Q 22.3125 -1.421875 17.546875 -0.640625 
Q 12.796875 0.140625 7.71875 1.703125 
L 7.71875 11.625 
Q 12.109375 9.234375 16.796875 8.0625 
Q 21.484375 6.890625 26.703125 6.890625 
Q 35.15625 6.890625 40.078125 11.328125 
Q 45.015625 15.765625 45.015625 23.390625 
Q 45.015625 31 40.078125 35.4375 
Q 35.15625 39.890625 26.703125 39.890625 
Q 22.75 39.890625 18.8125 39.015625 
Q 14.890625 38.140625 10.796875 36.28125 
z
" id="DejaVuSans-53"/>
      </defs>
      <g transform="translate(280.859736 404.638438)scale(0.1 -0.1)">
       <use xlink:href="#DejaVuSans-50"/>
       <use x="63.623047" xlink:href="#DejaVuSans-48"/>
       <use x="127.246094" xlink:href="#DejaVuSans-49"/>
       <use x="190.869141" xlink:href="#DejaVuSans-57"/>
       <use x="254.492188" xlink:href="#DejaVuSans-45"/>
       <use x="290.576172" xlink:href="#DejaVuSans-48"/>
       <use x="354.199219" xlink:href="#DejaVuSans-50"/>
       <use x="417.822266" xlink:href="#DejaVuSans-45"/>
       <use x="453.90625" xlink:href="#DejaVuSans-48"/>
       <use x="517.529297" xlink:href="#DejaVuSans-53"/>
      </g>
     </g>
    </g>
    <g id="xtick_4">
     <g id="line2d_7">
      <path clip-path="url(#pfb25cfbc69)" d="M 401.668072 390.04 
L 401.668072 10.8 
" style="fill:none;stroke:#808080;stroke-linecap:square;stroke-opacity:0.2;"/>
     </g>
     <g id="line2d_8">
      <g>
       <use style="stroke:#000000;stroke-width:0.8;" x="401.668072" xlink:href="#mc892f7e84f" y="390.04"/>
      </g>
     </g>
     <g id="text_4">
      <!-- 2019-02-19 -->
      <g transform="translate(372.610259 404.638438)scale(0.1 -0.1)">
       <use xlink:href="#DejaVuSans-50"/>
       <use x="63.623047" xlink:href="#DejaVuSans-48"/>
       <use x="127.246094" xlink:href="#DejaVuSans-49"/>
       <use x="190.869141" xlink:href="#DejaVuSans-57"/>
       <use x="254.492188" xlink:href="#DejaVuSans-45"/>
       <use x="290.576172" xlink:href="#DejaVuSans-48"/>
       <use x="354.199219" xlink:href="#DejaVuSans-50"/>
       <use x="417.822266" xlink:href="#DejaVuSans-45"/>
       <use x="453.90625" xlink:href="#DejaVuSans-49"/>
       <use x="517.529297" xlink:href="#DejaVuSans-57"/>
      </g>
     </g>
    </g>
    <g id="xtick_5">
     <g id="line2d_9">
      <path clip-path="url(#pfb25cfbc69)" d="M 493.418595 390.04 
L 493.418595 10.8 
" style="fill:none;stroke:#808080;stroke-linecap:square;stroke-opacity:0.2;"/>
     </g>
     <g id="line2d_10">
      <g>
       <use style="stroke:#000000;stroke-width:0.8;" x="493.418595" xlink:href="#mc892f7e84f" y="390.04"/>
      </g>
     </g>
     <g id="text_5">
      <!-- 2019-03-05 -->
      <defs>
       <path d="M 40.578125 39.3125 
Q 47.65625 37.796875 51.625 33 
Q 55.609375 28.21875 55.609375 21.1875 
Q 55.609375 10.40625 48.1875 4.484375 
Q 40.765625 -1.421875 27.09375 -1.421875 
Q 22.515625 -1.421875 17.65625 -0.515625 
Q 12.796875 0.390625 7.625 2.203125 
L 7.625 11.71875 
Q 11.71875 9.328125 16.59375 8.109375 
Q 21.484375 6.890625 26.8125 6.890625 
Q 36.078125 6.890625 40.9375 10.546875 
Q 45.796875 14.203125 45.796875 21.1875 
Q 45.796875 27.640625 41.28125 31.265625 
Q 36.765625 34.90625 28.71875 34.90625 
L 20.21875 34.90625 
L 20.21875 43.015625 
L 29.109375 43.015625 
Q 36.375 43.015625 40.234375 45.921875 
Q 44.09375 48.828125 44.09375 54.296875 
Q 44.09375 59.90625 40.109375 62.90625 
Q 36.140625 65.921875 28.71875 65.921875 
Q 24.65625 65.921875 20.015625 65.03125 
Q 15.375 64.15625 9.8125 62.3125 
L 9.8125 71.09375 
Q 15.4375 72.65625 20.34375 73.4375 
Q 25.25 74.21875 29.59375 74.21875 
Q 40.828125 74.21875 47.359375 69.109375 
Q 53.90625 64.015625 53.90625 55.328125 
Q 53.90625 49.265625 50.4375 45.09375 
Q 46.96875 40.921875 40.578125 39.3125 
z
" id="DejaVuSans-51"/>
      </defs>
      <g transform="translate(464.360783 404.638438)scale(0.1 -0.1)">
       <use xlink:href="#DejaVuSans-50"/>
       <use x="63.623047" xlink:href="#DejaVuSans-48"/>
       <use x="127.246094" xlink:href="#DejaVuSans-49"/>
       <use x="190.869141" xlink:href="#DejaVuSans-57"/>
       <use x="254.492188" xlink:href="#DejaVuSans-45"/>
       <use x="290.576172" xlink:href="#DejaVuSans-48"/>
       <use x="354.199219" xlink:href="#DejaVuSans-51"/>
       <use x="417.822266" xlink:href="#DejaVuSans-45"/>
       <use x="453.90625" xlink:href="#DejaVuSans-48"/>
       <use x="517.529297" xlink:href="#DejaVuSans-53"/>
      </g>
     </g>
    </g>
    <g id="xtick_6">
     <g id="line2d_11">
      <path clip-path="url(#pfb25cfbc69)" d="M 585.169118 390.04 
L 585.169118 10.8 
" style="fill:none;stroke:#808080;stroke-linecap:square;stroke-opacity:0.2;"/>
     </g>
     <g id="line2d_12">
      <g>
       <use style="stroke:#000000;stroke-width:0.8;" x="585.169118" xlink:href="#mc892f7e84f" y="390.04"/>
      </g>
     </g>
     <g id="text_6">
      <!-- 2019-03-19 -->
      <g transform="translate(556.111306 404.638438)scale(0.1 -0.1)">
       <use xlink:href="#DejaVuSans-50"/>
       <use x="63.623047" xlink:href="#DejaVuSans-48"/>
       <use x="127.246094" xlink:href="#DejaVuSans-49"/>
       <use x="190.869141" xlink:href="#DejaVuSans-57"/>
       <use x="254.492188" xlink:href="#DejaVuSans-45"/>
       <use x="290.576172" xlink:href="#DejaVuSans-48"/>
       <use x="354.199219" xlink:href="#DejaVuSans-51"/>
       <use x="417.822266" xlink:href="#DejaVuSans-45"/>
       <use x="453.90625" xlink:href="#DejaVuSans-49"/>
       <use x="517.529297" xlink:href="#DejaVuSans-57"/>
      </g>
     </g>
    </g>
    <g id="xtick_7">
     <g id="line2d_13">
      <path clip-path="url(#pfb25cfbc69)" d="M 676.919642 390.04 
L 676.919642 10.8 
" style="fill:none;stroke:#808080;stroke-linecap:square;stroke-opacity:0.2;"/>
     </g>
     <g id="line2d_14">
      <g>
       <use style="stroke:#000000;stroke-width:0.8;" x="676.919642" xlink:href="#mc892f7e84f" y="390.04"/>
      </g>
     </g>
     <g id="text_7">
      <!-- 2019-04-02 -->
      <defs>
       <path d="M 37.796875 64.3125 
L 12.890625 25.390625 
L 37.796875 25.390625 
z
M 35.203125 72.90625 
L 47.609375 72.90625 
L 47.609375 25.390625 
L 58.015625 25.390625 
L 58.015625 17.1875 
L 47.609375 17.1875 
L 47.609375 0 
L 37.796875 0 
L 37.796875 17.1875 
L 4.890625 17.1875 
L 4.890625 26.703125 
z
" id="DejaVuSans-52"/>
      </defs>
      <g transform="translate(647.861829 404.638438)scale(0.1 -0.1)">
       <use xlink:href="#DejaVuSans-50"/>
       <use x="63.623047" xlink:href="#DejaVuSans-48"/>
       <use x="127.246094" xlink:href="#DejaVuSans-49"/>
       <use x="190.869141" xlink:href="#DejaVuSans-57"/>
       <use x="254.492188" xlink:href="#DejaVuSans-45"/>
       <use x="290.576172" xlink:href="#DejaVuSans-48"/>
       <use x="354.199219" xlink:href="#DejaVuSans-52"/>
       <use x="417.822266" xlink:href="#DejaVuSans-45"/>
       <use x="453.90625" xlink:href="#DejaVuSans-48"/>
       <use x="517.529297" xlink:href="#DejaVuSans-50"/>
      </g>
     </g>
    </g>
    <g id="text_8">
     <!-- ds -->
     <defs>
      <path d="M 45.40625 46.390625 
L 45.40625 75.984375 
L 54.390625 75.984375 
L 54.390625 0 
L 45.40625 0 
L 45.40625 8.203125 
Q 42.578125 3.328125 38.25 0.953125 
Q 33.9375 -1.421875 27.875 -1.421875 
Q 17.96875 -1.421875 11.734375 6.484375 
Q 5.515625 14.40625 5.515625 27.296875 
Q 5.515625 40.1875 11.734375 48.09375 
Q 17.96875 56 27.875 56 
Q 33.9375 56 38.25 53.625 
Q 42.578125 51.265625 45.40625 46.390625 
z
M 14.796875 27.296875 
Q 14.796875 17.390625 18.875 11.75 
Q 22.953125 6.109375 30.078125 6.109375 
Q 37.203125 6.109375 41.296875 11.75 
Q 45.40625 17.390625 45.40625 27.296875 
Q 45.40625 37.203125 41.296875 42.84375 
Q 37.203125 48.484375 30.078125 48.484375 
Q 22.953125 48.484375 18.875 42.84375 
Q 14.796875 37.203125 14.796875 27.296875 
z
" id="DejaVuSans-100"/>
      <path d="M 44.28125 53.078125 
L 44.28125 44.578125 
Q 40.484375 46.53125 36.375 47.5 
Q 32.28125 48.484375 27.875 48.484375 
Q 21.1875 48.484375 17.84375 46.4375 
Q 14.5 44.390625 14.5 40.28125 
Q 14.5 37.15625 16.890625 35.375 
Q 19.28125 33.59375 26.515625 31.984375 
L 29.59375 31.296875 
Q 39.15625 29.25 43.1875 25.515625 
Q 47.21875 21.78125 47.21875 15.09375 
Q 47.21875 7.46875 41.1875 3.015625 
Q 35.15625 -1.421875 24.609375 -1.421875 
Q 20.21875 -1.421875 15.453125 -0.5625 
Q 10.6875 0.296875 5.421875 2 
L 5.421875 11.28125 
Q 10.40625 8.6875 15.234375 7.390625 
Q 20.0625 6.109375 24.8125 6.109375 
Q 31.15625 6.109375 34.5625 8.28125 
Q 37.984375 10.453125 37.984375 14.40625 
Q 37.984375 18.0625 35.515625 20.015625 
Q 33.0625 21.96875 24.703125 23.78125 
L 21.578125 24.515625 
Q 13.234375 26.265625 9.515625 29.90625 
Q 5.8125 33.546875 5.8125 39.890625 
Q 5.8125 47.609375 11.28125 51.796875 
Q 16.75 56 26.8125 56 
Q 31.78125 56 36.171875 55.265625 
Q 40.578125 54.546875 44.28125 53.078125 
z
" id="DejaVuSans-115"/>
     </defs>
     <g transform="translate(369.67473 418.316562)scale(0.1 -0.1)">
      <use xlink:href="#DejaVuSans-100"/>
      <use x="63.476562" xlink:href="#DejaVuSans-115"/>
     </g>
    </g>
   </g>
   <g id="matplotlib.axis_2">
    <g id="ytick_1">
     <g id="line2d_15">
      <path clip-path="url(#pfb25cfbc69)" d="M 51.05 375.874308 
L 699.857273 375.874308 
" style="fill:none;stroke:#808080;stroke-linecap:square;stroke-opacity:0.2;"/>
     </g>
     <g id="line2d_16">
      <defs>
       <path d="M 0 0 
L -3.5 0 
" id="mb9faea0245" style="stroke:#000000;stroke-width:0.8;"/>
      </defs>
      <g>
       <use style="stroke:#000000;stroke-width:0.8;" x="51.05" xlink:href="#mb9faea0245" y="375.874308"/>
      </g>
     </g>
     <g id="text_9">
      <!-- 100 -->
      <g transform="translate(24.9625 379.673527)scale(0.1 -0.1)">
       <use xlink:href="#DejaVuSans-49"/>
       <use x="63.623047" xlink:href="#DejaVuSans-48"/>
       <use x="127.246094" xlink:href="#DejaVuSans-48"/>
      </g>
     </g>
    </g>
    <g id="ytick_2">
     <g id="line2d_17">
      <path clip-path="url(#pfb25cfbc69)" d="M 51.05 332.498076 
L 699.857273 332.498076 
" style="fill:none;stroke:#808080;stroke-linecap:square;stroke-opacity:0.2;"/>
     </g>
     <g id="line2d_18">
      <g>
       <use style="stroke:#000000;stroke-width:0.8;" x="51.05" xlink:href="#mb9faea0245" y="332.498076"/>
      </g>
     </g>
     <g id="text_10">
      <!-- 120 -->
      <g transform="translate(24.9625 336.297295)scale(0.1 -0.1)">
       <use xlink:href="#DejaVuSans-49"/>
       <use x="63.623047" xlink:href="#DejaVuSans-50"/>
       <use x="127.246094" xlink:href="#DejaVuSans-48"/>
      </g>
     </g>
    </g>
    <g id="ytick_3">
     <g id="line2d_19">
      <path clip-path="url(#pfb25cfbc69)" d="M 51.05 289.121844 
L 699.857273 289.121844 
" style="fill:none;stroke:#808080;stroke-linecap:square;stroke-opacity:0.2;"/>
     </g>
     <g id="line2d_20">
      <g>
       <use style="stroke:#000000;stroke-width:0.8;" x="51.05" xlink:href="#mb9faea0245" y="289.121844"/>
      </g>
     </g>
     <g id="text_11">
      <!-- 140 -->
      <g transform="translate(24.9625 292.921063)scale(0.1 -0.1)">
       <use xlink:href="#DejaVuSans-49"/>
       <use x="63.623047" xlink:href="#DejaVuSans-52"/>
       <use x="127.246094" xlink:href="#DejaVuSans-48"/>
      </g>
     </g>
    </g>
    <g id="ytick_4">
     <g id="line2d_21">
      <path clip-path="url(#pfb25cfbc69)" d="M 51.05 245.745612 
L 699.857273 245.745612 
" style="fill:none;stroke:#808080;stroke-linecap:square;stroke-opacity:0.2;"/>
     </g>
     <g id="line2d_22">
      <g>
       <use style="stroke:#000000;stroke-width:0.8;" x="51.05" xlink:href="#mb9faea0245" y="245.745612"/>
      </g>
     </g>
     <g id="text_12">
      <!-- 160 -->
      <defs>
       <path d="M 33.015625 40.375 
Q 26.375 40.375 22.484375 35.828125 
Q 18.609375 31.296875 18.609375 23.390625 
Q 18.609375 15.53125 22.484375 10.953125 
Q 26.375 6.390625 33.015625 6.390625 
Q 39.65625 6.390625 43.53125 10.953125 
Q 47.40625 15.53125 47.40625 23.390625 
Q 47.40625 31.296875 43.53125 35.828125 
Q 39.65625 40.375 33.015625 40.375 
z
M 52.59375 71.296875 
L 52.59375 62.3125 
Q 48.875 64.0625 45.09375 64.984375 
Q 41.3125 65.921875 37.59375 65.921875 
Q 27.828125 65.921875 22.671875 59.328125 
Q 17.53125 52.734375 16.796875 39.40625 
Q 19.671875 43.65625 24.015625 45.921875 
Q 28.375 48.1875 33.59375 48.1875 
Q 44.578125 48.1875 50.953125 41.515625 
Q 57.328125 34.859375 57.328125 23.390625 
Q 57.328125 12.15625 50.6875 5.359375 
Q 44.046875 -1.421875 33.015625 -1.421875 
Q 20.359375 -1.421875 13.671875 8.265625 
Q 6.984375 17.96875 6.984375 36.375 
Q 6.984375 53.65625 15.1875 63.9375 
Q 23.390625 74.21875 37.203125 74.21875 
Q 40.921875 74.21875 44.703125 73.484375 
Q 48.484375 72.75 52.59375 71.296875 
z
" id="DejaVuSans-54"/>
      </defs>
      <g transform="translate(24.9625 249.544831)scale(0.1 -0.1)">
       <use xlink:href="#DejaVuSans-49"/>
       <use x="63.623047" xlink:href="#DejaVuSans-54"/>
       <use x="127.246094" xlink:href="#DejaVuSans-48"/>
      </g>
     </g>
    </g>
    <g id="ytick_5">
     <g id="line2d_23">
      <path clip-path="url(#pfb25cfbc69)" d="M 51.05 202.36938 
L 699.857273 202.36938 
" style="fill:none;stroke:#808080;stroke-linecap:square;stroke-opacity:0.2;"/>
     </g>
     <g id="line2d_24">
      <g>
       <use style="stroke:#000000;stroke-width:0.8;" x="51.05" xlink:href="#mb9faea0245" y="202.36938"/>
      </g>
     </g>
     <g id="text_13">
      <!-- 180 -->
      <g transform="translate(24.9625 206.168599)scale(0.1 -0.1)">
       <use xlink:href="#DejaVuSans-49"/>
       <use x="63.623047" xlink:href="#DejaVuSans-56"/>
       <use x="127.246094" xlink:href="#DejaVuSans-48"/>
      </g>
     </g>
    </g>
    <g id="ytick_6">
     <g id="line2d_25">
      <path clip-path="url(#pfb25cfbc69)" d="M 51.05 158.993148 
L 699.857273 158.993148 
" style="fill:none;stroke:#808080;stroke-linecap:square;stroke-opacity:0.2;"/>
     </g>
     <g id="line2d_26">
      <g>
       <use style="stroke:#000000;stroke-width:0.8;" x="51.05" xlink:href="#mb9faea0245" y="158.993148"/>
      </g>
     </g>
     <g id="text_14">
      <!-- 200 -->
      <g transform="translate(24.9625 162.792367)scale(0.1 -0.1)">
       <use xlink:href="#DejaVuSans-50"/>
       <use x="63.623047" xlink:href="#DejaVuSans-48"/>
       <use x="127.246094" xlink:href="#DejaVuSans-48"/>
      </g>
     </g>
    </g>
    <g id="ytick_7">
     <g id="line2d_27">
      <path clip-path="url(#pfb25cfbc69)" d="M 51.05 115.616916 
L 699.857273 115.616916 
" style="fill:none;stroke:#808080;stroke-linecap:square;stroke-opacity:0.2;"/>
     </g>
     <g id="line2d_28">
      <g>
       <use style="stroke:#000000;stroke-width:0.8;" x="51.05" xlink:href="#mb9faea0245" y="115.616916"/>
      </g>
     </g>
     <g id="text_15">
      <!-- 220 -->
      <g transform="translate(24.9625 119.416135)scale(0.1 -0.1)">
       <use xlink:href="#DejaVuSans-50"/>
       <use x="63.623047" xlink:href="#DejaVuSans-50"/>
       <use x="127.246094" xlink:href="#DejaVuSans-48"/>
      </g>
     </g>
    </g>
    <g id="ytick_8">
     <g id="line2d_29">
      <path clip-path="url(#pfb25cfbc69)" d="M 51.05 72.240684 
L 699.857273 72.240684 
" style="fill:none;stroke:#808080;stroke-linecap:square;stroke-opacity:0.2;"/>
     </g>
     <g id="line2d_30">
      <g>
       <use style="stroke:#000000;stroke-width:0.8;" x="51.05" xlink:href="#mb9faea0245" y="72.240684"/>
      </g>
     </g>
     <g id="text_16">
      <!-- 240 -->
      <g transform="translate(24.9625 76.039903)scale(0.1 -0.1)">
       <use xlink:href="#DejaVuSans-50"/>
       <use x="63.623047" xlink:href="#DejaVuSans-52"/>
       <use x="127.246094" xlink:href="#DejaVuSans-48"/>
      </g>
     </g>
    </g>
    <g id="ytick_9">
     <g id="line2d_31">
      <path clip-path="url(#pfb25cfbc69)" d="M 51.05 28.864452 
L 699.857273 28.864452 
" style="fill:none;stroke:#808080;stroke-linecap:square;stroke-opacity:0.2;"/>
     </g>
     <g id="line2d_32">
      <g>
       <use style="stroke:#000000;stroke-width:0.8;" x="51.05" xlink:href="#mb9faea0245" y="28.864452"/>
      </g>
     </g>
     <g id="text_17">
      <!-- 260 -->
      <g transform="translate(24.9625 32.663671)scale(0.1 -0.1)">
       <use xlink:href="#DejaVuSans-50"/>
       <use x="63.623047" xlink:href="#DejaVuSans-54"/>
       <use x="127.246094" xlink:href="#DejaVuSans-48"/>
      </g>
     </g>
    </g>
    <g id="text_18">
     <!-- y -->
     <defs>
      <path d="M 32.171875 -5.078125 
Q 28.375 -14.84375 24.75 -17.8125 
Q 21.140625 -20.796875 15.09375 -20.796875 
L 7.90625 -20.796875 
L 7.90625 -13.28125 
L 13.1875 -13.28125 
Q 16.890625 -13.28125 18.9375 -11.515625 
Q 21 -9.765625 23.484375 -3.21875 
L 25.09375 0.875 
L 2.984375 54.6875 
L 12.5 54.6875 
L 29.59375 11.921875 
L 46.6875 54.6875 
L 56.203125 54.6875 
z
" id="DejaVuSans-121"/>
     </defs>
     <g transform="translate(18.882812 203.379375)rotate(-90)scale(0.1 -0.1)">
      <use xlink:href="#DejaVuSans-121"/>
     </g>
    </g>
   </g>
   <g id="line2d_33">
    <defs>
     <path d="M 0 1.5 
C 0.397805 1.5 0.77937 1.341951 1.06066 1.06066 
C 1.341951 0.77937 1.5 0.397805 1.5 0 
C 1.5 -0.397805 1.341951 -0.77937 1.06066 -1.06066 
C 0.77937 -1.341951 0.397805 -1.5 0 -1.5 
C -0.397805 -1.5 -0.77937 -1.341951 -1.06066 -1.06066 
C -1.341951 -0.77937 -1.5 -0.397805 -1.5 0 
C -1.5 0.397805 -1.341951 0.77937 -1.06066 1.06066 
C -0.77937 1.341951 -0.397805 1.5 0 1.5 
z
" id="m0852d5dae2" style="stroke:#000000;"/>
    </defs>
    <g clip-path="url(#pfb25cfbc69)">
     <use style="stroke:#000000;" x="80.54124" xlink:href="#m0852d5dae2" y="39.70851"/>
     <use style="stroke:#000000;" x="87.094848" xlink:href="#m0852d5dae2" y="295.628279"/>
     <use style="stroke:#000000;" x="100.202066" xlink:href="#m0852d5dae2" y="39.70851"/>
     <use style="stroke:#000000;" x="106.755675" xlink:href="#m0852d5dae2" y="286.953032"/>
     <use style="stroke:#000000;" x="113.309284" xlink:href="#m0852d5dae2" y="289.121844"/>
     <use style="stroke:#000000;" x="119.862893" xlink:href="#m0852d5dae2" y="39.70851"/>
     <use style="stroke:#000000;" x="126.416501" xlink:href="#m0852d5dae2" y="284.784221"/>
     <use style="stroke:#000000;" x="132.97011" xlink:href="#m0852d5dae2" y="293.459467"/>
     <use style="stroke:#000000;" x="139.523719" xlink:href="#m0852d5dae2" y="39.70851"/>
     <use style="stroke:#000000;" x="146.077328" xlink:href="#m0852d5dae2" y="284.784221"/>
     <use style="stroke:#000000;" x="152.630937" xlink:href="#m0852d5dae2" y="278.277786"/>
     <use style="stroke:#000000;" x="159.184545" xlink:href="#m0852d5dae2" y="39.70851"/>
     <use style="stroke:#000000;" x="165.738154" xlink:href="#m0852d5dae2" y="289.121844"/>
     <use style="stroke:#000000;" x="178.845372" xlink:href="#m0852d5dae2" y="39.70851"/>
     <use style="stroke:#000000;" x="185.398981" xlink:href="#m0852d5dae2" y="289.121844"/>
     <use style="stroke:#000000;" x="191.95259" xlink:href="#m0852d5dae2" y="282.615409"/>
     <use style="stroke:#000000;" x="198.506198" xlink:href="#m0852d5dae2" y="39.70851"/>
     <use style="stroke:#000000;" x="205.059807" xlink:href="#m0852d5dae2" y="289.121844"/>
     <use style="stroke:#000000;" x="211.613416" xlink:href="#m0852d5dae2" y="276.108974"/>
     <use style="stroke:#000000;" x="218.167025" xlink:href="#m0852d5dae2" y="39.70851"/>
     <use style="stroke:#000000;" x="224.720634" xlink:href="#m0852d5dae2" y="278.277786"/>
     <use style="stroke:#000000;" x="231.274242" xlink:href="#m0852d5dae2" y="289.121844"/>
     <use style="stroke:#000000;" x="237.827851" xlink:href="#m0852d5dae2" y="39.70851"/>
     <use style="stroke:#000000;" x="244.38146" xlink:href="#m0852d5dae2" y="284.784221"/>
     <use style="stroke:#000000;" x="250.935069" xlink:href="#m0852d5dae2" y="284.784221"/>
     <use style="stroke:#000000;" x="257.488678" xlink:href="#m0852d5dae2" y="39.70851"/>
     <use style="stroke:#000000;" x="264.042287" xlink:href="#m0852d5dae2" y="273.940163"/>
     <use style="stroke:#000000;" x="270.595895" xlink:href="#m0852d5dae2" y="286.953032"/>
     <use style="stroke:#000000;" x="277.149504" xlink:href="#m0852d5dae2" y="39.70851"/>
     <use style="stroke:#000000;" x="283.703113" xlink:href="#m0852d5dae2" y="289.121844"/>
     <use style="stroke:#000000;" x="290.256722" xlink:href="#m0852d5dae2" y="297.79709"/>
     <use style="stroke:#000000;" x="296.810331" xlink:href="#m0852d5dae2" y="39.70851"/>
     <use style="stroke:#000000;" x="303.363939" xlink:href="#m0852d5dae2" y="284.784221"/>
     <use style="stroke:#000000;" x="309.917548" xlink:href="#m0852d5dae2" y="293.459467"/>
     <use style="stroke:#000000;" x="316.471157" xlink:href="#m0852d5dae2" y="39.70851"/>
     <use style="stroke:#000000;" x="323.024766" xlink:href="#m0852d5dae2" y="289.121844"/>
     <use style="stroke:#000000;" x="329.578375" xlink:href="#m0852d5dae2" y="280.446598"/>
     <use style="stroke:#000000;" x="336.131983" xlink:href="#m0852d5dae2" y="39.70851"/>
     <use style="stroke:#000000;" x="342.685592" xlink:href="#m0852d5dae2" y="284.784221"/>
     <use style="stroke:#000000;" x="349.239201" xlink:href="#m0852d5dae2" y="284.784221"/>
     <use style="stroke:#000000;" x="355.79281" xlink:href="#m0852d5dae2" y="39.70851"/>
     <use style="stroke:#000000;" x="368.900028" xlink:href="#m0852d5dae2" y="289.121844"/>
     <use style="stroke:#000000;" x="382.007245" xlink:href="#m0852d5dae2" y="291.290656"/>
     <use style="stroke:#000000;" x="388.560854" xlink:href="#m0852d5dae2" y="289.121844"/>
     <use style="stroke:#000000;" x="395.114463" xlink:href="#m0852d5dae2" y="39.70851"/>
     <use style="stroke:#000000;" x="401.668072" xlink:href="#m0852d5dae2" y="289.121844"/>
     <use style="stroke:#000000;" x="414.775289" xlink:href="#m0852d5dae2" y="39.70851"/>
     <use style="stroke:#000000;" x="421.328898" xlink:href="#m0852d5dae2" y="269.60254"/>
     <use style="stroke:#000000;" x="427.882507" xlink:href="#m0852d5dae2" y="293.459467"/>
     <use style="stroke:#000000;" x="434.436116" xlink:href="#m0852d5dae2" y="39.70851"/>
     <use style="stroke:#000000;" x="447.543333" xlink:href="#m0852d5dae2" y="306.472337"/>
     <use style="stroke:#000000;" x="454.096942" xlink:href="#m0852d5dae2" y="39.70851"/>
     <use style="stroke:#000000;" x="460.650551" xlink:href="#m0852d5dae2" y="284.784221"/>
     <use style="stroke:#000000;" x="467.20416" xlink:href="#m0852d5dae2" y="276.108974"/>
     <use style="stroke:#000000;" x="473.757769" xlink:href="#m0852d5dae2" y="39.70851"/>
     <use style="stroke:#000000;" x="486.864986" xlink:href="#m0852d5dae2" y="291.290656"/>
     <use style="stroke:#000000;" x="493.418595" xlink:href="#m0852d5dae2" y="39.70851"/>
     <use style="stroke:#000000;" x="499.972204" xlink:href="#m0852d5dae2" y="284.784221"/>
     <use style="stroke:#000000;" x="506.525813" xlink:href="#m0852d5dae2" y="282.615409"/>
     <use style="stroke:#000000;" x="513.079421" xlink:href="#m0852d5dae2" y="39.70851"/>
     <use style="stroke:#000000;" x="519.63303" xlink:href="#m0852d5dae2" y="267.433728"/>
     <use style="stroke:#000000;" x="526.186639" xlink:href="#m0852d5dae2" y="284.784221"/>
     <use style="stroke:#000000;" x="532.740248" xlink:href="#m0852d5dae2" y="39.70851"/>
     <use style="stroke:#000000;" x="539.293857" xlink:href="#m0852d5dae2" y="289.121844"/>
     <use style="stroke:#000000;" x="545.847466" xlink:href="#m0852d5dae2" y="284.784221"/>
     <use style="stroke:#000000;" x="552.401074" xlink:href="#m0852d5dae2" y="39.70851"/>
     <use style="stroke:#000000;" x="558.954683" xlink:href="#m0852d5dae2" y="293.459467"/>
     <use style="stroke:#000000;" x="565.508292" xlink:href="#m0852d5dae2" y="286.953032"/>
     <use style="stroke:#000000;" x="572.061901" xlink:href="#m0852d5dae2" y="39.70851"/>
     <use style="stroke:#000000;" x="578.61551" xlink:href="#m0852d5dae2" y="278.277786"/>
     <use style="stroke:#000000;" x="585.169118" xlink:href="#m0852d5dae2" y="289.121844"/>
     <use style="stroke:#000000;" x="591.722727" xlink:href="#m0852d5dae2" y="39.70851"/>
     <use style="stroke:#000000;" x="604.829945" xlink:href="#m0852d5dae2" y="289.121844"/>
     <use style="stroke:#000000;" x="611.383554" xlink:href="#m0852d5dae2" y="39.70851"/>
     <use style="stroke:#000000;" x="617.937163" xlink:href="#m0852d5dae2" y="282.615409"/>
     <use style="stroke:#000000;" x="624.490771" xlink:href="#m0852d5dae2" y="291.290656"/>
     <use style="stroke:#000000;" x="631.04438" xlink:href="#m0852d5dae2" y="39.70851"/>
     <use style="stroke:#000000;" x="637.597989" xlink:href="#m0852d5dae2" y="291.290656"/>
     <use style="stroke:#000000;" x="650.705207" xlink:href="#m0852d5dae2" y="39.70851"/>
     <use style="stroke:#000000;" x="657.258815" xlink:href="#m0852d5dae2" y="284.784221"/>
     <use style="stroke:#000000;" x="663.812424" xlink:href="#m0852d5dae2" y="276.108974"/>
    </g>
   </g>
   <g id="line2d_34">
    <path clip-path="url(#pfb25cfbc69)" d="M 80.54124 183.200452 
L 87.094848 195.603571 
L 100.202066 199.932471 
L 106.755675 207.971538 
L 113.309284 201.240111 
L 119.862893 194.027017 
L 126.416501 183.545191 
L 132.97011 195.948311 
L 139.523719 186.778792 
L 146.077328 200.277211 
L 152.630937 208.316277 
L 159.184545 201.584851 
L 165.738154 194.371756 
L 178.845372 196.29305 
L 185.398981 187.123532 
L 191.95259 200.62195 
L 198.506198 208.661016 
L 205.059807 201.92959 
L 211.613416 194.716496 
L 218.167025 184.23467 
L 224.720634 196.637789 
L 231.274242 187.468271 
L 237.827851 200.966689 
L 244.38146 209.005756 
L 250.935069 202.274329 
L 257.488678 195.061235 
L 264.042287 184.579409 
L 270.595895 196.982529 
L 277.149504 187.81301 
L 283.703113 201.311429 
L 290.256722 209.350495 
L 296.810331 202.619069 
L 303.363939 195.405974 
L 309.917548 184.924149 
L 316.471157 197.327268 
L 323.024766 188.15775 
L 329.578375 201.656168 
L 336.131983 209.695234 
L 342.685592 202.963808 
L 349.239201 195.750714 
L 355.79281 185.268888 
L 368.900028 188.502489 
L 382.007245 210.039974 
L 388.560854 203.308547 
L 395.114463 196.095453 
L 401.668072 185.613627 
L 414.775289 188.847228 
L 421.328898 202.345647 
L 427.882507 210.384713 
L 434.436116 203.653287 
L 447.543333 185.958367 
L 454.096942 198.361486 
L 460.650551 189.191968 
L 467.20416 202.690386 
L 473.757769 210.729452 
L 486.864986 196.784932 
L 493.418595 186.303106 
L 499.972204 198.706226 
L 506.525813 189.536707 
L 513.079421 203.035126 
L 519.63303 211.074192 
L 526.186639 204.342765 
L 532.740248 197.129671 
L 539.293857 186.647846 
L 545.847466 199.050965 
L 552.401074 189.881447 
L 558.954683 203.379865 
L 565.508292 211.418931 
L 572.061901 204.687505 
L 578.61551 197.47441 
L 585.169118 186.992585 
L 591.722727 199.395704 
L 604.829945 203.724604 
L 611.383554 211.76367 
L 617.937163 205.032244 
L 624.490771 197.81915 
L 631.04438 187.337324 
L 637.597989 199.740444 
L 650.705207 204.069344 
L 657.258815 212.10841 
L 663.812424 205.376984 
L 670.366033 198.163889 
" style="fill:none;stroke:#0072b2;stroke-linecap:square;stroke-width:1.5;"/>
   </g>
   <g id="patch_3">
    <path d="M 51.05 390.04 
L 51.05 10.8 
" style="fill:none;stroke:#000000;stroke-linecap:square;stroke-linejoin:miter;stroke-width:0.8;"/>
   </g>
   <g id="patch_4">
    <path d="M 699.857273 390.04 
L 699.857273 10.8 
" style="fill:none;stroke:#000000;stroke-linecap:square;stroke-linejoin:miter;stroke-width:0.8;"/>
   </g>
   <g id="patch_5">
    <path d="M 51.05 390.04 
L 699.857273 390.04 
" style="fill:none;stroke:#000000;stroke-linecap:square;stroke-linejoin:miter;stroke-width:0.8;"/>
   </g>
   <g id="patch_6">
    <path d="M 51.05 10.8 
L 699.857273 10.8 
" style="fill:none;stroke:#000000;stroke-linecap:square;stroke-linejoin:miter;stroke-width:0.8;"/>
   </g>
  </g>
 </g>
 <defs>
  <clipPath id="pfb25cfbc69">
   <rect height="379.24" width="648.807273" x="51.05" y="10.8"/>
  </clipPath>
 </defs>
</svg>
