<?xml version="1.0" encoding="utf-8" standalone="no"?>
<!DOCTYPE svg PUBLIC "-//W3C//DTD SVG 1.1//EN"
  "http://www.w3.org/Graphics/SVG/1.1/DTD/svg11.dtd">
<!-- Created with matplotlib (https://matplotlib.org/) -->
<svg height="432pt" version="1.1" viewBox="0 0 720 432" width="720pt" xmlns="http://www.w3.org/2000/svg" xmlns:xlink="http://www.w3.org/1999/xlink">
 <defs>
  <style type="text/css">
*{stroke-linecap:butt;stroke-linejoin:round;}
  </style>
 </defs>
 <g id="figure_1">
  <g id="patch_1">
   <path d="M 0 432 
L 720 432 
L 720 0 
L 0 0 
z
" style="fill:#ffffff;"/>
  </g>
  <g id="axes_1">
   <g id="patch_2">
    <path d="M 51.05 390.04 
L 699.919211 390.04 
L 699.919211 14.04 
L 51.05 14.04 
z
" style="fill:#ffffff;"/>
   </g>
   <g id="PolyCollection_1">
    <defs>
     <path d="M 80.544055 -306.608825 
L 80.544055 -133.924757 
L 87.026265 -139.975924 
L 99.990685 -100.166768 
L 106.472895 -88.215501 
L 119.437314 -130.608944 
L 125.919524 -136.327147 
L 138.883944 -125.633335 
L 145.366154 -97.06174 
L 158.330574 -155.249813 
L 164.812784 -133.808374 
L 177.777204 -149.304379 
L 184.259413 -136.910919 
L 203.706043 -153.294003 
L 216.670463 -140.586956 
L 223.152673 -144.181088 
L 236.117093 -102.35477 
L 255.563722 -138.777381 
L 262.045932 -135.638476 
L 275.010352 -141.570474 
L 281.492562 -105.507199 
L 294.456982 -162.35248 
L 300.939192 -148.02237 
L 313.903611 -149.699094 
L 320.385821 -149.186646 
L 333.350241 -97.371771 
L 339.832451 -162.12697 
L 352.796871 -155.327516 
L 359.279081 -152.684436 
L 372.2435 -111.7224 
L 378.72571 -102.714128 
L 391.69013 -145.197466 
L 398.17234 -147.940302 
L 411.13676 -146.608372 
L 417.61897 -118.317121 
L 430.58339 -169.578241 
L 437.065599 -148.497222 
L 450.030019 -160.263854 
L 469.476649 -107.329092 
L 475.958859 -170.239944 
L 488.923279 -150.104594 
L 495.405489 -160.764184 
L 508.369908 -115.129635 
L 514.852118 -106.911703 
L 527.816538 -148.790976 
L 534.298748 -157.512061 
L 547.263168 -155.779075 
L 553.745378 -116.875008 
L 566.709797 -167.622081 
L 573.192007 -153.848844 
L 592.638637 -156.926913 
L 605.603057 -116.506621 
L 612.085267 -176.658069 
L 625.049686 -167.237167 
L 644.496316 -124.381759 
L 650.978526 -110.999397 
L 663.942946 -157.706838 
L 670.425156 -162.957535 
L 670.425156 -338.189866 
L 670.425156 -338.189866 
L 663.942946 -342.601462 
L 650.978526 -288.48586 
L 644.496316 -303.052132 
L 625.049686 -340.938149 
L 612.085267 -345.277695 
L 605.603057 -289.053883 
L 592.638637 -329.985301 
L 573.192007 -328.641275 
L 566.709797 -350.570526 
L 553.745378 -289.849443 
L 547.263168 -334.585637 
L 534.298748 -334.791566 
L 527.816538 -332.908594 
L 514.852118 -289.101479 
L 508.369908 -293.585049 
L 495.405489 -334.617224 
L 488.923279 -335.722267 
L 475.958859 -345.841314 
L 469.476649 -285.005855 
L 450.030019 -334.75336 
L 437.065599 -329.801503 
L 430.58339 -336.505213 
L 417.61897 -291.736353 
L 411.13676 -322.384612 
L 398.17234 -332.766601 
L 391.69013 -326.506158 
L 378.72571 -279.174258 
L 372.2435 -284.83513 
L 359.279081 -329.814078 
L 352.796871 -333.182469 
L 339.832451 -342.40905 
L 333.350241 -285.085882 
L 320.385821 -317.738431 
L 313.903611 -331.617961 
L 300.939192 -324.631991 
L 294.456982 -337.732068 
L 281.492562 -276.299663 
L 275.010352 -306.359939 
L 262.045932 -316.256783 
L 255.563722 -320.749012 
L 236.117093 -272.175286 
L 223.152673 -321.434906 
L 216.670463 -323.075626 
L 203.706043 -332.137864 
L 184.259413 -317.91763 
L 177.777204 -321.790654 
L 164.812784 -321.090313 
L 158.330574 -331.709498 
L 145.366154 -276.210899 
L 138.883944 -317.083073 
L 125.919524 -327.433618 
L 119.437314 -311.026514 
L 106.472895 -272.059224 
L 99.990685 -274.620407 
L 87.026265 -320.933555 
L 80.544055 -306.608825 
z
" id="me6804d633f" style="stroke:#0072b2;stroke-opacity:0.2;"/>
    </defs>
    <g clip-path="url(#p15a1b132ca)">
     <use style="fill:#0072b2;fill-opacity:0.2;stroke:#0072b2;stroke-opacity:0.2;" x="0" xlink:href="#me6804d633f" y="432"/>
    </g>
   </g>
   <g id="matplotlib.axis_1">
    <g id="xtick_1">
     <g id="line2d_1">
      <path clip-path="url(#p15a1b132ca)" d="M 132.401734 390.04 
L 132.401734 14.04 
" style="fill:none;stroke:#808080;stroke-linecap:square;stroke-opacity:0.2;"/>
     </g>
     <g id="line2d_2">
      <defs>
       <path d="M 0 0 
L 0 3.5 
" id="mcb8842f625" style="stroke:#000000;stroke-width:0.8;"/>
      </defs>
      <g>
       <use style="stroke:#000000;stroke-width:0.8;" x="132.401734" xlink:href="#mcb8842f625" y="390.04"/>
      </g>
     </g>
     <g id="text_1">
      <!-- 2019-05-10 -->
      <defs>
       <path d="M 19.1875 8.296875 
L 53.609375 8.296875 
L 53.609375 0 
L 7.328125 0 
L 7.328125 8.296875 
Q 12.9375 14.109375 22.625 23.890625 
Q 32.328125 33.6875 34.8125 36.53125 
Q 39.546875 41.84375 41.421875 45.53125 
Q 43.3125 49.21875 43.3125 52.78125 
Q 43.3125 58.59375 39.234375 62.25 
Q 35.15625 65.921875 28.609375 65.921875 
Q 23.96875 65.921875 18.8125 64.3125 
Q 13.671875 62.703125 7.8125 59.421875 
L 7.8125 69.390625 
Q 13.765625 71.78125 18.9375 73 
Q 24.125 74.21875 28.421875 74.21875 
Q 39.75 74.21875 46.484375 68.546875 
Q 53.21875 62.890625 53.21875 53.421875 
Q 53.21875 48.921875 51.53125 44.890625 
Q 49.859375 40.875 45.40625 35.40625 
Q 44.1875 33.984375 37.640625 27.21875 
Q 31.109375 20.453125 19.1875 8.296875 
z
" id="DejaVuSans-50"/>
       <path d="M 31.78125 66.40625 
Q 24.171875 66.40625 20.328125 58.90625 
Q 16.5 51.421875 16.5 36.375 
Q 16.5 21.390625 20.328125 13.890625 
Q 24.171875 6.390625 31.78125 6.390625 
Q 39.453125 6.390625 43.28125 13.890625 
Q 47.125 21.390625 47.125 36.375 
Q 47.125 51.421875 43.28125 58.90625 
Q 39.453125 66.40625 31.78125 66.40625 
z
M 31.78125 74.21875 
Q 44.046875 74.21875 50.515625 64.515625 
Q 56.984375 54.828125 56.984375 36.375 
Q 56.984375 17.96875 50.515625 8.265625 
Q 44.046875 -1.421875 31.78125 -1.421875 
Q 19.53125 -1.421875 13.0625 8.265625 
Q 6.59375 17.96875 6.59375 36.375 
Q 6.59375 54.828125 13.0625 64.515625 
Q 19.53125 74.21875 31.78125 74.21875 
z
" id="DejaVuSans-48"/>
       <path d="M 12.40625 8.296875 
L 28.515625 8.296875 
L 28.515625 63.921875 
L 10.984375 60.40625 
L 10.984375 69.390625 
L 28.421875 72.90625 
L 38.28125 72.90625 
L 38.28125 8.296875 
L 54.390625 8.296875 
L 54.390625 0 
L 12.40625 0 
z
" id="DejaVuSans-49"/>
       <path d="M 10.984375 1.515625 
L 10.984375 10.5 
Q 14.703125 8.734375 18.5 7.8125 
Q 22.3125 6.890625 25.984375 6.890625 
Q 35.75 6.890625 40.890625 13.453125 
Q 46.046875 20.015625 46.78125 33.40625 
Q 43.953125 29.203125 39.59375 26.953125 
Q 35.25 24.703125 29.984375 24.703125 
Q 19.046875 24.703125 12.671875 31.3125 
Q 6.296875 37.9375 6.296875 49.421875 
Q 6.296875 60.640625 12.9375 67.421875 
Q 19.578125 74.21875 30.609375 74.21875 
Q 43.265625 74.21875 49.921875 64.515625 
Q 56.59375 54.828125 56.59375 36.375 
Q 56.59375 19.140625 48.40625 8.859375 
Q 40.234375 -1.421875 26.421875 -1.421875 
Q 22.703125 -1.421875 18.890625 -0.6875 
Q 15.09375 0.046875 10.984375 1.515625 
z
M 30.609375 32.421875 
Q 37.25 32.421875 41.125 36.953125 
Q 45.015625 41.5 45.015625 49.421875 
Q 45.015625 57.28125 41.125 61.84375 
Q 37.25 66.40625 30.609375 66.40625 
Q 23.96875 66.40625 20.09375 61.84375 
Q 16.21875 57.28125 16.21875 49.421875 
Q 16.21875 41.5 20.09375 36.953125 
Q 23.96875 32.421875 30.609375 32.421875 
z
" id="DejaVuSans-57"/>
       <path d="M 4.890625 31.390625 
L 31.203125 31.390625 
L 31.203125 23.390625 
L 4.890625 23.390625 
z
" id="DejaVuSans-45"/>
       <path d="M 10.796875 72.90625 
L 49.515625 72.90625 
L 49.515625 64.59375 
L 19.828125 64.59375 
L 19.828125 46.734375 
Q 21.96875 47.46875 24.109375 47.828125 
Q 26.265625 48.1875 28.421875 48.1875 
Q 40.625 48.1875 47.75 41.5 
Q 54.890625 34.8125 54.890625 23.390625 
Q 54.890625 11.625 47.5625 5.09375 
Q 40.234375 -1.421875 26.90625 -1.421875 
Q 22.3125 -1.421875 17.546875 -0.640625 
Q 12.796875 0.140625 7.71875 1.703125 
L 7.71875 11.625 
Q 12.109375 9.234375 16.796875 8.0625 
Q 21.484375 6.890625 26.703125 6.890625 
Q 35.15625 6.890625 40.078125 11.328125 
Q 45.015625 15.765625 45.015625 23.390625 
Q 45.015625 31 40.078125 35.4375 
Q 35.15625 39.890625 26.703125 39.890625 
Q 22.75 39.890625 18.8125 39.015625 
Q 14.890625 38.140625 10.796875 36.28125 
z
" id="DejaVuSans-53"/>
      </defs>
      <g transform="translate(103.343922 404.638438)scale(0.1 -0.1)">
       <use xlink:href="#DejaVuSans-50"/>
       <use x="63.623047" xlink:href="#DejaVuSans-48"/>
       <use x="127.246094" xlink:href="#DejaVuSans-49"/>
       <use x="190.869141" xlink:href="#DejaVuSans-57"/>
       <use x="254.492188" xlink:href="#DejaVuSans-45"/>
       <use x="290.576172" xlink:href="#DejaVuSans-48"/>
       <use x="354.199219" xlink:href="#DejaVuSans-53"/>
       <use x="417.822266" xlink:href="#DejaVuSans-45"/>
       <use x="453.90625" xlink:href="#DejaVuSans-49"/>
       <use x="517.529297" xlink:href="#DejaVuSans-48"/>
      </g>
     </g>
    </g>
    <g id="xtick_2">
     <g id="line2d_3">
      <path clip-path="url(#p15a1b132ca)" d="M 223.152673 390.04 
L 223.152673 14.04 
" style="fill:none;stroke:#808080;stroke-linecap:square;stroke-opacity:0.2;"/>
     </g>
     <g id="line2d_4">
      <g>
       <use style="stroke:#000000;stroke-width:0.8;" x="223.152673" xlink:href="#mcb8842f625" y="390.04"/>
      </g>
     </g>
     <g id="text_2">
      <!-- 2019-05-24 -->
      <defs>
       <path d="M 37.796875 64.3125 
L 12.890625 25.390625 
L 37.796875 25.390625 
z
M 35.203125 72.90625 
L 47.609375 72.90625 
L 47.609375 25.390625 
L 58.015625 25.390625 
L 58.015625 17.1875 
L 47.609375 17.1875 
L 47.609375 0 
L 37.796875 0 
L 37.796875 17.1875 
L 4.890625 17.1875 
L 4.890625 26.703125 
z
" id="DejaVuSans-52"/>
      </defs>
      <g transform="translate(194.09486 404.638438)scale(0.1 -0.1)">
       <use xlink:href="#DejaVuSans-50"/>
       <use x="63.623047" xlink:href="#DejaVuSans-48"/>
       <use x="127.246094" xlink:href="#DejaVuSans-49"/>
       <use x="190.869141" xlink:href="#DejaVuSans-57"/>
       <use x="254.492188" xlink:href="#DejaVuSans-45"/>
       <use x="290.576172" xlink:href="#DejaVuSans-48"/>
       <use x="354.199219" xlink:href="#DejaVuSans-53"/>
       <use x="417.822266" xlink:href="#DejaVuSans-45"/>
       <use x="453.90625" xlink:href="#DejaVuSans-50"/>
       <use x="517.529297" xlink:href="#DejaVuSans-52"/>
      </g>
     </g>
    </g>
    <g id="xtick_3">
     <g id="line2d_5">
      <path clip-path="url(#p15a1b132ca)" d="M 313.903611 390.04 
L 313.903611 14.04 
" style="fill:none;stroke:#808080;stroke-linecap:square;stroke-opacity:0.2;"/>
     </g>
     <g id="line2d_6">
      <g>
       <use style="stroke:#000000;stroke-width:0.8;" x="313.903611" xlink:href="#mcb8842f625" y="390.04"/>
      </g>
     </g>
     <g id="text_3">
      <!-- 2019-06-07 -->
      <defs>
       <path d="M 33.015625 40.375 
Q 26.375 40.375 22.484375 35.828125 
Q 18.609375 31.296875 18.609375 23.390625 
Q 18.609375 15.53125 22.484375 10.953125 
Q 26.375 6.390625 33.015625 6.390625 
Q 39.65625 6.390625 43.53125 10.953125 
Q 47.40625 15.53125 47.40625 23.390625 
Q 47.40625 31.296875 43.53125 35.828125 
Q 39.65625 40.375 33.015625 40.375 
z
M 52.59375 71.296875 
L 52.59375 62.3125 
Q 48.875 64.0625 45.09375 64.984375 
Q 41.3125 65.921875 37.59375 65.921875 
Q 27.828125 65.921875 22.671875 59.328125 
Q 17.53125 52.734375 16.796875 39.40625 
Q 19.671875 43.65625 24.015625 45.921875 
Q 28.375 48.1875 33.59375 48.1875 
Q 44.578125 48.1875 50.953125 41.515625 
Q 57.328125 34.859375 57.328125 23.390625 
Q 57.328125 12.15625 50.6875 5.359375 
Q 44.046875 -1.421875 33.015625 -1.421875 
Q 20.359375 -1.421875 13.671875 8.265625 
Q 6.984375 17.96875 6.984375 36.375 
Q 6.984375 53.65625 15.1875 63.9375 
Q 23.390625 74.21875 37.203125 74.21875 
Q 40.921875 74.21875 44.703125 73.484375 
Q 48.484375 72.75 52.59375 71.296875 
z
" id="DejaVuSans-54"/>
       <path d="M 8.203125 72.90625 
L 55.078125 72.90625 
L 55.078125 68.703125 
L 28.609375 0 
L 18.3125 0 
L 43.21875 64.59375 
L 8.203125 64.59375 
z
" id="DejaVuSans-55"/>
      </defs>
      <g transform="translate(284.845799 404.638438)scale(0.1 -0.1)">
       <use xlink:href="#DejaVuSans-50"/>
       <use x="63.623047" xlink:href="#DejaVuSans-48"/>
       <use x="127.246094" xlink:href="#DejaVuSans-49"/>
       <use x="190.869141" xlink:href="#DejaVuSans-57"/>
       <use x="254.492188" xlink:href="#DejaVuSans-45"/>
       <use x="290.576172" xlink:href="#DejaVuSans-48"/>
       <use x="354.199219" xlink:href="#DejaVuSans-54"/>
       <use x="417.822266" xlink:href="#DejaVuSans-45"/>
       <use x="453.90625" xlink:href="#DejaVuSans-48"/>
       <use x="517.529297" xlink:href="#DejaVuSans-55"/>
      </g>
     </g>
    </g>
    <g id="xtick_4">
     <g id="line2d_7">
      <path clip-path="url(#p15a1b132ca)" d="M 404.65455 390.04 
L 404.65455 14.04 
" style="fill:none;stroke:#808080;stroke-linecap:square;stroke-opacity:0.2;"/>
     </g>
     <g id="line2d_8">
      <g>
       <use style="stroke:#000000;stroke-width:0.8;" x="404.65455" xlink:href="#mcb8842f625" y="390.04"/>
      </g>
     </g>
     <g id="text_4">
      <!-- 2019-06-21 -->
      <g transform="translate(375.596737 404.638438)scale(0.1 -0.1)">
       <use xlink:href="#DejaVuSans-50"/>
       <use x="63.623047" xlink:href="#DejaVuSans-48"/>
       <use x="127.246094" xlink:href="#DejaVuSans-49"/>
       <use x="190.869141" xlink:href="#DejaVuSans-57"/>
       <use x="254.492188" xlink:href="#DejaVuSans-45"/>
       <use x="290.576172" xlink:href="#DejaVuSans-48"/>
       <use x="354.199219" xlink:href="#DejaVuSans-54"/>
       <use x="417.822266" xlink:href="#DejaVuSans-45"/>
       <use x="453.90625" xlink:href="#DejaVuSans-50"/>
       <use x="517.529297" xlink:href="#DejaVuSans-49"/>
      </g>
     </g>
    </g>
    <g id="xtick_5">
     <g id="line2d_9">
      <path clip-path="url(#p15a1b132ca)" d="M 495.405489 390.04 
L 495.405489 14.04 
" style="fill:none;stroke:#808080;stroke-linecap:square;stroke-opacity:0.2;"/>
     </g>
     <g id="line2d_10">
      <g>
       <use style="stroke:#000000;stroke-width:0.8;" x="495.405489" xlink:href="#mcb8842f625" y="390.04"/>
      </g>
     </g>
     <g id="text_5">
      <!-- 2019-07-05 -->
      <g transform="translate(466.347676 404.638438)scale(0.1 -0.1)">
       <use xlink:href="#DejaVuSans-50"/>
       <use x="63.623047" xlink:href="#DejaVuSans-48"/>
       <use x="127.246094" xlink:href="#DejaVuSans-49"/>
       <use x="190.869141" xlink:href="#DejaVuSans-57"/>
       <use x="254.492188" xlink:href="#DejaVuSans-45"/>
       <use x="290.576172" xlink:href="#DejaVuSans-48"/>
       <use x="354.199219" xlink:href="#DejaVuSans-55"/>
       <use x="417.822266" xlink:href="#DejaVuSans-45"/>
       <use x="453.90625" xlink:href="#DejaVuSans-48"/>
       <use x="517.529297" xlink:href="#DejaVuSans-53"/>
      </g>
     </g>
    </g>
    <g id="xtick_6">
     <g id="line2d_11">
      <path clip-path="url(#p15a1b132ca)" d="M 586.156427 390.04 
L 586.156427 14.04 
" style="fill:none;stroke:#808080;stroke-linecap:square;stroke-opacity:0.2;"/>
     </g>
     <g id="line2d_12">
      <g>
       <use style="stroke:#000000;stroke-width:0.8;" x="586.156427" xlink:href="#mcb8842f625" y="390.04"/>
      </g>
     </g>
     <g id="text_6">
      <!-- 2019-07-19 -->
      <g transform="translate(557.098615 404.638438)scale(0.1 -0.1)">
       <use xlink:href="#DejaVuSans-50"/>
       <use x="63.623047" xlink:href="#DejaVuSans-48"/>
       <use x="127.246094" xlink:href="#DejaVuSans-49"/>
       <use x="190.869141" xlink:href="#DejaVuSans-57"/>
       <use x="254.492188" xlink:href="#DejaVuSans-45"/>
       <use x="290.576172" xlink:href="#DejaVuSans-48"/>
       <use x="354.199219" xlink:href="#DejaVuSans-55"/>
       <use x="417.822266" xlink:href="#DejaVuSans-45"/>
       <use x="453.90625" xlink:href="#DejaVuSans-49"/>
       <use x="517.529297" xlink:href="#DejaVuSans-57"/>
      </g>
     </g>
    </g>
    <g id="xtick_7">
     <g id="line2d_13">
      <path clip-path="url(#p15a1b132ca)" d="M 676.907366 390.04 
L 676.907366 14.04 
" style="fill:none;stroke:#808080;stroke-linecap:square;stroke-opacity:0.2;"/>
     </g>
     <g id="line2d_14">
      <g>
       <use style="stroke:#000000;stroke-width:0.8;" x="676.907366" xlink:href="#mcb8842f625" y="390.04"/>
      </g>
     </g>
     <g id="text_7">
      <!-- 2019-08-02 -->
      <defs>
       <path d="M 31.78125 34.625 
Q 24.75 34.625 20.71875 30.859375 
Q 16.703125 27.09375 16.703125 20.515625 
Q 16.703125 13.921875 20.71875 10.15625 
Q 24.75 6.390625 31.78125 6.390625 
Q 38.8125 6.390625 42.859375 10.171875 
Q 46.921875 13.96875 46.921875 20.515625 
Q 46.921875 27.09375 42.890625 30.859375 
Q 38.875 34.625 31.78125 34.625 
z
M 21.921875 38.8125 
Q 15.578125 40.375 12.03125 44.71875 
Q 8.5 49.078125 8.5 55.328125 
Q 8.5 64.0625 14.71875 69.140625 
Q 20.953125 74.21875 31.78125 74.21875 
Q 42.671875 74.21875 48.875 69.140625 
Q 55.078125 64.0625 55.078125 55.328125 
Q 55.078125 49.078125 51.53125 44.71875 
Q 48 40.375 41.703125 38.8125 
Q 48.828125 37.15625 52.796875 32.3125 
Q 56.78125 27.484375 56.78125 20.515625 
Q 56.78125 9.90625 50.3125 4.234375 
Q 43.84375 -1.421875 31.78125 -1.421875 
Q 19.734375 -1.421875 13.25 4.234375 
Q 6.78125 9.90625 6.78125 20.515625 
Q 6.78125 27.484375 10.78125 32.3125 
Q 14.796875 37.15625 21.921875 38.8125 
z
M 18.3125 54.390625 
Q 18.3125 48.734375 21.84375 45.5625 
Q 25.390625 42.390625 31.78125 42.390625 
Q 38.140625 42.390625 41.71875 45.5625 
Q 45.3125 48.734375 45.3125 54.390625 
Q 45.3125 60.0625 41.71875 63.234375 
Q 38.140625 66.40625 31.78125 66.40625 
Q 25.390625 66.40625 21.84375 63.234375 
Q 18.3125 60.0625 18.3125 54.390625 
z
" id="DejaVuSans-56"/>
      </defs>
      <g transform="translate(647.849553 404.638438)scale(0.1 -0.1)">
       <use xlink:href="#DejaVuSans-50"/>
       <use x="63.623047" xlink:href="#DejaVuSans-48"/>
       <use x="127.246094" xlink:href="#DejaVuSans-49"/>
       <use x="190.869141" xlink:href="#DejaVuSans-57"/>
       <use x="254.492188" xlink:href="#DejaVuSans-45"/>
       <use x="290.576172" xlink:href="#DejaVuSans-48"/>
       <use x="354.199219" xlink:href="#DejaVuSans-56"/>
       <use x="417.822266" xlink:href="#DejaVuSans-45"/>
       <use x="453.90625" xlink:href="#DejaVuSans-48"/>
       <use x="517.529297" xlink:href="#DejaVuSans-50"/>
      </g>
     </g>
    </g>
    <g id="text_8">
     <!-- ds -->
     <defs>
      <path d="M 45.40625 46.390625 
L 45.40625 75.984375 
L 54.390625 75.984375 
L 54.390625 0 
L 45.40625 0 
L 45.40625 8.203125 
Q 42.578125 3.328125 38.25 0.953125 
Q 33.9375 -1.421875 27.875 -1.421875 
Q 17.96875 -1.421875 11.734375 6.484375 
Q 5.515625 14.40625 5.515625 27.296875 
Q 5.515625 40.1875 11.734375 48.09375 
Q 17.96875 56 27.875 56 
Q 33.9375 56 38.25 53.625 
Q 42.578125 51.265625 45.40625 46.390625 
z
M 14.796875 27.296875 
Q 14.796875 17.390625 18.875 11.75 
Q 22.953125 6.109375 30.078125 6.109375 
Q 37.203125 6.109375 41.296875 11.75 
Q 45.40625 17.390625 45.40625 27.296875 
Q 45.40625 37.203125 41.296875 42.84375 
Q 37.203125 48.484375 30.078125 48.484375 
Q 22.953125 48.484375 18.875 42.84375 
Q 14.796875 37.203125 14.796875 27.296875 
z
" id="DejaVuSans-100"/>
      <path d="M 44.28125 53.078125 
L 44.28125 44.578125 
Q 40.484375 46.53125 36.375 47.5 
Q 32.28125 48.484375 27.875 48.484375 
Q 21.1875 48.484375 17.84375 46.4375 
Q 14.5 44.390625 14.5 40.28125 
Q 14.5 37.15625 16.890625 35.375 
Q 19.28125 33.59375 26.515625 31.984375 
L 29.59375 31.296875 
Q 39.15625 29.25 43.1875 25.515625 
Q 47.21875 21.78125 47.21875 15.09375 
Q 47.21875 7.46875 41.1875 3.015625 
Q 35.15625 -1.421875 24.609375 -1.421875 
Q 20.21875 -1.421875 15.453125 -0.5625 
Q 10.6875 0.296875 5.421875 2 
L 5.421875 11.28125 
Q 10.40625 8.6875 15.234375 7.390625 
Q 20.0625 6.109375 24.8125 6.109375 
Q 31.15625 6.109375 34.5625 8.28125 
Q 37.984375 10.453125 37.984375 14.40625 
Q 37.984375 18.0625 35.515625 20.015625 
Q 33.0625 21.96875 24.703125 23.78125 
L 21.578125 24.515625 
Q 13.234375 26.265625 9.515625 29.90625 
Q 5.8125 33.546875 5.8125 39.890625 
Q 5.8125 47.609375 11.28125 51.796875 
Q 16.75 56 26.8125 56 
Q 31.78125 56 36.171875 55.265625 
Q 40.578125 54.546875 44.28125 53.078125 
z
" id="DejaVuSans-115"/>
     </defs>
     <g transform="translate(369.705699 418.316562)scale(0.1 -0.1)">
      <use xlink:href="#DejaVuSans-100"/>
      <use x="63.476562" xlink:href="#DejaVuSans-115"/>
     </g>
    </g>
   </g>
   <g id="matplotlib.axis_2">
    <g id="ytick_1">
     <g id="line2d_15">
      <path clip-path="url(#p15a1b132ca)" d="M 51.05 340.394978 
L 699.919211 340.394978 
" style="fill:none;stroke:#808080;stroke-linecap:square;stroke-opacity:0.2;"/>
     </g>
     <g id="line2d_16">
      <defs>
       <path d="M 0 0 
L -3.5 0 
" id="m1e734770d2" style="stroke:#000000;stroke-width:0.8;"/>
      </defs>
      <g>
       <use style="stroke:#000000;stroke-width:0.8;" x="51.05" xlink:href="#m1e734770d2" y="340.394978"/>
      </g>
     </g>
     <g id="text_9">
      <!-- 140 -->
      <g transform="translate(24.9625 344.194197)scale(0.1 -0.1)">
       <use xlink:href="#DejaVuSans-49"/>
       <use x="63.623047" xlink:href="#DejaVuSans-52"/>
       <use x="127.246094" xlink:href="#DejaVuSans-48"/>
      </g>
     </g>
    </g>
    <g id="ytick_2">
     <g id="line2d_17">
      <path clip-path="url(#p15a1b132ca)" d="M 51.05 259.009697 
L 699.919211 259.009697 
" style="fill:none;stroke:#808080;stroke-linecap:square;stroke-opacity:0.2;"/>
     </g>
     <g id="line2d_18">
      <g>
       <use style="stroke:#000000;stroke-width:0.8;" x="51.05" xlink:href="#m1e734770d2" y="259.009697"/>
      </g>
     </g>
     <g id="text_10">
      <!-- 145 -->
      <g transform="translate(24.9625 262.808916)scale(0.1 -0.1)">
       <use xlink:href="#DejaVuSans-49"/>
       <use x="63.623047" xlink:href="#DejaVuSans-52"/>
       <use x="127.246094" xlink:href="#DejaVuSans-53"/>
      </g>
     </g>
    </g>
    <g id="ytick_3">
     <g id="line2d_19">
      <path clip-path="url(#p15a1b132ca)" d="M 51.05 177.624416 
L 699.919211 177.624416 
" style="fill:none;stroke:#808080;stroke-linecap:square;stroke-opacity:0.2;"/>
     </g>
     <g id="line2d_20">
      <g>
       <use style="stroke:#000000;stroke-width:0.8;" x="51.05" xlink:href="#m1e734770d2" y="177.624416"/>
      </g>
     </g>
     <g id="text_11">
      <!-- 150 -->
      <g transform="translate(24.9625 181.423634)scale(0.1 -0.1)">
       <use xlink:href="#DejaVuSans-49"/>
       <use x="63.623047" xlink:href="#DejaVuSans-53"/>
       <use x="127.246094" xlink:href="#DejaVuSans-48"/>
      </g>
     </g>
    </g>
    <g id="ytick_4">
     <g id="line2d_21">
      <path clip-path="url(#p15a1b132ca)" d="M 51.05 96.239134 
L 699.919211 96.239134 
" style="fill:none;stroke:#808080;stroke-linecap:square;stroke-opacity:0.2;"/>
     </g>
     <g id="line2d_22">
      <g>
       <use style="stroke:#000000;stroke-width:0.8;" x="51.05" xlink:href="#m1e734770d2" y="96.239134"/>
      </g>
     </g>
     <g id="text_12">
      <!-- 155 -->
      <g transform="translate(24.9625 100.038353)scale(0.1 -0.1)">
       <use xlink:href="#DejaVuSans-49"/>
       <use x="63.623047" xlink:href="#DejaVuSans-53"/>
       <use x="127.246094" xlink:href="#DejaVuSans-53"/>
      </g>
     </g>
    </g>
    <g id="ytick_5">
     <g id="line2d_23">
      <path clip-path="url(#p15a1b132ca)" d="M 51.05 14.853853 
L 699.919211 14.853853 
" style="fill:none;stroke:#808080;stroke-linecap:square;stroke-opacity:0.2;"/>
     </g>
     <g id="line2d_24">
      <g>
       <use style="stroke:#000000;stroke-width:0.8;" x="51.05" xlink:href="#m1e734770d2" y="14.853853"/>
      </g>
     </g>
     <g id="text_13">
      <!-- 160 -->
      <g transform="translate(24.9625 18.653072)scale(0.1 -0.1)">
       <use xlink:href="#DejaVuSans-49"/>
       <use x="63.623047" xlink:href="#DejaVuSans-54"/>
       <use x="127.246094" xlink:href="#DejaVuSans-48"/>
      </g>
     </g>
    </g>
    <g id="text_14">
     <!-- y -->
     <defs>
      <path d="M 32.171875 -5.078125 
Q 28.375 -14.84375 24.75 -17.8125 
Q 21.140625 -20.796875 15.09375 -20.796875 
L 7.90625 -20.796875 
L 7.90625 -13.28125 
L 13.1875 -13.28125 
Q 16.890625 -13.28125 18.9375 -11.515625 
Q 21 -9.765625 23.484375 -3.21875 
L 25.09375 0.875 
L 2.984375 54.6875 
L 12.5 54.6875 
L 29.59375 11.921875 
L 46.6875 54.6875 
L 56.203125 54.6875 
z
" id="DejaVuSans-121"/>
     </defs>
     <g transform="translate(18.882812 204.999375)rotate(-90)scale(0.1 -0.1)">
      <use xlink:href="#DejaVuSans-121"/>
     </g>
    </g>
   </g>
   <g id="line2d_25">
    <defs>
     <path d="M 0 1.5 
C 0.397805 1.5 0.77937 1.341951 1.06066 1.06066 
C 1.341951 0.77937 1.5 0.397805 1.5 0 
C 1.5 -0.397805 1.341951 -0.77937 1.06066 -1.06066 
C 0.77937 -1.341951 0.397805 -1.5 0 -1.5 
C -0.397805 -1.5 -0.77937 -1.341951 -1.06066 -1.06066 
C -1.341951 -0.77937 -1.5 -0.397805 -1.5 0 
C -1.5 0.397805 -1.341951 0.77937 -1.06066 1.06066 
C -0.77937 1.341951 -0.397805 1.5 0 1.5 
z
" id="m3c42fe6d40" style="stroke:#000000;"/>
    </defs>
    <g clip-path="url(#p15a1b132ca)">
     <use style="stroke:#000000;" x="80.544055" xlink:href="#m3c42fe6d40" y="96.239134"/>
     <use style="stroke:#000000;" x="87.026265" xlink:href="#m3c42fe6d40" y="242.732641"/>
     <use style="stroke:#000000;" x="99.990685" xlink:href="#m3c42fe6d40" y="372.949091"/>
     <use style="stroke:#000000;" x="106.472895" xlink:href="#m3c42fe6d40" y="275.286753"/>
     <use style="stroke:#000000;" x="119.437314" xlink:href="#m3c42fe6d40" y="145.070303"/>
     <use style="stroke:#000000;" x="125.919524" xlink:href="#m3c42fe6d40" y="112.51619"/>
     <use style="stroke:#000000;" x="138.883944" xlink:href="#m3c42fe6d40" y="145.070303"/>
     <use style="stroke:#000000;" x="145.366154" xlink:href="#m3c42fe6d40" y="145.070303"/>
     <use style="stroke:#000000;" x="158.330574" xlink:href="#m3c42fe6d40" y="307.840866"/>
     <use style="stroke:#000000;" x="164.812784" xlink:href="#m3c42fe6d40" y="112.51619"/>
     <use style="stroke:#000000;" x="177.777204" xlink:href="#m3c42fe6d40" y="242.732641"/>
     <use style="stroke:#000000;" x="184.259413" xlink:href="#m3c42fe6d40" y="177.624416"/>
     <use style="stroke:#000000;" x="203.706043" xlink:href="#m3c42fe6d40" y="210.178528"/>
     <use style="stroke:#000000;" x="216.670463" xlink:href="#m3c42fe6d40" y="324.117922"/>
     <use style="stroke:#000000;" x="223.152673" xlink:href="#m3c42fe6d40" y="307.840866"/>
     <use style="stroke:#000000;" x="236.117093" xlink:href="#m3c42fe6d40" y="307.840866"/>
     <use style="stroke:#000000;" x="255.563722" xlink:href="#m3c42fe6d40" y="259.009697"/>
     <use style="stroke:#000000;" x="262.045932" xlink:href="#m3c42fe6d40" y="177.624416"/>
     <use style="stroke:#000000;" x="275.010352" xlink:href="#m3c42fe6d40" y="291.56381"/>
     <use style="stroke:#000000;" x="281.492562" xlink:href="#m3c42fe6d40" y="128.793247"/>
     <use style="stroke:#000000;" x="294.456982" xlink:href="#m3c42fe6d40" y="226.455584"/>
     <use style="stroke:#000000;" x="300.939192" xlink:href="#m3c42fe6d40" y="193.901472"/>
     <use style="stroke:#000000;" x="313.903611" xlink:href="#m3c42fe6d40" y="226.455584"/>
     <use style="stroke:#000000;" x="320.385821" xlink:href="#m3c42fe6d40" y="177.624416"/>
     <use style="stroke:#000000;" x="333.350241" xlink:href="#m3c42fe6d40" y="193.901472"/>
     <use style="stroke:#000000;" x="339.832451" xlink:href="#m3c42fe6d40" y="112.51619"/>
     <use style="stroke:#000000;" x="352.796871" xlink:href="#m3c42fe6d40" y="145.070303"/>
     <use style="stroke:#000000;" x="359.279081" xlink:href="#m3c42fe6d40" y="31.130909"/>
     <use style="stroke:#000000;" x="372.2435" xlink:href="#m3c42fe6d40" y="145.070303"/>
     <use style="stroke:#000000;" x="378.72571" xlink:href="#m3c42fe6d40" y="275.286753"/>
     <use style="stroke:#000000;" x="391.69013" xlink:href="#m3c42fe6d40" y="177.624416"/>
     <use style="stroke:#000000;" x="398.17234" xlink:href="#m3c42fe6d40" y="242.732641"/>
     <use style="stroke:#000000;" x="411.13676" xlink:href="#m3c42fe6d40" y="242.732641"/>
     <use style="stroke:#000000;" x="417.61897" xlink:href="#m3c42fe6d40" y="242.732641"/>
     <use style="stroke:#000000;" x="430.58339" xlink:href="#m3c42fe6d40" y="226.455584"/>
     <use style="stroke:#000000;" x="437.065599" xlink:href="#m3c42fe6d40" y="193.901472"/>
     <use style="stroke:#000000;" x="450.030019" xlink:href="#m3c42fe6d40" y="128.793247"/>
     <use style="stroke:#000000;" x="469.476649" xlink:href="#m3c42fe6d40" y="356.672035"/>
     <use style="stroke:#000000;" x="475.958859" xlink:href="#m3c42fe6d40" y="177.624416"/>
     <use style="stroke:#000000;" x="488.923279" xlink:href="#m3c42fe6d40" y="291.56381"/>
     <use style="stroke:#000000;" x="495.405489" xlink:href="#m3c42fe6d40" y="177.624416"/>
     <use style="stroke:#000000;" x="508.369908" xlink:href="#m3c42fe6d40" y="259.009697"/>
     <use style="stroke:#000000;" x="514.852118" xlink:href="#m3c42fe6d40" y="242.732641"/>
     <use style="stroke:#000000;" x="527.816538" xlink:href="#m3c42fe6d40" y="226.455584"/>
     <use style="stroke:#000000;" x="534.298748" xlink:href="#m3c42fe6d40" y="145.070303"/>
     <use style="stroke:#000000;" x="547.263168" xlink:href="#m3c42fe6d40" y="226.455584"/>
     <use style="stroke:#000000;" x="553.745378" xlink:href="#m3c42fe6d40" y="242.732641"/>
     <use style="stroke:#000000;" x="566.709797" xlink:href="#m3c42fe6d40" y="112.51619"/>
     <use style="stroke:#000000;" x="573.192007" xlink:href="#m3c42fe6d40" y="177.624416"/>
     <use style="stroke:#000000;" x="592.638637" xlink:href="#m3c42fe6d40" y="128.793247"/>
     <use style="stroke:#000000;" x="605.603057" xlink:href="#m3c42fe6d40" y="177.624416"/>
     <use style="stroke:#000000;" x="612.085267" xlink:href="#m3c42fe6d40" y="63.685022"/>
     <use style="stroke:#000000;" x="625.049686" xlink:href="#m3c42fe6d40" y="226.455584"/>
     <use style="stroke:#000000;" x="644.496316" xlink:href="#m3c42fe6d40" y="275.286753"/>
     <use style="stroke:#000000;" x="650.978526" xlink:href="#m3c42fe6d40" y="128.793247"/>
     <use style="stroke:#000000;" x="663.942946" xlink:href="#m3c42fe6d40" y="275.286753"/>
    </g>
   </g>
   <g id="line2d_26">
    <path clip-path="url(#p15a1b132ca)" d="M 80.544055 207.781965 
L 87.026265 203.768789 
L 99.990685 247.652764 
L 106.472895 251.026919 
L 119.437314 207.784658 
L 125.919524 205.723014 
L 138.883944 208.436481 
L 145.366154 245.593813 
L 158.330574 190.093302 
L 164.812784 205.725707 
L 177.777204 199.650886 
L 184.259413 206.37753 
L 203.706043 188.034351 
L 216.670463 201.601807 
L 223.152673 197.586978 
L 236.117093 241.462375 
L 255.563722 201.578524 
L 262.045932 199.511632 
L 275.010352 202.214602 
L 281.492562 239.366685 
L 294.456982 183.855678 
L 300.939192 199.482834 
L 313.903611 193.397517 
L 320.385821 200.118912 
L 333.350241 240.639903 
L 339.832451 181.759988 
L 352.796871 195.320252 
L 359.279081 191.301827 
L 372.2435 235.175306 
L 378.72571 238.544213 
L 391.69013 195.291454 
L 398.17234 193.224562 
L 411.13676 195.927533 
L 417.61897 233.079616 
L 430.58339 177.568608 
L 437.065599 193.195765 
L 450.030019 187.110448 
L 469.476649 234.346726 
L 475.958859 175.464775 
L 488.923279 189.020859 
L 495.405489 185.000344 
L 508.369908 228.868338 
L 514.852118 232.234503 
L 527.816538 188.97626 
L 534.298748 186.906626 
L 547.263168 189.604112 
L 553.745378 226.753453 
L 566.709797 171.236961 
L 573.192007 186.861375 
L 592.638637 187.489227 
L 605.603057 228.004733 
L 612.085267 169.122077 
L 625.049686 182.676856 
L 644.496316 222.523684 
L 650.978526 225.889849 
L 663.942946 182.631606 
L 670.425156 180.561972 
" style="fill:none;stroke:#0072b2;stroke-linecap:square;stroke-width:1.5;"/>
   </g>
   <g id="patch_3">
    <path d="M 51.05 390.04 
L 51.05 14.04 
" style="fill:none;stroke:#000000;stroke-linecap:square;stroke-linejoin:miter;stroke-width:0.8;"/>
   </g>
   <g id="patch_4">
    <path d="M 699.919211 390.04 
L 699.919211 14.04 
" style="fill:none;stroke:#000000;stroke-linecap:square;stroke-linejoin:miter;stroke-width:0.8;"/>
   </g>
   <g id="patch_5">
    <path d="M 51.05 390.04 
L 699.919211 390.04 
" style="fill:none;stroke:#000000;stroke-linecap:square;stroke-linejoin:miter;stroke-width:0.8;"/>
   </g>
   <g id="patch_6">
    <path d="M 51.05 14.04 
L 699.919211 14.04 
" style="fill:none;stroke:#000000;stroke-linecap:square;stroke-linejoin:miter;stroke-width:0.8;"/>
   </g>
  </g>
 </g>
 <defs>
  <clipPath id="p15a1b132ca">
   <rect height="376" width="648.869211" x="51.05" y="14.04"/>
  </clipPath>
 </defs>
</svg>
