<?xml version="1.0" encoding="utf-8" standalone="no"?>
<!DOCTYPE svg PUBLIC "-//W3C//DTD SVG 1.1//EN"
  "http://www.w3.org/Graphics/SVG/1.1/DTD/svg11.dtd">
<!-- Created with matplotlib (https://matplotlib.org/) -->
<svg height="432pt" version="1.1" viewBox="0 0 720 432" width="720pt" xmlns="http://www.w3.org/2000/svg" xmlns:xlink="http://www.w3.org/1999/xlink">
 <defs>
  <style type="text/css">
*{stroke-linecap:butt;stroke-linejoin:round;}
  </style>
 </defs>
 <g id="figure_1">
  <g id="patch_1">
   <path d="M 0 432 
L 720 432 
L 720 0 
L 0 0 
z
" style="fill:#ffffff;"/>
  </g>
  <g id="axes_1">
   <g id="patch_2">
    <path d="M 60.59 390.04 
L 693.270197 390.04 
L 693.270197 10.8 
L 60.59 10.8 
z
" style="fill:#ffffff;"/>
   </g>
   <g id="PolyCollection_1">
    <defs>
     <path d="M 89.348191 -219.988504 
L 89.348191 -59.198182 
L 96.277875 -80.807266 
L 110.137244 -112.540515 
L 117.066929 -101.347122 
L 130.926298 -86.654563 
L 137.855982 -64.993904 
L 151.715352 -87.10334 
L 158.645036 -117.925155 
L 172.504405 -71.794488 
L 179.43409 -93.164402 
L 193.293459 -91.324801 
L 200.223143 -89.766457 
L 214.082512 -110.849573 
L 221.012197 -84.711504 
L 234.871566 -78.141706 
L 241.80125 -103.402526 
L 255.660619 -128.603553 
L 262.590304 -107.354234 
L 276.449673 -100.441629 
L 283.379357 -80.692213 
L 297.238727 -99.375752 
L 304.168411 -132.528988 
L 318.02778 -102.246701 
L 324.957465 -108.082259 
L 338.816834 -118.620214 
L 345.746518 -111.574932 
L 359.605887 -119.835564 
L 366.535572 -103.094703 
L 380.394941 -91.459617 
L 387.324625 -125.60117 
L 401.183994 -145.980183 
L 408.113679 -141.724087 
L 421.973048 -128.22354 
L 428.902733 -110.142046 
L 442.762102 -131.149862 
L 449.691786 -161.6482 
L 463.551155 -127.143203 
L 470.48084 -137.060627 
L 484.340209 -146.812292 
L 491.269893 -139.648514 
L 505.129262 -163.564693 
L 512.058947 -140.044098 
L 525.918316 -139.500623 
L 532.848 -160.79244 
L 546.707369 -184.997006 
L 553.637054 -175.500491 
L 567.496423 -169.537262 
L 574.426108 -141.458953 
L 588.285477 -178.238625 
L 595.215161 -193.038874 
L 609.07453 -166.312422 
L 616.004215 -174.240687 
L 629.863584 -186.00814 
L 636.793268 -180.766808 
L 650.652637 -201.158312 
L 657.582322 -179.828497 
L 664.512006 -187.589922 
L 664.512006 -359.456034 
L 664.512006 -359.456034 
L 657.582322 -340.722174 
L 650.652637 -365.20543 
L 636.793268 -353.597971 
L 629.863584 -349.143957 
L 616.004215 -343.447029 
L 609.07453 -328.045207 
L 595.215161 -353.434084 
L 588.285477 -334.722975 
L 574.426108 -309.70187 
L 567.496423 -335.476485 
L 553.637054 -335.95189 
L 546.707369 -356.336181 
L 532.848 -321.421178 
L 525.918316 -294.643795 
L 512.058947 -303.761246 
L 505.129262 -326.250527 
L 491.269893 -305.479667 
L 484.340209 -304.913794 
L 470.48084 -300.106351 
L 463.551155 -294.625193 
L 449.691786 -319.489458 
L 442.762102 -289.545758 
L 428.902733 -268.92743 
L 421.973048 -280.923877 
L 408.113679 -297.869501 
L 401.183994 -305.44988 
L 387.324625 -285.391746 
L 380.394941 -257.080391 
L 366.535572 -259.71387 
L 359.605887 -286.481558 
L 345.746518 -274.867899 
L 338.816834 -281.081411 
L 324.957465 -268.188917 
L 318.02778 -259.56206 
L 304.168411 -296.181981 
L 297.238727 -265.596924 
L 283.379357 -240.001976 
L 276.449673 -260.557504 
L 262.590304 -276.028888 
L 255.660619 -287.34372 
L 241.80125 -261.17236 
L 234.871566 -241.807977 
L 221.012197 -243.48398 
L 214.082512 -273.334304 
L 200.223143 -250.855057 
L 193.293459 -258.292052 
L 179.43409 -258.036444 
L 172.504405 -237.57805 
L 158.645036 -280.57698 
L 151.715352 -250.623948 
L 137.855982 -220.437406 
L 130.926298 -249.023694 
L 117.066929 -256.601651 
L 110.137244 -265.167758 
L 96.277875 -246.981406 
L 89.348191 -219.988504 
z
" id="m8e71062b1a" style="stroke:#0072b2;stroke-opacity:0.2;"/>
    </defs>
    <g clip-path="url(#pe379a77c64)">
     <use style="fill:#0072b2;fill-opacity:0.2;stroke:#0072b2;stroke-opacity:0.2;" x="0" xlink:href="#m8e71062b1a" y="432"/>
    </g>
   </g>
   <g id="matplotlib.axis_1">
    <g id="xtick_1">
     <g id="line2d_1">
      <path clip-path="url(#pe379a77c64)" d="M 96.277875 390.04 
L 96.277875 10.8 
" style="fill:none;stroke:#808080;stroke-linecap:square;stroke-opacity:0.2;"/>
     </g>
     <g id="line2d_2">
      <defs>
       <path d="M 0 0 
L 0 3.5 
" id="m84cbad7b29" style="stroke:#000000;stroke-width:0.8;"/>
      </defs>
      <g>
       <use style="stroke:#000000;stroke-width:0.8;" x="96.277875" xlink:href="#m84cbad7b29" y="390.04"/>
      </g>
     </g>
     <g id="text_1">
      <!-- 2019-09-30 -->
      <defs>
       <path d="M 19.1875 8.296875 
L 53.609375 8.296875 
L 53.609375 0 
L 7.328125 0 
L 7.328125 8.296875 
Q 12.9375 14.109375 22.625 23.890625 
Q 32.328125 33.6875 34.8125 36.53125 
Q 39.546875 41.84375 41.421875 45.53125 
Q 43.3125 49.21875 43.3125 52.78125 
Q 43.3125 58.59375 39.234375 62.25 
Q 35.15625 65.921875 28.609375 65.921875 
Q 23.96875 65.921875 18.8125 64.3125 
Q 13.671875 62.703125 7.8125 59.421875 
L 7.8125 69.390625 
Q 13.765625 71.78125 18.9375 73 
Q 24.125 74.21875 28.421875 74.21875 
Q 39.75 74.21875 46.484375 68.546875 
Q 53.21875 62.890625 53.21875 53.421875 
Q 53.21875 48.921875 51.53125 44.890625 
Q 49.859375 40.875 45.40625 35.40625 
Q 44.1875 33.984375 37.640625 27.21875 
Q 31.109375 20.453125 19.1875 8.296875 
z
" id="DejaVuSans-50"/>
       <path d="M 31.78125 66.40625 
Q 24.171875 66.40625 20.328125 58.90625 
Q 16.5 51.421875 16.5 36.375 
Q 16.5 21.390625 20.328125 13.890625 
Q 24.171875 6.390625 31.78125 6.390625 
Q 39.453125 6.390625 43.28125 13.890625 
Q 47.125 21.390625 47.125 36.375 
Q 47.125 51.421875 43.28125 58.90625 
Q 39.453125 66.40625 31.78125 66.40625 
z
M 31.78125 74.21875 
Q 44.046875 74.21875 50.515625 64.515625 
Q 56.984375 54.828125 56.984375 36.375 
Q 56.984375 17.96875 50.515625 8.265625 
Q 44.046875 -1.421875 31.78125 -1.421875 
Q 19.53125 -1.421875 13.0625 8.265625 
Q 6.59375 17.96875 6.59375 36.375 
Q 6.59375 54.828125 13.0625 64.515625 
Q 19.53125 74.21875 31.78125 74.21875 
z
" id="DejaVuSans-48"/>
       <path d="M 12.40625 8.296875 
L 28.515625 8.296875 
L 28.515625 63.921875 
L 10.984375 60.40625 
L 10.984375 69.390625 
L 28.421875 72.90625 
L 38.28125 72.90625 
L 38.28125 8.296875 
L 54.390625 8.296875 
L 54.390625 0 
L 12.40625 0 
z
" id="DejaVuSans-49"/>
       <path d="M 10.984375 1.515625 
L 10.984375 10.5 
Q 14.703125 8.734375 18.5 7.8125 
Q 22.3125 6.890625 25.984375 6.890625 
Q 35.75 6.890625 40.890625 13.453125 
Q 46.046875 20.015625 46.78125 33.40625 
Q 43.953125 29.203125 39.59375 26.953125 
Q 35.25 24.703125 29.984375 24.703125 
Q 19.046875 24.703125 12.671875 31.3125 
Q 6.296875 37.9375 6.296875 49.421875 
Q 6.296875 60.640625 12.9375 67.421875 
Q 19.578125 74.21875 30.609375 74.21875 
Q 43.265625 74.21875 49.921875 64.515625 
Q 56.59375 54.828125 56.59375 36.375 
Q 56.59375 19.140625 48.40625 8.859375 
Q 40.234375 -1.421875 26.421875 -1.421875 
Q 22.703125 -1.421875 18.890625 -0.6875 
Q 15.09375 0.046875 10.984375 1.515625 
z
M 30.609375 32.421875 
Q 37.25 32.421875 41.125 36.953125 
Q 45.015625 41.5 45.015625 49.421875 
Q 45.015625 57.28125 41.125 61.84375 
Q 37.25 66.40625 30.609375 66.40625 
Q 23.96875 66.40625 20.09375 61.84375 
Q 16.21875 57.28125 16.21875 49.421875 
Q 16.21875 41.5 20.09375 36.953125 
Q 23.96875 32.421875 30.609375 32.421875 
z
" id="DejaVuSans-57"/>
       <path d="M 4.890625 31.390625 
L 31.203125 31.390625 
L 31.203125 23.390625 
L 4.890625 23.390625 
z
" id="DejaVuSans-45"/>
       <path d="M 40.578125 39.3125 
Q 47.65625 37.796875 51.625 33 
Q 55.609375 28.21875 55.609375 21.1875 
Q 55.609375 10.40625 48.1875 4.484375 
Q 40.765625 -1.421875 27.09375 -1.421875 
Q 22.515625 -1.421875 17.65625 -0.515625 
Q 12.796875 0.390625 7.625 2.203125 
L 7.625 11.71875 
Q 11.71875 9.328125 16.59375 8.109375 
Q 21.484375 6.890625 26.8125 6.890625 
Q 36.078125 6.890625 40.9375 10.546875 
Q 45.796875 14.203125 45.796875 21.1875 
Q 45.796875 27.640625 41.28125 31.265625 
Q 36.765625 34.90625 28.71875 34.90625 
L 20.21875 34.90625 
L 20.21875 43.015625 
L 29.109375 43.015625 
Q 36.375 43.015625 40.234375 45.921875 
Q 44.09375 48.828125 44.09375 54.296875 
Q 44.09375 59.90625 40.109375 62.90625 
Q 36.140625 65.921875 28.71875 65.921875 
Q 24.65625 65.921875 20.015625 65.03125 
Q 15.375 64.15625 9.8125 62.3125 
L 9.8125 71.09375 
Q 15.4375 72.65625 20.34375 73.4375 
Q 25.25 74.21875 29.59375 74.21875 
Q 40.828125 74.21875 47.359375 69.109375 
Q 53.90625 64.015625 53.90625 55.328125 
Q 53.90625 49.265625 50.4375 45.09375 
Q 46.96875 40.921875 40.578125 39.3125 
z
" id="DejaVuSans-51"/>
      </defs>
      <g transform="translate(67.220063 404.638438)scale(0.1 -0.1)">
       <use xlink:href="#DejaVuSans-50"/>
       <use x="63.623047" xlink:href="#DejaVuSans-48"/>
       <use x="127.246094" xlink:href="#DejaVuSans-49"/>
       <use x="190.869141" xlink:href="#DejaVuSans-57"/>
       <use x="254.492188" xlink:href="#DejaVuSans-45"/>
       <use x="290.576172" xlink:href="#DejaVuSans-48"/>
       <use x="354.199219" xlink:href="#DejaVuSans-57"/>
       <use x="417.822266" xlink:href="#DejaVuSans-45"/>
       <use x="453.90625" xlink:href="#DejaVuSans-51"/>
       <use x="517.529297" xlink:href="#DejaVuSans-48"/>
      </g>
     </g>
    </g>
    <g id="xtick_2">
     <g id="line2d_3">
      <path clip-path="url(#pe379a77c64)" d="M 193.293459 390.04 
L 193.293459 10.8 
" style="fill:none;stroke:#808080;stroke-linecap:square;stroke-opacity:0.2;"/>
     </g>
     <g id="line2d_4">
      <g>
       <use style="stroke:#000000;stroke-width:0.8;" x="193.293459" xlink:href="#m84cbad7b29" y="390.04"/>
      </g>
     </g>
     <g id="text_2">
      <!-- 2019-10-14 -->
      <defs>
       <path d="M 37.796875 64.3125 
L 12.890625 25.390625 
L 37.796875 25.390625 
z
M 35.203125 72.90625 
L 47.609375 72.90625 
L 47.609375 25.390625 
L 58.015625 25.390625 
L 58.015625 17.1875 
L 47.609375 17.1875 
L 47.609375 0 
L 37.796875 0 
L 37.796875 17.1875 
L 4.890625 17.1875 
L 4.890625 26.703125 
z
" id="DejaVuSans-52"/>
      </defs>
      <g transform="translate(164.235646 404.638438)scale(0.1 -0.1)">
       <use xlink:href="#DejaVuSans-50"/>
       <use x="63.623047" xlink:href="#DejaVuSans-48"/>
       <use x="127.246094" xlink:href="#DejaVuSans-49"/>
       <use x="190.869141" xlink:href="#DejaVuSans-57"/>
       <use x="254.492188" xlink:href="#DejaVuSans-45"/>
       <use x="290.576172" xlink:href="#DejaVuSans-49"/>
       <use x="354.199219" xlink:href="#DejaVuSans-48"/>
       <use x="417.822266" xlink:href="#DejaVuSans-45"/>
       <use x="453.90625" xlink:href="#DejaVuSans-49"/>
       <use x="517.529297" xlink:href="#DejaVuSans-52"/>
      </g>
     </g>
    </g>
    <g id="xtick_3">
     <g id="line2d_5">
      <path clip-path="url(#pe379a77c64)" d="M 290.309042 390.04 
L 290.309042 10.8 
" style="fill:none;stroke:#808080;stroke-linecap:square;stroke-opacity:0.2;"/>
     </g>
     <g id="line2d_6">
      <g>
       <use style="stroke:#000000;stroke-width:0.8;" x="290.309042" xlink:href="#m84cbad7b29" y="390.04"/>
      </g>
     </g>
     <g id="text_3">
      <!-- 2019-10-28 -->
      <defs>
       <path d="M 31.78125 34.625 
Q 24.75 34.625 20.71875 30.859375 
Q 16.703125 27.09375 16.703125 20.515625 
Q 16.703125 13.921875 20.71875 10.15625 
Q 24.75 6.390625 31.78125 6.390625 
Q 38.8125 6.390625 42.859375 10.171875 
Q 46.921875 13.96875 46.921875 20.515625 
Q 46.921875 27.09375 42.890625 30.859375 
Q 38.875 34.625 31.78125 34.625 
z
M 21.921875 38.8125 
Q 15.578125 40.375 12.03125 44.71875 
Q 8.5 49.078125 8.5 55.328125 
Q 8.5 64.0625 14.71875 69.140625 
Q 20.953125 74.21875 31.78125 74.21875 
Q 42.671875 74.21875 48.875 69.140625 
Q 55.078125 64.0625 55.078125 55.328125 
Q 55.078125 49.078125 51.53125 44.71875 
Q 48 40.375 41.703125 38.8125 
Q 48.828125 37.15625 52.796875 32.3125 
Q 56.78125 27.484375 56.78125 20.515625 
Q 56.78125 9.90625 50.3125 4.234375 
Q 43.84375 -1.421875 31.78125 -1.421875 
Q 19.734375 -1.421875 13.25 4.234375 
Q 6.78125 9.90625 6.78125 20.515625 
Q 6.78125 27.484375 10.78125 32.3125 
Q 14.796875 37.15625 21.921875 38.8125 
z
M 18.3125 54.390625 
Q 18.3125 48.734375 21.84375 45.5625 
Q 25.390625 42.390625 31.78125 42.390625 
Q 38.140625 42.390625 41.71875 45.5625 
Q 45.3125 48.734375 45.3125 54.390625 
Q 45.3125 60.0625 41.71875 63.234375 
Q 38.140625 66.40625 31.78125 66.40625 
Q 25.390625 66.40625 21.84375 63.234375 
Q 18.3125 60.0625 18.3125 54.390625 
z
" id="DejaVuSans-56"/>
      </defs>
      <g transform="translate(261.25123 404.638438)scale(0.1 -0.1)">
       <use xlink:href="#DejaVuSans-50"/>
       <use x="63.623047" xlink:href="#DejaVuSans-48"/>
       <use x="127.246094" xlink:href="#DejaVuSans-49"/>
       <use x="190.869141" xlink:href="#DejaVuSans-57"/>
       <use x="254.492188" xlink:href="#DejaVuSans-45"/>
       <use x="290.576172" xlink:href="#DejaVuSans-49"/>
       <use x="354.199219" xlink:href="#DejaVuSans-48"/>
       <use x="417.822266" xlink:href="#DejaVuSans-45"/>
       <use x="453.90625" xlink:href="#DejaVuSans-50"/>
       <use x="517.529297" xlink:href="#DejaVuSans-56"/>
      </g>
     </g>
    </g>
    <g id="xtick_4">
     <g id="line2d_7">
      <path clip-path="url(#pe379a77c64)" d="M 387.324625 390.04 
L 387.324625 10.8 
" style="fill:none;stroke:#808080;stroke-linecap:square;stroke-opacity:0.2;"/>
     </g>
     <g id="line2d_8">
      <g>
       <use style="stroke:#000000;stroke-width:0.8;" x="387.324625" xlink:href="#m84cbad7b29" y="390.04"/>
      </g>
     </g>
     <g id="text_4">
      <!-- 2019-11-11 -->
      <g transform="translate(358.266813 404.638438)scale(0.1 -0.1)">
       <use xlink:href="#DejaVuSans-50"/>
       <use x="63.623047" xlink:href="#DejaVuSans-48"/>
       <use x="127.246094" xlink:href="#DejaVuSans-49"/>
       <use x="190.869141" xlink:href="#DejaVuSans-57"/>
       <use x="254.492188" xlink:href="#DejaVuSans-45"/>
       <use x="290.576172" xlink:href="#DejaVuSans-49"/>
       <use x="354.199219" xlink:href="#DejaVuSans-49"/>
       <use x="417.822266" xlink:href="#DejaVuSans-45"/>
       <use x="453.90625" xlink:href="#DejaVuSans-49"/>
       <use x="517.529297" xlink:href="#DejaVuSans-49"/>
      </g>
     </g>
    </g>
    <g id="xtick_5">
     <g id="line2d_9">
      <path clip-path="url(#pe379a77c64)" d="M 484.340209 390.04 
L 484.340209 10.8 
" style="fill:none;stroke:#808080;stroke-linecap:square;stroke-opacity:0.2;"/>
     </g>
     <g id="line2d_10">
      <g>
       <use style="stroke:#000000;stroke-width:0.8;" x="484.340209" xlink:href="#m84cbad7b29" y="390.04"/>
      </g>
     </g>
     <g id="text_5">
      <!-- 2019-11-25 -->
      <defs>
       <path d="M 10.796875 72.90625 
L 49.515625 72.90625 
L 49.515625 64.59375 
L 19.828125 64.59375 
L 19.828125 46.734375 
Q 21.96875 47.46875 24.109375 47.828125 
Q 26.265625 48.1875 28.421875 48.1875 
Q 40.625 48.1875 47.75 41.5 
Q 54.890625 34.8125 54.890625 23.390625 
Q 54.890625 11.625 47.5625 5.09375 
Q 40.234375 -1.421875 26.90625 -1.421875 
Q 22.3125 -1.421875 17.546875 -0.640625 
Q 12.796875 0.140625 7.71875 1.703125 
L 7.71875 11.625 
Q 12.109375 9.234375 16.796875 8.0625 
Q 21.484375 6.890625 26.703125 6.890625 
Q 35.15625 6.890625 40.078125 11.328125 
Q 45.015625 15.765625 45.015625 23.390625 
Q 45.015625 31 40.078125 35.4375 
Q 35.15625 39.890625 26.703125 39.890625 
Q 22.75 39.890625 18.8125 39.015625 
Q 14.890625 38.140625 10.796875 36.28125 
z
" id="DejaVuSans-53"/>
      </defs>
      <g transform="translate(455.282396 404.638438)scale(0.1 -0.1)">
       <use xlink:href="#DejaVuSans-50"/>
       <use x="63.623047" xlink:href="#DejaVuSans-48"/>
       <use x="127.246094" xlink:href="#DejaVuSans-49"/>
       <use x="190.869141" xlink:href="#DejaVuSans-57"/>
       <use x="254.492188" xlink:href="#DejaVuSans-45"/>
       <use x="290.576172" xlink:href="#DejaVuSans-49"/>
       <use x="354.199219" xlink:href="#DejaVuSans-49"/>
       <use x="417.822266" xlink:href="#DejaVuSans-45"/>
       <use x="453.90625" xlink:href="#DejaVuSans-50"/>
       <use x="517.529297" xlink:href="#DejaVuSans-53"/>
      </g>
     </g>
    </g>
    <g id="xtick_6">
     <g id="line2d_11">
      <path clip-path="url(#pe379a77c64)" d="M 581.355792 390.04 
L 581.355792 10.8 
" style="fill:none;stroke:#808080;stroke-linecap:square;stroke-opacity:0.2;"/>
     </g>
     <g id="line2d_12">
      <g>
       <use style="stroke:#000000;stroke-width:0.8;" x="581.355792" xlink:href="#m84cbad7b29" y="390.04"/>
      </g>
     </g>
     <g id="text_6">
      <!-- 2019-12-09 -->
      <g transform="translate(552.29798 404.638438)scale(0.1 -0.1)">
       <use xlink:href="#DejaVuSans-50"/>
       <use x="63.623047" xlink:href="#DejaVuSans-48"/>
       <use x="127.246094" xlink:href="#DejaVuSans-49"/>
       <use x="190.869141" xlink:href="#DejaVuSans-57"/>
       <use x="254.492188" xlink:href="#DejaVuSans-45"/>
       <use x="290.576172" xlink:href="#DejaVuSans-49"/>
       <use x="354.199219" xlink:href="#DejaVuSans-50"/>
       <use x="417.822266" xlink:href="#DejaVuSans-45"/>
       <use x="453.90625" xlink:href="#DejaVuSans-48"/>
       <use x="517.529297" xlink:href="#DejaVuSans-57"/>
      </g>
     </g>
    </g>
    <g id="xtick_7">
     <g id="line2d_13">
      <path clip-path="url(#pe379a77c64)" d="M 678.371375 390.04 
L 678.371375 10.8 
" style="fill:none;stroke:#808080;stroke-linecap:square;stroke-opacity:0.2;"/>
     </g>
     <g id="line2d_14">
      <g>
       <use style="stroke:#000000;stroke-width:0.8;" x="678.371375" xlink:href="#m84cbad7b29" y="390.04"/>
      </g>
     </g>
     <g id="text_7">
      <!-- 2019-12-23 -->
      <g transform="translate(649.313563 404.638438)scale(0.1 -0.1)">
       <use xlink:href="#DejaVuSans-50"/>
       <use x="63.623047" xlink:href="#DejaVuSans-48"/>
       <use x="127.246094" xlink:href="#DejaVuSans-49"/>
       <use x="190.869141" xlink:href="#DejaVuSans-57"/>
       <use x="254.492188" xlink:href="#DejaVuSans-45"/>
       <use x="290.576172" xlink:href="#DejaVuSans-49"/>
       <use x="354.199219" xlink:href="#DejaVuSans-50"/>
       <use x="417.822266" xlink:href="#DejaVuSans-45"/>
       <use x="453.90625" xlink:href="#DejaVuSans-50"/>
       <use x="517.529297" xlink:href="#DejaVuSans-51"/>
      </g>
     </g>
    </g>
    <g id="text_8">
     <!-- ds -->
     <defs>
      <path d="M 45.40625 46.390625 
L 45.40625 75.984375 
L 54.390625 75.984375 
L 54.390625 0 
L 45.40625 0 
L 45.40625 8.203125 
Q 42.578125 3.328125 38.25 0.953125 
Q 33.9375 -1.421875 27.875 -1.421875 
Q 17.96875 -1.421875 11.734375 6.484375 
Q 5.515625 14.40625 5.515625 27.296875 
Q 5.515625 40.1875 11.734375 48.09375 
Q 17.96875 56 27.875 56 
Q 33.9375 56 38.25 53.625 
Q 42.578125 51.265625 45.40625 46.390625 
z
M 14.796875 27.296875 
Q 14.796875 17.390625 18.875 11.75 
Q 22.953125 6.109375 30.078125 6.109375 
Q 37.203125 6.109375 41.296875 11.75 
Q 45.40625 17.390625 45.40625 27.296875 
Q 45.40625 37.203125 41.296875 42.84375 
Q 37.203125 48.484375 30.078125 48.484375 
Q 22.953125 48.484375 18.875 42.84375 
Q 14.796875 37.203125 14.796875 27.296875 
z
" id="DejaVuSans-100"/>
      <path d="M 44.28125 53.078125 
L 44.28125 44.578125 
Q 40.484375 46.53125 36.375 47.5 
Q 32.28125 48.484375 27.875 48.484375 
Q 21.1875 48.484375 17.84375 46.4375 
Q 14.5 44.390625 14.5 40.28125 
Q 14.5 37.15625 16.890625 35.375 
Q 19.28125 33.59375 26.515625 31.984375 
L 29.59375 31.296875 
Q 39.15625 29.25 43.1875 25.515625 
Q 47.21875 21.78125 47.21875 15.09375 
Q 47.21875 7.46875 41.1875 3.015625 
Q 35.15625 -1.421875 24.609375 -1.421875 
Q 20.21875 -1.421875 15.453125 -0.5625 
Q 10.6875 0.296875 5.421875 2 
L 5.421875 11.28125 
Q 10.40625 8.6875 15.234375 7.390625 
Q 20.0625 6.109375 24.8125 6.109375 
Q 31.15625 6.109375 34.5625 8.28125 
Q 37.984375 10.453125 37.984375 14.40625 
Q 37.984375 18.0625 35.515625 20.015625 
Q 33.0625 21.96875 24.703125 23.78125 
L 21.578125 24.515625 
Q 13.234375 26.265625 9.515625 29.90625 
Q 5.8125 33.546875 5.8125 39.890625 
Q 5.8125 47.609375 11.28125 51.796875 
Q 16.75 56 26.8125 56 
Q 31.78125 56 36.171875 55.265625 
Q 40.578125 54.546875 44.28125 53.078125 
z
" id="DejaVuSans-115"/>
     </defs>
     <g transform="translate(371.151192 418.316562)scale(0.1 -0.1)">
      <use xlink:href="#DejaVuSans-100"/>
      <use x="63.476562" xlink:href="#DejaVuSans-115"/>
     </g>
    </g>
   </g>
   <g id="matplotlib.axis_2">
    <g id="ytick_1">
     <g id="line2d_15">
      <path clip-path="url(#pe379a77c64)" d="M 60.59 375.752821 
L 693.270197 375.752821 
" style="fill:none;stroke:#808080;stroke-linecap:square;stroke-opacity:0.2;"/>
     </g>
     <g id="line2d_16">
      <defs>
       <path d="M 0 0 
L -3.5 0 
" id="mc180a9d2ab" style="stroke:#000000;stroke-width:0.8;"/>
      </defs>
      <g>
       <use style="stroke:#000000;stroke-width:0.8;" x="60.59" xlink:href="#mc180a9d2ab" y="375.752821"/>
      </g>
     </g>
     <g id="text_9">
      <!-- 147.5 -->
      <defs>
       <path d="M 8.203125 72.90625 
L 55.078125 72.90625 
L 55.078125 68.703125 
L 28.609375 0 
L 18.3125 0 
L 43.21875 64.59375 
L 8.203125 64.59375 
z
" id="DejaVuSans-55"/>
       <path d="M 10.6875 12.40625 
L 21 12.40625 
L 21 0 
L 10.6875 0 
z
" id="DejaVuSans-46"/>
      </defs>
      <g transform="translate(24.961875 379.55204)scale(0.1 -0.1)">
       <use xlink:href="#DejaVuSans-49"/>
       <use x="63.623047" xlink:href="#DejaVuSans-52"/>
       <use x="127.246094" xlink:href="#DejaVuSans-55"/>
       <use x="190.869141" xlink:href="#DejaVuSans-46"/>
       <use x="222.65625" xlink:href="#DejaVuSans-53"/>
      </g>
     </g>
    </g>
    <g id="ytick_2">
     <g id="line2d_17">
      <path clip-path="url(#pe379a77c64)" d="M 60.59 328.764356 
L 693.270197 328.764356 
" style="fill:none;stroke:#808080;stroke-linecap:square;stroke-opacity:0.2;"/>
     </g>
     <g id="line2d_18">
      <g>
       <use style="stroke:#000000;stroke-width:0.8;" x="60.59" xlink:href="#mc180a9d2ab" y="328.764356"/>
      </g>
     </g>
     <g id="text_10">
      <!-- 150.0 -->
      <g transform="translate(24.961875 332.563575)scale(0.1 -0.1)">
       <use xlink:href="#DejaVuSans-49"/>
       <use x="63.623047" xlink:href="#DejaVuSans-53"/>
       <use x="127.246094" xlink:href="#DejaVuSans-48"/>
       <use x="190.869141" xlink:href="#DejaVuSans-46"/>
       <use x="222.65625" xlink:href="#DejaVuSans-48"/>
      </g>
     </g>
    </g>
    <g id="ytick_3">
     <g id="line2d_19">
      <path clip-path="url(#pe379a77c64)" d="M 60.59 281.775891 
L 693.270197 281.775891 
" style="fill:none;stroke:#808080;stroke-linecap:square;stroke-opacity:0.2;"/>
     </g>
     <g id="line2d_20">
      <g>
       <use style="stroke:#000000;stroke-width:0.8;" x="60.59" xlink:href="#mc180a9d2ab" y="281.775891"/>
      </g>
     </g>
     <g id="text_11">
      <!-- 152.5 -->
      <g transform="translate(24.961875 285.57511)scale(0.1 -0.1)">
       <use xlink:href="#DejaVuSans-49"/>
       <use x="63.623047" xlink:href="#DejaVuSans-53"/>
       <use x="127.246094" xlink:href="#DejaVuSans-50"/>
       <use x="190.869141" xlink:href="#DejaVuSans-46"/>
       <use x="222.65625" xlink:href="#DejaVuSans-53"/>
      </g>
     </g>
    </g>
    <g id="ytick_4">
     <g id="line2d_21">
      <path clip-path="url(#pe379a77c64)" d="M 60.59 234.787427 
L 693.270197 234.787427 
" style="fill:none;stroke:#808080;stroke-linecap:square;stroke-opacity:0.2;"/>
     </g>
     <g id="line2d_22">
      <g>
       <use style="stroke:#000000;stroke-width:0.8;" x="60.59" xlink:href="#mc180a9d2ab" y="234.787427"/>
      </g>
     </g>
     <g id="text_12">
      <!-- 155.0 -->
      <g transform="translate(24.961875 238.586645)scale(0.1 -0.1)">
       <use xlink:href="#DejaVuSans-49"/>
       <use x="63.623047" xlink:href="#DejaVuSans-53"/>
       <use x="127.246094" xlink:href="#DejaVuSans-53"/>
       <use x="190.869141" xlink:href="#DejaVuSans-46"/>
       <use x="222.65625" xlink:href="#DejaVuSans-48"/>
      </g>
     </g>
    </g>
    <g id="ytick_5">
     <g id="line2d_23">
      <path clip-path="url(#pe379a77c64)" d="M 60.59 187.798962 
L 693.270197 187.798962 
" style="fill:none;stroke:#808080;stroke-linecap:square;stroke-opacity:0.2;"/>
     </g>
     <g id="line2d_24">
      <g>
       <use style="stroke:#000000;stroke-width:0.8;" x="60.59" xlink:href="#mc180a9d2ab" y="187.798962"/>
      </g>
     </g>
     <g id="text_13">
      <!-- 157.5 -->
      <g transform="translate(24.961875 191.598181)scale(0.1 -0.1)">
       <use xlink:href="#DejaVuSans-49"/>
       <use x="63.623047" xlink:href="#DejaVuSans-53"/>
       <use x="127.246094" xlink:href="#DejaVuSans-55"/>
       <use x="190.869141" xlink:href="#DejaVuSans-46"/>
       <use x="222.65625" xlink:href="#DejaVuSans-53"/>
      </g>
     </g>
    </g>
    <g id="ytick_6">
     <g id="line2d_25">
      <path clip-path="url(#pe379a77c64)" d="M 60.59 140.810497 
L 693.270197 140.810497 
" style="fill:none;stroke:#808080;stroke-linecap:square;stroke-opacity:0.2;"/>
     </g>
     <g id="line2d_26">
      <g>
       <use style="stroke:#000000;stroke-width:0.8;" x="60.59" xlink:href="#mc180a9d2ab" y="140.810497"/>
      </g>
     </g>
     <g id="text_14">
      <!-- 160.0 -->
      <defs>
       <path d="M 33.015625 40.375 
Q 26.375 40.375 22.484375 35.828125 
Q 18.609375 31.296875 18.609375 23.390625 
Q 18.609375 15.53125 22.484375 10.953125 
Q 26.375 6.390625 33.015625 6.390625 
Q 39.65625 6.390625 43.53125 10.953125 
Q 47.40625 15.53125 47.40625 23.390625 
Q 47.40625 31.296875 43.53125 35.828125 
Q 39.65625 40.375 33.015625 40.375 
z
M 52.59375 71.296875 
L 52.59375 62.3125 
Q 48.875 64.0625 45.09375 64.984375 
Q 41.3125 65.921875 37.59375 65.921875 
Q 27.828125 65.921875 22.671875 59.328125 
Q 17.53125 52.734375 16.796875 39.40625 
Q 19.671875 43.65625 24.015625 45.921875 
Q 28.375 48.1875 33.59375 48.1875 
Q 44.578125 48.1875 50.953125 41.515625 
Q 57.328125 34.859375 57.328125 23.390625 
Q 57.328125 12.15625 50.6875 5.359375 
Q 44.046875 -1.421875 33.015625 -1.421875 
Q 20.359375 -1.421875 13.671875 8.265625 
Q 6.984375 17.96875 6.984375 36.375 
Q 6.984375 53.65625 15.1875 63.9375 
Q 23.390625 74.21875 37.203125 74.21875 
Q 40.921875 74.21875 44.703125 73.484375 
Q 48.484375 72.75 52.59375 71.296875 
z
" id="DejaVuSans-54"/>
      </defs>
      <g transform="translate(24.961875 144.609716)scale(0.1 -0.1)">
       <use xlink:href="#DejaVuSans-49"/>
       <use x="63.623047" xlink:href="#DejaVuSans-54"/>
       <use x="127.246094" xlink:href="#DejaVuSans-48"/>
       <use x="190.869141" xlink:href="#DejaVuSans-46"/>
       <use x="222.65625" xlink:href="#DejaVuSans-48"/>
      </g>
     </g>
    </g>
    <g id="ytick_7">
     <g id="line2d_27">
      <path clip-path="url(#pe379a77c64)" d="M 60.59 93.822032 
L 693.270197 93.822032 
" style="fill:none;stroke:#808080;stroke-linecap:square;stroke-opacity:0.2;"/>
     </g>
     <g id="line2d_28">
      <g>
       <use style="stroke:#000000;stroke-width:0.8;" x="60.59" xlink:href="#mc180a9d2ab" y="93.822032"/>
      </g>
     </g>
     <g id="text_15">
      <!-- 162.5 -->
      <g transform="translate(24.961875 97.621251)scale(0.1 -0.1)">
       <use xlink:href="#DejaVuSans-49"/>
       <use x="63.623047" xlink:href="#DejaVuSans-54"/>
       <use x="127.246094" xlink:href="#DejaVuSans-50"/>
       <use x="190.869141" xlink:href="#DejaVuSans-46"/>
       <use x="222.65625" xlink:href="#DejaVuSans-53"/>
      </g>
     </g>
    </g>
    <g id="ytick_8">
     <g id="line2d_29">
      <path clip-path="url(#pe379a77c64)" d="M 60.59 46.833568 
L 693.270197 46.833568 
" style="fill:none;stroke:#808080;stroke-linecap:square;stroke-opacity:0.2;"/>
     </g>
     <g id="line2d_30">
      <g>
       <use style="stroke:#000000;stroke-width:0.8;" x="60.59" xlink:href="#mc180a9d2ab" y="46.833568"/>
      </g>
     </g>
     <g id="text_16">
      <!-- 165.0 -->
      <g transform="translate(24.961875 50.632786)scale(0.1 -0.1)">
       <use xlink:href="#DejaVuSans-49"/>
       <use x="63.623047" xlink:href="#DejaVuSans-54"/>
       <use x="127.246094" xlink:href="#DejaVuSans-53"/>
       <use x="190.869141" xlink:href="#DejaVuSans-46"/>
       <use x="222.65625" xlink:href="#DejaVuSans-48"/>
      </g>
     </g>
    </g>
    <g id="text_17">
     <!-- y -->
     <defs>
      <path d="M 32.171875 -5.078125 
Q 28.375 -14.84375 24.75 -17.8125 
Q 21.140625 -20.796875 15.09375 -20.796875 
L 7.90625 -20.796875 
L 7.90625 -13.28125 
L 13.1875 -13.28125 
Q 16.890625 -13.28125 18.9375 -11.515625 
Q 21 -9.765625 23.484375 -3.21875 
L 25.09375 0.875 
L 2.984375 54.6875 
L 12.5 54.6875 
L 29.59375 11.921875 
L 46.6875 54.6875 
L 56.203125 54.6875 
z
" id="DejaVuSans-121"/>
     </defs>
     <g transform="translate(18.882188 203.379375)rotate(-90)scale(0.1 -0.1)">
      <use xlink:href="#DejaVuSans-121"/>
     </g>
    </g>
   </g>
   <g id="line2d_31">
    <defs>
     <path d="M 0 1.5 
C 0.397805 1.5 0.77937 1.341951 1.06066 1.06066 
C 1.341951 0.77937 1.5 0.397805 1.5 0 
C 1.5 -0.397805 1.341951 -0.77937 1.06066 -1.06066 
C 0.77937 -1.341951 0.397805 -1.5 0 -1.5 
C -0.397805 -1.5 -0.77937 -1.341951 -1.06066 -1.06066 
C -1.341951 -0.77937 -1.5 -0.397805 -1.5 0 
C -1.5 0.397805 -1.341951 0.77937 -1.06066 1.06066 
C -0.77937 1.341951 -0.397805 1.5 0 1.5 
z
" id="mdaa2457ed1" style="stroke:#000000;"/>
    </defs>
    <g clip-path="url(#pe379a77c64)">
     <use style="stroke:#000000;" x="89.348191" xlink:href="#mdaa2457ed1" y="328.764356"/>
     <use style="stroke:#000000;" x="96.277875" xlink:href="#mdaa2457ed1" y="197.196655"/>
     <use style="stroke:#000000;" x="110.137244" xlink:href="#mdaa2457ed1" y="159.605883"/>
     <use style="stroke:#000000;" x="117.066929" xlink:href="#mdaa2457ed1" y="253.582813"/>
     <use style="stroke:#000000;" x="130.926298" xlink:href="#mdaa2457ed1" y="291.173584"/>
     <use style="stroke:#000000;" x="137.855982" xlink:href="#mdaa2457ed1" y="366.355128"/>
     <use style="stroke:#000000;" x="151.715352" xlink:href="#mdaa2457ed1" y="309.96897"/>
     <use style="stroke:#000000;" x="158.645036" xlink:href="#mdaa2457ed1" y="197.196655"/>
     <use style="stroke:#000000;" x="172.504405" xlink:href="#mdaa2457ed1" y="253.582813"/>
     <use style="stroke:#000000;" x="179.43409" xlink:href="#mdaa2457ed1" y="215.992041"/>
     <use style="stroke:#000000;" x="193.293459" xlink:href="#mdaa2457ed1" y="291.173584"/>
     <use style="stroke:#000000;" x="200.223143" xlink:href="#mdaa2457ed1" y="197.196655"/>
     <use style="stroke:#000000;" x="214.082512" xlink:href="#mdaa2457ed1" y="197.196655"/>
     <use style="stroke:#000000;" x="221.012197" xlink:href="#mdaa2457ed1" y="366.355128"/>
     <use style="stroke:#000000;" x="234.871566" xlink:href="#mdaa2457ed1" y="272.378198"/>
     <use style="stroke:#000000;" x="241.80125" xlink:href="#mdaa2457ed1" y="197.196655"/>
     <use style="stroke:#000000;" x="255.660619" xlink:href="#mdaa2457ed1" y="234.787427"/>
     <use style="stroke:#000000;" x="262.590304" xlink:href="#mdaa2457ed1" y="234.787427"/>
     <use style="stroke:#000000;" x="276.449673" xlink:href="#mdaa2457ed1" y="253.582813"/>
     <use style="stroke:#000000;" x="283.379357" xlink:href="#mdaa2457ed1" y="328.764356"/>
     <use style="stroke:#000000;" x="297.238727" xlink:href="#mdaa2457ed1" y="309.96897"/>
     <use style="stroke:#000000;" x="304.168411" xlink:href="#mdaa2457ed1" y="309.96897"/>
     <use style="stroke:#000000;" x="318.02778" xlink:href="#mdaa2457ed1" y="46.833568"/>
     <use style="stroke:#000000;" x="324.957465" xlink:href="#mdaa2457ed1" y="197.196655"/>
     <use style="stroke:#000000;" x="338.816834" xlink:href="#mdaa2457ed1" y="272.378198"/>
     <use style="stroke:#000000;" x="345.746518" xlink:href="#mdaa2457ed1" y="234.787427"/>
     <use style="stroke:#000000;" x="359.605887" xlink:href="#mdaa2457ed1" y="215.992041"/>
     <use style="stroke:#000000;" x="366.535572" xlink:href="#mdaa2457ed1" y="328.764356"/>
     <use style="stroke:#000000;" x="380.394941" xlink:href="#mdaa2457ed1" y="272.378198"/>
     <use style="stroke:#000000;" x="387.324625" xlink:href="#mdaa2457ed1" y="178.401269"/>
     <use style="stroke:#000000;" x="401.183994" xlink:href="#mdaa2457ed1" y="291.173584"/>
     <use style="stroke:#000000;" x="408.113679" xlink:href="#mdaa2457ed1" y="253.582813"/>
     <use style="stroke:#000000;" x="421.973048" xlink:href="#mdaa2457ed1" y="272.378198"/>
     <use style="stroke:#000000;" x="428.902733" xlink:href="#mdaa2457ed1" y="234.787427"/>
     <use style="stroke:#000000;" x="442.762102" xlink:href="#mdaa2457ed1" y="291.173584"/>
     <use style="stroke:#000000;" x="449.691786" xlink:href="#mdaa2457ed1" y="178.401269"/>
     <use style="stroke:#000000;" x="463.551155" xlink:href="#mdaa2457ed1" y="291.173584"/>
     <use style="stroke:#000000;" x="470.48084" xlink:href="#mdaa2457ed1" y="197.196655"/>
     <use style="stroke:#000000;" x="484.340209" xlink:href="#mdaa2457ed1" y="234.787427"/>
     <use style="stroke:#000000;" x="491.269893" xlink:href="#mdaa2457ed1" y="159.605883"/>
     <use style="stroke:#000000;" x="505.129262" xlink:href="#mdaa2457ed1" y="122.015111"/>
     <use style="stroke:#000000;" x="512.058947" xlink:href="#mdaa2457ed1" y="197.196655"/>
     <use style="stroke:#000000;" x="525.918316" xlink:href="#mdaa2457ed1" y="140.810497"/>
     <use style="stroke:#000000;" x="532.848" xlink:href="#mdaa2457ed1" y="178.401269"/>
     <use style="stroke:#000000;" x="546.707369" xlink:href="#mdaa2457ed1" y="215.992041"/>
     <use style="stroke:#000000;" x="553.637054" xlink:href="#mdaa2457ed1" y="197.196655"/>
     <use style="stroke:#000000;" x="567.496423" xlink:href="#mdaa2457ed1" y="178.401269"/>
     <use style="stroke:#000000;" x="574.426108" xlink:href="#mdaa2457ed1" y="103.219725"/>
     <use style="stroke:#000000;" x="588.285477" xlink:href="#mdaa2457ed1" y="28.038182"/>
     <use style="stroke:#000000;" x="595.215161" xlink:href="#mdaa2457ed1" y="46.833568"/>
     <use style="stroke:#000000;" x="609.07453" xlink:href="#mdaa2457ed1" y="178.401269"/>
     <use style="stroke:#000000;" x="616.004215" xlink:href="#mdaa2457ed1" y="197.196655"/>
     <use style="stroke:#000000;" x="629.863584" xlink:href="#mdaa2457ed1" y="253.582813"/>
     <use style="stroke:#000000;" x="636.793268" xlink:href="#mdaa2457ed1" y="253.582813"/>
     <use style="stroke:#000000;" x="650.652637" xlink:href="#mdaa2457ed1" y="215.992041"/>
     <use style="stroke:#000000;" x="657.582322" xlink:href="#mdaa2457ed1" y="159.605883"/>
    </g>
   </g>
   <g id="line2d_32">
    <path clip-path="url(#pe379a77c64)" d="M 89.348191 292.886481 
L 96.277875 267.571967 
L 110.137244 242.700858 
L 117.066929 254.956048 
L 130.926298 265.287187 
L 137.855982 286.896536 
L 151.715352 264.413778 
L 158.645036 236.710912 
L 172.504405 270.59479 
L 179.43409 259.297242 
L 193.293459 255.592075 
L 200.223143 258.423832 
L 214.082512 242.976157 
L 221.012197 264.604844 
L 234.871566 274.916644 
L 241.80125 249.602042 
L 255.660619 224.730759 
L 262.590304 236.985862 
L 276.449673 247.310881 
L 283.379357 268.917169 
L 297.238727 246.425573 
L 304.168411 218.718287 
L 318.02778 252.569646 
L 324.957465 241.250364 
L 338.816834 237.50173 
L 345.746518 240.29344 
L 359.605887 224.765668 
L 366.535572 246.327686 
L 380.394941 256.506145 
L 387.324625 230.273192 
L 401.183994 203.511312 
L 408.113679 214.821117 
L 421.973048 223.22614 
L 428.902733 243.87243 
L 442.762102 219.433257 
L 449.691786 190.75115 
L 463.551155 222.676548 
L 470.48084 210.399759 
L 484.340209 204.736112 
L 491.269893 206.588628 
L 505.129262 189.182472 
L 512.058947 209.831919 
L 525.918316 218.185238 
L 532.848 191.891483 
L 546.707369 165.062509 
L 553.637054 176.338766 
L 567.496423 184.71204 
L 574.426108 205.342455 
L 588.285477 180.901832 
L 595.215161 152.220033 
L 609.07453 184.146045 
L 616.004215 171.869564 
L 629.863584 166.206532 
L 636.793268 168.059356 
L 650.652637 150.653815 
L 657.582322 171.30357 
L 664.512006 159.027088 
" style="fill:none;stroke:#0072b2;stroke-linecap:square;stroke-width:1.5;"/>
   </g>
   <g id="patch_3">
    <path d="M 60.59 390.04 
L 60.59 10.8 
" style="fill:none;stroke:#000000;stroke-linecap:square;stroke-linejoin:miter;stroke-width:0.8;"/>
   </g>
   <g id="patch_4">
    <path d="M 693.270197 390.04 
L 693.270197 10.8 
" style="fill:none;stroke:#000000;stroke-linecap:square;stroke-linejoin:miter;stroke-width:0.8;"/>
   </g>
   <g id="patch_5">
    <path d="M 60.59 390.04 
L 693.270197 390.04 
" style="fill:none;stroke:#000000;stroke-linecap:square;stroke-linejoin:miter;stroke-width:0.8;"/>
   </g>
   <g id="patch_6">
    <path d="M 60.59 10.8 
L 693.270197 10.8 
" style="fill:none;stroke:#000000;stroke-linecap:square;stroke-linejoin:miter;stroke-width:0.8;"/>
   </g>
  </g>
 </g>
 <defs>
  <clipPath id="pe379a77c64">
   <rect height="379.24" width="632.680197" x="60.59" y="10.8"/>
  </clipPath>
 </defs>
</svg>
