<?xml version="1.0" encoding="utf-8" standalone="no"?>
<!DOCTYPE svg PUBLIC "-//W3C//DTD SVG 1.1//EN"
  "http://www.w3.org/Graphics/SVG/1.1/DTD/svg11.dtd">
<!-- Created with matplotlib (https://matplotlib.org/) -->
<svg height="432pt" version="1.1" viewBox="0 0 720 432" width="720pt" xmlns="http://www.w3.org/2000/svg" xmlns:xlink="http://www.w3.org/1999/xlink">
 <defs>
  <style type="text/css">
*{stroke-linecap:butt;stroke-linejoin:round;}
  </style>
 </defs>
 <g id="figure_1">
  <g id="patch_1">
   <path d="M 0 432 
L 720 432 
L 720 0 
L 0 0 
z
" style="fill:#ffffff;"/>
  </g>
  <g id="axes_1">
   <g id="patch_2">
    <path d="M 60.59 390.04 
L 687.158478 390.04 
L 687.158478 10.8 
L 60.59 10.8 
z
" style="fill:#ffffff;"/>
   </g>
   <g id="PolyCollection_1">
    <defs>
     <path d="M 89.070385 -279.468134 
L 89.070385 -98.085604 
L 95.933129 -83.015862 
L 109.658616 -82.323257 
L 116.521359 -67.797975 
L 130.246846 -104.349648 
L 137.10959 -103.844688 
L 150.835076 -120.227877 
L 157.69782 -90.550084 
L 171.423307 -117.693435 
L 178.28605 -110.665275 
L 192.011537 -93.043107 
L 198.874281 -124.785376 
L 219.462511 -117.760398 
L 233.187998 -109.728493 
L 240.050741 -105.493329 
L 253.776228 -105.523941 
L 274.364459 -130.218136 
L 281.227202 -124.573734 
L 294.952689 -141.841388 
L 301.815432 -115.321415 
L 315.540919 -132.159624 
L 322.403663 -141.108183 
L 336.12915 -116.108604 
L 342.991893 -150.015913 
L 356.71738 -101.208377 
L 363.580124 -152.069361 
L 377.305611 -137.109999 
L 384.168354 -128.043805 
L 397.893841 -129.959974 
L 404.756584 -111.653449 
L 418.482071 -152.784919 
L 425.344815 -146.385131 
L 439.070302 -171.586532 
L 445.933045 -144.183573 
L 459.658532 -156.024515 
L 466.521275 -166.387289 
L 480.246762 -144.265129 
L 487.109506 -179.147554 
L 500.834993 -131.112327 
L 507.697736 -171.624713 
L 521.423223 -168.172944 
L 528.285967 -161.172544 
L 542.011453 -161.060017 
L 548.874197 -142.987214 
L 562.599684 -188.53934 
L 569.462427 -179.4312 
L 583.187914 -203.888697 
L 590.050658 -173.412392 
L 603.776145 -192.258308 
L 610.638888 -196.291696 
L 624.364375 -181.352932 
L 631.227118 -211.441091 
L 644.952605 -161.930062 
L 651.815349 -203.669719 
L 658.678092 -206.853284 
L 658.678092 -396.792946 
L 658.678092 -396.792946 
L 651.815349 -395.533075 
L 644.952605 -344.181609 
L 631.227118 -403.961818 
L 624.364375 -371.017578 
L 610.638888 -387.22855 
L 603.776145 -387.273429 
L 590.050658 -355.928127 
L 583.187914 -384.885463 
L 569.462427 -373.861583 
L 562.599684 -379.569274 
L 548.874197 -327.014527 
L 542.011453 -353.098443 
L 528.285967 -350.010776 
L 521.423223 -366.154732 
L 507.697736 -366.037664 
L 500.834993 -321.249747 
L 487.109506 -371.790165 
L 480.246762 -338.812152 
L 466.521275 -357.082157 
L 459.658532 -353.340178 
L 445.933045 -331.309953 
L 439.070302 -357.473548 
L 425.344815 -339.282905 
L 418.482071 -347.749707 
L 404.756584 -302.937737 
L 397.893841 -324.181528 
L 384.168354 -315.91091 
L 377.305611 -336.186005 
L 363.580124 -331.49094 
L 356.71738 -288.024815 
L 342.991893 -339.904582 
L 336.12915 -313.585894 
L 322.403663 -328.594931 
L 315.540919 -331.86062 
L 301.815432 -302.766672 
L 294.952689 -322.263485 
L 281.227202 -304.701031 
L 274.364459 -322.097889 
L 253.776228 -303.440212 
L 240.050741 -293.577156 
L 233.187998 -294.826906 
L 219.462511 -313.011461 
L 198.874281 -319.309656 
L 192.011537 -288.231954 
L 178.28605 -304.743783 
L 171.423307 -305.295135 
L 157.69782 -277.443361 
L 150.835076 -317.184963 
L 137.10959 -296.413553 
L 130.246846 -296.329271 
L 116.521359 -260.894616 
L 109.658616 -277.312779 
L 95.933129 -273.373498 
L 89.070385 -279.468134 
z
" id="m289129ca5d" style="stroke:#0072b2;stroke-opacity:0.2;"/>
    </defs>
    <g clip-path="url(#p4f36cd75b8)">
     <use style="fill:#0072b2;fill-opacity:0.2;stroke:#0072b2;stroke-opacity:0.2;" x="0" xlink:href="#m289129ca5d" y="432"/>
    </g>
   </g>
   <g id="matplotlib.axis_1">
    <g id="xtick_1">
     <g id="line2d_1">
      <path clip-path="url(#p4f36cd75b8)" d="M 102.795872 390.04 
L 102.795872 10.8 
" style="fill:none;stroke:#808080;stroke-linecap:square;stroke-opacity:0.2;"/>
     </g>
     <g id="line2d_2">
      <defs>
       <path d="M 0 0 
L 0 3.5 
" id="mefc11db6c4" style="stroke:#000000;stroke-width:0.8;"/>
      </defs>
      <g>
       <use style="stroke:#000000;stroke-width:0.8;" x="102.795872" xlink:href="#mefc11db6c4" y="390.04"/>
      </g>
     </g>
     <g id="text_1">
      <!-- 2019-09-01 -->
      <defs>
       <path d="M 19.1875 8.296875 
L 53.609375 8.296875 
L 53.609375 0 
L 7.328125 0 
L 7.328125 8.296875 
Q 12.9375 14.109375 22.625 23.890625 
Q 32.328125 33.6875 34.8125 36.53125 
Q 39.546875 41.84375 41.421875 45.53125 
Q 43.3125 49.21875 43.3125 52.78125 
Q 43.3125 58.59375 39.234375 62.25 
Q 35.15625 65.921875 28.609375 65.921875 
Q 23.96875 65.921875 18.8125 64.3125 
Q 13.671875 62.703125 7.8125 59.421875 
L 7.8125 69.390625 
Q 13.765625 71.78125 18.9375 73 
Q 24.125 74.21875 28.421875 74.21875 
Q 39.75 74.21875 46.484375 68.546875 
Q 53.21875 62.890625 53.21875 53.421875 
Q 53.21875 48.921875 51.53125 44.890625 
Q 49.859375 40.875 45.40625 35.40625 
Q 44.1875 33.984375 37.640625 27.21875 
Q 31.109375 20.453125 19.1875 8.296875 
z
" id="DejaVuSans-50"/>
       <path d="M 31.78125 66.40625 
Q 24.171875 66.40625 20.328125 58.90625 
Q 16.5 51.421875 16.5 36.375 
Q 16.5 21.390625 20.328125 13.890625 
Q 24.171875 6.390625 31.78125 6.390625 
Q 39.453125 6.390625 43.28125 13.890625 
Q 47.125 21.390625 47.125 36.375 
Q 47.125 51.421875 43.28125 58.90625 
Q 39.453125 66.40625 31.78125 66.40625 
z
M 31.78125 74.21875 
Q 44.046875 74.21875 50.515625 64.515625 
Q 56.984375 54.828125 56.984375 36.375 
Q 56.984375 17.96875 50.515625 8.265625 
Q 44.046875 -1.421875 31.78125 -1.421875 
Q 19.53125 -1.421875 13.0625 8.265625 
Q 6.59375 17.96875 6.59375 36.375 
Q 6.59375 54.828125 13.0625 64.515625 
Q 19.53125 74.21875 31.78125 74.21875 
z
" id="DejaVuSans-48"/>
       <path d="M 12.40625 8.296875 
L 28.515625 8.296875 
L 28.515625 63.921875 
L 10.984375 60.40625 
L 10.984375 69.390625 
L 28.421875 72.90625 
L 38.28125 72.90625 
L 38.28125 8.296875 
L 54.390625 8.296875 
L 54.390625 0 
L 12.40625 0 
z
" id="DejaVuSans-49"/>
       <path d="M 10.984375 1.515625 
L 10.984375 10.5 
Q 14.703125 8.734375 18.5 7.8125 
Q 22.3125 6.890625 25.984375 6.890625 
Q 35.75 6.890625 40.890625 13.453125 
Q 46.046875 20.015625 46.78125 33.40625 
Q 43.953125 29.203125 39.59375 26.953125 
Q 35.25 24.703125 29.984375 24.703125 
Q 19.046875 24.703125 12.671875 31.3125 
Q 6.296875 37.9375 6.296875 49.421875 
Q 6.296875 60.640625 12.9375 67.421875 
Q 19.578125 74.21875 30.609375 74.21875 
Q 43.265625 74.21875 49.921875 64.515625 
Q 56.59375 54.828125 56.59375 36.375 
Q 56.59375 19.140625 48.40625 8.859375 
Q 40.234375 -1.421875 26.421875 -1.421875 
Q 22.703125 -1.421875 18.890625 -0.6875 
Q 15.09375 0.046875 10.984375 1.515625 
z
M 30.609375 32.421875 
Q 37.25 32.421875 41.125 36.953125 
Q 45.015625 41.5 45.015625 49.421875 
Q 45.015625 57.28125 41.125 61.84375 
Q 37.25 66.40625 30.609375 66.40625 
Q 23.96875 66.40625 20.09375 61.84375 
Q 16.21875 57.28125 16.21875 49.421875 
Q 16.21875 41.5 20.09375 36.953125 
Q 23.96875 32.421875 30.609375 32.421875 
z
" id="DejaVuSans-57"/>
       <path d="M 4.890625 31.390625 
L 31.203125 31.390625 
L 31.203125 23.390625 
L 4.890625 23.390625 
z
" id="DejaVuSans-45"/>
      </defs>
      <g transform="translate(73.73806 404.638438)scale(0.1 -0.1)">
       <use xlink:href="#DejaVuSans-50"/>
       <use x="63.623047" xlink:href="#DejaVuSans-48"/>
       <use x="127.246094" xlink:href="#DejaVuSans-49"/>
       <use x="190.869141" xlink:href="#DejaVuSans-57"/>
       <use x="254.492188" xlink:href="#DejaVuSans-45"/>
       <use x="290.576172" xlink:href="#DejaVuSans-48"/>
       <use x="354.199219" xlink:href="#DejaVuSans-57"/>
       <use x="417.822266" xlink:href="#DejaVuSans-45"/>
       <use x="453.90625" xlink:href="#DejaVuSans-48"/>
       <use x="517.529297" xlink:href="#DejaVuSans-49"/>
      </g>
     </g>
    </g>
    <g id="xtick_2">
     <g id="line2d_3">
      <path clip-path="url(#p4f36cd75b8)" d="M 198.874281 390.04 
L 198.874281 10.8 
" style="fill:none;stroke:#808080;stroke-linecap:square;stroke-opacity:0.2;"/>
     </g>
     <g id="line2d_4">
      <g>
       <use style="stroke:#000000;stroke-width:0.8;" x="198.874281" xlink:href="#mefc11db6c4" y="390.04"/>
      </g>
     </g>
     <g id="text_2">
      <!-- 2019-09-15 -->
      <defs>
       <path d="M 10.796875 72.90625 
L 49.515625 72.90625 
L 49.515625 64.59375 
L 19.828125 64.59375 
L 19.828125 46.734375 
Q 21.96875 47.46875 24.109375 47.828125 
Q 26.265625 48.1875 28.421875 48.1875 
Q 40.625 48.1875 47.75 41.5 
Q 54.890625 34.8125 54.890625 23.390625 
Q 54.890625 11.625 47.5625 5.09375 
Q 40.234375 -1.421875 26.90625 -1.421875 
Q 22.3125 -1.421875 17.546875 -0.640625 
Q 12.796875 0.140625 7.71875 1.703125 
L 7.71875 11.625 
Q 12.109375 9.234375 16.796875 8.0625 
Q 21.484375 6.890625 26.703125 6.890625 
Q 35.15625 6.890625 40.078125 11.328125 
Q 45.015625 15.765625 45.015625 23.390625 
Q 45.015625 31 40.078125 35.4375 
Q 35.15625 39.890625 26.703125 39.890625 
Q 22.75 39.890625 18.8125 39.015625 
Q 14.890625 38.140625 10.796875 36.28125 
z
" id="DejaVuSans-53"/>
      </defs>
      <g transform="translate(169.816468 404.638438)scale(0.1 -0.1)">
       <use xlink:href="#DejaVuSans-50"/>
       <use x="63.623047" xlink:href="#DejaVuSans-48"/>
       <use x="127.246094" xlink:href="#DejaVuSans-49"/>
       <use x="190.869141" xlink:href="#DejaVuSans-57"/>
       <use x="254.492188" xlink:href="#DejaVuSans-45"/>
       <use x="290.576172" xlink:href="#DejaVuSans-48"/>
       <use x="354.199219" xlink:href="#DejaVuSans-57"/>
       <use x="417.822266" xlink:href="#DejaVuSans-45"/>
       <use x="453.90625" xlink:href="#DejaVuSans-49"/>
       <use x="517.529297" xlink:href="#DejaVuSans-53"/>
      </g>
     </g>
    </g>
    <g id="xtick_3">
     <g id="line2d_5">
      <path clip-path="url(#p4f36cd75b8)" d="M 294.952689 390.04 
L 294.952689 10.8 
" style="fill:none;stroke:#808080;stroke-linecap:square;stroke-opacity:0.2;"/>
     </g>
     <g id="line2d_6">
      <g>
       <use style="stroke:#000000;stroke-width:0.8;" x="294.952689" xlink:href="#mefc11db6c4" y="390.04"/>
      </g>
     </g>
     <g id="text_3">
      <!-- 2019-09-29 -->
      <g transform="translate(265.894877 404.638438)scale(0.1 -0.1)">
       <use xlink:href="#DejaVuSans-50"/>
       <use x="63.623047" xlink:href="#DejaVuSans-48"/>
       <use x="127.246094" xlink:href="#DejaVuSans-49"/>
       <use x="190.869141" xlink:href="#DejaVuSans-57"/>
       <use x="254.492188" xlink:href="#DejaVuSans-45"/>
       <use x="290.576172" xlink:href="#DejaVuSans-48"/>
       <use x="354.199219" xlink:href="#DejaVuSans-57"/>
       <use x="417.822266" xlink:href="#DejaVuSans-45"/>
       <use x="453.90625" xlink:href="#DejaVuSans-50"/>
       <use x="517.529297" xlink:href="#DejaVuSans-57"/>
      </g>
     </g>
    </g>
    <g id="xtick_4">
     <g id="line2d_7">
      <path clip-path="url(#p4f36cd75b8)" d="M 391.031097 390.04 
L 391.031097 10.8 
" style="fill:none;stroke:#808080;stroke-linecap:square;stroke-opacity:0.2;"/>
     </g>
     <g id="line2d_8">
      <g>
       <use style="stroke:#000000;stroke-width:0.8;" x="391.031097" xlink:href="#mefc11db6c4" y="390.04"/>
      </g>
     </g>
     <g id="text_4">
      <!-- 2019-10-13 -->
      <defs>
       <path d="M 40.578125 39.3125 
Q 47.65625 37.796875 51.625 33 
Q 55.609375 28.21875 55.609375 21.1875 
Q 55.609375 10.40625 48.1875 4.484375 
Q 40.765625 -1.421875 27.09375 -1.421875 
Q 22.515625 -1.421875 17.65625 -0.515625 
Q 12.796875 0.390625 7.625 2.203125 
L 7.625 11.71875 
Q 11.71875 9.328125 16.59375 8.109375 
Q 21.484375 6.890625 26.8125 6.890625 
Q 36.078125 6.890625 40.9375 10.546875 
Q 45.796875 14.203125 45.796875 21.1875 
Q 45.796875 27.640625 41.28125 31.265625 
Q 36.765625 34.90625 28.71875 34.90625 
L 20.21875 34.90625 
L 20.21875 43.015625 
L 29.109375 43.015625 
Q 36.375 43.015625 40.234375 45.921875 
Q 44.09375 48.828125 44.09375 54.296875 
Q 44.09375 59.90625 40.109375 62.90625 
Q 36.140625 65.921875 28.71875 65.921875 
Q 24.65625 65.921875 20.015625 65.03125 
Q 15.375 64.15625 9.8125 62.3125 
L 9.8125 71.09375 
Q 15.4375 72.65625 20.34375 73.4375 
Q 25.25 74.21875 29.59375 74.21875 
Q 40.828125 74.21875 47.359375 69.109375 
Q 53.90625 64.015625 53.90625 55.328125 
Q 53.90625 49.265625 50.4375 45.09375 
Q 46.96875 40.921875 40.578125 39.3125 
z
" id="DejaVuSans-51"/>
      </defs>
      <g transform="translate(361.973285 404.638438)scale(0.1 -0.1)">
       <use xlink:href="#DejaVuSans-50"/>
       <use x="63.623047" xlink:href="#DejaVuSans-48"/>
       <use x="127.246094" xlink:href="#DejaVuSans-49"/>
       <use x="190.869141" xlink:href="#DejaVuSans-57"/>
       <use x="254.492188" xlink:href="#DejaVuSans-45"/>
       <use x="290.576172" xlink:href="#DejaVuSans-49"/>
       <use x="354.199219" xlink:href="#DejaVuSans-48"/>
       <use x="417.822266" xlink:href="#DejaVuSans-45"/>
       <use x="453.90625" xlink:href="#DejaVuSans-49"/>
       <use x="517.529297" xlink:href="#DejaVuSans-51"/>
      </g>
     </g>
    </g>
    <g id="xtick_5">
     <g id="line2d_9">
      <path clip-path="url(#p4f36cd75b8)" d="M 487.109506 390.04 
L 487.109506 10.8 
" style="fill:none;stroke:#808080;stroke-linecap:square;stroke-opacity:0.2;"/>
     </g>
     <g id="line2d_10">
      <g>
       <use style="stroke:#000000;stroke-width:0.8;" x="487.109506" xlink:href="#mefc11db6c4" y="390.04"/>
      </g>
     </g>
     <g id="text_5">
      <!-- 2019-10-27 -->
      <defs>
       <path d="M 8.203125 72.90625 
L 55.078125 72.90625 
L 55.078125 68.703125 
L 28.609375 0 
L 18.3125 0 
L 43.21875 64.59375 
L 8.203125 64.59375 
z
" id="DejaVuSans-55"/>
      </defs>
      <g transform="translate(458.051693 404.638438)scale(0.1 -0.1)">
       <use xlink:href="#DejaVuSans-50"/>
       <use x="63.623047" xlink:href="#DejaVuSans-48"/>
       <use x="127.246094" xlink:href="#DejaVuSans-49"/>
       <use x="190.869141" xlink:href="#DejaVuSans-57"/>
       <use x="254.492188" xlink:href="#DejaVuSans-45"/>
       <use x="290.576172" xlink:href="#DejaVuSans-49"/>
       <use x="354.199219" xlink:href="#DejaVuSans-48"/>
       <use x="417.822266" xlink:href="#DejaVuSans-45"/>
       <use x="453.90625" xlink:href="#DejaVuSans-50"/>
       <use x="517.529297" xlink:href="#DejaVuSans-55"/>
      </g>
     </g>
    </g>
    <g id="xtick_6">
     <g id="line2d_11">
      <path clip-path="url(#p4f36cd75b8)" d="M 583.187914 390.04 
L 583.187914 10.8 
" style="fill:none;stroke:#808080;stroke-linecap:square;stroke-opacity:0.2;"/>
     </g>
     <g id="line2d_12">
      <g>
       <use style="stroke:#000000;stroke-width:0.8;" x="583.187914" xlink:href="#mefc11db6c4" y="390.04"/>
      </g>
     </g>
     <g id="text_6">
      <!-- 2019-11-10 -->
      <g transform="translate(554.130102 404.638438)scale(0.1 -0.1)">
       <use xlink:href="#DejaVuSans-50"/>
       <use x="63.623047" xlink:href="#DejaVuSans-48"/>
       <use x="127.246094" xlink:href="#DejaVuSans-49"/>
       <use x="190.869141" xlink:href="#DejaVuSans-57"/>
       <use x="254.492188" xlink:href="#DejaVuSans-45"/>
       <use x="290.576172" xlink:href="#DejaVuSans-49"/>
       <use x="354.199219" xlink:href="#DejaVuSans-49"/>
       <use x="417.822266" xlink:href="#DejaVuSans-45"/>
       <use x="453.90625" xlink:href="#DejaVuSans-49"/>
       <use x="517.529297" xlink:href="#DejaVuSans-48"/>
      </g>
     </g>
    </g>
    <g id="xtick_7">
     <g id="line2d_13">
      <path clip-path="url(#p4f36cd75b8)" d="M 679.266323 390.04 
L 679.266323 10.8 
" style="fill:none;stroke:#808080;stroke-linecap:square;stroke-opacity:0.2;"/>
     </g>
     <g id="line2d_14">
      <g>
       <use style="stroke:#000000;stroke-width:0.8;" x="679.266323" xlink:href="#mefc11db6c4" y="390.04"/>
      </g>
     </g>
     <g id="text_7">
      <!-- 2019-11-24 -->
      <defs>
       <path d="M 37.796875 64.3125 
L 12.890625 25.390625 
L 37.796875 25.390625 
z
M 35.203125 72.90625 
L 47.609375 72.90625 
L 47.609375 25.390625 
L 58.015625 25.390625 
L 58.015625 17.1875 
L 47.609375 17.1875 
L 47.609375 0 
L 37.796875 0 
L 37.796875 17.1875 
L 4.890625 17.1875 
L 4.890625 26.703125 
z
" id="DejaVuSans-52"/>
      </defs>
      <g transform="translate(650.20851 404.638438)scale(0.1 -0.1)">
       <use xlink:href="#DejaVuSans-50"/>
       <use x="63.623047" xlink:href="#DejaVuSans-48"/>
       <use x="127.246094" xlink:href="#DejaVuSans-49"/>
       <use x="190.869141" xlink:href="#DejaVuSans-57"/>
       <use x="254.492188" xlink:href="#DejaVuSans-45"/>
       <use x="290.576172" xlink:href="#DejaVuSans-49"/>
       <use x="354.199219" xlink:href="#DejaVuSans-49"/>
       <use x="417.822266" xlink:href="#DejaVuSans-45"/>
       <use x="453.90625" xlink:href="#DejaVuSans-50"/>
       <use x="517.529297" xlink:href="#DejaVuSans-52"/>
      </g>
     </g>
    </g>
    <g id="text_8">
     <!-- ds -->
     <defs>
      <path d="M 45.40625 46.390625 
L 45.40625 75.984375 
L 54.390625 75.984375 
L 54.390625 0 
L 45.40625 0 
L 45.40625 8.203125 
Q 42.578125 3.328125 38.25 0.953125 
Q 33.9375 -1.421875 27.875 -1.421875 
Q 17.96875 -1.421875 11.734375 6.484375 
Q 5.515625 14.40625 5.515625 27.296875 
Q 5.515625 40.1875 11.734375 48.09375 
Q 17.96875 56 27.875 56 
Q 33.9375 56 38.25 53.625 
Q 42.578125 51.265625 45.40625 46.390625 
z
M 14.796875 27.296875 
Q 14.796875 17.390625 18.875 11.75 
Q 22.953125 6.109375 30.078125 6.109375 
Q 37.203125 6.109375 41.296875 11.75 
Q 45.40625 17.390625 45.40625 27.296875 
Q 45.40625 37.203125 41.296875 42.84375 
Q 37.203125 48.484375 30.078125 48.484375 
Q 22.953125 48.484375 18.875 42.84375 
Q 14.796875 37.203125 14.796875 27.296875 
z
" id="DejaVuSans-100"/>
      <path d="M 44.28125 53.078125 
L 44.28125 44.578125 
Q 40.484375 46.53125 36.375 47.5 
Q 32.28125 48.484375 27.875 48.484375 
Q 21.1875 48.484375 17.84375 46.4375 
Q 14.5 44.390625 14.5 40.28125 
Q 14.5 37.15625 16.890625 35.375 
Q 19.28125 33.59375 26.515625 31.984375 
L 29.59375 31.296875 
Q 39.15625 29.25 43.1875 25.515625 
Q 47.21875 21.78125 47.21875 15.09375 
Q 47.21875 7.46875 41.1875 3.015625 
Q 35.15625 -1.421875 24.609375 -1.421875 
Q 20.21875 -1.421875 15.453125 -0.5625 
Q 10.6875 0.296875 5.421875 2 
L 5.421875 11.28125 
Q 10.40625 8.6875 15.234375 7.390625 
Q 20.0625 6.109375 24.8125 6.109375 
Q 31.15625 6.109375 34.5625 8.28125 
Q 37.984375 10.453125 37.984375 14.40625 
Q 37.984375 18.0625 35.515625 20.015625 
Q 33.0625 21.96875 24.703125 23.78125 
L 21.578125 24.515625 
Q 13.234375 26.265625 9.515625 29.90625 
Q 5.8125 33.546875 5.8125 39.890625 
Q 5.8125 47.609375 11.28125 51.796875 
Q 16.75 56 26.8125 56 
Q 31.78125 56 36.171875 55.265625 
Q 40.578125 54.546875 44.28125 53.078125 
z
" id="DejaVuSans-115"/>
     </defs>
     <g transform="translate(368.095333 418.316562)scale(0.1 -0.1)">
      <use xlink:href="#DejaVuSans-100"/>
      <use x="63.476562" xlink:href="#DejaVuSans-115"/>
     </g>
    </g>
   </g>
   <g id="matplotlib.axis_2">
    <g id="ytick_1">
     <g id="line2d_15">
      <path clip-path="url(#p4f36cd75b8)" d="M 60.59 382.705531 
L 687.158478 382.705531 
" style="fill:none;stroke:#808080;stroke-linecap:square;stroke-opacity:0.2;"/>
     </g>
     <g id="line2d_16">
      <defs>
       <path d="M 0 0 
L -3.5 0 
" id="m44bb45f030" style="stroke:#000000;stroke-width:0.8;"/>
      </defs>
      <g>
       <use style="stroke:#000000;stroke-width:0.8;" x="60.59" xlink:href="#m44bb45f030" y="382.705531"/>
      </g>
     </g>
     <g id="text_9">
      <!-- 142.5 -->
      <defs>
       <path d="M 10.6875 12.40625 
L 21 12.40625 
L 21 0 
L 10.6875 0 
z
" id="DejaVuSans-46"/>
      </defs>
      <g transform="translate(24.961875 386.50475)scale(0.1 -0.1)">
       <use xlink:href="#DejaVuSans-49"/>
       <use x="63.623047" xlink:href="#DejaVuSans-52"/>
       <use x="127.246094" xlink:href="#DejaVuSans-50"/>
       <use x="190.869141" xlink:href="#DejaVuSans-46"/>
       <use x="222.65625" xlink:href="#DejaVuSans-53"/>
      </g>
     </g>
    </g>
    <g id="ytick_2">
     <g id="line2d_17">
      <path clip-path="url(#p4f36cd75b8)" d="M 60.59 333.186967 
L 687.158478 333.186967 
" style="fill:none;stroke:#808080;stroke-linecap:square;stroke-opacity:0.2;"/>
     </g>
     <g id="line2d_18">
      <g>
       <use style="stroke:#000000;stroke-width:0.8;" x="60.59" xlink:href="#m44bb45f030" y="333.186967"/>
      </g>
     </g>
     <g id="text_10">
      <!-- 145.0 -->
      <g transform="translate(24.961875 336.986186)scale(0.1 -0.1)">
       <use xlink:href="#DejaVuSans-49"/>
       <use x="63.623047" xlink:href="#DejaVuSans-52"/>
       <use x="127.246094" xlink:href="#DejaVuSans-53"/>
       <use x="190.869141" xlink:href="#DejaVuSans-46"/>
       <use x="222.65625" xlink:href="#DejaVuSans-48"/>
      </g>
     </g>
    </g>
    <g id="ytick_3">
     <g id="line2d_19">
      <path clip-path="url(#p4f36cd75b8)" d="M 60.59 283.668404 
L 687.158478 283.668404 
" style="fill:none;stroke:#808080;stroke-linecap:square;stroke-opacity:0.2;"/>
     </g>
     <g id="line2d_20">
      <g>
       <use style="stroke:#000000;stroke-width:0.8;" x="60.59" xlink:href="#m44bb45f030" y="283.668404"/>
      </g>
     </g>
     <g id="text_11">
      <!-- 147.5 -->
      <g transform="translate(24.961875 287.467622)scale(0.1 -0.1)">
       <use xlink:href="#DejaVuSans-49"/>
       <use x="63.623047" xlink:href="#DejaVuSans-52"/>
       <use x="127.246094" xlink:href="#DejaVuSans-55"/>
       <use x="190.869141" xlink:href="#DejaVuSans-46"/>
       <use x="222.65625" xlink:href="#DejaVuSans-53"/>
      </g>
     </g>
    </g>
    <g id="ytick_4">
     <g id="line2d_21">
      <path clip-path="url(#p4f36cd75b8)" d="M 60.59 234.14984 
L 687.158478 234.14984 
" style="fill:none;stroke:#808080;stroke-linecap:square;stroke-opacity:0.2;"/>
     </g>
     <g id="line2d_22">
      <g>
       <use style="stroke:#000000;stroke-width:0.8;" x="60.59" xlink:href="#m44bb45f030" y="234.14984"/>
      </g>
     </g>
     <g id="text_12">
      <!-- 150.0 -->
      <g transform="translate(24.961875 237.949059)scale(0.1 -0.1)">
       <use xlink:href="#DejaVuSans-49"/>
       <use x="63.623047" xlink:href="#DejaVuSans-53"/>
       <use x="127.246094" xlink:href="#DejaVuSans-48"/>
       <use x="190.869141" xlink:href="#DejaVuSans-46"/>
       <use x="222.65625" xlink:href="#DejaVuSans-48"/>
      </g>
     </g>
    </g>
    <g id="ytick_5">
     <g id="line2d_23">
      <path clip-path="url(#p4f36cd75b8)" d="M 60.59 184.631277 
L 687.158478 184.631277 
" style="fill:none;stroke:#808080;stroke-linecap:square;stroke-opacity:0.2;"/>
     </g>
     <g id="line2d_24">
      <g>
       <use style="stroke:#000000;stroke-width:0.8;" x="60.59" xlink:href="#m44bb45f030" y="184.631277"/>
      </g>
     </g>
     <g id="text_13">
      <!-- 152.5 -->
      <g transform="translate(24.961875 188.430495)scale(0.1 -0.1)">
       <use xlink:href="#DejaVuSans-49"/>
       <use x="63.623047" xlink:href="#DejaVuSans-53"/>
       <use x="127.246094" xlink:href="#DejaVuSans-50"/>
       <use x="190.869141" xlink:href="#DejaVuSans-46"/>
       <use x="222.65625" xlink:href="#DejaVuSans-53"/>
      </g>
     </g>
    </g>
    <g id="ytick_6">
     <g id="line2d_25">
      <path clip-path="url(#p4f36cd75b8)" d="M 60.59 135.112713 
L 687.158478 135.112713 
" style="fill:none;stroke:#808080;stroke-linecap:square;stroke-opacity:0.2;"/>
     </g>
     <g id="line2d_26">
      <g>
       <use style="stroke:#000000;stroke-width:0.8;" x="60.59" xlink:href="#m44bb45f030" y="135.112713"/>
      </g>
     </g>
     <g id="text_14">
      <!-- 155.0 -->
      <g transform="translate(24.961875 138.911932)scale(0.1 -0.1)">
       <use xlink:href="#DejaVuSans-49"/>
       <use x="63.623047" xlink:href="#DejaVuSans-53"/>
       <use x="127.246094" xlink:href="#DejaVuSans-53"/>
       <use x="190.869141" xlink:href="#DejaVuSans-46"/>
       <use x="222.65625" xlink:href="#DejaVuSans-48"/>
      </g>
     </g>
    </g>
    <g id="ytick_7">
     <g id="line2d_27">
      <path clip-path="url(#p4f36cd75b8)" d="M 60.59 85.594149 
L 687.158478 85.594149 
" style="fill:none;stroke:#808080;stroke-linecap:square;stroke-opacity:0.2;"/>
     </g>
     <g id="line2d_28">
      <g>
       <use style="stroke:#000000;stroke-width:0.8;" x="60.59" xlink:href="#m44bb45f030" y="85.594149"/>
      </g>
     </g>
     <g id="text_15">
      <!-- 157.5 -->
      <g transform="translate(24.961875 89.393368)scale(0.1 -0.1)">
       <use xlink:href="#DejaVuSans-49"/>
       <use x="63.623047" xlink:href="#DejaVuSans-53"/>
       <use x="127.246094" xlink:href="#DejaVuSans-55"/>
       <use x="190.869141" xlink:href="#DejaVuSans-46"/>
       <use x="222.65625" xlink:href="#DejaVuSans-53"/>
      </g>
     </g>
    </g>
    <g id="ytick_8">
     <g id="line2d_29">
      <path clip-path="url(#p4f36cd75b8)" d="M 60.59 36.075586 
L 687.158478 36.075586 
" style="fill:none;stroke:#808080;stroke-linecap:square;stroke-opacity:0.2;"/>
     </g>
     <g id="line2d_30">
      <g>
       <use style="stroke:#000000;stroke-width:0.8;" x="60.59" xlink:href="#m44bb45f030" y="36.075586"/>
      </g>
     </g>
     <g id="text_16">
      <!-- 160.0 -->
      <defs>
       <path d="M 33.015625 40.375 
Q 26.375 40.375 22.484375 35.828125 
Q 18.609375 31.296875 18.609375 23.390625 
Q 18.609375 15.53125 22.484375 10.953125 
Q 26.375 6.390625 33.015625 6.390625 
Q 39.65625 6.390625 43.53125 10.953125 
Q 47.40625 15.53125 47.40625 23.390625 
Q 47.40625 31.296875 43.53125 35.828125 
Q 39.65625 40.375 33.015625 40.375 
z
M 52.59375 71.296875 
L 52.59375 62.3125 
Q 48.875 64.0625 45.09375 64.984375 
Q 41.3125 65.921875 37.59375 65.921875 
Q 27.828125 65.921875 22.671875 59.328125 
Q 17.53125 52.734375 16.796875 39.40625 
Q 19.671875 43.65625 24.015625 45.921875 
Q 28.375 48.1875 33.59375 48.1875 
Q 44.578125 48.1875 50.953125 41.515625 
Q 57.328125 34.859375 57.328125 23.390625 
Q 57.328125 12.15625 50.6875 5.359375 
Q 44.046875 -1.421875 33.015625 -1.421875 
Q 20.359375 -1.421875 13.671875 8.265625 
Q 6.984375 17.96875 6.984375 36.375 
Q 6.984375 53.65625 15.1875 63.9375 
Q 23.390625 74.21875 37.203125 74.21875 
Q 40.921875 74.21875 44.703125 73.484375 
Q 48.484375 72.75 52.59375 71.296875 
z
" id="DejaVuSans-54"/>
      </defs>
      <g transform="translate(24.961875 39.874804)scale(0.1 -0.1)">
       <use xlink:href="#DejaVuSans-49"/>
       <use x="63.623047" xlink:href="#DejaVuSans-54"/>
       <use x="127.246094" xlink:href="#DejaVuSans-48"/>
       <use x="190.869141" xlink:href="#DejaVuSans-46"/>
       <use x="222.65625" xlink:href="#DejaVuSans-48"/>
      </g>
     </g>
    </g>
    <g id="text_17">
     <!-- y -->
     <defs>
      <path d="M 32.171875 -5.078125 
Q 28.375 -14.84375 24.75 -17.8125 
Q 21.140625 -20.796875 15.09375 -20.796875 
L 7.90625 -20.796875 
L 7.90625 -13.28125 
L 13.1875 -13.28125 
Q 16.890625 -13.28125 18.9375 -11.515625 
Q 21 -9.765625 23.484375 -3.21875 
L 25.09375 0.875 
L 2.984375 54.6875 
L 12.5 54.6875 
L 29.59375 11.921875 
L 46.6875 54.6875 
L 56.203125 54.6875 
z
" id="DejaVuSans-121"/>
     </defs>
     <g transform="translate(18.882188 203.379375)rotate(-90)scale(0.1 -0.1)">
      <use xlink:href="#DejaVuSans-121"/>
     </g>
    </g>
   </g>
   <g id="line2d_31">
    <defs>
     <path d="M 0 1.5 
C 0.397805 1.5 0.77937 1.341951 1.06066 1.06066 
C 1.341951 0.77937 1.5 0.397805 1.5 0 
C 1.5 -0.397805 1.341951 -0.77937 1.06066 -1.06066 
C 0.77937 -1.341951 0.397805 -1.5 0 -1.5 
C -0.397805 -1.5 -0.77937 -1.341951 -1.06066 -1.06066 
C -1.341951 -0.77937 -1.5 -0.397805 -1.5 0 
C -1.5 0.397805 -1.341951 0.77937 -1.06066 1.06066 
C -0.77937 1.341951 -0.397805 1.5 0 1.5 
z
" id="md86e14494a" style="stroke:#000000;"/>
    </defs>
    <g clip-path="url(#p4f36cd75b8)">
     <use style="stroke:#000000;" x="89.070385" xlink:href="#md86e14494a" y="253.957266"/>
     <use style="stroke:#000000;" x="95.933129" xlink:href="#md86e14494a" y="214.342415"/>
     <use style="stroke:#000000;" x="109.658616" xlink:href="#md86e14494a" y="293.572116"/>
     <use style="stroke:#000000;" x="116.521359" xlink:href="#md86e14494a" y="234.14984"/>
     <use style="stroke:#000000;" x="130.246846" xlink:href="#md86e14494a" y="135.112713"/>
     <use style="stroke:#000000;" x="137.10959" xlink:href="#md86e14494a" y="36.075586"/>
     <use style="stroke:#000000;" x="150.835076" xlink:href="#md86e14494a" y="253.957266"/>
     <use style="stroke:#000000;" x="157.69782" xlink:href="#md86e14494a" y="352.994393"/>
     <use style="stroke:#000000;" x="171.423307" xlink:href="#md86e14494a" y="293.572116"/>
     <use style="stroke:#000000;" x="178.28605" xlink:href="#md86e14494a" y="154.920138"/>
     <use style="stroke:#000000;" x="192.011537" xlink:href="#md86e14494a" y="313.379542"/>
     <use style="stroke:#000000;" x="198.874281" xlink:href="#md86e14494a" y="194.534989"/>
     <use style="stroke:#000000;" x="219.462511" xlink:href="#md86e14494a" y="234.14984"/>
     <use style="stroke:#000000;" x="233.187998" xlink:href="#md86e14494a" y="333.186967"/>
     <use style="stroke:#000000;" x="240.050741" xlink:href="#md86e14494a" y="372.801818"/>
     <use style="stroke:#000000;" x="253.776228" xlink:href="#md86e14494a" y="194.534989"/>
     <use style="stroke:#000000;" x="274.364459" xlink:href="#md86e14494a" y="214.342415"/>
     <use style="stroke:#000000;" x="281.227202" xlink:href="#md86e14494a" y="372.801818"/>
     <use style="stroke:#000000;" x="294.952689" xlink:href="#md86e14494a" y="174.727564"/>
     <use style="stroke:#000000;" x="301.815432" xlink:href="#md86e14494a" y="174.727564"/>
     <use style="stroke:#000000;" x="315.540919" xlink:href="#md86e14494a" y="115.305287"/>
     <use style="stroke:#000000;" x="322.403663" xlink:href="#md86e14494a" y="293.572116"/>
     <use style="stroke:#000000;" x="336.12915" xlink:href="#md86e14494a" y="154.920138"/>
     <use style="stroke:#000000;" x="342.991893" xlink:href="#md86e14494a" y="333.186967"/>
     <use style="stroke:#000000;" x="356.71738" xlink:href="#md86e14494a" y="253.957266"/>
     <use style="stroke:#000000;" x="363.580124" xlink:href="#md86e14494a" y="115.305287"/>
     <use style="stroke:#000000;" x="377.305611" xlink:href="#md86e14494a" y="174.727564"/>
     <use style="stroke:#000000;" x="384.168354" xlink:href="#md86e14494a" y="95.497862"/>
     <use style="stroke:#000000;" x="397.893841" xlink:href="#md86e14494a" y="95.497862"/>
     <use style="stroke:#000000;" x="404.756584" xlink:href="#md86e14494a" y="234.14984"/>
     <use style="stroke:#000000;" x="418.482071" xlink:href="#md86e14494a" y="253.957266"/>
     <use style="stroke:#000000;" x="425.344815" xlink:href="#md86e14494a" y="55.883011"/>
     <use style="stroke:#000000;" x="439.070302" xlink:href="#md86e14494a" y="115.305287"/>
     <use style="stroke:#000000;" x="445.933045" xlink:href="#md86e14494a" y="234.14984"/>
     <use style="stroke:#000000;" x="459.658532" xlink:href="#md86e14494a" y="154.920138"/>
     <use style="stroke:#000000;" x="466.521275" xlink:href="#md86e14494a" y="234.14984"/>
     <use style="stroke:#000000;" x="480.246762" xlink:href="#md86e14494a" y="135.112713"/>
     <use style="stroke:#000000;" x="487.109506" xlink:href="#md86e14494a" y="194.534989"/>
     <use style="stroke:#000000;" x="500.834993" xlink:href="#md86e14494a" y="214.342415"/>
     <use style="stroke:#000000;" x="507.697736" xlink:href="#md86e14494a" y="75.690437"/>
     <use style="stroke:#000000;" x="521.423223" xlink:href="#md86e14494a" y="154.920138"/>
     <use style="stroke:#000000;" x="528.285967" xlink:href="#md86e14494a" y="214.342415"/>
     <use style="stroke:#000000;" x="542.011453" xlink:href="#md86e14494a" y="174.727564"/>
     <use style="stroke:#000000;" x="548.874197" xlink:href="#md86e14494a" y="234.14984"/>
     <use style="stroke:#000000;" x="562.599684" xlink:href="#md86e14494a" y="115.305287"/>
     <use style="stroke:#000000;" x="569.462427" xlink:href="#md86e14494a" y="253.957266"/>
     <use style="stroke:#000000;" x="583.187914" xlink:href="#md86e14494a" y="95.497862"/>
     <use style="stroke:#000000;" x="590.050658" xlink:href="#md86e14494a" y="154.920138"/>
     <use style="stroke:#000000;" x="603.776145" xlink:href="#md86e14494a" y="253.957266"/>
     <use style="stroke:#000000;" x="610.638888" xlink:href="#md86e14494a" y="95.497862"/>
     <use style="stroke:#000000;" x="624.364375" xlink:href="#md86e14494a" y="174.727564"/>
     <use style="stroke:#000000;" x="631.227118" xlink:href="#md86e14494a" y="55.883011"/>
     <use style="stroke:#000000;" x="644.952605" xlink:href="#md86e14494a" y="135.112713"/>
     <use style="stroke:#000000;" x="651.815349" xlink:href="#md86e14494a" y="194.534989"/>
    </g>
   </g>
   <g id="line2d_32">
    <path clip-path="url(#p4f36cd75b8)" d="M 89.070385 245.84469 
L 95.933129 255.556482 
L 109.658616 251.688975 
L 116.521359 274.453327 
L 130.246846 230.309485 
L 137.10959 239.033654 
L 150.835076 221.31157 
L 157.69782 244.87794 
L 171.423307 224.694918 
L 178.28605 223.498449 
L 192.011537 241.934409 
L 198.874281 214.498377 
L 219.462511 217.875254 
L 233.187998 225.345799 
L 240.050741 234.68549 
L 253.776228 230.073783 
L 274.364459 207.562328 
L 281.227202 215.909175 
L 294.952689 197.391522 
L 301.815432 220.554038 
L 315.540919 199.563309 
L 322.403663 197.962987 
L 336.12915 215.59124 
L 342.991893 187.753511 
L 356.71738 233.276525 
L 363.580124 189.925299 
L 377.305611 196.645291 
L 384.168354 205.953229 
L 397.893841 201.278016 
L 404.756584 223.638514 
L 418.482071 178.68707 
L 425.344815 187.007894 
L 439.070302 168.479121 
L 445.933045 191.642146 
L 459.658532 170.652436 
L 466.521275 169.052622 
L 480.246762 186.681894 
L 487.109506 158.844674 
L 500.834993 204.368706 
L 507.697736 161.017989 
L 521.423223 167.738999 
L 528.285967 177.047447 
L 542.011453 172.373252 
L 548.874197 194.734259 
L 562.599684 149.783729 
L 569.462427 158.104553 
L 583.187914 139.57578 
L 590.050658 162.738805 
L 603.776145 141.749095 
L 610.638888 140.149282 
L 624.364375 157.778553 
L 631.227118 129.941333 
L 644.952605 175.465365 
L 651.815349 132.114648 
L 658.678092 130.514835 
" style="fill:none;stroke:#0072b2;stroke-linecap:square;stroke-width:1.5;"/>
   </g>
   <g id="patch_3">
    <path d="M 60.59 390.04 
L 60.59 10.8 
" style="fill:none;stroke:#000000;stroke-linecap:square;stroke-linejoin:miter;stroke-width:0.8;"/>
   </g>
   <g id="patch_4">
    <path d="M 687.158478 390.04 
L 687.158478 10.8 
" style="fill:none;stroke:#000000;stroke-linecap:square;stroke-linejoin:miter;stroke-width:0.8;"/>
   </g>
   <g id="patch_5">
    <path d="M 60.59 390.04 
L 687.158478 390.04 
" style="fill:none;stroke:#000000;stroke-linecap:square;stroke-linejoin:miter;stroke-width:0.8;"/>
   </g>
   <g id="patch_6">
    <path d="M 60.59 10.8 
L 687.158478 10.8 
" style="fill:none;stroke:#000000;stroke-linecap:square;stroke-linejoin:miter;stroke-width:0.8;"/>
   </g>
  </g>
 </g>
 <defs>
  <clipPath id="p4f36cd75b8">
   <rect height="379.24" width="626.568478" x="60.59" y="10.8"/>
  </clipPath>
 </defs>
</svg>
