<?xml version="1.0" encoding="utf-8" standalone="no"?>
<!DOCTYPE svg PUBLIC "-//W3C//DTD SVG 1.1//EN"
  "http://www.w3.org/Graphics/SVG/1.1/DTD/svg11.dtd">
<!-- Created with matplotlib (https://matplotlib.org/) -->
<svg height="432pt" version="1.1" viewBox="0 0 720 432" width="720pt" xmlns="http://www.w3.org/2000/svg" xmlns:xlink="http://www.w3.org/1999/xlink">
 <defs>
  <style type="text/css">
*{stroke-linecap:butt;stroke-linejoin:round;}
  </style>
 </defs>
 <g id="figure_1">
  <g id="patch_1">
   <path d="M 0 432 
L 720 432 
L 720 0 
L 0 0 
z
" style="fill:#ffffff;"/>
  </g>
  <g id="axes_1">
   <g id="patch_2">
    <path d="M 51.05 390.04 
L 693.270197 390.04 
L 693.270197 10.8 
L 51.05 10.8 
z
" style="fill:#ffffff;"/>
   </g>
   <g id="PolyCollection_1">
    <defs>
     <path d="M 80.241827 -313.112599 
L 80.241827 -100.91407 
L 101.344353 -121.364754 
L 108.378528 -128.693731 
L 122.446878 -104.115101 
L 129.481054 -106.554042 
L 143.549404 -74.328762 
L 150.583579 -125.094737 
L 164.65193 -90.251928 
L 185.754455 -99.452592 
L 192.788631 -76.000677 
L 206.856981 -134.223889 
L 213.891156 -92.929527 
L 227.959507 -116.574603 
L 234.993682 -104.429735 
L 249.062032 -138.891058 
L 256.096208 -144.380257 
L 270.164558 -105.691906 
L 277.198733 -118.754664 
L 291.267084 -81.115388 
L 298.301259 -139.865545 
L 312.369609 -94.474857 
L 319.403784 -107.239534 
L 333.472135 -114.080754 
L 340.50631 -82.817015 
L 354.574661 -142.133056 
L 361.608836 -101.42945 
L 382.711361 -116.612578 
L 396.779712 -137.286738 
L 403.813887 -148.801171 
L 417.882237 -112.127119 
L 438.984763 -90.773763 
L 446.018938 -144.424167 
L 467.121464 -117.629221 
L 481.189814 -116.667053 
L 488.22399 -96.23165 
L 509.326515 -108.867129 
L 523.394866 -130.08198 
L 530.429041 -112.244414 
L 544.497391 -150.594821 
L 551.531567 -152.966773 
L 565.599917 -123.359733 
L 572.634092 -131.746035 
L 586.702443 -97.563427 
L 593.736618 -158.105353 
L 607.804968 -105.747983 
L 614.839144 -133.109073 
L 635.941669 -107.976427 
L 650.01002 -162.99334 
L 657.044195 -116.799772 
L 664.07837 -128.240838 
L 664.07837 -339.207325 
L 664.07837 -339.207325 
L 657.044195 -317.444443 
L 650.01002 -360.604924 
L 635.941669 -315.375105 
L 614.839144 -336.427687 
L 607.804968 -321.677524 
L 593.736618 -368.519619 
L 586.702443 -303.763312 
L 572.634092 -331.461229 
L 565.599917 -331.889476 
L 551.531567 -359.178554 
L 544.497391 -355.754382 
L 530.429041 -322.687577 
L 523.394866 -344.14348 
L 509.326515 -322.249298 
L 488.22399 -302.603417 
L 481.189814 -320.99176 
L 467.121464 -329.105945 
L 446.018938 -357.819085 
L 438.984763 -297.394954 
L 417.882237 -325.963862 
L 403.813887 -357.067181 
L 396.779712 -353.921661 
L 382.711361 -318.941498 
L 361.608836 -310.219264 
L 354.574661 -352.56475 
L 340.50631 -291.562485 
L 333.472135 -313.525071 
L 319.403784 -322.768301 
L 312.369609 -310.174972 
L 298.301259 -351.813153 
L 291.267084 -292.847505 
L 277.198733 -330.006915 
L 270.164558 -316.304046 
L 256.096208 -344.981576 
L 249.062032 -352.90104 
L 234.993682 -302.758527 
L 227.959507 -324.839379 
L 213.891156 -307.266597 
L 206.856981 -337.05589 
L 192.788631 -286.806912 
L 185.754455 -302.875442 
L 164.65193 -293.976865 
L 150.583579 -340.675249 
L 143.549404 -280.850924 
L 129.481054 -316.433224 
L 122.446878 -310.729964 
L 108.378528 -337.193894 
L 101.344353 -337.212076 
L 80.241827 -313.112599 
z
" id="mef5f4c5ed2" style="stroke:#0072b2;stroke-opacity:0.2;"/>
    </defs>
    <g clip-path="url(#pfc98211bf8)">
     <use style="fill:#0072b2;fill-opacity:0.2;stroke:#0072b2;stroke-opacity:0.2;" x="0" xlink:href="#mef5f4c5ed2" y="432"/>
    </g>
   </g>
   <g id="matplotlib.axis_1">
    <g id="xtick_1">
     <g id="line2d_1">
      <path clip-path="url(#pfc98211bf8)" d="M 87.276002 390.04 
L 87.276002 10.8 
" style="fill:none;stroke:#808080;stroke-linecap:square;stroke-opacity:0.2;"/>
     </g>
     <g id="line2d_2">
      <defs>
       <path d="M 0 0 
L 0 3.5 
" id="me88fdb7996" style="stroke:#000000;stroke-width:0.8;"/>
      </defs>
      <g>
       <use style="stroke:#000000;stroke-width:0.8;" x="87.276002" xlink:href="#me88fdb7996" y="390.04"/>
      </g>
     </g>
     <g id="text_1">
      <!-- 2019-01-03 -->
      <defs>
       <path d="M 19.1875 8.296875 
L 53.609375 8.296875 
L 53.609375 0 
L 7.328125 0 
L 7.328125 8.296875 
Q 12.9375 14.109375 22.625 23.890625 
Q 32.328125 33.6875 34.8125 36.53125 
Q 39.546875 41.84375 41.421875 45.53125 
Q 43.3125 49.21875 43.3125 52.78125 
Q 43.3125 58.59375 39.234375 62.25 
Q 35.15625 65.921875 28.609375 65.921875 
Q 23.96875 65.921875 18.8125 64.3125 
Q 13.671875 62.703125 7.8125 59.421875 
L 7.8125 69.390625 
Q 13.765625 71.78125 18.9375 73 
Q 24.125 74.21875 28.421875 74.21875 
Q 39.75 74.21875 46.484375 68.546875 
Q 53.21875 62.890625 53.21875 53.421875 
Q 53.21875 48.921875 51.53125 44.890625 
Q 49.859375 40.875 45.40625 35.40625 
Q 44.1875 33.984375 37.640625 27.21875 
Q 31.109375 20.453125 19.1875 8.296875 
z
" id="DejaVuSans-50"/>
       <path d="M 31.78125 66.40625 
Q 24.171875 66.40625 20.328125 58.90625 
Q 16.5 51.421875 16.5 36.375 
Q 16.5 21.390625 20.328125 13.890625 
Q 24.171875 6.390625 31.78125 6.390625 
Q 39.453125 6.390625 43.28125 13.890625 
Q 47.125 21.390625 47.125 36.375 
Q 47.125 51.421875 43.28125 58.90625 
Q 39.453125 66.40625 31.78125 66.40625 
z
M 31.78125 74.21875 
Q 44.046875 74.21875 50.515625 64.515625 
Q 56.984375 54.828125 56.984375 36.375 
Q 56.984375 17.96875 50.515625 8.265625 
Q 44.046875 -1.421875 31.78125 -1.421875 
Q 19.53125 -1.421875 13.0625 8.265625 
Q 6.59375 17.96875 6.59375 36.375 
Q 6.59375 54.828125 13.0625 64.515625 
Q 19.53125 74.21875 31.78125 74.21875 
z
" id="DejaVuSans-48"/>
       <path d="M 12.40625 8.296875 
L 28.515625 8.296875 
L 28.515625 63.921875 
L 10.984375 60.40625 
L 10.984375 69.390625 
L 28.421875 72.90625 
L 38.28125 72.90625 
L 38.28125 8.296875 
L 54.390625 8.296875 
L 54.390625 0 
L 12.40625 0 
z
" id="DejaVuSans-49"/>
       <path d="M 10.984375 1.515625 
L 10.984375 10.5 
Q 14.703125 8.734375 18.5 7.8125 
Q 22.3125 6.890625 25.984375 6.890625 
Q 35.75 6.890625 40.890625 13.453125 
Q 46.046875 20.015625 46.78125 33.40625 
Q 43.953125 29.203125 39.59375 26.953125 
Q 35.25 24.703125 29.984375 24.703125 
Q 19.046875 24.703125 12.671875 31.3125 
Q 6.296875 37.9375 6.296875 49.421875 
Q 6.296875 60.640625 12.9375 67.421875 
Q 19.578125 74.21875 30.609375 74.21875 
Q 43.265625 74.21875 49.921875 64.515625 
Q 56.59375 54.828125 56.59375 36.375 
Q 56.59375 19.140625 48.40625 8.859375 
Q 40.234375 -1.421875 26.421875 -1.421875 
Q 22.703125 -1.421875 18.890625 -0.6875 
Q 15.09375 0.046875 10.984375 1.515625 
z
M 30.609375 32.421875 
Q 37.25 32.421875 41.125 36.953125 
Q 45.015625 41.5 45.015625 49.421875 
Q 45.015625 57.28125 41.125 61.84375 
Q 37.25 66.40625 30.609375 66.40625 
Q 23.96875 66.40625 20.09375 61.84375 
Q 16.21875 57.28125 16.21875 49.421875 
Q 16.21875 41.5 20.09375 36.953125 
Q 23.96875 32.421875 30.609375 32.421875 
z
" id="DejaVuSans-57"/>
       <path d="M 4.890625 31.390625 
L 31.203125 31.390625 
L 31.203125 23.390625 
L 4.890625 23.390625 
z
" id="DejaVuSans-45"/>
       <path d="M 40.578125 39.3125 
Q 47.65625 37.796875 51.625 33 
Q 55.609375 28.21875 55.609375 21.1875 
Q 55.609375 10.40625 48.1875 4.484375 
Q 40.765625 -1.421875 27.09375 -1.421875 
Q 22.515625 -1.421875 17.65625 -0.515625 
Q 12.796875 0.390625 7.625 2.203125 
L 7.625 11.71875 
Q 11.71875 9.328125 16.59375 8.109375 
Q 21.484375 6.890625 26.8125 6.890625 
Q 36.078125 6.890625 40.9375 10.546875 
Q 45.796875 14.203125 45.796875 21.1875 
Q 45.796875 27.640625 41.28125 31.265625 
Q 36.765625 34.90625 28.71875 34.90625 
L 20.21875 34.90625 
L 20.21875 43.015625 
L 29.109375 43.015625 
Q 36.375 43.015625 40.234375 45.921875 
Q 44.09375 48.828125 44.09375 54.296875 
Q 44.09375 59.90625 40.109375 62.90625 
Q 36.140625 65.921875 28.71875 65.921875 
Q 24.65625 65.921875 20.015625 65.03125 
Q 15.375 64.15625 9.8125 62.3125 
L 9.8125 71.09375 
Q 15.4375 72.65625 20.34375 73.4375 
Q 25.25 74.21875 29.59375 74.21875 
Q 40.828125 74.21875 47.359375 69.109375 
Q 53.90625 64.015625 53.90625 55.328125 
Q 53.90625 49.265625 50.4375 45.09375 
Q 46.96875 40.921875 40.578125 39.3125 
z
" id="DejaVuSans-51"/>
      </defs>
      <g transform="translate(58.21819 404.638438)scale(0.1 -0.1)">
       <use xlink:href="#DejaVuSans-50"/>
       <use x="63.623047" xlink:href="#DejaVuSans-48"/>
       <use x="127.246094" xlink:href="#DejaVuSans-49"/>
       <use x="190.869141" xlink:href="#DejaVuSans-57"/>
       <use x="254.492188" xlink:href="#DejaVuSans-45"/>
       <use x="290.576172" xlink:href="#DejaVuSans-48"/>
       <use x="354.199219" xlink:href="#DejaVuSans-49"/>
       <use x="417.822266" xlink:href="#DejaVuSans-45"/>
       <use x="453.90625" xlink:href="#DejaVuSans-48"/>
       <use x="517.529297" xlink:href="#DejaVuSans-51"/>
      </g>
     </g>
    </g>
    <g id="xtick_2">
     <g id="line2d_3">
      <path clip-path="url(#pfc98211bf8)" d="M 185.754455 390.04 
L 185.754455 10.8 
" style="fill:none;stroke:#808080;stroke-linecap:square;stroke-opacity:0.2;"/>
     </g>
     <g id="line2d_4">
      <g>
       <use style="stroke:#000000;stroke-width:0.8;" x="185.754455" xlink:href="#me88fdb7996" y="390.04"/>
      </g>
     </g>
     <g id="text_2">
      <!-- 2019-01-17 -->
      <defs>
       <path d="M 8.203125 72.90625 
L 55.078125 72.90625 
L 55.078125 68.703125 
L 28.609375 0 
L 18.3125 0 
L 43.21875 64.59375 
L 8.203125 64.59375 
z
" id="DejaVuSans-55"/>
      </defs>
      <g transform="translate(156.696643 404.638438)scale(0.1 -0.1)">
       <use xlink:href="#DejaVuSans-50"/>
       <use x="63.623047" xlink:href="#DejaVuSans-48"/>
       <use x="127.246094" xlink:href="#DejaVuSans-49"/>
       <use x="190.869141" xlink:href="#DejaVuSans-57"/>
       <use x="254.492188" xlink:href="#DejaVuSans-45"/>
       <use x="290.576172" xlink:href="#DejaVuSans-48"/>
       <use x="354.199219" xlink:href="#DejaVuSans-49"/>
       <use x="417.822266" xlink:href="#DejaVuSans-45"/>
       <use x="453.90625" xlink:href="#DejaVuSans-49"/>
       <use x="517.529297" xlink:href="#DejaVuSans-55"/>
      </g>
     </g>
    </g>
    <g id="xtick_3">
     <g id="line2d_5">
      <path clip-path="url(#pfc98211bf8)" d="M 284.232908 390.04 
L 284.232908 10.8 
" style="fill:none;stroke:#808080;stroke-linecap:square;stroke-opacity:0.2;"/>
     </g>
     <g id="line2d_6">
      <g>
       <use style="stroke:#000000;stroke-width:0.8;" x="284.232908" xlink:href="#me88fdb7996" y="390.04"/>
      </g>
     </g>
     <g id="text_3">
      <!-- 2019-01-31 -->
      <g transform="translate(255.175096 404.638438)scale(0.1 -0.1)">
       <use xlink:href="#DejaVuSans-50"/>
       <use x="63.623047" xlink:href="#DejaVuSans-48"/>
       <use x="127.246094" xlink:href="#DejaVuSans-49"/>
       <use x="190.869141" xlink:href="#DejaVuSans-57"/>
       <use x="254.492188" xlink:href="#DejaVuSans-45"/>
       <use x="290.576172" xlink:href="#DejaVuSans-48"/>
       <use x="354.199219" xlink:href="#DejaVuSans-49"/>
       <use x="417.822266" xlink:href="#DejaVuSans-45"/>
       <use x="453.90625" xlink:href="#DejaVuSans-51"/>
       <use x="517.529297" xlink:href="#DejaVuSans-49"/>
      </g>
     </g>
    </g>
    <g id="xtick_4">
     <g id="line2d_7">
      <path clip-path="url(#pfc98211bf8)" d="M 382.711361 390.04 
L 382.711361 10.8 
" style="fill:none;stroke:#808080;stroke-linecap:square;stroke-opacity:0.2;"/>
     </g>
     <g id="line2d_8">
      <g>
       <use style="stroke:#000000;stroke-width:0.8;" x="382.711361" xlink:href="#me88fdb7996" y="390.04"/>
      </g>
     </g>
     <g id="text_4">
      <!-- 2019-02-14 -->
      <defs>
       <path d="M 37.796875 64.3125 
L 12.890625 25.390625 
L 37.796875 25.390625 
z
M 35.203125 72.90625 
L 47.609375 72.90625 
L 47.609375 25.390625 
L 58.015625 25.390625 
L 58.015625 17.1875 
L 47.609375 17.1875 
L 47.609375 0 
L 37.796875 0 
L 37.796875 17.1875 
L 4.890625 17.1875 
L 4.890625 26.703125 
z
" id="DejaVuSans-52"/>
      </defs>
      <g transform="translate(353.653549 404.638438)scale(0.1 -0.1)">
       <use xlink:href="#DejaVuSans-50"/>
       <use x="63.623047" xlink:href="#DejaVuSans-48"/>
       <use x="127.246094" xlink:href="#DejaVuSans-49"/>
       <use x="190.869141" xlink:href="#DejaVuSans-57"/>
       <use x="254.492188" xlink:href="#DejaVuSans-45"/>
       <use x="290.576172" xlink:href="#DejaVuSans-48"/>
       <use x="354.199219" xlink:href="#DejaVuSans-50"/>
       <use x="417.822266" xlink:href="#DejaVuSans-45"/>
       <use x="453.90625" xlink:href="#DejaVuSans-49"/>
       <use x="517.529297" xlink:href="#DejaVuSans-52"/>
      </g>
     </g>
    </g>
    <g id="xtick_5">
     <g id="line2d_9">
      <path clip-path="url(#pfc98211bf8)" d="M 481.189814 390.04 
L 481.189814 10.8 
" style="fill:none;stroke:#808080;stroke-linecap:square;stroke-opacity:0.2;"/>
     </g>
     <g id="line2d_10">
      <g>
       <use style="stroke:#000000;stroke-width:0.8;" x="481.189814" xlink:href="#me88fdb7996" y="390.04"/>
      </g>
     </g>
     <g id="text_5">
      <!-- 2019-02-28 -->
      <defs>
       <path d="M 31.78125 34.625 
Q 24.75 34.625 20.71875 30.859375 
Q 16.703125 27.09375 16.703125 20.515625 
Q 16.703125 13.921875 20.71875 10.15625 
Q 24.75 6.390625 31.78125 6.390625 
Q 38.8125 6.390625 42.859375 10.171875 
Q 46.921875 13.96875 46.921875 20.515625 
Q 46.921875 27.09375 42.890625 30.859375 
Q 38.875 34.625 31.78125 34.625 
z
M 21.921875 38.8125 
Q 15.578125 40.375 12.03125 44.71875 
Q 8.5 49.078125 8.5 55.328125 
Q 8.5 64.0625 14.71875 69.140625 
Q 20.953125 74.21875 31.78125 74.21875 
Q 42.671875 74.21875 48.875 69.140625 
Q 55.078125 64.0625 55.078125 55.328125 
Q 55.078125 49.078125 51.53125 44.71875 
Q 48 40.375 41.703125 38.8125 
Q 48.828125 37.15625 52.796875 32.3125 
Q 56.78125 27.484375 56.78125 20.515625 
Q 56.78125 9.90625 50.3125 4.234375 
Q 43.84375 -1.421875 31.78125 -1.421875 
Q 19.734375 -1.421875 13.25 4.234375 
Q 6.78125 9.90625 6.78125 20.515625 
Q 6.78125 27.484375 10.78125 32.3125 
Q 14.796875 37.15625 21.921875 38.8125 
z
M 18.3125 54.390625 
Q 18.3125 48.734375 21.84375 45.5625 
Q 25.390625 42.390625 31.78125 42.390625 
Q 38.140625 42.390625 41.71875 45.5625 
Q 45.3125 48.734375 45.3125 54.390625 
Q 45.3125 60.0625 41.71875 63.234375 
Q 38.140625 66.40625 31.78125 66.40625 
Q 25.390625 66.40625 21.84375 63.234375 
Q 18.3125 60.0625 18.3125 54.390625 
z
" id="DejaVuSans-56"/>
      </defs>
      <g transform="translate(452.132002 404.638438)scale(0.1 -0.1)">
       <use xlink:href="#DejaVuSans-50"/>
       <use x="63.623047" xlink:href="#DejaVuSans-48"/>
       <use x="127.246094" xlink:href="#DejaVuSans-49"/>
       <use x="190.869141" xlink:href="#DejaVuSans-57"/>
       <use x="254.492188" xlink:href="#DejaVuSans-45"/>
       <use x="290.576172" xlink:href="#DejaVuSans-48"/>
       <use x="354.199219" xlink:href="#DejaVuSans-50"/>
       <use x="417.822266" xlink:href="#DejaVuSans-45"/>
       <use x="453.90625" xlink:href="#DejaVuSans-50"/>
       <use x="517.529297" xlink:href="#DejaVuSans-56"/>
      </g>
     </g>
    </g>
    <g id="xtick_6">
     <g id="line2d_11">
      <path clip-path="url(#pfc98211bf8)" d="M 579.668267 390.04 
L 579.668267 10.8 
" style="fill:none;stroke:#808080;stroke-linecap:square;stroke-opacity:0.2;"/>
     </g>
     <g id="line2d_12">
      <g>
       <use style="stroke:#000000;stroke-width:0.8;" x="579.668267" xlink:href="#me88fdb7996" y="390.04"/>
      </g>
     </g>
     <g id="text_6">
      <!-- 2019-03-14 -->
      <g transform="translate(550.610455 404.638438)scale(0.1 -0.1)">
       <use xlink:href="#DejaVuSans-50"/>
       <use x="63.623047" xlink:href="#DejaVuSans-48"/>
       <use x="127.246094" xlink:href="#DejaVuSans-49"/>
       <use x="190.869141" xlink:href="#DejaVuSans-57"/>
       <use x="254.492188" xlink:href="#DejaVuSans-45"/>
       <use x="290.576172" xlink:href="#DejaVuSans-48"/>
       <use x="354.199219" xlink:href="#DejaVuSans-51"/>
       <use x="417.822266" xlink:href="#DejaVuSans-45"/>
       <use x="453.90625" xlink:href="#DejaVuSans-49"/>
       <use x="517.529297" xlink:href="#DejaVuSans-52"/>
      </g>
     </g>
    </g>
    <g id="xtick_7">
     <g id="line2d_13">
      <path clip-path="url(#pfc98211bf8)" d="M 678.14672 390.04 
L 678.14672 10.8 
" style="fill:none;stroke:#808080;stroke-linecap:square;stroke-opacity:0.2;"/>
     </g>
     <g id="line2d_14">
      <g>
       <use style="stroke:#000000;stroke-width:0.8;" x="678.14672" xlink:href="#me88fdb7996" y="390.04"/>
      </g>
     </g>
     <g id="text_7">
      <!-- 2019-03-28 -->
      <g transform="translate(649.088908 404.638438)scale(0.1 -0.1)">
       <use xlink:href="#DejaVuSans-50"/>
       <use x="63.623047" xlink:href="#DejaVuSans-48"/>
       <use x="127.246094" xlink:href="#DejaVuSans-49"/>
       <use x="190.869141" xlink:href="#DejaVuSans-57"/>
       <use x="254.492188" xlink:href="#DejaVuSans-45"/>
       <use x="290.576172" xlink:href="#DejaVuSans-48"/>
       <use x="354.199219" xlink:href="#DejaVuSans-51"/>
       <use x="417.822266" xlink:href="#DejaVuSans-45"/>
       <use x="453.90625" xlink:href="#DejaVuSans-50"/>
       <use x="517.529297" xlink:href="#DejaVuSans-56"/>
      </g>
     </g>
    </g>
    <g id="text_8">
     <!-- ds -->
     <defs>
      <path d="M 45.40625 46.390625 
L 45.40625 75.984375 
L 54.390625 75.984375 
L 54.390625 0 
L 45.40625 0 
L 45.40625 8.203125 
Q 42.578125 3.328125 38.25 0.953125 
Q 33.9375 -1.421875 27.875 -1.421875 
Q 17.96875 -1.421875 11.734375 6.484375 
Q 5.515625 14.40625 5.515625 27.296875 
Q 5.515625 40.1875 11.734375 48.09375 
Q 17.96875 56 27.875 56 
Q 33.9375 56 38.25 53.625 
Q 42.578125 51.265625 45.40625 46.390625 
z
M 14.796875 27.296875 
Q 14.796875 17.390625 18.875 11.75 
Q 22.953125 6.109375 30.078125 6.109375 
Q 37.203125 6.109375 41.296875 11.75 
Q 45.40625 17.390625 45.40625 27.296875 
Q 45.40625 37.203125 41.296875 42.84375 
Q 37.203125 48.484375 30.078125 48.484375 
Q 22.953125 48.484375 18.875 42.84375 
Q 14.796875 37.203125 14.796875 27.296875 
z
" id="DejaVuSans-100"/>
      <path d="M 44.28125 53.078125 
L 44.28125 44.578125 
Q 40.484375 46.53125 36.375 47.5 
Q 32.28125 48.484375 27.875 48.484375 
Q 21.1875 48.484375 17.84375 46.4375 
Q 14.5 44.390625 14.5 40.28125 
Q 14.5 37.15625 16.890625 35.375 
Q 19.28125 33.59375 26.515625 31.984375 
L 29.59375 31.296875 
Q 39.15625 29.25 43.1875 25.515625 
Q 47.21875 21.78125 47.21875 15.09375 
Q 47.21875 7.46875 41.1875 3.015625 
Q 35.15625 -1.421875 24.609375 -1.421875 
Q 20.21875 -1.421875 15.453125 -0.5625 
Q 10.6875 0.296875 5.421875 2 
L 5.421875 11.28125 
Q 10.40625 8.6875 15.234375 7.390625 
Q 20.0625 6.109375 24.8125 6.109375 
Q 31.15625 6.109375 34.5625 8.28125 
Q 37.984375 10.453125 37.984375 14.40625 
Q 37.984375 18.0625 35.515625 20.015625 
Q 33.0625 21.96875 24.703125 23.78125 
L 21.578125 24.515625 
Q 13.234375 26.265625 9.515625 29.90625 
Q 5.8125 33.546875 5.8125 39.890625 
Q 5.8125 47.609375 11.28125 51.796875 
Q 16.75 56 26.8125 56 
Q 31.78125 56 36.171875 55.265625 
Q 40.578125 54.546875 44.28125 53.078125 
z
" id="DejaVuSans-115"/>
     </defs>
     <g transform="translate(366.381192 418.316562)scale(0.1 -0.1)">
      <use xlink:href="#DejaVuSans-100"/>
      <use x="63.476562" xlink:href="#DejaVuSans-115"/>
     </g>
    </g>
   </g>
   <g id="matplotlib.axis_2">
    <g id="ytick_1">
     <g id="line2d_15">
      <path clip-path="url(#pfc98211bf8)" d="M 51.05 341.459669 
L 693.270197 341.459669 
" style="fill:none;stroke:#808080;stroke-linecap:square;stroke-opacity:0.2;"/>
     </g>
     <g id="line2d_16">
      <defs>
       <path d="M 0 0 
L -3.5 0 
" id="m4218c2ccd6" style="stroke:#000000;stroke-width:0.8;"/>
      </defs>
      <g>
       <use style="stroke:#000000;stroke-width:0.8;" x="51.05" xlink:href="#m4218c2ccd6" y="341.459669"/>
      </g>
     </g>
     <g id="text_9">
      <!-- 135 -->
      <defs>
       <path d="M 10.796875 72.90625 
L 49.515625 72.90625 
L 49.515625 64.59375 
L 19.828125 64.59375 
L 19.828125 46.734375 
Q 21.96875 47.46875 24.109375 47.828125 
Q 26.265625 48.1875 28.421875 48.1875 
Q 40.625 48.1875 47.75 41.5 
Q 54.890625 34.8125 54.890625 23.390625 
Q 54.890625 11.625 47.5625 5.09375 
Q 40.234375 -1.421875 26.90625 -1.421875 
Q 22.3125 -1.421875 17.546875 -0.640625 
Q 12.796875 0.140625 7.71875 1.703125 
L 7.71875 11.625 
Q 12.109375 9.234375 16.796875 8.0625 
Q 21.484375 6.890625 26.703125 6.890625 
Q 35.15625 6.890625 40.078125 11.328125 
Q 45.015625 15.765625 45.015625 23.390625 
Q 45.015625 31 40.078125 35.4375 
Q 35.15625 39.890625 26.703125 39.890625 
Q 22.75 39.890625 18.8125 39.015625 
Q 14.890625 38.140625 10.796875 36.28125 
z
" id="DejaVuSans-53"/>
      </defs>
      <g transform="translate(24.9625 345.258888)scale(0.1 -0.1)">
       <use xlink:href="#DejaVuSans-49"/>
       <use x="63.623047" xlink:href="#DejaVuSans-51"/>
       <use x="127.246094" xlink:href="#DejaVuSans-53"/>
      </g>
     </g>
    </g>
    <g id="ytick_2">
     <g id="line2d_17">
      <path clip-path="url(#pfc98211bf8)" d="M 51.05 263.104298 
L 693.270197 263.104298 
" style="fill:none;stroke:#808080;stroke-linecap:square;stroke-opacity:0.2;"/>
     </g>
     <g id="line2d_18">
      <g>
       <use style="stroke:#000000;stroke-width:0.8;" x="51.05" xlink:href="#m4218c2ccd6" y="263.104298"/>
      </g>
     </g>
     <g id="text_10">
      <!-- 140 -->
      <g transform="translate(24.9625 266.903516)scale(0.1 -0.1)">
       <use xlink:href="#DejaVuSans-49"/>
       <use x="63.623047" xlink:href="#DejaVuSans-52"/>
       <use x="127.246094" xlink:href="#DejaVuSans-48"/>
      </g>
     </g>
    </g>
    <g id="ytick_3">
     <g id="line2d_19">
      <path clip-path="url(#pfc98211bf8)" d="M 51.05 184.748926 
L 693.270197 184.748926 
" style="fill:none;stroke:#808080;stroke-linecap:square;stroke-opacity:0.2;"/>
     </g>
     <g id="line2d_20">
      <g>
       <use style="stroke:#000000;stroke-width:0.8;" x="51.05" xlink:href="#m4218c2ccd6" y="184.748926"/>
      </g>
     </g>
     <g id="text_11">
      <!-- 145 -->
      <g transform="translate(24.9625 188.548144)scale(0.1 -0.1)">
       <use xlink:href="#DejaVuSans-49"/>
       <use x="63.623047" xlink:href="#DejaVuSans-52"/>
       <use x="127.246094" xlink:href="#DejaVuSans-53"/>
      </g>
     </g>
    </g>
    <g id="ytick_4">
     <g id="line2d_21">
      <path clip-path="url(#pfc98211bf8)" d="M 51.05 106.393554 
L 693.270197 106.393554 
" style="fill:none;stroke:#808080;stroke-linecap:square;stroke-opacity:0.2;"/>
     </g>
     <g id="line2d_22">
      <g>
       <use style="stroke:#000000;stroke-width:0.8;" x="51.05" xlink:href="#m4218c2ccd6" y="106.393554"/>
      </g>
     </g>
     <g id="text_12">
      <!-- 150 -->
      <g transform="translate(24.9625 110.192772)scale(0.1 -0.1)">
       <use xlink:href="#DejaVuSans-49"/>
       <use x="63.623047" xlink:href="#DejaVuSans-53"/>
       <use x="127.246094" xlink:href="#DejaVuSans-48"/>
      </g>
     </g>
    </g>
    <g id="ytick_5">
     <g id="line2d_23">
      <path clip-path="url(#pfc98211bf8)" d="M 51.05 28.038182 
L 693.270197 28.038182 
" style="fill:none;stroke:#808080;stroke-linecap:square;stroke-opacity:0.2;"/>
     </g>
     <g id="line2d_24">
      <g>
       <use style="stroke:#000000;stroke-width:0.8;" x="51.05" xlink:href="#m4218c2ccd6" y="28.038182"/>
      </g>
     </g>
     <g id="text_13">
      <!-- 155 -->
      <g transform="translate(24.9625 31.837401)scale(0.1 -0.1)">
       <use xlink:href="#DejaVuSans-49"/>
       <use x="63.623047" xlink:href="#DejaVuSans-53"/>
       <use x="127.246094" xlink:href="#DejaVuSans-53"/>
      </g>
     </g>
    </g>
    <g id="text_14">
     <!-- y -->
     <defs>
      <path d="M 32.171875 -5.078125 
Q 28.375 -14.84375 24.75 -17.8125 
Q 21.140625 -20.796875 15.09375 -20.796875 
L 7.90625 -20.796875 
L 7.90625 -13.28125 
L 13.1875 -13.28125 
Q 16.890625 -13.28125 18.9375 -11.515625 
Q 21 -9.765625 23.484375 -3.21875 
L 25.09375 0.875 
L 2.984375 54.6875 
L 12.5 54.6875 
L 29.59375 11.921875 
L 46.6875 54.6875 
L 56.203125 54.6875 
z
" id="DejaVuSans-121"/>
     </defs>
     <g transform="translate(18.882812 203.379375)rotate(-90)scale(0.1 -0.1)">
      <use xlink:href="#DejaVuSans-121"/>
     </g>
    </g>
   </g>
   <g id="line2d_25">
    <defs>
     <path d="M 0 1.5 
C 0.397805 1.5 0.77937 1.341951 1.06066 1.06066 
C 1.341951 0.77937 1.5 0.397805 1.5 0 
C 1.5 -0.397805 1.341951 -0.77937 1.06066 -1.06066 
C 0.77937 -1.341951 0.397805 -1.5 0 -1.5 
C -0.397805 -1.5 -0.77937 -1.341951 -1.06066 -1.06066 
C -1.341951 -0.77937 -1.5 -0.397805 -1.5 0 
C -1.5 0.397805 -1.341951 0.77937 -1.06066 1.06066 
C -0.77937 1.341951 -0.397805 1.5 0 1.5 
z
" id="m238c9f3778" style="stroke:#000000;"/>
    </defs>
    <g clip-path="url(#pfc98211bf8)">
     <use style="stroke:#000000;" x="80.241827" xlink:href="#m238c9f3778" y="106.393554"/>
     <use style="stroke:#000000;" x="101.344353" xlink:href="#m238c9f3778" y="231.762149"/>
     <use style="stroke:#000000;" x="108.378528" xlink:href="#m238c9f3778" y="231.762149"/>
     <use style="stroke:#000000;" x="122.446878" xlink:href="#m238c9f3778" y="137.735702"/>
     <use style="stroke:#000000;" x="129.481054" xlink:href="#m238c9f3778" y="341.459669"/>
     <use style="stroke:#000000;" x="143.549404" xlink:href="#m238c9f3778" y="310.117521"/>
     <use style="stroke:#000000;" x="150.583579" xlink:href="#m238c9f3778" y="294.446446"/>
     <use style="stroke:#000000;" x="164.65193" xlink:href="#m238c9f3778" y="278.775372"/>
     <use style="stroke:#000000;" x="185.754455" xlink:href="#m238c9f3778" y="122.064628"/>
     <use style="stroke:#000000;" x="192.788631" xlink:href="#m238c9f3778" y="247.433223"/>
     <use style="stroke:#000000;" x="206.856981" xlink:href="#m238c9f3778" y="90.722479"/>
     <use style="stroke:#000000;" x="213.891156" xlink:href="#m238c9f3778" y="216.091074"/>
     <use style="stroke:#000000;" x="227.959507" xlink:href="#m238c9f3778" y="247.433223"/>
     <use style="stroke:#000000;" x="234.993682" xlink:href="#m238c9f3778" y="310.117521"/>
     <use style="stroke:#000000;" x="249.062032" xlink:href="#m238c9f3778" y="28.038182"/>
     <use style="stroke:#000000;" x="256.096208" xlink:href="#m238c9f3778" y="153.406777"/>
     <use style="stroke:#000000;" x="270.164558" xlink:href="#m238c9f3778" y="200.42"/>
     <use style="stroke:#000000;" x="277.198733" xlink:href="#m238c9f3778" y="216.091074"/>
     <use style="stroke:#000000;" x="291.267084" xlink:href="#m238c9f3778" y="357.130744"/>
     <use style="stroke:#000000;" x="298.301259" xlink:href="#m238c9f3778" y="325.788595"/>
     <use style="stroke:#000000;" x="312.369609" xlink:href="#m238c9f3778" y="325.788595"/>
     <use style="stroke:#000000;" x="319.403784" xlink:href="#m238c9f3778" y="263.104298"/>
     <use style="stroke:#000000;" x="333.472135" xlink:href="#m238c9f3778" y="90.722479"/>
     <use style="stroke:#000000;" x="340.50631" xlink:href="#m238c9f3778" y="184.748926"/>
     <use style="stroke:#000000;" x="354.574661" xlink:href="#m238c9f3778" y="137.735702"/>
     <use style="stroke:#000000;" x="361.608836" xlink:href="#m238c9f3778" y="153.406777"/>
     <use style="stroke:#000000;" x="382.711361" xlink:href="#m238c9f3778" y="278.775372"/>
     <use style="stroke:#000000;" x="396.779712" xlink:href="#m238c9f3778" y="200.42"/>
     <use style="stroke:#000000;" x="403.813887" xlink:href="#m238c9f3778" y="200.42"/>
     <use style="stroke:#000000;" x="417.882237" xlink:href="#m238c9f3778" y="153.406777"/>
     <use style="stroke:#000000;" x="438.984763" xlink:href="#m238c9f3778" y="184.748926"/>
     <use style="stroke:#000000;" x="446.018938" xlink:href="#m238c9f3778" y="263.104298"/>
     <use style="stroke:#000000;" x="467.121464" xlink:href="#m238c9f3778" y="372.801818"/>
     <use style="stroke:#000000;" x="481.189814" xlink:href="#m238c9f3778" y="325.788595"/>
     <use style="stroke:#000000;" x="488.22399" xlink:href="#m238c9f3778" y="278.775372"/>
     <use style="stroke:#000000;" x="509.326515" xlink:href="#m238c9f3778" y="106.393554"/>
     <use style="stroke:#000000;" x="523.394866" xlink:href="#m238c9f3778" y="122.064628"/>
     <use style="stroke:#000000;" x="530.429041" xlink:href="#m238c9f3778" y="200.42"/>
     <use style="stroke:#000000;" x="544.497391" xlink:href="#m238c9f3778" y="28.038182"/>
     <use style="stroke:#000000;" x="551.531567" xlink:href="#m238c9f3778" y="200.42"/>
     <use style="stroke:#000000;" x="565.599917" xlink:href="#m238c9f3778" y="184.748926"/>
     <use style="stroke:#000000;" x="572.634092" xlink:href="#m238c9f3778" y="231.762149"/>
     <use style="stroke:#000000;" x="586.702443" xlink:href="#m238c9f3778" y="137.735702"/>
     <use style="stroke:#000000;" x="593.736618" xlink:href="#m238c9f3778" y="122.064628"/>
     <use style="stroke:#000000;" x="607.804968" xlink:href="#m238c9f3778" y="169.077851"/>
     <use style="stroke:#000000;" x="614.839144" xlink:href="#m238c9f3778" y="169.077851"/>
     <use style="stroke:#000000;" x="635.941669" xlink:href="#m238c9f3778" y="200.42"/>
     <use style="stroke:#000000;" x="650.01002" xlink:href="#m238c9f3778" y="278.775372"/>
     <use style="stroke:#000000;" x="657.044195" xlink:href="#m238c9f3778" y="325.788595"/>
    </g>
   </g>
   <g id="line2d_26">
    <path clip-path="url(#pfc98211bf8)" d="M 80.241827 223.839358 
L 101.344353 201.124448 
L 108.378528 199.56196 
L 122.446878 227.665929 
L 129.481054 220.95441 
L 143.549404 252.032466 
L 150.583579 198.2395 
L 164.65193 239.015873 
L 185.754455 231.410572 
L 192.788631 249.147518 
L 206.856981 193.792065 
L 213.891156 236.130925 
L 227.959507 215.184515 
L 234.993682 228.525624 
L 249.062032 192.469605 
L 256.096208 190.907117 
L 270.164558 219.011085 
L 277.198733 212.299567 
L 291.267084 243.377622 
L 298.301259 189.584657 
L 312.369609 230.361029 
L 319.403784 216.126137 
L 333.472135 222.755728 
L 340.50631 240.492674 
L 354.574661 185.137221 
L 361.608836 227.476081 
L 382.711361 219.87078 
L 396.779712 183.814761 
L 403.813887 182.252273 
L 417.882237 210.356242 
L 438.984763 234.722779 
L 446.018938 180.929813 
L 467.121464 207.471294 
L 481.189814 214.100885 
L 488.22399 231.837831 
L 509.326515 218.821238 
L 523.394866 197.874828 
L 530.429041 211.215937 
L 544.497391 175.159918 
L 551.531567 173.610792 
L 565.599917 201.741485 
L 572.634092 195.043329 
L 586.702443 226.148108 
L 593.736618 172.368505 
L 607.804968 213.171602 
L 614.839144 198.950072 
L 635.941669 223.356696 
L 650.01002 168.027967 
L 657.044195 210.38019 
L 664.07837 196.15866 
" style="fill:none;stroke:#0072b2;stroke-linecap:square;stroke-width:1.5;"/>
   </g>
   <g id="patch_3">
    <path d="M 51.05 390.04 
L 51.05 10.8 
" style="fill:none;stroke:#000000;stroke-linecap:square;stroke-linejoin:miter;stroke-width:0.8;"/>
   </g>
   <g id="patch_4">
    <path d="M 693.270197 390.04 
L 693.270197 10.8 
" style="fill:none;stroke:#000000;stroke-linecap:square;stroke-linejoin:miter;stroke-width:0.8;"/>
   </g>
   <g id="patch_5">
    <path d="M 51.05 390.04 
L 693.270197 390.04 
" style="fill:none;stroke:#000000;stroke-linecap:square;stroke-linejoin:miter;stroke-width:0.8;"/>
   </g>
   <g id="patch_6">
    <path d="M 51.05 10.8 
L 693.270197 10.8 
" style="fill:none;stroke:#000000;stroke-linecap:square;stroke-linejoin:miter;stroke-width:0.8;"/>
   </g>
  </g>
 </g>
 <defs>
  <clipPath id="pfc98211bf8">
   <rect height="379.24" width="642.220197" x="51.05" y="10.8"/>
  </clipPath>
 </defs>
</svg>
