<?xml version="1.0" encoding="utf-8" standalone="no"?>
<!DOCTYPE svg PUBLIC "-//W3C//DTD SVG 1.1//EN"
  "http://www.w3.org/Graphics/SVG/1.1/DTD/svg11.dtd">
<!-- Created with matplotlib (https://matplotlib.org/) -->
<svg height="432pt" version="1.1" viewBox="0 0 720 432" width="720pt" xmlns="http://www.w3.org/2000/svg" xmlns:xlink="http://www.w3.org/1999/xlink">
 <defs>
  <style type="text/css">
*{stroke-linecap:butt;stroke-linejoin:round;}
  </style>
 </defs>
 <g id="figure_1">
  <g id="patch_1">
   <path d="M 0 432 
L 720 432 
L 720 0 
L 0 0 
z
" style="fill:#ffffff;"/>
  </g>
  <g id="axes_1">
   <g id="patch_2">
    <path d="M 51.05 390.04 
L 681.046758 390.04 
L 681.046758 10.8 
L 51.05 10.8 
z
" style="fill:#ffffff;"/>
   </g>
   <g id="PolyCollection_1">
    <defs>
     <path d="M 79.686216 -294.637456 
L 79.686216 -152.832285 
L 86.586509 -179.784882 
L 100.387096 -172.807686 
L 107.287389 -148.056306 
L 121.087975 -199.501283 
L 127.988268 -140.603936 
L 141.788854 -193.895994 
L 148.689147 -160.743675 
L 162.489733 -164.51786 
L 169.390026 -190.255752 
L 183.190612 -151.512068 
L 190.090906 -181.333913 
L 203.891492 -117.537881 
L 210.791785 -156.215544 
L 224.592371 -118.696755 
L 231.492664 -148.764184 
L 245.29325 -137.620924 
L 252.193543 -114.070874 
L 265.994129 -165.504739 
L 272.894422 -108.45461 
L 286.695009 -160.132528 
L 293.595302 -128.019598 
L 307.395888 -129.109583 
L 314.296181 -160.851743 
L 328.096767 -124.06626 
L 334.99706 -141.951674 
L 348.797646 -94.727757 
L 355.697939 -120.370631 
L 369.498526 -88.633835 
L 376.398819 -118.256242 
L 390.199405 -106.0726 
L 397.099698 -93.603863 
L 417.800577 -97.837109 
L 431.601163 -153.831815 
L 438.501456 -123.332269 
L 452.302042 -143.523778 
L 473.002922 -147.766006 
L 479.903215 -172.155587 
L 493.703801 -133.23148 
L 500.604094 -161.001174 
L 514.40468 -139.936988 
L 521.304973 -178.661229 
L 535.105559 -171.974873 
L 542.005852 -153.830705 
L 555.806439 -222.263233 
L 562.706732 -157.519043 
L 576.507318 -219.845399 
L 583.407611 -195.444025 
L 597.208197 -211.609235 
L 604.10849 -239.807005 
L 617.909076 -217.574213 
L 624.809369 -244.46458 
L 638.609956 -202.704708 
L 645.510249 -231.330872 
L 652.410542 -263.732105 
L 652.410542 -403.961818 
L 652.410542 -403.961818 
L 645.510249 -376.818832 
L 638.609956 -344.772649 
L 624.809369 -386.2464 
L 617.909076 -364.022382 
L 604.10849 -376.569594 
L 597.208197 -349.254907 
L 583.407611 -337.149332 
L 576.507318 -362.493462 
L 562.706732 -303.889304 
L 555.806439 -360.568794 
L 542.005852 -294.018623 
L 535.105559 -309.025007 
L 521.304973 -320.486065 
L 514.40468 -285.983365 
L 500.604094 -309.145446 
L 493.703801 -275.317796 
L 479.903215 -319.102113 
L 473.002922 -291.658771 
L 452.302042 -283.882585 
L 438.501456 -271.701348 
L 431.601163 -293.21814 
L 417.800577 -239.421832 
L 397.099698 -231.161253 
L 390.199405 -254.523572 
L 376.398819 -261.730261 
L 369.498526 -232.517035 
L 355.697939 -266.219494 
L 348.797646 -237.682603 
L 334.99706 -292.401794 
L 328.096767 -271.017209 
L 314.296181 -297.804448 
L 307.395888 -278.180297 
L 293.595302 -270.308839 
L 286.695009 -303.897814 
L 272.894422 -255.575275 
L 265.994129 -308.200901 
L 252.193543 -258.528982 
L 245.29325 -278.019005 
L 231.492664 -290.68366 
L 224.592371 -267.87515 
L 210.791785 -296.548092 
L 203.891492 -269.110323 
L 190.090906 -320.079691 
L 183.190612 -300.915777 
L 169.390026 -329.669815 
L 162.489733 -311.639838 
L 148.689147 -304.457379 
L 141.788854 -331.868923 
L 127.988268 -286.584719 
L 121.087975 -345.875186 
L 107.287389 -287.887093 
L 100.387096 -312.110612 
L 86.586509 -320.374673 
L 79.686216 -294.637456 
z
" id="m9d96fbbe37" style="stroke:#0072b2;stroke-opacity:0.2;"/>
    </defs>
    <g clip-path="url(#p9a554df5a3)">
     <use style="fill:#0072b2;fill-opacity:0.2;stroke:#0072b2;stroke-opacity:0.2;" x="0" xlink:href="#m9d96fbbe37" y="432"/>
    </g>
   </g>
   <g id="matplotlib.axis_1">
    <g id="xtick_1">
     <g id="line2d_1">
      <path clip-path="url(#p9a554df5a3)" d="M 100.387096 390.04 
L 100.387096 10.8 
" style="fill:none;stroke:#808080;stroke-linecap:square;stroke-opacity:0.2;"/>
     </g>
     <g id="line2d_2">
      <defs>
       <path d="M 0 0 
L 0 3.5 
" id="m9abf618cf4" style="stroke:#000000;stroke-width:0.8;"/>
      </defs>
      <g>
       <use style="stroke:#000000;stroke-width:0.8;" x="100.387096" xlink:href="#m9abf618cf4" y="390.04"/>
      </g>
     </g>
     <g id="text_1">
      <!-- 2019-08-03 -->
      <defs>
       <path d="M 19.1875 8.296875 
L 53.609375 8.296875 
L 53.609375 0 
L 7.328125 0 
L 7.328125 8.296875 
Q 12.9375 14.109375 22.625 23.890625 
Q 32.328125 33.6875 34.8125 36.53125 
Q 39.546875 41.84375 41.421875 45.53125 
Q 43.3125 49.21875 43.3125 52.78125 
Q 43.3125 58.59375 39.234375 62.25 
Q 35.15625 65.921875 28.609375 65.921875 
Q 23.96875 65.921875 18.8125 64.3125 
Q 13.671875 62.703125 7.8125 59.421875 
L 7.8125 69.390625 
Q 13.765625 71.78125 18.9375 73 
Q 24.125 74.21875 28.421875 74.21875 
Q 39.75 74.21875 46.484375 68.546875 
Q 53.21875 62.890625 53.21875 53.421875 
Q 53.21875 48.921875 51.53125 44.890625 
Q 49.859375 40.875 45.40625 35.40625 
Q 44.1875 33.984375 37.640625 27.21875 
Q 31.109375 20.453125 19.1875 8.296875 
z
" id="DejaVuSans-50"/>
       <path d="M 31.78125 66.40625 
Q 24.171875 66.40625 20.328125 58.90625 
Q 16.5 51.421875 16.5 36.375 
Q 16.5 21.390625 20.328125 13.890625 
Q 24.171875 6.390625 31.78125 6.390625 
Q 39.453125 6.390625 43.28125 13.890625 
Q 47.125 21.390625 47.125 36.375 
Q 47.125 51.421875 43.28125 58.90625 
Q 39.453125 66.40625 31.78125 66.40625 
z
M 31.78125 74.21875 
Q 44.046875 74.21875 50.515625 64.515625 
Q 56.984375 54.828125 56.984375 36.375 
Q 56.984375 17.96875 50.515625 8.265625 
Q 44.046875 -1.421875 31.78125 -1.421875 
Q 19.53125 -1.421875 13.0625 8.265625 
Q 6.59375 17.96875 6.59375 36.375 
Q 6.59375 54.828125 13.0625 64.515625 
Q 19.53125 74.21875 31.78125 74.21875 
z
" id="DejaVuSans-48"/>
       <path d="M 12.40625 8.296875 
L 28.515625 8.296875 
L 28.515625 63.921875 
L 10.984375 60.40625 
L 10.984375 69.390625 
L 28.421875 72.90625 
L 38.28125 72.90625 
L 38.28125 8.296875 
L 54.390625 8.296875 
L 54.390625 0 
L 12.40625 0 
z
" id="DejaVuSans-49"/>
       <path d="M 10.984375 1.515625 
L 10.984375 10.5 
Q 14.703125 8.734375 18.5 7.8125 
Q 22.3125 6.890625 25.984375 6.890625 
Q 35.75 6.890625 40.890625 13.453125 
Q 46.046875 20.015625 46.78125 33.40625 
Q 43.953125 29.203125 39.59375 26.953125 
Q 35.25 24.703125 29.984375 24.703125 
Q 19.046875 24.703125 12.671875 31.3125 
Q 6.296875 37.9375 6.296875 49.421875 
Q 6.296875 60.640625 12.9375 67.421875 
Q 19.578125 74.21875 30.609375 74.21875 
Q 43.265625 74.21875 49.921875 64.515625 
Q 56.59375 54.828125 56.59375 36.375 
Q 56.59375 19.140625 48.40625 8.859375 
Q 40.234375 -1.421875 26.421875 -1.421875 
Q 22.703125 -1.421875 18.890625 -0.6875 
Q 15.09375 0.046875 10.984375 1.515625 
z
M 30.609375 32.421875 
Q 37.25 32.421875 41.125 36.953125 
Q 45.015625 41.5 45.015625 49.421875 
Q 45.015625 57.28125 41.125 61.84375 
Q 37.25 66.40625 30.609375 66.40625 
Q 23.96875 66.40625 20.09375 61.84375 
Q 16.21875 57.28125 16.21875 49.421875 
Q 16.21875 41.5 20.09375 36.953125 
Q 23.96875 32.421875 30.609375 32.421875 
z
" id="DejaVuSans-57"/>
       <path d="M 4.890625 31.390625 
L 31.203125 31.390625 
L 31.203125 23.390625 
L 4.890625 23.390625 
z
" id="DejaVuSans-45"/>
       <path d="M 31.78125 34.625 
Q 24.75 34.625 20.71875 30.859375 
Q 16.703125 27.09375 16.703125 20.515625 
Q 16.703125 13.921875 20.71875 10.15625 
Q 24.75 6.390625 31.78125 6.390625 
Q 38.8125 6.390625 42.859375 10.171875 
Q 46.921875 13.96875 46.921875 20.515625 
Q 46.921875 27.09375 42.890625 30.859375 
Q 38.875 34.625 31.78125 34.625 
z
M 21.921875 38.8125 
Q 15.578125 40.375 12.03125 44.71875 
Q 8.5 49.078125 8.5 55.328125 
Q 8.5 64.0625 14.71875 69.140625 
Q 20.953125 74.21875 31.78125 74.21875 
Q 42.671875 74.21875 48.875 69.140625 
Q 55.078125 64.0625 55.078125 55.328125 
Q 55.078125 49.078125 51.53125 44.71875 
Q 48 40.375 41.703125 38.8125 
Q 48.828125 37.15625 52.796875 32.3125 
Q 56.78125 27.484375 56.78125 20.515625 
Q 56.78125 9.90625 50.3125 4.234375 
Q 43.84375 -1.421875 31.78125 -1.421875 
Q 19.734375 -1.421875 13.25 4.234375 
Q 6.78125 9.90625 6.78125 20.515625 
Q 6.78125 27.484375 10.78125 32.3125 
Q 14.796875 37.15625 21.921875 38.8125 
z
M 18.3125 54.390625 
Q 18.3125 48.734375 21.84375 45.5625 
Q 25.390625 42.390625 31.78125 42.390625 
Q 38.140625 42.390625 41.71875 45.5625 
Q 45.3125 48.734375 45.3125 54.390625 
Q 45.3125 60.0625 41.71875 63.234375 
Q 38.140625 66.40625 31.78125 66.40625 
Q 25.390625 66.40625 21.84375 63.234375 
Q 18.3125 60.0625 18.3125 54.390625 
z
" id="DejaVuSans-56"/>
       <path d="M 40.578125 39.3125 
Q 47.65625 37.796875 51.625 33 
Q 55.609375 28.21875 55.609375 21.1875 
Q 55.609375 10.40625 48.1875 4.484375 
Q 40.765625 -1.421875 27.09375 -1.421875 
Q 22.515625 -1.421875 17.65625 -0.515625 
Q 12.796875 0.390625 7.625 2.203125 
L 7.625 11.71875 
Q 11.71875 9.328125 16.59375 8.109375 
Q 21.484375 6.890625 26.8125 6.890625 
Q 36.078125 6.890625 40.9375 10.546875 
Q 45.796875 14.203125 45.796875 21.1875 
Q 45.796875 27.640625 41.28125 31.265625 
Q 36.765625 34.90625 28.71875 34.90625 
L 20.21875 34.90625 
L 20.21875 43.015625 
L 29.109375 43.015625 
Q 36.375 43.015625 40.234375 45.921875 
Q 44.09375 48.828125 44.09375 54.296875 
Q 44.09375 59.90625 40.109375 62.90625 
Q 36.140625 65.921875 28.71875 65.921875 
Q 24.65625 65.921875 20.015625 65.03125 
Q 15.375 64.15625 9.8125 62.3125 
L 9.8125 71.09375 
Q 15.4375 72.65625 20.34375 73.4375 
Q 25.25 74.21875 29.59375 74.21875 
Q 40.828125 74.21875 47.359375 69.109375 
Q 53.90625 64.015625 53.90625 55.328125 
Q 53.90625 49.265625 50.4375 45.09375 
Q 46.96875 40.921875 40.578125 39.3125 
z
" id="DejaVuSans-51"/>
      </defs>
      <g transform="translate(71.329283 404.638438)scale(0.1 -0.1)">
       <use xlink:href="#DejaVuSans-50"/>
       <use x="63.623047" xlink:href="#DejaVuSans-48"/>
       <use x="127.246094" xlink:href="#DejaVuSans-49"/>
       <use x="190.869141" xlink:href="#DejaVuSans-57"/>
       <use x="254.492188" xlink:href="#DejaVuSans-45"/>
       <use x="290.576172" xlink:href="#DejaVuSans-48"/>
       <use x="354.199219" xlink:href="#DejaVuSans-56"/>
       <use x="417.822266" xlink:href="#DejaVuSans-45"/>
       <use x="453.90625" xlink:href="#DejaVuSans-48"/>
       <use x="517.529297" xlink:href="#DejaVuSans-51"/>
      </g>
     </g>
    </g>
    <g id="xtick_2">
     <g id="line2d_3">
      <path clip-path="url(#p9a554df5a3)" d="M 196.991199 390.04 
L 196.991199 10.8 
" style="fill:none;stroke:#808080;stroke-linecap:square;stroke-opacity:0.2;"/>
     </g>
     <g id="line2d_4">
      <g>
       <use style="stroke:#000000;stroke-width:0.8;" x="196.991199" xlink:href="#m9abf618cf4" y="390.04"/>
      </g>
     </g>
     <g id="text_2">
      <!-- 2019-08-17 -->
      <defs>
       <path d="M 8.203125 72.90625 
L 55.078125 72.90625 
L 55.078125 68.703125 
L 28.609375 0 
L 18.3125 0 
L 43.21875 64.59375 
L 8.203125 64.59375 
z
" id="DejaVuSans-55"/>
      </defs>
      <g transform="translate(167.933386 404.638438)scale(0.1 -0.1)">
       <use xlink:href="#DejaVuSans-50"/>
       <use x="63.623047" xlink:href="#DejaVuSans-48"/>
       <use x="127.246094" xlink:href="#DejaVuSans-49"/>
       <use x="190.869141" xlink:href="#DejaVuSans-57"/>
       <use x="254.492188" xlink:href="#DejaVuSans-45"/>
       <use x="290.576172" xlink:href="#DejaVuSans-48"/>
       <use x="354.199219" xlink:href="#DejaVuSans-56"/>
       <use x="417.822266" xlink:href="#DejaVuSans-45"/>
       <use x="453.90625" xlink:href="#DejaVuSans-49"/>
       <use x="517.529297" xlink:href="#DejaVuSans-55"/>
      </g>
     </g>
    </g>
    <g id="xtick_3">
     <g id="line2d_5">
      <path clip-path="url(#p9a554df5a3)" d="M 293.595302 390.04 
L 293.595302 10.8 
" style="fill:none;stroke:#808080;stroke-linecap:square;stroke-opacity:0.2;"/>
     </g>
     <g id="line2d_6">
      <g>
       <use style="stroke:#000000;stroke-width:0.8;" x="293.595302" xlink:href="#m9abf618cf4" y="390.04"/>
      </g>
     </g>
     <g id="text_3">
      <!-- 2019-08-31 -->
      <g transform="translate(264.537489 404.638438)scale(0.1 -0.1)">
       <use xlink:href="#DejaVuSans-50"/>
       <use x="63.623047" xlink:href="#DejaVuSans-48"/>
       <use x="127.246094" xlink:href="#DejaVuSans-49"/>
       <use x="190.869141" xlink:href="#DejaVuSans-57"/>
       <use x="254.492188" xlink:href="#DejaVuSans-45"/>
       <use x="290.576172" xlink:href="#DejaVuSans-48"/>
       <use x="354.199219" xlink:href="#DejaVuSans-56"/>
       <use x="417.822266" xlink:href="#DejaVuSans-45"/>
       <use x="453.90625" xlink:href="#DejaVuSans-51"/>
       <use x="517.529297" xlink:href="#DejaVuSans-49"/>
      </g>
     </g>
    </g>
    <g id="xtick_4">
     <g id="line2d_7">
      <path clip-path="url(#p9a554df5a3)" d="M 390.199405 390.04 
L 390.199405 10.8 
" style="fill:none;stroke:#808080;stroke-linecap:square;stroke-opacity:0.2;"/>
     </g>
     <g id="line2d_8">
      <g>
       <use style="stroke:#000000;stroke-width:0.8;" x="390.199405" xlink:href="#m9abf618cf4" y="390.04"/>
      </g>
     </g>
     <g id="text_4">
      <!-- 2019-09-14 -->
      <defs>
       <path d="M 37.796875 64.3125 
L 12.890625 25.390625 
L 37.796875 25.390625 
z
M 35.203125 72.90625 
L 47.609375 72.90625 
L 47.609375 25.390625 
L 58.015625 25.390625 
L 58.015625 17.1875 
L 47.609375 17.1875 
L 47.609375 0 
L 37.796875 0 
L 37.796875 17.1875 
L 4.890625 17.1875 
L 4.890625 26.703125 
z
" id="DejaVuSans-52"/>
      </defs>
      <g transform="translate(361.141592 404.638438)scale(0.1 -0.1)">
       <use xlink:href="#DejaVuSans-50"/>
       <use x="63.623047" xlink:href="#DejaVuSans-48"/>
       <use x="127.246094" xlink:href="#DejaVuSans-49"/>
       <use x="190.869141" xlink:href="#DejaVuSans-57"/>
       <use x="254.492188" xlink:href="#DejaVuSans-45"/>
       <use x="290.576172" xlink:href="#DejaVuSans-48"/>
       <use x="354.199219" xlink:href="#DejaVuSans-57"/>
       <use x="417.822266" xlink:href="#DejaVuSans-45"/>
       <use x="453.90625" xlink:href="#DejaVuSans-49"/>
       <use x="517.529297" xlink:href="#DejaVuSans-52"/>
      </g>
     </g>
    </g>
    <g id="xtick_5">
     <g id="line2d_9">
      <path clip-path="url(#p9a554df5a3)" d="M 486.803508 390.04 
L 486.803508 10.8 
" style="fill:none;stroke:#808080;stroke-linecap:square;stroke-opacity:0.2;"/>
     </g>
     <g id="line2d_10">
      <g>
       <use style="stroke:#000000;stroke-width:0.8;" x="486.803508" xlink:href="#m9abf618cf4" y="390.04"/>
      </g>
     </g>
     <g id="text_5">
      <!-- 2019-09-28 -->
      <g transform="translate(457.745695 404.638438)scale(0.1 -0.1)">
       <use xlink:href="#DejaVuSans-50"/>
       <use x="63.623047" xlink:href="#DejaVuSans-48"/>
       <use x="127.246094" xlink:href="#DejaVuSans-49"/>
       <use x="190.869141" xlink:href="#DejaVuSans-57"/>
       <use x="254.492188" xlink:href="#DejaVuSans-45"/>
       <use x="290.576172" xlink:href="#DejaVuSans-48"/>
       <use x="354.199219" xlink:href="#DejaVuSans-57"/>
       <use x="417.822266" xlink:href="#DejaVuSans-45"/>
       <use x="453.90625" xlink:href="#DejaVuSans-50"/>
       <use x="517.529297" xlink:href="#DejaVuSans-56"/>
      </g>
     </g>
    </g>
    <g id="xtick_6">
     <g id="line2d_11">
      <path clip-path="url(#p9a554df5a3)" d="M 583.407611 390.04 
L 583.407611 10.8 
" style="fill:none;stroke:#808080;stroke-linecap:square;stroke-opacity:0.2;"/>
     </g>
     <g id="line2d_12">
      <g>
       <use style="stroke:#000000;stroke-width:0.8;" x="583.407611" xlink:href="#m9abf618cf4" y="390.04"/>
      </g>
     </g>
     <g id="text_6">
      <!-- 2019-10-12 -->
      <g transform="translate(554.349798 404.638438)scale(0.1 -0.1)">
       <use xlink:href="#DejaVuSans-50"/>
       <use x="63.623047" xlink:href="#DejaVuSans-48"/>
       <use x="127.246094" xlink:href="#DejaVuSans-49"/>
       <use x="190.869141" xlink:href="#DejaVuSans-57"/>
       <use x="254.492188" xlink:href="#DejaVuSans-45"/>
       <use x="290.576172" xlink:href="#DejaVuSans-49"/>
       <use x="354.199219" xlink:href="#DejaVuSans-48"/>
       <use x="417.822266" xlink:href="#DejaVuSans-45"/>
       <use x="453.90625" xlink:href="#DejaVuSans-49"/>
       <use x="517.529297" xlink:href="#DejaVuSans-50"/>
      </g>
     </g>
    </g>
    <g id="xtick_7">
     <g id="line2d_13">
      <path clip-path="url(#p9a554df5a3)" d="M 680.011714 390.04 
L 680.011714 10.8 
" style="fill:none;stroke:#808080;stroke-linecap:square;stroke-opacity:0.2;"/>
     </g>
     <g id="line2d_14">
      <g>
       <use style="stroke:#000000;stroke-width:0.8;" x="680.011714" xlink:href="#m9abf618cf4" y="390.04"/>
      </g>
     </g>
     <g id="text_7">
      <!-- 2019-10-26 -->
      <defs>
       <path d="M 33.015625 40.375 
Q 26.375 40.375 22.484375 35.828125 
Q 18.609375 31.296875 18.609375 23.390625 
Q 18.609375 15.53125 22.484375 10.953125 
Q 26.375 6.390625 33.015625 6.390625 
Q 39.65625 6.390625 43.53125 10.953125 
Q 47.40625 15.53125 47.40625 23.390625 
Q 47.40625 31.296875 43.53125 35.828125 
Q 39.65625 40.375 33.015625 40.375 
z
M 52.59375 71.296875 
L 52.59375 62.3125 
Q 48.875 64.0625 45.09375 64.984375 
Q 41.3125 65.921875 37.59375 65.921875 
Q 27.828125 65.921875 22.671875 59.328125 
Q 17.53125 52.734375 16.796875 39.40625 
Q 19.671875 43.65625 24.015625 45.921875 
Q 28.375 48.1875 33.59375 48.1875 
Q 44.578125 48.1875 50.953125 41.515625 
Q 57.328125 34.859375 57.328125 23.390625 
Q 57.328125 12.15625 50.6875 5.359375 
Q 44.046875 -1.421875 33.015625 -1.421875 
Q 20.359375 -1.421875 13.671875 8.265625 
Q 6.984375 17.96875 6.984375 36.375 
Q 6.984375 53.65625 15.1875 63.9375 
Q 23.390625 74.21875 37.203125 74.21875 
Q 40.921875 74.21875 44.703125 73.484375 
Q 48.484375 72.75 52.59375 71.296875 
z
" id="DejaVuSans-54"/>
      </defs>
      <g transform="translate(650.953901 404.638438)scale(0.1 -0.1)">
       <use xlink:href="#DejaVuSans-50"/>
       <use x="63.623047" xlink:href="#DejaVuSans-48"/>
       <use x="127.246094" xlink:href="#DejaVuSans-49"/>
       <use x="190.869141" xlink:href="#DejaVuSans-57"/>
       <use x="254.492188" xlink:href="#DejaVuSans-45"/>
       <use x="290.576172" xlink:href="#DejaVuSans-49"/>
       <use x="354.199219" xlink:href="#DejaVuSans-48"/>
       <use x="417.822266" xlink:href="#DejaVuSans-45"/>
       <use x="453.90625" xlink:href="#DejaVuSans-50"/>
       <use x="517.529297" xlink:href="#DejaVuSans-54"/>
      </g>
     </g>
    </g>
    <g id="text_8">
     <!-- ds -->
     <defs>
      <path d="M 45.40625 46.390625 
L 45.40625 75.984375 
L 54.390625 75.984375 
L 54.390625 0 
L 45.40625 0 
L 45.40625 8.203125 
Q 42.578125 3.328125 38.25 0.953125 
Q 33.9375 -1.421875 27.875 -1.421875 
Q 17.96875 -1.421875 11.734375 6.484375 
Q 5.515625 14.40625 5.515625 27.296875 
Q 5.515625 40.1875 11.734375 48.09375 
Q 17.96875 56 27.875 56 
Q 33.9375 56 38.25 53.625 
Q 42.578125 51.265625 45.40625 46.390625 
z
M 14.796875 27.296875 
Q 14.796875 17.390625 18.875 11.75 
Q 22.953125 6.109375 30.078125 6.109375 
Q 37.203125 6.109375 41.296875 11.75 
Q 45.40625 17.390625 45.40625 27.296875 
Q 45.40625 37.203125 41.296875 42.84375 
Q 37.203125 48.484375 30.078125 48.484375 
Q 22.953125 48.484375 18.875 42.84375 
Q 14.796875 37.203125 14.796875 27.296875 
z
" id="DejaVuSans-100"/>
      <path d="M 44.28125 53.078125 
L 44.28125 44.578125 
Q 40.484375 46.53125 36.375 47.5 
Q 32.28125 48.484375 27.875 48.484375 
Q 21.1875 48.484375 17.84375 46.4375 
Q 14.5 44.390625 14.5 40.28125 
Q 14.5 37.15625 16.890625 35.375 
Q 19.28125 33.59375 26.515625 31.984375 
L 29.59375 31.296875 
Q 39.15625 29.25 43.1875 25.515625 
Q 47.21875 21.78125 47.21875 15.09375 
Q 47.21875 7.46875 41.1875 3.015625 
Q 35.15625 -1.421875 24.609375 -1.421875 
Q 20.21875 -1.421875 15.453125 -0.5625 
Q 10.6875 0.296875 5.421875 2 
L 5.421875 11.28125 
Q 10.40625 8.6875 15.234375 7.390625 
Q 20.0625 6.109375 24.8125 6.109375 
Q 31.15625 6.109375 34.5625 8.28125 
Q 37.984375 10.453125 37.984375 14.40625 
Q 37.984375 18.0625 35.515625 20.015625 
Q 33.0625 21.96875 24.703125 23.78125 
L 21.578125 24.515625 
Q 13.234375 26.265625 9.515625 29.90625 
Q 5.8125 33.546875 5.8125 39.890625 
Q 5.8125 47.609375 11.28125 51.796875 
Q 16.75 56 26.8125 56 
Q 31.78125 56 36.171875 55.265625 
Q 40.578125 54.546875 44.28125 53.078125 
z
" id="DejaVuSans-115"/>
     </defs>
     <g transform="translate(360.269473 418.316562)scale(0.1 -0.1)">
      <use xlink:href="#DejaVuSans-100"/>
      <use x="63.476562" xlink:href="#DejaVuSans-115"/>
     </g>
    </g>
   </g>
   <g id="matplotlib.axis_2">
    <g id="ytick_1">
     <g id="line2d_15">
      <path clip-path="url(#p9a554df5a3)" d="M 51.05 366.579181 
L 681.046758 366.579181 
" style="fill:none;stroke:#808080;stroke-linecap:square;stroke-opacity:0.2;"/>
     </g>
     <g id="line2d_16">
      <defs>
       <path d="M 0 0 
L -3.5 0 
" id="mcc17802e22" style="stroke:#000000;stroke-width:0.8;"/>
      </defs>
      <g>
       <use style="stroke:#000000;stroke-width:0.8;" x="51.05" xlink:href="#mcc17802e22" y="366.579181"/>
      </g>
     </g>
     <g id="text_9">
      <!-- 110 -->
      <g transform="translate(24.9625 370.3784)scale(0.1 -0.1)">
       <use xlink:href="#DejaVuSans-49"/>
       <use x="63.623047" xlink:href="#DejaVuSans-49"/>
       <use x="127.246094" xlink:href="#DejaVuSans-48"/>
      </g>
     </g>
    </g>
    <g id="ytick_2">
     <g id="line2d_17">
      <path clip-path="url(#p9a554df5a3)" d="M 51.05 304.352811 
L 681.046758 304.352811 
" style="fill:none;stroke:#808080;stroke-linecap:square;stroke-opacity:0.2;"/>
     </g>
     <g id="line2d_18">
      <g>
       <use style="stroke:#000000;stroke-width:0.8;" x="51.05" xlink:href="#mcc17802e22" y="304.352811"/>
      </g>
     </g>
     <g id="text_10">
      <!-- 120 -->
      <g transform="translate(24.9625 308.152029)scale(0.1 -0.1)">
       <use xlink:href="#DejaVuSans-49"/>
       <use x="63.623047" xlink:href="#DejaVuSans-50"/>
       <use x="127.246094" xlink:href="#DejaVuSans-48"/>
      </g>
     </g>
    </g>
    <g id="ytick_3">
     <g id="line2d_19">
      <path clip-path="url(#p9a554df5a3)" d="M 51.05 242.12644 
L 681.046758 242.12644 
" style="fill:none;stroke:#808080;stroke-linecap:square;stroke-opacity:0.2;"/>
     </g>
     <g id="line2d_20">
      <g>
       <use style="stroke:#000000;stroke-width:0.8;" x="51.05" xlink:href="#mcc17802e22" y="242.12644"/>
      </g>
     </g>
     <g id="text_11">
      <!-- 130 -->
      <g transform="translate(24.9625 245.925659)scale(0.1 -0.1)">
       <use xlink:href="#DejaVuSans-49"/>
       <use x="63.623047" xlink:href="#DejaVuSans-51"/>
       <use x="127.246094" xlink:href="#DejaVuSans-48"/>
      </g>
     </g>
    </g>
    <g id="ytick_4">
     <g id="line2d_21">
      <path clip-path="url(#p9a554df5a3)" d="M 51.05 179.90007 
L 681.046758 179.90007 
" style="fill:none;stroke:#808080;stroke-linecap:square;stroke-opacity:0.2;"/>
     </g>
     <g id="line2d_22">
      <g>
       <use style="stroke:#000000;stroke-width:0.8;" x="51.05" xlink:href="#mcc17802e22" y="179.90007"/>
      </g>
     </g>
     <g id="text_12">
      <!-- 140 -->
      <g transform="translate(24.9625 183.699288)scale(0.1 -0.1)">
       <use xlink:href="#DejaVuSans-49"/>
       <use x="63.623047" xlink:href="#DejaVuSans-52"/>
       <use x="127.246094" xlink:href="#DejaVuSans-48"/>
      </g>
     </g>
    </g>
    <g id="ytick_5">
     <g id="line2d_23">
      <path clip-path="url(#p9a554df5a3)" d="M 51.05 117.673699 
L 681.046758 117.673699 
" style="fill:none;stroke:#808080;stroke-linecap:square;stroke-opacity:0.2;"/>
     </g>
     <g id="line2d_24">
      <g>
       <use style="stroke:#000000;stroke-width:0.8;" x="51.05" xlink:href="#mcc17802e22" y="117.673699"/>
      </g>
     </g>
     <g id="text_13">
      <!-- 150 -->
      <defs>
       <path d="M 10.796875 72.90625 
L 49.515625 72.90625 
L 49.515625 64.59375 
L 19.828125 64.59375 
L 19.828125 46.734375 
Q 21.96875 47.46875 24.109375 47.828125 
Q 26.265625 48.1875 28.421875 48.1875 
Q 40.625 48.1875 47.75 41.5 
Q 54.890625 34.8125 54.890625 23.390625 
Q 54.890625 11.625 47.5625 5.09375 
Q 40.234375 -1.421875 26.90625 -1.421875 
Q 22.3125 -1.421875 17.546875 -0.640625 
Q 12.796875 0.140625 7.71875 1.703125 
L 7.71875 11.625 
Q 12.109375 9.234375 16.796875 8.0625 
Q 21.484375 6.890625 26.703125 6.890625 
Q 35.15625 6.890625 40.078125 11.328125 
Q 45.015625 15.765625 45.015625 23.390625 
Q 45.015625 31 40.078125 35.4375 
Q 35.15625 39.890625 26.703125 39.890625 
Q 22.75 39.890625 18.8125 39.015625 
Q 14.890625 38.140625 10.796875 36.28125 
z
" id="DejaVuSans-53"/>
      </defs>
      <g transform="translate(24.9625 121.472918)scale(0.1 -0.1)">
       <use xlink:href="#DejaVuSans-49"/>
       <use x="63.623047" xlink:href="#DejaVuSans-53"/>
       <use x="127.246094" xlink:href="#DejaVuSans-48"/>
      </g>
     </g>
    </g>
    <g id="ytick_6">
     <g id="line2d_25">
      <path clip-path="url(#p9a554df5a3)" d="M 51.05 55.447329 
L 681.046758 55.447329 
" style="fill:none;stroke:#808080;stroke-linecap:square;stroke-opacity:0.2;"/>
     </g>
     <g id="line2d_26">
      <g>
       <use style="stroke:#000000;stroke-width:0.8;" x="51.05" xlink:href="#mcc17802e22" y="55.447329"/>
      </g>
     </g>
     <g id="text_14">
      <!-- 160 -->
      <g transform="translate(24.9625 59.246548)scale(0.1 -0.1)">
       <use xlink:href="#DejaVuSans-49"/>
       <use x="63.623047" xlink:href="#DejaVuSans-54"/>
       <use x="127.246094" xlink:href="#DejaVuSans-48"/>
      </g>
     </g>
    </g>
    <g id="text_15">
     <!-- y -->
     <defs>
      <path d="M 32.171875 -5.078125 
Q 28.375 -14.84375 24.75 -17.8125 
Q 21.140625 -20.796875 15.09375 -20.796875 
L 7.90625 -20.796875 
L 7.90625 -13.28125 
L 13.1875 -13.28125 
Q 16.890625 -13.28125 18.9375 -11.515625 
Q 21 -9.765625 23.484375 -3.21875 
L 25.09375 0.875 
L 2.984375 54.6875 
L 12.5 54.6875 
L 29.59375 11.921875 
L 46.6875 54.6875 
L 56.203125 54.6875 
z
" id="DejaVuSans-121"/>
     </defs>
     <g transform="translate(18.882812 203.379375)rotate(-90)scale(0.1 -0.1)">
      <use xlink:href="#DejaVuSans-121"/>
     </g>
    </g>
   </g>
   <g id="line2d_27">
    <defs>
     <path d="M 0 1.5 
C 0.397805 1.5 0.77937 1.341951 1.06066 1.06066 
C 1.341951 0.77937 1.5 0.397805 1.5 0 
C 1.5 -0.397805 1.341951 -0.77937 1.06066 -1.06066 
C 0.77937 -1.341951 0.397805 -1.5 0 -1.5 
C -0.397805 -1.5 -0.77937 -1.341951 -1.06066 -1.06066 
C -1.341951 -0.77937 -1.5 -0.397805 -1.5 0 
C -1.5 0.397805 -1.341951 0.77937 -1.06066 1.06066 
C -0.77937 1.341951 -0.397805 1.5 0 1.5 
z
" id="mfa0302f3bc" style="stroke:#000000;"/>
    </defs>
    <g clip-path="url(#p9a554df5a3)">
     <use style="stroke:#000000;" x="79.686216" xlink:href="#mfa0302f3bc" y="242.12644"/>
     <use style="stroke:#000000;" x="86.586509" xlink:href="#mfa0302f3bc" y="198.567981"/>
     <use style="stroke:#000000;" x="100.387096" xlink:href="#mfa0302f3bc" y="235.903803"/>
     <use style="stroke:#000000;" x="107.287389" xlink:href="#mfa0302f3bc" y="211.013255"/>
     <use style="stroke:#000000;" x="121.087975" xlink:href="#mfa0302f3bc" y="99.005788"/>
     <use style="stroke:#000000;" x="127.988268" xlink:href="#mfa0302f3bc" y="285.6849"/>
     <use style="stroke:#000000;" x="141.788854" xlink:href="#mfa0302f3bc" y="111.451062"/>
     <use style="stroke:#000000;" x="148.689147" xlink:href="#mfa0302f3bc" y="92.783151"/>
     <use style="stroke:#000000;" x="162.489733" xlink:href="#mfa0302f3bc" y="217.235892"/>
     <use style="stroke:#000000;" x="169.390026" xlink:href="#mfa0302f3bc" y="229.681166"/>
     <use style="stroke:#000000;" x="183.190612" xlink:href="#mfa0302f3bc" y="80.337877"/>
     <use style="stroke:#000000;" x="190.090906" xlink:href="#mfa0302f3bc" y="142.564247"/>
     <use style="stroke:#000000;" x="203.891492" xlink:href="#mfa0302f3bc" y="217.235892"/>
     <use style="stroke:#000000;" x="210.791785" xlink:href="#mfa0302f3bc" y="242.12644"/>
     <use style="stroke:#000000;" x="224.592371" xlink:href="#mfa0302f3bc" y="217.235892"/>
     <use style="stroke:#000000;" x="231.492664" xlink:href="#mfa0302f3bc" y="204.790618"/>
     <use style="stroke:#000000;" x="245.29325" xlink:href="#mfa0302f3bc" y="204.790618"/>
     <use style="stroke:#000000;" x="252.193543" xlink:href="#mfa0302f3bc" y="235.903803"/>
     <use style="stroke:#000000;" x="265.994129" xlink:href="#mfa0302f3bc" y="179.90007"/>
     <use style="stroke:#000000;" x="272.894422" xlink:href="#mfa0302f3bc" y="192.345344"/>
     <use style="stroke:#000000;" x="286.695009" xlink:href="#mfa0302f3bc" y="186.122707"/>
     <use style="stroke:#000000;" x="293.595302" xlink:href="#mfa0302f3bc" y="192.345344"/>
     <use style="stroke:#000000;" x="307.395888" xlink:href="#mfa0302f3bc" y="211.013255"/>
     <use style="stroke:#000000;" x="314.296181" xlink:href="#mfa0302f3bc" y="204.790618"/>
     <use style="stroke:#000000;" x="328.096767" xlink:href="#mfa0302f3bc" y="335.465996"/>
     <use style="stroke:#000000;" x="334.99706" xlink:href="#mfa0302f3bc" y="229.681166"/>
     <use style="stroke:#000000;" x="348.797646" xlink:href="#mfa0302f3bc" y="316.798085"/>
     <use style="stroke:#000000;" x="355.697939" xlink:href="#mfa0302f3bc" y="341.688633"/>
     <use style="stroke:#000000;" x="369.498526" xlink:href="#mfa0302f3bc" y="279.462262"/>
     <use style="stroke:#000000;" x="376.398819" xlink:href="#mfa0302f3bc" y="329.243359"/>
     <use style="stroke:#000000;" x="390.199405" xlink:href="#mfa0302f3bc" y="323.020722"/>
     <use style="stroke:#000000;" x="397.099698" xlink:href="#mfa0302f3bc" y="372.801818"/>
     <use style="stroke:#000000;" x="417.800577" xlink:href="#mfa0302f3bc" y="341.688633"/>
     <use style="stroke:#000000;" x="431.601163" xlink:href="#mfa0302f3bc" y="310.575448"/>
     <use style="stroke:#000000;" x="438.501456" xlink:href="#mfa0302f3bc" y="347.91127"/>
     <use style="stroke:#000000;" x="452.302042" xlink:href="#mfa0302f3bc" y="155.009522"/>
     <use style="stroke:#000000;" x="473.002922" xlink:href="#mfa0302f3bc" y="117.673699"/>
     <use style="stroke:#000000;" x="479.903215" xlink:href="#mfa0302f3bc" y="173.677433"/>
     <use style="stroke:#000000;" x="493.703801" xlink:href="#mfa0302f3bc" y="155.009522"/>
     <use style="stroke:#000000;" x="500.604094" xlink:href="#mfa0302f3bc" y="123.896336"/>
     <use style="stroke:#000000;" x="514.40468" xlink:href="#mfa0302f3bc" y="148.786885"/>
     <use style="stroke:#000000;" x="521.304973" xlink:href="#mfa0302f3bc" y="161.232159"/>
     <use style="stroke:#000000;" x="535.105559" xlink:href="#mfa0302f3bc" y="211.013255"/>
     <use style="stroke:#000000;" x="542.005852" xlink:href="#mfa0302f3bc" y="173.677433"/>
     <use style="stroke:#000000;" x="555.806439" xlink:href="#mfa0302f3bc" y="142.564247"/>
     <use style="stroke:#000000;" x="562.706732" xlink:href="#mfa0302f3bc" y="161.232159"/>
     <use style="stroke:#000000;" x="576.507318" xlink:href="#mfa0302f3bc" y="155.009522"/>
     <use style="stroke:#000000;" x="583.407611" xlink:href="#mfa0302f3bc" y="99.005788"/>
     <use style="stroke:#000000;" x="597.208197" xlink:href="#mfa0302f3bc" y="117.673699"/>
     <use style="stroke:#000000;" x="604.10849" xlink:href="#mfa0302f3bc" y="148.786885"/>
     <use style="stroke:#000000;" x="617.909076" xlink:href="#mfa0302f3bc" y="179.90007"/>
     <use style="stroke:#000000;" x="624.809369" xlink:href="#mfa0302f3bc" y="111.451062"/>
     <use style="stroke:#000000;" x="638.609956" xlink:href="#mfa0302f3bc" y="161.232159"/>
     <use style="stroke:#000000;" x="645.510249" xlink:href="#mfa0302f3bc" y="142.564247"/>
    </g>
   </g>
   <g id="line2d_28">
    <path clip-path="url(#p9a554df5a3)" d="M 79.686216 207.744997 
L 86.586509 179.780539 
L 100.387096 192.86268 
L 107.287389 215.272795 
L 121.087975 162.594426 
L 127.988268 218.484333 
L 141.788854 171.296193 
L 148.689147 203.602016 
L 162.489733 194.74269 
L 169.390026 173.333762 
L 183.190612 201.25921 
L 190.090906 182.035529 
L 203.891492 236.751466 
L 210.791785 205.482026 
L 224.592371 239.963004 
L 231.492664 211.998546 
L 245.29325 225.080687 
L 252.193543 247.490802 
L 265.994129 194.812433 
L 272.894422 250.70234 
L 286.695009 203.5142 
L 293.595302 235.819778 
L 307.395888 226.959963 
L 314.296181 205.547472 
L 328.096767 233.465795 
L 334.99706 214.236185 
L 348.797646 268.933974 
L 355.697939 237.655459 
L 369.498526 272.095772 
L 376.398819 244.110981 
L 390.199405 257.123391 
L 397.099698 274.804861 
L 417.800577 263.830465 
L 431.601163 207.168305 
L 438.501456 234.737118 
L 452.302042 216.396933 
L 473.002922 208.692166 
L 479.903215 184.728055 
L 493.703801 229.963134 
L 500.604094 193.953264 
L 514.40468 218.953384 
L 521.304973 186.248497 
L 535.105559 189.84978 
L 542.005852 207.519465 
L 555.806439 145.360238 
L 562.706732 196.509715 
L 576.507318 139.840717 
L 583.407611 167.40611 
L 597.208197 149.065926 
L 604.10849 122.916569 
L 617.909076 141.361158 
L 624.809369 117.397048 
L 638.609956 162.632127 
L 645.510249 126.622257 
L 652.410542 100.472899 
" style="fill:none;stroke:#0072b2;stroke-linecap:square;stroke-width:1.5;"/>
   </g>
   <g id="patch_3">
    <path d="M 51.05 390.04 
L 51.05 10.8 
" style="fill:none;stroke:#000000;stroke-linecap:square;stroke-linejoin:miter;stroke-width:0.8;"/>
   </g>
   <g id="patch_4">
    <path d="M 681.046758 390.04 
L 681.046758 10.8 
" style="fill:none;stroke:#000000;stroke-linecap:square;stroke-linejoin:miter;stroke-width:0.8;"/>
   </g>
   <g id="patch_5">
    <path d="M 51.05 390.04 
L 681.046758 390.04 
" style="fill:none;stroke:#000000;stroke-linecap:square;stroke-linejoin:miter;stroke-width:0.8;"/>
   </g>
   <g id="patch_6">
    <path d="M 51.05 10.8 
L 681.046758 10.8 
" style="fill:none;stroke:#000000;stroke-linecap:square;stroke-linejoin:miter;stroke-width:0.8;"/>
   </g>
  </g>
 </g>
 <defs>
  <clipPath id="p9a554df5a3">
   <rect height="379.24" width="629.996758" x="51.05" y="10.8"/>
  </clipPath>
 </defs>
</svg>
