<?xml version="1.0" encoding="utf-8" standalone="no"?>
<!DOCTYPE svg PUBLIC "-//W3C//DTD SVG 1.1//EN"
  "http://www.w3.org/Graphics/SVG/1.1/DTD/svg11.dtd">
<!-- Created with matplotlib (https://matplotlib.org/) -->
<svg height="432pt" version="1.1" viewBox="0 0 720 432" width="720pt" xmlns="http://www.w3.org/2000/svg" xmlns:xlink="http://www.w3.org/1999/xlink">
 <defs>
  <style type="text/css">
*{stroke-linecap:butt;stroke-linejoin:round;}
  </style>
 </defs>
 <g id="figure_1">
  <g id="patch_1">
   <path d="M 0 432 
L 720 432 
L 720 0 
L 0 0 
z
" style="fill:#ffffff;"/>
  </g>
  <g id="axes_1">
   <g id="patch_2">
    <path d="M 51.05 390.04 
L 705.493636 390.04 
L 705.493636 10.8 
L 51.05 10.8 
z
" style="fill:#ffffff;"/>
   </g>
   <g id="PolyCollection_1">
    <defs>
     <path d="M 80.797438 -397.044618 
L 80.797438 -280.20341 
L 87.965495 -278.608618 
L 102.30161 -284.384776 
L 123.805782 -286.207107 
L 130.973839 -275.420484 
L 152.478012 -275.222277 
L 166.814126 -288.468452 
L 173.982184 -277.032786 
L 195.486356 -280.74724 
L 209.82247 -288.019684 
L 216.990528 -281.887394 
L 231.326642 -262.492562 
L 238.4947 -260.125549 
L 252.830814 -266.034391 
L 259.998872 -282.794554 
L 274.334987 -264.313259 
L 281.503044 -254.220899 
L 295.839159 -261.264433 
L 303.007216 -249.35194 
L 324.511388 -244.485461 
L 338.847503 -226.455841 
L 346.01556 -239.244846 
L 360.351675 -235.892443 
L 381.855847 -204.490017 
L 389.023904 -197.81577 
L 403.360019 -194.508653 
L 410.528076 -214.85026 
L 424.864191 -190.81173 
L 432.032248 -180.265572 
L 446.368363 -182.673676 
L 453.53642 -165.923059 
L 467.872535 -176.820706 
L 475.040592 -163.542539 
L 489.376707 -143.795284 
L 496.544765 -157.442489 
L 510.880879 -158.280227 
L 532.385051 -125.637588 
L 539.553109 -115.652003 
L 553.889223 -121.168908 
L 561.057281 -132.593778 
L 575.393395 -107.961749 
L 582.561453 -98.342695 
L 596.897567 -104.282451 
L 604.065625 -90.213115 
L 618.40174 -96.780798 
L 625.569797 -87.015361 
L 639.905912 -65.70009 
L 647.073969 -78.102254 
L 661.410084 -82.392153 
L 668.578141 -73.552615 
L 675.746198 -59.198182 
L 675.746198 -168.583768 
L 675.746198 -168.583768 
L 668.578141 -185.674845 
L 661.410084 -190.468909 
L 647.073969 -187.3688 
L 639.905912 -174.091404 
L 625.569797 -198.002937 
L 618.40174 -207.504383 
L 604.065625 -201.938033 
L 596.897567 -217.671786 
L 582.561453 -212.165591 
L 575.393395 -220.52772 
L 561.057281 -244.400374 
L 553.889223 -226.023027 
L 539.553109 -228.073231 
L 532.385051 -236.003502 
L 510.880879 -271.122808 
L 496.544765 -270.794887 
L 489.376707 -255.700638 
L 475.040592 -276.928142 
L 467.872535 -290.519322 
L 453.53642 -281.690573 
L 446.368363 -295.096874 
L 432.032248 -288.071321 
L 424.864191 -298.562511 
L 410.528076 -323.113716 
L 403.360019 -306.141687 
L 389.023904 -301.500684 
L 381.855847 -314.303291 
L 360.351675 -350.640089 
L 346.01556 -345.15071 
L 338.847503 -336.167433 
L 324.511388 -353.501512 
L 303.007216 -356.162605 
L 295.839159 -370.956845 
L 281.503044 -365.845936 
L 274.334987 -375.090589 
L 259.998872 -392.382258 
L 252.830814 -371.341922 
L 238.4947 -371.616032 
L 231.326642 -374.700284 
L 216.990528 -388.239252 
L 209.82247 -400.829724 
L 195.486356 -391.826405 
L 173.982184 -390.479417 
L 166.814126 -403.961818 
L 152.478012 -387.477643 
L 130.973839 -378.368414 
L 123.805782 -402.148663 
L 102.30161 -393.184634 
L 87.965495 -387.669736 
L 80.797438 -397.044618 
z
" id="mce084b3040" style="stroke:#0072b2;stroke-opacity:0.2;"/>
    </defs>
    <g clip-path="url(#pf5af52c32c)">
     <use style="fill:#0072b2;fill-opacity:0.2;stroke:#0072b2;stroke-opacity:0.2;" x="0" xlink:href="#mce084b3040" y="432"/>
    </g>
   </g>
   <g id="matplotlib.axis_1">
    <g id="xtick_1">
     <g id="line2d_1">
      <path clip-path="url(#pf5af52c32c)" d="M 73.629381 390.04 
L 73.629381 10.8 
" style="fill:none;stroke:#808080;stroke-linecap:square;stroke-opacity:0.2;"/>
     </g>
     <g id="line2d_2">
      <defs>
       <path d="M 0 0 
L 0 3.5 
" id="mff1d330607" style="stroke:#000000;stroke-width:0.8;"/>
      </defs>
      <g>
       <use style="stroke:#000000;stroke-width:0.8;" x="73.629381" xlink:href="#mff1d330607" y="390.04"/>
      </g>
     </g>
     <g id="text_1">
      <!-- 2019-02-15 -->
      <defs>
       <path d="M 19.1875 8.296875 
L 53.609375 8.296875 
L 53.609375 0 
L 7.328125 0 
L 7.328125 8.296875 
Q 12.9375 14.109375 22.625 23.890625 
Q 32.328125 33.6875 34.8125 36.53125 
Q 39.546875 41.84375 41.421875 45.53125 
Q 43.3125 49.21875 43.3125 52.78125 
Q 43.3125 58.59375 39.234375 62.25 
Q 35.15625 65.921875 28.609375 65.921875 
Q 23.96875 65.921875 18.8125 64.3125 
Q 13.671875 62.703125 7.8125 59.421875 
L 7.8125 69.390625 
Q 13.765625 71.78125 18.9375 73 
Q 24.125 74.21875 28.421875 74.21875 
Q 39.75 74.21875 46.484375 68.546875 
Q 53.21875 62.890625 53.21875 53.421875 
Q 53.21875 48.921875 51.53125 44.890625 
Q 49.859375 40.875 45.40625 35.40625 
Q 44.1875 33.984375 37.640625 27.21875 
Q 31.109375 20.453125 19.1875 8.296875 
z
" id="DejaVuSans-50"/>
       <path d="M 31.78125 66.40625 
Q 24.171875 66.40625 20.328125 58.90625 
Q 16.5 51.421875 16.5 36.375 
Q 16.5 21.390625 20.328125 13.890625 
Q 24.171875 6.390625 31.78125 6.390625 
Q 39.453125 6.390625 43.28125 13.890625 
Q 47.125 21.390625 47.125 36.375 
Q 47.125 51.421875 43.28125 58.90625 
Q 39.453125 66.40625 31.78125 66.40625 
z
M 31.78125 74.21875 
Q 44.046875 74.21875 50.515625 64.515625 
Q 56.984375 54.828125 56.984375 36.375 
Q 56.984375 17.96875 50.515625 8.265625 
Q 44.046875 -1.421875 31.78125 -1.421875 
Q 19.53125 -1.421875 13.0625 8.265625 
Q 6.59375 17.96875 6.59375 36.375 
Q 6.59375 54.828125 13.0625 64.515625 
Q 19.53125 74.21875 31.78125 74.21875 
z
" id="DejaVuSans-48"/>
       <path d="M 12.40625 8.296875 
L 28.515625 8.296875 
L 28.515625 63.921875 
L 10.984375 60.40625 
L 10.984375 69.390625 
L 28.421875 72.90625 
L 38.28125 72.90625 
L 38.28125 8.296875 
L 54.390625 8.296875 
L 54.390625 0 
L 12.40625 0 
z
" id="DejaVuSans-49"/>
       <path d="M 10.984375 1.515625 
L 10.984375 10.5 
Q 14.703125 8.734375 18.5 7.8125 
Q 22.3125 6.890625 25.984375 6.890625 
Q 35.75 6.890625 40.890625 13.453125 
Q 46.046875 20.015625 46.78125 33.40625 
Q 43.953125 29.203125 39.59375 26.953125 
Q 35.25 24.703125 29.984375 24.703125 
Q 19.046875 24.703125 12.671875 31.3125 
Q 6.296875 37.9375 6.296875 49.421875 
Q 6.296875 60.640625 12.9375 67.421875 
Q 19.578125 74.21875 30.609375 74.21875 
Q 43.265625 74.21875 49.921875 64.515625 
Q 56.59375 54.828125 56.59375 36.375 
Q 56.59375 19.140625 48.40625 8.859375 
Q 40.234375 -1.421875 26.421875 -1.421875 
Q 22.703125 -1.421875 18.890625 -0.6875 
Q 15.09375 0.046875 10.984375 1.515625 
z
M 30.609375 32.421875 
Q 37.25 32.421875 41.125 36.953125 
Q 45.015625 41.5 45.015625 49.421875 
Q 45.015625 57.28125 41.125 61.84375 
Q 37.25 66.40625 30.609375 66.40625 
Q 23.96875 66.40625 20.09375 61.84375 
Q 16.21875 57.28125 16.21875 49.421875 
Q 16.21875 41.5 20.09375 36.953125 
Q 23.96875 32.421875 30.609375 32.421875 
z
" id="DejaVuSans-57"/>
       <path d="M 4.890625 31.390625 
L 31.203125 31.390625 
L 31.203125 23.390625 
L 4.890625 23.390625 
z
" id="DejaVuSans-45"/>
       <path d="M 10.796875 72.90625 
L 49.515625 72.90625 
L 49.515625 64.59375 
L 19.828125 64.59375 
L 19.828125 46.734375 
Q 21.96875 47.46875 24.109375 47.828125 
Q 26.265625 48.1875 28.421875 48.1875 
Q 40.625 48.1875 47.75 41.5 
Q 54.890625 34.8125 54.890625 23.390625 
Q 54.890625 11.625 47.5625 5.09375 
Q 40.234375 -1.421875 26.90625 -1.421875 
Q 22.3125 -1.421875 17.546875 -0.640625 
Q 12.796875 0.140625 7.71875 1.703125 
L 7.71875 11.625 
Q 12.109375 9.234375 16.796875 8.0625 
Q 21.484375 6.890625 26.703125 6.890625 
Q 35.15625 6.890625 40.078125 11.328125 
Q 45.015625 15.765625 45.015625 23.390625 
Q 45.015625 31 40.078125 35.4375 
Q 35.15625 39.890625 26.703125 39.890625 
Q 22.75 39.890625 18.8125 39.015625 
Q 14.890625 38.140625 10.796875 36.28125 
z
" id="DejaVuSans-53"/>
      </defs>
      <g transform="translate(44.571568 404.638438)scale(0.1 -0.1)">
       <use xlink:href="#DejaVuSans-50"/>
       <use x="63.623047" xlink:href="#DejaVuSans-48"/>
       <use x="127.246094" xlink:href="#DejaVuSans-49"/>
       <use x="190.869141" xlink:href="#DejaVuSans-57"/>
       <use x="254.492188" xlink:href="#DejaVuSans-45"/>
       <use x="290.576172" xlink:href="#DejaVuSans-48"/>
       <use x="354.199219" xlink:href="#DejaVuSans-50"/>
       <use x="417.822266" xlink:href="#DejaVuSans-45"/>
       <use x="453.90625" xlink:href="#DejaVuSans-49"/>
       <use x="517.529297" xlink:href="#DejaVuSans-53"/>
      </g>
     </g>
    </g>
    <g id="xtick_2">
     <g id="line2d_3">
      <path clip-path="url(#pf5af52c32c)" d="M 173.982184 390.04 
L 173.982184 10.8 
" style="fill:none;stroke:#808080;stroke-linecap:square;stroke-opacity:0.2;"/>
     </g>
     <g id="line2d_4">
      <g>
       <use style="stroke:#000000;stroke-width:0.8;" x="173.982184" xlink:href="#mff1d330607" y="390.04"/>
      </g>
     </g>
     <g id="text_2">
      <!-- 2019-03-01 -->
      <defs>
       <path d="M 40.578125 39.3125 
Q 47.65625 37.796875 51.625 33 
Q 55.609375 28.21875 55.609375 21.1875 
Q 55.609375 10.40625 48.1875 4.484375 
Q 40.765625 -1.421875 27.09375 -1.421875 
Q 22.515625 -1.421875 17.65625 -0.515625 
Q 12.796875 0.390625 7.625 2.203125 
L 7.625 11.71875 
Q 11.71875 9.328125 16.59375 8.109375 
Q 21.484375 6.890625 26.8125 6.890625 
Q 36.078125 6.890625 40.9375 10.546875 
Q 45.796875 14.203125 45.796875 21.1875 
Q 45.796875 27.640625 41.28125 31.265625 
Q 36.765625 34.90625 28.71875 34.90625 
L 20.21875 34.90625 
L 20.21875 43.015625 
L 29.109375 43.015625 
Q 36.375 43.015625 40.234375 45.921875 
Q 44.09375 48.828125 44.09375 54.296875 
Q 44.09375 59.90625 40.109375 62.90625 
Q 36.140625 65.921875 28.71875 65.921875 
Q 24.65625 65.921875 20.015625 65.03125 
Q 15.375 64.15625 9.8125 62.3125 
L 9.8125 71.09375 
Q 15.4375 72.65625 20.34375 73.4375 
Q 25.25 74.21875 29.59375 74.21875 
Q 40.828125 74.21875 47.359375 69.109375 
Q 53.90625 64.015625 53.90625 55.328125 
Q 53.90625 49.265625 50.4375 45.09375 
Q 46.96875 40.921875 40.578125 39.3125 
z
" id="DejaVuSans-51"/>
      </defs>
      <g transform="translate(144.924371 404.638438)scale(0.1 -0.1)">
       <use xlink:href="#DejaVuSans-50"/>
       <use x="63.623047" xlink:href="#DejaVuSans-48"/>
       <use x="127.246094" xlink:href="#DejaVuSans-49"/>
       <use x="190.869141" xlink:href="#DejaVuSans-57"/>
       <use x="254.492188" xlink:href="#DejaVuSans-45"/>
       <use x="290.576172" xlink:href="#DejaVuSans-48"/>
       <use x="354.199219" xlink:href="#DejaVuSans-51"/>
       <use x="417.822266" xlink:href="#DejaVuSans-45"/>
       <use x="453.90625" xlink:href="#DejaVuSans-48"/>
       <use x="517.529297" xlink:href="#DejaVuSans-49"/>
      </g>
     </g>
    </g>
    <g id="xtick_3">
     <g id="line2d_5">
      <path clip-path="url(#pf5af52c32c)" d="M 274.334987 390.04 
L 274.334987 10.8 
" style="fill:none;stroke:#808080;stroke-linecap:square;stroke-opacity:0.2;"/>
     </g>
     <g id="line2d_6">
      <g>
       <use style="stroke:#000000;stroke-width:0.8;" x="274.334987" xlink:href="#mff1d330607" y="390.04"/>
      </g>
     </g>
     <g id="text_3">
      <!-- 2019-03-15 -->
      <g transform="translate(245.277174 404.638438)scale(0.1 -0.1)">
       <use xlink:href="#DejaVuSans-50"/>
       <use x="63.623047" xlink:href="#DejaVuSans-48"/>
       <use x="127.246094" xlink:href="#DejaVuSans-49"/>
       <use x="190.869141" xlink:href="#DejaVuSans-57"/>
       <use x="254.492188" xlink:href="#DejaVuSans-45"/>
       <use x="290.576172" xlink:href="#DejaVuSans-48"/>
       <use x="354.199219" xlink:href="#DejaVuSans-51"/>
       <use x="417.822266" xlink:href="#DejaVuSans-45"/>
       <use x="453.90625" xlink:href="#DejaVuSans-49"/>
       <use x="517.529297" xlink:href="#DejaVuSans-53"/>
      </g>
     </g>
    </g>
    <g id="xtick_4">
     <g id="line2d_7">
      <path clip-path="url(#pf5af52c32c)" d="M 374.68779 390.04 
L 374.68779 10.8 
" style="fill:none;stroke:#808080;stroke-linecap:square;stroke-opacity:0.2;"/>
     </g>
     <g id="line2d_8">
      <g>
       <use style="stroke:#000000;stroke-width:0.8;" x="374.68779" xlink:href="#mff1d330607" y="390.04"/>
      </g>
     </g>
     <g id="text_4">
      <!-- 2019-03-29 -->
      <g transform="translate(345.629977 404.638438)scale(0.1 -0.1)">
       <use xlink:href="#DejaVuSans-50"/>
       <use x="63.623047" xlink:href="#DejaVuSans-48"/>
       <use x="127.246094" xlink:href="#DejaVuSans-49"/>
       <use x="190.869141" xlink:href="#DejaVuSans-57"/>
       <use x="254.492188" xlink:href="#DejaVuSans-45"/>
       <use x="290.576172" xlink:href="#DejaVuSans-48"/>
       <use x="354.199219" xlink:href="#DejaVuSans-51"/>
       <use x="417.822266" xlink:href="#DejaVuSans-45"/>
       <use x="453.90625" xlink:href="#DejaVuSans-50"/>
       <use x="517.529297" xlink:href="#DejaVuSans-57"/>
      </g>
     </g>
    </g>
    <g id="xtick_5">
     <g id="line2d_9">
      <path clip-path="url(#pf5af52c32c)" d="M 475.040592 390.04 
L 475.040592 10.8 
" style="fill:none;stroke:#808080;stroke-linecap:square;stroke-opacity:0.2;"/>
     </g>
     <g id="line2d_10">
      <g>
       <use style="stroke:#000000;stroke-width:0.8;" x="475.040592" xlink:href="#mff1d330607" y="390.04"/>
      </g>
     </g>
     <g id="text_5">
      <!-- 2019-04-12 -->
      <defs>
       <path d="M 37.796875 64.3125 
L 12.890625 25.390625 
L 37.796875 25.390625 
z
M 35.203125 72.90625 
L 47.609375 72.90625 
L 47.609375 25.390625 
L 58.015625 25.390625 
L 58.015625 17.1875 
L 47.609375 17.1875 
L 47.609375 0 
L 37.796875 0 
L 37.796875 17.1875 
L 4.890625 17.1875 
L 4.890625 26.703125 
z
" id="DejaVuSans-52"/>
      </defs>
      <g transform="translate(445.98278 404.638438)scale(0.1 -0.1)">
       <use xlink:href="#DejaVuSans-50"/>
       <use x="63.623047" xlink:href="#DejaVuSans-48"/>
       <use x="127.246094" xlink:href="#DejaVuSans-49"/>
       <use x="190.869141" xlink:href="#DejaVuSans-57"/>
       <use x="254.492188" xlink:href="#DejaVuSans-45"/>
       <use x="290.576172" xlink:href="#DejaVuSans-48"/>
       <use x="354.199219" xlink:href="#DejaVuSans-52"/>
       <use x="417.822266" xlink:href="#DejaVuSans-45"/>
       <use x="453.90625" xlink:href="#DejaVuSans-49"/>
       <use x="517.529297" xlink:href="#DejaVuSans-50"/>
      </g>
     </g>
    </g>
    <g id="xtick_6">
     <g id="line2d_11">
      <path clip-path="url(#pf5af52c32c)" d="M 575.393395 390.04 
L 575.393395 10.8 
" style="fill:none;stroke:#808080;stroke-linecap:square;stroke-opacity:0.2;"/>
     </g>
     <g id="line2d_12">
      <g>
       <use style="stroke:#000000;stroke-width:0.8;" x="575.393395" xlink:href="#mff1d330607" y="390.04"/>
      </g>
     </g>
     <g id="text_6">
      <!-- 2019-04-26 -->
      <defs>
       <path d="M 33.015625 40.375 
Q 26.375 40.375 22.484375 35.828125 
Q 18.609375 31.296875 18.609375 23.390625 
Q 18.609375 15.53125 22.484375 10.953125 
Q 26.375 6.390625 33.015625 6.390625 
Q 39.65625 6.390625 43.53125 10.953125 
Q 47.40625 15.53125 47.40625 23.390625 
Q 47.40625 31.296875 43.53125 35.828125 
Q 39.65625 40.375 33.015625 40.375 
z
M 52.59375 71.296875 
L 52.59375 62.3125 
Q 48.875 64.0625 45.09375 64.984375 
Q 41.3125 65.921875 37.59375 65.921875 
Q 27.828125 65.921875 22.671875 59.328125 
Q 17.53125 52.734375 16.796875 39.40625 
Q 19.671875 43.65625 24.015625 45.921875 
Q 28.375 48.1875 33.59375 48.1875 
Q 44.578125 48.1875 50.953125 41.515625 
Q 57.328125 34.859375 57.328125 23.390625 
Q 57.328125 12.15625 50.6875 5.359375 
Q 44.046875 -1.421875 33.015625 -1.421875 
Q 20.359375 -1.421875 13.671875 8.265625 
Q 6.984375 17.96875 6.984375 36.375 
Q 6.984375 53.65625 15.1875 63.9375 
Q 23.390625 74.21875 37.203125 74.21875 
Q 40.921875 74.21875 44.703125 73.484375 
Q 48.484375 72.75 52.59375 71.296875 
z
" id="DejaVuSans-54"/>
      </defs>
      <g transform="translate(546.335583 404.638438)scale(0.1 -0.1)">
       <use xlink:href="#DejaVuSans-50"/>
       <use x="63.623047" xlink:href="#DejaVuSans-48"/>
       <use x="127.246094" xlink:href="#DejaVuSans-49"/>
       <use x="190.869141" xlink:href="#DejaVuSans-57"/>
       <use x="254.492188" xlink:href="#DejaVuSans-45"/>
       <use x="290.576172" xlink:href="#DejaVuSans-48"/>
       <use x="354.199219" xlink:href="#DejaVuSans-52"/>
       <use x="417.822266" xlink:href="#DejaVuSans-45"/>
       <use x="453.90625" xlink:href="#DejaVuSans-50"/>
       <use x="517.529297" xlink:href="#DejaVuSans-54"/>
      </g>
     </g>
    </g>
    <g id="xtick_7">
     <g id="line2d_13">
      <path clip-path="url(#pf5af52c32c)" d="M 675.746198 390.04 
L 675.746198 10.8 
" style="fill:none;stroke:#808080;stroke-linecap:square;stroke-opacity:0.2;"/>
     </g>
     <g id="line2d_14">
      <g>
       <use style="stroke:#000000;stroke-width:0.8;" x="675.746198" xlink:href="#mff1d330607" y="390.04"/>
      </g>
     </g>
     <g id="text_7">
      <!-- 2019-05-10 -->
      <g transform="translate(646.688386 404.638438)scale(0.1 -0.1)">
       <use xlink:href="#DejaVuSans-50"/>
       <use x="63.623047" xlink:href="#DejaVuSans-48"/>
       <use x="127.246094" xlink:href="#DejaVuSans-49"/>
       <use x="190.869141" xlink:href="#DejaVuSans-57"/>
       <use x="254.492188" xlink:href="#DejaVuSans-45"/>
       <use x="290.576172" xlink:href="#DejaVuSans-48"/>
       <use x="354.199219" xlink:href="#DejaVuSans-53"/>
       <use x="417.822266" xlink:href="#DejaVuSans-45"/>
       <use x="453.90625" xlink:href="#DejaVuSans-49"/>
       <use x="517.529297" xlink:href="#DejaVuSans-48"/>
      </g>
     </g>
    </g>
    <g id="text_8">
     <!-- ds -->
     <defs>
      <path d="M 45.40625 46.390625 
L 45.40625 75.984375 
L 54.390625 75.984375 
L 54.390625 0 
L 45.40625 0 
L 45.40625 8.203125 
Q 42.578125 3.328125 38.25 0.953125 
Q 33.9375 -1.421875 27.875 -1.421875 
Q 17.96875 -1.421875 11.734375 6.484375 
Q 5.515625 14.40625 5.515625 27.296875 
Q 5.515625 40.1875 11.734375 48.09375 
Q 17.96875 56 27.875 56 
Q 33.9375 56 38.25 53.625 
Q 42.578125 51.265625 45.40625 46.390625 
z
M 14.796875 27.296875 
Q 14.796875 17.390625 18.875 11.75 
Q 22.953125 6.109375 30.078125 6.109375 
Q 37.203125 6.109375 41.296875 11.75 
Q 45.40625 17.390625 45.40625 27.296875 
Q 45.40625 37.203125 41.296875 42.84375 
Q 37.203125 48.484375 30.078125 48.484375 
Q 22.953125 48.484375 18.875 42.84375 
Q 14.796875 37.203125 14.796875 27.296875 
z
" id="DejaVuSans-100"/>
      <path d="M 44.28125 53.078125 
L 44.28125 44.578125 
Q 40.484375 46.53125 36.375 47.5 
Q 32.28125 48.484375 27.875 48.484375 
Q 21.1875 48.484375 17.84375 46.4375 
Q 14.5 44.390625 14.5 40.28125 
Q 14.5 37.15625 16.890625 35.375 
Q 19.28125 33.59375 26.515625 31.984375 
L 29.59375 31.296875 
Q 39.15625 29.25 43.1875 25.515625 
Q 47.21875 21.78125 47.21875 15.09375 
Q 47.21875 7.46875 41.1875 3.015625 
Q 35.15625 -1.421875 24.609375 -1.421875 
Q 20.21875 -1.421875 15.453125 -0.5625 
Q 10.6875 0.296875 5.421875 2 
L 5.421875 11.28125 
Q 10.40625 8.6875 15.234375 7.390625 
Q 20.0625 6.109375 24.8125 6.109375 
Q 31.15625 6.109375 34.5625 8.28125 
Q 37.984375 10.453125 37.984375 14.40625 
Q 37.984375 18.0625 35.515625 20.015625 
Q 33.0625 21.96875 24.703125 23.78125 
L 21.578125 24.515625 
Q 13.234375 26.265625 9.515625 29.90625 
Q 5.8125 33.546875 5.8125 39.890625 
Q 5.8125 47.609375 11.28125 51.796875 
Q 16.75 56 26.8125 56 
Q 31.78125 56 36.171875 55.265625 
Q 40.578125 54.546875 44.28125 53.078125 
z
" id="DejaVuSans-115"/>
     </defs>
     <g transform="translate(372.492912 418.316562)scale(0.1 -0.1)">
      <use xlink:href="#DejaVuSans-100"/>
      <use x="63.476562" xlink:href="#DejaVuSans-115"/>
     </g>
    </g>
   </g>
   <g id="matplotlib.axis_2">
    <g id="ytick_1">
     <g id="line2d_15">
      <path clip-path="url(#pf5af52c32c)" d="M 51.05 350.053157 
L 705.493636 350.053157 
" style="fill:none;stroke:#808080;stroke-linecap:square;stroke-opacity:0.2;"/>
     </g>
     <g id="line2d_16">
      <defs>
       <path d="M 0 0 
L -3.5 0 
" id="mbe4919f38b" style="stroke:#000000;stroke-width:0.8;"/>
      </defs>
      <g>
       <use style="stroke:#000000;stroke-width:0.8;" x="51.05" xlink:href="#mbe4919f38b" y="350.053157"/>
      </g>
     </g>
     <g id="text_9">
      <!-- 110 -->
      <g transform="translate(24.9625 353.852376)scale(0.1 -0.1)">
       <use xlink:href="#DejaVuSans-49"/>
       <use x="63.623047" xlink:href="#DejaVuSans-49"/>
       <use x="127.246094" xlink:href="#DejaVuSans-48"/>
      </g>
     </g>
    </g>
    <g id="ytick_2">
     <g id="line2d_17">
      <path clip-path="url(#pf5af52c32c)" d="M 51.05 281.362804 
L 705.493636 281.362804 
" style="fill:none;stroke:#808080;stroke-linecap:square;stroke-opacity:0.2;"/>
     </g>
     <g id="line2d_18">
      <g>
       <use style="stroke:#000000;stroke-width:0.8;" x="51.05" xlink:href="#mbe4919f38b" y="281.362804"/>
      </g>
     </g>
     <g id="text_10">
      <!-- 120 -->
      <g transform="translate(24.9625 285.162023)scale(0.1 -0.1)">
       <use xlink:href="#DejaVuSans-49"/>
       <use x="63.623047" xlink:href="#DejaVuSans-50"/>
       <use x="127.246094" xlink:href="#DejaVuSans-48"/>
      </g>
     </g>
    </g>
    <g id="ytick_3">
     <g id="line2d_19">
      <path clip-path="url(#pf5af52c32c)" d="M 51.05 212.67245 
L 705.493636 212.67245 
" style="fill:none;stroke:#808080;stroke-linecap:square;stroke-opacity:0.2;"/>
     </g>
     <g id="line2d_20">
      <g>
       <use style="stroke:#000000;stroke-width:0.8;" x="51.05" xlink:href="#mbe4919f38b" y="212.67245"/>
      </g>
     </g>
     <g id="text_11">
      <!-- 130 -->
      <g transform="translate(24.9625 216.471669)scale(0.1 -0.1)">
       <use xlink:href="#DejaVuSans-49"/>
       <use x="63.623047" xlink:href="#DejaVuSans-51"/>
       <use x="127.246094" xlink:href="#DejaVuSans-48"/>
      </g>
     </g>
    </g>
    <g id="ytick_4">
     <g id="line2d_21">
      <path clip-path="url(#pf5af52c32c)" d="M 51.05 143.982097 
L 705.493636 143.982097 
" style="fill:none;stroke:#808080;stroke-linecap:square;stroke-opacity:0.2;"/>
     </g>
     <g id="line2d_22">
      <g>
       <use style="stroke:#000000;stroke-width:0.8;" x="51.05" xlink:href="#mbe4919f38b" y="143.982097"/>
      </g>
     </g>
     <g id="text_12">
      <!-- 140 -->
      <g transform="translate(24.9625 147.781316)scale(0.1 -0.1)">
       <use xlink:href="#DejaVuSans-49"/>
       <use x="63.623047" xlink:href="#DejaVuSans-52"/>
       <use x="127.246094" xlink:href="#DejaVuSans-48"/>
      </g>
     </g>
    </g>
    <g id="ytick_5">
     <g id="line2d_23">
      <path clip-path="url(#pf5af52c32c)" d="M 51.05 75.291743 
L 705.493636 75.291743 
" style="fill:none;stroke:#808080;stroke-linecap:square;stroke-opacity:0.2;"/>
     </g>
     <g id="line2d_24">
      <g>
       <use style="stroke:#000000;stroke-width:0.8;" x="51.05" xlink:href="#mbe4919f38b" y="75.291743"/>
      </g>
     </g>
     <g id="text_13">
      <!-- 150 -->
      <g transform="translate(24.9625 79.090962)scale(0.1 -0.1)">
       <use xlink:href="#DejaVuSans-49"/>
       <use x="63.623047" xlink:href="#DejaVuSans-53"/>
       <use x="127.246094" xlink:href="#DejaVuSans-48"/>
      </g>
     </g>
    </g>
    <g id="text_14">
     <!-- y -->
     <defs>
      <path d="M 32.171875 -5.078125 
Q 28.375 -14.84375 24.75 -17.8125 
Q 21.140625 -20.796875 15.09375 -20.796875 
L 7.90625 -20.796875 
L 7.90625 -13.28125 
L 13.1875 -13.28125 
Q 16.890625 -13.28125 18.9375 -11.515625 
Q 21 -9.765625 23.484375 -3.21875 
L 25.09375 0.875 
L 2.984375 54.6875 
L 12.5 54.6875 
L 29.59375 11.921875 
L 46.6875 54.6875 
L 56.203125 54.6875 
z
" id="DejaVuSans-121"/>
     </defs>
     <g transform="translate(18.882812 203.379375)rotate(-90)scale(0.1 -0.1)">
      <use xlink:href="#DejaVuSans-121"/>
     </g>
    </g>
   </g>
   <g id="line2d_25">
    <defs>
     <path d="M 0 1.5 
C 0.397805 1.5 0.77937 1.341951 1.06066 1.06066 
C 1.341951 0.77937 1.5 0.397805 1.5 0 
C 1.5 -0.397805 1.341951 -0.77937 1.06066 -1.06066 
C 0.77937 -1.341951 0.397805 -1.5 0 -1.5 
C -0.397805 -1.5 -0.77937 -1.341951 -1.06066 -1.06066 
C -1.341951 -0.77937 -1.5 -0.397805 -1.5 0 
C -1.5 0.397805 -1.341951 0.77937 -1.06066 1.06066 
C -0.77937 1.341951 -0.397805 1.5 0 1.5 
z
" id="m393afef2cd" style="stroke:#000000;"/>
    </defs>
    <g clip-path="url(#pf5af52c32c)">
     <use style="stroke:#000000;" x="80.797438" xlink:href="#m393afef2cd" y="109.63692"/>
     <use style="stroke:#000000;" x="87.965495" xlink:href="#m393afef2cd" y="130.244026"/>
     <use style="stroke:#000000;" x="102.30161" xlink:href="#m393afef2cd" y="95.898849"/>
     <use style="stroke:#000000;" x="123.805782" xlink:href="#m393afef2cd" y="130.244026"/>
     <use style="stroke:#000000;" x="130.973839" xlink:href="#m393afef2cd" y="137.113061"/>
     <use style="stroke:#000000;" x="152.478012" xlink:href="#m393afef2cd" y="95.898849"/>
     <use style="stroke:#000000;" x="166.814126" xlink:href="#m393afef2cd" y="143.982097"/>
     <use style="stroke:#000000;" x="173.982184" xlink:href="#m393afef2cd" y="137.113061"/>
     <use style="stroke:#000000;" x="195.486356" xlink:href="#m393afef2cd" y="61.553673"/>
     <use style="stroke:#000000;" x="209.82247" xlink:href="#m393afef2cd" y="54.684637"/>
     <use style="stroke:#000000;" x="216.990528" xlink:href="#m393afef2cd" y="137.113061"/>
     <use style="stroke:#000000;" x="231.326642" xlink:href="#m393afef2cd" y="61.553673"/>
     <use style="stroke:#000000;" x="238.4947" xlink:href="#m393afef2cd" y="40.946566"/>
     <use style="stroke:#000000;" x="252.830814" xlink:href="#m393afef2cd" y="102.767885"/>
     <use style="stroke:#000000;" x="259.998872" xlink:href="#m393afef2cd" y="82.160779"/>
     <use style="stroke:#000000;" x="274.334987" xlink:href="#m393afef2cd" y="40.946566"/>
     <use style="stroke:#000000;" x="281.503044" xlink:href="#m393afef2cd" y="54.684637"/>
     <use style="stroke:#000000;" x="295.839159" xlink:href="#m393afef2cd" y="68.422708"/>
     <use style="stroke:#000000;" x="303.007216" xlink:href="#m393afef2cd" y="116.505955"/>
     <use style="stroke:#000000;" x="324.511388" xlink:href="#m393afef2cd" y="82.160779"/>
     <use style="stroke:#000000;" x="338.847503" xlink:href="#m393afef2cd" y="164.589203"/>
     <use style="stroke:#000000;" x="346.01556" xlink:href="#m393afef2cd" y="164.589203"/>
     <use style="stroke:#000000;" x="360.351675" xlink:href="#m393afef2cd" y="164.589203"/>
     <use style="stroke:#000000;" x="381.855847" xlink:href="#m393afef2cd" y="219.541486"/>
     <use style="stroke:#000000;" x="389.023904" xlink:href="#m393afef2cd" y="157.720167"/>
     <use style="stroke:#000000;" x="403.360019" xlink:href="#m393afef2cd" y="178.327274"/>
     <use style="stroke:#000000;" x="410.528076" xlink:href="#m393afef2cd" y="192.065344"/>
     <use style="stroke:#000000;" x="424.864191" xlink:href="#m393afef2cd" y="150.851132"/>
     <use style="stroke:#000000;" x="432.032248" xlink:href="#m393afef2cd" y="192.065344"/>
     <use style="stroke:#000000;" x="446.368363" xlink:href="#m393afef2cd" y="192.065344"/>
     <use style="stroke:#000000;" x="453.53642" xlink:href="#m393afef2cd" y="164.589203"/>
     <use style="stroke:#000000;" x="467.872535" xlink:href="#m393afef2cd" y="247.017627"/>
     <use style="stroke:#000000;" x="475.040592" xlink:href="#m393afef2cd" y="247.017627"/>
     <use style="stroke:#000000;" x="489.376707" xlink:href="#m393afef2cd" y="274.493769"/>
     <use style="stroke:#000000;" x="496.544765" xlink:href="#m393afef2cd" y="198.93438"/>
     <use style="stroke:#000000;" x="510.880879" xlink:href="#m393afef2cd" y="185.196309"/>
     <use style="stroke:#000000;" x="532.385051" xlink:href="#m393afef2cd" y="267.624733"/>
     <use style="stroke:#000000;" x="539.553109" xlink:href="#m393afef2cd" y="315.707981"/>
     <use style="stroke:#000000;" x="553.889223" xlink:href="#m393afef2cd" y="308.838945"/>
     <use style="stroke:#000000;" x="561.057281" xlink:href="#m393afef2cd" y="322.577016"/>
     <use style="stroke:#000000;" x="575.393395" xlink:href="#m393afef2cd" y="363.791228"/>
     <use style="stroke:#000000;" x="582.561453" xlink:href="#m393afef2cd" y="281.362804"/>
     <use style="stroke:#000000;" x="596.897567" xlink:href="#m393afef2cd" y="329.446051"/>
     <use style="stroke:#000000;" x="604.065625" xlink:href="#m393afef2cd" y="308.838945"/>
     <use style="stroke:#000000;" x="618.40174" xlink:href="#m393afef2cd" y="212.67245"/>
     <use style="stroke:#000000;" x="625.569797" xlink:href="#m393afef2cd" y="240.148592"/>
     <use style="stroke:#000000;" x="639.905912" xlink:href="#m393afef2cd" y="281.362804"/>
     <use style="stroke:#000000;" x="647.073969" xlink:href="#m393afef2cd" y="322.577016"/>
     <use style="stroke:#000000;" x="661.410084" xlink:href="#m393afef2cd" y="240.148592"/>
     <use style="stroke:#000000;" x="668.578141" xlink:href="#m393afef2cd" y="226.410521"/>
    </g>
   </g>
   <g id="line2d_26">
    <path clip-path="url(#pf5af52c32c)" d="M 80.797438 94.075574 
L 87.965495 101.08241 
L 102.30161 94.750791 
L 123.805782 91.988773 
L 130.973839 100.367658 
L 152.478012 101.042874 
L 166.814126 88.40758 
L 173.982184 98.280856 
L 195.486356 96.704111 
L 209.82247 88.105054 
L 216.990528 94.701571 
L 231.326642 112.955112 
L 238.4947 119.970581 
L 252.830814 113.66807 
L 259.998872 94.451502 
L 274.334987 110.957985 
L 281.503044 119.35556 
L 295.839159 115.076813 
L 303.007216 128.554086 
L 324.511388 134.331344 
L 338.847503 155.410878 
L 346.01556 141.295321 
L 360.351675 138.388862 
L 381.855847 171.777576 
L 389.023904 181.63132 
L 403.360019 180.993517 
L 410.528076 164.609304 
L 424.864191 186.772224 
L 432.032248 197.998018 
L 446.368363 193.736204 
L 453.53642 207.213959 
L 467.872535 200.272482 
L 475.040592 212.992666 
L 489.376707 234.072204 
L 496.544765 219.956646 
L 510.880879 217.050188 
L 532.385051 250.438901 
L 539.553109 260.289362 
L 553.889223 259.642962 
L 561.057281 243.25445 
L 575.393395 265.399273 
L 582.561453 276.616019 
L 596.897567 272.336109 
L 604.065625 285.804816 
L 618.40174 278.845242 
L 625.569797 291.556379 
L 639.905912 312.61782 
L 647.073969 298.493214 
L 661.410084 295.56866 
L 668.578141 305.002347 
L 675.746198 317.713484 
" style="fill:none;stroke:#0072b2;stroke-linecap:square;stroke-width:1.5;"/>
   </g>
   <g id="patch_3">
    <path d="M 51.05 390.04 
L 51.05 10.8 
" style="fill:none;stroke:#000000;stroke-linecap:square;stroke-linejoin:miter;stroke-width:0.8;"/>
   </g>
   <g id="patch_4">
    <path d="M 705.493636 390.04 
L 705.493636 10.8 
" style="fill:none;stroke:#000000;stroke-linecap:square;stroke-linejoin:miter;stroke-width:0.8;"/>
   </g>
   <g id="patch_5">
    <path d="M 51.05 390.04 
L 705.493636 390.04 
" style="fill:none;stroke:#000000;stroke-linecap:square;stroke-linejoin:miter;stroke-width:0.8;"/>
   </g>
   <g id="patch_6">
    <path d="M 51.05 10.8 
L 705.493636 10.8 
" style="fill:none;stroke:#000000;stroke-linecap:square;stroke-linejoin:miter;stroke-width:0.8;"/>
   </g>
  </g>
 </g>
 <defs>
  <clipPath id="pf5af52c32c">
   <rect height="379.24" width="654.443636" x="51.05" y="10.8"/>
  </clipPath>
 </defs>
</svg>
