<?xml version="1.0" encoding="utf-8" standalone="no"?>
<!DOCTYPE svg PUBLIC "-//W3C//DTD SVG 1.1//EN"
  "http://www.w3.org/Graphics/SVG/1.1/DTD/svg11.dtd">
<!-- Created with matplotlib (https://matplotlib.org/) -->
<svg height="432pt" version="1.1" viewBox="0 0 720 432" width="720pt" xmlns="http://www.w3.org/2000/svg" xmlns:xlink="http://www.w3.org/1999/xlink">
 <defs>
  <style type="text/css">
*{stroke-linecap:butt;stroke-linejoin:round;}
  </style>
 </defs>
 <g id="figure_1">
  <g id="patch_1">
   <path d="M 0 432 
L 720 432 
L 720 0 
L 0 0 
z
" style="fill:#ffffff;"/>
  </g>
  <g id="axes_1">
   <g id="patch_2">
    <path d="M 51.05 390.04 
L 709.2 390.04 
L 709.2 10.8 
L 51.05 10.8 
z
" style="fill:#ffffff;"/>
   </g>
   <g id="PolyCollection_1">
    <defs>
     <path d="M 80.965909 -390.322101 
L 80.965909 -281.70143 
L 88.174562 -287.444634 
L 109.80052 -267.73912 
L 124.217826 -269.381445 
L 131.426479 -231.441393 
L 145.843784 -225.0941 
L 167.469743 -216.980469 
L 174.678395 -219.908421 
L 189.095701 -191.419497 
L 196.304354 -179.611149 
L 210.721659 -177.470091 
L 217.930312 -172.974469 
L 232.347618 -137.562546 
L 239.556271 -139.736237 
L 253.973576 -173.9135 
L 261.182229 -128.237174 
L 275.599535 -128.841786 
L 282.808187 -82.775535 
L 297.225493 -85.404605 
L 318.851451 -73.96505 
L 326.060104 -80.387401 
L 340.47741 -62.924259 
L 347.686062 -63.914137 
L 362.103368 -69.902852 
L 369.312021 -76.349235 
L 383.729326 -59.198182 
L 390.937979 -78.153232 
L 405.355285 -122.030762 
L 412.563938 -94.197972 
L 426.981243 -108.675595 
L 434.189896 -81.962348 
L 448.607202 -90.860296 
L 455.815854 -143.732311 
L 470.23316 -111.824099 
L 477.441813 -129.555817 
L 491.859118 -119.133158 
L 499.067771 -111.913641 
L 513.485077 -128.017405 
L 520.693729 -135.543588 
L 542.319688 -133.035965 
L 556.736993 -175.607734 
L 563.945646 -140.761835 
L 578.362952 -165.527255 
L 599.98891 -151.291174 
L 607.197563 -200.214557 
L 621.614869 -167.248623 
L 628.823521 -178.767053 
L 643.240827 -170.777958 
L 650.44948 -162.993633 
L 664.866785 -180.641457 
L 672.075438 -187.170172 
L 679.284091 -199.544901 
L 679.284091 -308.629481 
L 679.284091 -308.629481 
L 672.075438 -297.793512 
L 664.866785 -293.800572 
L 650.44948 -278.207573 
L 643.240827 -280.99293 
L 628.823521 -293.518388 
L 621.614869 -281.957339 
L 607.197563 -309.815862 
L 599.98891 -263.838835 
L 578.362952 -277.053377 
L 563.945646 -261.986849 
L 556.736993 -292.640803 
L 542.319688 -244.864708 
L 520.693729 -246.224326 
L 513.485077 -237.352922 
L 499.067771 -226.438209 
L 491.859118 -229.282952 
L 477.441813 -240.55071 
L 470.23316 -226.839943 
L 455.815854 -259.982848 
L 448.607202 -206.539959 
L 434.189896 -191.23363 
L 426.981243 -217.839727 
L 412.563938 -204.278483 
L 405.355285 -238.342057 
L 390.937979 -190.05734 
L 383.729326 -172.409358 
L 369.312021 -191.090741 
L 362.103368 -182.583387 
L 347.686062 -170.901469 
L 340.47741 -177.841586 
L 326.060104 -194.176894 
L 318.851451 -192.163722 
L 297.225493 -194.053166 
L 282.808187 -199.246856 
L 275.599535 -239.045265 
L 261.182229 -236.342065 
L 253.973576 -288.141956 
L 239.556271 -256.20363 
L 232.347618 -247.135843 
L 217.930312 -283.843763 
L 210.721659 -289.12999 
L 196.304354 -294.891627 
L 189.095701 -300.848747 
L 174.678395 -336.286556 
L 167.469743 -331.565044 
L 145.843784 -339.429538 
L 131.426479 -339.555977 
L 124.217826 -381.784758 
L 109.80052 -381.749056 
L 88.174562 -403.961818 
L 80.965909 -390.322101 
z
" id="mff5a0037fd" style="stroke:#0072b2;stroke-opacity:0.2;"/>
    </defs>
    <g clip-path="url(#p2478c26db9)">
     <use style="fill:#0072b2;fill-opacity:0.2;stroke:#0072b2;stroke-opacity:0.2;" x="0" xlink:href="#mff5a0037fd" y="432"/>
    </g>
   </g>
   <g id="matplotlib.axis_1">
    <g id="xtick_1">
     <g id="line2d_1">
      <path clip-path="url(#p2478c26db9)" d="M 109.80052 390.04 
L 109.80052 10.8 
" style="fill:none;stroke:#808080;stroke-linecap:square;stroke-opacity:0.2;"/>
     </g>
     <g id="line2d_2">
      <defs>
       <path d="M 0 0 
L 0 3.5 
" id="m6c8b4ba65e" style="stroke:#000000;stroke-width:0.8;"/>
      </defs>
      <g>
       <use style="stroke:#000000;stroke-width:0.8;" x="109.80052" xlink:href="#m6c8b4ba65e" y="390.04"/>
      </g>
     </g>
     <g id="text_1">
      <!-- 2019-03-22 -->
      <defs>
       <path d="M 19.1875 8.296875 
L 53.609375 8.296875 
L 53.609375 0 
L 7.328125 0 
L 7.328125 8.296875 
Q 12.9375 14.109375 22.625 23.890625 
Q 32.328125 33.6875 34.8125 36.53125 
Q 39.546875 41.84375 41.421875 45.53125 
Q 43.3125 49.21875 43.3125 52.78125 
Q 43.3125 58.59375 39.234375 62.25 
Q 35.15625 65.921875 28.609375 65.921875 
Q 23.96875 65.921875 18.8125 64.3125 
Q 13.671875 62.703125 7.8125 59.421875 
L 7.8125 69.390625 
Q 13.765625 71.78125 18.9375 73 
Q 24.125 74.21875 28.421875 74.21875 
Q 39.75 74.21875 46.484375 68.546875 
Q 53.21875 62.890625 53.21875 53.421875 
Q 53.21875 48.921875 51.53125 44.890625 
Q 49.859375 40.875 45.40625 35.40625 
Q 44.1875 33.984375 37.640625 27.21875 
Q 31.109375 20.453125 19.1875 8.296875 
z
" id="DejaVuSans-50"/>
       <path d="M 31.78125 66.40625 
Q 24.171875 66.40625 20.328125 58.90625 
Q 16.5 51.421875 16.5 36.375 
Q 16.5 21.390625 20.328125 13.890625 
Q 24.171875 6.390625 31.78125 6.390625 
Q 39.453125 6.390625 43.28125 13.890625 
Q 47.125 21.390625 47.125 36.375 
Q 47.125 51.421875 43.28125 58.90625 
Q 39.453125 66.40625 31.78125 66.40625 
z
M 31.78125 74.21875 
Q 44.046875 74.21875 50.515625 64.515625 
Q 56.984375 54.828125 56.984375 36.375 
Q 56.984375 17.96875 50.515625 8.265625 
Q 44.046875 -1.421875 31.78125 -1.421875 
Q 19.53125 -1.421875 13.0625 8.265625 
Q 6.59375 17.96875 6.59375 36.375 
Q 6.59375 54.828125 13.0625 64.515625 
Q 19.53125 74.21875 31.78125 74.21875 
z
" id="DejaVuSans-48"/>
       <path d="M 12.40625 8.296875 
L 28.515625 8.296875 
L 28.515625 63.921875 
L 10.984375 60.40625 
L 10.984375 69.390625 
L 28.421875 72.90625 
L 38.28125 72.90625 
L 38.28125 8.296875 
L 54.390625 8.296875 
L 54.390625 0 
L 12.40625 0 
z
" id="DejaVuSans-49"/>
       <path d="M 10.984375 1.515625 
L 10.984375 10.5 
Q 14.703125 8.734375 18.5 7.8125 
Q 22.3125 6.890625 25.984375 6.890625 
Q 35.75 6.890625 40.890625 13.453125 
Q 46.046875 20.015625 46.78125 33.40625 
Q 43.953125 29.203125 39.59375 26.953125 
Q 35.25 24.703125 29.984375 24.703125 
Q 19.046875 24.703125 12.671875 31.3125 
Q 6.296875 37.9375 6.296875 49.421875 
Q 6.296875 60.640625 12.9375 67.421875 
Q 19.578125 74.21875 30.609375 74.21875 
Q 43.265625 74.21875 49.921875 64.515625 
Q 56.59375 54.828125 56.59375 36.375 
Q 56.59375 19.140625 48.40625 8.859375 
Q 40.234375 -1.421875 26.421875 -1.421875 
Q 22.703125 -1.421875 18.890625 -0.6875 
Q 15.09375 0.046875 10.984375 1.515625 
z
M 30.609375 32.421875 
Q 37.25 32.421875 41.125 36.953125 
Q 45.015625 41.5 45.015625 49.421875 
Q 45.015625 57.28125 41.125 61.84375 
Q 37.25 66.40625 30.609375 66.40625 
Q 23.96875 66.40625 20.09375 61.84375 
Q 16.21875 57.28125 16.21875 49.421875 
Q 16.21875 41.5 20.09375 36.953125 
Q 23.96875 32.421875 30.609375 32.421875 
z
" id="DejaVuSans-57"/>
       <path d="M 4.890625 31.390625 
L 31.203125 31.390625 
L 31.203125 23.390625 
L 4.890625 23.390625 
z
" id="DejaVuSans-45"/>
       <path d="M 40.578125 39.3125 
Q 47.65625 37.796875 51.625 33 
Q 55.609375 28.21875 55.609375 21.1875 
Q 55.609375 10.40625 48.1875 4.484375 
Q 40.765625 -1.421875 27.09375 -1.421875 
Q 22.515625 -1.421875 17.65625 -0.515625 
Q 12.796875 0.390625 7.625 2.203125 
L 7.625 11.71875 
Q 11.71875 9.328125 16.59375 8.109375 
Q 21.484375 6.890625 26.8125 6.890625 
Q 36.078125 6.890625 40.9375 10.546875 
Q 45.796875 14.203125 45.796875 21.1875 
Q 45.796875 27.640625 41.28125 31.265625 
Q 36.765625 34.90625 28.71875 34.90625 
L 20.21875 34.90625 
L 20.21875 43.015625 
L 29.109375 43.015625 
Q 36.375 43.015625 40.234375 45.921875 
Q 44.09375 48.828125 44.09375 54.296875 
Q 44.09375 59.90625 40.109375 62.90625 
Q 36.140625 65.921875 28.71875 65.921875 
Q 24.65625 65.921875 20.015625 65.03125 
Q 15.375 64.15625 9.8125 62.3125 
L 9.8125 71.09375 
Q 15.4375 72.65625 20.34375 73.4375 
Q 25.25 74.21875 29.59375 74.21875 
Q 40.828125 74.21875 47.359375 69.109375 
Q 53.90625 64.015625 53.90625 55.328125 
Q 53.90625 49.265625 50.4375 45.09375 
Q 46.96875 40.921875 40.578125 39.3125 
z
" id="DejaVuSans-51"/>
      </defs>
      <g transform="translate(80.742708 404.638438)scale(0.1 -0.1)">
       <use xlink:href="#DejaVuSans-50"/>
       <use x="63.623047" xlink:href="#DejaVuSans-48"/>
       <use x="127.246094" xlink:href="#DejaVuSans-49"/>
       <use x="190.869141" xlink:href="#DejaVuSans-57"/>
       <use x="254.492188" xlink:href="#DejaVuSans-45"/>
       <use x="290.576172" xlink:href="#DejaVuSans-48"/>
       <use x="354.199219" xlink:href="#DejaVuSans-51"/>
       <use x="417.822266" xlink:href="#DejaVuSans-45"/>
       <use x="453.90625" xlink:href="#DejaVuSans-50"/>
       <use x="517.529297" xlink:href="#DejaVuSans-50"/>
      </g>
     </g>
    </g>
    <g id="xtick_2">
     <g id="line2d_3">
      <path clip-path="url(#p2478c26db9)" d="M 210.721659 390.04 
L 210.721659 10.8 
" style="fill:none;stroke:#808080;stroke-linecap:square;stroke-opacity:0.2;"/>
     </g>
     <g id="line2d_4">
      <g>
       <use style="stroke:#000000;stroke-width:0.8;" x="210.721659" xlink:href="#m6c8b4ba65e" y="390.04"/>
      </g>
     </g>
     <g id="text_2">
      <!-- 2019-04-05 -->
      <defs>
       <path d="M 37.796875 64.3125 
L 12.890625 25.390625 
L 37.796875 25.390625 
z
M 35.203125 72.90625 
L 47.609375 72.90625 
L 47.609375 25.390625 
L 58.015625 25.390625 
L 58.015625 17.1875 
L 47.609375 17.1875 
L 47.609375 0 
L 37.796875 0 
L 37.796875 17.1875 
L 4.890625 17.1875 
L 4.890625 26.703125 
z
" id="DejaVuSans-52"/>
       <path d="M 10.796875 72.90625 
L 49.515625 72.90625 
L 49.515625 64.59375 
L 19.828125 64.59375 
L 19.828125 46.734375 
Q 21.96875 47.46875 24.109375 47.828125 
Q 26.265625 48.1875 28.421875 48.1875 
Q 40.625 48.1875 47.75 41.5 
Q 54.890625 34.8125 54.890625 23.390625 
Q 54.890625 11.625 47.5625 5.09375 
Q 40.234375 -1.421875 26.90625 -1.421875 
Q 22.3125 -1.421875 17.546875 -0.640625 
Q 12.796875 0.140625 7.71875 1.703125 
L 7.71875 11.625 
Q 12.109375 9.234375 16.796875 8.0625 
Q 21.484375 6.890625 26.703125 6.890625 
Q 35.15625 6.890625 40.078125 11.328125 
Q 45.015625 15.765625 45.015625 23.390625 
Q 45.015625 31 40.078125 35.4375 
Q 35.15625 39.890625 26.703125 39.890625 
Q 22.75 39.890625 18.8125 39.015625 
Q 14.890625 38.140625 10.796875 36.28125 
z
" id="DejaVuSans-53"/>
      </defs>
      <g transform="translate(181.663847 404.638438)scale(0.1 -0.1)">
       <use xlink:href="#DejaVuSans-50"/>
       <use x="63.623047" xlink:href="#DejaVuSans-48"/>
       <use x="127.246094" xlink:href="#DejaVuSans-49"/>
       <use x="190.869141" xlink:href="#DejaVuSans-57"/>
       <use x="254.492188" xlink:href="#DejaVuSans-45"/>
       <use x="290.576172" xlink:href="#DejaVuSans-48"/>
       <use x="354.199219" xlink:href="#DejaVuSans-52"/>
       <use x="417.822266" xlink:href="#DejaVuSans-45"/>
       <use x="453.90625" xlink:href="#DejaVuSans-48"/>
       <use x="517.529297" xlink:href="#DejaVuSans-53"/>
      </g>
     </g>
    </g>
    <g id="xtick_3">
     <g id="line2d_5">
      <path clip-path="url(#p2478c26db9)" d="M 311.642798 390.04 
L 311.642798 10.8 
" style="fill:none;stroke:#808080;stroke-linecap:square;stroke-opacity:0.2;"/>
     </g>
     <g id="line2d_6">
      <g>
       <use style="stroke:#000000;stroke-width:0.8;" x="311.642798" xlink:href="#m6c8b4ba65e" y="390.04"/>
      </g>
     </g>
     <g id="text_3">
      <!-- 2019-04-19 -->
      <g transform="translate(282.584986 404.638438)scale(0.1 -0.1)">
       <use xlink:href="#DejaVuSans-50"/>
       <use x="63.623047" xlink:href="#DejaVuSans-48"/>
       <use x="127.246094" xlink:href="#DejaVuSans-49"/>
       <use x="190.869141" xlink:href="#DejaVuSans-57"/>
       <use x="254.492188" xlink:href="#DejaVuSans-45"/>
       <use x="290.576172" xlink:href="#DejaVuSans-48"/>
       <use x="354.199219" xlink:href="#DejaVuSans-52"/>
       <use x="417.822266" xlink:href="#DejaVuSans-45"/>
       <use x="453.90625" xlink:href="#DejaVuSans-49"/>
       <use x="517.529297" xlink:href="#DejaVuSans-57"/>
      </g>
     </g>
    </g>
    <g id="xtick_4">
     <g id="line2d_7">
      <path clip-path="url(#p2478c26db9)" d="M 412.563938 390.04 
L 412.563938 10.8 
" style="fill:none;stroke:#808080;stroke-linecap:square;stroke-opacity:0.2;"/>
     </g>
     <g id="line2d_8">
      <g>
       <use style="stroke:#000000;stroke-width:0.8;" x="412.563938" xlink:href="#m6c8b4ba65e" y="390.04"/>
      </g>
     </g>
     <g id="text_4">
      <!-- 2019-05-03 -->
      <g transform="translate(383.506125 404.638438)scale(0.1 -0.1)">
       <use xlink:href="#DejaVuSans-50"/>
       <use x="63.623047" xlink:href="#DejaVuSans-48"/>
       <use x="127.246094" xlink:href="#DejaVuSans-49"/>
       <use x="190.869141" xlink:href="#DejaVuSans-57"/>
       <use x="254.492188" xlink:href="#DejaVuSans-45"/>
       <use x="290.576172" xlink:href="#DejaVuSans-48"/>
       <use x="354.199219" xlink:href="#DejaVuSans-53"/>
       <use x="417.822266" xlink:href="#DejaVuSans-45"/>
       <use x="453.90625" xlink:href="#DejaVuSans-48"/>
       <use x="517.529297" xlink:href="#DejaVuSans-51"/>
      </g>
     </g>
    </g>
    <g id="xtick_5">
     <g id="line2d_9">
      <path clip-path="url(#p2478c26db9)" d="M 513.485077 390.04 
L 513.485077 10.8 
" style="fill:none;stroke:#808080;stroke-linecap:square;stroke-opacity:0.2;"/>
     </g>
     <g id="line2d_10">
      <g>
       <use style="stroke:#000000;stroke-width:0.8;" x="513.485077" xlink:href="#m6c8b4ba65e" y="390.04"/>
      </g>
     </g>
     <g id="text_5">
      <!-- 2019-05-17 -->
      <defs>
       <path d="M 8.203125 72.90625 
L 55.078125 72.90625 
L 55.078125 68.703125 
L 28.609375 0 
L 18.3125 0 
L 43.21875 64.59375 
L 8.203125 64.59375 
z
" id="DejaVuSans-55"/>
      </defs>
      <g transform="translate(484.427264 404.638438)scale(0.1 -0.1)">
       <use xlink:href="#DejaVuSans-50"/>
       <use x="63.623047" xlink:href="#DejaVuSans-48"/>
       <use x="127.246094" xlink:href="#DejaVuSans-49"/>
       <use x="190.869141" xlink:href="#DejaVuSans-57"/>
       <use x="254.492188" xlink:href="#DejaVuSans-45"/>
       <use x="290.576172" xlink:href="#DejaVuSans-48"/>
       <use x="354.199219" xlink:href="#DejaVuSans-53"/>
       <use x="417.822266" xlink:href="#DejaVuSans-45"/>
       <use x="453.90625" xlink:href="#DejaVuSans-49"/>
       <use x="517.529297" xlink:href="#DejaVuSans-55"/>
      </g>
     </g>
    </g>
    <g id="xtick_6">
     <g id="line2d_11">
      <path clip-path="url(#p2478c26db9)" d="M 614.406216 390.04 
L 614.406216 10.8 
" style="fill:none;stroke:#808080;stroke-linecap:square;stroke-opacity:0.2;"/>
     </g>
     <g id="line2d_12">
      <g>
       <use style="stroke:#000000;stroke-width:0.8;" x="614.406216" xlink:href="#m6c8b4ba65e" y="390.04"/>
      </g>
     </g>
     <g id="text_6">
      <!-- 2019-05-31 -->
      <g transform="translate(585.348403 404.638438)scale(0.1 -0.1)">
       <use xlink:href="#DejaVuSans-50"/>
       <use x="63.623047" xlink:href="#DejaVuSans-48"/>
       <use x="127.246094" xlink:href="#DejaVuSans-49"/>
       <use x="190.869141" xlink:href="#DejaVuSans-57"/>
       <use x="254.492188" xlink:href="#DejaVuSans-45"/>
       <use x="290.576172" xlink:href="#DejaVuSans-48"/>
       <use x="354.199219" xlink:href="#DejaVuSans-53"/>
       <use x="417.822266" xlink:href="#DejaVuSans-45"/>
       <use x="453.90625" xlink:href="#DejaVuSans-51"/>
       <use x="517.529297" xlink:href="#DejaVuSans-49"/>
      </g>
     </g>
    </g>
    <g id="text_7">
     <!-- ds -->
     <defs>
      <path d="M 45.40625 46.390625 
L 45.40625 75.984375 
L 54.390625 75.984375 
L 54.390625 0 
L 45.40625 0 
L 45.40625 8.203125 
Q 42.578125 3.328125 38.25 0.953125 
Q 33.9375 -1.421875 27.875 -1.421875 
Q 17.96875 -1.421875 11.734375 6.484375 
Q 5.515625 14.40625 5.515625 27.296875 
Q 5.515625 40.1875 11.734375 48.09375 
Q 17.96875 56 27.875 56 
Q 33.9375 56 38.25 53.625 
Q 42.578125 51.265625 45.40625 46.390625 
z
M 14.796875 27.296875 
Q 14.796875 17.390625 18.875 11.75 
Q 22.953125 6.109375 30.078125 6.109375 
Q 37.203125 6.109375 41.296875 11.75 
Q 45.40625 17.390625 45.40625 27.296875 
Q 45.40625 37.203125 41.296875 42.84375 
Q 37.203125 48.484375 30.078125 48.484375 
Q 22.953125 48.484375 18.875 42.84375 
Q 14.796875 37.203125 14.796875 27.296875 
z
" id="DejaVuSans-100"/>
      <path d="M 44.28125 53.078125 
L 44.28125 44.578125 
Q 40.484375 46.53125 36.375 47.5 
Q 32.28125 48.484375 27.875 48.484375 
Q 21.1875 48.484375 17.84375 46.4375 
Q 14.5 44.390625 14.5 40.28125 
Q 14.5 37.15625 16.890625 35.375 
Q 19.28125 33.59375 26.515625 31.984375 
L 29.59375 31.296875 
Q 39.15625 29.25 43.1875 25.515625 
Q 47.21875 21.78125 47.21875 15.09375 
Q 47.21875 7.46875 41.1875 3.015625 
Q 35.15625 -1.421875 24.609375 -1.421875 
Q 20.21875 -1.421875 15.453125 -0.5625 
Q 10.6875 0.296875 5.421875 2 
L 5.421875 11.28125 
Q 10.40625 8.6875 15.234375 7.390625 
Q 20.0625 6.109375 24.8125 6.109375 
Q 31.15625 6.109375 34.5625 8.28125 
Q 37.984375 10.453125 37.984375 14.40625 
Q 37.984375 18.0625 35.515625 20.015625 
Q 33.0625 21.96875 24.703125 23.78125 
L 21.578125 24.515625 
Q 13.234375 26.265625 9.515625 29.90625 
Q 5.8125 33.546875 5.8125 39.890625 
Q 5.8125 47.609375 11.28125 51.796875 
Q 16.75 56 26.8125 56 
Q 31.78125 56 36.171875 55.265625 
Q 40.578125 54.546875 44.28125 53.078125 
z
" id="DejaVuSans-115"/>
     </defs>
     <g transform="translate(374.346094 418.316562)scale(0.1 -0.1)">
      <use xlink:href="#DejaVuSans-100"/>
      <use x="63.476562" xlink:href="#DejaVuSans-115"/>
     </g>
    </g>
   </g>
   <g id="matplotlib.axis_2">
    <g id="ytick_1">
     <g id="line2d_13">
      <path clip-path="url(#p2478c26db9)" d="M 51.05 371.404588 
L 709.2 371.404588 
" style="fill:none;stroke:#808080;stroke-linecap:square;stroke-opacity:0.2;"/>
     </g>
     <g id="line2d_14">
      <defs>
       <path d="M 0 0 
L -3.5 0 
" id="m5ecf8492a5" style="stroke:#000000;stroke-width:0.8;"/>
      </defs>
      <g>
       <use style="stroke:#000000;stroke-width:0.8;" x="51.05" xlink:href="#m5ecf8492a5" y="371.404588"/>
      </g>
     </g>
     <g id="text_8">
      <!-- 100 -->
      <g transform="translate(24.9625 375.203807)scale(0.1 -0.1)">
       <use xlink:href="#DejaVuSans-49"/>
       <use x="63.623047" xlink:href="#DejaVuSans-48"/>
       <use x="127.246094" xlink:href="#DejaVuSans-48"/>
      </g>
     </g>
    </g>
    <g id="ytick_2">
     <g id="line2d_15">
      <path clip-path="url(#p2478c26db9)" d="M 51.05 299.277127 
L 709.2 299.277127 
" style="fill:none;stroke:#808080;stroke-linecap:square;stroke-opacity:0.2;"/>
     </g>
     <g id="line2d_16">
      <g>
       <use style="stroke:#000000;stroke-width:0.8;" x="51.05" xlink:href="#m5ecf8492a5" y="299.277127"/>
      </g>
     </g>
     <g id="text_9">
      <!-- 110 -->
      <g transform="translate(24.9625 303.076345)scale(0.1 -0.1)">
       <use xlink:href="#DejaVuSans-49"/>
       <use x="63.623047" xlink:href="#DejaVuSans-49"/>
       <use x="127.246094" xlink:href="#DejaVuSans-48"/>
      </g>
     </g>
    </g>
    <g id="ytick_3">
     <g id="line2d_17">
      <path clip-path="url(#p2478c26db9)" d="M 51.05 227.149665 
L 709.2 227.149665 
" style="fill:none;stroke:#808080;stroke-linecap:square;stroke-opacity:0.2;"/>
     </g>
     <g id="line2d_18">
      <g>
       <use style="stroke:#000000;stroke-width:0.8;" x="51.05" xlink:href="#m5ecf8492a5" y="227.149665"/>
      </g>
     </g>
     <g id="text_10">
      <!-- 120 -->
      <g transform="translate(24.9625 230.948883)scale(0.1 -0.1)">
       <use xlink:href="#DejaVuSans-49"/>
       <use x="63.623047" xlink:href="#DejaVuSans-50"/>
       <use x="127.246094" xlink:href="#DejaVuSans-48"/>
      </g>
     </g>
    </g>
    <g id="ytick_4">
     <g id="line2d_19">
      <path clip-path="url(#p2478c26db9)" d="M 51.05 155.022203 
L 709.2 155.022203 
" style="fill:none;stroke:#808080;stroke-linecap:square;stroke-opacity:0.2;"/>
     </g>
     <g id="line2d_20">
      <g>
       <use style="stroke:#000000;stroke-width:0.8;" x="51.05" xlink:href="#m5ecf8492a5" y="155.022203"/>
      </g>
     </g>
     <g id="text_11">
      <!-- 130 -->
      <g transform="translate(24.9625 158.821421)scale(0.1 -0.1)">
       <use xlink:href="#DejaVuSans-49"/>
       <use x="63.623047" xlink:href="#DejaVuSans-51"/>
       <use x="127.246094" xlink:href="#DejaVuSans-48"/>
      </g>
     </g>
    </g>
    <g id="ytick_5">
     <g id="line2d_21">
      <path clip-path="url(#p2478c26db9)" d="M 51.05 82.894741 
L 709.2 82.894741 
" style="fill:none;stroke:#808080;stroke-linecap:square;stroke-opacity:0.2;"/>
     </g>
     <g id="line2d_22">
      <g>
       <use style="stroke:#000000;stroke-width:0.8;" x="51.05" xlink:href="#m5ecf8492a5" y="82.894741"/>
      </g>
     </g>
     <g id="text_12">
      <!-- 140 -->
      <g transform="translate(24.9625 86.693959)scale(0.1 -0.1)">
       <use xlink:href="#DejaVuSans-49"/>
       <use x="63.623047" xlink:href="#DejaVuSans-52"/>
       <use x="127.246094" xlink:href="#DejaVuSans-48"/>
      </g>
     </g>
    </g>
    <g id="text_13">
     <!-- y -->
     <defs>
      <path d="M 32.171875 -5.078125 
Q 28.375 -14.84375 24.75 -17.8125 
Q 21.140625 -20.796875 15.09375 -20.796875 
L 7.90625 -20.796875 
L 7.90625 -13.28125 
L 13.1875 -13.28125 
Q 16.890625 -13.28125 18.9375 -11.515625 
Q 21 -9.765625 23.484375 -3.21875 
L 25.09375 0.875 
L 2.984375 54.6875 
L 12.5 54.6875 
L 29.59375 11.921875 
L 46.6875 54.6875 
L 56.203125 54.6875 
z
" id="DejaVuSans-121"/>
     </defs>
     <g transform="translate(18.882812 203.379375)rotate(-90)scale(0.1 -0.1)">
      <use xlink:href="#DejaVuSans-121"/>
     </g>
    </g>
   </g>
   <g id="line2d_23">
    <defs>
     <path d="M 0 1.5 
C 0.397805 1.5 0.77937 1.341951 1.06066 1.06066 
C 1.341951 0.77937 1.5 0.397805 1.5 0 
C 1.5 -0.397805 1.341951 -0.77937 1.06066 -1.06066 
C 0.77937 -1.341951 0.397805 -1.5 0 -1.5 
C -0.397805 -1.5 -0.77937 -1.341951 -1.06066 -1.06066 
C -1.341951 -0.77937 -1.5 -0.397805 -1.5 0 
C -1.5 0.397805 -1.341951 0.77937 -1.06066 1.06066 
C -0.77937 1.341951 -0.397805 1.5 0 1.5 
z
" id="m5e80672cdf" style="stroke:#000000;"/>
    </defs>
    <g clip-path="url(#p2478c26db9)">
     <use style="stroke:#000000;" x="80.965909" xlink:href="#m5e80672cdf" y="39.618263"/>
     <use style="stroke:#000000;" x="88.174562" xlink:href="#m5e80672cdf" y="90.107487"/>
     <use style="stroke:#000000;" x="109.80052" xlink:href="#m5e80672cdf" y="90.107487"/>
     <use style="stroke:#000000;" x="124.217826" xlink:href="#m5e80672cdf" y="111.745725"/>
     <use style="stroke:#000000;" x="131.426479" xlink:href="#m5e80672cdf" y="162.234949"/>
     <use style="stroke:#000000;" x="145.843784" xlink:href="#m5e80672cdf" y="155.022203"/>
     <use style="stroke:#000000;" x="167.469743" xlink:href="#m5e80672cdf" y="111.745725"/>
     <use style="stroke:#000000;" x="174.678395" xlink:href="#m5e80672cdf" y="169.447695"/>
     <use style="stroke:#000000;" x="189.095701" xlink:href="#m5e80672cdf" y="147.809456"/>
     <use style="stroke:#000000;" x="196.304354" xlink:href="#m5e80672cdf" y="198.29868"/>
     <use style="stroke:#000000;" x="210.721659" xlink:href="#m5e80672cdf" y="169.447695"/>
     <use style="stroke:#000000;" x="217.930312" xlink:href="#m5e80672cdf" y="169.447695"/>
     <use style="stroke:#000000;" x="232.347618" xlink:href="#m5e80672cdf" y="212.724172"/>
     <use style="stroke:#000000;" x="239.556271" xlink:href="#m5e80672cdf" y="248.787903"/>
     <use style="stroke:#000000;" x="253.973576" xlink:href="#m5e80672cdf" y="241.575157"/>
     <use style="stroke:#000000;" x="261.182229" xlink:href="#m5e80672cdf" y="277.638888"/>
     <use style="stroke:#000000;" x="275.599535" xlink:href="#m5e80672cdf" y="270.426142"/>
     <use style="stroke:#000000;" x="282.808187" xlink:href="#m5e80672cdf" y="306.489873"/>
     <use style="stroke:#000000;" x="297.225493" xlink:href="#m5e80672cdf" y="234.362411"/>
     <use style="stroke:#000000;" x="318.851451" xlink:href="#m5e80672cdf" y="364.191842"/>
     <use style="stroke:#000000;" x="326.060104" xlink:href="#m5e80672cdf" y="356.979096"/>
     <use style="stroke:#000000;" x="340.47741" xlink:href="#m5e80672cdf" y="349.76635"/>
     <use style="stroke:#000000;" x="347.686062" xlink:href="#m5e80672cdf" y="335.340857"/>
     <use style="stroke:#000000;" x="362.103368" xlink:href="#m5e80672cdf" y="349.76635"/>
     <use style="stroke:#000000;" x="369.312021" xlink:href="#m5e80672cdf" y="284.851634"/>
     <use style="stroke:#000000;" x="383.729326" xlink:href="#m5e80672cdf" y="313.702619"/>
     <use style="stroke:#000000;" x="390.937979" xlink:href="#m5e80672cdf" y="292.06438"/>
     <use style="stroke:#000000;" x="405.355285" xlink:href="#m5e80672cdf" y="234.362411"/>
     <use style="stroke:#000000;" x="412.563938" xlink:href="#m5e80672cdf" y="270.426142"/>
     <use style="stroke:#000000;" x="426.981243" xlink:href="#m5e80672cdf" y="342.553604"/>
     <use style="stroke:#000000;" x="434.189896" xlink:href="#m5e80672cdf" y="349.76635"/>
     <use style="stroke:#000000;" x="448.607202" xlink:href="#m5e80672cdf" y="227.149665"/>
     <use style="stroke:#000000;" x="455.815854" xlink:href="#m5e80672cdf" y="183.873187"/>
     <use style="stroke:#000000;" x="470.23316" xlink:href="#m5e80672cdf" y="292.06438"/>
     <use style="stroke:#000000;" x="477.441813" xlink:href="#m5e80672cdf" y="263.213396"/>
     <use style="stroke:#000000;" x="491.859118" xlink:href="#m5e80672cdf" y="219.936918"/>
     <use style="stroke:#000000;" x="499.067771" xlink:href="#m5e80672cdf" y="284.851634"/>
     <use style="stroke:#000000;" x="513.485077" xlink:href="#m5e80672cdf" y="277.638888"/>
     <use style="stroke:#000000;" x="520.693729" xlink:href="#m5e80672cdf" y="176.660441"/>
     <use style="stroke:#000000;" x="542.319688" xlink:href="#m5e80672cdf" y="227.149665"/>
     <use style="stroke:#000000;" x="556.736993" xlink:href="#m5e80672cdf" y="292.06438"/>
     <use style="stroke:#000000;" x="563.945646" xlink:href="#m5e80672cdf" y="227.149665"/>
     <use style="stroke:#000000;" x="578.362952" xlink:href="#m5e80672cdf" y="61.256502"/>
     <use style="stroke:#000000;" x="599.98891" xlink:href="#m5e80672cdf" y="277.638888"/>
     <use style="stroke:#000000;" x="607.197563" xlink:href="#m5e80672cdf" y="104.532979"/>
     <use style="stroke:#000000;" x="621.614869" xlink:href="#m5e80672cdf" y="219.936918"/>
     <use style="stroke:#000000;" x="628.823521" xlink:href="#m5e80672cdf" y="147.809456"/>
     <use style="stroke:#000000;" x="643.240827" xlink:href="#m5e80672cdf" y="248.787903"/>
     <use style="stroke:#000000;" x="650.44948" xlink:href="#m5e80672cdf" y="212.724172"/>
     <use style="stroke:#000000;" x="664.866785" xlink:href="#m5e80672cdf" y="162.234949"/>
     <use style="stroke:#000000;" x="672.075438" xlink:href="#m5e80672cdf" y="234.362411"/>
    </g>
   </g>
   <g id="line2d_24">
    <path clip-path="url(#p2478c26db9)" d="M 80.965909 96.650238 
L 88.174562 87.890228 
L 109.80052 105.129678 
L 124.217826 105.016932 
L 131.426479 144.721346 
L 145.843784 146.522033 
L 167.469743 155.240612 
L 174.678395 153.088041 
L 189.095701 184.032444 
L 196.304354 194.593142 
L 210.721659 201.271895 
L 217.930312 203.31172 
L 232.347618 240.863563 
L 239.556271 232.103471 
L 253.973576 203.090317 
L 261.182229 249.342556 
L 275.599535 249.229404 
L 282.808187 288.932189 
L 297.225493 290.726798 
L 318.851451 299.43626 
L 326.060104 291.774543 
L 340.47741 311.685641 
L 347.686062 316.729685 
L 362.103368 304.521646 
L 369.312021 297.111218 
L 383.729326 315.762553 
L 390.937979 297.547039 
L 405.355285 249.623039 
L 412.563938 286.418323 
L 426.981243 267.387654 
L 434.189896 297.633106 
L 448.607202 280.511368 
L 455.815854 231.476384 
L 470.23316 260.846056 
L 477.441813 249.232188 
L 491.859118 261.253997 
L 499.067771 262.353397 
L 513.485077 250.109556 
L 520.693729 242.688085 
L 542.319688 243.096026 
L 556.736993 195.160441 
L 563.945646 231.951585 
L 578.362952 212.916245 
L 599.98891 226.037454 
L 607.197563 177.00247 
L 621.614869 206.372142 
L 628.823521 194.758273 
L 643.240827 206.780083 
L 650.44948 207.879483 
L 664.866785 195.635642 
L 672.075438 188.21417 
L 679.284091 176.600302 
" style="fill:none;stroke:#0072b2;stroke-linecap:square;stroke-width:1.5;"/>
   </g>
   <g id="patch_3">
    <path d="M 51.05 390.04 
L 51.05 10.8 
" style="fill:none;stroke:#000000;stroke-linecap:square;stroke-linejoin:miter;stroke-width:0.8;"/>
   </g>
   <g id="patch_4">
    <path d="M 709.2 390.04 
L 709.2 10.8 
" style="fill:none;stroke:#000000;stroke-linecap:square;stroke-linejoin:miter;stroke-width:0.8;"/>
   </g>
   <g id="patch_5">
    <path d="M 51.05 390.04 
L 709.2 390.04 
" style="fill:none;stroke:#000000;stroke-linecap:square;stroke-linejoin:miter;stroke-width:0.8;"/>
   </g>
   <g id="patch_6">
    <path d="M 51.05 10.8 
L 709.2 10.8 
" style="fill:none;stroke:#000000;stroke-linecap:square;stroke-linejoin:miter;stroke-width:0.8;"/>
   </g>
  </g>
 </g>
 <defs>
  <clipPath id="p2478c26db9">
   <rect height="379.24" width="658.15" x="51.05" y="10.8"/>
  </clipPath>
 </defs>
</svg>
