<?xml version="1.0" encoding="utf-8" standalone="no"?>
<!DOCTYPE svg PUBLIC "-//W3C//DTD SVG 1.1//EN"
  "http://www.w3.org/Graphics/SVG/1.1/DTD/svg11.dtd">
<!-- Created with matplotlib (https://matplotlib.org/) -->
<svg height="432pt" version="1.1" viewBox="0 0 720 432" width="720pt" xmlns="http://www.w3.org/2000/svg" xmlns:xlink="http://www.w3.org/1999/xlink">
 <defs>
  <style type="text/css">
*{stroke-linecap:butt;stroke-linejoin:round;}
  </style>
 </defs>
 <g id="figure_1">
  <g id="patch_1">
   <path d="M 0 432 
L 720 432 
L 720 0 
L 0 0 
z
" style="fill:#ffffff;"/>
  </g>
  <g id="axes_1">
   <g id="patch_2">
    <path d="M 51.05 390.04 
L 693.121131 390.04 
L 693.121131 10.8 
L 51.05 10.8 
z
" style="fill:#ffffff;"/>
   </g>
   <g id="PolyCollection_1">
    <defs>
     <path d="M 80.235051 -338.831995 
L 80.235051 -201.741934 
L 94.471662 -204.478175 
L 101.589967 -195.391087 
L 115.826577 -219.886703 
L 122.944883 -206.633815 
L 137.181493 -249.939013 
L 144.299798 -212.541342 
L 158.536409 -220.511914 
L 165.654714 -223.333386 
L 179.891324 -205.194954 
L 187.00963 -255.351824 
L 208.364545 -218.260502 
L 222.601156 -201.679702 
L 229.719461 -210.766193 
L 243.956071 -211.55155 
L 265.310987 -225.859763 
L 272.429292 -209.099622 
L 286.665903 -254.91529 
L 293.784208 -211.251705 
L 308.020818 -219.461015 
L 315.139124 -221.744483 
L 329.375734 -213.109869 
L 336.494039 -256.254777 
L 350.73065 -197.412918 
L 357.848955 -217.855313 
L 372.085565 -192.779978 
L 379.203871 -197.065958 
L 393.440481 -185.131307 
L 414.795397 -190.224586 
L 421.913702 -177.990508 
L 436.150312 -216.770442 
L 443.268618 -170.054683 
L 457.505228 -173.923875 
L 464.623533 -175.232474 
L 478.860144 -154.687363 
L 485.978449 -194.917126 
L 500.215059 -134.002938 
L 507.333365 -154.096894 
L 521.569975 -129.285943 
L 528.68828 -133.789068 
L 542.924891 -125.366012 
L 550.043196 -113.274364 
L 564.279806 -131.040461 
L 571.398112 -113.262178 
L 585.634722 -153.273302 
L 592.753027 -106.34653 
L 606.989638 -112.636619 
L 614.107943 -105.408616 
L 635.462859 -135.958109 
L 649.699469 -63.755552 
L 656.817774 -92.509729 
L 663.936079 -86.584917 
L 663.936079 -218.986726 
L 663.936079 -218.986726 
L 656.817774 -234.226623 
L 649.699469 -202.355472 
L 635.462859 -264.489536 
L 614.107943 -239.74521 
L 606.989638 -245.677999 
L 592.753027 -239.954966 
L 585.634722 -289.507848 
L 571.398112 -239.370978 
L 564.279806 -265.227782 
L 550.043196 -237.698577 
L 542.924891 -260.203519 
L 528.68828 -264.042067 
L 521.569975 -259.80605 
L 507.333365 -285.397936 
L 500.215059 -259.00581 
L 485.978449 -332.572997 
L 478.860144 -287.568435 
L 464.623533 -309.870346 
L 457.505228 -310.161858 
L 443.268618 -301.499212 
L 436.150312 -352.785602 
L 421.913702 -307.518214 
L 414.795397 -320.860714 
L 393.440481 -322.362204 
L 379.203871 -330.936981 
L 372.085565 -321.77135 
L 357.848955 -349.693939 
L 350.73065 -331.198282 
L 336.494039 -389.597843 
L 329.375734 -346.000598 
L 315.139124 -360.842985 
L 308.020818 -357.114461 
L 293.784208 -348.057472 
L 286.665903 -388.95196 
L 272.429292 -341.347027 
L 265.310987 -361.454225 
L 243.956071 -343.457324 
L 229.719461 -340.962705 
L 222.601156 -338.379851 
L 208.364545 -355.333618 
L 187.00963 -383.706983 
L 179.891324 -346.102194 
L 165.654714 -358.522728 
L 158.536409 -350.587173 
L 144.299798 -341.627581 
L 137.181493 -383.604641 
L 122.944883 -338.930183 
L 115.826577 -351.298606 
L 101.589967 -324.598544 
L 94.471662 -339.556335 
L 80.235051 -338.831995 
z
" id="m5de1d799b5" style="stroke:#0072b2;stroke-opacity:0.2;"/>
    </defs>
    <g clip-path="url(#pd9b4b359c0)">
     <use style="fill:#0072b2;fill-opacity:0.2;stroke:#0072b2;stroke-opacity:0.2;" x="0" xlink:href="#m5de1d799b5" y="432"/>
    </g>
   </g>
   <g id="matplotlib.axis_1">
    <g id="xtick_1">
     <g id="line2d_1">
      <path clip-path="url(#pd9b4b359c0)" d="M 80.235051 390.04 
L 80.235051 10.8 
" style="fill:none;stroke:#808080;stroke-linecap:square;stroke-opacity:0.2;"/>
     </g>
     <g id="line2d_2">
      <defs>
       <path d="M 0 0 
L 0 3.5 
" id="mbf300b19d1" style="stroke:#000000;stroke-width:0.8;"/>
      </defs>
      <g>
       <use style="stroke:#000000;stroke-width:0.8;" x="80.235051" xlink:href="#mbf300b19d1" y="390.04"/>
      </g>
     </g>
     <g id="text_1">
      <!-- 2019-03-04 -->
      <defs>
       <path d="M 19.1875 8.296875 
L 53.609375 8.296875 
L 53.609375 0 
L 7.328125 0 
L 7.328125 8.296875 
Q 12.9375 14.109375 22.625 23.890625 
Q 32.328125 33.6875 34.8125 36.53125 
Q 39.546875 41.84375 41.421875 45.53125 
Q 43.3125 49.21875 43.3125 52.78125 
Q 43.3125 58.59375 39.234375 62.25 
Q 35.15625 65.921875 28.609375 65.921875 
Q 23.96875 65.921875 18.8125 64.3125 
Q 13.671875 62.703125 7.8125 59.421875 
L 7.8125 69.390625 
Q 13.765625 71.78125 18.9375 73 
Q 24.125 74.21875 28.421875 74.21875 
Q 39.75 74.21875 46.484375 68.546875 
Q 53.21875 62.890625 53.21875 53.421875 
Q 53.21875 48.921875 51.53125 44.890625 
Q 49.859375 40.875 45.40625 35.40625 
Q 44.1875 33.984375 37.640625 27.21875 
Q 31.109375 20.453125 19.1875 8.296875 
z
" id="DejaVuSans-50"/>
       <path d="M 31.78125 66.40625 
Q 24.171875 66.40625 20.328125 58.90625 
Q 16.5 51.421875 16.5 36.375 
Q 16.5 21.390625 20.328125 13.890625 
Q 24.171875 6.390625 31.78125 6.390625 
Q 39.453125 6.390625 43.28125 13.890625 
Q 47.125 21.390625 47.125 36.375 
Q 47.125 51.421875 43.28125 58.90625 
Q 39.453125 66.40625 31.78125 66.40625 
z
M 31.78125 74.21875 
Q 44.046875 74.21875 50.515625 64.515625 
Q 56.984375 54.828125 56.984375 36.375 
Q 56.984375 17.96875 50.515625 8.265625 
Q 44.046875 -1.421875 31.78125 -1.421875 
Q 19.53125 -1.421875 13.0625 8.265625 
Q 6.59375 17.96875 6.59375 36.375 
Q 6.59375 54.828125 13.0625 64.515625 
Q 19.53125 74.21875 31.78125 74.21875 
z
" id="DejaVuSans-48"/>
       <path d="M 12.40625 8.296875 
L 28.515625 8.296875 
L 28.515625 63.921875 
L 10.984375 60.40625 
L 10.984375 69.390625 
L 28.421875 72.90625 
L 38.28125 72.90625 
L 38.28125 8.296875 
L 54.390625 8.296875 
L 54.390625 0 
L 12.40625 0 
z
" id="DejaVuSans-49"/>
       <path d="M 10.984375 1.515625 
L 10.984375 10.5 
Q 14.703125 8.734375 18.5 7.8125 
Q 22.3125 6.890625 25.984375 6.890625 
Q 35.75 6.890625 40.890625 13.453125 
Q 46.046875 20.015625 46.78125 33.40625 
Q 43.953125 29.203125 39.59375 26.953125 
Q 35.25 24.703125 29.984375 24.703125 
Q 19.046875 24.703125 12.671875 31.3125 
Q 6.296875 37.9375 6.296875 49.421875 
Q 6.296875 60.640625 12.9375 67.421875 
Q 19.578125 74.21875 30.609375 74.21875 
Q 43.265625 74.21875 49.921875 64.515625 
Q 56.59375 54.828125 56.59375 36.375 
Q 56.59375 19.140625 48.40625 8.859375 
Q 40.234375 -1.421875 26.421875 -1.421875 
Q 22.703125 -1.421875 18.890625 -0.6875 
Q 15.09375 0.046875 10.984375 1.515625 
z
M 30.609375 32.421875 
Q 37.25 32.421875 41.125 36.953125 
Q 45.015625 41.5 45.015625 49.421875 
Q 45.015625 57.28125 41.125 61.84375 
Q 37.25 66.40625 30.609375 66.40625 
Q 23.96875 66.40625 20.09375 61.84375 
Q 16.21875 57.28125 16.21875 49.421875 
Q 16.21875 41.5 20.09375 36.953125 
Q 23.96875 32.421875 30.609375 32.421875 
z
" id="DejaVuSans-57"/>
       <path d="M 4.890625 31.390625 
L 31.203125 31.390625 
L 31.203125 23.390625 
L 4.890625 23.390625 
z
" id="DejaVuSans-45"/>
       <path d="M 40.578125 39.3125 
Q 47.65625 37.796875 51.625 33 
Q 55.609375 28.21875 55.609375 21.1875 
Q 55.609375 10.40625 48.1875 4.484375 
Q 40.765625 -1.421875 27.09375 -1.421875 
Q 22.515625 -1.421875 17.65625 -0.515625 
Q 12.796875 0.390625 7.625 2.203125 
L 7.625 11.71875 
Q 11.71875 9.328125 16.59375 8.109375 
Q 21.484375 6.890625 26.8125 6.890625 
Q 36.078125 6.890625 40.9375 10.546875 
Q 45.796875 14.203125 45.796875 21.1875 
Q 45.796875 27.640625 41.28125 31.265625 
Q 36.765625 34.90625 28.71875 34.90625 
L 20.21875 34.90625 
L 20.21875 43.015625 
L 29.109375 43.015625 
Q 36.375 43.015625 40.234375 45.921875 
Q 44.09375 48.828125 44.09375 54.296875 
Q 44.09375 59.90625 40.109375 62.90625 
Q 36.140625 65.921875 28.71875 65.921875 
Q 24.65625 65.921875 20.015625 65.03125 
Q 15.375 64.15625 9.8125 62.3125 
L 9.8125 71.09375 
Q 15.4375 72.65625 20.34375 73.4375 
Q 25.25 74.21875 29.59375 74.21875 
Q 40.828125 74.21875 47.359375 69.109375 
Q 53.90625 64.015625 53.90625 55.328125 
Q 53.90625 49.265625 50.4375 45.09375 
Q 46.96875 40.921875 40.578125 39.3125 
z
" id="DejaVuSans-51"/>
       <path d="M 37.796875 64.3125 
L 12.890625 25.390625 
L 37.796875 25.390625 
z
M 35.203125 72.90625 
L 47.609375 72.90625 
L 47.609375 25.390625 
L 58.015625 25.390625 
L 58.015625 17.1875 
L 47.609375 17.1875 
L 47.609375 0 
L 37.796875 0 
L 37.796875 17.1875 
L 4.890625 17.1875 
L 4.890625 26.703125 
z
" id="DejaVuSans-52"/>
      </defs>
      <g transform="translate(51.177239 404.638438)scale(0.1 -0.1)">
       <use xlink:href="#DejaVuSans-50"/>
       <use x="63.623047" xlink:href="#DejaVuSans-48"/>
       <use x="127.246094" xlink:href="#DejaVuSans-49"/>
       <use x="190.869141" xlink:href="#DejaVuSans-57"/>
       <use x="254.492188" xlink:href="#DejaVuSans-45"/>
       <use x="290.576172" xlink:href="#DejaVuSans-48"/>
       <use x="354.199219" xlink:href="#DejaVuSans-51"/>
       <use x="417.822266" xlink:href="#DejaVuSans-45"/>
       <use x="453.90625" xlink:href="#DejaVuSans-48"/>
       <use x="517.529297" xlink:href="#DejaVuSans-52"/>
      </g>
     </g>
    </g>
    <g id="xtick_2">
     <g id="line2d_3">
      <path clip-path="url(#pd9b4b359c0)" d="M 179.891324 390.04 
L 179.891324 10.8 
" style="fill:none;stroke:#808080;stroke-linecap:square;stroke-opacity:0.2;"/>
     </g>
     <g id="line2d_4">
      <g>
       <use style="stroke:#000000;stroke-width:0.8;" x="179.891324" xlink:href="#mbf300b19d1" y="390.04"/>
      </g>
     </g>
     <g id="text_2">
      <!-- 2019-03-18 -->
      <defs>
       <path d="M 31.78125 34.625 
Q 24.75 34.625 20.71875 30.859375 
Q 16.703125 27.09375 16.703125 20.515625 
Q 16.703125 13.921875 20.71875 10.15625 
Q 24.75 6.390625 31.78125 6.390625 
Q 38.8125 6.390625 42.859375 10.171875 
Q 46.921875 13.96875 46.921875 20.515625 
Q 46.921875 27.09375 42.890625 30.859375 
Q 38.875 34.625 31.78125 34.625 
z
M 21.921875 38.8125 
Q 15.578125 40.375 12.03125 44.71875 
Q 8.5 49.078125 8.5 55.328125 
Q 8.5 64.0625 14.71875 69.140625 
Q 20.953125 74.21875 31.78125 74.21875 
Q 42.671875 74.21875 48.875 69.140625 
Q 55.078125 64.0625 55.078125 55.328125 
Q 55.078125 49.078125 51.53125 44.71875 
Q 48 40.375 41.703125 38.8125 
Q 48.828125 37.15625 52.796875 32.3125 
Q 56.78125 27.484375 56.78125 20.515625 
Q 56.78125 9.90625 50.3125 4.234375 
Q 43.84375 -1.421875 31.78125 -1.421875 
Q 19.734375 -1.421875 13.25 4.234375 
Q 6.78125 9.90625 6.78125 20.515625 
Q 6.78125 27.484375 10.78125 32.3125 
Q 14.796875 37.15625 21.921875 38.8125 
z
M 18.3125 54.390625 
Q 18.3125 48.734375 21.84375 45.5625 
Q 25.390625 42.390625 31.78125 42.390625 
Q 38.140625 42.390625 41.71875 45.5625 
Q 45.3125 48.734375 45.3125 54.390625 
Q 45.3125 60.0625 41.71875 63.234375 
Q 38.140625 66.40625 31.78125 66.40625 
Q 25.390625 66.40625 21.84375 63.234375 
Q 18.3125 60.0625 18.3125 54.390625 
z
" id="DejaVuSans-56"/>
      </defs>
      <g transform="translate(150.833512 404.638438)scale(0.1 -0.1)">
       <use xlink:href="#DejaVuSans-50"/>
       <use x="63.623047" xlink:href="#DejaVuSans-48"/>
       <use x="127.246094" xlink:href="#DejaVuSans-49"/>
       <use x="190.869141" xlink:href="#DejaVuSans-57"/>
       <use x="254.492188" xlink:href="#DejaVuSans-45"/>
       <use x="290.576172" xlink:href="#DejaVuSans-48"/>
       <use x="354.199219" xlink:href="#DejaVuSans-51"/>
       <use x="417.822266" xlink:href="#DejaVuSans-45"/>
       <use x="453.90625" xlink:href="#DejaVuSans-49"/>
       <use x="517.529297" xlink:href="#DejaVuSans-56"/>
      </g>
     </g>
    </g>
    <g id="xtick_3">
     <g id="line2d_5">
      <path clip-path="url(#pd9b4b359c0)" d="M 279.547598 390.04 
L 279.547598 10.8 
" style="fill:none;stroke:#808080;stroke-linecap:square;stroke-opacity:0.2;"/>
     </g>
     <g id="line2d_6">
      <g>
       <use style="stroke:#000000;stroke-width:0.8;" x="279.547598" xlink:href="#mbf300b19d1" y="390.04"/>
      </g>
     </g>
     <g id="text_3">
      <!-- 2019-04-01 -->
      <g transform="translate(250.489785 404.638438)scale(0.1 -0.1)">
       <use xlink:href="#DejaVuSans-50"/>
       <use x="63.623047" xlink:href="#DejaVuSans-48"/>
       <use x="127.246094" xlink:href="#DejaVuSans-49"/>
       <use x="190.869141" xlink:href="#DejaVuSans-57"/>
       <use x="254.492188" xlink:href="#DejaVuSans-45"/>
       <use x="290.576172" xlink:href="#DejaVuSans-48"/>
       <use x="354.199219" xlink:href="#DejaVuSans-52"/>
       <use x="417.822266" xlink:href="#DejaVuSans-45"/>
       <use x="453.90625" xlink:href="#DejaVuSans-48"/>
       <use x="517.529297" xlink:href="#DejaVuSans-49"/>
      </g>
     </g>
    </g>
    <g id="xtick_4">
     <g id="line2d_7">
      <path clip-path="url(#pd9b4b359c0)" d="M 379.203871 390.04 
L 379.203871 10.8 
" style="fill:none;stroke:#808080;stroke-linecap:square;stroke-opacity:0.2;"/>
     </g>
     <g id="line2d_8">
      <g>
       <use style="stroke:#000000;stroke-width:0.8;" x="379.203871" xlink:href="#mbf300b19d1" y="390.04"/>
      </g>
     </g>
     <g id="text_4">
      <!-- 2019-04-15 -->
      <defs>
       <path d="M 10.796875 72.90625 
L 49.515625 72.90625 
L 49.515625 64.59375 
L 19.828125 64.59375 
L 19.828125 46.734375 
Q 21.96875 47.46875 24.109375 47.828125 
Q 26.265625 48.1875 28.421875 48.1875 
Q 40.625 48.1875 47.75 41.5 
Q 54.890625 34.8125 54.890625 23.390625 
Q 54.890625 11.625 47.5625 5.09375 
Q 40.234375 -1.421875 26.90625 -1.421875 
Q 22.3125 -1.421875 17.546875 -0.640625 
Q 12.796875 0.140625 7.71875 1.703125 
L 7.71875 11.625 
Q 12.109375 9.234375 16.796875 8.0625 
Q 21.484375 6.890625 26.703125 6.890625 
Q 35.15625 6.890625 40.078125 11.328125 
Q 45.015625 15.765625 45.015625 23.390625 
Q 45.015625 31 40.078125 35.4375 
Q 35.15625 39.890625 26.703125 39.890625 
Q 22.75 39.890625 18.8125 39.015625 
Q 14.890625 38.140625 10.796875 36.28125 
z
" id="DejaVuSans-53"/>
      </defs>
      <g transform="translate(350.146058 404.638438)scale(0.1 -0.1)">
       <use xlink:href="#DejaVuSans-50"/>
       <use x="63.623047" xlink:href="#DejaVuSans-48"/>
       <use x="127.246094" xlink:href="#DejaVuSans-49"/>
       <use x="190.869141" xlink:href="#DejaVuSans-57"/>
       <use x="254.492188" xlink:href="#DejaVuSans-45"/>
       <use x="290.576172" xlink:href="#DejaVuSans-48"/>
       <use x="354.199219" xlink:href="#DejaVuSans-52"/>
       <use x="417.822266" xlink:href="#DejaVuSans-45"/>
       <use x="453.90625" xlink:href="#DejaVuSans-49"/>
       <use x="517.529297" xlink:href="#DejaVuSans-53"/>
      </g>
     </g>
    </g>
    <g id="xtick_5">
     <g id="line2d_9">
      <path clip-path="url(#pd9b4b359c0)" d="M 478.860144 390.04 
L 478.860144 10.8 
" style="fill:none;stroke:#808080;stroke-linecap:square;stroke-opacity:0.2;"/>
     </g>
     <g id="line2d_10">
      <g>
       <use style="stroke:#000000;stroke-width:0.8;" x="478.860144" xlink:href="#mbf300b19d1" y="390.04"/>
      </g>
     </g>
     <g id="text_5">
      <!-- 2019-04-29 -->
      <g transform="translate(449.802331 404.638438)scale(0.1 -0.1)">
       <use xlink:href="#DejaVuSans-50"/>
       <use x="63.623047" xlink:href="#DejaVuSans-48"/>
       <use x="127.246094" xlink:href="#DejaVuSans-49"/>
       <use x="190.869141" xlink:href="#DejaVuSans-57"/>
       <use x="254.492188" xlink:href="#DejaVuSans-45"/>
       <use x="290.576172" xlink:href="#DejaVuSans-48"/>
       <use x="354.199219" xlink:href="#DejaVuSans-52"/>
       <use x="417.822266" xlink:href="#DejaVuSans-45"/>
       <use x="453.90625" xlink:href="#DejaVuSans-50"/>
       <use x="517.529297" xlink:href="#DejaVuSans-57"/>
      </g>
     </g>
    </g>
    <g id="xtick_6">
     <g id="line2d_11">
      <path clip-path="url(#pd9b4b359c0)" d="M 578.516417 390.04 
L 578.516417 10.8 
" style="fill:none;stroke:#808080;stroke-linecap:square;stroke-opacity:0.2;"/>
     </g>
     <g id="line2d_12">
      <g>
       <use style="stroke:#000000;stroke-width:0.8;" x="578.516417" xlink:href="#mbf300b19d1" y="390.04"/>
      </g>
     </g>
     <g id="text_6">
      <!-- 2019-05-13 -->
      <g transform="translate(549.458604 404.638438)scale(0.1 -0.1)">
       <use xlink:href="#DejaVuSans-50"/>
       <use x="63.623047" xlink:href="#DejaVuSans-48"/>
       <use x="127.246094" xlink:href="#DejaVuSans-49"/>
       <use x="190.869141" xlink:href="#DejaVuSans-57"/>
       <use x="254.492188" xlink:href="#DejaVuSans-45"/>
       <use x="290.576172" xlink:href="#DejaVuSans-48"/>
       <use x="354.199219" xlink:href="#DejaVuSans-53"/>
       <use x="417.822266" xlink:href="#DejaVuSans-45"/>
       <use x="453.90625" xlink:href="#DejaVuSans-49"/>
       <use x="517.529297" xlink:href="#DejaVuSans-51"/>
      </g>
     </g>
    </g>
    <g id="xtick_7">
     <g id="line2d_13">
      <path clip-path="url(#pd9b4b359c0)" d="M 678.17269 390.04 
L 678.17269 10.8 
" style="fill:none;stroke:#808080;stroke-linecap:square;stroke-opacity:0.2;"/>
     </g>
     <g id="line2d_14">
      <g>
       <use style="stroke:#000000;stroke-width:0.8;" x="678.17269" xlink:href="#mbf300b19d1" y="390.04"/>
      </g>
     </g>
     <g id="text_7">
      <!-- 2019-05-27 -->
      <defs>
       <path d="M 8.203125 72.90625 
L 55.078125 72.90625 
L 55.078125 68.703125 
L 28.609375 0 
L 18.3125 0 
L 43.21875 64.59375 
L 8.203125 64.59375 
z
" id="DejaVuSans-55"/>
      </defs>
      <g transform="translate(649.114877 404.638438)scale(0.1 -0.1)">
       <use xlink:href="#DejaVuSans-50"/>
       <use x="63.623047" xlink:href="#DejaVuSans-48"/>
       <use x="127.246094" xlink:href="#DejaVuSans-49"/>
       <use x="190.869141" xlink:href="#DejaVuSans-57"/>
       <use x="254.492188" xlink:href="#DejaVuSans-45"/>
       <use x="290.576172" xlink:href="#DejaVuSans-48"/>
       <use x="354.199219" xlink:href="#DejaVuSans-53"/>
       <use x="417.822266" xlink:href="#DejaVuSans-45"/>
       <use x="453.90625" xlink:href="#DejaVuSans-50"/>
       <use x="517.529297" xlink:href="#DejaVuSans-55"/>
      </g>
     </g>
    </g>
    <g id="text_8">
     <!-- ds -->
     <defs>
      <path d="M 45.40625 46.390625 
L 45.40625 75.984375 
L 54.390625 75.984375 
L 54.390625 0 
L 45.40625 0 
L 45.40625 8.203125 
Q 42.578125 3.328125 38.25 0.953125 
Q 33.9375 -1.421875 27.875 -1.421875 
Q 17.96875 -1.421875 11.734375 6.484375 
Q 5.515625 14.40625 5.515625 27.296875 
Q 5.515625 40.1875 11.734375 48.09375 
Q 17.96875 56 27.875 56 
Q 33.9375 56 38.25 53.625 
Q 42.578125 51.265625 45.40625 46.390625 
z
M 14.796875 27.296875 
Q 14.796875 17.390625 18.875 11.75 
Q 22.953125 6.109375 30.078125 6.109375 
Q 37.203125 6.109375 41.296875 11.75 
Q 45.40625 17.390625 45.40625 27.296875 
Q 45.40625 37.203125 41.296875 42.84375 
Q 37.203125 48.484375 30.078125 48.484375 
Q 22.953125 48.484375 18.875 42.84375 
Q 14.796875 37.203125 14.796875 27.296875 
z
" id="DejaVuSans-100"/>
      <path d="M 44.28125 53.078125 
L 44.28125 44.578125 
Q 40.484375 46.53125 36.375 47.5 
Q 32.28125 48.484375 27.875 48.484375 
Q 21.1875 48.484375 17.84375 46.4375 
Q 14.5 44.390625 14.5 40.28125 
Q 14.5 37.15625 16.890625 35.375 
Q 19.28125 33.59375 26.515625 31.984375 
L 29.59375 31.296875 
Q 39.15625 29.25 43.1875 25.515625 
Q 47.21875 21.78125 47.21875 15.09375 
Q 47.21875 7.46875 41.1875 3.015625 
Q 35.15625 -1.421875 24.609375 -1.421875 
Q 20.21875 -1.421875 15.453125 -0.5625 
Q 10.6875 0.296875 5.421875 2 
L 5.421875 11.28125 
Q 10.40625 8.6875 15.234375 7.390625 
Q 20.0625 6.109375 24.8125 6.109375 
Q 31.15625 6.109375 34.5625 8.28125 
Q 37.984375 10.453125 37.984375 14.40625 
Q 37.984375 18.0625 35.515625 20.015625 
Q 33.0625 21.96875 24.703125 23.78125 
L 21.578125 24.515625 
Q 13.234375 26.265625 9.515625 29.90625 
Q 5.8125 33.546875 5.8125 39.890625 
Q 5.8125 47.609375 11.28125 51.796875 
Q 16.75 56 26.8125 56 
Q 31.78125 56 36.171875 55.265625 
Q 40.578125 54.546875 44.28125 53.078125 
z
" id="DejaVuSans-115"/>
     </defs>
     <g transform="translate(366.306659 418.316562)scale(0.1 -0.1)">
      <use xlink:href="#DejaVuSans-100"/>
      <use x="63.476562" xlink:href="#DejaVuSans-115"/>
     </g>
    </g>
   </g>
   <g id="matplotlib.axis_2">
    <g id="ytick_1">
     <g id="line2d_15">
      <path clip-path="url(#pd9b4b359c0)" d="M 51.05 360.488831 
L 693.121131 360.488831 
" style="fill:none;stroke:#808080;stroke-linecap:square;stroke-opacity:0.2;"/>
     </g>
     <g id="line2d_16">
      <defs>
       <path d="M 0 0 
L -3.5 0 
" id="m7d4e664c03" style="stroke:#000000;stroke-width:0.8;"/>
      </defs>
      <g>
       <use style="stroke:#000000;stroke-width:0.8;" x="51.05" xlink:href="#m7d4e664c03" y="360.488831"/>
      </g>
     </g>
     <g id="text_9">
      <!-- 140 -->
      <g transform="translate(24.9625 364.28805)scale(0.1 -0.1)">
       <use xlink:href="#DejaVuSans-49"/>
       <use x="63.623047" xlink:href="#DejaVuSans-52"/>
       <use x="127.246094" xlink:href="#DejaVuSans-48"/>
      </g>
     </g>
    </g>
    <g id="ytick_2">
     <g id="line2d_17">
      <path clip-path="url(#pd9b4b359c0)" d="M 51.05 298.923896 
L 693.121131 298.923896 
" style="fill:none;stroke:#808080;stroke-linecap:square;stroke-opacity:0.2;"/>
     </g>
     <g id="line2d_18">
      <g>
       <use style="stroke:#000000;stroke-width:0.8;" x="51.05" xlink:href="#m7d4e664c03" y="298.923896"/>
      </g>
     </g>
     <g id="text_10">
      <!-- 145 -->
      <g transform="translate(24.9625 302.723115)scale(0.1 -0.1)">
       <use xlink:href="#DejaVuSans-49"/>
       <use x="63.623047" xlink:href="#DejaVuSans-52"/>
       <use x="127.246094" xlink:href="#DejaVuSans-53"/>
      </g>
     </g>
    </g>
    <g id="ytick_3">
     <g id="line2d_19">
      <path clip-path="url(#pd9b4b359c0)" d="M 51.05 237.358961 
L 693.121131 237.358961 
" style="fill:none;stroke:#808080;stroke-linecap:square;stroke-opacity:0.2;"/>
     </g>
     <g id="line2d_20">
      <g>
       <use style="stroke:#000000;stroke-width:0.8;" x="51.05" xlink:href="#m7d4e664c03" y="237.358961"/>
      </g>
     </g>
     <g id="text_11">
      <!-- 150 -->
      <g transform="translate(24.9625 241.15818)scale(0.1 -0.1)">
       <use xlink:href="#DejaVuSans-49"/>
       <use x="63.623047" xlink:href="#DejaVuSans-53"/>
       <use x="127.246094" xlink:href="#DejaVuSans-48"/>
      </g>
     </g>
    </g>
    <g id="ytick_4">
     <g id="line2d_21">
      <path clip-path="url(#pd9b4b359c0)" d="M 51.05 175.794026 
L 693.121131 175.794026 
" style="fill:none;stroke:#808080;stroke-linecap:square;stroke-opacity:0.2;"/>
     </g>
     <g id="line2d_22">
      <g>
       <use style="stroke:#000000;stroke-width:0.8;" x="51.05" xlink:href="#m7d4e664c03" y="175.794026"/>
      </g>
     </g>
     <g id="text_12">
      <!-- 155 -->
      <g transform="translate(24.9625 179.593245)scale(0.1 -0.1)">
       <use xlink:href="#DejaVuSans-49"/>
       <use x="63.623047" xlink:href="#DejaVuSans-53"/>
       <use x="127.246094" xlink:href="#DejaVuSans-53"/>
      </g>
     </g>
    </g>
    <g id="ytick_5">
     <g id="line2d_23">
      <path clip-path="url(#pd9b4b359c0)" d="M 51.05 114.229091 
L 693.121131 114.229091 
" style="fill:none;stroke:#808080;stroke-linecap:square;stroke-opacity:0.2;"/>
     </g>
     <g id="line2d_24">
      <g>
       <use style="stroke:#000000;stroke-width:0.8;" x="51.05" xlink:href="#m7d4e664c03" y="114.229091"/>
      </g>
     </g>
     <g id="text_13">
      <!-- 160 -->
      <defs>
       <path d="M 33.015625 40.375 
Q 26.375 40.375 22.484375 35.828125 
Q 18.609375 31.296875 18.609375 23.390625 
Q 18.609375 15.53125 22.484375 10.953125 
Q 26.375 6.390625 33.015625 6.390625 
Q 39.65625 6.390625 43.53125 10.953125 
Q 47.40625 15.53125 47.40625 23.390625 
Q 47.40625 31.296875 43.53125 35.828125 
Q 39.65625 40.375 33.015625 40.375 
z
M 52.59375 71.296875 
L 52.59375 62.3125 
Q 48.875 64.0625 45.09375 64.984375 
Q 41.3125 65.921875 37.59375 65.921875 
Q 27.828125 65.921875 22.671875 59.328125 
Q 17.53125 52.734375 16.796875 39.40625 
Q 19.671875 43.65625 24.015625 45.921875 
Q 28.375 48.1875 33.59375 48.1875 
Q 44.578125 48.1875 50.953125 41.515625 
Q 57.328125 34.859375 57.328125 23.390625 
Q 57.328125 12.15625 50.6875 5.359375 
Q 44.046875 -1.421875 33.015625 -1.421875 
Q 20.359375 -1.421875 13.671875 8.265625 
Q 6.984375 17.96875 6.984375 36.375 
Q 6.984375 53.65625 15.1875 63.9375 
Q 23.390625 74.21875 37.203125 74.21875 
Q 40.921875 74.21875 44.703125 73.484375 
Q 48.484375 72.75 52.59375 71.296875 
z
" id="DejaVuSans-54"/>
      </defs>
      <g transform="translate(24.9625 118.02831)scale(0.1 -0.1)">
       <use xlink:href="#DejaVuSans-49"/>
       <use x="63.623047" xlink:href="#DejaVuSans-54"/>
       <use x="127.246094" xlink:href="#DejaVuSans-48"/>
      </g>
     </g>
    </g>
    <g id="ytick_6">
     <g id="line2d_25">
      <path clip-path="url(#pd9b4b359c0)" d="M 51.05 52.664156 
L 693.121131 52.664156 
" style="fill:none;stroke:#808080;stroke-linecap:square;stroke-opacity:0.2;"/>
     </g>
     <g id="line2d_26">
      <g>
       <use style="stroke:#000000;stroke-width:0.8;" x="51.05" xlink:href="#m7d4e664c03" y="52.664156"/>
      </g>
     </g>
     <g id="text_14">
      <!-- 165 -->
      <g transform="translate(24.9625 56.463375)scale(0.1 -0.1)">
       <use xlink:href="#DejaVuSans-49"/>
       <use x="63.623047" xlink:href="#DejaVuSans-54"/>
       <use x="127.246094" xlink:href="#DejaVuSans-53"/>
      </g>
     </g>
    </g>
    <g id="text_15">
     <!-- y -->
     <defs>
      <path d="M 32.171875 -5.078125 
Q 28.375 -14.84375 24.75 -17.8125 
Q 21.140625 -20.796875 15.09375 -20.796875 
L 7.90625 -20.796875 
L 7.90625 -13.28125 
L 13.1875 -13.28125 
Q 16.890625 -13.28125 18.9375 -11.515625 
Q 21 -9.765625 23.484375 -3.21875 
L 25.09375 0.875 
L 2.984375 54.6875 
L 12.5 54.6875 
L 29.59375 11.921875 
L 46.6875 54.6875 
L 56.203125 54.6875 
z
" id="DejaVuSans-121"/>
     </defs>
     <g transform="translate(18.882812 203.379375)rotate(-90)scale(0.1 -0.1)">
      <use xlink:href="#DejaVuSans-121"/>
     </g>
    </g>
   </g>
   <g id="line2d_27">
    <defs>
     <path d="M 0 1.5 
C 0.397805 1.5 0.77937 1.341951 1.06066 1.06066 
C 1.341951 0.77937 1.5 0.397805 1.5 0 
C 1.5 -0.397805 1.341951 -0.77937 1.06066 -1.06066 
C 0.77937 -1.341951 0.397805 -1.5 0 -1.5 
C -0.397805 -1.5 -0.77937 -1.341951 -1.06066 -1.06066 
C -1.341951 -0.77937 -1.5 -0.397805 -1.5 0 
C -1.5 0.397805 -1.341951 0.77937 -1.06066 1.06066 
C -0.77937 1.341951 -0.397805 1.5 0 1.5 
z
" id="md09cee174f" style="stroke:#000000;"/>
    </defs>
    <g clip-path="url(#pd9b4b359c0)">
     <use style="stroke:#000000;" x="80.235051" xlink:href="#md09cee174f" y="138.855065"/>
     <use style="stroke:#000000;" x="94.471662" xlink:href="#md09cee174f" y="163.481039"/>
     <use style="stroke:#000000;" x="101.589967" xlink:href="#md09cee174f" y="212.732987"/>
     <use style="stroke:#000000;" x="115.826577" xlink:href="#md09cee174f" y="151.168052"/>
     <use style="stroke:#000000;" x="122.944883" xlink:href="#md09cee174f" y="101.916104"/>
     <use style="stroke:#000000;" x="137.181493" xlink:href="#md09cee174f" y="138.855065"/>
     <use style="stroke:#000000;" x="144.299798" xlink:href="#md09cee174f" y="225.045974"/>
     <use style="stroke:#000000;" x="158.536409" xlink:href="#md09cee174f" y="163.481039"/>
     <use style="stroke:#000000;" x="165.654714" xlink:href="#md09cee174f" y="101.916104"/>
     <use style="stroke:#000000;" x="179.891324" xlink:href="#md09cee174f" y="212.732987"/>
     <use style="stroke:#000000;" x="187.00963" xlink:href="#md09cee174f" y="212.732987"/>
     <use style="stroke:#000000;" x="208.364545" xlink:href="#md09cee174f" y="126.542078"/>
     <use style="stroke:#000000;" x="222.601156" xlink:href="#md09cee174f" y="126.542078"/>
     <use style="stroke:#000000;" x="229.719461" xlink:href="#md09cee174f" y="101.916104"/>
     <use style="stroke:#000000;" x="243.956071" xlink:href="#md09cee174f" y="114.229091"/>
     <use style="stroke:#000000;" x="265.310987" xlink:href="#md09cee174f" y="175.794026"/>
     <use style="stroke:#000000;" x="272.429292" xlink:href="#md09cee174f" y="200.42"/>
     <use style="stroke:#000000;" x="286.665903" xlink:href="#md09cee174f" y="52.664156"/>
     <use style="stroke:#000000;" x="293.784208" xlink:href="#md09cee174f" y="138.855065"/>
     <use style="stroke:#000000;" x="308.020818" xlink:href="#md09cee174f" y="89.603117"/>
     <use style="stroke:#000000;" x="315.139124" xlink:href="#md09cee174f" y="151.168052"/>
     <use style="stroke:#000000;" x="329.375734" xlink:href="#md09cee174f" y="126.542078"/>
     <use style="stroke:#000000;" x="336.494039" xlink:href="#md09cee174f" y="28.038182"/>
     <use style="stroke:#000000;" x="350.73065" xlink:href="#md09cee174f" y="163.481039"/>
     <use style="stroke:#000000;" x="357.848955" xlink:href="#md09cee174f" y="151.168052"/>
     <use style="stroke:#000000;" x="372.085565" xlink:href="#md09cee174f" y="114.229091"/>
     <use style="stroke:#000000;" x="379.203871" xlink:href="#md09cee174f" y="101.916104"/>
     <use style="stroke:#000000;" x="393.440481" xlink:href="#md09cee174f" y="225.045974"/>
     <use style="stroke:#000000;" x="414.795397" xlink:href="#md09cee174f" y="212.732987"/>
     <use style="stroke:#000000;" x="421.913702" xlink:href="#md09cee174f" y="151.168052"/>
     <use style="stroke:#000000;" x="436.150312" xlink:href="#md09cee174f" y="200.42"/>
     <use style="stroke:#000000;" x="443.268618" xlink:href="#md09cee174f" y="212.732987"/>
     <use style="stroke:#000000;" x="457.505228" xlink:href="#md09cee174f" y="225.045974"/>
     <use style="stroke:#000000;" x="464.623533" xlink:href="#md09cee174f" y="261.984935"/>
     <use style="stroke:#000000;" x="478.860144" xlink:href="#md09cee174f" y="286.610909"/>
     <use style="stroke:#000000;" x="485.978449" xlink:href="#md09cee174f" y="237.358961"/>
     <use style="stroke:#000000;" x="500.215059" xlink:href="#md09cee174f" y="101.916104"/>
     <use style="stroke:#000000;" x="507.333365" xlink:href="#md09cee174f" y="188.107013"/>
     <use style="stroke:#000000;" x="521.569975" xlink:href="#md09cee174f" y="323.54987"/>
     <use style="stroke:#000000;" x="528.68828" xlink:href="#md09cee174f" y="286.610909"/>
     <use style="stroke:#000000;" x="542.924891" xlink:href="#md09cee174f" y="225.045974"/>
     <use style="stroke:#000000;" x="550.043196" xlink:href="#md09cee174f" y="274.297922"/>
     <use style="stroke:#000000;" x="564.279806" xlink:href="#md09cee174f" y="188.107013"/>
     <use style="stroke:#000000;" x="571.398112" xlink:href="#md09cee174f" y="323.54987"/>
     <use style="stroke:#000000;" x="585.634722" xlink:href="#md09cee174f" y="138.855065"/>
     <use style="stroke:#000000;" x="592.753027" xlink:href="#md09cee174f" y="188.107013"/>
     <use style="stroke:#000000;" x="606.989638" xlink:href="#md09cee174f" y="274.297922"/>
     <use style="stroke:#000000;" x="614.107943" xlink:href="#md09cee174f" y="188.107013"/>
     <use style="stroke:#000000;" x="635.462859" xlink:href="#md09cee174f" y="200.42"/>
     <use style="stroke:#000000;" x="649.699469" xlink:href="#md09cee174f" y="372.801818"/>
     <use style="stroke:#000000;" x="656.817774" xlink:href="#md09cee174f" y="298.923896"/>
    </g>
   </g>
   <g id="line2d_28">
    <path clip-path="url(#pd9b4b359c0)" d="M 80.235051 161.467436 
L 94.471662 158.246969 
L 101.589967 170.893682 
L 115.826577 145.795909 
L 122.944883 163.36596 
L 137.181493 113.331243 
L 144.299798 156.919386 
L 158.536409 145.852638 
L 165.654714 144.468324 
L 179.891324 158.812267 
L 187.00963 112.003658 
L 208.364545 144.525054 
L 222.601156 160.710792 
L 229.719461 157.48592 
L 243.956071 154.267926 
L 265.310987 141.825519 
L 272.429292 159.398455 
L 286.665903 109.380643 
L 293.784208 152.983161 
L 308.020818 141.945163 
L 315.139124 140.593977 
L 329.375734 155.047186 
L 336.494039 108.293209 
L 350.73065 170.827757 
L 357.848955 150.277974 
L 372.085565 172.791065 
L 379.203871 172.73381 
L 393.440481 175.851051 
L 414.795397 172.906555 
L 421.913702 193.645461 
L 436.150312 149.948454 
L 443.268618 196.705452 
L 457.505228 191.976416 
L 464.623533 193.760957 
L 478.860144 214.44261 
L 485.978449 170.802856 
L 500.215059 233.375422 
L 507.333365 212.830818 
L 521.569975 235.354265 
L 528.68828 235.297011 
L 542.924891 238.414255 
L 550.043196 254.229823 
L 564.279806 235.46976 
L 571.398112 256.208666 
L 585.634722 212.511659 
L 592.753027 259.268657 
L 606.989638 254.53962 
L 614.107943 256.324161 
L 635.462859 233.36606 
L 649.699469 295.938626 
L 656.817774 275.394021 
L 663.936079 277.178563 
" style="fill:none;stroke:#0072b2;stroke-linecap:square;stroke-width:1.5;"/>
   </g>
   <g id="patch_3">
    <path d="M 51.05 390.04 
L 51.05 10.8 
" style="fill:none;stroke:#000000;stroke-linecap:square;stroke-linejoin:miter;stroke-width:0.8;"/>
   </g>
   <g id="patch_4">
    <path d="M 693.121131 390.04 
L 693.121131 10.8 
" style="fill:none;stroke:#000000;stroke-linecap:square;stroke-linejoin:miter;stroke-width:0.8;"/>
   </g>
   <g id="patch_5">
    <path d="M 51.05 390.04 
L 693.121131 390.04 
" style="fill:none;stroke:#000000;stroke-linecap:square;stroke-linejoin:miter;stroke-width:0.8;"/>
   </g>
   <g id="patch_6">
    <path d="M 51.05 10.8 
L 693.121131 10.8 
" style="fill:none;stroke:#000000;stroke-linecap:square;stroke-linejoin:miter;stroke-width:0.8;"/>
   </g>
  </g>
 </g>
 <defs>
  <clipPath id="pd9b4b359c0">
   <rect height="379.24" width="642.071131" x="51.05" y="10.8"/>
  </clipPath>
 </defs>
</svg>
