<?xml version="1.0" encoding="utf-8" standalone="no"?>
<!DOCTYPE svg PUBLIC "-//W3C//DTD SVG 1.1//EN"
  "http://www.w3.org/Graphics/SVG/1.1/DTD/svg11.dtd">
<!-- Created with matplotlib (https://matplotlib.org/) -->
<svg height="432pt" version="1.1" viewBox="0 0 720 432" width="720pt" xmlns="http://www.w3.org/2000/svg" xmlns:xlink="http://www.w3.org/1999/xlink">
 <defs>
  <style type="text/css">
*{stroke-linecap:butt;stroke-linejoin:round;}
  </style>
 </defs>
 <g id="figure_1">
  <g id="patch_1">
   <path d="M 0 432 
L 720 432 
L 720 0 
L 0 0 
z
" style="fill:#ffffff;"/>
  </g>
  <g id="axes_1">
   <g id="patch_2">
    <path d="M 60.59 390.04 
L 687.158478 390.04 
L 687.158478 10.8 
L 60.59 10.8 
z
" style="fill:#ffffff;"/>
   </g>
   <g id="PolyCollection_1">
    <defs>
     <path d="M 89.070385 -321.693811 
L 89.070385 -120.49962 
L 95.933129 -140.688817 
L 109.658616 -126.857399 
L 116.521359 -59.198182 
L 130.246846 -64.786775 
L 137.10959 -120.827909 
L 150.835076 -69.958929 
L 157.69782 -142.286891 
L 171.423307 -60.607991 
L 178.28605 -82.319565 
L 192.011537 -149.317205 
L 198.874281 -83.096633 
L 219.462511 -76.091774 
L 233.187998 -137.40663 
L 240.050741 -145.835311 
L 253.776228 -140.801925 
L 274.364459 -89.825927 
L 281.227202 -143.936867 
L 294.952689 -96.825636 
L 301.815432 -151.274919 
L 315.540919 -82.370498 
L 322.403663 -90.883046 
L 336.12915 -162.719697 
L 342.991893 -101.870104 
L 356.71738 -89.739486 
L 363.580124 -87.361601 
L 377.305611 -152.669626 
L 384.168354 -175.807451 
L 397.893841 -169.81494 
L 404.756584 -96.535379 
L 418.482071 -108.180775 
L 425.344815 -152.136129 
L 439.070302 -112.331808 
L 445.933045 -169.065999 
L 459.658532 -104.486805 
L 466.521275 -113.792343 
L 480.246762 -183.229624 
L 487.109506 -116.472013 
L 500.834993 -103.510711 
L 507.697736 -112.919842 
L 521.423223 -167.272444 
L 528.285967 -186.309703 
L 542.011453 -187.68454 
L 548.874197 -109.144662 
L 562.599684 -123.396323 
L 569.462427 -182.363157 
L 583.187914 -129.695211 
L 590.050658 -181.239135 
L 603.776145 -123.890958 
L 610.638888 -118.55962 
L 624.364375 -203.671641 
L 631.227118 -135.335384 
L 644.952605 -126.01729 
L 651.815349 -123.678417 
L 658.678092 -131.974338 
L 658.678092 -339.180478 
L 658.678092 -339.180478 
L 651.815349 -327.937218 
L 644.952605 -330.123319 
L 631.227118 -338.51247 
L 624.364375 -403.961818 
L 610.638888 -334.854861 
L 603.776145 -318.758424 
L 590.050658 -388.56197 
L 583.187914 -334.972941 
L 569.462427 -371.719332 
L 562.599684 -322.993338 
L 548.874197 -317.994342 
L 542.011453 -374.741685 
L 528.285967 -387.24639 
L 521.423223 -376.573069 
L 507.697736 -309.924444 
L 500.834993 -314.894439 
L 487.109506 -325.568602 
L 480.246762 -387.862741 
L 466.521275 -311.836169 
L 459.658532 -309.864371 
L 445.933045 -382.457814 
L 439.070302 -317.80211 
L 425.344815 -363.779437 
L 418.482071 -307.16216 
L 404.756584 -303.249136 
L 397.893841 -370.15789 
L 384.168354 -373.159601 
L 377.305611 -360.134507 
L 363.580124 -295.359663 
L 356.71738 -293.699521 
L 342.991893 -309.238691 
L 336.12915 -359.390292 
L 322.403663 -294.921013 
L 315.540919 -279.27622 
L 301.815432 -351.682689 
L 294.952689 -297.455574 
L 281.227202 -343.931153 
L 274.364459 -293.571075 
L 253.776228 -349.066266 
L 240.050741 -356.748773 
L 233.187998 -335.075006 
L 219.462511 -271.952111 
L 198.874281 -283.230608 
L 192.011537 -348.366505 
L 178.28605 -284.053046 
L 171.423307 -271.516818 
L 157.69782 -331.331655 
L 150.835076 -287.985631 
L 137.10959 -330.838357 
L 130.246846 -274.590668 
L 116.521359 -262.244945 
L 109.658616 -330.86482 
L 95.933129 -334.424185 
L 89.070385 -321.693811 
z
" id="meaa5301920" style="stroke:#0072b2;stroke-opacity:0.2;"/>
    </defs>
    <g clip-path="url(#p02f5aa92d2)">
     <use style="fill:#0072b2;fill-opacity:0.2;stroke:#0072b2;stroke-opacity:0.2;" x="0" xlink:href="#meaa5301920" y="432"/>
    </g>
   </g>
   <g id="matplotlib.axis_1">
    <g id="xtick_1">
     <g id="line2d_1">
      <path clip-path="url(#p02f5aa92d2)" d="M 102.795872 390.04 
L 102.795872 10.8 
" style="fill:none;stroke:#808080;stroke-linecap:square;stroke-opacity:0.2;"/>
     </g>
     <g id="line2d_2">
      <defs>
       <path d="M 0 0 
L 0 3.5 
" id="mf974c018f4" style="stroke:#000000;stroke-width:0.8;"/>
      </defs>
      <g>
       <use style="stroke:#000000;stroke-width:0.8;" x="102.795872" xlink:href="#mf974c018f4" y="390.04"/>
      </g>
     </g>
     <g id="text_1">
      <!-- 2019-09-01 -->
      <defs>
       <path d="M 19.1875 8.296875 
L 53.609375 8.296875 
L 53.609375 0 
L 7.328125 0 
L 7.328125 8.296875 
Q 12.9375 14.109375 22.625 23.890625 
Q 32.328125 33.6875 34.8125 36.53125 
Q 39.546875 41.84375 41.421875 45.53125 
Q 43.3125 49.21875 43.3125 52.78125 
Q 43.3125 58.59375 39.234375 62.25 
Q 35.15625 65.921875 28.609375 65.921875 
Q 23.96875 65.921875 18.8125 64.3125 
Q 13.671875 62.703125 7.8125 59.421875 
L 7.8125 69.390625 
Q 13.765625 71.78125 18.9375 73 
Q 24.125 74.21875 28.421875 74.21875 
Q 39.75 74.21875 46.484375 68.546875 
Q 53.21875 62.890625 53.21875 53.421875 
Q 53.21875 48.921875 51.53125 44.890625 
Q 49.859375 40.875 45.40625 35.40625 
Q 44.1875 33.984375 37.640625 27.21875 
Q 31.109375 20.453125 19.1875 8.296875 
z
" id="DejaVuSans-50"/>
       <path d="M 31.78125 66.40625 
Q 24.171875 66.40625 20.328125 58.90625 
Q 16.5 51.421875 16.5 36.375 
Q 16.5 21.390625 20.328125 13.890625 
Q 24.171875 6.390625 31.78125 6.390625 
Q 39.453125 6.390625 43.28125 13.890625 
Q 47.125 21.390625 47.125 36.375 
Q 47.125 51.421875 43.28125 58.90625 
Q 39.453125 66.40625 31.78125 66.40625 
z
M 31.78125 74.21875 
Q 44.046875 74.21875 50.515625 64.515625 
Q 56.984375 54.828125 56.984375 36.375 
Q 56.984375 17.96875 50.515625 8.265625 
Q 44.046875 -1.421875 31.78125 -1.421875 
Q 19.53125 -1.421875 13.0625 8.265625 
Q 6.59375 17.96875 6.59375 36.375 
Q 6.59375 54.828125 13.0625 64.515625 
Q 19.53125 74.21875 31.78125 74.21875 
z
" id="DejaVuSans-48"/>
       <path d="M 12.40625 8.296875 
L 28.515625 8.296875 
L 28.515625 63.921875 
L 10.984375 60.40625 
L 10.984375 69.390625 
L 28.421875 72.90625 
L 38.28125 72.90625 
L 38.28125 8.296875 
L 54.390625 8.296875 
L 54.390625 0 
L 12.40625 0 
z
" id="DejaVuSans-49"/>
       <path d="M 10.984375 1.515625 
L 10.984375 10.5 
Q 14.703125 8.734375 18.5 7.8125 
Q 22.3125 6.890625 25.984375 6.890625 
Q 35.75 6.890625 40.890625 13.453125 
Q 46.046875 20.015625 46.78125 33.40625 
Q 43.953125 29.203125 39.59375 26.953125 
Q 35.25 24.703125 29.984375 24.703125 
Q 19.046875 24.703125 12.671875 31.3125 
Q 6.296875 37.9375 6.296875 49.421875 
Q 6.296875 60.640625 12.9375 67.421875 
Q 19.578125 74.21875 30.609375 74.21875 
Q 43.265625 74.21875 49.921875 64.515625 
Q 56.59375 54.828125 56.59375 36.375 
Q 56.59375 19.140625 48.40625 8.859375 
Q 40.234375 -1.421875 26.421875 -1.421875 
Q 22.703125 -1.421875 18.890625 -0.6875 
Q 15.09375 0.046875 10.984375 1.515625 
z
M 30.609375 32.421875 
Q 37.25 32.421875 41.125 36.953125 
Q 45.015625 41.5 45.015625 49.421875 
Q 45.015625 57.28125 41.125 61.84375 
Q 37.25 66.40625 30.609375 66.40625 
Q 23.96875 66.40625 20.09375 61.84375 
Q 16.21875 57.28125 16.21875 49.421875 
Q 16.21875 41.5 20.09375 36.953125 
Q 23.96875 32.421875 30.609375 32.421875 
z
" id="DejaVuSans-57"/>
       <path d="M 4.890625 31.390625 
L 31.203125 31.390625 
L 31.203125 23.390625 
L 4.890625 23.390625 
z
" id="DejaVuSans-45"/>
      </defs>
      <g transform="translate(73.73806 404.638438)scale(0.1 -0.1)">
       <use xlink:href="#DejaVuSans-50"/>
       <use x="63.623047" xlink:href="#DejaVuSans-48"/>
       <use x="127.246094" xlink:href="#DejaVuSans-49"/>
       <use x="190.869141" xlink:href="#DejaVuSans-57"/>
       <use x="254.492188" xlink:href="#DejaVuSans-45"/>
       <use x="290.576172" xlink:href="#DejaVuSans-48"/>
       <use x="354.199219" xlink:href="#DejaVuSans-57"/>
       <use x="417.822266" xlink:href="#DejaVuSans-45"/>
       <use x="453.90625" xlink:href="#DejaVuSans-48"/>
       <use x="517.529297" xlink:href="#DejaVuSans-49"/>
      </g>
     </g>
    </g>
    <g id="xtick_2">
     <g id="line2d_3">
      <path clip-path="url(#p02f5aa92d2)" d="M 198.874281 390.04 
L 198.874281 10.8 
" style="fill:none;stroke:#808080;stroke-linecap:square;stroke-opacity:0.2;"/>
     </g>
     <g id="line2d_4">
      <g>
       <use style="stroke:#000000;stroke-width:0.8;" x="198.874281" xlink:href="#mf974c018f4" y="390.04"/>
      </g>
     </g>
     <g id="text_2">
      <!-- 2019-09-15 -->
      <defs>
       <path d="M 10.796875 72.90625 
L 49.515625 72.90625 
L 49.515625 64.59375 
L 19.828125 64.59375 
L 19.828125 46.734375 
Q 21.96875 47.46875 24.109375 47.828125 
Q 26.265625 48.1875 28.421875 48.1875 
Q 40.625 48.1875 47.75 41.5 
Q 54.890625 34.8125 54.890625 23.390625 
Q 54.890625 11.625 47.5625 5.09375 
Q 40.234375 -1.421875 26.90625 -1.421875 
Q 22.3125 -1.421875 17.546875 -0.640625 
Q 12.796875 0.140625 7.71875 1.703125 
L 7.71875 11.625 
Q 12.109375 9.234375 16.796875 8.0625 
Q 21.484375 6.890625 26.703125 6.890625 
Q 35.15625 6.890625 40.078125 11.328125 
Q 45.015625 15.765625 45.015625 23.390625 
Q 45.015625 31 40.078125 35.4375 
Q 35.15625 39.890625 26.703125 39.890625 
Q 22.75 39.890625 18.8125 39.015625 
Q 14.890625 38.140625 10.796875 36.28125 
z
" id="DejaVuSans-53"/>
      </defs>
      <g transform="translate(169.816468 404.638438)scale(0.1 -0.1)">
       <use xlink:href="#DejaVuSans-50"/>
       <use x="63.623047" xlink:href="#DejaVuSans-48"/>
       <use x="127.246094" xlink:href="#DejaVuSans-49"/>
       <use x="190.869141" xlink:href="#DejaVuSans-57"/>
       <use x="254.492188" xlink:href="#DejaVuSans-45"/>
       <use x="290.576172" xlink:href="#DejaVuSans-48"/>
       <use x="354.199219" xlink:href="#DejaVuSans-57"/>
       <use x="417.822266" xlink:href="#DejaVuSans-45"/>
       <use x="453.90625" xlink:href="#DejaVuSans-49"/>
       <use x="517.529297" xlink:href="#DejaVuSans-53"/>
      </g>
     </g>
    </g>
    <g id="xtick_3">
     <g id="line2d_5">
      <path clip-path="url(#p02f5aa92d2)" d="M 294.952689 390.04 
L 294.952689 10.8 
" style="fill:none;stroke:#808080;stroke-linecap:square;stroke-opacity:0.2;"/>
     </g>
     <g id="line2d_6">
      <g>
       <use style="stroke:#000000;stroke-width:0.8;" x="294.952689" xlink:href="#mf974c018f4" y="390.04"/>
      </g>
     </g>
     <g id="text_3">
      <!-- 2019-09-29 -->
      <g transform="translate(265.894877 404.638438)scale(0.1 -0.1)">
       <use xlink:href="#DejaVuSans-50"/>
       <use x="63.623047" xlink:href="#DejaVuSans-48"/>
       <use x="127.246094" xlink:href="#DejaVuSans-49"/>
       <use x="190.869141" xlink:href="#DejaVuSans-57"/>
       <use x="254.492188" xlink:href="#DejaVuSans-45"/>
       <use x="290.576172" xlink:href="#DejaVuSans-48"/>
       <use x="354.199219" xlink:href="#DejaVuSans-57"/>
       <use x="417.822266" xlink:href="#DejaVuSans-45"/>
       <use x="453.90625" xlink:href="#DejaVuSans-50"/>
       <use x="517.529297" xlink:href="#DejaVuSans-57"/>
      </g>
     </g>
    </g>
    <g id="xtick_4">
     <g id="line2d_7">
      <path clip-path="url(#p02f5aa92d2)" d="M 391.031097 390.04 
L 391.031097 10.8 
" style="fill:none;stroke:#808080;stroke-linecap:square;stroke-opacity:0.2;"/>
     </g>
     <g id="line2d_8">
      <g>
       <use style="stroke:#000000;stroke-width:0.8;" x="391.031097" xlink:href="#mf974c018f4" y="390.04"/>
      </g>
     </g>
     <g id="text_4">
      <!-- 2019-10-13 -->
      <defs>
       <path d="M 40.578125 39.3125 
Q 47.65625 37.796875 51.625 33 
Q 55.609375 28.21875 55.609375 21.1875 
Q 55.609375 10.40625 48.1875 4.484375 
Q 40.765625 -1.421875 27.09375 -1.421875 
Q 22.515625 -1.421875 17.65625 -0.515625 
Q 12.796875 0.390625 7.625 2.203125 
L 7.625 11.71875 
Q 11.71875 9.328125 16.59375 8.109375 
Q 21.484375 6.890625 26.8125 6.890625 
Q 36.078125 6.890625 40.9375 10.546875 
Q 45.796875 14.203125 45.796875 21.1875 
Q 45.796875 27.640625 41.28125 31.265625 
Q 36.765625 34.90625 28.71875 34.90625 
L 20.21875 34.90625 
L 20.21875 43.015625 
L 29.109375 43.015625 
Q 36.375 43.015625 40.234375 45.921875 
Q 44.09375 48.828125 44.09375 54.296875 
Q 44.09375 59.90625 40.109375 62.90625 
Q 36.140625 65.921875 28.71875 65.921875 
Q 24.65625 65.921875 20.015625 65.03125 
Q 15.375 64.15625 9.8125 62.3125 
L 9.8125 71.09375 
Q 15.4375 72.65625 20.34375 73.4375 
Q 25.25 74.21875 29.59375 74.21875 
Q 40.828125 74.21875 47.359375 69.109375 
Q 53.90625 64.015625 53.90625 55.328125 
Q 53.90625 49.265625 50.4375 45.09375 
Q 46.96875 40.921875 40.578125 39.3125 
z
" id="DejaVuSans-51"/>
      </defs>
      <g transform="translate(361.973285 404.638438)scale(0.1 -0.1)">
       <use xlink:href="#DejaVuSans-50"/>
       <use x="63.623047" xlink:href="#DejaVuSans-48"/>
       <use x="127.246094" xlink:href="#DejaVuSans-49"/>
       <use x="190.869141" xlink:href="#DejaVuSans-57"/>
       <use x="254.492188" xlink:href="#DejaVuSans-45"/>
       <use x="290.576172" xlink:href="#DejaVuSans-49"/>
       <use x="354.199219" xlink:href="#DejaVuSans-48"/>
       <use x="417.822266" xlink:href="#DejaVuSans-45"/>
       <use x="453.90625" xlink:href="#DejaVuSans-49"/>
       <use x="517.529297" xlink:href="#DejaVuSans-51"/>
      </g>
     </g>
    </g>
    <g id="xtick_5">
     <g id="line2d_9">
      <path clip-path="url(#p02f5aa92d2)" d="M 487.109506 390.04 
L 487.109506 10.8 
" style="fill:none;stroke:#808080;stroke-linecap:square;stroke-opacity:0.2;"/>
     </g>
     <g id="line2d_10">
      <g>
       <use style="stroke:#000000;stroke-width:0.8;" x="487.109506" xlink:href="#mf974c018f4" y="390.04"/>
      </g>
     </g>
     <g id="text_5">
      <!-- 2019-10-27 -->
      <defs>
       <path d="M 8.203125 72.90625 
L 55.078125 72.90625 
L 55.078125 68.703125 
L 28.609375 0 
L 18.3125 0 
L 43.21875 64.59375 
L 8.203125 64.59375 
z
" id="DejaVuSans-55"/>
      </defs>
      <g transform="translate(458.051693 404.638438)scale(0.1 -0.1)">
       <use xlink:href="#DejaVuSans-50"/>
       <use x="63.623047" xlink:href="#DejaVuSans-48"/>
       <use x="127.246094" xlink:href="#DejaVuSans-49"/>
       <use x="190.869141" xlink:href="#DejaVuSans-57"/>
       <use x="254.492188" xlink:href="#DejaVuSans-45"/>
       <use x="290.576172" xlink:href="#DejaVuSans-49"/>
       <use x="354.199219" xlink:href="#DejaVuSans-48"/>
       <use x="417.822266" xlink:href="#DejaVuSans-45"/>
       <use x="453.90625" xlink:href="#DejaVuSans-50"/>
       <use x="517.529297" xlink:href="#DejaVuSans-55"/>
      </g>
     </g>
    </g>
    <g id="xtick_6">
     <g id="line2d_11">
      <path clip-path="url(#p02f5aa92d2)" d="M 583.187914 390.04 
L 583.187914 10.8 
" style="fill:none;stroke:#808080;stroke-linecap:square;stroke-opacity:0.2;"/>
     </g>
     <g id="line2d_12">
      <g>
       <use style="stroke:#000000;stroke-width:0.8;" x="583.187914" xlink:href="#mf974c018f4" y="390.04"/>
      </g>
     </g>
     <g id="text_6">
      <!-- 2019-11-10 -->
      <g transform="translate(554.130102 404.638438)scale(0.1 -0.1)">
       <use xlink:href="#DejaVuSans-50"/>
       <use x="63.623047" xlink:href="#DejaVuSans-48"/>
       <use x="127.246094" xlink:href="#DejaVuSans-49"/>
       <use x="190.869141" xlink:href="#DejaVuSans-57"/>
       <use x="254.492188" xlink:href="#DejaVuSans-45"/>
       <use x="290.576172" xlink:href="#DejaVuSans-49"/>
       <use x="354.199219" xlink:href="#DejaVuSans-49"/>
       <use x="417.822266" xlink:href="#DejaVuSans-45"/>
       <use x="453.90625" xlink:href="#DejaVuSans-49"/>
       <use x="517.529297" xlink:href="#DejaVuSans-48"/>
      </g>
     </g>
    </g>
    <g id="xtick_7">
     <g id="line2d_13">
      <path clip-path="url(#p02f5aa92d2)" d="M 679.266323 390.04 
L 679.266323 10.8 
" style="fill:none;stroke:#808080;stroke-linecap:square;stroke-opacity:0.2;"/>
     </g>
     <g id="line2d_14">
      <g>
       <use style="stroke:#000000;stroke-width:0.8;" x="679.266323" xlink:href="#mf974c018f4" y="390.04"/>
      </g>
     </g>
     <g id="text_7">
      <!-- 2019-11-24 -->
      <defs>
       <path d="M 37.796875 64.3125 
L 12.890625 25.390625 
L 37.796875 25.390625 
z
M 35.203125 72.90625 
L 47.609375 72.90625 
L 47.609375 25.390625 
L 58.015625 25.390625 
L 58.015625 17.1875 
L 47.609375 17.1875 
L 47.609375 0 
L 37.796875 0 
L 37.796875 17.1875 
L 4.890625 17.1875 
L 4.890625 26.703125 
z
" id="DejaVuSans-52"/>
      </defs>
      <g transform="translate(650.20851 404.638438)scale(0.1 -0.1)">
       <use xlink:href="#DejaVuSans-50"/>
       <use x="63.623047" xlink:href="#DejaVuSans-48"/>
       <use x="127.246094" xlink:href="#DejaVuSans-49"/>
       <use x="190.869141" xlink:href="#DejaVuSans-57"/>
       <use x="254.492188" xlink:href="#DejaVuSans-45"/>
       <use x="290.576172" xlink:href="#DejaVuSans-49"/>
       <use x="354.199219" xlink:href="#DejaVuSans-49"/>
       <use x="417.822266" xlink:href="#DejaVuSans-45"/>
       <use x="453.90625" xlink:href="#DejaVuSans-50"/>
       <use x="517.529297" xlink:href="#DejaVuSans-52"/>
      </g>
     </g>
    </g>
    <g id="text_8">
     <!-- ds -->
     <defs>
      <path d="M 45.40625 46.390625 
L 45.40625 75.984375 
L 54.390625 75.984375 
L 54.390625 0 
L 45.40625 0 
L 45.40625 8.203125 
Q 42.578125 3.328125 38.25 0.953125 
Q 33.9375 -1.421875 27.875 -1.421875 
Q 17.96875 -1.421875 11.734375 6.484375 
Q 5.515625 14.40625 5.515625 27.296875 
Q 5.515625 40.1875 11.734375 48.09375 
Q 17.96875 56 27.875 56 
Q 33.9375 56 38.25 53.625 
Q 42.578125 51.265625 45.40625 46.390625 
z
M 14.796875 27.296875 
Q 14.796875 17.390625 18.875 11.75 
Q 22.953125 6.109375 30.078125 6.109375 
Q 37.203125 6.109375 41.296875 11.75 
Q 45.40625 17.390625 45.40625 27.296875 
Q 45.40625 37.203125 41.296875 42.84375 
Q 37.203125 48.484375 30.078125 48.484375 
Q 22.953125 48.484375 18.875 42.84375 
Q 14.796875 37.203125 14.796875 27.296875 
z
" id="DejaVuSans-100"/>
      <path d="M 44.28125 53.078125 
L 44.28125 44.578125 
Q 40.484375 46.53125 36.375 47.5 
Q 32.28125 48.484375 27.875 48.484375 
Q 21.1875 48.484375 17.84375 46.4375 
Q 14.5 44.390625 14.5 40.28125 
Q 14.5 37.15625 16.890625 35.375 
Q 19.28125 33.59375 26.515625 31.984375 
L 29.59375 31.296875 
Q 39.15625 29.25 43.1875 25.515625 
Q 47.21875 21.78125 47.21875 15.09375 
Q 47.21875 7.46875 41.1875 3.015625 
Q 35.15625 -1.421875 24.609375 -1.421875 
Q 20.21875 -1.421875 15.453125 -0.5625 
Q 10.6875 0.296875 5.421875 2 
L 5.421875 11.28125 
Q 10.40625 8.6875 15.234375 7.390625 
Q 20.0625 6.109375 24.8125 6.109375 
Q 31.15625 6.109375 34.5625 8.28125 
Q 37.984375 10.453125 37.984375 14.40625 
Q 37.984375 18.0625 35.515625 20.015625 
Q 33.0625 21.96875 24.703125 23.78125 
L 21.578125 24.515625 
Q 13.234375 26.265625 9.515625 29.90625 
Q 5.8125 33.546875 5.8125 39.890625 
Q 5.8125 47.609375 11.28125 51.796875 
Q 16.75 56 26.8125 56 
Q 31.78125 56 36.171875 55.265625 
Q 40.578125 54.546875 44.28125 53.078125 
z
" id="DejaVuSans-115"/>
     </defs>
     <g transform="translate(368.095333 418.316562)scale(0.1 -0.1)">
      <use xlink:href="#DejaVuSans-100"/>
      <use x="63.476562" xlink:href="#DejaVuSans-115"/>
     </g>
    </g>
   </g>
   <g id="matplotlib.axis_2">
    <g id="ytick_1">
     <g id="line2d_15">
      <path clip-path="url(#p02f5aa92d2)" d="M 60.59 347.189143 
L 687.158478 347.189143 
" style="fill:none;stroke:#808080;stroke-linecap:square;stroke-opacity:0.2;"/>
     </g>
     <g id="line2d_16">
      <defs>
       <path d="M 0 0 
L -3.5 0 
" id="me6593f3148" style="stroke:#000000;stroke-width:0.8;"/>
      </defs>
      <g>
       <use style="stroke:#000000;stroke-width:0.8;" x="60.59" xlink:href="#me6593f3148" y="347.189143"/>
      </g>
     </g>
     <g id="text_9">
      <!-- 142.5 -->
      <defs>
       <path d="M 10.6875 12.40625 
L 21 12.40625 
L 21 0 
L 10.6875 0 
z
" id="DejaVuSans-46"/>
      </defs>
      <g transform="translate(24.961875 350.988362)scale(0.1 -0.1)">
       <use xlink:href="#DejaVuSans-49"/>
       <use x="63.623047" xlink:href="#DejaVuSans-52"/>
       <use x="127.246094" xlink:href="#DejaVuSans-50"/>
       <use x="190.869141" xlink:href="#DejaVuSans-46"/>
       <use x="222.65625" xlink:href="#DejaVuSans-53"/>
      </g>
     </g>
    </g>
    <g id="ytick_2">
     <g id="line2d_17">
      <path clip-path="url(#p02f5aa92d2)" d="M 60.59 296.760462 
L 687.158478 296.760462 
" style="fill:none;stroke:#808080;stroke-linecap:square;stroke-opacity:0.2;"/>
     </g>
     <g id="line2d_18">
      <g>
       <use style="stroke:#000000;stroke-width:0.8;" x="60.59" xlink:href="#me6593f3148" y="296.760462"/>
      </g>
     </g>
     <g id="text_10">
      <!-- 145.0 -->
      <g transform="translate(24.961875 300.559681)scale(0.1 -0.1)">
       <use xlink:href="#DejaVuSans-49"/>
       <use x="63.623047" xlink:href="#DejaVuSans-52"/>
       <use x="127.246094" xlink:href="#DejaVuSans-53"/>
       <use x="190.869141" xlink:href="#DejaVuSans-46"/>
       <use x="222.65625" xlink:href="#DejaVuSans-48"/>
      </g>
     </g>
    </g>
    <g id="ytick_3">
     <g id="line2d_19">
      <path clip-path="url(#p02f5aa92d2)" d="M 60.59 246.331782 
L 687.158478 246.331782 
" style="fill:none;stroke:#808080;stroke-linecap:square;stroke-opacity:0.2;"/>
     </g>
     <g id="line2d_20">
      <g>
       <use style="stroke:#000000;stroke-width:0.8;" x="60.59" xlink:href="#me6593f3148" y="246.331782"/>
      </g>
     </g>
     <g id="text_11">
      <!-- 147.5 -->
      <g transform="translate(24.961875 250.131)scale(0.1 -0.1)">
       <use xlink:href="#DejaVuSans-49"/>
       <use x="63.623047" xlink:href="#DejaVuSans-52"/>
       <use x="127.246094" xlink:href="#DejaVuSans-55"/>
       <use x="190.869141" xlink:href="#DejaVuSans-46"/>
       <use x="222.65625" xlink:href="#DejaVuSans-53"/>
      </g>
     </g>
    </g>
    <g id="ytick_4">
     <g id="line2d_21">
      <path clip-path="url(#p02f5aa92d2)" d="M 60.59 195.903101 
L 687.158478 195.903101 
" style="fill:none;stroke:#808080;stroke-linecap:square;stroke-opacity:0.2;"/>
     </g>
     <g id="line2d_22">
      <g>
       <use style="stroke:#000000;stroke-width:0.8;" x="60.59" xlink:href="#me6593f3148" y="195.903101"/>
      </g>
     </g>
     <g id="text_12">
      <!-- 150.0 -->
      <g transform="translate(24.961875 199.70232)scale(0.1 -0.1)">
       <use xlink:href="#DejaVuSans-49"/>
       <use x="63.623047" xlink:href="#DejaVuSans-53"/>
       <use x="127.246094" xlink:href="#DejaVuSans-48"/>
       <use x="190.869141" xlink:href="#DejaVuSans-46"/>
       <use x="222.65625" xlink:href="#DejaVuSans-48"/>
      </g>
     </g>
    </g>
    <g id="ytick_5">
     <g id="line2d_23">
      <path clip-path="url(#p02f5aa92d2)" d="M 60.59 145.47442 
L 687.158478 145.47442 
" style="fill:none;stroke:#808080;stroke-linecap:square;stroke-opacity:0.2;"/>
     </g>
     <g id="line2d_24">
      <g>
       <use style="stroke:#000000;stroke-width:0.8;" x="60.59" xlink:href="#me6593f3148" y="145.47442"/>
      </g>
     </g>
     <g id="text_13">
      <!-- 152.5 -->
      <g transform="translate(24.961875 149.273639)scale(0.1 -0.1)">
       <use xlink:href="#DejaVuSans-49"/>
       <use x="63.623047" xlink:href="#DejaVuSans-53"/>
       <use x="127.246094" xlink:href="#DejaVuSans-50"/>
       <use x="190.869141" xlink:href="#DejaVuSans-46"/>
       <use x="222.65625" xlink:href="#DejaVuSans-53"/>
      </g>
     </g>
    </g>
    <g id="ytick_6">
     <g id="line2d_25">
      <path clip-path="url(#p02f5aa92d2)" d="M 60.59 95.045739 
L 687.158478 95.045739 
" style="fill:none;stroke:#808080;stroke-linecap:square;stroke-opacity:0.2;"/>
     </g>
     <g id="line2d_26">
      <g>
       <use style="stroke:#000000;stroke-width:0.8;" x="60.59" xlink:href="#me6593f3148" y="95.045739"/>
      </g>
     </g>
     <g id="text_14">
      <!-- 155.0 -->
      <g transform="translate(24.961875 98.844958)scale(0.1 -0.1)">
       <use xlink:href="#DejaVuSans-49"/>
       <use x="63.623047" xlink:href="#DejaVuSans-53"/>
       <use x="127.246094" xlink:href="#DejaVuSans-53"/>
       <use x="190.869141" xlink:href="#DejaVuSans-46"/>
       <use x="222.65625" xlink:href="#DejaVuSans-48"/>
      </g>
     </g>
    </g>
    <g id="ytick_7">
     <g id="line2d_27">
      <path clip-path="url(#p02f5aa92d2)" d="M 60.59 44.617058 
L 687.158478 44.617058 
" style="fill:none;stroke:#808080;stroke-linecap:square;stroke-opacity:0.2;"/>
     </g>
     <g id="line2d_28">
      <g>
       <use style="stroke:#000000;stroke-width:0.8;" x="60.59" xlink:href="#me6593f3148" y="44.617058"/>
      </g>
     </g>
     <g id="text_15">
      <!-- 157.5 -->
      <g transform="translate(24.961875 48.416277)scale(0.1 -0.1)">
       <use xlink:href="#DejaVuSans-49"/>
       <use x="63.623047" xlink:href="#DejaVuSans-53"/>
       <use x="127.246094" xlink:href="#DejaVuSans-55"/>
       <use x="190.869141" xlink:href="#DejaVuSans-46"/>
       <use x="222.65625" xlink:href="#DejaVuSans-53"/>
      </g>
     </g>
    </g>
    <g id="text_16">
     <!-- y -->
     <defs>
      <path d="M 32.171875 -5.078125 
Q 28.375 -14.84375 24.75 -17.8125 
Q 21.140625 -20.796875 15.09375 -20.796875 
L 7.90625 -20.796875 
L 7.90625 -13.28125 
L 13.1875 -13.28125 
Q 16.890625 -13.28125 18.9375 -11.515625 
Q 21 -9.765625 23.484375 -3.21875 
L 25.09375 0.875 
L 2.984375 54.6875 
L 12.5 54.6875 
L 29.59375 11.921875 
L 46.6875 54.6875 
L 56.203125 54.6875 
z
" id="DejaVuSans-121"/>
     </defs>
     <g transform="translate(18.882188 203.379375)rotate(-90)scale(0.1 -0.1)">
      <use xlink:href="#DejaVuSans-121"/>
     </g>
    </g>
   </g>
   <g id="line2d_29">
    <defs>
     <path d="M 0 1.5 
C 0.397805 1.5 0.77937 1.341951 1.06066 1.06066 
C 1.341951 0.77937 1.5 0.397805 1.5 0 
C 1.5 -0.397805 1.341951 -0.77937 1.06066 -1.06066 
C 0.77937 -1.341951 0.397805 -1.5 0 -1.5 
C -0.397805 -1.5 -0.77937 -1.341951 -1.06066 -1.06066 
C -1.341951 -0.77937 -1.5 -0.397805 -1.5 0 
C -1.5 0.397805 -1.341951 0.77937 -1.06066 1.06066 
C -0.77937 1.341951 -0.397805 1.5 0 1.5 
z
" id="m5ebb5a1e29" style="stroke:#000000;"/>
    </defs>
    <g clip-path="url(#p02f5aa92d2)">
     <use style="stroke:#000000;" x="89.070385" xlink:href="#m5ebb5a1e29" y="135.388684"/>
     <use style="stroke:#000000;" x="95.933129" xlink:href="#m5ebb5a1e29" y="74.874267"/>
     <use style="stroke:#000000;" x="109.658616" xlink:href="#m5ebb5a1e29" y="337.103407"/>
     <use style="stroke:#000000;" x="116.521359" xlink:href="#m5ebb5a1e29" y="337.103407"/>
     <use style="stroke:#000000;" x="130.246846" xlink:href="#m5ebb5a1e29" y="236.246045"/>
     <use style="stroke:#000000;" x="137.10959" xlink:href="#m5ebb5a1e29" y="195.903101"/>
     <use style="stroke:#000000;" x="150.835076" xlink:href="#m5ebb5a1e29" y="276.58899"/>
     <use style="stroke:#000000;" x="157.69782" xlink:href="#m5ebb5a1e29" y="216.074573"/>
     <use style="stroke:#000000;" x="171.423307" xlink:href="#m5ebb5a1e29" y="175.731628"/>
     <use style="stroke:#000000;" x="178.28605" xlink:href="#m5ebb5a1e29" y="195.903101"/>
     <use style="stroke:#000000;" x="192.011537" xlink:href="#m5ebb5a1e29" y="357.274879"/>
     <use style="stroke:#000000;" x="198.874281" xlink:href="#m5ebb5a1e29" y="296.760462"/>
     <use style="stroke:#000000;" x="219.462511" xlink:href="#m5ebb5a1e29" y="316.931935"/>
     <use style="stroke:#000000;" x="233.187998" xlink:href="#m5ebb5a1e29" y="195.903101"/>
     <use style="stroke:#000000;" x="240.050741" xlink:href="#m5ebb5a1e29" y="236.246045"/>
     <use style="stroke:#000000;" x="253.776228" xlink:href="#m5ebb5a1e29" y="74.874267"/>
     <use style="stroke:#000000;" x="274.364459" xlink:href="#m5ebb5a1e29" y="276.58899"/>
     <use style="stroke:#000000;" x="281.227202" xlink:href="#m5ebb5a1e29" y="216.074573"/>
     <use style="stroke:#000000;" x="294.952689" xlink:href="#m5ebb5a1e29" y="216.074573"/>
     <use style="stroke:#000000;" x="301.815432" xlink:href="#m5ebb5a1e29" y="34.531322"/>
     <use style="stroke:#000000;" x="315.540919" xlink:href="#m5ebb5a1e29" y="276.58899"/>
     <use style="stroke:#000000;" x="322.403663" xlink:href="#m5ebb5a1e29" y="276.58899"/>
     <use style="stroke:#000000;" x="336.12915" xlink:href="#m5ebb5a1e29" y="216.074573"/>
     <use style="stroke:#000000;" x="342.991893" xlink:href="#m5ebb5a1e29" y="155.560156"/>
     <use style="stroke:#000000;" x="356.71738" xlink:href="#m5ebb5a1e29" y="115.217211"/>
     <use style="stroke:#000000;" x="363.580124" xlink:href="#m5ebb5a1e29" y="296.760462"/>
     <use style="stroke:#000000;" x="377.305611" xlink:href="#m5ebb5a1e29" y="95.045739"/>
     <use style="stroke:#000000;" x="384.168354" xlink:href="#m5ebb5a1e29" y="95.045739"/>
     <use style="stroke:#000000;" x="397.893841" xlink:href="#m5ebb5a1e29" y="135.388684"/>
     <use style="stroke:#000000;" x="404.756584" xlink:href="#m5ebb5a1e29" y="195.903101"/>
     <use style="stroke:#000000;" x="418.482071" xlink:href="#m5ebb5a1e29" y="155.560156"/>
     <use style="stroke:#000000;" x="425.344815" xlink:href="#m5ebb5a1e29" y="54.702794"/>
     <use style="stroke:#000000;" x="439.070302" xlink:href="#m5ebb5a1e29" y="337.103407"/>
     <use style="stroke:#000000;" x="445.933045" xlink:href="#m5ebb5a1e29" y="316.931935"/>
     <use style="stroke:#000000;" x="459.658532" xlink:href="#m5ebb5a1e29" y="195.903101"/>
     <use style="stroke:#000000;" x="466.521275" xlink:href="#m5ebb5a1e29" y="316.931935"/>
     <use style="stroke:#000000;" x="480.246762" xlink:href="#m5ebb5a1e29" y="135.388684"/>
     <use style="stroke:#000000;" x="487.109506" xlink:href="#m5ebb5a1e29" y="276.58899"/>
     <use style="stroke:#000000;" x="500.834993" xlink:href="#m5ebb5a1e29" y="216.074573"/>
     <use style="stroke:#000000;" x="507.697736" xlink:href="#m5ebb5a1e29" y="195.903101"/>
     <use style="stroke:#000000;" x="521.423223" xlink:href="#m5ebb5a1e29" y="256.417518"/>
     <use style="stroke:#000000;" x="528.285967" xlink:href="#m5ebb5a1e29" y="155.560156"/>
     <use style="stroke:#000000;" x="542.011453" xlink:href="#m5ebb5a1e29" y="155.560156"/>
     <use style="stroke:#000000;" x="548.874197" xlink:href="#m5ebb5a1e29" y="175.731628"/>
     <use style="stroke:#000000;" x="562.599684" xlink:href="#m5ebb5a1e29" y="195.903101"/>
     <use style="stroke:#000000;" x="569.462427" xlink:href="#m5ebb5a1e29" y="316.931935"/>
     <use style="stroke:#000000;" x="583.187914" xlink:href="#m5ebb5a1e29" y="135.388684"/>
     <use style="stroke:#000000;" x="590.050658" xlink:href="#m5ebb5a1e29" y="95.045739"/>
     <use style="stroke:#000000;" x="603.776145" xlink:href="#m5ebb5a1e29" y="256.417518"/>
     <use style="stroke:#000000;" x="610.638888" xlink:href="#m5ebb5a1e29" y="175.731628"/>
     <use style="stroke:#000000;" x="624.364375" xlink:href="#m5ebb5a1e29" y="34.531322"/>
     <use style="stroke:#000000;" x="631.227118" xlink:href="#m5ebb5a1e29" y="95.045739"/>
     <use style="stroke:#000000;" x="644.952605" xlink:href="#m5ebb5a1e29" y="357.274879"/>
     <use style="stroke:#000000;" x="651.815349" xlink:href="#m5ebb5a1e29" y="155.560156"/>
    </g>
   </g>
   <g id="line2d_30">
    <path clip-path="url(#p02f5aa92d2)" d="M 89.070385 212.67726 
L 95.933129 195.289862 
L 109.658616 199.985341 
L 116.521359 271.228735 
L 130.246846 258.297154 
L 137.10959 206.839552 
L 150.835076 253.21243 
L 157.69782 194.147633 
L 171.423307 263.342292 
L 178.28605 252.459445 
L 192.011537 183.614445 
L 198.874281 247.374722 
L 219.462511 257.504584 
L 233.187998 195.164135 
L 240.050741 177.776737 
L 253.776228 182.472216 
L 274.364459 240.784029 
L 281.227202 189.326427 
L 294.952689 235.699305 
L 301.815432 176.634508 
L 315.540919 245.829167 
L 322.403663 234.94632 
L 336.12915 166.10132 
L 342.991893 229.861693 
L 356.71738 242.040483 
L 363.580124 239.996443 
L 377.305611 177.665397 
L 384.168354 160.282699 
L 397.893841 164.987582 
L 404.756584 236.235678 
L 418.482071 223.313735 
L 425.344815 171.860953 
L 439.070302 218.243469 
L 445.933045 159.183492 
L 459.658532 228.38779 
L 466.521275 217.509762 
L 480.246762 148.674401 
L 487.109506 212.439497 
L 500.834993 224.627732 
L 507.697736 222.583817 
L 521.423223 160.253007 
L 528.285967 142.870428 
L 542.011453 147.575546 
L 548.874197 218.823759 
L 562.599684 205.901816 
L 569.462427 154.449034 
L 583.187914 200.831551 
L 590.050658 141.771573 
L 603.776145 210.975871 
L 610.638888 200.097843 
L 624.364375 131.262482 
L 631.227118 195.027578 
L 644.952605 207.215814 
L 651.815349 205.171898 
L 658.678092 194.293871 
" style="fill:none;stroke:#0072b2;stroke-linecap:square;stroke-width:1.5;"/>
   </g>
   <g id="patch_3">
    <path d="M 60.59 390.04 
L 60.59 10.8 
" style="fill:none;stroke:#000000;stroke-linecap:square;stroke-linejoin:miter;stroke-width:0.8;"/>
   </g>
   <g id="patch_4">
    <path d="M 687.158478 390.04 
L 687.158478 10.8 
" style="fill:none;stroke:#000000;stroke-linecap:square;stroke-linejoin:miter;stroke-width:0.8;"/>
   </g>
   <g id="patch_5">
    <path d="M 60.59 390.04 
L 687.158478 390.04 
" style="fill:none;stroke:#000000;stroke-linecap:square;stroke-linejoin:miter;stroke-width:0.8;"/>
   </g>
   <g id="patch_6">
    <path d="M 60.59 10.8 
L 687.158478 10.8 
" style="fill:none;stroke:#000000;stroke-linecap:square;stroke-linejoin:miter;stroke-width:0.8;"/>
   </g>
  </g>
 </g>
 <defs>
  <clipPath id="p02f5aa92d2">
   <rect height="379.24" width="626.568478" x="60.59" y="10.8"/>
  </clipPath>
 </defs>
</svg>
