<?xml version="1.0" encoding="utf-8" standalone="no"?>
<!DOCTYPE svg PUBLIC "-//W3C//DTD SVG 1.1//EN"
  "http://www.w3.org/Graphics/SVG/1.1/DTD/svg11.dtd">
<!-- Created with matplotlib (https://matplotlib.org/) -->
<svg height="432pt" version="1.1" viewBox="0 0 720 432" width="720pt" xmlns="http://www.w3.org/2000/svg" xmlns:xlink="http://www.w3.org/1999/xlink">
 <defs>
  <style type="text/css">
*{stroke-linecap:butt;stroke-linejoin:round;}
  </style>
 </defs>
 <g id="figure_1">
  <g id="patch_1">
   <path d="M 0 432 
L 720 432 
L 720 0 
L 0 0 
z
" style="fill:#ffffff;"/>
  </g>
  <g id="axes_1">
   <g id="patch_2">
    <path d="M 51.05 390.04 
L 681.046758 390.04 
L 681.046758 10.8 
L 51.05 10.8 
z
" style="fill:#ffffff;"/>
   </g>
   <g id="PolyCollection_1">
    <defs>
     <path d="M 79.686216 -239.970053 
L 79.686216 -65.897373 
L 86.586509 -65.789628 
L 100.387096 -69.612322 
L 107.287389 -74.018012 
L 121.087975 -59.90087 
L 127.988268 -91.091175 
L 141.788854 -60.858404 
L 148.689147 -84.424023 
L 162.489733 -59.198182 
L 169.390026 -70.845309 
L 183.190612 -90.419648 
L 190.090906 -77.319924 
L 210.791785 -67.887981 
L 224.592371 -123.847185 
L 231.492664 -112.930136 
L 245.29325 -113.512214 
L 265.994129 -101.979752 
L 272.894422 -134.68551 
L 286.695009 -112.662181 
L 293.595302 -126.466108 
L 307.395888 -105.413942 
L 314.296181 -117.553697 
L 328.096767 -137.521881 
L 334.99706 -118.448117 
L 348.797646 -144.075719 
L 355.697939 -114.340314 
L 369.498526 -158.585544 
L 376.398819 -156.643596 
L 390.199405 -159.255082 
L 397.099698 -159.333133 
L 410.900284 -146.907887 
L 417.800577 -183.434454 
L 431.601163 -149.297074 
L 438.501456 -169.688847 
L 452.302042 -137.594954 
L 459.202336 -157.167654 
L 473.002922 -183.808711 
L 493.703801 -191.711075 
L 500.604094 -154.828707 
L 514.40468 -213.540646 
L 521.304973 -195.761226 
L 535.105559 -206.255455 
L 542.005852 -212.749296 
L 555.806439 -190.231222 
L 562.706732 -222.228993 
L 576.507318 -197.877033 
L 583.407611 -217.311166 
L 597.208197 -193.533029 
L 604.10849 -206.642721 
L 624.809369 -212.187744 
L 638.609956 -233.995344 
L 645.510249 -202.709385 
L 652.410542 -223.163865 
L 652.410542 -379.560702 
L 652.410542 -379.560702 
L 645.510249 -365.770131 
L 638.609956 -403.961818 
L 624.809369 -372.96886 
L 604.10849 -367.208511 
L 597.208197 -352.359864 
L 583.407611 -377.463902 
L 576.507318 -352.946211 
L 562.706732 -378.804466 
L 555.806439 -351.081625 
L 542.005852 -373.62633 
L 535.105559 -362.027523 
L 521.304973 -359.560047 
L 514.40468 -372.466033 
L 500.604094 -327.352664 
L 493.703801 -349.559407 
L 473.002922 -341.394114 
L 459.202336 -318.847939 
L 452.302042 -311.325804 
L 438.501456 -332.440786 
L 431.601163 -308.967562 
L 417.800577 -350.744999 
L 410.900284 -305.131567 
L 397.099698 -324.706707 
L 390.199405 -316.672208 
L 376.398819 -316.962661 
L 369.498526 -326.434743 
L 355.697939 -274.588931 
L 348.797646 -307.837791 
L 334.99706 -282.211966 
L 328.096767 -299.481702 
L 314.296181 -278.299192 
L 307.395888 -262.565447 
L 293.595302 -287.332269 
L 286.695009 -265.554116 
L 272.894422 -299.235373 
L 265.994129 -262.731037 
L 245.29325 -275.853749 
L 231.492664 -271.623764 
L 224.592371 -280.676015 
L 210.791785 -229.718258 
L 190.090906 -238.023785 
L 183.190612 -257.257426 
L 169.390026 -232.881849 
L 162.489733 -220.841528 
L 148.689147 -244.883872 
L 141.788854 -222.438464 
L 127.988268 -251.386347 
L 121.087975 -219.065557 
L 107.287389 -229.656587 
L 100.387096 -227.854206 
L 86.586509 -229.109072 
L 79.686216 -239.970053 
z
" id="m230fc49b91" style="stroke:#0072b2;stroke-opacity:0.2;"/>
    </defs>
    <g clip-path="url(#p544ad63ed4)">
     <use style="fill:#0072b2;fill-opacity:0.2;stroke:#0072b2;stroke-opacity:0.2;" x="0" xlink:href="#m230fc49b91" y="432"/>
    </g>
   </g>
   <g id="matplotlib.axis_1">
    <g id="xtick_1">
     <g id="line2d_1">
      <path clip-path="url(#p544ad63ed4)" d="M 100.387096 390.04 
L 100.387096 10.8 
" style="fill:none;stroke:#808080;stroke-linecap:square;stroke-opacity:0.2;"/>
     </g>
     <g id="line2d_2">
      <defs>
       <path d="M 0 0 
L 0 3.5 
" id="mdc6d7529f9" style="stroke:#000000;stroke-width:0.8;"/>
      </defs>
      <g>
       <use style="stroke:#000000;stroke-width:0.8;" x="100.387096" xlink:href="#mdc6d7529f9" y="390.04"/>
      </g>
     </g>
     <g id="text_1">
      <!-- 2019-05-05 -->
      <defs>
       <path d="M 19.1875 8.296875 
L 53.609375 8.296875 
L 53.609375 0 
L 7.328125 0 
L 7.328125 8.296875 
Q 12.9375 14.109375 22.625 23.890625 
Q 32.328125 33.6875 34.8125 36.53125 
Q 39.546875 41.84375 41.421875 45.53125 
Q 43.3125 49.21875 43.3125 52.78125 
Q 43.3125 58.59375 39.234375 62.25 
Q 35.15625 65.921875 28.609375 65.921875 
Q 23.96875 65.921875 18.8125 64.3125 
Q 13.671875 62.703125 7.8125 59.421875 
L 7.8125 69.390625 
Q 13.765625 71.78125 18.9375 73 
Q 24.125 74.21875 28.421875 74.21875 
Q 39.75 74.21875 46.484375 68.546875 
Q 53.21875 62.890625 53.21875 53.421875 
Q 53.21875 48.921875 51.53125 44.890625 
Q 49.859375 40.875 45.40625 35.40625 
Q 44.1875 33.984375 37.640625 27.21875 
Q 31.109375 20.453125 19.1875 8.296875 
z
" id="DejaVuSans-50"/>
       <path d="M 31.78125 66.40625 
Q 24.171875 66.40625 20.328125 58.90625 
Q 16.5 51.421875 16.5 36.375 
Q 16.5 21.390625 20.328125 13.890625 
Q 24.171875 6.390625 31.78125 6.390625 
Q 39.453125 6.390625 43.28125 13.890625 
Q 47.125 21.390625 47.125 36.375 
Q 47.125 51.421875 43.28125 58.90625 
Q 39.453125 66.40625 31.78125 66.40625 
z
M 31.78125 74.21875 
Q 44.046875 74.21875 50.515625 64.515625 
Q 56.984375 54.828125 56.984375 36.375 
Q 56.984375 17.96875 50.515625 8.265625 
Q 44.046875 -1.421875 31.78125 -1.421875 
Q 19.53125 -1.421875 13.0625 8.265625 
Q 6.59375 17.96875 6.59375 36.375 
Q 6.59375 54.828125 13.0625 64.515625 
Q 19.53125 74.21875 31.78125 74.21875 
z
" id="DejaVuSans-48"/>
       <path d="M 12.40625 8.296875 
L 28.515625 8.296875 
L 28.515625 63.921875 
L 10.984375 60.40625 
L 10.984375 69.390625 
L 28.421875 72.90625 
L 38.28125 72.90625 
L 38.28125 8.296875 
L 54.390625 8.296875 
L 54.390625 0 
L 12.40625 0 
z
" id="DejaVuSans-49"/>
       <path d="M 10.984375 1.515625 
L 10.984375 10.5 
Q 14.703125 8.734375 18.5 7.8125 
Q 22.3125 6.890625 25.984375 6.890625 
Q 35.75 6.890625 40.890625 13.453125 
Q 46.046875 20.015625 46.78125 33.40625 
Q 43.953125 29.203125 39.59375 26.953125 
Q 35.25 24.703125 29.984375 24.703125 
Q 19.046875 24.703125 12.671875 31.3125 
Q 6.296875 37.9375 6.296875 49.421875 
Q 6.296875 60.640625 12.9375 67.421875 
Q 19.578125 74.21875 30.609375 74.21875 
Q 43.265625 74.21875 49.921875 64.515625 
Q 56.59375 54.828125 56.59375 36.375 
Q 56.59375 19.140625 48.40625 8.859375 
Q 40.234375 -1.421875 26.421875 -1.421875 
Q 22.703125 -1.421875 18.890625 -0.6875 
Q 15.09375 0.046875 10.984375 1.515625 
z
M 30.609375 32.421875 
Q 37.25 32.421875 41.125 36.953125 
Q 45.015625 41.5 45.015625 49.421875 
Q 45.015625 57.28125 41.125 61.84375 
Q 37.25 66.40625 30.609375 66.40625 
Q 23.96875 66.40625 20.09375 61.84375 
Q 16.21875 57.28125 16.21875 49.421875 
Q 16.21875 41.5 20.09375 36.953125 
Q 23.96875 32.421875 30.609375 32.421875 
z
" id="DejaVuSans-57"/>
       <path d="M 4.890625 31.390625 
L 31.203125 31.390625 
L 31.203125 23.390625 
L 4.890625 23.390625 
z
" id="DejaVuSans-45"/>
       <path d="M 10.796875 72.90625 
L 49.515625 72.90625 
L 49.515625 64.59375 
L 19.828125 64.59375 
L 19.828125 46.734375 
Q 21.96875 47.46875 24.109375 47.828125 
Q 26.265625 48.1875 28.421875 48.1875 
Q 40.625 48.1875 47.75 41.5 
Q 54.890625 34.8125 54.890625 23.390625 
Q 54.890625 11.625 47.5625 5.09375 
Q 40.234375 -1.421875 26.90625 -1.421875 
Q 22.3125 -1.421875 17.546875 -0.640625 
Q 12.796875 0.140625 7.71875 1.703125 
L 7.71875 11.625 
Q 12.109375 9.234375 16.796875 8.0625 
Q 21.484375 6.890625 26.703125 6.890625 
Q 35.15625 6.890625 40.078125 11.328125 
Q 45.015625 15.765625 45.015625 23.390625 
Q 45.015625 31 40.078125 35.4375 
Q 35.15625 39.890625 26.703125 39.890625 
Q 22.75 39.890625 18.8125 39.015625 
Q 14.890625 38.140625 10.796875 36.28125 
z
" id="DejaVuSans-53"/>
      </defs>
      <g transform="translate(71.329283 404.638438)scale(0.1 -0.1)">
       <use xlink:href="#DejaVuSans-50"/>
       <use x="63.623047" xlink:href="#DejaVuSans-48"/>
       <use x="127.246094" xlink:href="#DejaVuSans-49"/>
       <use x="190.869141" xlink:href="#DejaVuSans-57"/>
       <use x="254.492188" xlink:href="#DejaVuSans-45"/>
       <use x="290.576172" xlink:href="#DejaVuSans-48"/>
       <use x="354.199219" xlink:href="#DejaVuSans-53"/>
       <use x="417.822266" xlink:href="#DejaVuSans-45"/>
       <use x="453.90625" xlink:href="#DejaVuSans-48"/>
       <use x="517.529297" xlink:href="#DejaVuSans-53"/>
      </g>
     </g>
    </g>
    <g id="xtick_2">
     <g id="line2d_3">
      <path clip-path="url(#p544ad63ed4)" d="M 196.991199 390.04 
L 196.991199 10.8 
" style="fill:none;stroke:#808080;stroke-linecap:square;stroke-opacity:0.2;"/>
     </g>
     <g id="line2d_4">
      <g>
       <use style="stroke:#000000;stroke-width:0.8;" x="196.991199" xlink:href="#mdc6d7529f9" y="390.04"/>
      </g>
     </g>
     <g id="text_2">
      <!-- 2019-05-19 -->
      <g transform="translate(167.933386 404.638438)scale(0.1 -0.1)">
       <use xlink:href="#DejaVuSans-50"/>
       <use x="63.623047" xlink:href="#DejaVuSans-48"/>
       <use x="127.246094" xlink:href="#DejaVuSans-49"/>
       <use x="190.869141" xlink:href="#DejaVuSans-57"/>
       <use x="254.492188" xlink:href="#DejaVuSans-45"/>
       <use x="290.576172" xlink:href="#DejaVuSans-48"/>
       <use x="354.199219" xlink:href="#DejaVuSans-53"/>
       <use x="417.822266" xlink:href="#DejaVuSans-45"/>
       <use x="453.90625" xlink:href="#DejaVuSans-49"/>
       <use x="517.529297" xlink:href="#DejaVuSans-57"/>
      </g>
     </g>
    </g>
    <g id="xtick_3">
     <g id="line2d_5">
      <path clip-path="url(#p544ad63ed4)" d="M 293.595302 390.04 
L 293.595302 10.8 
" style="fill:none;stroke:#808080;stroke-linecap:square;stroke-opacity:0.2;"/>
     </g>
     <g id="line2d_6">
      <g>
       <use style="stroke:#000000;stroke-width:0.8;" x="293.595302" xlink:href="#mdc6d7529f9" y="390.04"/>
      </g>
     </g>
     <g id="text_3">
      <!-- 2019-06-02 -->
      <defs>
       <path d="M 33.015625 40.375 
Q 26.375 40.375 22.484375 35.828125 
Q 18.609375 31.296875 18.609375 23.390625 
Q 18.609375 15.53125 22.484375 10.953125 
Q 26.375 6.390625 33.015625 6.390625 
Q 39.65625 6.390625 43.53125 10.953125 
Q 47.40625 15.53125 47.40625 23.390625 
Q 47.40625 31.296875 43.53125 35.828125 
Q 39.65625 40.375 33.015625 40.375 
z
M 52.59375 71.296875 
L 52.59375 62.3125 
Q 48.875 64.0625 45.09375 64.984375 
Q 41.3125 65.921875 37.59375 65.921875 
Q 27.828125 65.921875 22.671875 59.328125 
Q 17.53125 52.734375 16.796875 39.40625 
Q 19.671875 43.65625 24.015625 45.921875 
Q 28.375 48.1875 33.59375 48.1875 
Q 44.578125 48.1875 50.953125 41.515625 
Q 57.328125 34.859375 57.328125 23.390625 
Q 57.328125 12.15625 50.6875 5.359375 
Q 44.046875 -1.421875 33.015625 -1.421875 
Q 20.359375 -1.421875 13.671875 8.265625 
Q 6.984375 17.96875 6.984375 36.375 
Q 6.984375 53.65625 15.1875 63.9375 
Q 23.390625 74.21875 37.203125 74.21875 
Q 40.921875 74.21875 44.703125 73.484375 
Q 48.484375 72.75 52.59375 71.296875 
z
" id="DejaVuSans-54"/>
      </defs>
      <g transform="translate(264.537489 404.638438)scale(0.1 -0.1)">
       <use xlink:href="#DejaVuSans-50"/>
       <use x="63.623047" xlink:href="#DejaVuSans-48"/>
       <use x="127.246094" xlink:href="#DejaVuSans-49"/>
       <use x="190.869141" xlink:href="#DejaVuSans-57"/>
       <use x="254.492188" xlink:href="#DejaVuSans-45"/>
       <use x="290.576172" xlink:href="#DejaVuSans-48"/>
       <use x="354.199219" xlink:href="#DejaVuSans-54"/>
       <use x="417.822266" xlink:href="#DejaVuSans-45"/>
       <use x="453.90625" xlink:href="#DejaVuSans-48"/>
       <use x="517.529297" xlink:href="#DejaVuSans-50"/>
      </g>
     </g>
    </g>
    <g id="xtick_4">
     <g id="line2d_7">
      <path clip-path="url(#p544ad63ed4)" d="M 390.199405 390.04 
L 390.199405 10.8 
" style="fill:none;stroke:#808080;stroke-linecap:square;stroke-opacity:0.2;"/>
     </g>
     <g id="line2d_8">
      <g>
       <use style="stroke:#000000;stroke-width:0.8;" x="390.199405" xlink:href="#mdc6d7529f9" y="390.04"/>
      </g>
     </g>
     <g id="text_4">
      <!-- 2019-06-16 -->
      <g transform="translate(361.141592 404.638438)scale(0.1 -0.1)">
       <use xlink:href="#DejaVuSans-50"/>
       <use x="63.623047" xlink:href="#DejaVuSans-48"/>
       <use x="127.246094" xlink:href="#DejaVuSans-49"/>
       <use x="190.869141" xlink:href="#DejaVuSans-57"/>
       <use x="254.492188" xlink:href="#DejaVuSans-45"/>
       <use x="290.576172" xlink:href="#DejaVuSans-48"/>
       <use x="354.199219" xlink:href="#DejaVuSans-54"/>
       <use x="417.822266" xlink:href="#DejaVuSans-45"/>
       <use x="453.90625" xlink:href="#DejaVuSans-49"/>
       <use x="517.529297" xlink:href="#DejaVuSans-54"/>
      </g>
     </g>
    </g>
    <g id="xtick_5">
     <g id="line2d_9">
      <path clip-path="url(#p544ad63ed4)" d="M 486.803508 390.04 
L 486.803508 10.8 
" style="fill:none;stroke:#808080;stroke-linecap:square;stroke-opacity:0.2;"/>
     </g>
     <g id="line2d_10">
      <g>
       <use style="stroke:#000000;stroke-width:0.8;" x="486.803508" xlink:href="#mdc6d7529f9" y="390.04"/>
      </g>
     </g>
     <g id="text_5">
      <!-- 2019-06-30 -->
      <defs>
       <path d="M 40.578125 39.3125 
Q 47.65625 37.796875 51.625 33 
Q 55.609375 28.21875 55.609375 21.1875 
Q 55.609375 10.40625 48.1875 4.484375 
Q 40.765625 -1.421875 27.09375 -1.421875 
Q 22.515625 -1.421875 17.65625 -0.515625 
Q 12.796875 0.390625 7.625 2.203125 
L 7.625 11.71875 
Q 11.71875 9.328125 16.59375 8.109375 
Q 21.484375 6.890625 26.8125 6.890625 
Q 36.078125 6.890625 40.9375 10.546875 
Q 45.796875 14.203125 45.796875 21.1875 
Q 45.796875 27.640625 41.28125 31.265625 
Q 36.765625 34.90625 28.71875 34.90625 
L 20.21875 34.90625 
L 20.21875 43.015625 
L 29.109375 43.015625 
Q 36.375 43.015625 40.234375 45.921875 
Q 44.09375 48.828125 44.09375 54.296875 
Q 44.09375 59.90625 40.109375 62.90625 
Q 36.140625 65.921875 28.71875 65.921875 
Q 24.65625 65.921875 20.015625 65.03125 
Q 15.375 64.15625 9.8125 62.3125 
L 9.8125 71.09375 
Q 15.4375 72.65625 20.34375 73.4375 
Q 25.25 74.21875 29.59375 74.21875 
Q 40.828125 74.21875 47.359375 69.109375 
Q 53.90625 64.015625 53.90625 55.328125 
Q 53.90625 49.265625 50.4375 45.09375 
Q 46.96875 40.921875 40.578125 39.3125 
z
" id="DejaVuSans-51"/>
      </defs>
      <g transform="translate(457.745695 404.638438)scale(0.1 -0.1)">
       <use xlink:href="#DejaVuSans-50"/>
       <use x="63.623047" xlink:href="#DejaVuSans-48"/>
       <use x="127.246094" xlink:href="#DejaVuSans-49"/>
       <use x="190.869141" xlink:href="#DejaVuSans-57"/>
       <use x="254.492188" xlink:href="#DejaVuSans-45"/>
       <use x="290.576172" xlink:href="#DejaVuSans-48"/>
       <use x="354.199219" xlink:href="#DejaVuSans-54"/>
       <use x="417.822266" xlink:href="#DejaVuSans-45"/>
       <use x="453.90625" xlink:href="#DejaVuSans-51"/>
       <use x="517.529297" xlink:href="#DejaVuSans-48"/>
      </g>
     </g>
    </g>
    <g id="xtick_6">
     <g id="line2d_11">
      <path clip-path="url(#p544ad63ed4)" d="M 583.407611 390.04 
L 583.407611 10.8 
" style="fill:none;stroke:#808080;stroke-linecap:square;stroke-opacity:0.2;"/>
     </g>
     <g id="line2d_12">
      <g>
       <use style="stroke:#000000;stroke-width:0.8;" x="583.407611" xlink:href="#mdc6d7529f9" y="390.04"/>
      </g>
     </g>
     <g id="text_6">
      <!-- 2019-07-14 -->
      <defs>
       <path d="M 8.203125 72.90625 
L 55.078125 72.90625 
L 55.078125 68.703125 
L 28.609375 0 
L 18.3125 0 
L 43.21875 64.59375 
L 8.203125 64.59375 
z
" id="DejaVuSans-55"/>
       <path d="M 37.796875 64.3125 
L 12.890625 25.390625 
L 37.796875 25.390625 
z
M 35.203125 72.90625 
L 47.609375 72.90625 
L 47.609375 25.390625 
L 58.015625 25.390625 
L 58.015625 17.1875 
L 47.609375 17.1875 
L 47.609375 0 
L 37.796875 0 
L 37.796875 17.1875 
L 4.890625 17.1875 
L 4.890625 26.703125 
z
" id="DejaVuSans-52"/>
      </defs>
      <g transform="translate(554.349798 404.638438)scale(0.1 -0.1)">
       <use xlink:href="#DejaVuSans-50"/>
       <use x="63.623047" xlink:href="#DejaVuSans-48"/>
       <use x="127.246094" xlink:href="#DejaVuSans-49"/>
       <use x="190.869141" xlink:href="#DejaVuSans-57"/>
       <use x="254.492188" xlink:href="#DejaVuSans-45"/>
       <use x="290.576172" xlink:href="#DejaVuSans-48"/>
       <use x="354.199219" xlink:href="#DejaVuSans-55"/>
       <use x="417.822266" xlink:href="#DejaVuSans-45"/>
       <use x="453.90625" xlink:href="#DejaVuSans-49"/>
       <use x="517.529297" xlink:href="#DejaVuSans-52"/>
      </g>
     </g>
    </g>
    <g id="xtick_7">
     <g id="line2d_13">
      <path clip-path="url(#p544ad63ed4)" d="M 680.011714 390.04 
L 680.011714 10.8 
" style="fill:none;stroke:#808080;stroke-linecap:square;stroke-opacity:0.2;"/>
     </g>
     <g id="line2d_14">
      <g>
       <use style="stroke:#000000;stroke-width:0.8;" x="680.011714" xlink:href="#mdc6d7529f9" y="390.04"/>
      </g>
     </g>
     <g id="text_7">
      <!-- 2019-07-28 -->
      <defs>
       <path d="M 31.78125 34.625 
Q 24.75 34.625 20.71875 30.859375 
Q 16.703125 27.09375 16.703125 20.515625 
Q 16.703125 13.921875 20.71875 10.15625 
Q 24.75 6.390625 31.78125 6.390625 
Q 38.8125 6.390625 42.859375 10.171875 
Q 46.921875 13.96875 46.921875 20.515625 
Q 46.921875 27.09375 42.890625 30.859375 
Q 38.875 34.625 31.78125 34.625 
z
M 21.921875 38.8125 
Q 15.578125 40.375 12.03125 44.71875 
Q 8.5 49.078125 8.5 55.328125 
Q 8.5 64.0625 14.71875 69.140625 
Q 20.953125 74.21875 31.78125 74.21875 
Q 42.671875 74.21875 48.875 69.140625 
Q 55.078125 64.0625 55.078125 55.328125 
Q 55.078125 49.078125 51.53125 44.71875 
Q 48 40.375 41.703125 38.8125 
Q 48.828125 37.15625 52.796875 32.3125 
Q 56.78125 27.484375 56.78125 20.515625 
Q 56.78125 9.90625 50.3125 4.234375 
Q 43.84375 -1.421875 31.78125 -1.421875 
Q 19.734375 -1.421875 13.25 4.234375 
Q 6.78125 9.90625 6.78125 20.515625 
Q 6.78125 27.484375 10.78125 32.3125 
Q 14.796875 37.15625 21.921875 38.8125 
z
M 18.3125 54.390625 
Q 18.3125 48.734375 21.84375 45.5625 
Q 25.390625 42.390625 31.78125 42.390625 
Q 38.140625 42.390625 41.71875 45.5625 
Q 45.3125 48.734375 45.3125 54.390625 
Q 45.3125 60.0625 41.71875 63.234375 
Q 38.140625 66.40625 31.78125 66.40625 
Q 25.390625 66.40625 21.84375 63.234375 
Q 18.3125 60.0625 18.3125 54.390625 
z
" id="DejaVuSans-56"/>
      </defs>
      <g transform="translate(650.953901 404.638438)scale(0.1 -0.1)">
       <use xlink:href="#DejaVuSans-50"/>
       <use x="63.623047" xlink:href="#DejaVuSans-48"/>
       <use x="127.246094" xlink:href="#DejaVuSans-49"/>
       <use x="190.869141" xlink:href="#DejaVuSans-57"/>
       <use x="254.492188" xlink:href="#DejaVuSans-45"/>
       <use x="290.576172" xlink:href="#DejaVuSans-48"/>
       <use x="354.199219" xlink:href="#DejaVuSans-55"/>
       <use x="417.822266" xlink:href="#DejaVuSans-45"/>
       <use x="453.90625" xlink:href="#DejaVuSans-50"/>
       <use x="517.529297" xlink:href="#DejaVuSans-56"/>
      </g>
     </g>
    </g>
    <g id="text_8">
     <!-- ds -->
     <defs>
      <path d="M 45.40625 46.390625 
L 45.40625 75.984375 
L 54.390625 75.984375 
L 54.390625 0 
L 45.40625 0 
L 45.40625 8.203125 
Q 42.578125 3.328125 38.25 0.953125 
Q 33.9375 -1.421875 27.875 -1.421875 
Q 17.96875 -1.421875 11.734375 6.484375 
Q 5.515625 14.40625 5.515625 27.296875 
Q 5.515625 40.1875 11.734375 48.09375 
Q 17.96875 56 27.875 56 
Q 33.9375 56 38.25 53.625 
Q 42.578125 51.265625 45.40625 46.390625 
z
M 14.796875 27.296875 
Q 14.796875 17.390625 18.875 11.75 
Q 22.953125 6.109375 30.078125 6.109375 
Q 37.203125 6.109375 41.296875 11.75 
Q 45.40625 17.390625 45.40625 27.296875 
Q 45.40625 37.203125 41.296875 42.84375 
Q 37.203125 48.484375 30.078125 48.484375 
Q 22.953125 48.484375 18.875 42.84375 
Q 14.796875 37.203125 14.796875 27.296875 
z
" id="DejaVuSans-100"/>
      <path d="M 44.28125 53.078125 
L 44.28125 44.578125 
Q 40.484375 46.53125 36.375 47.5 
Q 32.28125 48.484375 27.875 48.484375 
Q 21.1875 48.484375 17.84375 46.4375 
Q 14.5 44.390625 14.5 40.28125 
Q 14.5 37.15625 16.890625 35.375 
Q 19.28125 33.59375 26.515625 31.984375 
L 29.59375 31.296875 
Q 39.15625 29.25 43.1875 25.515625 
Q 47.21875 21.78125 47.21875 15.09375 
Q 47.21875 7.46875 41.1875 3.015625 
Q 35.15625 -1.421875 24.609375 -1.421875 
Q 20.21875 -1.421875 15.453125 -0.5625 
Q 10.6875 0.296875 5.421875 2 
L 5.421875 11.28125 
Q 10.40625 8.6875 15.234375 7.390625 
Q 20.0625 6.109375 24.8125 6.109375 
Q 31.15625 6.109375 34.5625 8.28125 
Q 37.984375 10.453125 37.984375 14.40625 
Q 37.984375 18.0625 35.515625 20.015625 
Q 33.0625 21.96875 24.703125 23.78125 
L 21.578125 24.515625 
Q 13.234375 26.265625 9.515625 29.90625 
Q 5.8125 33.546875 5.8125 39.890625 
Q 5.8125 47.609375 11.28125 51.796875 
Q 16.75 56 26.8125 56 
Q 31.78125 56 36.171875 55.265625 
Q 40.578125 54.546875 44.28125 53.078125 
z
" id="DejaVuSans-115"/>
     </defs>
     <g transform="translate(360.269473 418.316562)scale(0.1 -0.1)">
      <use xlink:href="#DejaVuSans-100"/>
      <use x="63.476562" xlink:href="#DejaVuSans-115"/>
     </g>
    </g>
   </g>
   <g id="matplotlib.axis_2">
    <g id="ytick_1">
     <g id="line2d_15">
      <path clip-path="url(#p544ad63ed4)" d="M 51.05 355.558303 
L 681.046758 355.558303 
" style="fill:none;stroke:#808080;stroke-linecap:square;stroke-opacity:0.2;"/>
     </g>
     <g id="line2d_16">
      <defs>
       <path d="M 0 0 
L -3.5 0 
" id="m302fe2f43e" style="stroke:#000000;stroke-width:0.8;"/>
      </defs>
      <g>
       <use style="stroke:#000000;stroke-width:0.8;" x="51.05" xlink:href="#m302fe2f43e" y="355.558303"/>
      </g>
     </g>
     <g id="text_9">
      <!-- 100 -->
      <g transform="translate(24.9625 359.357522)scale(0.1 -0.1)">
       <use xlink:href="#DejaVuSans-49"/>
       <use x="63.623047" xlink:href="#DejaVuSans-48"/>
       <use x="127.246094" xlink:href="#DejaVuSans-48"/>
      </g>
     </g>
    </g>
    <g id="ytick_2">
     <g id="line2d_17">
      <path clip-path="url(#p544ad63ed4)" d="M 51.05 300.301686 
L 681.046758 300.301686 
" style="fill:none;stroke:#808080;stroke-linecap:square;stroke-opacity:0.2;"/>
     </g>
     <g id="line2d_18">
      <g>
       <use style="stroke:#000000;stroke-width:0.8;" x="51.05" xlink:href="#m302fe2f43e" y="300.301686"/>
      </g>
     </g>
     <g id="text_10">
      <!-- 110 -->
      <g transform="translate(24.9625 304.100904)scale(0.1 -0.1)">
       <use xlink:href="#DejaVuSans-49"/>
       <use x="63.623047" xlink:href="#DejaVuSans-49"/>
       <use x="127.246094" xlink:href="#DejaVuSans-48"/>
      </g>
     </g>
    </g>
    <g id="ytick_3">
     <g id="line2d_19">
      <path clip-path="url(#p544ad63ed4)" d="M 51.05 245.045068 
L 681.046758 245.045068 
" style="fill:none;stroke:#808080;stroke-linecap:square;stroke-opacity:0.2;"/>
     </g>
     <g id="line2d_20">
      <g>
       <use style="stroke:#000000;stroke-width:0.8;" x="51.05" xlink:href="#m302fe2f43e" y="245.045068"/>
      </g>
     </g>
     <g id="text_11">
      <!-- 120 -->
      <g transform="translate(24.9625 248.844287)scale(0.1 -0.1)">
       <use xlink:href="#DejaVuSans-49"/>
       <use x="63.623047" xlink:href="#DejaVuSans-50"/>
       <use x="127.246094" xlink:href="#DejaVuSans-48"/>
      </g>
     </g>
    </g>
    <g id="ytick_4">
     <g id="line2d_21">
      <path clip-path="url(#p544ad63ed4)" d="M 51.05 189.788451 
L 681.046758 189.788451 
" style="fill:none;stroke:#808080;stroke-linecap:square;stroke-opacity:0.2;"/>
     </g>
     <g id="line2d_22">
      <g>
       <use style="stroke:#000000;stroke-width:0.8;" x="51.05" xlink:href="#m302fe2f43e" y="189.788451"/>
      </g>
     </g>
     <g id="text_12">
      <!-- 130 -->
      <g transform="translate(24.9625 193.58767)scale(0.1 -0.1)">
       <use xlink:href="#DejaVuSans-49"/>
       <use x="63.623047" xlink:href="#DejaVuSans-51"/>
       <use x="127.246094" xlink:href="#DejaVuSans-48"/>
      </g>
     </g>
    </g>
    <g id="ytick_5">
     <g id="line2d_23">
      <path clip-path="url(#p544ad63ed4)" d="M 51.05 134.531834 
L 681.046758 134.531834 
" style="fill:none;stroke:#808080;stroke-linecap:square;stroke-opacity:0.2;"/>
     </g>
     <g id="line2d_24">
      <g>
       <use style="stroke:#000000;stroke-width:0.8;" x="51.05" xlink:href="#m302fe2f43e" y="134.531834"/>
      </g>
     </g>
     <g id="text_13">
      <!-- 140 -->
      <g transform="translate(24.9625 138.331053)scale(0.1 -0.1)">
       <use xlink:href="#DejaVuSans-49"/>
       <use x="63.623047" xlink:href="#DejaVuSans-52"/>
       <use x="127.246094" xlink:href="#DejaVuSans-48"/>
      </g>
     </g>
    </g>
    <g id="ytick_6">
     <g id="line2d_25">
      <path clip-path="url(#p544ad63ed4)" d="M 51.05 79.275217 
L 681.046758 79.275217 
" style="fill:none;stroke:#808080;stroke-linecap:square;stroke-opacity:0.2;"/>
     </g>
     <g id="line2d_26">
      <g>
       <use style="stroke:#000000;stroke-width:0.8;" x="51.05" xlink:href="#m302fe2f43e" y="79.275217"/>
      </g>
     </g>
     <g id="text_14">
      <!-- 150 -->
      <g transform="translate(24.9625 83.074436)scale(0.1 -0.1)">
       <use xlink:href="#DejaVuSans-49"/>
       <use x="63.623047" xlink:href="#DejaVuSans-53"/>
       <use x="127.246094" xlink:href="#DejaVuSans-48"/>
      </g>
     </g>
    </g>
    <g id="ytick_7">
     <g id="line2d_27">
      <path clip-path="url(#p544ad63ed4)" d="M 51.05 24.0186 
L 681.046758 24.0186 
" style="fill:none;stroke:#808080;stroke-linecap:square;stroke-opacity:0.2;"/>
     </g>
     <g id="line2d_28">
      <g>
       <use style="stroke:#000000;stroke-width:0.8;" x="51.05" xlink:href="#m302fe2f43e" y="24.0186"/>
      </g>
     </g>
     <g id="text_15">
      <!-- 160 -->
      <g transform="translate(24.9625 27.817818)scale(0.1 -0.1)">
       <use xlink:href="#DejaVuSans-49"/>
       <use x="63.623047" xlink:href="#DejaVuSans-54"/>
       <use x="127.246094" xlink:href="#DejaVuSans-48"/>
      </g>
     </g>
    </g>
    <g id="text_16">
     <!-- y -->
     <defs>
      <path d="M 32.171875 -5.078125 
Q 28.375 -14.84375 24.75 -17.8125 
Q 21.140625 -20.796875 15.09375 -20.796875 
L 7.90625 -20.796875 
L 7.90625 -13.28125 
L 13.1875 -13.28125 
Q 16.890625 -13.28125 18.9375 -11.515625 
Q 21 -9.765625 23.484375 -3.21875 
L 25.09375 0.875 
L 2.984375 54.6875 
L 12.5 54.6875 
L 29.59375 11.921875 
L 46.6875 54.6875 
L 56.203125 54.6875 
z
" id="DejaVuSans-121"/>
     </defs>
     <g transform="translate(18.882812 203.379375)rotate(-90)scale(0.1 -0.1)">
      <use xlink:href="#DejaVuSans-121"/>
     </g>
    </g>
   </g>
   <g id="line2d_29">
    <defs>
     <path d="M 0 1.5 
C 0.397805 1.5 0.77937 1.341951 1.06066 1.06066 
C 1.341951 0.77937 1.5 0.397805 1.5 0 
C 1.5 -0.397805 1.341951 -0.77937 1.06066 -1.06066 
C 0.77937 -1.341951 0.397805 -1.5 0 -1.5 
C -0.397805 -1.5 -0.77937 -1.341951 -1.06066 -1.06066 
C -1.341951 -0.77937 -1.5 -0.397805 -1.5 0 
C -1.5 0.397805 -1.341951 0.77937 -1.06066 1.06066 
C -0.77937 1.341951 -0.397805 1.5 0 1.5 
z
" id="m0b902ecf42" style="stroke:#000000;"/>
    </defs>
    <g clip-path="url(#p544ad63ed4)">
     <use style="stroke:#000000;" x="79.686216" xlink:href="#m0b902ecf42" y="206.365436"/>
     <use style="stroke:#000000;" x="86.586509" xlink:href="#m0b902ecf42" y="322.404333"/>
     <use style="stroke:#000000;" x="100.387096" xlink:href="#m0b902ecf42" y="327.929994"/>
     <use style="stroke:#000000;" x="107.287389" xlink:href="#m0b902ecf42" y="327.929994"/>
     <use style="stroke:#000000;" x="121.087975" xlink:href="#m0b902ecf42" y="211.891098"/>
     <use style="stroke:#000000;" x="127.988268" xlink:href="#m0b902ecf42" y="250.57073"/>
     <use style="stroke:#000000;" x="141.788854" xlink:href="#m0b902ecf42" y="316.878671"/>
     <use style="stroke:#000000;" x="148.689147" xlink:href="#m0b902ecf42" y="300.301686"/>
     <use style="stroke:#000000;" x="162.489733" xlink:href="#m0b902ecf42" y="283.724701"/>
     <use style="stroke:#000000;" x="169.390026" xlink:href="#m0b902ecf42" y="289.250362"/>
     <use style="stroke:#000000;" x="183.190612" xlink:href="#m0b902ecf42" y="327.929994"/>
     <use style="stroke:#000000;" x="190.090906" xlink:href="#m0b902ecf42" y="239.519407"/>
     <use style="stroke:#000000;" x="210.791785" xlink:href="#m0b902ecf42" y="311.353009"/>
     <use style="stroke:#000000;" x="224.592371" xlink:href="#m0b902ecf42" y="289.250362"/>
     <use style="stroke:#000000;" x="231.492664" xlink:href="#m0b902ecf42" y="233.993745"/>
     <use style="stroke:#000000;" x="245.29325" xlink:href="#m0b902ecf42" y="156.634481"/>
     <use style="stroke:#000000;" x="265.994129" xlink:href="#m0b902ecf42" y="311.353009"/>
     <use style="stroke:#000000;" x="272.894422" xlink:href="#m0b902ecf42" y="206.365436"/>
     <use style="stroke:#000000;" x="286.695009" xlink:href="#m0b902ecf42" y="228.468083"/>
     <use style="stroke:#000000;" x="293.595302" xlink:href="#m0b902ecf42" y="189.788451"/>
     <use style="stroke:#000000;" x="307.395888" xlink:href="#m0b902ecf42" y="283.724701"/>
     <use style="stroke:#000000;" x="314.296181" xlink:href="#m0b902ecf42" y="289.250362"/>
     <use style="stroke:#000000;" x="328.096767" xlink:href="#m0b902ecf42" y="178.737128"/>
     <use style="stroke:#000000;" x="334.99706" xlink:href="#m0b902ecf42" y="256.096392"/>
     <use style="stroke:#000000;" x="348.797646" xlink:href="#m0b902ecf42" y="289.250362"/>
     <use style="stroke:#000000;" x="355.697939" xlink:href="#m0b902ecf42" y="189.788451"/>
     <use style="stroke:#000000;" x="369.498526" xlink:href="#m0b902ecf42" y="195.314113"/>
     <use style="stroke:#000000;" x="376.398819" xlink:href="#m0b902ecf42" y="289.250362"/>
     <use style="stroke:#000000;" x="390.199405" xlink:href="#m0b902ecf42" y="239.519407"/>
     <use style="stroke:#000000;" x="397.099698" xlink:href="#m0b902ecf42" y="184.26279"/>
     <use style="stroke:#000000;" x="410.900284" xlink:href="#m0b902ecf42" y="140.057496"/>
     <use style="stroke:#000000;" x="417.800577" xlink:href="#m0b902ecf42" y="222.942422"/>
     <use style="stroke:#000000;" x="431.601163" xlink:href="#m0b902ecf42" y="156.634481"/>
     <use style="stroke:#000000;" x="438.501456" xlink:href="#m0b902ecf42" y="117.954849"/>
     <use style="stroke:#000000;" x="452.302042" xlink:href="#m0b902ecf42" y="112.429187"/>
     <use style="stroke:#000000;" x="459.202336" xlink:href="#m0b902ecf42" y="211.891098"/>
     <use style="stroke:#000000;" x="473.002922" xlink:href="#m0b902ecf42" y="51.646908"/>
     <use style="stroke:#000000;" x="493.703801" xlink:href="#m0b902ecf42" y="35.069923"/>
     <use style="stroke:#000000;" x="500.604094" xlink:href="#m0b902ecf42" y="62.698232"/>
     <use style="stroke:#000000;" x="514.40468" xlink:href="#m0b902ecf42" y="129.006172"/>
     <use style="stroke:#000000;" x="521.304973" xlink:href="#m0b902ecf42" y="112.429187"/>
     <use style="stroke:#000000;" x="535.105559" xlink:href="#m0b902ecf42" y="35.069923"/>
     <use style="stroke:#000000;" x="542.005852" xlink:href="#m0b902ecf42" y="106.903525"/>
     <use style="stroke:#000000;" x="555.806439" xlink:href="#m0b902ecf42" y="162.160143"/>
     <use style="stroke:#000000;" x="562.706732" xlink:href="#m0b902ecf42" y="106.903525"/>
     <use style="stroke:#000000;" x="576.507318" xlink:href="#m0b902ecf42" y="222.942422"/>
     <use style="stroke:#000000;" x="583.407611" xlink:href="#m0b902ecf42" y="305.827347"/>
     <use style="stroke:#000000;" x="597.208197" xlink:href="#m0b902ecf42" y="267.147715"/>
     <use style="stroke:#000000;" x="604.10849" xlink:href="#m0b902ecf42" y="145.583157"/>
     <use style="stroke:#000000;" x="624.809369" xlink:href="#m0b902ecf42" y="112.429187"/>
     <use style="stroke:#000000;" x="638.609956" xlink:href="#m0b902ecf42" y="151.108819"/>
     <use style="stroke:#000000;" x="645.510249" xlink:href="#m0b902ecf42" y="256.096392"/>
    </g>
   </g>
   <g id="line2d_30">
    <path clip-path="url(#p544ad63ed4)" d="M 79.686216 275.987973 
L 86.586509 287.347437 
L 100.387096 284.238121 
L 107.287389 280.351986 
L 121.087975 295.227434 
L 127.988268 260.997317 
L 141.788854 289.789241 
L 148.689147 269.247465 
L 162.489733 295.962896 
L 169.390026 280.236777 
L 183.190612 257.366124 
L 190.090906 274.798584 
L 210.791785 280.972239 
L 224.592371 231.016003 
L 231.492664 242.375467 
L 245.29325 239.266151 
L 265.994129 250.255463 
L 272.894422 216.025346 
L 286.695009 244.81727 
L 293.595302 224.275495 
L 307.395888 250.990926 
L 314.296181 235.264807 
L 328.096767 212.394154 
L 334.99706 229.826614 
L 348.797646 205.398702 
L 355.697939 236.000269 
L 369.498526 186.044033 
L 376.398819 197.407384 
L 390.199405 194.305841 
L 397.099698 190.423592 
L 410.900284 205.306813 
L 417.800577 171.080583 
L 431.601163 199.880281 
L 438.501456 179.342402 
L 452.302042 206.065626 
L 459.202336 190.343878 
L 473.002922 167.482661 
L 493.703801 160.501362 
L 500.604094 191.109547 
L 514.40468 141.16769 
L 521.304973 152.534343 
L 535.105559 149.446121 
L 542.005852 145.570532 
L 555.806439 160.467073 
L 562.706732 126.247503 
L 576.507318 155.060521 
L 583.407611 134.529292 
L 597.208197 161.265816 
L 604.10849 145.550244 
L 624.809369 140.143692 
L 638.609956 115.736874 
L 645.510249 146.348987 
L 652.410542 130.633415 
" style="fill:none;stroke:#0072b2;stroke-linecap:square;stroke-width:1.5;"/>
   </g>
   <g id="patch_3">
    <path d="M 51.05 390.04 
L 51.05 10.8 
" style="fill:none;stroke:#000000;stroke-linecap:square;stroke-linejoin:miter;stroke-width:0.8;"/>
   </g>
   <g id="patch_4">
    <path d="M 681.046758 390.04 
L 681.046758 10.8 
" style="fill:none;stroke:#000000;stroke-linecap:square;stroke-linejoin:miter;stroke-width:0.8;"/>
   </g>
   <g id="patch_5">
    <path d="M 51.05 390.04 
L 681.046758 390.04 
" style="fill:none;stroke:#000000;stroke-linecap:square;stroke-linejoin:miter;stroke-width:0.8;"/>
   </g>
   <g id="patch_6">
    <path d="M 51.05 10.8 
L 681.046758 10.8 
" style="fill:none;stroke:#000000;stroke-linecap:square;stroke-linejoin:miter;stroke-width:0.8;"/>
   </g>
  </g>
 </g>
 <defs>
  <clipPath id="p544ad63ed4">
   <rect height="379.24" width="629.996758" x="51.05" y="10.8"/>
  </clipPath>
 </defs>
</svg>
