<?xml version="1.0" encoding="utf-8" standalone="no"?>
<!DOCTYPE svg PUBLIC "-//W3C//DTD SVG 1.1//EN"
  "http://www.w3.org/Graphics/SVG/1.1/DTD/svg11.dtd">
<!-- Created with matplotlib (https://matplotlib.org/) -->
<svg height="432pt" version="1.1" viewBox="0 0 720 432" width="720pt" xmlns="http://www.w3.org/2000/svg" xmlns:xlink="http://www.w3.org/1999/xlink">
 <defs>
  <style type="text/css">
*{stroke-linecap:butt;stroke-linejoin:round;}
  </style>
 </defs>
 <g id="figure_1">
  <g id="patch_1">
   <path d="M 0 432 
L 720 432 
L 720 0 
L 0 0 
z
" style="fill:#ffffff;"/>
  </g>
  <g id="axes_1">
   <g id="patch_2">
    <path d="M 51.05 390.04 
L 687.158478 390.04 
L 687.158478 10.8 
L 51.05 10.8 
z
" style="fill:#ffffff;"/>
   </g>
   <g id="PolyCollection_1">
    <defs>
     <path d="M 79.964022 -376.962555 
L 79.964022 -233.808194 
L 86.931256 -227.857505 
L 100.865724 -236.613342 
L 107.832958 -270.374184 
L 121.767427 -190.831817 
L 128.734661 -225.870078 
L 142.669129 -185.661108 
L 149.636363 -224.506729 
L 163.570831 -216.929365 
L 170.538066 -180.719764 
L 184.472534 -207.362702 
L 191.439768 -178.439438 
L 212.34147 -204.184045 
L 226.275939 -205.729037 
L 233.243173 -199.70919 
L 247.177641 -201.386369 
L 268.079344 -163.390582 
L 275.046578 -193.258781 
L 288.981046 -160.012791 
L 295.94828 -197.043608 
L 309.882749 -184.631898 
L 316.849983 -149.340353 
L 330.784451 -178.920291 
L 337.751685 -153.250072 
L 351.686153 -218.540836 
L 358.653388 -175.85615 
L 372.587856 -174.367423 
L 379.55509 -171.809959 
L 393.489558 -174.374595 
L 400.456792 -209.439215 
L 414.391261 -136.214052 
L 421.358495 -172.772507 
L 435.292963 -135.46991 
L 442.260197 -161.27258 
L 456.194666 -157.843144 
L 463.1619 -120.755668 
L 477.096368 -145.839439 
L 484.063602 -116.922963 
L 497.99807 -180.846644 
L 504.965305 -141.060657 
L 518.899773 -139.674305 
L 525.867007 -132.44908 
L 539.801475 -136.180307 
L 546.76871 -169.044762 
L 560.703178 -91.609571 
L 567.670412 -121.199121 
L 581.60488 -85.270757 
L 588.572114 -118.606978 
L 602.506583 -107.341319 
L 609.473817 -74.967951 
L 630.375519 -76.279829 
L 644.309988 -134.113011 
L 651.277222 -97.718549 
L 658.244456 -59.198182 
L 658.244456 -194.666327 
L 658.244456 -194.666327 
L 651.277222 -229.161859 
L 644.309988 -277.696199 
L 630.375519 -214.629042 
L 609.473817 -215.631258 
L 602.506583 -246.606119 
L 588.572114 -262.672811 
L 581.60488 -226.630827 
L 567.670412 -267.5464 
L 560.703178 -228.305437 
L 546.76871 -307.361707 
L 539.801475 -270.927863 
L 525.867007 -267.906858 
L 518.899773 -279.917495 
L 504.965305 -276.044479 
L 497.99807 -323.531652 
L 484.063602 -257.960798 
L 477.096368 -281.596902 
L 463.1619 -263.163502 
L 456.194666 -296.5908 
L 442.260197 -302.324885 
L 435.292963 -268.54137 
L 421.358495 -310.792979 
L 414.391261 -269.425266 
L 400.456792 -347.99931 
L 393.489558 -315.817789 
L 379.55509 -308.529476 
L 372.587856 -310.665445 
L 358.653388 -318.224107 
L 351.686153 -355.274685 
L 337.751685 -291.360684 
L 330.784451 -316.830036 
L 316.849983 -293.42012 
L 309.882749 -327.436281 
L 295.94828 -332.483683 
L 288.981046 -299.58034 
L 275.046578 -339.842332 
L 268.079344 -297.192828 
L 247.177641 -346.673429 
L 233.243173 -339.19284 
L 226.275939 -348.622234 
L 212.34147 -341.684286 
L 191.439768 -326.090817 
L 184.472534 -347.425804 
L 170.538066 -318.842206 
L 163.570831 -355.73997 
L 149.636363 -363.783727 
L 142.669129 -326.042359 
L 128.734661 -362.640801 
L 121.767427 -332.692883 
L 107.832958 -403.961818 
L 100.865724 -375.732722 
L 86.931256 -363.94589 
L 79.964022 -376.962555 
z
" id="mcc3f3c5149" style="stroke:#0072b2;stroke-opacity:0.2;"/>
    </defs>
    <g clip-path="url(#p430117335f)">
     <use style="fill:#0072b2;fill-opacity:0.2;stroke:#0072b2;stroke-opacity:0.2;" x="0" xlink:href="#mcc3f3c5149" y="432"/>
    </g>
   </g>
   <g id="matplotlib.axis_1">
    <g id="xtick_1">
     <g id="line2d_1">
      <path clip-path="url(#p430117335f)" d="M 93.89849 390.04 
L 93.89849 10.8 
" style="fill:none;stroke:#808080;stroke-linecap:square;stroke-opacity:0.2;"/>
     </g>
     <g id="line2d_2">
      <defs>
       <path d="M 0 0 
L 0 3.5 
" id="m2f95b83ffa" style="stroke:#000000;stroke-width:0.8;"/>
      </defs>
      <g>
       <use style="stroke:#000000;stroke-width:0.8;" x="93.89849" xlink:href="#m2f95b83ffa" y="390.04"/>
      </g>
     </g>
     <g id="text_1">
      <!-- 2019-07-03 -->
      <defs>
       <path d="M 19.1875 8.296875 
L 53.609375 8.296875 
L 53.609375 0 
L 7.328125 0 
L 7.328125 8.296875 
Q 12.9375 14.109375 22.625 23.890625 
Q 32.328125 33.6875 34.8125 36.53125 
Q 39.546875 41.84375 41.421875 45.53125 
Q 43.3125 49.21875 43.3125 52.78125 
Q 43.3125 58.59375 39.234375 62.25 
Q 35.15625 65.921875 28.609375 65.921875 
Q 23.96875 65.921875 18.8125 64.3125 
Q 13.671875 62.703125 7.8125 59.421875 
L 7.8125 69.390625 
Q 13.765625 71.78125 18.9375 73 
Q 24.125 74.21875 28.421875 74.21875 
Q 39.75 74.21875 46.484375 68.546875 
Q 53.21875 62.890625 53.21875 53.421875 
Q 53.21875 48.921875 51.53125 44.890625 
Q 49.859375 40.875 45.40625 35.40625 
Q 44.1875 33.984375 37.640625 27.21875 
Q 31.109375 20.453125 19.1875 8.296875 
z
" id="DejaVuSans-50"/>
       <path d="M 31.78125 66.40625 
Q 24.171875 66.40625 20.328125 58.90625 
Q 16.5 51.421875 16.5 36.375 
Q 16.5 21.390625 20.328125 13.890625 
Q 24.171875 6.390625 31.78125 6.390625 
Q 39.453125 6.390625 43.28125 13.890625 
Q 47.125 21.390625 47.125 36.375 
Q 47.125 51.421875 43.28125 58.90625 
Q 39.453125 66.40625 31.78125 66.40625 
z
M 31.78125 74.21875 
Q 44.046875 74.21875 50.515625 64.515625 
Q 56.984375 54.828125 56.984375 36.375 
Q 56.984375 17.96875 50.515625 8.265625 
Q 44.046875 -1.421875 31.78125 -1.421875 
Q 19.53125 -1.421875 13.0625 8.265625 
Q 6.59375 17.96875 6.59375 36.375 
Q 6.59375 54.828125 13.0625 64.515625 
Q 19.53125 74.21875 31.78125 74.21875 
z
" id="DejaVuSans-48"/>
       <path d="M 12.40625 8.296875 
L 28.515625 8.296875 
L 28.515625 63.921875 
L 10.984375 60.40625 
L 10.984375 69.390625 
L 28.421875 72.90625 
L 38.28125 72.90625 
L 38.28125 8.296875 
L 54.390625 8.296875 
L 54.390625 0 
L 12.40625 0 
z
" id="DejaVuSans-49"/>
       <path d="M 10.984375 1.515625 
L 10.984375 10.5 
Q 14.703125 8.734375 18.5 7.8125 
Q 22.3125 6.890625 25.984375 6.890625 
Q 35.75 6.890625 40.890625 13.453125 
Q 46.046875 20.015625 46.78125 33.40625 
Q 43.953125 29.203125 39.59375 26.953125 
Q 35.25 24.703125 29.984375 24.703125 
Q 19.046875 24.703125 12.671875 31.3125 
Q 6.296875 37.9375 6.296875 49.421875 
Q 6.296875 60.640625 12.9375 67.421875 
Q 19.578125 74.21875 30.609375 74.21875 
Q 43.265625 74.21875 49.921875 64.515625 
Q 56.59375 54.828125 56.59375 36.375 
Q 56.59375 19.140625 48.40625 8.859375 
Q 40.234375 -1.421875 26.421875 -1.421875 
Q 22.703125 -1.421875 18.890625 -0.6875 
Q 15.09375 0.046875 10.984375 1.515625 
z
M 30.609375 32.421875 
Q 37.25 32.421875 41.125 36.953125 
Q 45.015625 41.5 45.015625 49.421875 
Q 45.015625 57.28125 41.125 61.84375 
Q 37.25 66.40625 30.609375 66.40625 
Q 23.96875 66.40625 20.09375 61.84375 
Q 16.21875 57.28125 16.21875 49.421875 
Q 16.21875 41.5 20.09375 36.953125 
Q 23.96875 32.421875 30.609375 32.421875 
z
" id="DejaVuSans-57"/>
       <path d="M 4.890625 31.390625 
L 31.203125 31.390625 
L 31.203125 23.390625 
L 4.890625 23.390625 
z
" id="DejaVuSans-45"/>
       <path d="M 8.203125 72.90625 
L 55.078125 72.90625 
L 55.078125 68.703125 
L 28.609375 0 
L 18.3125 0 
L 43.21875 64.59375 
L 8.203125 64.59375 
z
" id="DejaVuSans-55"/>
       <path d="M 40.578125 39.3125 
Q 47.65625 37.796875 51.625 33 
Q 55.609375 28.21875 55.609375 21.1875 
Q 55.609375 10.40625 48.1875 4.484375 
Q 40.765625 -1.421875 27.09375 -1.421875 
Q 22.515625 -1.421875 17.65625 -0.515625 
Q 12.796875 0.390625 7.625 2.203125 
L 7.625 11.71875 
Q 11.71875 9.328125 16.59375 8.109375 
Q 21.484375 6.890625 26.8125 6.890625 
Q 36.078125 6.890625 40.9375 10.546875 
Q 45.796875 14.203125 45.796875 21.1875 
Q 45.796875 27.640625 41.28125 31.265625 
Q 36.765625 34.90625 28.71875 34.90625 
L 20.21875 34.90625 
L 20.21875 43.015625 
L 29.109375 43.015625 
Q 36.375 43.015625 40.234375 45.921875 
Q 44.09375 48.828125 44.09375 54.296875 
Q 44.09375 59.90625 40.109375 62.90625 
Q 36.140625 65.921875 28.71875 65.921875 
Q 24.65625 65.921875 20.015625 65.03125 
Q 15.375 64.15625 9.8125 62.3125 
L 9.8125 71.09375 
Q 15.4375 72.65625 20.34375 73.4375 
Q 25.25 74.21875 29.59375 74.21875 
Q 40.828125 74.21875 47.359375 69.109375 
Q 53.90625 64.015625 53.90625 55.328125 
Q 53.90625 49.265625 50.4375 45.09375 
Q 46.96875 40.921875 40.578125 39.3125 
z
" id="DejaVuSans-51"/>
      </defs>
      <g transform="translate(64.840677 404.638438)scale(0.1 -0.1)">
       <use xlink:href="#DejaVuSans-50"/>
       <use x="63.623047" xlink:href="#DejaVuSans-48"/>
       <use x="127.246094" xlink:href="#DejaVuSans-49"/>
       <use x="190.869141" xlink:href="#DejaVuSans-57"/>
       <use x="254.492188" xlink:href="#DejaVuSans-45"/>
       <use x="290.576172" xlink:href="#DejaVuSans-48"/>
       <use x="354.199219" xlink:href="#DejaVuSans-55"/>
       <use x="417.822266" xlink:href="#DejaVuSans-45"/>
       <use x="453.90625" xlink:href="#DejaVuSans-48"/>
       <use x="517.529297" xlink:href="#DejaVuSans-51"/>
      </g>
     </g>
    </g>
    <g id="xtick_2">
     <g id="line2d_3">
      <path clip-path="url(#p430117335f)" d="M 191.439768 390.04 
L 191.439768 10.8 
" style="fill:none;stroke:#808080;stroke-linecap:square;stroke-opacity:0.2;"/>
     </g>
     <g id="line2d_4">
      <g>
       <use style="stroke:#000000;stroke-width:0.8;" x="191.439768" xlink:href="#m2f95b83ffa" y="390.04"/>
      </g>
     </g>
     <g id="text_2">
      <!-- 2019-07-17 -->
      <g transform="translate(162.381956 404.638438)scale(0.1 -0.1)">
       <use xlink:href="#DejaVuSans-50"/>
       <use x="63.623047" xlink:href="#DejaVuSans-48"/>
       <use x="127.246094" xlink:href="#DejaVuSans-49"/>
       <use x="190.869141" xlink:href="#DejaVuSans-57"/>
       <use x="254.492188" xlink:href="#DejaVuSans-45"/>
       <use x="290.576172" xlink:href="#DejaVuSans-48"/>
       <use x="354.199219" xlink:href="#DejaVuSans-55"/>
       <use x="417.822266" xlink:href="#DejaVuSans-45"/>
       <use x="453.90625" xlink:href="#DejaVuSans-49"/>
       <use x="517.529297" xlink:href="#DejaVuSans-55"/>
      </g>
     </g>
    </g>
    <g id="xtick_3">
     <g id="line2d_5">
      <path clip-path="url(#p430117335f)" d="M 288.981046 390.04 
L 288.981046 10.8 
" style="fill:none;stroke:#808080;stroke-linecap:square;stroke-opacity:0.2;"/>
     </g>
     <g id="line2d_6">
      <g>
       <use style="stroke:#000000;stroke-width:0.8;" x="288.981046" xlink:href="#m2f95b83ffa" y="390.04"/>
      </g>
     </g>
     <g id="text_3">
      <!-- 2019-07-31 -->
      <g transform="translate(259.923234 404.638438)scale(0.1 -0.1)">
       <use xlink:href="#DejaVuSans-50"/>
       <use x="63.623047" xlink:href="#DejaVuSans-48"/>
       <use x="127.246094" xlink:href="#DejaVuSans-49"/>
       <use x="190.869141" xlink:href="#DejaVuSans-57"/>
       <use x="254.492188" xlink:href="#DejaVuSans-45"/>
       <use x="290.576172" xlink:href="#DejaVuSans-48"/>
       <use x="354.199219" xlink:href="#DejaVuSans-55"/>
       <use x="417.822266" xlink:href="#DejaVuSans-45"/>
       <use x="453.90625" xlink:href="#DejaVuSans-51"/>
       <use x="517.529297" xlink:href="#DejaVuSans-49"/>
      </g>
     </g>
    </g>
    <g id="xtick_4">
     <g id="line2d_7">
      <path clip-path="url(#p430117335f)" d="M 386.522324 390.04 
L 386.522324 10.8 
" style="fill:none;stroke:#808080;stroke-linecap:square;stroke-opacity:0.2;"/>
     </g>
     <g id="line2d_8">
      <g>
       <use style="stroke:#000000;stroke-width:0.8;" x="386.522324" xlink:href="#m2f95b83ffa" y="390.04"/>
      </g>
     </g>
     <g id="text_4">
      <!-- 2019-08-14 -->
      <defs>
       <path d="M 31.78125 34.625 
Q 24.75 34.625 20.71875 30.859375 
Q 16.703125 27.09375 16.703125 20.515625 
Q 16.703125 13.921875 20.71875 10.15625 
Q 24.75 6.390625 31.78125 6.390625 
Q 38.8125 6.390625 42.859375 10.171875 
Q 46.921875 13.96875 46.921875 20.515625 
Q 46.921875 27.09375 42.890625 30.859375 
Q 38.875 34.625 31.78125 34.625 
z
M 21.921875 38.8125 
Q 15.578125 40.375 12.03125 44.71875 
Q 8.5 49.078125 8.5 55.328125 
Q 8.5 64.0625 14.71875 69.140625 
Q 20.953125 74.21875 31.78125 74.21875 
Q 42.671875 74.21875 48.875 69.140625 
Q 55.078125 64.0625 55.078125 55.328125 
Q 55.078125 49.078125 51.53125 44.71875 
Q 48 40.375 41.703125 38.8125 
Q 48.828125 37.15625 52.796875 32.3125 
Q 56.78125 27.484375 56.78125 20.515625 
Q 56.78125 9.90625 50.3125 4.234375 
Q 43.84375 -1.421875 31.78125 -1.421875 
Q 19.734375 -1.421875 13.25 4.234375 
Q 6.78125 9.90625 6.78125 20.515625 
Q 6.78125 27.484375 10.78125 32.3125 
Q 14.796875 37.15625 21.921875 38.8125 
z
M 18.3125 54.390625 
Q 18.3125 48.734375 21.84375 45.5625 
Q 25.390625 42.390625 31.78125 42.390625 
Q 38.140625 42.390625 41.71875 45.5625 
Q 45.3125 48.734375 45.3125 54.390625 
Q 45.3125 60.0625 41.71875 63.234375 
Q 38.140625 66.40625 31.78125 66.40625 
Q 25.390625 66.40625 21.84375 63.234375 
Q 18.3125 60.0625 18.3125 54.390625 
z
" id="DejaVuSans-56"/>
       <path d="M 37.796875 64.3125 
L 12.890625 25.390625 
L 37.796875 25.390625 
z
M 35.203125 72.90625 
L 47.609375 72.90625 
L 47.609375 25.390625 
L 58.015625 25.390625 
L 58.015625 17.1875 
L 47.609375 17.1875 
L 47.609375 0 
L 37.796875 0 
L 37.796875 17.1875 
L 4.890625 17.1875 
L 4.890625 26.703125 
z
" id="DejaVuSans-52"/>
      </defs>
      <g transform="translate(357.464512 404.638438)scale(0.1 -0.1)">
       <use xlink:href="#DejaVuSans-50"/>
       <use x="63.623047" xlink:href="#DejaVuSans-48"/>
       <use x="127.246094" xlink:href="#DejaVuSans-49"/>
       <use x="190.869141" xlink:href="#DejaVuSans-57"/>
       <use x="254.492188" xlink:href="#DejaVuSans-45"/>
       <use x="290.576172" xlink:href="#DejaVuSans-48"/>
       <use x="354.199219" xlink:href="#DejaVuSans-56"/>
       <use x="417.822266" xlink:href="#DejaVuSans-45"/>
       <use x="453.90625" xlink:href="#DejaVuSans-49"/>
       <use x="517.529297" xlink:href="#DejaVuSans-52"/>
      </g>
     </g>
    </g>
    <g id="xtick_5">
     <g id="line2d_9">
      <path clip-path="url(#p430117335f)" d="M 484.063602 390.04 
L 484.063602 10.8 
" style="fill:none;stroke:#808080;stroke-linecap:square;stroke-opacity:0.2;"/>
     </g>
     <g id="line2d_10">
      <g>
       <use style="stroke:#000000;stroke-width:0.8;" x="484.063602" xlink:href="#m2f95b83ffa" y="390.04"/>
      </g>
     </g>
     <g id="text_5">
      <!-- 2019-08-28 -->
      <g transform="translate(455.00579 404.638438)scale(0.1 -0.1)">
       <use xlink:href="#DejaVuSans-50"/>
       <use x="63.623047" xlink:href="#DejaVuSans-48"/>
       <use x="127.246094" xlink:href="#DejaVuSans-49"/>
       <use x="190.869141" xlink:href="#DejaVuSans-57"/>
       <use x="254.492188" xlink:href="#DejaVuSans-45"/>
       <use x="290.576172" xlink:href="#DejaVuSans-48"/>
       <use x="354.199219" xlink:href="#DejaVuSans-56"/>
       <use x="417.822266" xlink:href="#DejaVuSans-45"/>
       <use x="453.90625" xlink:href="#DejaVuSans-50"/>
       <use x="517.529297" xlink:href="#DejaVuSans-56"/>
      </g>
     </g>
    </g>
    <g id="xtick_6">
     <g id="line2d_11">
      <path clip-path="url(#p430117335f)" d="M 581.60488 390.04 
L 581.60488 10.8 
" style="fill:none;stroke:#808080;stroke-linecap:square;stroke-opacity:0.2;"/>
     </g>
     <g id="line2d_12">
      <g>
       <use style="stroke:#000000;stroke-width:0.8;" x="581.60488" xlink:href="#m2f95b83ffa" y="390.04"/>
      </g>
     </g>
     <g id="text_6">
      <!-- 2019-09-11 -->
      <g transform="translate(552.547068 404.638438)scale(0.1 -0.1)">
       <use xlink:href="#DejaVuSans-50"/>
       <use x="63.623047" xlink:href="#DejaVuSans-48"/>
       <use x="127.246094" xlink:href="#DejaVuSans-49"/>
       <use x="190.869141" xlink:href="#DejaVuSans-57"/>
       <use x="254.492188" xlink:href="#DejaVuSans-45"/>
       <use x="290.576172" xlink:href="#DejaVuSans-48"/>
       <use x="354.199219" xlink:href="#DejaVuSans-57"/>
       <use x="417.822266" xlink:href="#DejaVuSans-45"/>
       <use x="453.90625" xlink:href="#DejaVuSans-49"/>
       <use x="517.529297" xlink:href="#DejaVuSans-49"/>
      </g>
     </g>
    </g>
    <g id="xtick_7">
     <g id="line2d_13">
      <path clip-path="url(#p430117335f)" d="M 679.146158 390.04 
L 679.146158 10.8 
" style="fill:none;stroke:#808080;stroke-linecap:square;stroke-opacity:0.2;"/>
     </g>
     <g id="line2d_14">
      <g>
       <use style="stroke:#000000;stroke-width:0.8;" x="679.146158" xlink:href="#m2f95b83ffa" y="390.04"/>
      </g>
     </g>
     <g id="text_7">
      <!-- 2019-09-25 -->
      <defs>
       <path d="M 10.796875 72.90625 
L 49.515625 72.90625 
L 49.515625 64.59375 
L 19.828125 64.59375 
L 19.828125 46.734375 
Q 21.96875 47.46875 24.109375 47.828125 
Q 26.265625 48.1875 28.421875 48.1875 
Q 40.625 48.1875 47.75 41.5 
Q 54.890625 34.8125 54.890625 23.390625 
Q 54.890625 11.625 47.5625 5.09375 
Q 40.234375 -1.421875 26.90625 -1.421875 
Q 22.3125 -1.421875 17.546875 -0.640625 
Q 12.796875 0.140625 7.71875 1.703125 
L 7.71875 11.625 
Q 12.109375 9.234375 16.796875 8.0625 
Q 21.484375 6.890625 26.703125 6.890625 
Q 35.15625 6.890625 40.078125 11.328125 
Q 45.015625 15.765625 45.015625 23.390625 
Q 45.015625 31 40.078125 35.4375 
Q 35.15625 39.890625 26.703125 39.890625 
Q 22.75 39.890625 18.8125 39.015625 
Q 14.890625 38.140625 10.796875 36.28125 
z
" id="DejaVuSans-53"/>
      </defs>
      <g transform="translate(650.088346 404.638438)scale(0.1 -0.1)">
       <use xlink:href="#DejaVuSans-50"/>
       <use x="63.623047" xlink:href="#DejaVuSans-48"/>
       <use x="127.246094" xlink:href="#DejaVuSans-49"/>
       <use x="190.869141" xlink:href="#DejaVuSans-57"/>
       <use x="254.492188" xlink:href="#DejaVuSans-45"/>
       <use x="290.576172" xlink:href="#DejaVuSans-48"/>
       <use x="354.199219" xlink:href="#DejaVuSans-57"/>
       <use x="417.822266" xlink:href="#DejaVuSans-45"/>
       <use x="453.90625" xlink:href="#DejaVuSans-50"/>
       <use x="517.529297" xlink:href="#DejaVuSans-53"/>
      </g>
     </g>
    </g>
    <g id="text_8">
     <!-- ds -->
     <defs>
      <path d="M 45.40625 46.390625 
L 45.40625 75.984375 
L 54.390625 75.984375 
L 54.390625 0 
L 45.40625 0 
L 45.40625 8.203125 
Q 42.578125 3.328125 38.25 0.953125 
Q 33.9375 -1.421875 27.875 -1.421875 
Q 17.96875 -1.421875 11.734375 6.484375 
Q 5.515625 14.40625 5.515625 27.296875 
Q 5.515625 40.1875 11.734375 48.09375 
Q 17.96875 56 27.875 56 
Q 33.9375 56 38.25 53.625 
Q 42.578125 51.265625 45.40625 46.390625 
z
M 14.796875 27.296875 
Q 14.796875 17.390625 18.875 11.75 
Q 22.953125 6.109375 30.078125 6.109375 
Q 37.203125 6.109375 41.296875 11.75 
Q 45.40625 17.390625 45.40625 27.296875 
Q 45.40625 37.203125 41.296875 42.84375 
Q 37.203125 48.484375 30.078125 48.484375 
Q 22.953125 48.484375 18.875 42.84375 
Q 14.796875 37.203125 14.796875 27.296875 
z
" id="DejaVuSans-100"/>
      <path d="M 44.28125 53.078125 
L 44.28125 44.578125 
Q 40.484375 46.53125 36.375 47.5 
Q 32.28125 48.484375 27.875 48.484375 
Q 21.1875 48.484375 17.84375 46.4375 
Q 14.5 44.390625 14.5 40.28125 
Q 14.5 37.15625 16.890625 35.375 
Q 19.28125 33.59375 26.515625 31.984375 
L 29.59375 31.296875 
Q 39.15625 29.25 43.1875 25.515625 
Q 47.21875 21.78125 47.21875 15.09375 
Q 47.21875 7.46875 41.1875 3.015625 
Q 35.15625 -1.421875 24.609375 -1.421875 
Q 20.21875 -1.421875 15.453125 -0.5625 
Q 10.6875 0.296875 5.421875 2 
L 5.421875 11.28125 
Q 10.40625 8.6875 15.234375 7.390625 
Q 20.0625 6.109375 24.8125 6.109375 
Q 31.15625 6.109375 34.5625 8.28125 
Q 37.984375 10.453125 37.984375 14.40625 
Q 37.984375 18.0625 35.515625 20.015625 
Q 33.0625 21.96875 24.703125 23.78125 
L 21.578125 24.515625 
Q 13.234375 26.265625 9.515625 29.90625 
Q 5.8125 33.546875 5.8125 39.890625 
Q 5.8125 47.609375 11.28125 51.796875 
Q 16.75 56 26.8125 56 
Q 31.78125 56 36.171875 55.265625 
Q 40.578125 54.546875 44.28125 53.078125 
z
" id="DejaVuSans-115"/>
     </defs>
     <g transform="translate(363.325333 418.316562)scale(0.1 -0.1)">
      <use xlink:href="#DejaVuSans-100"/>
      <use x="63.476562" xlink:href="#DejaVuSans-115"/>
     </g>
    </g>
   </g>
   <g id="matplotlib.axis_2">
    <g id="ytick_1">
     <g id="line2d_15">
      <path clip-path="url(#p430117335f)" d="M 51.05 380.92626 
L 687.158478 380.92626 
" style="fill:none;stroke:#808080;stroke-linecap:square;stroke-opacity:0.2;"/>
     </g>
     <g id="line2d_16">
      <defs>
       <path d="M 0 0 
L -3.5 0 
" id="ma50c9240c1" style="stroke:#000000;stroke-width:0.8;"/>
      </defs>
      <g>
       <use style="stroke:#000000;stroke-width:0.8;" x="51.05" xlink:href="#ma50c9240c1" y="380.92626"/>
      </g>
     </g>
     <g id="text_9">
      <!-- 100 -->
      <g transform="translate(24.9625 384.725478)scale(0.1 -0.1)">
       <use xlink:href="#DejaVuSans-49"/>
       <use x="63.623047" xlink:href="#DejaVuSans-48"/>
       <use x="127.246094" xlink:href="#DejaVuSans-48"/>
      </g>
     </g>
    </g>
    <g id="ytick_2">
     <g id="line2d_17">
      <path clip-path="url(#p430117335f)" d="M 51.05 325.752744 
L 687.158478 325.752744 
" style="fill:none;stroke:#808080;stroke-linecap:square;stroke-opacity:0.2;"/>
     </g>
     <g id="line2d_18">
      <g>
       <use style="stroke:#000000;stroke-width:0.8;" x="51.05" xlink:href="#ma50c9240c1" y="325.752744"/>
      </g>
     </g>
     <g id="text_10">
      <!-- 110 -->
      <g transform="translate(24.9625 329.551963)scale(0.1 -0.1)">
       <use xlink:href="#DejaVuSans-49"/>
       <use x="63.623047" xlink:href="#DejaVuSans-49"/>
       <use x="127.246094" xlink:href="#DejaVuSans-48"/>
      </g>
     </g>
    </g>
    <g id="ytick_3">
     <g id="line2d_19">
      <path clip-path="url(#p430117335f)" d="M 51.05 270.579229 
L 687.158478 270.579229 
" style="fill:none;stroke:#808080;stroke-linecap:square;stroke-opacity:0.2;"/>
     </g>
     <g id="line2d_20">
      <g>
       <use style="stroke:#000000;stroke-width:0.8;" x="51.05" xlink:href="#ma50c9240c1" y="270.579229"/>
      </g>
     </g>
     <g id="text_11">
      <!-- 120 -->
      <g transform="translate(24.9625 274.378447)scale(0.1 -0.1)">
       <use xlink:href="#DejaVuSans-49"/>
       <use x="63.623047" xlink:href="#DejaVuSans-50"/>
       <use x="127.246094" xlink:href="#DejaVuSans-48"/>
      </g>
     </g>
    </g>
    <g id="ytick_4">
     <g id="line2d_21">
      <path clip-path="url(#p430117335f)" d="M 51.05 215.405713 
L 687.158478 215.405713 
" style="fill:none;stroke:#808080;stroke-linecap:square;stroke-opacity:0.2;"/>
     </g>
     <g id="line2d_22">
      <g>
       <use style="stroke:#000000;stroke-width:0.8;" x="51.05" xlink:href="#ma50c9240c1" y="215.405713"/>
      </g>
     </g>
     <g id="text_12">
      <!-- 130 -->
      <g transform="translate(24.9625 219.204932)scale(0.1 -0.1)">
       <use xlink:href="#DejaVuSans-49"/>
       <use x="63.623047" xlink:href="#DejaVuSans-51"/>
       <use x="127.246094" xlink:href="#DejaVuSans-48"/>
      </g>
     </g>
    </g>
    <g id="ytick_5">
     <g id="line2d_23">
      <path clip-path="url(#p430117335f)" d="M 51.05 160.232198 
L 687.158478 160.232198 
" style="fill:none;stroke:#808080;stroke-linecap:square;stroke-opacity:0.2;"/>
     </g>
     <g id="line2d_24">
      <g>
       <use style="stroke:#000000;stroke-width:0.8;" x="51.05" xlink:href="#ma50c9240c1" y="160.232198"/>
      </g>
     </g>
     <g id="text_13">
      <!-- 140 -->
      <g transform="translate(24.9625 164.031416)scale(0.1 -0.1)">
       <use xlink:href="#DejaVuSans-49"/>
       <use x="63.623047" xlink:href="#DejaVuSans-52"/>
       <use x="127.246094" xlink:href="#DejaVuSans-48"/>
      </g>
     </g>
    </g>
    <g id="ytick_6">
     <g id="line2d_25">
      <path clip-path="url(#p430117335f)" d="M 51.05 105.058682 
L 687.158478 105.058682 
" style="fill:none;stroke:#808080;stroke-linecap:square;stroke-opacity:0.2;"/>
     </g>
     <g id="line2d_26">
      <g>
       <use style="stroke:#000000;stroke-width:0.8;" x="51.05" xlink:href="#ma50c9240c1" y="105.058682"/>
      </g>
     </g>
     <g id="text_14">
      <!-- 150 -->
      <g transform="translate(24.9625 108.857901)scale(0.1 -0.1)">
       <use xlink:href="#DejaVuSans-49"/>
       <use x="63.623047" xlink:href="#DejaVuSans-53"/>
       <use x="127.246094" xlink:href="#DejaVuSans-48"/>
      </g>
     </g>
    </g>
    <g id="ytick_7">
     <g id="line2d_27">
      <path clip-path="url(#p430117335f)" d="M 51.05 49.885167 
L 687.158478 49.885167 
" style="fill:none;stroke:#808080;stroke-linecap:square;stroke-opacity:0.2;"/>
     </g>
     <g id="line2d_28">
      <g>
       <use style="stroke:#000000;stroke-width:0.8;" x="51.05" xlink:href="#ma50c9240c1" y="49.885167"/>
      </g>
     </g>
     <g id="text_15">
      <!-- 160 -->
      <defs>
       <path d="M 33.015625 40.375 
Q 26.375 40.375 22.484375 35.828125 
Q 18.609375 31.296875 18.609375 23.390625 
Q 18.609375 15.53125 22.484375 10.953125 
Q 26.375 6.390625 33.015625 6.390625 
Q 39.65625 6.390625 43.53125 10.953125 
Q 47.40625 15.53125 47.40625 23.390625 
Q 47.40625 31.296875 43.53125 35.828125 
Q 39.65625 40.375 33.015625 40.375 
z
M 52.59375 71.296875 
L 52.59375 62.3125 
Q 48.875 64.0625 45.09375 64.984375 
Q 41.3125 65.921875 37.59375 65.921875 
Q 27.828125 65.921875 22.671875 59.328125 
Q 17.53125 52.734375 16.796875 39.40625 
Q 19.671875 43.65625 24.015625 45.921875 
Q 28.375 48.1875 33.59375 48.1875 
Q 44.578125 48.1875 50.953125 41.515625 
Q 57.328125 34.859375 57.328125 23.390625 
Q 57.328125 12.15625 50.6875 5.359375 
Q 44.046875 -1.421875 33.015625 -1.421875 
Q 20.359375 -1.421875 13.671875 8.265625 
Q 6.984375 17.96875 6.984375 36.375 
Q 6.984375 53.65625 15.1875 63.9375 
Q 23.390625 74.21875 37.203125 74.21875 
Q 40.921875 74.21875 44.703125 73.484375 
Q 48.484375 72.75 52.59375 71.296875 
z
" id="DejaVuSans-54"/>
      </defs>
      <g transform="translate(24.9625 53.684386)scale(0.1 -0.1)">
       <use xlink:href="#DejaVuSans-49"/>
       <use x="63.623047" xlink:href="#DejaVuSans-54"/>
       <use x="127.246094" xlink:href="#DejaVuSans-48"/>
      </g>
     </g>
    </g>
    <g id="text_16">
     <!-- y -->
     <defs>
      <path d="M 32.171875 -5.078125 
Q 28.375 -14.84375 24.75 -17.8125 
Q 21.140625 -20.796875 15.09375 -20.796875 
L 7.90625 -20.796875 
L 7.90625 -13.28125 
L 13.1875 -13.28125 
Q 16.890625 -13.28125 18.9375 -11.515625 
Q 21 -9.765625 23.484375 -3.21875 
L 25.09375 0.875 
L 2.984375 54.6875 
L 12.5 54.6875 
L 29.59375 11.921875 
L 46.6875 54.6875 
L 56.203125 54.6875 
z
" id="DejaVuSans-121"/>
     </defs>
     <g transform="translate(18.882812 203.379375)rotate(-90)scale(0.1 -0.1)">
      <use xlink:href="#DejaVuSans-121"/>
     </g>
    </g>
   </g>
   <g id="line2d_29">
    <defs>
     <path d="M 0 1.5 
C 0.397805 1.5 0.77937 1.341951 1.06066 1.06066 
C 1.341951 0.77937 1.5 0.397805 1.5 0 
C 1.5 -0.397805 1.341951 -0.77937 1.06066 -1.06066 
C 0.77937 -1.341951 0.397805 -1.5 0 -1.5 
C -0.397805 -1.5 -0.77937 -1.341951 -1.06066 -1.06066 
C -1.341951 -0.77937 -1.5 -0.397805 -1.5 0 
C -1.5 0.397805 -1.341951 0.77937 -1.06066 1.06066 
C -0.77937 1.341951 -0.397805 1.5 0 1.5 
z
" id="m98d0ed56c9" style="stroke:#000000;"/>
    </defs>
    <g clip-path="url(#p430117335f)">
     <use style="stroke:#000000;" x="79.964022" xlink:href="#m98d0ed56c9" y="55.402518"/>
     <use style="stroke:#000000;" x="86.931256" xlink:href="#m98d0ed56c9" y="116.093385"/>
     <use style="stroke:#000000;" x="100.865724" xlink:href="#m98d0ed56c9" y="116.093385"/>
     <use style="stroke:#000000;" x="107.832958" xlink:href="#m98d0ed56c9" y="110.576034"/>
     <use style="stroke:#000000;" x="121.767427" xlink:href="#m98d0ed56c9" y="105.058682"/>
     <use style="stroke:#000000;" x="128.734661" xlink:href="#m98d0ed56c9" y="110.576034"/>
     <use style="stroke:#000000;" x="142.669129" xlink:href="#m98d0ed56c9" y="105.058682"/>
     <use style="stroke:#000000;" x="149.636363" xlink:href="#m98d0ed56c9" y="127.128088"/>
     <use style="stroke:#000000;" x="163.570831" xlink:href="#m98d0ed56c9" y="242.992471"/>
     <use style="stroke:#000000;" x="170.538066" xlink:href="#m98d0ed56c9" y="265.061877"/>
     <use style="stroke:#000000;" x="184.472534" xlink:href="#m98d0ed56c9" y="303.683338"/>
     <use style="stroke:#000000;" x="191.439768" xlink:href="#m98d0ed56c9" y="303.683338"/>
     <use style="stroke:#000000;" x="212.34147" xlink:href="#m98d0ed56c9" y="127.128088"/>
     <use style="stroke:#000000;" x="226.275939" xlink:href="#m98d0ed56c9" y="154.714846"/>
     <use style="stroke:#000000;" x="233.243173" xlink:href="#m98d0ed56c9" y="226.440416"/>
     <use style="stroke:#000000;" x="247.177641" xlink:href="#m98d0ed56c9" y="187.818955"/>
     <use style="stroke:#000000;" x="268.079344" xlink:href="#m98d0ed56c9" y="220.923065"/>
     <use style="stroke:#000000;" x="275.046578" xlink:href="#m98d0ed56c9" y="198.853659"/>
     <use style="stroke:#000000;" x="288.981046" xlink:href="#m98d0ed56c9" y="215.405713"/>
     <use style="stroke:#000000;" x="295.94828" xlink:href="#m98d0ed56c9" y="176.784252"/>
     <use style="stroke:#000000;" x="309.882749" xlink:href="#m98d0ed56c9" y="209.888362"/>
     <use style="stroke:#000000;" x="316.849983" xlink:href="#m98d0ed56c9" y="187.818955"/>
     <use style="stroke:#000000;" x="330.784451" xlink:href="#m98d0ed56c9" y="88.506628"/>
     <use style="stroke:#000000;" x="337.751685" xlink:href="#m98d0ed56c9" y="254.027174"/>
     <use style="stroke:#000000;" x="351.686153" xlink:href="#m98d0ed56c9" y="99.541331"/>
     <use style="stroke:#000000;" x="358.653388" xlink:href="#m98d0ed56c9" y="82.989276"/>
     <use style="stroke:#000000;" x="372.587856" xlink:href="#m98d0ed56c9" y="193.336307"/>
     <use style="stroke:#000000;" x="379.55509" xlink:href="#m98d0ed56c9" y="204.37101"/>
     <use style="stroke:#000000;" x="393.489558" xlink:href="#m98d0ed56c9" y="71.954573"/>
     <use style="stroke:#000000;" x="400.456792" xlink:href="#m98d0ed56c9" y="127.128088"/>
     <use style="stroke:#000000;" x="414.391261" xlink:href="#m98d0ed56c9" y="193.336307"/>
     <use style="stroke:#000000;" x="421.358495" xlink:href="#m98d0ed56c9" y="215.405713"/>
     <use style="stroke:#000000;" x="435.292963" xlink:href="#m98d0ed56c9" y="193.336307"/>
     <use style="stroke:#000000;" x="442.260197" xlink:href="#m98d0ed56c9" y="182.301604"/>
     <use style="stroke:#000000;" x="456.194666" xlink:href="#m98d0ed56c9" y="182.301604"/>
     <use style="stroke:#000000;" x="463.1619" xlink:href="#m98d0ed56c9" y="209.888362"/>
     <use style="stroke:#000000;" x="477.096368" xlink:href="#m98d0ed56c9" y="160.232198"/>
     <use style="stroke:#000000;" x="484.063602" xlink:href="#m98d0ed56c9" y="171.266901"/>
     <use style="stroke:#000000;" x="497.99807" xlink:href="#m98d0ed56c9" y="165.749549"/>
     <use style="stroke:#000000;" x="504.965305" xlink:href="#m98d0ed56c9" y="171.266901"/>
     <use style="stroke:#000000;" x="518.899773" xlink:href="#m98d0ed56c9" y="187.818955"/>
     <use style="stroke:#000000;" x="525.867007" xlink:href="#m98d0ed56c9" y="182.301604"/>
     <use style="stroke:#000000;" x="539.801475" xlink:href="#m98d0ed56c9" y="298.165986"/>
     <use style="stroke:#000000;" x="546.76871" xlink:href="#m98d0ed56c9" y="204.37101"/>
     <use style="stroke:#000000;" x="560.703178" xlink:href="#m98d0ed56c9" y="281.613932"/>
     <use style="stroke:#000000;" x="567.670412" xlink:href="#m98d0ed56c9" y="303.683338"/>
     <use style="stroke:#000000;" x="581.60488" xlink:href="#m98d0ed56c9" y="248.509822"/>
     <use style="stroke:#000000;" x="588.572114" xlink:href="#m98d0ed56c9" y="292.648635"/>
     <use style="stroke:#000000;" x="602.506583" xlink:href="#m98d0ed56c9" y="287.131283"/>
     <use style="stroke:#000000;" x="609.473817" xlink:href="#m98d0ed56c9" y="331.270096"/>
     <use style="stroke:#000000;" x="630.375519" xlink:href="#m98d0ed56c9" y="303.683338"/>
     <use style="stroke:#000000;" x="644.309988" xlink:href="#m98d0ed56c9" y="276.09658"/>
     <use style="stroke:#000000;" x="651.277222" xlink:href="#m98d0ed56c9" y="309.200689"/>
    </g>
   </g>
   <g id="line2d_30">
    <path clip-path="url(#p430117335f)" d="M 79.964022 125.630069 
L 86.931256 134.993886 
L 100.865724 129.16276 
L 107.832958 93.37571 
L 121.767427 171.031358 
L 128.734661 135.419071 
L 142.669129 170.134729 
L 149.636363 138.951762 
L 163.570831 146.28859 
L 170.538066 180.82036 
L 184.472534 154.571889 
L 191.439768 179.923731 
L 212.34147 156.077592 
L 226.275939 154.997074 
L 233.243173 164.360891 
L 247.177641 158.529765 
L 268.079344 200.398364 
L 275.046578 164.786076 
L 288.981046 199.501735 
L 295.94828 168.318767 
L 309.882749 175.655596 
L 316.849983 210.187366 
L 330.784451 183.938898 
L 337.751685 209.290741 
L 351.686153 142.320738 
L 358.653388 185.444624 
L 372.587856 184.366992 
L 379.55509 193.736022 
L 393.489558 187.915321 
L 400.456792 152.134538 
L 414.391261 229.80272 
L 421.358495 194.206278 
L 435.292963 228.966673 
L 442.260197 197.806074 
L 456.194666 206.697374 
L 463.1619 242.013465 
L 477.096368 217.333636 
L 484.063602 243.476195 
L 497.99807 178.08761 
L 504.965305 222.003673 
L 518.899773 222.511694 
L 525.867007 232.669781 
L 539.801475 228.427207 
L 546.76871 193.434433 
L 560.703178 272.678635 
L 567.670412 237.860623 
L 581.60488 274.164834 
L 588.572114 243.776143 
L 602.506583 252.701524 
L 609.473817 288.027571 
L 630.375519 289.51377 
L 644.309988 224.132305 
L 651.277222 268.05046 
L 658.244456 303.376506 
" style="fill:none;stroke:#0072b2;stroke-linecap:square;stroke-width:1.5;"/>
   </g>
   <g id="patch_3">
    <path d="M 51.05 390.04 
L 51.05 10.8 
" style="fill:none;stroke:#000000;stroke-linecap:square;stroke-linejoin:miter;stroke-width:0.8;"/>
   </g>
   <g id="patch_4">
    <path d="M 687.158478 390.04 
L 687.158478 10.8 
" style="fill:none;stroke:#000000;stroke-linecap:square;stroke-linejoin:miter;stroke-width:0.8;"/>
   </g>
   <g id="patch_5">
    <path d="M 51.05 390.04 
L 687.158478 390.04 
" style="fill:none;stroke:#000000;stroke-linecap:square;stroke-linejoin:miter;stroke-width:0.8;"/>
   </g>
   <g id="patch_6">
    <path d="M 51.05 10.8 
L 687.158478 10.8 
" style="fill:none;stroke:#000000;stroke-linecap:square;stroke-linejoin:miter;stroke-width:0.8;"/>
   </g>
  </g>
 </g>
 <defs>
  <clipPath id="p430117335f">
   <rect height="379.24" width="636.108478" x="51.05" y="10.8"/>
  </clipPath>
 </defs>
</svg>
