<?xml version="1.0" encoding="utf-8" standalone="no"?>
<!DOCTYPE svg PUBLIC "-//W3C//DTD SVG 1.1//EN"
  "http://www.w3.org/Graphics/SVG/1.1/DTD/svg11.dtd">
<!-- Created with matplotlib (https://matplotlib.org/) -->
<svg height="432pt" version="1.1" viewBox="0 0 720 432" width="720pt" xmlns="http://www.w3.org/2000/svg" xmlns:xlink="http://www.w3.org/1999/xlink">
 <defs>
  <style type="text/css">
*{stroke-linecap:butt;stroke-linejoin:round;}
  </style>
 </defs>
 <g id="figure_1">
  <g id="patch_1">
   <path d="M 0 432 
L 720 432 
L 720 0 
L 0 0 
z
" style="fill:#ffffff;"/>
  </g>
  <g id="axes_1">
   <g id="patch_2">
    <path d="M 51.05 390.04 
L 693.270197 390.04 
L 693.270197 10.8 
L 51.05 10.8 
z
" style="fill:#ffffff;"/>
   </g>
   <g id="PolyCollection_1">
    <defs>
     <path d="M 80.241827 -219.973738 
L 80.241827 -92.173991 
L 87.276002 -59.198182 
L 101.344353 -88.977134 
L 108.378528 -98.728454 
L 122.446878 -117.707641 
L 129.481054 -93.91513 
L 143.549404 -99.642533 
L 150.583579 -88.962834 
L 164.65193 -117.973147 
L 171.686105 -124.194123 
L 185.754455 -76.681539 
L 192.788631 -108.387617 
L 206.856981 -114.666469 
L 213.891156 -122.266525 
L 227.959507 -107.691157 
L 234.993682 -79.104479 
L 249.062032 -106.474566 
L 256.096208 -118.484613 
L 270.164558 -135.759394 
L 277.198733 -111.430278 
L 291.267084 -118.157199 
L 298.301259 -109.737095 
L 312.369609 -137.952385 
L 319.403784 -145.222394 
L 333.472135 -95.273181 
L 340.50631 -120.462283 
L 354.574661 -129.070004 
L 361.608836 -145.768157 
L 375.677186 -128.57446 
L 382.711361 -99.243578 
L 396.779712 -122.008612 
L 403.813887 -143.750937 
L 417.882237 -155.930234 
L 424.916413 -130.683563 
L 438.984763 -135.020877 
L 446.018938 -127.743147 
L 460.087289 -163.411985 
L 467.121464 -166.311691 
L 481.189814 -123.406627 
L 488.22399 -149.065917 
L 502.29234 -157.920143 
L 509.326515 -180.633313 
L 523.394866 -157.031102 
L 530.429041 -137.263577 
L 544.497391 -164.436903 
L 551.531567 -174.323149 
L 565.599917 -198.043327 
L 572.634092 -173.676052 
L 586.702443 -184.483971 
L 593.736618 -174.294134 
L 607.804968 -208.512634 
L 614.839144 -216.845019 
L 628.907494 -168.001215 
L 635.941669 -198.473666 
L 650.01002 -210.822057 
L 657.044195 -225.085579 
L 664.07837 -226.864716 
L 664.07837 -357.724198 
L 664.07837 -357.724198 
L 657.044195 -353.813781 
L 650.01002 -346.945323 
L 635.941669 -323.545085 
L 628.907494 -293.516308 
L 614.839144 -345.587083 
L 607.804968 -336.346807 
L 593.736618 -305.510521 
L 586.702443 -313.571803 
L 572.634092 -302.745605 
L 565.599917 -325.233753 
L 551.531567 -308.857652 
L 544.497391 -287.095048 
L 530.429041 -268.024224 
L 523.394866 -291.039552 
L 509.326515 -308.242932 
L 502.29234 -294.108023 
L 488.22399 -274.179682 
L 481.189814 -250.24444 
L 467.121464 -293.73401 
L 460.087289 -288.035307 
L 446.018938 -256.753783 
L 438.984763 -262.032452 
L 424.916413 -260.166311 
L 417.882237 -286.675869 
L 403.813887 -271.705792 
L 396.779712 -250.167076 
L 382.711361 -231.662576 
L 375.677186 -255.156387 
L 361.608836 -269.612809 
L 354.574661 -253.846576 
L 340.50631 -251.941773 
L 333.472135 -224.377858 
L 319.403784 -269.380585 
L 312.369609 -265.943819 
L 298.301259 -238.037699 
L 291.267084 -244.58692 
L 277.198733 -240.72852 
L 270.164558 -267.410408 
L 256.096208 -246.143093 
L 249.062032 -233.155138 
L 234.993682 -210.211767 
L 227.959507 -235.053873 
L 213.891156 -252.577846 
L 206.856981 -238.271017 
L 192.788631 -234.493196 
L 185.754455 -202.88908 
L 171.686105 -255.566772 
L 164.65193 -248.790862 
L 150.583579 -216.687946 
L 143.549404 -228.170683 
L 129.481054 -227.758023 
L 122.446878 -244.085304 
L 108.378528 -228.042667 
L 101.344353 -215.644146 
L 87.276002 -192.984385 
L 80.241827 -219.973738 
z
" id="mf2dd258078" style="stroke:#0072b2;stroke-opacity:0.2;"/>
    </defs>
    <g clip-path="url(#p74dc7c97fe)">
     <use style="fill:#0072b2;fill-opacity:0.2;stroke:#0072b2;stroke-opacity:0.2;" x="0" xlink:href="#mf2dd258078" y="432"/>
    </g>
   </g>
   <g id="matplotlib.axis_1">
    <g id="xtick_1">
     <g id="line2d_1">
      <path clip-path="url(#p74dc7c97fe)" d="M 87.276002 390.04 
L 87.276002 10.8 
" style="fill:none;stroke:#808080;stroke-linecap:square;stroke-opacity:0.2;"/>
     </g>
     <g id="line2d_2">
      <defs>
       <path d="M 0 0 
L 0 3.5 
" id="m392eab2764" style="stroke:#000000;stroke-width:0.8;"/>
      </defs>
      <g>
       <use style="stroke:#000000;stroke-width:0.8;" x="87.276002" xlink:href="#m392eab2764" y="390.04"/>
      </g>
     </g>
     <g id="text_1">
      <!-- 2019-09-30 -->
      <defs>
       <path d="M 19.1875 8.296875 
L 53.609375 8.296875 
L 53.609375 0 
L 7.328125 0 
L 7.328125 8.296875 
Q 12.9375 14.109375 22.625 23.890625 
Q 32.328125 33.6875 34.8125 36.53125 
Q 39.546875 41.84375 41.421875 45.53125 
Q 43.3125 49.21875 43.3125 52.78125 
Q 43.3125 58.59375 39.234375 62.25 
Q 35.15625 65.921875 28.609375 65.921875 
Q 23.96875 65.921875 18.8125 64.3125 
Q 13.671875 62.703125 7.8125 59.421875 
L 7.8125 69.390625 
Q 13.765625 71.78125 18.9375 73 
Q 24.125 74.21875 28.421875 74.21875 
Q 39.75 74.21875 46.484375 68.546875 
Q 53.21875 62.890625 53.21875 53.421875 
Q 53.21875 48.921875 51.53125 44.890625 
Q 49.859375 40.875 45.40625 35.40625 
Q 44.1875 33.984375 37.640625 27.21875 
Q 31.109375 20.453125 19.1875 8.296875 
z
" id="DejaVuSans-50"/>
       <path d="M 31.78125 66.40625 
Q 24.171875 66.40625 20.328125 58.90625 
Q 16.5 51.421875 16.5 36.375 
Q 16.5 21.390625 20.328125 13.890625 
Q 24.171875 6.390625 31.78125 6.390625 
Q 39.453125 6.390625 43.28125 13.890625 
Q 47.125 21.390625 47.125 36.375 
Q 47.125 51.421875 43.28125 58.90625 
Q 39.453125 66.40625 31.78125 66.40625 
z
M 31.78125 74.21875 
Q 44.046875 74.21875 50.515625 64.515625 
Q 56.984375 54.828125 56.984375 36.375 
Q 56.984375 17.96875 50.515625 8.265625 
Q 44.046875 -1.421875 31.78125 -1.421875 
Q 19.53125 -1.421875 13.0625 8.265625 
Q 6.59375 17.96875 6.59375 36.375 
Q 6.59375 54.828125 13.0625 64.515625 
Q 19.53125 74.21875 31.78125 74.21875 
z
" id="DejaVuSans-48"/>
       <path d="M 12.40625 8.296875 
L 28.515625 8.296875 
L 28.515625 63.921875 
L 10.984375 60.40625 
L 10.984375 69.390625 
L 28.421875 72.90625 
L 38.28125 72.90625 
L 38.28125 8.296875 
L 54.390625 8.296875 
L 54.390625 0 
L 12.40625 0 
z
" id="DejaVuSans-49"/>
       <path d="M 10.984375 1.515625 
L 10.984375 10.5 
Q 14.703125 8.734375 18.5 7.8125 
Q 22.3125 6.890625 25.984375 6.890625 
Q 35.75 6.890625 40.890625 13.453125 
Q 46.046875 20.015625 46.78125 33.40625 
Q 43.953125 29.203125 39.59375 26.953125 
Q 35.25 24.703125 29.984375 24.703125 
Q 19.046875 24.703125 12.671875 31.3125 
Q 6.296875 37.9375 6.296875 49.421875 
Q 6.296875 60.640625 12.9375 67.421875 
Q 19.578125 74.21875 30.609375 74.21875 
Q 43.265625 74.21875 49.921875 64.515625 
Q 56.59375 54.828125 56.59375 36.375 
Q 56.59375 19.140625 48.40625 8.859375 
Q 40.234375 -1.421875 26.421875 -1.421875 
Q 22.703125 -1.421875 18.890625 -0.6875 
Q 15.09375 0.046875 10.984375 1.515625 
z
M 30.609375 32.421875 
Q 37.25 32.421875 41.125 36.953125 
Q 45.015625 41.5 45.015625 49.421875 
Q 45.015625 57.28125 41.125 61.84375 
Q 37.25 66.40625 30.609375 66.40625 
Q 23.96875 66.40625 20.09375 61.84375 
Q 16.21875 57.28125 16.21875 49.421875 
Q 16.21875 41.5 20.09375 36.953125 
Q 23.96875 32.421875 30.609375 32.421875 
z
" id="DejaVuSans-57"/>
       <path d="M 4.890625 31.390625 
L 31.203125 31.390625 
L 31.203125 23.390625 
L 4.890625 23.390625 
z
" id="DejaVuSans-45"/>
       <path d="M 40.578125 39.3125 
Q 47.65625 37.796875 51.625 33 
Q 55.609375 28.21875 55.609375 21.1875 
Q 55.609375 10.40625 48.1875 4.484375 
Q 40.765625 -1.421875 27.09375 -1.421875 
Q 22.515625 -1.421875 17.65625 -0.515625 
Q 12.796875 0.390625 7.625 2.203125 
L 7.625 11.71875 
Q 11.71875 9.328125 16.59375 8.109375 
Q 21.484375 6.890625 26.8125 6.890625 
Q 36.078125 6.890625 40.9375 10.546875 
Q 45.796875 14.203125 45.796875 21.1875 
Q 45.796875 27.640625 41.28125 31.265625 
Q 36.765625 34.90625 28.71875 34.90625 
L 20.21875 34.90625 
L 20.21875 43.015625 
L 29.109375 43.015625 
Q 36.375 43.015625 40.234375 45.921875 
Q 44.09375 48.828125 44.09375 54.296875 
Q 44.09375 59.90625 40.109375 62.90625 
Q 36.140625 65.921875 28.71875 65.921875 
Q 24.65625 65.921875 20.015625 65.03125 
Q 15.375 64.15625 9.8125 62.3125 
L 9.8125 71.09375 
Q 15.4375 72.65625 20.34375 73.4375 
Q 25.25 74.21875 29.59375 74.21875 
Q 40.828125 74.21875 47.359375 69.109375 
Q 53.90625 64.015625 53.90625 55.328125 
Q 53.90625 49.265625 50.4375 45.09375 
Q 46.96875 40.921875 40.578125 39.3125 
z
" id="DejaVuSans-51"/>
      </defs>
      <g transform="translate(58.21819 404.638438)scale(0.1 -0.1)">
       <use xlink:href="#DejaVuSans-50"/>
       <use x="63.623047" xlink:href="#DejaVuSans-48"/>
       <use x="127.246094" xlink:href="#DejaVuSans-49"/>
       <use x="190.869141" xlink:href="#DejaVuSans-57"/>
       <use x="254.492188" xlink:href="#DejaVuSans-45"/>
       <use x="290.576172" xlink:href="#DejaVuSans-48"/>
       <use x="354.199219" xlink:href="#DejaVuSans-57"/>
       <use x="417.822266" xlink:href="#DejaVuSans-45"/>
       <use x="453.90625" xlink:href="#DejaVuSans-51"/>
       <use x="517.529297" xlink:href="#DejaVuSans-48"/>
      </g>
     </g>
    </g>
    <g id="xtick_2">
     <g id="line2d_3">
      <path clip-path="url(#p74dc7c97fe)" d="M 185.754455 390.04 
L 185.754455 10.8 
" style="fill:none;stroke:#808080;stroke-linecap:square;stroke-opacity:0.2;"/>
     </g>
     <g id="line2d_4">
      <g>
       <use style="stroke:#000000;stroke-width:0.8;" x="185.754455" xlink:href="#m392eab2764" y="390.04"/>
      </g>
     </g>
     <g id="text_2">
      <!-- 2019-10-14 -->
      <defs>
       <path d="M 37.796875 64.3125 
L 12.890625 25.390625 
L 37.796875 25.390625 
z
M 35.203125 72.90625 
L 47.609375 72.90625 
L 47.609375 25.390625 
L 58.015625 25.390625 
L 58.015625 17.1875 
L 47.609375 17.1875 
L 47.609375 0 
L 37.796875 0 
L 37.796875 17.1875 
L 4.890625 17.1875 
L 4.890625 26.703125 
z
" id="DejaVuSans-52"/>
      </defs>
      <g transform="translate(156.696643 404.638438)scale(0.1 -0.1)">
       <use xlink:href="#DejaVuSans-50"/>
       <use x="63.623047" xlink:href="#DejaVuSans-48"/>
       <use x="127.246094" xlink:href="#DejaVuSans-49"/>
       <use x="190.869141" xlink:href="#DejaVuSans-57"/>
       <use x="254.492188" xlink:href="#DejaVuSans-45"/>
       <use x="290.576172" xlink:href="#DejaVuSans-49"/>
       <use x="354.199219" xlink:href="#DejaVuSans-48"/>
       <use x="417.822266" xlink:href="#DejaVuSans-45"/>
       <use x="453.90625" xlink:href="#DejaVuSans-49"/>
       <use x="517.529297" xlink:href="#DejaVuSans-52"/>
      </g>
     </g>
    </g>
    <g id="xtick_3">
     <g id="line2d_5">
      <path clip-path="url(#p74dc7c97fe)" d="M 284.232908 390.04 
L 284.232908 10.8 
" style="fill:none;stroke:#808080;stroke-linecap:square;stroke-opacity:0.2;"/>
     </g>
     <g id="line2d_6">
      <g>
       <use style="stroke:#000000;stroke-width:0.8;" x="284.232908" xlink:href="#m392eab2764" y="390.04"/>
      </g>
     </g>
     <g id="text_3">
      <!-- 2019-10-28 -->
      <defs>
       <path d="M 31.78125 34.625 
Q 24.75 34.625 20.71875 30.859375 
Q 16.703125 27.09375 16.703125 20.515625 
Q 16.703125 13.921875 20.71875 10.15625 
Q 24.75 6.390625 31.78125 6.390625 
Q 38.8125 6.390625 42.859375 10.171875 
Q 46.921875 13.96875 46.921875 20.515625 
Q 46.921875 27.09375 42.890625 30.859375 
Q 38.875 34.625 31.78125 34.625 
z
M 21.921875 38.8125 
Q 15.578125 40.375 12.03125 44.71875 
Q 8.5 49.078125 8.5 55.328125 
Q 8.5 64.0625 14.71875 69.140625 
Q 20.953125 74.21875 31.78125 74.21875 
Q 42.671875 74.21875 48.875 69.140625 
Q 55.078125 64.0625 55.078125 55.328125 
Q 55.078125 49.078125 51.53125 44.71875 
Q 48 40.375 41.703125 38.8125 
Q 48.828125 37.15625 52.796875 32.3125 
Q 56.78125 27.484375 56.78125 20.515625 
Q 56.78125 9.90625 50.3125 4.234375 
Q 43.84375 -1.421875 31.78125 -1.421875 
Q 19.734375 -1.421875 13.25 4.234375 
Q 6.78125 9.90625 6.78125 20.515625 
Q 6.78125 27.484375 10.78125 32.3125 
Q 14.796875 37.15625 21.921875 38.8125 
z
M 18.3125 54.390625 
Q 18.3125 48.734375 21.84375 45.5625 
Q 25.390625 42.390625 31.78125 42.390625 
Q 38.140625 42.390625 41.71875 45.5625 
Q 45.3125 48.734375 45.3125 54.390625 
Q 45.3125 60.0625 41.71875 63.234375 
Q 38.140625 66.40625 31.78125 66.40625 
Q 25.390625 66.40625 21.84375 63.234375 
Q 18.3125 60.0625 18.3125 54.390625 
z
" id="DejaVuSans-56"/>
      </defs>
      <g transform="translate(255.175096 404.638438)scale(0.1 -0.1)">
       <use xlink:href="#DejaVuSans-50"/>
       <use x="63.623047" xlink:href="#DejaVuSans-48"/>
       <use x="127.246094" xlink:href="#DejaVuSans-49"/>
       <use x="190.869141" xlink:href="#DejaVuSans-57"/>
       <use x="254.492188" xlink:href="#DejaVuSans-45"/>
       <use x="290.576172" xlink:href="#DejaVuSans-49"/>
       <use x="354.199219" xlink:href="#DejaVuSans-48"/>
       <use x="417.822266" xlink:href="#DejaVuSans-45"/>
       <use x="453.90625" xlink:href="#DejaVuSans-50"/>
       <use x="517.529297" xlink:href="#DejaVuSans-56"/>
      </g>
     </g>
    </g>
    <g id="xtick_4">
     <g id="line2d_7">
      <path clip-path="url(#p74dc7c97fe)" d="M 382.711361 390.04 
L 382.711361 10.8 
" style="fill:none;stroke:#808080;stroke-linecap:square;stroke-opacity:0.2;"/>
     </g>
     <g id="line2d_8">
      <g>
       <use style="stroke:#000000;stroke-width:0.8;" x="382.711361" xlink:href="#m392eab2764" y="390.04"/>
      </g>
     </g>
     <g id="text_4">
      <!-- 2019-11-11 -->
      <g transform="translate(353.653549 404.638438)scale(0.1 -0.1)">
       <use xlink:href="#DejaVuSans-50"/>
       <use x="63.623047" xlink:href="#DejaVuSans-48"/>
       <use x="127.246094" xlink:href="#DejaVuSans-49"/>
       <use x="190.869141" xlink:href="#DejaVuSans-57"/>
       <use x="254.492188" xlink:href="#DejaVuSans-45"/>
       <use x="290.576172" xlink:href="#DejaVuSans-49"/>
       <use x="354.199219" xlink:href="#DejaVuSans-49"/>
       <use x="417.822266" xlink:href="#DejaVuSans-45"/>
       <use x="453.90625" xlink:href="#DejaVuSans-49"/>
       <use x="517.529297" xlink:href="#DejaVuSans-49"/>
      </g>
     </g>
    </g>
    <g id="xtick_5">
     <g id="line2d_9">
      <path clip-path="url(#p74dc7c97fe)" d="M 481.189814 390.04 
L 481.189814 10.8 
" style="fill:none;stroke:#808080;stroke-linecap:square;stroke-opacity:0.2;"/>
     </g>
     <g id="line2d_10">
      <g>
       <use style="stroke:#000000;stroke-width:0.8;" x="481.189814" xlink:href="#m392eab2764" y="390.04"/>
      </g>
     </g>
     <g id="text_5">
      <!-- 2019-11-25 -->
      <defs>
       <path d="M 10.796875 72.90625 
L 49.515625 72.90625 
L 49.515625 64.59375 
L 19.828125 64.59375 
L 19.828125 46.734375 
Q 21.96875 47.46875 24.109375 47.828125 
Q 26.265625 48.1875 28.421875 48.1875 
Q 40.625 48.1875 47.75 41.5 
Q 54.890625 34.8125 54.890625 23.390625 
Q 54.890625 11.625 47.5625 5.09375 
Q 40.234375 -1.421875 26.90625 -1.421875 
Q 22.3125 -1.421875 17.546875 -0.640625 
Q 12.796875 0.140625 7.71875 1.703125 
L 7.71875 11.625 
Q 12.109375 9.234375 16.796875 8.0625 
Q 21.484375 6.890625 26.703125 6.890625 
Q 35.15625 6.890625 40.078125 11.328125 
Q 45.015625 15.765625 45.015625 23.390625 
Q 45.015625 31 40.078125 35.4375 
Q 35.15625 39.890625 26.703125 39.890625 
Q 22.75 39.890625 18.8125 39.015625 
Q 14.890625 38.140625 10.796875 36.28125 
z
" id="DejaVuSans-53"/>
      </defs>
      <g transform="translate(452.132002 404.638438)scale(0.1 -0.1)">
       <use xlink:href="#DejaVuSans-50"/>
       <use x="63.623047" xlink:href="#DejaVuSans-48"/>
       <use x="127.246094" xlink:href="#DejaVuSans-49"/>
       <use x="190.869141" xlink:href="#DejaVuSans-57"/>
       <use x="254.492188" xlink:href="#DejaVuSans-45"/>
       <use x="290.576172" xlink:href="#DejaVuSans-49"/>
       <use x="354.199219" xlink:href="#DejaVuSans-49"/>
       <use x="417.822266" xlink:href="#DejaVuSans-45"/>
       <use x="453.90625" xlink:href="#DejaVuSans-50"/>
       <use x="517.529297" xlink:href="#DejaVuSans-53"/>
      </g>
     </g>
    </g>
    <g id="xtick_6">
     <g id="line2d_11">
      <path clip-path="url(#p74dc7c97fe)" d="M 579.668267 390.04 
L 579.668267 10.8 
" style="fill:none;stroke:#808080;stroke-linecap:square;stroke-opacity:0.2;"/>
     </g>
     <g id="line2d_12">
      <g>
       <use style="stroke:#000000;stroke-width:0.8;" x="579.668267" xlink:href="#m392eab2764" y="390.04"/>
      </g>
     </g>
     <g id="text_6">
      <!-- 2019-12-09 -->
      <g transform="translate(550.610455 404.638438)scale(0.1 -0.1)">
       <use xlink:href="#DejaVuSans-50"/>
       <use x="63.623047" xlink:href="#DejaVuSans-48"/>
       <use x="127.246094" xlink:href="#DejaVuSans-49"/>
       <use x="190.869141" xlink:href="#DejaVuSans-57"/>
       <use x="254.492188" xlink:href="#DejaVuSans-45"/>
       <use x="290.576172" xlink:href="#DejaVuSans-49"/>
       <use x="354.199219" xlink:href="#DejaVuSans-50"/>
       <use x="417.822266" xlink:href="#DejaVuSans-45"/>
       <use x="453.90625" xlink:href="#DejaVuSans-48"/>
       <use x="517.529297" xlink:href="#DejaVuSans-57"/>
      </g>
     </g>
    </g>
    <g id="xtick_7">
     <g id="line2d_13">
      <path clip-path="url(#p74dc7c97fe)" d="M 678.14672 390.04 
L 678.14672 10.8 
" style="fill:none;stroke:#808080;stroke-linecap:square;stroke-opacity:0.2;"/>
     </g>
     <g id="line2d_14">
      <g>
       <use style="stroke:#000000;stroke-width:0.8;" x="678.14672" xlink:href="#m392eab2764" y="390.04"/>
      </g>
     </g>
     <g id="text_7">
      <!-- 2019-12-23 -->
      <g transform="translate(649.088908 404.638438)scale(0.1 -0.1)">
       <use xlink:href="#DejaVuSans-50"/>
       <use x="63.623047" xlink:href="#DejaVuSans-48"/>
       <use x="127.246094" xlink:href="#DejaVuSans-49"/>
       <use x="190.869141" xlink:href="#DejaVuSans-57"/>
       <use x="254.492188" xlink:href="#DejaVuSans-45"/>
       <use x="290.576172" xlink:href="#DejaVuSans-49"/>
       <use x="354.199219" xlink:href="#DejaVuSans-50"/>
       <use x="417.822266" xlink:href="#DejaVuSans-45"/>
       <use x="453.90625" xlink:href="#DejaVuSans-50"/>
       <use x="517.529297" xlink:href="#DejaVuSans-51"/>
      </g>
     </g>
    </g>
    <g id="text_8">
     <!-- ds -->
     <defs>
      <path d="M 45.40625 46.390625 
L 45.40625 75.984375 
L 54.390625 75.984375 
L 54.390625 0 
L 45.40625 0 
L 45.40625 8.203125 
Q 42.578125 3.328125 38.25 0.953125 
Q 33.9375 -1.421875 27.875 -1.421875 
Q 17.96875 -1.421875 11.734375 6.484375 
Q 5.515625 14.40625 5.515625 27.296875 
Q 5.515625 40.1875 11.734375 48.09375 
Q 17.96875 56 27.875 56 
Q 33.9375 56 38.25 53.625 
Q 42.578125 51.265625 45.40625 46.390625 
z
M 14.796875 27.296875 
Q 14.796875 17.390625 18.875 11.75 
Q 22.953125 6.109375 30.078125 6.109375 
Q 37.203125 6.109375 41.296875 11.75 
Q 45.40625 17.390625 45.40625 27.296875 
Q 45.40625 37.203125 41.296875 42.84375 
Q 37.203125 48.484375 30.078125 48.484375 
Q 22.953125 48.484375 18.875 42.84375 
Q 14.796875 37.203125 14.796875 27.296875 
z
" id="DejaVuSans-100"/>
      <path d="M 44.28125 53.078125 
L 44.28125 44.578125 
Q 40.484375 46.53125 36.375 47.5 
Q 32.28125 48.484375 27.875 48.484375 
Q 21.1875 48.484375 17.84375 46.4375 
Q 14.5 44.390625 14.5 40.28125 
Q 14.5 37.15625 16.890625 35.375 
Q 19.28125 33.59375 26.515625 31.984375 
L 29.59375 31.296875 
Q 39.15625 29.25 43.1875 25.515625 
Q 47.21875 21.78125 47.21875 15.09375 
Q 47.21875 7.46875 41.1875 3.015625 
Q 35.15625 -1.421875 24.609375 -1.421875 
Q 20.21875 -1.421875 15.453125 -0.5625 
Q 10.6875 0.296875 5.421875 2 
L 5.421875 11.28125 
Q 10.40625 8.6875 15.234375 7.390625 
Q 20.0625 6.109375 24.8125 6.109375 
Q 31.15625 6.109375 34.5625 8.28125 
Q 37.984375 10.453125 37.984375 14.40625 
Q 37.984375 18.0625 35.515625 20.015625 
Q 33.0625 21.96875 24.703125 23.78125 
L 21.578125 24.515625 
Q 13.234375 26.265625 9.515625 29.90625 
Q 5.8125 33.546875 5.8125 39.890625 
Q 5.8125 47.609375 11.28125 51.796875 
Q 16.75 56 26.8125 56 
Q 31.78125 56 36.171875 55.265625 
Q 40.578125 54.546875 44.28125 53.078125 
z
" id="DejaVuSans-115"/>
     </defs>
     <g transform="translate(366.381192 418.316562)scale(0.1 -0.1)">
      <use xlink:href="#DejaVuSans-100"/>
      <use x="63.476562" xlink:href="#DejaVuSans-115"/>
     </g>
    </g>
   </g>
   <g id="matplotlib.axis_2">
    <g id="ytick_1">
     <g id="line2d_15">
      <path clip-path="url(#p74dc7c97fe)" d="M 51.05 339.312254 
L 693.270197 339.312254 
" style="fill:none;stroke:#808080;stroke-linecap:square;stroke-opacity:0.2;"/>
     </g>
     <g id="line2d_16">
      <defs>
       <path d="M 0 0 
L -3.5 0 
" id="mb1f9526368" style="stroke:#000000;stroke-width:0.8;"/>
      </defs>
      <g>
       <use style="stroke:#000000;stroke-width:0.8;" x="51.05" xlink:href="#mb1f9526368" y="339.312254"/>
      </g>
     </g>
     <g id="text_9">
      <!-- 145 -->
      <g transform="translate(24.9625 343.111473)scale(0.1 -0.1)">
       <use xlink:href="#DejaVuSans-49"/>
       <use x="63.623047" xlink:href="#DejaVuSans-52"/>
       <use x="127.246094" xlink:href="#DejaVuSans-53"/>
      </g>
     </g>
    </g>
    <g id="ytick_2">
     <g id="line2d_17">
      <path clip-path="url(#p74dc7c97fe)" d="M 51.05 283.727598 
L 693.270197 283.727598 
" style="fill:none;stroke:#808080;stroke-linecap:square;stroke-opacity:0.2;"/>
     </g>
     <g id="line2d_18">
      <g>
       <use style="stroke:#000000;stroke-width:0.8;" x="51.05" xlink:href="#mb1f9526368" y="283.727598"/>
      </g>
     </g>
     <g id="text_10">
      <!-- 150 -->
      <g transform="translate(24.9625 287.526817)scale(0.1 -0.1)">
       <use xlink:href="#DejaVuSans-49"/>
       <use x="63.623047" xlink:href="#DejaVuSans-53"/>
       <use x="127.246094" xlink:href="#DejaVuSans-48"/>
      </g>
     </g>
    </g>
    <g id="ytick_3">
     <g id="line2d_19">
      <path clip-path="url(#p74dc7c97fe)" d="M 51.05 228.142943 
L 693.270197 228.142943 
" style="fill:none;stroke:#808080;stroke-linecap:square;stroke-opacity:0.2;"/>
     </g>
     <g id="line2d_20">
      <g>
       <use style="stroke:#000000;stroke-width:0.8;" x="51.05" xlink:href="#mb1f9526368" y="228.142943"/>
      </g>
     </g>
     <g id="text_11">
      <!-- 155 -->
      <g transform="translate(24.9625 231.942161)scale(0.1 -0.1)">
       <use xlink:href="#DejaVuSans-49"/>
       <use x="63.623047" xlink:href="#DejaVuSans-53"/>
       <use x="127.246094" xlink:href="#DejaVuSans-53"/>
      </g>
     </g>
    </g>
    <g id="ytick_4">
     <g id="line2d_21">
      <path clip-path="url(#p74dc7c97fe)" d="M 51.05 172.558287 
L 693.270197 172.558287 
" style="fill:none;stroke:#808080;stroke-linecap:square;stroke-opacity:0.2;"/>
     </g>
     <g id="line2d_22">
      <g>
       <use style="stroke:#000000;stroke-width:0.8;" x="51.05" xlink:href="#mb1f9526368" y="172.558287"/>
      </g>
     </g>
     <g id="text_12">
      <!-- 160 -->
      <defs>
       <path d="M 33.015625 40.375 
Q 26.375 40.375 22.484375 35.828125 
Q 18.609375 31.296875 18.609375 23.390625 
Q 18.609375 15.53125 22.484375 10.953125 
Q 26.375 6.390625 33.015625 6.390625 
Q 39.65625 6.390625 43.53125 10.953125 
Q 47.40625 15.53125 47.40625 23.390625 
Q 47.40625 31.296875 43.53125 35.828125 
Q 39.65625 40.375 33.015625 40.375 
z
M 52.59375 71.296875 
L 52.59375 62.3125 
Q 48.875 64.0625 45.09375 64.984375 
Q 41.3125 65.921875 37.59375 65.921875 
Q 27.828125 65.921875 22.671875 59.328125 
Q 17.53125 52.734375 16.796875 39.40625 
Q 19.671875 43.65625 24.015625 45.921875 
Q 28.375 48.1875 33.59375 48.1875 
Q 44.578125 48.1875 50.953125 41.515625 
Q 57.328125 34.859375 57.328125 23.390625 
Q 57.328125 12.15625 50.6875 5.359375 
Q 44.046875 -1.421875 33.015625 -1.421875 
Q 20.359375 -1.421875 13.671875 8.265625 
Q 6.984375 17.96875 6.984375 36.375 
Q 6.984375 53.65625 15.1875 63.9375 
Q 23.390625 74.21875 37.203125 74.21875 
Q 40.921875 74.21875 44.703125 73.484375 
Q 48.484375 72.75 52.59375 71.296875 
z
" id="DejaVuSans-54"/>
      </defs>
      <g transform="translate(24.9625 176.357506)scale(0.1 -0.1)">
       <use xlink:href="#DejaVuSans-49"/>
       <use x="63.623047" xlink:href="#DejaVuSans-54"/>
       <use x="127.246094" xlink:href="#DejaVuSans-48"/>
      </g>
     </g>
    </g>
    <g id="ytick_5">
     <g id="line2d_23">
      <path clip-path="url(#p74dc7c97fe)" d="M 51.05 116.973631 
L 693.270197 116.973631 
" style="fill:none;stroke:#808080;stroke-linecap:square;stroke-opacity:0.2;"/>
     </g>
     <g id="line2d_24">
      <g>
       <use style="stroke:#000000;stroke-width:0.8;" x="51.05" xlink:href="#mb1f9526368" y="116.973631"/>
      </g>
     </g>
     <g id="text_13">
      <!-- 165 -->
      <g transform="translate(24.9625 120.77285)scale(0.1 -0.1)">
       <use xlink:href="#DejaVuSans-49"/>
       <use x="63.623047" xlink:href="#DejaVuSans-54"/>
       <use x="127.246094" xlink:href="#DejaVuSans-53"/>
      </g>
     </g>
    </g>
    <g id="ytick_6">
     <g id="line2d_25">
      <path clip-path="url(#p74dc7c97fe)" d="M 51.05 61.388975 
L 693.270197 61.388975 
" style="fill:none;stroke:#808080;stroke-linecap:square;stroke-opacity:0.2;"/>
     </g>
     <g id="line2d_26">
      <g>
       <use style="stroke:#000000;stroke-width:0.8;" x="51.05" xlink:href="#mb1f9526368" y="61.388975"/>
      </g>
     </g>
     <g id="text_14">
      <!-- 170 -->
      <defs>
       <path d="M 8.203125 72.90625 
L 55.078125 72.90625 
L 55.078125 68.703125 
L 28.609375 0 
L 18.3125 0 
L 43.21875 64.59375 
L 8.203125 64.59375 
z
" id="DejaVuSans-55"/>
      </defs>
      <g transform="translate(24.9625 65.188194)scale(0.1 -0.1)">
       <use xlink:href="#DejaVuSans-49"/>
       <use x="63.623047" xlink:href="#DejaVuSans-55"/>
       <use x="127.246094" xlink:href="#DejaVuSans-48"/>
      </g>
     </g>
    </g>
    <g id="text_15">
     <!-- y -->
     <defs>
      <path d="M 32.171875 -5.078125 
Q 28.375 -14.84375 24.75 -17.8125 
Q 21.140625 -20.796875 15.09375 -20.796875 
L 7.90625 -20.796875 
L 7.90625 -13.28125 
L 13.1875 -13.28125 
Q 16.890625 -13.28125 18.9375 -11.515625 
Q 21 -9.765625 23.484375 -3.21875 
L 25.09375 0.875 
L 2.984375 54.6875 
L 12.5 54.6875 
L 29.59375 11.921875 
L 46.6875 54.6875 
L 56.203125 54.6875 
z
" id="DejaVuSans-121"/>
     </defs>
     <g transform="translate(18.882812 203.379375)rotate(-90)scale(0.1 -0.1)">
      <use xlink:href="#DejaVuSans-121"/>
     </g>
    </g>
   </g>
   <g id="line2d_27">
    <defs>
     <path d="M 0 1.5 
C 0.397805 1.5 0.77937 1.341951 1.06066 1.06066 
C 1.341951 0.77937 1.5 0.397805 1.5 0 
C 1.5 -0.397805 1.341951 -0.77937 1.06066 -1.06066 
C 0.77937 -1.341951 0.397805 -1.5 0 -1.5 
C -0.397805 -1.5 -0.77937 -1.341951 -1.06066 -1.06066 
C -1.341951 -0.77937 -1.5 -0.397805 -1.5 0 
C -1.5 0.397805 -1.341951 0.77937 -1.06066 1.06066 
C -0.77937 1.341951 -0.397805 1.5 0 1.5 
z
" id="mab926f769f" style="stroke:#000000;"/>
    </defs>
    <g clip-path="url(#p74dc7c97fe)">
     <use style="stroke:#000000;" x="80.241827" xlink:href="#mab926f769f" y="328.195323"/>
     <use style="stroke:#000000;" x="87.276002" xlink:href="#mab926f769f" y="272.610667"/>
     <use style="stroke:#000000;" x="101.344353" xlink:href="#mab926f769f" y="317.078392"/>
     <use style="stroke:#000000;" x="108.378528" xlink:href="#mab926f769f" y="317.078392"/>
     <use style="stroke:#000000;" x="122.446878" xlink:href="#mab926f769f" y="272.610667"/>
     <use style="stroke:#000000;" x="129.481054" xlink:href="#mab926f769f" y="272.610667"/>
     <use style="stroke:#000000;" x="143.549404" xlink:href="#mab926f769f" y="205.90908"/>
     <use style="stroke:#000000;" x="150.583579" xlink:href="#mab926f769f" y="194.792149"/>
     <use style="stroke:#000000;" x="164.65193" xlink:href="#mab926f769f" y="228.142943"/>
     <use style="stroke:#000000;" x="171.686105" xlink:href="#mab926f769f" y="217.026012"/>
     <use style="stroke:#000000;" x="185.754455" xlink:href="#mab926f769f" y="261.493736"/>
     <use style="stroke:#000000;" x="192.788631" xlink:href="#mab926f769f" y="205.90908"/>
     <use style="stroke:#000000;" x="206.856981" xlink:href="#mab926f769f" y="283.727598"/>
     <use style="stroke:#000000;" x="213.891156" xlink:href="#mab926f769f" y="294.84453"/>
     <use style="stroke:#000000;" x="227.959507" xlink:href="#mab926f769f" y="239.259874"/>
     <use style="stroke:#000000;" x="234.993682" xlink:href="#mab926f769f" y="261.493736"/>
     <use style="stroke:#000000;" x="249.062032" xlink:href="#mab926f769f" y="283.727598"/>
     <use style="stroke:#000000;" x="256.096208" xlink:href="#mab926f769f" y="294.84453"/>
     <use style="stroke:#000000;" x="270.164558" xlink:href="#mab926f769f" y="161.441356"/>
     <use style="stroke:#000000;" x="277.198733" xlink:href="#mab926f769f" y="205.90908"/>
     <use style="stroke:#000000;" x="291.267084" xlink:href="#mab926f769f" y="328.195323"/>
     <use style="stroke:#000000;" x="298.301259" xlink:href="#mab926f769f" y="261.493736"/>
     <use style="stroke:#000000;" x="312.369609" xlink:href="#mab926f769f" y="183.675218"/>
     <use style="stroke:#000000;" x="319.403784" xlink:href="#mab926f769f" y="205.90908"/>
     <use style="stroke:#000000;" x="333.472135" xlink:href="#mab926f769f" y="317.078392"/>
     <use style="stroke:#000000;" x="340.50631" xlink:href="#mab926f769f" y="272.610667"/>
     <use style="stroke:#000000;" x="354.574661" xlink:href="#mab926f769f" y="228.142943"/>
     <use style="stroke:#000000;" x="361.608836" xlink:href="#mab926f769f" y="239.259874"/>
     <use style="stroke:#000000;" x="375.677186" xlink:href="#mab926f769f" y="283.727598"/>
     <use style="stroke:#000000;" x="382.711361" xlink:href="#mab926f769f" y="328.195323"/>
     <use style="stroke:#000000;" x="396.779712" xlink:href="#mab926f769f" y="205.90908"/>
     <use style="stroke:#000000;" x="403.813887" xlink:href="#mab926f769f" y="172.558287"/>
     <use style="stroke:#000000;" x="417.882237" xlink:href="#mab926f769f" y="305.961461"/>
     <use style="stroke:#000000;" x="424.916413" xlink:href="#mab926f769f" y="317.078392"/>
     <use style="stroke:#000000;" x="438.984763" xlink:href="#mab926f769f" y="250.376805"/>
     <use style="stroke:#000000;" x="446.018938" xlink:href="#mab926f769f" y="205.90908"/>
     <use style="stroke:#000000;" x="460.087289" xlink:href="#mab926f769f" y="239.259874"/>
     <use style="stroke:#000000;" x="467.121464" xlink:href="#mab926f769f" y="183.675218"/>
     <use style="stroke:#000000;" x="481.189814" xlink:href="#mab926f769f" y="116.973631"/>
     <use style="stroke:#000000;" x="488.22399" xlink:href="#mab926f769f" y="205.90908"/>
     <use style="stroke:#000000;" x="502.29234" xlink:href="#mab926f769f" y="205.90908"/>
     <use style="stroke:#000000;" x="509.326515" xlink:href="#mab926f769f" y="172.558287"/>
     <use style="stroke:#000000;" x="523.394866" xlink:href="#mab926f769f" y="150.324425"/>
     <use style="stroke:#000000;" x="530.429041" xlink:href="#mab926f769f" y="339.312254"/>
     <use style="stroke:#000000;" x="544.497391" xlink:href="#mab926f769f" y="272.610667"/>
     <use style="stroke:#000000;" x="551.531567" xlink:href="#mab926f769f" y="261.493736"/>
     <use style="stroke:#000000;" x="565.599917" xlink:href="#mab926f769f" y="161.441356"/>
     <use style="stroke:#000000;" x="572.634092" xlink:href="#mab926f769f" y="150.324425"/>
     <use style="stroke:#000000;" x="586.702443" xlink:href="#mab926f769f" y="194.792149"/>
     <use style="stroke:#000000;" x="593.736618" xlink:href="#mab926f769f" y="217.026012"/>
     <use style="stroke:#000000;" x="607.804968" xlink:href="#mab926f769f" y="161.441356"/>
     <use style="stroke:#000000;" x="614.839144" xlink:href="#mab926f769f" y="183.675218"/>
     <use style="stroke:#000000;" x="628.907494" xlink:href="#mab926f769f" y="194.792149"/>
     <use style="stroke:#000000;" x="635.941669" xlink:href="#mab926f769f" y="172.558287"/>
     <use style="stroke:#000000;" x="650.01002" xlink:href="#mab926f769f" y="28.038182"/>
     <use style="stroke:#000000;" x="657.044195" xlink:href="#mab926f769f" y="116.973631"/>
    </g>
   </g>
   <g id="line2d_28">
    <path clip-path="url(#p74dc7c97fe)" d="M 80.241827 279.090811 
L 87.276002 302.829019 
L 101.344353 281.768948 
L 108.378528 266.94192 
L 122.446878 250.045719 
L 129.481054 273.107758 
L 143.549404 269.740547 
L 150.583579 275.785895 
L 164.65193 246.859161 
L 171.686105 244.062666 
L 185.754455 290.862914 
L 192.788631 263.757496 
L 206.856981 254.975817 
L 213.891156 240.876111 
L 227.959507 261.141656 
L 234.993682 284.879865 
L 249.062032 263.819795 
L 256.096208 248.992767 
L 270.164558 232.096568 
L 277.198733 255.158607 
L 291.267084 251.791397 
L 298.301259 257.836746 
L 312.369609 228.909971 
L 319.403784 226.112596 
L 333.472135 272.911084 
L 340.50631 245.792308 
L 354.574661 236.983913 
L 361.608836 222.859685 
L 375.677186 243.076184 
L 382.711361 266.767441 
L 396.779712 245.576135 
L 403.813887 230.683489 
L 417.882237 213.631802 
L 424.916413 236.616097 
L 438.984763 233.073237 
L 446.018938 237.723692 
L 460.087289 206.007171 
L 467.121464 201.80585 
L 481.189814 245.796444 
L 488.22399 217.285857 
L 502.29234 205.693838 
L 509.326515 190.181957 
L 523.394866 207.611009 
L 530.429041 229.930972 
L 544.497391 206.011034 
L 551.531567 189.754072 
L 565.599917 169.998003 
L 572.634092 191.630108 
L 586.702443 185.40303 
L 593.736618 190.018444 
L 607.804968 158.231843 
L 614.839144 154.005414 
L 628.907494 197.945793 
L 635.941669 169.410441 
L 650.01002 157.768893 
L 657.044195 142.239253 
L 664.07837 138.012824 
" style="fill:none;stroke:#0072b2;stroke-linecap:square;stroke-width:1.5;"/>
   </g>
   <g id="patch_3">
    <path d="M 51.05 390.04 
L 51.05 10.8 
" style="fill:none;stroke:#000000;stroke-linecap:square;stroke-linejoin:miter;stroke-width:0.8;"/>
   </g>
   <g id="patch_4">
    <path d="M 693.270197 390.04 
L 693.270197 10.8 
" style="fill:none;stroke:#000000;stroke-linecap:square;stroke-linejoin:miter;stroke-width:0.8;"/>
   </g>
   <g id="patch_5">
    <path d="M 51.05 390.04 
L 693.270197 390.04 
" style="fill:none;stroke:#000000;stroke-linecap:square;stroke-linejoin:miter;stroke-width:0.8;"/>
   </g>
   <g id="patch_6">
    <path d="M 51.05 10.8 
L 693.270197 10.8 
" style="fill:none;stroke:#000000;stroke-linecap:square;stroke-linejoin:miter;stroke-width:0.8;"/>
   </g>
  </g>
 </g>
 <defs>
  <clipPath id="p74dc7c97fe">
   <rect height="379.24" width="642.220197" x="51.05" y="10.8"/>
  </clipPath>
 </defs>
</svg>
