<?xml version="1.0" encoding="utf-8" standalone="no"?>
<!DOCTYPE svg PUBLIC "-//W3C//DTD SVG 1.1//EN"
  "http://www.w3.org/Graphics/SVG/1.1/DTD/svg11.dtd">
<!-- Created with matplotlib (https://matplotlib.org/) -->
<svg height="432pt" version="1.1" viewBox="0 0 720 432" width="720pt" xmlns="http://www.w3.org/2000/svg" xmlns:xlink="http://www.w3.org/1999/xlink">
 <defs>
  <style type="text/css">
*{stroke-linecap:butt;stroke-linejoin:round;}
  </style>
 </defs>
 <g id="figure_1">
  <g id="patch_1">
   <path d="M 0 432 
L 720 432 
L 720 0 
L 0 0 
z
" style="fill:#ffffff;"/>
  </g>
  <g id="axes_1">
   <g id="patch_2">
    <path d="M 51.05 390.04 
L 709.2 390.04 
L 709.2 10.8 
L 51.05 10.8 
z
" style="fill:#ffffff;"/>
   </g>
   <g id="PolyCollection_1">
    <defs>
     <path d="M 80.965909 -346.86976 
L 80.965909 -193.923105 
L 88.174562 -185.099296 
L 102.591867 -190.323903 
L 109.80052 -208.347112 
L 124.217826 -161.994937 
L 131.426479 -170.51977 
L 145.843784 -183.343615 
L 153.052437 -153.355614 
L 167.469743 -166.620696 
L 174.678395 -129.197823 
L 189.095701 -134.220955 
L 210.721659 -152.887512 
L 217.930312 -136.923921 
L 232.347618 -115.710377 
L 239.556271 -106.441691 
L 253.973576 -104.738878 
L 261.182229 -120.644951 
L 275.599535 -81.687041 
L 282.808187 -91.195433 
L 297.225493 -92.751072 
L 304.434146 -79.283623 
L 318.851451 -91.404105 
L 326.060104 -59.198182 
L 340.47741 -76.989839 
L 347.686062 -93.175097 
L 362.103368 -107.736971 
L 369.312021 -101.937293 
L 383.729326 -91.134246 
L 390.937979 -88.694785 
L 405.355285 -98.222395 
L 412.563938 -127.319637 
L 434.189896 -104.832032 
L 448.607202 -132.552272 
L 455.815854 -113.953635 
L 470.23316 -135.795806 
L 491.859118 -122.387127 
L 499.067771 -147.663596 
L 513.485077 -161.442585 
L 520.693729 -153.958636 
L 535.111035 -141.672969 
L 542.319688 -138.371094 
L 556.736993 -152.142268 
L 563.945646 -174.370937 
L 578.362952 -139.691292 
L 585.571605 -158.304824 
L 599.98891 -183.198289 
L 607.197563 -163.83241 
L 621.614869 -186.655267 
L 628.823521 -156.460339 
L 643.240827 -173.895382 
L 650.44948 -199.489459 
L 664.866785 -216.07635 
L 672.075438 -200.986362 
L 679.284091 -175.91721 
L 679.284091 -326.493033 
L 679.284091 -326.493033 
L 672.075438 -361.114232 
L 664.866785 -367.1606 
L 650.44948 -354.234152 
L 643.240827 -334.536527 
L 628.823521 -311.882819 
L 621.614869 -342.021262 
L 607.197563 -324.865057 
L 599.98891 -335.695716 
L 585.571605 -312.193998 
L 578.362952 -297.837711 
L 563.945646 -331.074393 
L 556.736993 -303.20884 
L 542.319688 -297.820315 
L 535.111035 -303.17976 
L 520.693729 -302.802631 
L 513.485077 -314.386804 
L 499.067771 -302.626793 
L 491.859118 -277.108796 
L 470.23316 -292.505107 
L 455.815854 -277.817965 
L 448.607202 -282.946698 
L 434.189896 -249.523227 
L 412.563938 -282.787512 
L 405.355285 -252.934637 
L 390.937979 -242.762606 
L 383.729326 -242.146174 
L 369.312021 -261.475166 
L 362.103368 -266.013464 
L 347.686062 -246.631856 
L 340.47741 -224.034975 
L 326.060104 -205.468681 
L 318.851451 -236.937955 
L 304.434146 -230.507018 
L 297.225493 -248.189537 
L 282.808187 -240.21295 
L 275.599535 -235.976213 
L 261.182229 -272.704107 
L 253.973576 -256.68862 
L 239.556271 -259.474823 
L 232.347618 -277.894361 
L 217.930312 -293.625937 
L 210.721659 -310.351709 
L 189.095701 -286.247053 
L 174.678395 -284.74061 
L 167.469743 -322.9234 
L 153.052437 -315.107735 
L 145.843784 -329.553663 
L 131.426479 -314.941786 
L 124.217826 -312.213084 
L 109.80052 -363.188968 
L 102.591867 -341.739288 
L 88.174562 -345.811937 
L 80.965909 -346.86976 
z
" id="mc590ecc61a" style="stroke:#0072b2;stroke-opacity:0.2;"/>
    </defs>
    <g clip-path="url(#p1db5e3e42f)">
     <use style="fill:#0072b2;fill-opacity:0.2;stroke:#0072b2;stroke-opacity:0.2;" x="0" xlink:href="#mc590ecc61a" y="432"/>
    </g>
   </g>
   <g id="matplotlib.axis_1">
    <g id="xtick_1">
     <g id="line2d_1">
      <path clip-path="url(#p1db5e3e42f)" d="M 109.80052 390.04 
L 109.80052 10.8 
" style="fill:none;stroke:#808080;stroke-linecap:square;stroke-opacity:0.2;"/>
     </g>
     <g id="line2d_2">
      <defs>
       <path d="M 0 0 
L 0 3.5 
" id="m7555c1dd6c" style="stroke:#000000;stroke-width:0.8;"/>
      </defs>
      <g>
       <use style="stroke:#000000;stroke-width:0.8;" x="109.80052" xlink:href="#m7555c1dd6c" y="390.04"/>
      </g>
     </g>
     <g id="text_1">
      <!-- 2019-04-06 -->
      <defs>
       <path d="M 19.1875 8.296875 
L 53.609375 8.296875 
L 53.609375 0 
L 7.328125 0 
L 7.328125 8.296875 
Q 12.9375 14.109375 22.625 23.890625 
Q 32.328125 33.6875 34.8125 36.53125 
Q 39.546875 41.84375 41.421875 45.53125 
Q 43.3125 49.21875 43.3125 52.78125 
Q 43.3125 58.59375 39.234375 62.25 
Q 35.15625 65.921875 28.609375 65.921875 
Q 23.96875 65.921875 18.8125 64.3125 
Q 13.671875 62.703125 7.8125 59.421875 
L 7.8125 69.390625 
Q 13.765625 71.78125 18.9375 73 
Q 24.125 74.21875 28.421875 74.21875 
Q 39.75 74.21875 46.484375 68.546875 
Q 53.21875 62.890625 53.21875 53.421875 
Q 53.21875 48.921875 51.53125 44.890625 
Q 49.859375 40.875 45.40625 35.40625 
Q 44.1875 33.984375 37.640625 27.21875 
Q 31.109375 20.453125 19.1875 8.296875 
z
" id="DejaVuSans-50"/>
       <path d="M 31.78125 66.40625 
Q 24.171875 66.40625 20.328125 58.90625 
Q 16.5 51.421875 16.5 36.375 
Q 16.5 21.390625 20.328125 13.890625 
Q 24.171875 6.390625 31.78125 6.390625 
Q 39.453125 6.390625 43.28125 13.890625 
Q 47.125 21.390625 47.125 36.375 
Q 47.125 51.421875 43.28125 58.90625 
Q 39.453125 66.40625 31.78125 66.40625 
z
M 31.78125 74.21875 
Q 44.046875 74.21875 50.515625 64.515625 
Q 56.984375 54.828125 56.984375 36.375 
Q 56.984375 17.96875 50.515625 8.265625 
Q 44.046875 -1.421875 31.78125 -1.421875 
Q 19.53125 -1.421875 13.0625 8.265625 
Q 6.59375 17.96875 6.59375 36.375 
Q 6.59375 54.828125 13.0625 64.515625 
Q 19.53125 74.21875 31.78125 74.21875 
z
" id="DejaVuSans-48"/>
       <path d="M 12.40625 8.296875 
L 28.515625 8.296875 
L 28.515625 63.921875 
L 10.984375 60.40625 
L 10.984375 69.390625 
L 28.421875 72.90625 
L 38.28125 72.90625 
L 38.28125 8.296875 
L 54.390625 8.296875 
L 54.390625 0 
L 12.40625 0 
z
" id="DejaVuSans-49"/>
       <path d="M 10.984375 1.515625 
L 10.984375 10.5 
Q 14.703125 8.734375 18.5 7.8125 
Q 22.3125 6.890625 25.984375 6.890625 
Q 35.75 6.890625 40.890625 13.453125 
Q 46.046875 20.015625 46.78125 33.40625 
Q 43.953125 29.203125 39.59375 26.953125 
Q 35.25 24.703125 29.984375 24.703125 
Q 19.046875 24.703125 12.671875 31.3125 
Q 6.296875 37.9375 6.296875 49.421875 
Q 6.296875 60.640625 12.9375 67.421875 
Q 19.578125 74.21875 30.609375 74.21875 
Q 43.265625 74.21875 49.921875 64.515625 
Q 56.59375 54.828125 56.59375 36.375 
Q 56.59375 19.140625 48.40625 8.859375 
Q 40.234375 -1.421875 26.421875 -1.421875 
Q 22.703125 -1.421875 18.890625 -0.6875 
Q 15.09375 0.046875 10.984375 1.515625 
z
M 30.609375 32.421875 
Q 37.25 32.421875 41.125 36.953125 
Q 45.015625 41.5 45.015625 49.421875 
Q 45.015625 57.28125 41.125 61.84375 
Q 37.25 66.40625 30.609375 66.40625 
Q 23.96875 66.40625 20.09375 61.84375 
Q 16.21875 57.28125 16.21875 49.421875 
Q 16.21875 41.5 20.09375 36.953125 
Q 23.96875 32.421875 30.609375 32.421875 
z
" id="DejaVuSans-57"/>
       <path d="M 4.890625 31.390625 
L 31.203125 31.390625 
L 31.203125 23.390625 
L 4.890625 23.390625 
z
" id="DejaVuSans-45"/>
       <path d="M 37.796875 64.3125 
L 12.890625 25.390625 
L 37.796875 25.390625 
z
M 35.203125 72.90625 
L 47.609375 72.90625 
L 47.609375 25.390625 
L 58.015625 25.390625 
L 58.015625 17.1875 
L 47.609375 17.1875 
L 47.609375 0 
L 37.796875 0 
L 37.796875 17.1875 
L 4.890625 17.1875 
L 4.890625 26.703125 
z
" id="DejaVuSans-52"/>
       <path d="M 33.015625 40.375 
Q 26.375 40.375 22.484375 35.828125 
Q 18.609375 31.296875 18.609375 23.390625 
Q 18.609375 15.53125 22.484375 10.953125 
Q 26.375 6.390625 33.015625 6.390625 
Q 39.65625 6.390625 43.53125 10.953125 
Q 47.40625 15.53125 47.40625 23.390625 
Q 47.40625 31.296875 43.53125 35.828125 
Q 39.65625 40.375 33.015625 40.375 
z
M 52.59375 71.296875 
L 52.59375 62.3125 
Q 48.875 64.0625 45.09375 64.984375 
Q 41.3125 65.921875 37.59375 65.921875 
Q 27.828125 65.921875 22.671875 59.328125 
Q 17.53125 52.734375 16.796875 39.40625 
Q 19.671875 43.65625 24.015625 45.921875 
Q 28.375 48.1875 33.59375 48.1875 
Q 44.578125 48.1875 50.953125 41.515625 
Q 57.328125 34.859375 57.328125 23.390625 
Q 57.328125 12.15625 50.6875 5.359375 
Q 44.046875 -1.421875 33.015625 -1.421875 
Q 20.359375 -1.421875 13.671875 8.265625 
Q 6.984375 17.96875 6.984375 36.375 
Q 6.984375 53.65625 15.1875 63.9375 
Q 23.390625 74.21875 37.203125 74.21875 
Q 40.921875 74.21875 44.703125 73.484375 
Q 48.484375 72.75 52.59375 71.296875 
z
" id="DejaVuSans-54"/>
      </defs>
      <g transform="translate(80.742708 404.638438)scale(0.1 -0.1)">
       <use xlink:href="#DejaVuSans-50"/>
       <use x="63.623047" xlink:href="#DejaVuSans-48"/>
       <use x="127.246094" xlink:href="#DejaVuSans-49"/>
       <use x="190.869141" xlink:href="#DejaVuSans-57"/>
       <use x="254.492188" xlink:href="#DejaVuSans-45"/>
       <use x="290.576172" xlink:href="#DejaVuSans-48"/>
       <use x="354.199219" xlink:href="#DejaVuSans-52"/>
       <use x="417.822266" xlink:href="#DejaVuSans-45"/>
       <use x="453.90625" xlink:href="#DejaVuSans-48"/>
       <use x="517.529297" xlink:href="#DejaVuSans-54"/>
      </g>
     </g>
    </g>
    <g id="xtick_2">
     <g id="line2d_3">
      <path clip-path="url(#p1db5e3e42f)" d="M 210.721659 390.04 
L 210.721659 10.8 
" style="fill:none;stroke:#808080;stroke-linecap:square;stroke-opacity:0.2;"/>
     </g>
     <g id="line2d_4">
      <g>
       <use style="stroke:#000000;stroke-width:0.8;" x="210.721659" xlink:href="#m7555c1dd6c" y="390.04"/>
      </g>
     </g>
     <g id="text_2">
      <!-- 2019-04-20 -->
      <g transform="translate(181.663847 404.638438)scale(0.1 -0.1)">
       <use xlink:href="#DejaVuSans-50"/>
       <use x="63.623047" xlink:href="#DejaVuSans-48"/>
       <use x="127.246094" xlink:href="#DejaVuSans-49"/>
       <use x="190.869141" xlink:href="#DejaVuSans-57"/>
       <use x="254.492188" xlink:href="#DejaVuSans-45"/>
       <use x="290.576172" xlink:href="#DejaVuSans-48"/>
       <use x="354.199219" xlink:href="#DejaVuSans-52"/>
       <use x="417.822266" xlink:href="#DejaVuSans-45"/>
       <use x="453.90625" xlink:href="#DejaVuSans-50"/>
       <use x="517.529297" xlink:href="#DejaVuSans-48"/>
      </g>
     </g>
    </g>
    <g id="xtick_3">
     <g id="line2d_5">
      <path clip-path="url(#p1db5e3e42f)" d="M 311.642798 390.04 
L 311.642798 10.8 
" style="fill:none;stroke:#808080;stroke-linecap:square;stroke-opacity:0.2;"/>
     </g>
     <g id="line2d_6">
      <g>
       <use style="stroke:#000000;stroke-width:0.8;" x="311.642798" xlink:href="#m7555c1dd6c" y="390.04"/>
      </g>
     </g>
     <g id="text_3">
      <!-- 2019-05-04 -->
      <defs>
       <path d="M 10.796875 72.90625 
L 49.515625 72.90625 
L 49.515625 64.59375 
L 19.828125 64.59375 
L 19.828125 46.734375 
Q 21.96875 47.46875 24.109375 47.828125 
Q 26.265625 48.1875 28.421875 48.1875 
Q 40.625 48.1875 47.75 41.5 
Q 54.890625 34.8125 54.890625 23.390625 
Q 54.890625 11.625 47.5625 5.09375 
Q 40.234375 -1.421875 26.90625 -1.421875 
Q 22.3125 -1.421875 17.546875 -0.640625 
Q 12.796875 0.140625 7.71875 1.703125 
L 7.71875 11.625 
Q 12.109375 9.234375 16.796875 8.0625 
Q 21.484375 6.890625 26.703125 6.890625 
Q 35.15625 6.890625 40.078125 11.328125 
Q 45.015625 15.765625 45.015625 23.390625 
Q 45.015625 31 40.078125 35.4375 
Q 35.15625 39.890625 26.703125 39.890625 
Q 22.75 39.890625 18.8125 39.015625 
Q 14.890625 38.140625 10.796875 36.28125 
z
" id="DejaVuSans-53"/>
      </defs>
      <g transform="translate(282.584986 404.638438)scale(0.1 -0.1)">
       <use xlink:href="#DejaVuSans-50"/>
       <use x="63.623047" xlink:href="#DejaVuSans-48"/>
       <use x="127.246094" xlink:href="#DejaVuSans-49"/>
       <use x="190.869141" xlink:href="#DejaVuSans-57"/>
       <use x="254.492188" xlink:href="#DejaVuSans-45"/>
       <use x="290.576172" xlink:href="#DejaVuSans-48"/>
       <use x="354.199219" xlink:href="#DejaVuSans-53"/>
       <use x="417.822266" xlink:href="#DejaVuSans-45"/>
       <use x="453.90625" xlink:href="#DejaVuSans-48"/>
       <use x="517.529297" xlink:href="#DejaVuSans-52"/>
      </g>
     </g>
    </g>
    <g id="xtick_4">
     <g id="line2d_7">
      <path clip-path="url(#p1db5e3e42f)" d="M 412.563938 390.04 
L 412.563938 10.8 
" style="fill:none;stroke:#808080;stroke-linecap:square;stroke-opacity:0.2;"/>
     </g>
     <g id="line2d_8">
      <g>
       <use style="stroke:#000000;stroke-width:0.8;" x="412.563938" xlink:href="#m7555c1dd6c" y="390.04"/>
      </g>
     </g>
     <g id="text_4">
      <!-- 2019-05-18 -->
      <defs>
       <path d="M 31.78125 34.625 
Q 24.75 34.625 20.71875 30.859375 
Q 16.703125 27.09375 16.703125 20.515625 
Q 16.703125 13.921875 20.71875 10.15625 
Q 24.75 6.390625 31.78125 6.390625 
Q 38.8125 6.390625 42.859375 10.171875 
Q 46.921875 13.96875 46.921875 20.515625 
Q 46.921875 27.09375 42.890625 30.859375 
Q 38.875 34.625 31.78125 34.625 
z
M 21.921875 38.8125 
Q 15.578125 40.375 12.03125 44.71875 
Q 8.5 49.078125 8.5 55.328125 
Q 8.5 64.0625 14.71875 69.140625 
Q 20.953125 74.21875 31.78125 74.21875 
Q 42.671875 74.21875 48.875 69.140625 
Q 55.078125 64.0625 55.078125 55.328125 
Q 55.078125 49.078125 51.53125 44.71875 
Q 48 40.375 41.703125 38.8125 
Q 48.828125 37.15625 52.796875 32.3125 
Q 56.78125 27.484375 56.78125 20.515625 
Q 56.78125 9.90625 50.3125 4.234375 
Q 43.84375 -1.421875 31.78125 -1.421875 
Q 19.734375 -1.421875 13.25 4.234375 
Q 6.78125 9.90625 6.78125 20.515625 
Q 6.78125 27.484375 10.78125 32.3125 
Q 14.796875 37.15625 21.921875 38.8125 
z
M 18.3125 54.390625 
Q 18.3125 48.734375 21.84375 45.5625 
Q 25.390625 42.390625 31.78125 42.390625 
Q 38.140625 42.390625 41.71875 45.5625 
Q 45.3125 48.734375 45.3125 54.390625 
Q 45.3125 60.0625 41.71875 63.234375 
Q 38.140625 66.40625 31.78125 66.40625 
Q 25.390625 66.40625 21.84375 63.234375 
Q 18.3125 60.0625 18.3125 54.390625 
z
" id="DejaVuSans-56"/>
      </defs>
      <g transform="translate(383.506125 404.638438)scale(0.1 -0.1)">
       <use xlink:href="#DejaVuSans-50"/>
       <use x="63.623047" xlink:href="#DejaVuSans-48"/>
       <use x="127.246094" xlink:href="#DejaVuSans-49"/>
       <use x="190.869141" xlink:href="#DejaVuSans-57"/>
       <use x="254.492188" xlink:href="#DejaVuSans-45"/>
       <use x="290.576172" xlink:href="#DejaVuSans-48"/>
       <use x="354.199219" xlink:href="#DejaVuSans-53"/>
       <use x="417.822266" xlink:href="#DejaVuSans-45"/>
       <use x="453.90625" xlink:href="#DejaVuSans-49"/>
       <use x="517.529297" xlink:href="#DejaVuSans-56"/>
      </g>
     </g>
    </g>
    <g id="xtick_5">
     <g id="line2d_9">
      <path clip-path="url(#p1db5e3e42f)" d="M 513.485077 390.04 
L 513.485077 10.8 
" style="fill:none;stroke:#808080;stroke-linecap:square;stroke-opacity:0.2;"/>
     </g>
     <g id="line2d_10">
      <g>
       <use style="stroke:#000000;stroke-width:0.8;" x="513.485077" xlink:href="#m7555c1dd6c" y="390.04"/>
      </g>
     </g>
     <g id="text_5">
      <!-- 2019-06-01 -->
      <g transform="translate(484.427264 404.638438)scale(0.1 -0.1)">
       <use xlink:href="#DejaVuSans-50"/>
       <use x="63.623047" xlink:href="#DejaVuSans-48"/>
       <use x="127.246094" xlink:href="#DejaVuSans-49"/>
       <use x="190.869141" xlink:href="#DejaVuSans-57"/>
       <use x="254.492188" xlink:href="#DejaVuSans-45"/>
       <use x="290.576172" xlink:href="#DejaVuSans-48"/>
       <use x="354.199219" xlink:href="#DejaVuSans-54"/>
       <use x="417.822266" xlink:href="#DejaVuSans-45"/>
       <use x="453.90625" xlink:href="#DejaVuSans-48"/>
       <use x="517.529297" xlink:href="#DejaVuSans-49"/>
      </g>
     </g>
    </g>
    <g id="xtick_6">
     <g id="line2d_11">
      <path clip-path="url(#p1db5e3e42f)" d="M 614.406216 390.04 
L 614.406216 10.8 
" style="fill:none;stroke:#808080;stroke-linecap:square;stroke-opacity:0.2;"/>
     </g>
     <g id="line2d_12">
      <g>
       <use style="stroke:#000000;stroke-width:0.8;" x="614.406216" xlink:href="#m7555c1dd6c" y="390.04"/>
      </g>
     </g>
     <g id="text_6">
      <!-- 2019-06-15 -->
      <g transform="translate(585.348403 404.638438)scale(0.1 -0.1)">
       <use xlink:href="#DejaVuSans-50"/>
       <use x="63.623047" xlink:href="#DejaVuSans-48"/>
       <use x="127.246094" xlink:href="#DejaVuSans-49"/>
       <use x="190.869141" xlink:href="#DejaVuSans-57"/>
       <use x="254.492188" xlink:href="#DejaVuSans-45"/>
       <use x="290.576172" xlink:href="#DejaVuSans-48"/>
       <use x="354.199219" xlink:href="#DejaVuSans-54"/>
       <use x="417.822266" xlink:href="#DejaVuSans-45"/>
       <use x="453.90625" xlink:href="#DejaVuSans-49"/>
       <use x="517.529297" xlink:href="#DejaVuSans-53"/>
      </g>
     </g>
    </g>
    <g id="text_7">
     <!-- ds -->
     <defs>
      <path d="M 45.40625 46.390625 
L 45.40625 75.984375 
L 54.390625 75.984375 
L 54.390625 0 
L 45.40625 0 
L 45.40625 8.203125 
Q 42.578125 3.328125 38.25 0.953125 
Q 33.9375 -1.421875 27.875 -1.421875 
Q 17.96875 -1.421875 11.734375 6.484375 
Q 5.515625 14.40625 5.515625 27.296875 
Q 5.515625 40.1875 11.734375 48.09375 
Q 17.96875 56 27.875 56 
Q 33.9375 56 38.25 53.625 
Q 42.578125 51.265625 45.40625 46.390625 
z
M 14.796875 27.296875 
Q 14.796875 17.390625 18.875 11.75 
Q 22.953125 6.109375 30.078125 6.109375 
Q 37.203125 6.109375 41.296875 11.75 
Q 45.40625 17.390625 45.40625 27.296875 
Q 45.40625 37.203125 41.296875 42.84375 
Q 37.203125 48.484375 30.078125 48.484375 
Q 22.953125 48.484375 18.875 42.84375 
Q 14.796875 37.203125 14.796875 27.296875 
z
" id="DejaVuSans-100"/>
      <path d="M 44.28125 53.078125 
L 44.28125 44.578125 
Q 40.484375 46.53125 36.375 47.5 
Q 32.28125 48.484375 27.875 48.484375 
Q 21.1875 48.484375 17.84375 46.4375 
Q 14.5 44.390625 14.5 40.28125 
Q 14.5 37.15625 16.890625 35.375 
Q 19.28125 33.59375 26.515625 31.984375 
L 29.59375 31.296875 
Q 39.15625 29.25 43.1875 25.515625 
Q 47.21875 21.78125 47.21875 15.09375 
Q 47.21875 7.46875 41.1875 3.015625 
Q 35.15625 -1.421875 24.609375 -1.421875 
Q 20.21875 -1.421875 15.453125 -0.5625 
Q 10.6875 0.296875 5.421875 2 
L 5.421875 11.28125 
Q 10.40625 8.6875 15.234375 7.390625 
Q 20.0625 6.109375 24.8125 6.109375 
Q 31.15625 6.109375 34.5625 8.28125 
Q 37.984375 10.453125 37.984375 14.40625 
Q 37.984375 18.0625 35.515625 20.015625 
Q 33.0625 21.96875 24.703125 23.78125 
L 21.578125 24.515625 
Q 13.234375 26.265625 9.515625 29.90625 
Q 5.8125 33.546875 5.8125 39.890625 
Q 5.8125 47.609375 11.28125 51.796875 
Q 16.75 56 26.8125 56 
Q 31.78125 56 36.171875 55.265625 
Q 40.578125 54.546875 44.28125 53.078125 
z
" id="DejaVuSans-115"/>
     </defs>
     <g transform="translate(374.346094 418.316562)scale(0.1 -0.1)">
      <use xlink:href="#DejaVuSans-100"/>
      <use x="63.476562" xlink:href="#DejaVuSans-115"/>
     </g>
    </g>
   </g>
   <g id="matplotlib.axis_2">
    <g id="ytick_1">
     <g id="line2d_13">
      <path clip-path="url(#p1db5e3e42f)" d="M 51.05 349.455124 
L 709.2 349.455124 
" style="fill:none;stroke:#808080;stroke-linecap:square;stroke-opacity:0.2;"/>
     </g>
     <g id="line2d_14">
      <defs>
       <path d="M 0 0 
L -3.5 0 
" id="m87a4b11078" style="stroke:#000000;stroke-width:0.8;"/>
      </defs>
      <g>
       <use style="stroke:#000000;stroke-width:0.8;" x="51.05" xlink:href="#m87a4b11078" y="349.455124"/>
      </g>
     </g>
     <g id="text_8">
      <!-- 100 -->
      <g transform="translate(24.9625 353.254343)scale(0.1 -0.1)">
       <use xlink:href="#DejaVuSans-49"/>
       <use x="63.623047" xlink:href="#DejaVuSans-48"/>
       <use x="127.246094" xlink:href="#DejaVuSans-48"/>
      </g>
     </g>
    </g>
    <g id="ytick_2">
     <g id="line2d_15">
      <path clip-path="url(#p1db5e3e42f)" d="M 51.05 278.029137 
L 709.2 278.029137 
" style="fill:none;stroke:#808080;stroke-linecap:square;stroke-opacity:0.2;"/>
     </g>
     <g id="line2d_16">
      <g>
       <use style="stroke:#000000;stroke-width:0.8;" x="51.05" xlink:href="#m87a4b11078" y="278.029137"/>
      </g>
     </g>
     <g id="text_9">
      <!-- 110 -->
      <g transform="translate(24.9625 281.828356)scale(0.1 -0.1)">
       <use xlink:href="#DejaVuSans-49"/>
       <use x="63.623047" xlink:href="#DejaVuSans-49"/>
       <use x="127.246094" xlink:href="#DejaVuSans-48"/>
      </g>
     </g>
    </g>
    <g id="ytick_3">
     <g id="line2d_17">
      <path clip-path="url(#p1db5e3e42f)" d="M 51.05 206.60315 
L 709.2 206.60315 
" style="fill:none;stroke:#808080;stroke-linecap:square;stroke-opacity:0.2;"/>
     </g>
     <g id="line2d_18">
      <g>
       <use style="stroke:#000000;stroke-width:0.8;" x="51.05" xlink:href="#m87a4b11078" y="206.60315"/>
      </g>
     </g>
     <g id="text_10">
      <!-- 120 -->
      <g transform="translate(24.9625 210.402368)scale(0.1 -0.1)">
       <use xlink:href="#DejaVuSans-49"/>
       <use x="63.623047" xlink:href="#DejaVuSans-50"/>
       <use x="127.246094" xlink:href="#DejaVuSans-48"/>
      </g>
     </g>
    </g>
    <g id="ytick_4">
     <g id="line2d_19">
      <path clip-path="url(#p1db5e3e42f)" d="M 51.05 135.177163 
L 709.2 135.177163 
" style="fill:none;stroke:#808080;stroke-linecap:square;stroke-opacity:0.2;"/>
     </g>
     <g id="line2d_20">
      <g>
       <use style="stroke:#000000;stroke-width:0.8;" x="51.05" xlink:href="#m87a4b11078" y="135.177163"/>
      </g>
     </g>
     <g id="text_11">
      <!-- 130 -->
      <defs>
       <path d="M 40.578125 39.3125 
Q 47.65625 37.796875 51.625 33 
Q 55.609375 28.21875 55.609375 21.1875 
Q 55.609375 10.40625 48.1875 4.484375 
Q 40.765625 -1.421875 27.09375 -1.421875 
Q 22.515625 -1.421875 17.65625 -0.515625 
Q 12.796875 0.390625 7.625 2.203125 
L 7.625 11.71875 
Q 11.71875 9.328125 16.59375 8.109375 
Q 21.484375 6.890625 26.8125 6.890625 
Q 36.078125 6.890625 40.9375 10.546875 
Q 45.796875 14.203125 45.796875 21.1875 
Q 45.796875 27.640625 41.28125 31.265625 
Q 36.765625 34.90625 28.71875 34.90625 
L 20.21875 34.90625 
L 20.21875 43.015625 
L 29.109375 43.015625 
Q 36.375 43.015625 40.234375 45.921875 
Q 44.09375 48.828125 44.09375 54.296875 
Q 44.09375 59.90625 40.109375 62.90625 
Q 36.140625 65.921875 28.71875 65.921875 
Q 24.65625 65.921875 20.015625 65.03125 
Q 15.375 64.15625 9.8125 62.3125 
L 9.8125 71.09375 
Q 15.4375 72.65625 20.34375 73.4375 
Q 25.25 74.21875 29.59375 74.21875 
Q 40.828125 74.21875 47.359375 69.109375 
Q 53.90625 64.015625 53.90625 55.328125 
Q 53.90625 49.265625 50.4375 45.09375 
Q 46.96875 40.921875 40.578125 39.3125 
z
" id="DejaVuSans-51"/>
      </defs>
      <g transform="translate(24.9625 138.976381)scale(0.1 -0.1)">
       <use xlink:href="#DejaVuSans-49"/>
       <use x="63.623047" xlink:href="#DejaVuSans-51"/>
       <use x="127.246094" xlink:href="#DejaVuSans-48"/>
      </g>
     </g>
    </g>
    <g id="ytick_5">
     <g id="line2d_21">
      <path clip-path="url(#p1db5e3e42f)" d="M 51.05 63.751175 
L 709.2 63.751175 
" style="fill:none;stroke:#808080;stroke-linecap:square;stroke-opacity:0.2;"/>
     </g>
     <g id="line2d_22">
      <g>
       <use style="stroke:#000000;stroke-width:0.8;" x="51.05" xlink:href="#m87a4b11078" y="63.751175"/>
      </g>
     </g>
     <g id="text_12">
      <!-- 140 -->
      <g transform="translate(24.9625 67.550394)scale(0.1 -0.1)">
       <use xlink:href="#DejaVuSans-49"/>
       <use x="63.623047" xlink:href="#DejaVuSans-52"/>
       <use x="127.246094" xlink:href="#DejaVuSans-48"/>
      </g>
     </g>
    </g>
    <g id="text_13">
     <!-- y -->
     <defs>
      <path d="M 32.171875 -5.078125 
Q 28.375 -14.84375 24.75 -17.8125 
Q 21.140625 -20.796875 15.09375 -20.796875 
L 7.90625 -20.796875 
L 7.90625 -13.28125 
L 13.1875 -13.28125 
Q 16.890625 -13.28125 18.9375 -11.515625 
Q 21 -9.765625 23.484375 -3.21875 
L 25.09375 0.875 
L 2.984375 54.6875 
L 12.5 54.6875 
L 29.59375 11.921875 
L 46.6875 54.6875 
L 56.203125 54.6875 
z
" id="DejaVuSans-121"/>
     </defs>
     <g transform="translate(18.882812 203.379375)rotate(-90)scale(0.1 -0.1)">
      <use xlink:href="#DejaVuSans-121"/>
     </g>
    </g>
   </g>
   <g id="line2d_23">
    <defs>
     <path d="M 0 1.5 
C 0.397805 1.5 0.77937 1.341951 1.06066 1.06066 
C 1.341951 0.77937 1.5 0.397805 1.5 0 
C 1.5 -0.397805 1.341951 -0.77937 1.06066 -1.06066 
C 0.77937 -1.341951 0.397805 -1.5 0 -1.5 
C -0.397805 -1.5 -0.77937 -1.341951 -1.06066 -1.06066 
C -1.341951 -0.77937 -1.5 -0.397805 -1.5 0 
C -1.5 0.397805 -1.341951 0.77937 -1.06066 1.06066 
C -0.77937 1.341951 -0.397805 1.5 0 1.5 
z
" id="m1b38233f5c" style="stroke:#000000;"/>
    </defs>
    <g clip-path="url(#p1db5e3e42f)">
     <use style="stroke:#000000;" x="80.965909" xlink:href="#m1b38233f5c" y="85.178972"/>
     <use style="stroke:#000000;" x="88.174562" xlink:href="#m1b38233f5c" y="142.319761"/>
     <use style="stroke:#000000;" x="102.591867" xlink:href="#m1b38233f5c" y="49.465978"/>
     <use style="stroke:#000000;" x="109.80052" xlink:href="#m1b38233f5c" y="128.034564"/>
     <use style="stroke:#000000;" x="124.217826" xlink:href="#m1b38233f5c" y="142.319761"/>
     <use style="stroke:#000000;" x="131.426479" xlink:href="#m1b38233f5c" y="142.319761"/>
     <use style="stroke:#000000;" x="145.843784" xlink:href="#m1b38233f5c" y="156.604959"/>
     <use style="stroke:#000000;" x="153.052437" xlink:href="#m1b38233f5c" y="213.745748"/>
     <use style="stroke:#000000;" x="167.469743" xlink:href="#m1b38233f5c" y="192.317952"/>
     <use style="stroke:#000000;" x="174.678395" xlink:href="#m1b38233f5c" y="206.60315"/>
     <use style="stroke:#000000;" x="189.095701" xlink:href="#m1b38233f5c" y="199.460551"/>
     <use style="stroke:#000000;" x="210.721659" xlink:href="#m1b38233f5c" y="285.171736"/>
     <use style="stroke:#000000;" x="217.930312" xlink:href="#m1b38233f5c" y="313.74213"/>
     <use style="stroke:#000000;" x="232.347618" xlink:href="#m1b38233f5c" y="342.312525"/>
     <use style="stroke:#000000;" x="239.556271" xlink:href="#m1b38233f5c" y="313.74213"/>
     <use style="stroke:#000000;" x="253.973576" xlink:href="#m1b38233f5c" y="292.314334"/>
     <use style="stroke:#000000;" x="261.182229" xlink:href="#m1b38233f5c" y="213.745748"/>
     <use style="stroke:#000000;" x="275.599535" xlink:href="#m1b38233f5c" y="285.171736"/>
     <use style="stroke:#000000;" x="282.808187" xlink:href="#m1b38233f5c" y="306.599532"/>
     <use style="stroke:#000000;" x="297.225493" xlink:href="#m1b38233f5c" y="220.888347"/>
     <use style="stroke:#000000;" x="304.434146" xlink:href="#m1b38233f5c" y="235.173545"/>
     <use style="stroke:#000000;" x="318.851451" xlink:href="#m1b38233f5c" y="313.74213"/>
     <use style="stroke:#000000;" x="326.060104" xlink:href="#m1b38233f5c" y="328.027328"/>
     <use style="stroke:#000000;" x="340.47741" xlink:href="#m1b38233f5c" y="185.175354"/>
     <use style="stroke:#000000;" x="347.686062" xlink:href="#m1b38233f5c" y="270.886538"/>
     <use style="stroke:#000000;" x="362.103368" xlink:href="#m1b38233f5c" y="306.599532"/>
     <use style="stroke:#000000;" x="369.312021" xlink:href="#m1b38233f5c" y="328.027328"/>
     <use style="stroke:#000000;" x="383.729326" xlink:href="#m1b38233f5c" y="263.743939"/>
     <use style="stroke:#000000;" x="390.937979" xlink:href="#m1b38233f5c" y="285.171736"/>
     <use style="stroke:#000000;" x="405.355285" xlink:href="#m1b38233f5c" y="292.314334"/>
     <use style="stroke:#000000;" x="412.563938" xlink:href="#m1b38233f5c" y="163.747557"/>
     <use style="stroke:#000000;" x="434.189896" xlink:href="#m1b38233f5c" y="285.171736"/>
     <use style="stroke:#000000;" x="448.607202" xlink:href="#m1b38233f5c" y="320.884729"/>
     <use style="stroke:#000000;" x="455.815854" xlink:href="#m1b38233f5c" y="228.030946"/>
     <use style="stroke:#000000;" x="470.23316" xlink:href="#m1b38233f5c" y="92.32157"/>
     <use style="stroke:#000000;" x="491.859118" xlink:href="#m1b38233f5c" y="342.312525"/>
     <use style="stroke:#000000;" x="499.067771" xlink:href="#m1b38233f5c" y="178.032755"/>
     <use style="stroke:#000000;" x="513.485077" xlink:href="#m1b38233f5c" y="163.747557"/>
     <use style="stroke:#000000;" x="520.693729" xlink:href="#m1b38233f5c" y="178.032755"/>
     <use style="stroke:#000000;" x="535.111035" xlink:href="#m1b38233f5c" y="278.029137"/>
     <use style="stroke:#000000;" x="542.319688" xlink:href="#m1b38233f5c" y="228.030946"/>
     <use style="stroke:#000000;" x="556.736993" xlink:href="#m1b38233f5c" y="213.745748"/>
     <use style="stroke:#000000;" x="563.945646" xlink:href="#m1b38233f5c" y="149.46236"/>
     <use style="stroke:#000000;" x="578.362952" xlink:href="#m1b38233f5c" y="292.314334"/>
     <use style="stroke:#000000;" x="585.571605" xlink:href="#m1b38233f5c" y="78.036373"/>
     <use style="stroke:#000000;" x="599.98891" xlink:href="#m1b38233f5c" y="106.606768"/>
     <use style="stroke:#000000;" x="607.197563" xlink:href="#m1b38233f5c" y="256.601341"/>
     <use style="stroke:#000000;" x="621.614869" xlink:href="#m1b38233f5c" y="199.460551"/>
     <use style="stroke:#000000;" x="628.823521" xlink:href="#m1b38233f5c" y="156.604959"/>
     <use style="stroke:#000000;" x="643.240827" xlink:href="#m1b38233f5c" y="113.749366"/>
     <use style="stroke:#000000;" x="650.44948" xlink:href="#m1b38233f5c" y="199.460551"/>
     <use style="stroke:#000000;" x="664.866785" xlink:href="#m1b38233f5c" y="149.46236"/>
     <use style="stroke:#000000;" x="672.075438" xlink:href="#m1b38233f5c" y="28.038182"/>
    </g>
   </g>
   <g id="line2d_24">
    <path clip-path="url(#p1db5e3e42f)" d="M 80.965909 159.071467 
L 88.174562 165.733619 
L 102.591867 168.690427 
L 109.80052 146.481881 
L 124.217826 197.080135 
L 131.426479 186.533087 
L 145.843784 175.481272 
L 153.052437 196.152047 
L 167.469743 186.166078 
L 174.678395 224.541428 
L 189.095701 220.655877 
L 210.721659 201.395602 
L 217.930312 213.608669 
L 232.347618 241.418277 
L 239.556271 248.069295 
L 253.973576 251.003832 
L 261.182229 228.777663 
L 275.599535 279.325342 
L 282.808187 268.753007 
L 297.225493 257.62798 
L 304.434146 278.26215 
L 318.851451 268.183667 
L 326.060104 300.191022 
L 340.47741 283.569481 
L 347.686062 259.483646 
L 362.103368 245.20214 
L 369.312021 251.051397 
L 383.729326 266.095223 
L 390.937979 266.364973 
L 405.355285 256.536004 
L 412.563938 227.934571 
L 434.189896 248.788029 
L 448.607202 224.932463 
L 455.815854 239.201363 
L 470.23316 216.411338 
L 491.859118 231.693856 
L 499.067771 207.577135 
L 513.485077 193.232169 
L 520.693729 199.051148 
L 535.111035 214.072582 
L 542.319688 214.331136 
L 556.736993 204.480749 
L 563.945646 175.868606 
L 578.362952 213.659664 
L 585.571605 196.709018 
L 599.98891 172.850008 
L 607.197563 187.117186 
L 621.614869 164.324022 
L 628.823521 196.296101 
L 643.240827 179.60401 
L 650.44948 155.486445 
L 664.866785 141.14148 
L 672.075438 146.960459 
L 679.284091 178.932538 
" style="fill:none;stroke:#0072b2;stroke-linecap:square;stroke-width:1.5;"/>
   </g>
   <g id="patch_3">
    <path d="M 51.05 390.04 
L 51.05 10.8 
" style="fill:none;stroke:#000000;stroke-linecap:square;stroke-linejoin:miter;stroke-width:0.8;"/>
   </g>
   <g id="patch_4">
    <path d="M 709.2 390.04 
L 709.2 10.8 
" style="fill:none;stroke:#000000;stroke-linecap:square;stroke-linejoin:miter;stroke-width:0.8;"/>
   </g>
   <g id="patch_5">
    <path d="M 51.05 390.04 
L 709.2 390.04 
" style="fill:none;stroke:#000000;stroke-linecap:square;stroke-linejoin:miter;stroke-width:0.8;"/>
   </g>
   <g id="patch_6">
    <path d="M 51.05 10.8 
L 709.2 10.8 
" style="fill:none;stroke:#000000;stroke-linecap:square;stroke-linejoin:miter;stroke-width:0.8;"/>
   </g>
  </g>
 </g>
 <defs>
  <clipPath id="p1db5e3e42f">
   <rect height="379.24" width="658.15" x="51.05" y="10.8"/>
  </clipPath>
 </defs>
</svg>
