<?xml version="1.0" encoding="utf-8" standalone="no"?>
<!DOCTYPE svg PUBLIC "-//W3C//DTD SVG 1.1//EN"
  "http://www.w3.org/Graphics/SVG/1.1/DTD/svg11.dtd">
<!-- Created with matplotlib (https://matplotlib.org/) -->
<svg height="432pt" version="1.1" viewBox="0 0 720 432" width="720pt" xmlns="http://www.w3.org/2000/svg" xmlns:xlink="http://www.w3.org/1999/xlink">
 <defs>
  <style type="text/css">
*{stroke-linecap:butt;stroke-linejoin:round;}
  </style>
 </defs>
 <g id="figure_1">
  <g id="patch_1">
   <path d="M 0 432 
L 720 432 
L 720 0 
L 0 0 
z
" style="fill:#ffffff;"/>
  </g>
  <g id="axes_1">
   <g id="patch_2">
    <path d="M 51.05 390.04 
L 699.381917 390.04 
L 699.381917 10.8 
L 51.05 10.8 
z
" style="fill:#ffffff;"/>
   </g>
   <g id="PolyCollection_1">
    <defs>
     <path d="M 80.519633 -328.776553 
L 80.519633 -157.674364 
L 87.620749 -166.24693 
L 101.822981 -189.129811 
L 108.924098 -161.285317 
L 123.12633 -170.606551 
L 130.227447 -148.784833 
L 144.429679 -173.599722 
L 151.530795 -187.267218 
L 165.733028 -146.767725 
L 172.834144 -163.557041 
L 187.036377 -164.928939 
L 194.137493 -179.3962 
L 208.339726 -162.887126 
L 215.440842 -143.405205 
L 229.643075 -150.9385 
L 236.744191 -162.081692 
L 250.946423 -178.12211 
L 258.04754 -154.2979 
L 279.350889 -148.167416 
L 293.553121 -169.433037 
L 300.654237 -177.252254 
L 314.85647 -140.803159 
L 336.159819 -165.827371 
L 343.260935 -166.778319 
L 364.564284 -141.651521 
L 378.766517 -149.230057 
L 385.867633 -160.226871 
L 407.170982 -160.812462 
L 421.373214 -160.823554 
L 428.474331 -142.37816 
L 442.676563 -169.801267 
L 449.777679 -179.967922 
L 463.979912 -132.561308 
L 471.081028 -145.84024 
L 485.283261 -145.379219 
L 492.384377 -154.365164 
L 506.58661 -135.628103 
L 513.687726 -117.812091 
L 534.991075 -125.533601 
L 549.193307 -140.086625 
L 556.294424 -116.948366 
L 570.496656 -107.837363 
L 591.800005 -115.70686 
L 598.901121 -124.842937 
L 613.103354 -81.184691 
L 620.20447 -91.054968 
L 634.406703 -86.25751 
L 641.507819 -88.72202 
L 655.710052 -81.061528 
L 662.811168 -59.198182 
L 669.912284 -76.508691 
L 669.912284 -249.45954 
L 669.912284 -249.45954 
L 662.811168 -231.529805 
L 655.710052 -253.867526 
L 641.507819 -277.531327 
L 634.406703 -262.791355 
L 620.20447 -270.19705 
L 613.103354 -252.183336 
L 598.901121 -292.586486 
L 591.800005 -288.383705 
L 570.496656 -284.005178 
L 556.294424 -294.967377 
L 549.193307 -313.599531 
L 534.991075 -300.493959 
L 513.687726 -295.742157 
L 506.58661 -312.208682 
L 492.384377 -335.162268 
L 485.283261 -323.253698 
L 471.081028 -328.729445 
L 463.979912 -315.897885 
L 449.777679 -350.188707 
L 442.676563 -350.991411 
L 428.474331 -320.453788 
L 421.373214 -341.343929 
L 407.170982 -334.500345 
L 385.867633 -338.980162 
L 378.766517 -321.80361 
L 364.564284 -319.137875 
L 343.260935 -346.28625 
L 336.159819 -339.669047 
L 314.85647 -314.804477 
L 300.654237 -356.896115 
L 293.553121 -353.951675 
L 279.350889 -327.177981 
L 258.04754 -334.733879 
L 250.946423 -359.534258 
L 236.744191 -338.463858 
L 229.643075 -324.165403 
L 215.440842 -328.036549 
L 208.339726 -341.40987 
L 194.137493 -352.401149 
L 187.036377 -344.648354 
L 172.834144 -343.571821 
L 165.733028 -332.455404 
L 151.530795 -366.466653 
L 144.429679 -355.006902 
L 130.227447 -327.082703 
L 123.12633 -349.217204 
L 108.924098 -343.321969 
L 101.822981 -358.193364 
L 87.620749 -342.109922 
L 80.519633 -328.776553 
z
" id="m6694917072" style="stroke:#0072b2;stroke-opacity:0.2;"/>
    </defs>
    <g clip-path="url(#p7207a4210d)">
     <use style="fill:#0072b2;fill-opacity:0.2;stroke:#0072b2;stroke-opacity:0.2;" x="0" xlink:href="#m6694917072" y="432"/>
    </g>
   </g>
   <g id="matplotlib.axis_1">
    <g id="xtick_1">
     <g id="line2d_1">
      <path clip-path="url(#p7207a4210d)" d="M 80.519633 390.04 
L 80.519633 10.8 
" style="fill:none;stroke:#808080;stroke-linecap:square;stroke-opacity:0.2;"/>
     </g>
     <g id="line2d_2">
      <defs>
       <path d="M 0 0 
L 0 3.5 
" id="m2320075971" style="stroke:#000000;stroke-width:0.8;"/>
      </defs>
      <g>
       <use style="stroke:#000000;stroke-width:0.8;" x="80.519633" xlink:href="#m2320075971" y="390.04"/>
      </g>
     </g>
     <g id="text_1">
      <!-- 2019-01-17 -->
      <defs>
       <path d="M 19.1875 8.296875 
L 53.609375 8.296875 
L 53.609375 0 
L 7.328125 0 
L 7.328125 8.296875 
Q 12.9375 14.109375 22.625 23.890625 
Q 32.328125 33.6875 34.8125 36.53125 
Q 39.546875 41.84375 41.421875 45.53125 
Q 43.3125 49.21875 43.3125 52.78125 
Q 43.3125 58.59375 39.234375 62.25 
Q 35.15625 65.921875 28.609375 65.921875 
Q 23.96875 65.921875 18.8125 64.3125 
Q 13.671875 62.703125 7.8125 59.421875 
L 7.8125 69.390625 
Q 13.765625 71.78125 18.9375 73 
Q 24.125 74.21875 28.421875 74.21875 
Q 39.75 74.21875 46.484375 68.546875 
Q 53.21875 62.890625 53.21875 53.421875 
Q 53.21875 48.921875 51.53125 44.890625 
Q 49.859375 40.875 45.40625 35.40625 
Q 44.1875 33.984375 37.640625 27.21875 
Q 31.109375 20.453125 19.1875 8.296875 
z
" id="DejaVuSans-50"/>
       <path d="M 31.78125 66.40625 
Q 24.171875 66.40625 20.328125 58.90625 
Q 16.5 51.421875 16.5 36.375 
Q 16.5 21.390625 20.328125 13.890625 
Q 24.171875 6.390625 31.78125 6.390625 
Q 39.453125 6.390625 43.28125 13.890625 
Q 47.125 21.390625 47.125 36.375 
Q 47.125 51.421875 43.28125 58.90625 
Q 39.453125 66.40625 31.78125 66.40625 
z
M 31.78125 74.21875 
Q 44.046875 74.21875 50.515625 64.515625 
Q 56.984375 54.828125 56.984375 36.375 
Q 56.984375 17.96875 50.515625 8.265625 
Q 44.046875 -1.421875 31.78125 -1.421875 
Q 19.53125 -1.421875 13.0625 8.265625 
Q 6.59375 17.96875 6.59375 36.375 
Q 6.59375 54.828125 13.0625 64.515625 
Q 19.53125 74.21875 31.78125 74.21875 
z
" id="DejaVuSans-48"/>
       <path d="M 12.40625 8.296875 
L 28.515625 8.296875 
L 28.515625 63.921875 
L 10.984375 60.40625 
L 10.984375 69.390625 
L 28.421875 72.90625 
L 38.28125 72.90625 
L 38.28125 8.296875 
L 54.390625 8.296875 
L 54.390625 0 
L 12.40625 0 
z
" id="DejaVuSans-49"/>
       <path d="M 10.984375 1.515625 
L 10.984375 10.5 
Q 14.703125 8.734375 18.5 7.8125 
Q 22.3125 6.890625 25.984375 6.890625 
Q 35.75 6.890625 40.890625 13.453125 
Q 46.046875 20.015625 46.78125 33.40625 
Q 43.953125 29.203125 39.59375 26.953125 
Q 35.25 24.703125 29.984375 24.703125 
Q 19.046875 24.703125 12.671875 31.3125 
Q 6.296875 37.9375 6.296875 49.421875 
Q 6.296875 60.640625 12.9375 67.421875 
Q 19.578125 74.21875 30.609375 74.21875 
Q 43.265625 74.21875 49.921875 64.515625 
Q 56.59375 54.828125 56.59375 36.375 
Q 56.59375 19.140625 48.40625 8.859375 
Q 40.234375 -1.421875 26.421875 -1.421875 
Q 22.703125 -1.421875 18.890625 -0.6875 
Q 15.09375 0.046875 10.984375 1.515625 
z
M 30.609375 32.421875 
Q 37.25 32.421875 41.125 36.953125 
Q 45.015625 41.5 45.015625 49.421875 
Q 45.015625 57.28125 41.125 61.84375 
Q 37.25 66.40625 30.609375 66.40625 
Q 23.96875 66.40625 20.09375 61.84375 
Q 16.21875 57.28125 16.21875 49.421875 
Q 16.21875 41.5 20.09375 36.953125 
Q 23.96875 32.421875 30.609375 32.421875 
z
" id="DejaVuSans-57"/>
       <path d="M 4.890625 31.390625 
L 31.203125 31.390625 
L 31.203125 23.390625 
L 4.890625 23.390625 
z
" id="DejaVuSans-45"/>
       <path d="M 8.203125 72.90625 
L 55.078125 72.90625 
L 55.078125 68.703125 
L 28.609375 0 
L 18.3125 0 
L 43.21875 64.59375 
L 8.203125 64.59375 
z
" id="DejaVuSans-55"/>
      </defs>
      <g transform="translate(51.46182 404.638438)scale(0.1 -0.1)">
       <use xlink:href="#DejaVuSans-50"/>
       <use x="63.623047" xlink:href="#DejaVuSans-48"/>
       <use x="127.246094" xlink:href="#DejaVuSans-49"/>
       <use x="190.869141" xlink:href="#DejaVuSans-57"/>
       <use x="254.492188" xlink:href="#DejaVuSans-45"/>
       <use x="290.576172" xlink:href="#DejaVuSans-48"/>
       <use x="354.199219" xlink:href="#DejaVuSans-49"/>
       <use x="417.822266" xlink:href="#DejaVuSans-45"/>
       <use x="453.90625" xlink:href="#DejaVuSans-49"/>
       <use x="517.529297" xlink:href="#DejaVuSans-55"/>
      </g>
     </g>
    </g>
    <g id="xtick_2">
     <g id="line2d_3">
      <path clip-path="url(#p7207a4210d)" d="M 179.935261 390.04 
L 179.935261 10.8 
" style="fill:none;stroke:#808080;stroke-linecap:square;stroke-opacity:0.2;"/>
     </g>
     <g id="line2d_4">
      <g>
       <use style="stroke:#000000;stroke-width:0.8;" x="179.935261" xlink:href="#m2320075971" y="390.04"/>
      </g>
     </g>
     <g id="text_2">
      <!-- 2019-01-31 -->
      <defs>
       <path d="M 40.578125 39.3125 
Q 47.65625 37.796875 51.625 33 
Q 55.609375 28.21875 55.609375 21.1875 
Q 55.609375 10.40625 48.1875 4.484375 
Q 40.765625 -1.421875 27.09375 -1.421875 
Q 22.515625 -1.421875 17.65625 -0.515625 
Q 12.796875 0.390625 7.625 2.203125 
L 7.625 11.71875 
Q 11.71875 9.328125 16.59375 8.109375 
Q 21.484375 6.890625 26.8125 6.890625 
Q 36.078125 6.890625 40.9375 10.546875 
Q 45.796875 14.203125 45.796875 21.1875 
Q 45.796875 27.640625 41.28125 31.265625 
Q 36.765625 34.90625 28.71875 34.90625 
L 20.21875 34.90625 
L 20.21875 43.015625 
L 29.109375 43.015625 
Q 36.375 43.015625 40.234375 45.921875 
Q 44.09375 48.828125 44.09375 54.296875 
Q 44.09375 59.90625 40.109375 62.90625 
Q 36.140625 65.921875 28.71875 65.921875 
Q 24.65625 65.921875 20.015625 65.03125 
Q 15.375 64.15625 9.8125 62.3125 
L 9.8125 71.09375 
Q 15.4375 72.65625 20.34375 73.4375 
Q 25.25 74.21875 29.59375 74.21875 
Q 40.828125 74.21875 47.359375 69.109375 
Q 53.90625 64.015625 53.90625 55.328125 
Q 53.90625 49.265625 50.4375 45.09375 
Q 46.96875 40.921875 40.578125 39.3125 
z
" id="DejaVuSans-51"/>
      </defs>
      <g transform="translate(150.877448 404.638438)scale(0.1 -0.1)">
       <use xlink:href="#DejaVuSans-50"/>
       <use x="63.623047" xlink:href="#DejaVuSans-48"/>
       <use x="127.246094" xlink:href="#DejaVuSans-49"/>
       <use x="190.869141" xlink:href="#DejaVuSans-57"/>
       <use x="254.492188" xlink:href="#DejaVuSans-45"/>
       <use x="290.576172" xlink:href="#DejaVuSans-48"/>
       <use x="354.199219" xlink:href="#DejaVuSans-49"/>
       <use x="417.822266" xlink:href="#DejaVuSans-45"/>
       <use x="453.90625" xlink:href="#DejaVuSans-51"/>
       <use x="517.529297" xlink:href="#DejaVuSans-49"/>
      </g>
     </g>
    </g>
    <g id="xtick_3">
     <g id="line2d_5">
      <path clip-path="url(#p7207a4210d)" d="M 279.350889 390.04 
L 279.350889 10.8 
" style="fill:none;stroke:#808080;stroke-linecap:square;stroke-opacity:0.2;"/>
     </g>
     <g id="line2d_6">
      <g>
       <use style="stroke:#000000;stroke-width:0.8;" x="279.350889" xlink:href="#m2320075971" y="390.04"/>
      </g>
     </g>
     <g id="text_3">
      <!-- 2019-02-14 -->
      <defs>
       <path d="M 37.796875 64.3125 
L 12.890625 25.390625 
L 37.796875 25.390625 
z
M 35.203125 72.90625 
L 47.609375 72.90625 
L 47.609375 25.390625 
L 58.015625 25.390625 
L 58.015625 17.1875 
L 47.609375 17.1875 
L 47.609375 0 
L 37.796875 0 
L 37.796875 17.1875 
L 4.890625 17.1875 
L 4.890625 26.703125 
z
" id="DejaVuSans-52"/>
      </defs>
      <g transform="translate(250.293076 404.638438)scale(0.1 -0.1)">
       <use xlink:href="#DejaVuSans-50"/>
       <use x="63.623047" xlink:href="#DejaVuSans-48"/>
       <use x="127.246094" xlink:href="#DejaVuSans-49"/>
       <use x="190.869141" xlink:href="#DejaVuSans-57"/>
       <use x="254.492188" xlink:href="#DejaVuSans-45"/>
       <use x="290.576172" xlink:href="#DejaVuSans-48"/>
       <use x="354.199219" xlink:href="#DejaVuSans-50"/>
       <use x="417.822266" xlink:href="#DejaVuSans-45"/>
       <use x="453.90625" xlink:href="#DejaVuSans-49"/>
       <use x="517.529297" xlink:href="#DejaVuSans-52"/>
      </g>
     </g>
    </g>
    <g id="xtick_4">
     <g id="line2d_7">
      <path clip-path="url(#p7207a4210d)" d="M 378.766517 390.04 
L 378.766517 10.8 
" style="fill:none;stroke:#808080;stroke-linecap:square;stroke-opacity:0.2;"/>
     </g>
     <g id="line2d_8">
      <g>
       <use style="stroke:#000000;stroke-width:0.8;" x="378.766517" xlink:href="#m2320075971" y="390.04"/>
      </g>
     </g>
     <g id="text_4">
      <!-- 2019-02-28 -->
      <defs>
       <path d="M 31.78125 34.625 
Q 24.75 34.625 20.71875 30.859375 
Q 16.703125 27.09375 16.703125 20.515625 
Q 16.703125 13.921875 20.71875 10.15625 
Q 24.75 6.390625 31.78125 6.390625 
Q 38.8125 6.390625 42.859375 10.171875 
Q 46.921875 13.96875 46.921875 20.515625 
Q 46.921875 27.09375 42.890625 30.859375 
Q 38.875 34.625 31.78125 34.625 
z
M 21.921875 38.8125 
Q 15.578125 40.375 12.03125 44.71875 
Q 8.5 49.078125 8.5 55.328125 
Q 8.5 64.0625 14.71875 69.140625 
Q 20.953125 74.21875 31.78125 74.21875 
Q 42.671875 74.21875 48.875 69.140625 
Q 55.078125 64.0625 55.078125 55.328125 
Q 55.078125 49.078125 51.53125 44.71875 
Q 48 40.375 41.703125 38.8125 
Q 48.828125 37.15625 52.796875 32.3125 
Q 56.78125 27.484375 56.78125 20.515625 
Q 56.78125 9.90625 50.3125 4.234375 
Q 43.84375 -1.421875 31.78125 -1.421875 
Q 19.734375 -1.421875 13.25 4.234375 
Q 6.78125 9.90625 6.78125 20.515625 
Q 6.78125 27.484375 10.78125 32.3125 
Q 14.796875 37.15625 21.921875 38.8125 
z
M 18.3125 54.390625 
Q 18.3125 48.734375 21.84375 45.5625 
Q 25.390625 42.390625 31.78125 42.390625 
Q 38.140625 42.390625 41.71875 45.5625 
Q 45.3125 48.734375 45.3125 54.390625 
Q 45.3125 60.0625 41.71875 63.234375 
Q 38.140625 66.40625 31.78125 66.40625 
Q 25.390625 66.40625 21.84375 63.234375 
Q 18.3125 60.0625 18.3125 54.390625 
z
" id="DejaVuSans-56"/>
      </defs>
      <g transform="translate(349.708704 404.638438)scale(0.1 -0.1)">
       <use xlink:href="#DejaVuSans-50"/>
       <use x="63.623047" xlink:href="#DejaVuSans-48"/>
       <use x="127.246094" xlink:href="#DejaVuSans-49"/>
       <use x="190.869141" xlink:href="#DejaVuSans-57"/>
       <use x="254.492188" xlink:href="#DejaVuSans-45"/>
       <use x="290.576172" xlink:href="#DejaVuSans-48"/>
       <use x="354.199219" xlink:href="#DejaVuSans-50"/>
       <use x="417.822266" xlink:href="#DejaVuSans-45"/>
       <use x="453.90625" xlink:href="#DejaVuSans-50"/>
       <use x="517.529297" xlink:href="#DejaVuSans-56"/>
      </g>
     </g>
    </g>
    <g id="xtick_5">
     <g id="line2d_9">
      <path clip-path="url(#p7207a4210d)" d="M 478.182145 390.04 
L 478.182145 10.8 
" style="fill:none;stroke:#808080;stroke-linecap:square;stroke-opacity:0.2;"/>
     </g>
     <g id="line2d_10">
      <g>
       <use style="stroke:#000000;stroke-width:0.8;" x="478.182145" xlink:href="#m2320075971" y="390.04"/>
      </g>
     </g>
     <g id="text_5">
      <!-- 2019-03-14 -->
      <g transform="translate(449.124332 404.638438)scale(0.1 -0.1)">
       <use xlink:href="#DejaVuSans-50"/>
       <use x="63.623047" xlink:href="#DejaVuSans-48"/>
       <use x="127.246094" xlink:href="#DejaVuSans-49"/>
       <use x="190.869141" xlink:href="#DejaVuSans-57"/>
       <use x="254.492188" xlink:href="#DejaVuSans-45"/>
       <use x="290.576172" xlink:href="#DejaVuSans-48"/>
       <use x="354.199219" xlink:href="#DejaVuSans-51"/>
       <use x="417.822266" xlink:href="#DejaVuSans-45"/>
       <use x="453.90625" xlink:href="#DejaVuSans-49"/>
       <use x="517.529297" xlink:href="#DejaVuSans-52"/>
      </g>
     </g>
    </g>
    <g id="xtick_6">
     <g id="line2d_11">
      <path clip-path="url(#p7207a4210d)" d="M 577.597772 390.04 
L 577.597772 10.8 
" style="fill:none;stroke:#808080;stroke-linecap:square;stroke-opacity:0.2;"/>
     </g>
     <g id="line2d_12">
      <g>
       <use style="stroke:#000000;stroke-width:0.8;" x="577.597772" xlink:href="#m2320075971" y="390.04"/>
      </g>
     </g>
     <g id="text_6">
      <!-- 2019-03-28 -->
      <g transform="translate(548.53996 404.638438)scale(0.1 -0.1)">
       <use xlink:href="#DejaVuSans-50"/>
       <use x="63.623047" xlink:href="#DejaVuSans-48"/>
       <use x="127.246094" xlink:href="#DejaVuSans-49"/>
       <use x="190.869141" xlink:href="#DejaVuSans-57"/>
       <use x="254.492188" xlink:href="#DejaVuSans-45"/>
       <use x="290.576172" xlink:href="#DejaVuSans-48"/>
       <use x="354.199219" xlink:href="#DejaVuSans-51"/>
       <use x="417.822266" xlink:href="#DejaVuSans-45"/>
       <use x="453.90625" xlink:href="#DejaVuSans-50"/>
       <use x="517.529297" xlink:href="#DejaVuSans-56"/>
      </g>
     </g>
    </g>
    <g id="xtick_7">
     <g id="line2d_13">
      <path clip-path="url(#p7207a4210d)" d="M 677.0134 390.04 
L 677.0134 10.8 
" style="fill:none;stroke:#808080;stroke-linecap:square;stroke-opacity:0.2;"/>
     </g>
     <g id="line2d_14">
      <g>
       <use style="stroke:#000000;stroke-width:0.8;" x="677.0134" xlink:href="#m2320075971" y="390.04"/>
      </g>
     </g>
     <g id="text_7">
      <!-- 2019-04-11 -->
      <g transform="translate(647.955588 404.638438)scale(0.1 -0.1)">
       <use xlink:href="#DejaVuSans-50"/>
       <use x="63.623047" xlink:href="#DejaVuSans-48"/>
       <use x="127.246094" xlink:href="#DejaVuSans-49"/>
       <use x="190.869141" xlink:href="#DejaVuSans-57"/>
       <use x="254.492188" xlink:href="#DejaVuSans-45"/>
       <use x="290.576172" xlink:href="#DejaVuSans-48"/>
       <use x="354.199219" xlink:href="#DejaVuSans-52"/>
       <use x="417.822266" xlink:href="#DejaVuSans-45"/>
       <use x="453.90625" xlink:href="#DejaVuSans-49"/>
       <use x="517.529297" xlink:href="#DejaVuSans-49"/>
      </g>
     </g>
    </g>
    <g id="text_8">
     <!-- ds -->
     <defs>
      <path d="M 45.40625 46.390625 
L 45.40625 75.984375 
L 54.390625 75.984375 
L 54.390625 0 
L 45.40625 0 
L 45.40625 8.203125 
Q 42.578125 3.328125 38.25 0.953125 
Q 33.9375 -1.421875 27.875 -1.421875 
Q 17.96875 -1.421875 11.734375 6.484375 
Q 5.515625 14.40625 5.515625 27.296875 
Q 5.515625 40.1875 11.734375 48.09375 
Q 17.96875 56 27.875 56 
Q 33.9375 56 38.25 53.625 
Q 42.578125 51.265625 45.40625 46.390625 
z
M 14.796875 27.296875 
Q 14.796875 17.390625 18.875 11.75 
Q 22.953125 6.109375 30.078125 6.109375 
Q 37.203125 6.109375 41.296875 11.75 
Q 45.40625 17.390625 45.40625 27.296875 
Q 45.40625 37.203125 41.296875 42.84375 
Q 37.203125 48.484375 30.078125 48.484375 
Q 22.953125 48.484375 18.875 42.84375 
Q 14.796875 37.203125 14.796875 27.296875 
z
" id="DejaVuSans-100"/>
      <path d="M 44.28125 53.078125 
L 44.28125 44.578125 
Q 40.484375 46.53125 36.375 47.5 
Q 32.28125 48.484375 27.875 48.484375 
Q 21.1875 48.484375 17.84375 46.4375 
Q 14.5 44.390625 14.5 40.28125 
Q 14.5 37.15625 16.890625 35.375 
Q 19.28125 33.59375 26.515625 31.984375 
L 29.59375 31.296875 
Q 39.15625 29.25 43.1875 25.515625 
Q 47.21875 21.78125 47.21875 15.09375 
Q 47.21875 7.46875 41.1875 3.015625 
Q 35.15625 -1.421875 24.609375 -1.421875 
Q 20.21875 -1.421875 15.453125 -0.5625 
Q 10.6875 0.296875 5.421875 2 
L 5.421875 11.28125 
Q 10.40625 8.6875 15.234375 7.390625 
Q 20.0625 6.109375 24.8125 6.109375 
Q 31.15625 6.109375 34.5625 8.28125 
Q 37.984375 10.453125 37.984375 14.40625 
Q 37.984375 18.0625 35.515625 20.015625 
Q 33.0625 21.96875 24.703125 23.78125 
L 21.578125 24.515625 
Q 13.234375 26.265625 9.515625 29.90625 
Q 5.8125 33.546875 5.8125 39.890625 
Q 5.8125 47.609375 11.28125 51.796875 
Q 16.75 56 26.8125 56 
Q 31.78125 56 36.171875 55.265625 
Q 40.578125 54.546875 44.28125 53.078125 
z
" id="DejaVuSans-115"/>
     </defs>
     <g transform="translate(369.437052 418.316562)scale(0.1 -0.1)">
      <use xlink:href="#DejaVuSans-100"/>
      <use x="63.476562" xlink:href="#DejaVuSans-115"/>
     </g>
    </g>
   </g>
   <g id="matplotlib.axis_2">
    <g id="ytick_1">
     <g id="line2d_15">
      <path clip-path="url(#p7207a4210d)" d="M 51.05 363.913139 
L 699.381917 363.913139 
" style="fill:none;stroke:#808080;stroke-linecap:square;stroke-opacity:0.2;"/>
     </g>
     <g id="line2d_16">
      <defs>
       <path d="M 0 0 
L -3.5 0 
" id="mc9b7df8527" style="stroke:#000000;stroke-width:0.8;"/>
      </defs>
      <g>
       <use style="stroke:#000000;stroke-width:0.8;" x="51.05" xlink:href="#mc9b7df8527" y="363.913139"/>
      </g>
     </g>
     <g id="text_9">
      <!-- 130 -->
      <g transform="translate(24.9625 367.712358)scale(0.1 -0.1)">
       <use xlink:href="#DejaVuSans-49"/>
       <use x="63.623047" xlink:href="#DejaVuSans-51"/>
       <use x="127.246094" xlink:href="#DejaVuSans-48"/>
      </g>
     </g>
    </g>
    <g id="ytick_2">
     <g id="line2d_17">
      <path clip-path="url(#p7207a4210d)" d="M 51.05 296.738147 
L 699.381917 296.738147 
" style="fill:none;stroke:#808080;stroke-linecap:square;stroke-opacity:0.2;"/>
     </g>
     <g id="line2d_18">
      <g>
       <use style="stroke:#000000;stroke-width:0.8;" x="51.05" xlink:href="#mc9b7df8527" y="296.738147"/>
      </g>
     </g>
     <g id="text_10">
      <!-- 135 -->
      <defs>
       <path d="M 10.796875 72.90625 
L 49.515625 72.90625 
L 49.515625 64.59375 
L 19.828125 64.59375 
L 19.828125 46.734375 
Q 21.96875 47.46875 24.109375 47.828125 
Q 26.265625 48.1875 28.421875 48.1875 
Q 40.625 48.1875 47.75 41.5 
Q 54.890625 34.8125 54.890625 23.390625 
Q 54.890625 11.625 47.5625 5.09375 
Q 40.234375 -1.421875 26.90625 -1.421875 
Q 22.3125 -1.421875 17.546875 -0.640625 
Q 12.796875 0.140625 7.71875 1.703125 
L 7.71875 11.625 
Q 12.109375 9.234375 16.796875 8.0625 
Q 21.484375 6.890625 26.703125 6.890625 
Q 35.15625 6.890625 40.078125 11.328125 
Q 45.015625 15.765625 45.015625 23.390625 
Q 45.015625 31 40.078125 35.4375 
Q 35.15625 39.890625 26.703125 39.890625 
Q 22.75 39.890625 18.8125 39.015625 
Q 14.890625 38.140625 10.796875 36.28125 
z
" id="DejaVuSans-53"/>
      </defs>
      <g transform="translate(24.9625 300.537366)scale(0.1 -0.1)">
       <use xlink:href="#DejaVuSans-49"/>
       <use x="63.623047" xlink:href="#DejaVuSans-51"/>
       <use x="127.246094" xlink:href="#DejaVuSans-53"/>
      </g>
     </g>
    </g>
    <g id="ytick_3">
     <g id="line2d_19">
      <path clip-path="url(#p7207a4210d)" d="M 51.05 229.563156 
L 699.381917 229.563156 
" style="fill:none;stroke:#808080;stroke-linecap:square;stroke-opacity:0.2;"/>
     </g>
     <g id="line2d_20">
      <g>
       <use style="stroke:#000000;stroke-width:0.8;" x="51.05" xlink:href="#mc9b7df8527" y="229.563156"/>
      </g>
     </g>
     <g id="text_11">
      <!-- 140 -->
      <g transform="translate(24.9625 233.362375)scale(0.1 -0.1)">
       <use xlink:href="#DejaVuSans-49"/>
       <use x="63.623047" xlink:href="#DejaVuSans-52"/>
       <use x="127.246094" xlink:href="#DejaVuSans-48"/>
      </g>
     </g>
    </g>
    <g id="ytick_4">
     <g id="line2d_21">
      <path clip-path="url(#p7207a4210d)" d="M 51.05 162.388165 
L 699.381917 162.388165 
" style="fill:none;stroke:#808080;stroke-linecap:square;stroke-opacity:0.2;"/>
     </g>
     <g id="line2d_22">
      <g>
       <use style="stroke:#000000;stroke-width:0.8;" x="51.05" xlink:href="#mc9b7df8527" y="162.388165"/>
      </g>
     </g>
     <g id="text_12">
      <!-- 145 -->
      <g transform="translate(24.9625 166.187383)scale(0.1 -0.1)">
       <use xlink:href="#DejaVuSans-49"/>
       <use x="63.623047" xlink:href="#DejaVuSans-52"/>
       <use x="127.246094" xlink:href="#DejaVuSans-53"/>
      </g>
     </g>
    </g>
    <g id="ytick_5">
     <g id="line2d_23">
      <path clip-path="url(#p7207a4210d)" d="M 51.05 95.213173 
L 699.381917 95.213173 
" style="fill:none;stroke:#808080;stroke-linecap:square;stroke-opacity:0.2;"/>
     </g>
     <g id="line2d_24">
      <g>
       <use style="stroke:#000000;stroke-width:0.8;" x="51.05" xlink:href="#mc9b7df8527" y="95.213173"/>
      </g>
     </g>
     <g id="text_13">
      <!-- 150 -->
      <g transform="translate(24.9625 99.012392)scale(0.1 -0.1)">
       <use xlink:href="#DejaVuSans-49"/>
       <use x="63.623047" xlink:href="#DejaVuSans-53"/>
       <use x="127.246094" xlink:href="#DejaVuSans-48"/>
      </g>
     </g>
    </g>
    <g id="ytick_6">
     <g id="line2d_25">
      <path clip-path="url(#p7207a4210d)" d="M 51.05 28.038182 
L 699.381917 28.038182 
" style="fill:none;stroke:#808080;stroke-linecap:square;stroke-opacity:0.2;"/>
     </g>
     <g id="line2d_26">
      <g>
       <use style="stroke:#000000;stroke-width:0.8;" x="51.05" xlink:href="#mc9b7df8527" y="28.038182"/>
      </g>
     </g>
     <g id="text_14">
      <!-- 155 -->
      <g transform="translate(24.9625 31.837401)scale(0.1 -0.1)">
       <use xlink:href="#DejaVuSans-49"/>
       <use x="63.623047" xlink:href="#DejaVuSans-53"/>
       <use x="127.246094" xlink:href="#DejaVuSans-53"/>
      </g>
     </g>
    </g>
    <g id="text_15">
     <!-- y -->
     <defs>
      <path d="M 32.171875 -5.078125 
Q 28.375 -14.84375 24.75 -17.8125 
Q 21.140625 -20.796875 15.09375 -20.796875 
L 7.90625 -20.796875 
L 7.90625 -13.28125 
L 13.1875 -13.28125 
Q 16.890625 -13.28125 18.9375 -11.515625 
Q 21 -9.765625 23.484375 -3.21875 
L 25.09375 0.875 
L 2.984375 54.6875 
L 12.5 54.6875 
L 29.59375 11.921875 
L 46.6875 54.6875 
L 56.203125 54.6875 
z
" id="DejaVuSans-121"/>
     </defs>
     <g transform="translate(18.882812 203.379375)rotate(-90)scale(0.1 -0.1)">
      <use xlink:href="#DejaVuSans-121"/>
     </g>
    </g>
   </g>
   <g id="line2d_27">
    <defs>
     <path d="M 0 1.5 
C 0.397805 1.5 0.77937 1.341951 1.06066 1.06066 
C 1.341951 0.77937 1.5 0.397805 1.5 0 
C 1.5 -0.397805 1.341951 -0.77937 1.06066 -1.06066 
C 0.77937 -1.341951 0.397805 -1.5 0 -1.5 
C -0.397805 -1.5 -0.77937 -1.341951 -1.06066 -1.06066 
C -1.341951 -0.77937 -1.5 -0.397805 -1.5 0 
C -1.5 0.397805 -1.341951 0.77937 -1.06066 1.06066 
C -0.77937 1.341951 -0.397805 1.5 0 1.5 
z
" id="mc45e052130" style="stroke:#000000;"/>
    </defs>
    <g clip-path="url(#p7207a4210d)">
     <use style="stroke:#000000;" x="80.519633" xlink:href="#mc45e052130" y="108.648171"/>
     <use style="stroke:#000000;" x="87.620749" xlink:href="#mc45e052130" y="216.128158"/>
     <use style="stroke:#000000;" x="101.822981" xlink:href="#mc45e052130" y="81.778175"/>
     <use style="stroke:#000000;" x="108.924098" xlink:href="#mc45e052130" y="189.258161"/>
     <use style="stroke:#000000;" x="123.12633" xlink:href="#mc45e052130" y="216.128158"/>
     <use style="stroke:#000000;" x="130.227447" xlink:href="#mc45e052130" y="269.868151"/>
     <use style="stroke:#000000;" x="144.429679" xlink:href="#mc45e052130" y="28.038182"/>
     <use style="stroke:#000000;" x="151.530795" xlink:href="#mc45e052130" y="135.518168"/>
     <use style="stroke:#000000;" x="165.733028" xlink:href="#mc45e052130" y="175.823163"/>
     <use style="stroke:#000000;" x="172.834144" xlink:href="#mc45e052130" y="189.258161"/>
     <use style="stroke:#000000;" x="187.036377" xlink:href="#mc45e052130" y="310.173146"/>
     <use style="stroke:#000000;" x="194.137493" xlink:href="#mc45e052130" y="283.303149"/>
     <use style="stroke:#000000;" x="208.339726" xlink:href="#mc45e052130" y="283.303149"/>
     <use style="stroke:#000000;" x="215.440842" xlink:href="#mc45e052130" y="229.563156"/>
     <use style="stroke:#000000;" x="229.643075" xlink:href="#mc45e052130" y="81.778175"/>
     <use style="stroke:#000000;" x="236.744191" xlink:href="#mc45e052130" y="162.388165"/>
     <use style="stroke:#000000;" x="250.946423" xlink:href="#mc45e052130" y="122.08317"/>
     <use style="stroke:#000000;" x="258.04754" xlink:href="#mc45e052130" y="135.518168"/>
     <use style="stroke:#000000;" x="279.350889" xlink:href="#mc45e052130" y="242.998154"/>
     <use style="stroke:#000000;" x="293.553121" xlink:href="#mc45e052130" y="175.823163"/>
     <use style="stroke:#000000;" x="300.654237" xlink:href="#mc45e052130" y="175.823163"/>
     <use style="stroke:#000000;" x="314.85647" xlink:href="#mc45e052130" y="135.518168"/>
     <use style="stroke:#000000;" x="336.159819" xlink:href="#mc45e052130" y="162.388165"/>
     <use style="stroke:#000000;" x="343.260935" xlink:href="#mc45e052130" y="229.563156"/>
     <use style="stroke:#000000;" x="364.564284" xlink:href="#mc45e052130" y="323.608144"/>
     <use style="stroke:#000000;" x="378.766517" xlink:href="#mc45e052130" y="283.303149"/>
     <use style="stroke:#000000;" x="385.867633" xlink:href="#mc45e052130" y="242.998154"/>
     <use style="stroke:#000000;" x="407.170982" xlink:href="#mc45e052130" y="95.213173"/>
     <use style="stroke:#000000;" x="421.373214" xlink:href="#mc45e052130" y="108.648171"/>
     <use style="stroke:#000000;" x="428.474331" xlink:href="#mc45e052130" y="175.823163"/>
     <use style="stroke:#000000;" x="442.676563" xlink:href="#mc45e052130" y="28.038182"/>
     <use style="stroke:#000000;" x="449.777679" xlink:href="#mc45e052130" y="175.823163"/>
     <use style="stroke:#000000;" x="463.979912" xlink:href="#mc45e052130" y="162.388165"/>
     <use style="stroke:#000000;" x="471.081028" xlink:href="#mc45e052130" y="202.693159"/>
     <use style="stroke:#000000;" x="485.283261" xlink:href="#mc45e052130" y="122.08317"/>
     <use style="stroke:#000000;" x="492.384377" xlink:href="#mc45e052130" y="108.648171"/>
     <use style="stroke:#000000;" x="506.58661" xlink:href="#mc45e052130" y="148.953166"/>
     <use style="stroke:#000000;" x="513.687726" xlink:href="#mc45e052130" y="148.953166"/>
     <use style="stroke:#000000;" x="534.991075" xlink:href="#mc45e052130" y="175.823163"/>
     <use style="stroke:#000000;" x="549.193307" xlink:href="#mc45e052130" y="242.998154"/>
     <use style="stroke:#000000;" x="556.294424" xlink:href="#mc45e052130" y="283.303149"/>
     <use style="stroke:#000000;" x="570.496656" xlink:href="#mc45e052130" y="283.303149"/>
     <use style="stroke:#000000;" x="591.800005" xlink:href="#mc45e052130" y="337.043142"/>
     <use style="stroke:#000000;" x="598.901121" xlink:href="#mc45e052130" y="296.738147"/>
     <use style="stroke:#000000;" x="613.103354" xlink:href="#mc45e052130" y="283.303149"/>
     <use style="stroke:#000000;" x="620.20447" xlink:href="#mc45e052130" y="202.693159"/>
     <use style="stroke:#000000;" x="634.406703" xlink:href="#mc45e052130" y="175.823163"/>
     <use style="stroke:#000000;" x="641.507819" xlink:href="#mc45e052130" y="323.608144"/>
     <use style="stroke:#000000;" x="655.710052" xlink:href="#mc45e052130" y="296.738147"/>
     <use style="stroke:#000000;" x="662.811168" xlink:href="#mc45e052130" y="310.173146"/>
    </g>
   </g>
   <g id="line2d_28">
    <path clip-path="url(#p7207a4210d)" d="M 80.519633 189.555772 
L 87.620749 175.128603 
L 101.822981 156.766769 
L 108.924098 178.169665 
L 123.12633 174.370328 
L 130.227447 190.730854 
L 144.429679 165.687949 
L 151.530795 157.941851 
L 165.733028 193.833527 
L 172.834144 175.545411 
L 187.036377 177.478768 
L 194.137493 166.863031 
L 208.339726 180.519829 
L 215.440842 195.008609 
L 229.643075 193.081019 
L 236.744191 178.65385 
L 250.946423 160.292016 
L 258.04754 181.694912 
L 279.350889 194.256101 
L 293.553121 169.213196 
L 300.654237 161.467098 
L 314.85647 197.358774 
L 336.159819 181.004015 
L 343.260935 170.388278 
L 364.564284 198.533856 
L 378.766517 196.606266 
L 385.867633 182.179097 
L 407.170982 185.220159 
L 421.373214 181.420881 
L 428.474331 197.792444 
L 442.676563 172.771611 
L 449.777679 165.061454 
L 463.979912 206.264408 
L 471.081028 190.631931 
L 485.283261 197.897278 
L 492.384377 189.961973 
L 506.58661 208.979635 
L 513.687726 226.150925 
L 534.991075 217.84927 
L 549.193307 204.856172 
L 556.294424 228.947135 
L 570.496656 230.523933 
L 591.800005 229.905755 
L 598.901121 224.847725 
L 613.103354 266.115535 
L 620.20447 250.515486 
L 634.406703 257.824977 
L 641.507819 249.897308 
L 655.710052 268.93024 
L 662.811168 286.107087 
L 669.912284 270.507038 
" style="fill:none;stroke:#0072b2;stroke-linecap:square;stroke-width:1.5;"/>
   </g>
   <g id="patch_3">
    <path d="M 51.05 390.04 
L 51.05 10.8 
" style="fill:none;stroke:#000000;stroke-linecap:square;stroke-linejoin:miter;stroke-width:0.8;"/>
   </g>
   <g id="patch_4">
    <path d="M 699.381917 390.04 
L 699.381917 10.8 
" style="fill:none;stroke:#000000;stroke-linecap:square;stroke-linejoin:miter;stroke-width:0.8;"/>
   </g>
   <g id="patch_5">
    <path d="M 51.05 390.04 
L 699.381917 390.04 
" style="fill:none;stroke:#000000;stroke-linecap:square;stroke-linejoin:miter;stroke-width:0.8;"/>
   </g>
   <g id="patch_6">
    <path d="M 51.05 10.8 
L 699.381917 10.8 
" style="fill:none;stroke:#000000;stroke-linecap:square;stroke-linejoin:miter;stroke-width:0.8;"/>
   </g>
  </g>
 </g>
 <defs>
  <clipPath id="p7207a4210d">
   <rect height="379.24" width="648.331917" x="51.05" y="10.8"/>
  </clipPath>
 </defs>
</svg>
