<?xml version="1.0" encoding="utf-8" standalone="no"?>
<!DOCTYPE svg PUBLIC "-//W3C//DTD SVG 1.1//EN"
  "http://www.w3.org/Graphics/SVG/1.1/DTD/svg11.dtd">
<!-- Created with matplotlib (https://matplotlib.org/) -->
<svg height="432pt" version="1.1" viewBox="0 0 720 432" width="720pt" xmlns="http://www.w3.org/2000/svg" xmlns:xlink="http://www.w3.org/1999/xlink">
 <defs>
  <style type="text/css">
*{stroke-linecap:butt;stroke-linejoin:round;}
  </style>
 </defs>
 <g id="figure_1">
  <g id="patch_1">
   <path d="M 0 432 
L 720 432 
L 720 0 
L 0 0 
z
" style="fill:#ffffff;"/>
  </g>
  <g id="axes_1">
   <g id="patch_2">
    <path d="M 60.59 390.04 
L 709.2 390.04 
L 709.2 10.8 
L 60.59 10.8 
z
" style="fill:#ffffff;"/>
   </g>
   <g id="PolyCollection_1">
    <defs>
     <path d="M 90.072273 -340.958685 
L 90.072273 -167.587791 
L 97.176435 -193.183618 
L 111.384759 -168.054652 
L 118.488921 -166.116284 
L 132.697245 -202.254732 
L 139.801407 -147.873452 
L 154.009732 -230.113339 
L 161.113894 -150.201927 
L 175.322218 -173.183204 
L 182.42638 -185.383365 
L 196.634704 -170.432289 
L 217.947191 -132.663174 
L 225.051353 -159.573972 
L 239.259677 -115.566631 
L 246.363839 -141.807465 
L 260.572163 -113.515013 
L 267.676325 -118.41181 
L 281.88465 -151.939378 
L 288.988812 -107.010519 
L 303.197136 -174.501486 
L 310.301298 -102.448707 
L 324.509622 -127.36191 
L 331.613784 -137.334966 
L 345.822108 -117.879399 
L 352.926271 -177.427524 
L 367.134595 -102.957449 
L 374.238757 -137.170442 
L 388.447081 -103.53031 
L 395.551243 -133.064689 
L 409.759567 -103.736404 
L 416.863729 -100.247881 
L 438.176216 -110.934246 
L 452.38454 -187.086268 
L 459.488702 -115.499125 
L 473.697026 -147.256994 
L 495.009513 -140.690487 
L 502.113675 -195.524474 
L 516.321999 -122.30299 
L 523.426161 -158.453304 
L 537.634485 -118.260218 
L 544.738647 -157.912683 
L 558.946972 -123.229669 
L 566.051134 -135.924037 
L 580.259458 -174.405308 
L 587.36362 -128.530545 
L 601.571944 -207.248901 
L 608.676106 -132.222624 
L 622.88443 -171.213538 
L 629.988593 -178.079999 
L 644.196917 -176.817687 
L 651.301079 -213.166918 
L 665.509403 -149.836786 
L 672.613565 -174.75442 
L 679.717727 -189.45204 
L 679.717727 -362.401364 
L 679.717727 -362.401364 
L 672.613565 -352.629964 
L 665.509403 -319.278454 
L 651.301079 -392.89492 
L 644.196917 -349.878627 
L 629.988593 -352.385621 
L 622.88443 -351.070074 
L 608.676106 -318.764425 
L 601.571944 -388.776854 
L 587.36362 -302.861184 
L 580.259458 -349.678091 
L 566.051134 -309.751205 
L 558.946972 -301.18623 
L 544.738647 -332.43482 
L 537.634485 -296.242825 
L 523.426161 -337.423747 
L 516.321999 -308.69056 
L 502.113675 -370.023645 
L 495.009513 -322.594647 
L 473.697026 -325.003525 
L 459.488702 -295.366799 
L 452.38454 -364.256272 
L 438.176216 -287.02872 
L 416.863729 -282.649222 
L 409.759567 -284.656244 
L 395.551243 -312.197437 
L 388.447081 -279.832829 
L 374.238757 -315.419313 
L 367.134595 -290.281819 
L 352.926271 -352.640967 
L 345.822108 -301.977745 
L 331.613784 -311.471293 
L 324.509622 -311.578112 
L 310.301298 -279.724994 
L 303.197136 -349.038146 
L 288.988812 -280.948198 
L 281.88465 -328.254355 
L 267.676325 -294.99014 
L 260.572163 -292.008564 
L 246.363839 -335.064234 
L 239.259677 -302.858243 
L 225.051353 -342.889442 
L 217.947191 -308.478626 
L 196.634704 -341.506223 
L 182.42638 -360.278148 
L 175.322218 -351.91548 
L 161.113894 -325.77133 
L 154.009732 -403.961818 
L 139.801407 -330.826058 
L 132.697245 -377.432091 
L 118.488921 -344.068354 
L 111.384759 -336.595867 
L 97.176435 -370.097712 
L 90.072273 -340.958685 
z
" id="mc4b7997b59" style="stroke:#0072b2;stroke-opacity:0.2;"/>
    </defs>
    <g clip-path="url(#p7c7ef08ad3)">
     <use style="fill:#0072b2;fill-opacity:0.2;stroke:#0072b2;stroke-opacity:0.2;" x="0" xlink:href="#mc4b7997b59" y="432"/>
    </g>
   </g>
   <g id="matplotlib.axis_1">
    <g id="xtick_1">
     <g id="line2d_1">
      <path clip-path="url(#p7c7ef08ad3)" d="M 118.488921 390.04 
L 118.488921 10.8 
" style="fill:none;stroke:#808080;stroke-linecap:square;stroke-opacity:0.2;"/>
     </g>
     <g id="line2d_2">
      <defs>
       <path d="M 0 0 
L 0 3.5 
" id="m076caa1d2f" style="stroke:#000000;stroke-width:0.8;"/>
      </defs>
      <g>
       <use style="stroke:#000000;stroke-width:0.8;" x="118.488921" xlink:href="#m076caa1d2f" y="390.04"/>
      </g>
     </g>
     <g id="text_1">
      <!-- 2019-04-06 -->
      <defs>
       <path d="M 19.1875 8.296875 
L 53.609375 8.296875 
L 53.609375 0 
L 7.328125 0 
L 7.328125 8.296875 
Q 12.9375 14.109375 22.625 23.890625 
Q 32.328125 33.6875 34.8125 36.53125 
Q 39.546875 41.84375 41.421875 45.53125 
Q 43.3125 49.21875 43.3125 52.78125 
Q 43.3125 58.59375 39.234375 62.25 
Q 35.15625 65.921875 28.609375 65.921875 
Q 23.96875 65.921875 18.8125 64.3125 
Q 13.671875 62.703125 7.8125 59.421875 
L 7.8125 69.390625 
Q 13.765625 71.78125 18.9375 73 
Q 24.125 74.21875 28.421875 74.21875 
Q 39.75 74.21875 46.484375 68.546875 
Q 53.21875 62.890625 53.21875 53.421875 
Q 53.21875 48.921875 51.53125 44.890625 
Q 49.859375 40.875 45.40625 35.40625 
Q 44.1875 33.984375 37.640625 27.21875 
Q 31.109375 20.453125 19.1875 8.296875 
z
" id="DejaVuSans-50"/>
       <path d="M 31.78125 66.40625 
Q 24.171875 66.40625 20.328125 58.90625 
Q 16.5 51.421875 16.5 36.375 
Q 16.5 21.390625 20.328125 13.890625 
Q 24.171875 6.390625 31.78125 6.390625 
Q 39.453125 6.390625 43.28125 13.890625 
Q 47.125 21.390625 47.125 36.375 
Q 47.125 51.421875 43.28125 58.90625 
Q 39.453125 66.40625 31.78125 66.40625 
z
M 31.78125 74.21875 
Q 44.046875 74.21875 50.515625 64.515625 
Q 56.984375 54.828125 56.984375 36.375 
Q 56.984375 17.96875 50.515625 8.265625 
Q 44.046875 -1.421875 31.78125 -1.421875 
Q 19.53125 -1.421875 13.0625 8.265625 
Q 6.59375 17.96875 6.59375 36.375 
Q 6.59375 54.828125 13.0625 64.515625 
Q 19.53125 74.21875 31.78125 74.21875 
z
" id="DejaVuSans-48"/>
       <path d="M 12.40625 8.296875 
L 28.515625 8.296875 
L 28.515625 63.921875 
L 10.984375 60.40625 
L 10.984375 69.390625 
L 28.421875 72.90625 
L 38.28125 72.90625 
L 38.28125 8.296875 
L 54.390625 8.296875 
L 54.390625 0 
L 12.40625 0 
z
" id="DejaVuSans-49"/>
       <path d="M 10.984375 1.515625 
L 10.984375 10.5 
Q 14.703125 8.734375 18.5 7.8125 
Q 22.3125 6.890625 25.984375 6.890625 
Q 35.75 6.890625 40.890625 13.453125 
Q 46.046875 20.015625 46.78125 33.40625 
Q 43.953125 29.203125 39.59375 26.953125 
Q 35.25 24.703125 29.984375 24.703125 
Q 19.046875 24.703125 12.671875 31.3125 
Q 6.296875 37.9375 6.296875 49.421875 
Q 6.296875 60.640625 12.9375 67.421875 
Q 19.578125 74.21875 30.609375 74.21875 
Q 43.265625 74.21875 49.921875 64.515625 
Q 56.59375 54.828125 56.59375 36.375 
Q 56.59375 19.140625 48.40625 8.859375 
Q 40.234375 -1.421875 26.421875 -1.421875 
Q 22.703125 -1.421875 18.890625 -0.6875 
Q 15.09375 0.046875 10.984375 1.515625 
z
M 30.609375 32.421875 
Q 37.25 32.421875 41.125 36.953125 
Q 45.015625 41.5 45.015625 49.421875 
Q 45.015625 57.28125 41.125 61.84375 
Q 37.25 66.40625 30.609375 66.40625 
Q 23.96875 66.40625 20.09375 61.84375 
Q 16.21875 57.28125 16.21875 49.421875 
Q 16.21875 41.5 20.09375 36.953125 
Q 23.96875 32.421875 30.609375 32.421875 
z
" id="DejaVuSans-57"/>
       <path d="M 4.890625 31.390625 
L 31.203125 31.390625 
L 31.203125 23.390625 
L 4.890625 23.390625 
z
" id="DejaVuSans-45"/>
       <path d="M 37.796875 64.3125 
L 12.890625 25.390625 
L 37.796875 25.390625 
z
M 35.203125 72.90625 
L 47.609375 72.90625 
L 47.609375 25.390625 
L 58.015625 25.390625 
L 58.015625 17.1875 
L 47.609375 17.1875 
L 47.609375 0 
L 37.796875 0 
L 37.796875 17.1875 
L 4.890625 17.1875 
L 4.890625 26.703125 
z
" id="DejaVuSans-52"/>
       <path d="M 33.015625 40.375 
Q 26.375 40.375 22.484375 35.828125 
Q 18.609375 31.296875 18.609375 23.390625 
Q 18.609375 15.53125 22.484375 10.953125 
Q 26.375 6.390625 33.015625 6.390625 
Q 39.65625 6.390625 43.53125 10.953125 
Q 47.40625 15.53125 47.40625 23.390625 
Q 47.40625 31.296875 43.53125 35.828125 
Q 39.65625 40.375 33.015625 40.375 
z
M 52.59375 71.296875 
L 52.59375 62.3125 
Q 48.875 64.0625 45.09375 64.984375 
Q 41.3125 65.921875 37.59375 65.921875 
Q 27.828125 65.921875 22.671875 59.328125 
Q 17.53125 52.734375 16.796875 39.40625 
Q 19.671875 43.65625 24.015625 45.921875 
Q 28.375 48.1875 33.59375 48.1875 
Q 44.578125 48.1875 50.953125 41.515625 
Q 57.328125 34.859375 57.328125 23.390625 
Q 57.328125 12.15625 50.6875 5.359375 
Q 44.046875 -1.421875 33.015625 -1.421875 
Q 20.359375 -1.421875 13.671875 8.265625 
Q 6.984375 17.96875 6.984375 36.375 
Q 6.984375 53.65625 15.1875 63.9375 
Q 23.390625 74.21875 37.203125 74.21875 
Q 40.921875 74.21875 44.703125 73.484375 
Q 48.484375 72.75 52.59375 71.296875 
z
" id="DejaVuSans-54"/>
      </defs>
      <g transform="translate(89.431109 404.638438)scale(0.1 -0.1)">
       <use xlink:href="#DejaVuSans-50"/>
       <use x="63.623047" xlink:href="#DejaVuSans-48"/>
       <use x="127.246094" xlink:href="#DejaVuSans-49"/>
       <use x="190.869141" xlink:href="#DejaVuSans-57"/>
       <use x="254.492188" xlink:href="#DejaVuSans-45"/>
       <use x="290.576172" xlink:href="#DejaVuSans-48"/>
       <use x="354.199219" xlink:href="#DejaVuSans-52"/>
       <use x="417.822266" xlink:href="#DejaVuSans-45"/>
       <use x="453.90625" xlink:href="#DejaVuSans-48"/>
       <use x="517.529297" xlink:href="#DejaVuSans-54"/>
      </g>
     </g>
    </g>
    <g id="xtick_2">
     <g id="line2d_3">
      <path clip-path="url(#p7c7ef08ad3)" d="M 217.947191 390.04 
L 217.947191 10.8 
" style="fill:none;stroke:#808080;stroke-linecap:square;stroke-opacity:0.2;"/>
     </g>
     <g id="line2d_4">
      <g>
       <use style="stroke:#000000;stroke-width:0.8;" x="217.947191" xlink:href="#m076caa1d2f" y="390.04"/>
      </g>
     </g>
     <g id="text_2">
      <!-- 2019-04-20 -->
      <g transform="translate(188.889378 404.638438)scale(0.1 -0.1)">
       <use xlink:href="#DejaVuSans-50"/>
       <use x="63.623047" xlink:href="#DejaVuSans-48"/>
       <use x="127.246094" xlink:href="#DejaVuSans-49"/>
       <use x="190.869141" xlink:href="#DejaVuSans-57"/>
       <use x="254.492188" xlink:href="#DejaVuSans-45"/>
       <use x="290.576172" xlink:href="#DejaVuSans-48"/>
       <use x="354.199219" xlink:href="#DejaVuSans-52"/>
       <use x="417.822266" xlink:href="#DejaVuSans-45"/>
       <use x="453.90625" xlink:href="#DejaVuSans-50"/>
       <use x="517.529297" xlink:href="#DejaVuSans-48"/>
      </g>
     </g>
    </g>
    <g id="xtick_3">
     <g id="line2d_5">
      <path clip-path="url(#p7c7ef08ad3)" d="M 317.40546 390.04 
L 317.40546 10.8 
" style="fill:none;stroke:#808080;stroke-linecap:square;stroke-opacity:0.2;"/>
     </g>
     <g id="line2d_6">
      <g>
       <use style="stroke:#000000;stroke-width:0.8;" x="317.40546" xlink:href="#m076caa1d2f" y="390.04"/>
      </g>
     </g>
     <g id="text_3">
      <!-- 2019-05-04 -->
      <defs>
       <path d="M 10.796875 72.90625 
L 49.515625 72.90625 
L 49.515625 64.59375 
L 19.828125 64.59375 
L 19.828125 46.734375 
Q 21.96875 47.46875 24.109375 47.828125 
Q 26.265625 48.1875 28.421875 48.1875 
Q 40.625 48.1875 47.75 41.5 
Q 54.890625 34.8125 54.890625 23.390625 
Q 54.890625 11.625 47.5625 5.09375 
Q 40.234375 -1.421875 26.90625 -1.421875 
Q 22.3125 -1.421875 17.546875 -0.640625 
Q 12.796875 0.140625 7.71875 1.703125 
L 7.71875 11.625 
Q 12.109375 9.234375 16.796875 8.0625 
Q 21.484375 6.890625 26.703125 6.890625 
Q 35.15625 6.890625 40.078125 11.328125 
Q 45.015625 15.765625 45.015625 23.390625 
Q 45.015625 31 40.078125 35.4375 
Q 35.15625 39.890625 26.703125 39.890625 
Q 22.75 39.890625 18.8125 39.015625 
Q 14.890625 38.140625 10.796875 36.28125 
z
" id="DejaVuSans-53"/>
      </defs>
      <g transform="translate(288.347648 404.638438)scale(0.1 -0.1)">
       <use xlink:href="#DejaVuSans-50"/>
       <use x="63.623047" xlink:href="#DejaVuSans-48"/>
       <use x="127.246094" xlink:href="#DejaVuSans-49"/>
       <use x="190.869141" xlink:href="#DejaVuSans-57"/>
       <use x="254.492188" xlink:href="#DejaVuSans-45"/>
       <use x="290.576172" xlink:href="#DejaVuSans-48"/>
       <use x="354.199219" xlink:href="#DejaVuSans-53"/>
       <use x="417.822266" xlink:href="#DejaVuSans-45"/>
       <use x="453.90625" xlink:href="#DejaVuSans-48"/>
       <use x="517.529297" xlink:href="#DejaVuSans-52"/>
      </g>
     </g>
    </g>
    <g id="xtick_4">
     <g id="line2d_7">
      <path clip-path="url(#p7c7ef08ad3)" d="M 416.863729 390.04 
L 416.863729 10.8 
" style="fill:none;stroke:#808080;stroke-linecap:square;stroke-opacity:0.2;"/>
     </g>
     <g id="line2d_8">
      <g>
       <use style="stroke:#000000;stroke-width:0.8;" x="416.863729" xlink:href="#m076caa1d2f" y="390.04"/>
      </g>
     </g>
     <g id="text_4">
      <!-- 2019-05-18 -->
      <defs>
       <path d="M 31.78125 34.625 
Q 24.75 34.625 20.71875 30.859375 
Q 16.703125 27.09375 16.703125 20.515625 
Q 16.703125 13.921875 20.71875 10.15625 
Q 24.75 6.390625 31.78125 6.390625 
Q 38.8125 6.390625 42.859375 10.171875 
Q 46.921875 13.96875 46.921875 20.515625 
Q 46.921875 27.09375 42.890625 30.859375 
Q 38.875 34.625 31.78125 34.625 
z
M 21.921875 38.8125 
Q 15.578125 40.375 12.03125 44.71875 
Q 8.5 49.078125 8.5 55.328125 
Q 8.5 64.0625 14.71875 69.140625 
Q 20.953125 74.21875 31.78125 74.21875 
Q 42.671875 74.21875 48.875 69.140625 
Q 55.078125 64.0625 55.078125 55.328125 
Q 55.078125 49.078125 51.53125 44.71875 
Q 48 40.375 41.703125 38.8125 
Q 48.828125 37.15625 52.796875 32.3125 
Q 56.78125 27.484375 56.78125 20.515625 
Q 56.78125 9.90625 50.3125 4.234375 
Q 43.84375 -1.421875 31.78125 -1.421875 
Q 19.734375 -1.421875 13.25 4.234375 
Q 6.78125 9.90625 6.78125 20.515625 
Q 6.78125 27.484375 10.78125 32.3125 
Q 14.796875 37.15625 21.921875 38.8125 
z
M 18.3125 54.390625 
Q 18.3125 48.734375 21.84375 45.5625 
Q 25.390625 42.390625 31.78125 42.390625 
Q 38.140625 42.390625 41.71875 45.5625 
Q 45.3125 48.734375 45.3125 54.390625 
Q 45.3125 60.0625 41.71875 63.234375 
Q 38.140625 66.40625 31.78125 66.40625 
Q 25.390625 66.40625 21.84375 63.234375 
Q 18.3125 60.0625 18.3125 54.390625 
z
" id="DejaVuSans-56"/>
      </defs>
      <g transform="translate(387.805917 404.638438)scale(0.1 -0.1)">
       <use xlink:href="#DejaVuSans-50"/>
       <use x="63.623047" xlink:href="#DejaVuSans-48"/>
       <use x="127.246094" xlink:href="#DejaVuSans-49"/>
       <use x="190.869141" xlink:href="#DejaVuSans-57"/>
       <use x="254.492188" xlink:href="#DejaVuSans-45"/>
       <use x="290.576172" xlink:href="#DejaVuSans-48"/>
       <use x="354.199219" xlink:href="#DejaVuSans-53"/>
       <use x="417.822266" xlink:href="#DejaVuSans-45"/>
       <use x="453.90625" xlink:href="#DejaVuSans-49"/>
       <use x="517.529297" xlink:href="#DejaVuSans-56"/>
      </g>
     </g>
    </g>
    <g id="xtick_5">
     <g id="line2d_9">
      <path clip-path="url(#p7c7ef08ad3)" d="M 516.321999 390.04 
L 516.321999 10.8 
" style="fill:none;stroke:#808080;stroke-linecap:square;stroke-opacity:0.2;"/>
     </g>
     <g id="line2d_10">
      <g>
       <use style="stroke:#000000;stroke-width:0.8;" x="516.321999" xlink:href="#m076caa1d2f" y="390.04"/>
      </g>
     </g>
     <g id="text_5">
      <!-- 2019-06-01 -->
      <g transform="translate(487.264186 404.638438)scale(0.1 -0.1)">
       <use xlink:href="#DejaVuSans-50"/>
       <use x="63.623047" xlink:href="#DejaVuSans-48"/>
       <use x="127.246094" xlink:href="#DejaVuSans-49"/>
       <use x="190.869141" xlink:href="#DejaVuSans-57"/>
       <use x="254.492188" xlink:href="#DejaVuSans-45"/>
       <use x="290.576172" xlink:href="#DejaVuSans-48"/>
       <use x="354.199219" xlink:href="#DejaVuSans-54"/>
       <use x="417.822266" xlink:href="#DejaVuSans-45"/>
       <use x="453.90625" xlink:href="#DejaVuSans-48"/>
       <use x="517.529297" xlink:href="#DejaVuSans-49"/>
      </g>
     </g>
    </g>
    <g id="xtick_6">
     <g id="line2d_11">
      <path clip-path="url(#p7c7ef08ad3)" d="M 615.780268 390.04 
L 615.780268 10.8 
" style="fill:none;stroke:#808080;stroke-linecap:square;stroke-opacity:0.2;"/>
     </g>
     <g id="line2d_12">
      <g>
       <use style="stroke:#000000;stroke-width:0.8;" x="615.780268" xlink:href="#m076caa1d2f" y="390.04"/>
      </g>
     </g>
     <g id="text_6">
      <!-- 2019-06-15 -->
      <g transform="translate(586.722456 404.638438)scale(0.1 -0.1)">
       <use xlink:href="#DejaVuSans-50"/>
       <use x="63.623047" xlink:href="#DejaVuSans-48"/>
       <use x="127.246094" xlink:href="#DejaVuSans-49"/>
       <use x="190.869141" xlink:href="#DejaVuSans-57"/>
       <use x="254.492188" xlink:href="#DejaVuSans-45"/>
       <use x="290.576172" xlink:href="#DejaVuSans-48"/>
       <use x="354.199219" xlink:href="#DejaVuSans-54"/>
       <use x="417.822266" xlink:href="#DejaVuSans-45"/>
       <use x="453.90625" xlink:href="#DejaVuSans-49"/>
       <use x="517.529297" xlink:href="#DejaVuSans-53"/>
      </g>
     </g>
    </g>
    <g id="text_7">
     <!-- ds -->
     <defs>
      <path d="M 45.40625 46.390625 
L 45.40625 75.984375 
L 54.390625 75.984375 
L 54.390625 0 
L 45.40625 0 
L 45.40625 8.203125 
Q 42.578125 3.328125 38.25 0.953125 
Q 33.9375 -1.421875 27.875 -1.421875 
Q 17.96875 -1.421875 11.734375 6.484375 
Q 5.515625 14.40625 5.515625 27.296875 
Q 5.515625 40.1875 11.734375 48.09375 
Q 17.96875 56 27.875 56 
Q 33.9375 56 38.25 53.625 
Q 42.578125 51.265625 45.40625 46.390625 
z
M 14.796875 27.296875 
Q 14.796875 17.390625 18.875 11.75 
Q 22.953125 6.109375 30.078125 6.109375 
Q 37.203125 6.109375 41.296875 11.75 
Q 45.40625 17.390625 45.40625 27.296875 
Q 45.40625 37.203125 41.296875 42.84375 
Q 37.203125 48.484375 30.078125 48.484375 
Q 22.953125 48.484375 18.875 42.84375 
Q 14.796875 37.203125 14.796875 27.296875 
z
" id="DejaVuSans-100"/>
      <path d="M 44.28125 53.078125 
L 44.28125 44.578125 
Q 40.484375 46.53125 36.375 47.5 
Q 32.28125 48.484375 27.875 48.484375 
Q 21.1875 48.484375 17.84375 46.4375 
Q 14.5 44.390625 14.5 40.28125 
Q 14.5 37.15625 16.890625 35.375 
Q 19.28125 33.59375 26.515625 31.984375 
L 29.59375 31.296875 
Q 39.15625 29.25 43.1875 25.515625 
Q 47.21875 21.78125 47.21875 15.09375 
Q 47.21875 7.46875 41.1875 3.015625 
Q 35.15625 -1.421875 24.609375 -1.421875 
Q 20.21875 -1.421875 15.453125 -0.5625 
Q 10.6875 0.296875 5.421875 2 
L 5.421875 11.28125 
Q 10.40625 8.6875 15.234375 7.390625 
Q 20.0625 6.109375 24.8125 6.109375 
Q 31.15625 6.109375 34.5625 8.28125 
Q 37.984375 10.453125 37.984375 14.40625 
Q 37.984375 18.0625 35.515625 20.015625 
Q 33.0625 21.96875 24.703125 23.78125 
L 21.578125 24.515625 
Q 13.234375 26.265625 9.515625 29.90625 
Q 5.8125 33.546875 5.8125 39.890625 
Q 5.8125 47.609375 11.28125 51.796875 
Q 16.75 56 26.8125 56 
Q 31.78125 56 36.171875 55.265625 
Q 40.578125 54.546875 44.28125 53.078125 
z
" id="DejaVuSans-115"/>
     </defs>
     <g transform="translate(379.116094 418.316562)scale(0.1 -0.1)">
      <use xlink:href="#DejaVuSans-100"/>
      <use x="63.476562" xlink:href="#DejaVuSans-115"/>
     </g>
    </g>
   </g>
   <g id="matplotlib.axis_2">
    <g id="ytick_1">
     <g id="line2d_13">
      <path clip-path="url(#p7c7ef08ad3)" d="M 60.59 363.502809 
L 709.2 363.502809 
" style="fill:none;stroke:#808080;stroke-linecap:square;stroke-opacity:0.2;"/>
     </g>
     <g id="line2d_14">
      <defs>
       <path d="M 0 0 
L -3.5 0 
" id="m8f4c2e47ee" style="stroke:#000000;stroke-width:0.8;"/>
      </defs>
      <g>
       <use style="stroke:#000000;stroke-width:0.8;" x="60.59" xlink:href="#m8f4c2e47ee" y="363.502809"/>
      </g>
     </g>
     <g id="text_8">
      <!-- 142.5 -->
      <defs>
       <path d="M 10.6875 12.40625 
L 21 12.40625 
L 21 0 
L 10.6875 0 
z
" id="DejaVuSans-46"/>
      </defs>
      <g transform="translate(24.961875 367.302028)scale(0.1 -0.1)">
       <use xlink:href="#DejaVuSans-49"/>
       <use x="63.623047" xlink:href="#DejaVuSans-52"/>
       <use x="127.246094" xlink:href="#DejaVuSans-50"/>
       <use x="190.869141" xlink:href="#DejaVuSans-46"/>
       <use x="222.65625" xlink:href="#DejaVuSans-53"/>
      </g>
     </g>
    </g>
    <g id="ytick_2">
     <g id="line2d_15">
      <path clip-path="url(#p7c7ef08ad3)" d="M 60.59 317.007763 
L 709.2 317.007763 
" style="fill:none;stroke:#808080;stroke-linecap:square;stroke-opacity:0.2;"/>
     </g>
     <g id="line2d_16">
      <g>
       <use style="stroke:#000000;stroke-width:0.8;" x="60.59" xlink:href="#m8f4c2e47ee" y="317.007763"/>
      </g>
     </g>
     <g id="text_9">
      <!-- 145.0 -->
      <g transform="translate(24.961875 320.806982)scale(0.1 -0.1)">
       <use xlink:href="#DejaVuSans-49"/>
       <use x="63.623047" xlink:href="#DejaVuSans-52"/>
       <use x="127.246094" xlink:href="#DejaVuSans-53"/>
       <use x="190.869141" xlink:href="#DejaVuSans-46"/>
       <use x="222.65625" xlink:href="#DejaVuSans-48"/>
      </g>
     </g>
    </g>
    <g id="ytick_3">
     <g id="line2d_17">
      <path clip-path="url(#p7c7ef08ad3)" d="M 60.59 270.512717 
L 709.2 270.512717 
" style="fill:none;stroke:#808080;stroke-linecap:square;stroke-opacity:0.2;"/>
     </g>
     <g id="line2d_18">
      <g>
       <use style="stroke:#000000;stroke-width:0.8;" x="60.59" xlink:href="#m8f4c2e47ee" y="270.512717"/>
      </g>
     </g>
     <g id="text_10">
      <!-- 147.5 -->
      <defs>
       <path d="M 8.203125 72.90625 
L 55.078125 72.90625 
L 55.078125 68.703125 
L 28.609375 0 
L 18.3125 0 
L 43.21875 64.59375 
L 8.203125 64.59375 
z
" id="DejaVuSans-55"/>
      </defs>
      <g transform="translate(24.961875 274.311936)scale(0.1 -0.1)">
       <use xlink:href="#DejaVuSans-49"/>
       <use x="63.623047" xlink:href="#DejaVuSans-52"/>
       <use x="127.246094" xlink:href="#DejaVuSans-55"/>
       <use x="190.869141" xlink:href="#DejaVuSans-46"/>
       <use x="222.65625" xlink:href="#DejaVuSans-53"/>
      </g>
     </g>
    </g>
    <g id="ytick_4">
     <g id="line2d_19">
      <path clip-path="url(#p7c7ef08ad3)" d="M 60.59 224.017671 
L 709.2 224.017671 
" style="fill:none;stroke:#808080;stroke-linecap:square;stroke-opacity:0.2;"/>
     </g>
     <g id="line2d_20">
      <g>
       <use style="stroke:#000000;stroke-width:0.8;" x="60.59" xlink:href="#m8f4c2e47ee" y="224.017671"/>
      </g>
     </g>
     <g id="text_11">
      <!-- 150.0 -->
      <g transform="translate(24.961875 227.81689)scale(0.1 -0.1)">
       <use xlink:href="#DejaVuSans-49"/>
       <use x="63.623047" xlink:href="#DejaVuSans-53"/>
       <use x="127.246094" xlink:href="#DejaVuSans-48"/>
       <use x="190.869141" xlink:href="#DejaVuSans-46"/>
       <use x="222.65625" xlink:href="#DejaVuSans-48"/>
      </g>
     </g>
    </g>
    <g id="ytick_5">
     <g id="line2d_21">
      <path clip-path="url(#p7c7ef08ad3)" d="M 60.59 177.522625 
L 709.2 177.522625 
" style="fill:none;stroke:#808080;stroke-linecap:square;stroke-opacity:0.2;"/>
     </g>
     <g id="line2d_22">
      <g>
       <use style="stroke:#000000;stroke-width:0.8;" x="60.59" xlink:href="#m8f4c2e47ee" y="177.522625"/>
      </g>
     </g>
     <g id="text_12">
      <!-- 152.5 -->
      <g transform="translate(24.961875 181.321844)scale(0.1 -0.1)">
       <use xlink:href="#DejaVuSans-49"/>
       <use x="63.623047" xlink:href="#DejaVuSans-53"/>
       <use x="127.246094" xlink:href="#DejaVuSans-50"/>
       <use x="190.869141" xlink:href="#DejaVuSans-46"/>
       <use x="222.65625" xlink:href="#DejaVuSans-53"/>
      </g>
     </g>
    </g>
    <g id="ytick_6">
     <g id="line2d_23">
      <path clip-path="url(#p7c7ef08ad3)" d="M 60.59 131.027579 
L 709.2 131.027579 
" style="fill:none;stroke:#808080;stroke-linecap:square;stroke-opacity:0.2;"/>
     </g>
     <g id="line2d_24">
      <g>
       <use style="stroke:#000000;stroke-width:0.8;" x="60.59" xlink:href="#m8f4c2e47ee" y="131.027579"/>
      </g>
     </g>
     <g id="text_13">
      <!-- 155.0 -->
      <g transform="translate(24.961875 134.826798)scale(0.1 -0.1)">
       <use xlink:href="#DejaVuSans-49"/>
       <use x="63.623047" xlink:href="#DejaVuSans-53"/>
       <use x="127.246094" xlink:href="#DejaVuSans-53"/>
       <use x="190.869141" xlink:href="#DejaVuSans-46"/>
       <use x="222.65625" xlink:href="#DejaVuSans-48"/>
      </g>
     </g>
    </g>
    <g id="ytick_7">
     <g id="line2d_25">
      <path clip-path="url(#p7c7ef08ad3)" d="M 60.59 84.532533 
L 709.2 84.532533 
" style="fill:none;stroke:#808080;stroke-linecap:square;stroke-opacity:0.2;"/>
     </g>
     <g id="line2d_26">
      <g>
       <use style="stroke:#000000;stroke-width:0.8;" x="60.59" xlink:href="#m8f4c2e47ee" y="84.532533"/>
      </g>
     </g>
     <g id="text_14">
      <!-- 157.5 -->
      <g transform="translate(24.961875 88.331752)scale(0.1 -0.1)">
       <use xlink:href="#DejaVuSans-49"/>
       <use x="63.623047" xlink:href="#DejaVuSans-53"/>
       <use x="127.246094" xlink:href="#DejaVuSans-55"/>
       <use x="190.869141" xlink:href="#DejaVuSans-46"/>
       <use x="222.65625" xlink:href="#DejaVuSans-53"/>
      </g>
     </g>
    </g>
    <g id="ytick_8">
     <g id="line2d_27">
      <path clip-path="url(#p7c7ef08ad3)" d="M 60.59 38.037487 
L 709.2 38.037487 
" style="fill:none;stroke:#808080;stroke-linecap:square;stroke-opacity:0.2;"/>
     </g>
     <g id="line2d_28">
      <g>
       <use style="stroke:#000000;stroke-width:0.8;" x="60.59" xlink:href="#m8f4c2e47ee" y="38.037487"/>
      </g>
     </g>
     <g id="text_15">
      <!-- 160.0 -->
      <g transform="translate(24.961875 41.836706)scale(0.1 -0.1)">
       <use xlink:href="#DejaVuSans-49"/>
       <use x="63.623047" xlink:href="#DejaVuSans-54"/>
       <use x="127.246094" xlink:href="#DejaVuSans-48"/>
       <use x="190.869141" xlink:href="#DejaVuSans-46"/>
       <use x="222.65625" xlink:href="#DejaVuSans-48"/>
      </g>
     </g>
    </g>
    <g id="text_16">
     <!-- y -->
     <defs>
      <path d="M 32.171875 -5.078125 
Q 28.375 -14.84375 24.75 -17.8125 
Q 21.140625 -20.796875 15.09375 -20.796875 
L 7.90625 -20.796875 
L 7.90625 -13.28125 
L 13.1875 -13.28125 
Q 16.890625 -13.28125 18.9375 -11.515625 
Q 21 -9.765625 23.484375 -3.21875 
L 25.09375 0.875 
L 2.984375 54.6875 
L 12.5 54.6875 
L 29.59375 11.921875 
L 46.6875 54.6875 
L 56.203125 54.6875 
z
" id="DejaVuSans-121"/>
     </defs>
     <g transform="translate(18.882188 203.379375)rotate(-90)scale(0.1 -0.1)">
      <use xlink:href="#DejaVuSans-121"/>
     </g>
    </g>
   </g>
   <g id="line2d_29">
    <defs>
     <path d="M 0 1.5 
C 0.397805 1.5 0.77937 1.341951 1.06066 1.06066 
C 1.341951 0.77937 1.5 0.397805 1.5 0 
C 1.5 -0.397805 1.341951 -0.77937 1.06066 -1.06066 
C 0.77937 -1.341951 0.397805 -1.5 0 -1.5 
C -0.397805 -1.5 -0.77937 -1.341951 -1.06066 -1.06066 
C -1.341951 -0.77937 -1.5 -0.397805 -1.5 0 
C -1.5 0.397805 -1.341951 0.77937 -1.06066 1.06066 
C -0.77937 1.341951 -0.397805 1.5 0 1.5 
z
" id="m36f1293fb9" style="stroke:#000000;"/>
    </defs>
    <g clip-path="url(#p7c7ef08ad3)">
     <use style="stroke:#000000;" x="90.072273" xlink:href="#m36f1293fb9" y="205.419652"/>
     <use style="stroke:#000000;" x="97.176435" xlink:href="#m36f1293fb9" y="131.027579"/>
     <use style="stroke:#000000;" x="111.384759" xlink:href="#m36f1293fb9" y="131.027579"/>
     <use style="stroke:#000000;" x="118.488921" xlink:href="#m36f1293fb9" y="112.42956"/>
     <use style="stroke:#000000;" x="132.697245" xlink:href="#m36f1293fb9" y="131.027579"/>
     <use style="stroke:#000000;" x="139.801407" xlink:href="#m36f1293fb9" y="224.017671"/>
     <use style="stroke:#000000;" x="154.009732" xlink:href="#m36f1293fb9" y="93.831542"/>
     <use style="stroke:#000000;" x="161.113894" xlink:href="#m36f1293fb9" y="261.213708"/>
     <use style="stroke:#000000;" x="175.322218" xlink:href="#m36f1293fb9" y="112.42956"/>
     <use style="stroke:#000000;" x="182.42638" xlink:href="#m36f1293fb9" y="93.831542"/>
     <use style="stroke:#000000;" x="196.634704" xlink:href="#m36f1293fb9" y="112.42956"/>
     <use style="stroke:#000000;" x="217.947191" xlink:href="#m36f1293fb9" y="205.419652"/>
     <use style="stroke:#000000;" x="225.051353" xlink:href="#m36f1293fb9" y="279.811726"/>
     <use style="stroke:#000000;" x="239.259677" xlink:href="#m36f1293fb9" y="242.615689"/>
     <use style="stroke:#000000;" x="246.363839" xlink:href="#m36f1293fb9" y="168.223616"/>
     <use style="stroke:#000000;" x="260.572163" xlink:href="#m36f1293fb9" y="242.615689"/>
     <use style="stroke:#000000;" x="267.676325" xlink:href="#m36f1293fb9" y="372.801818"/>
     <use style="stroke:#000000;" x="281.88465" xlink:href="#m36f1293fb9" y="131.027579"/>
     <use style="stroke:#000000;" x="288.988812" xlink:href="#m36f1293fb9" y="261.213708"/>
     <use style="stroke:#000000;" x="303.197136" xlink:href="#m36f1293fb9" y="168.223616"/>
     <use style="stroke:#000000;" x="310.301298" xlink:href="#m36f1293fb9" y="261.213708"/>
     <use style="stroke:#000000;" x="324.509622" xlink:href="#m36f1293fb9" y="279.811726"/>
     <use style="stroke:#000000;" x="331.613784" xlink:href="#m36f1293fb9" y="335.605781"/>
     <use style="stroke:#000000;" x="345.822108" xlink:href="#m36f1293fb9" y="205.419652"/>
     <use style="stroke:#000000;" x="352.926271" xlink:href="#m36f1293fb9" y="56.635505"/>
     <use style="stroke:#000000;" x="367.134595" xlink:href="#m36f1293fb9" y="224.017671"/>
     <use style="stroke:#000000;" x="374.238757" xlink:href="#m36f1293fb9" y="205.419652"/>
     <use style="stroke:#000000;" x="388.447081" xlink:href="#m36f1293fb9" y="261.213708"/>
     <use style="stroke:#000000;" x="395.551243" xlink:href="#m36f1293fb9" y="261.213708"/>
     <use style="stroke:#000000;" x="409.759567" xlink:href="#m36f1293fb9" y="335.605781"/>
     <use style="stroke:#000000;" x="416.863729" xlink:href="#m36f1293fb9" y="224.017671"/>
     <use style="stroke:#000000;" x="438.176216" xlink:href="#m36f1293fb9" y="186.821634"/>
     <use style="stroke:#000000;" x="452.38454" xlink:href="#m36f1293fb9" y="242.615689"/>
     <use style="stroke:#000000;" x="459.488702" xlink:href="#m36f1293fb9" y="205.419652"/>
     <use style="stroke:#000000;" x="473.697026" xlink:href="#m36f1293fb9" y="261.213708"/>
     <use style="stroke:#000000;" x="495.009513" xlink:href="#m36f1293fb9" y="242.615689"/>
     <use style="stroke:#000000;" x="502.113675" xlink:href="#m36f1293fb9" y="75.233524"/>
     <use style="stroke:#000000;" x="516.321999" xlink:href="#m36f1293fb9" y="168.223616"/>
     <use style="stroke:#000000;" x="523.426161" xlink:href="#m36f1293fb9" y="112.42956"/>
     <use style="stroke:#000000;" x="537.634485" xlink:href="#m36f1293fb9" y="149.625597"/>
     <use style="stroke:#000000;" x="544.738647" xlink:href="#m36f1293fb9" y="75.233524"/>
     <use style="stroke:#000000;" x="558.946972" xlink:href="#m36f1293fb9" y="93.831542"/>
     <use style="stroke:#000000;" x="566.051134" xlink:href="#m36f1293fb9" y="261.213708"/>
     <use style="stroke:#000000;" x="580.259458" xlink:href="#m36f1293fb9" y="149.625597"/>
     <use style="stroke:#000000;" x="587.36362" xlink:href="#m36f1293fb9" y="224.017671"/>
     <use style="stroke:#000000;" x="601.571944" xlink:href="#m36f1293fb9" y="56.635505"/>
     <use style="stroke:#000000;" x="608.676106" xlink:href="#m36f1293fb9" y="205.419652"/>
     <use style="stroke:#000000;" x="622.88443" xlink:href="#m36f1293fb9" y="56.635505"/>
     <use style="stroke:#000000;" x="629.988593" xlink:href="#m36f1293fb9" y="186.821634"/>
     <use style="stroke:#000000;" x="644.196917" xlink:href="#m36f1293fb9" y="317.007763"/>
     <use style="stroke:#000000;" x="651.301079" xlink:href="#m36f1293fb9" y="317.007763"/>
     <use style="stroke:#000000;" x="665.509403" xlink:href="#m36f1293fb9" y="149.625597"/>
     <use style="stroke:#000000;" x="672.613565" xlink:href="#m36f1293fb9" y="186.821634"/>
    </g>
   </g>
   <g id="line2d_30">
    <path clip-path="url(#p7c7ef08ad3)" d="M 90.072273 175.79155 
L 97.176435 146.184606 
L 111.384759 178.529729 
L 118.488921 178.003052 
L 132.697245 142.176731 
L 139.801407 192.29462 
L 154.009732 116.207635 
L 161.113894 195.0328 
L 175.322218 166.416319 
L 182.42638 158.676138 
L 196.634704 179.179758 
L 217.947191 210.987215 
L 225.051353 182.892764 
L 239.259677 225.264835 
L 246.363839 195.643466 
L 260.572163 227.959739 
L 267.676325 227.411631 
L 281.88465 191.490247 
L 288.988812 241.560604 
L 303.197136 165.351347 
L 310.301298 244.115376 
L 324.509622 215.345557 
L 331.613784 204.311061 
L 345.822108 218.22605 
L 352.926271 168.40483 
L 367.134595 240.02096 
L 374.238757 208.570423 
L 388.447081 244.196267 
L 395.551243 211.21156 
L 409.759567 236.773119 
L 416.863729 232.854659 
L 438.176216 236.970881 
L 452.38454 154.100331 
L 459.488702 229.533714 
L 473.697026 194.133669 
L 495.009513 196.73275 
L 502.113675 146.860926 
L 516.321999 218.403756 
L 523.426161 186.936126 
L 537.634485 222.602721 
L 544.738647 189.666782 
L 558.946972 215.353915 
L 566.051134 211.521537 
L 580.259458 169.083814 
L 587.36362 215.896002 
L 601.571944 133.197615 
L 608.676106 208.717078 
L 622.88443 173.489196 
L 629.988593 162.446977 
L 644.196917 176.34652 
L 651.301079 126.560778 
L 665.509403 198.247863 
L 672.613565 166.852359 
L 679.717727 155.81014 
" style="fill:none;stroke:#0072b2;stroke-linecap:square;stroke-width:1.5;"/>
   </g>
   <g id="patch_3">
    <path d="M 60.59 390.04 
L 60.59 10.8 
" style="fill:none;stroke:#000000;stroke-linecap:square;stroke-linejoin:miter;stroke-width:0.8;"/>
   </g>
   <g id="patch_4">
    <path d="M 709.2 390.04 
L 709.2 10.8 
" style="fill:none;stroke:#000000;stroke-linecap:square;stroke-linejoin:miter;stroke-width:0.8;"/>
   </g>
   <g id="patch_5">
    <path d="M 60.59 390.04 
L 709.2 390.04 
" style="fill:none;stroke:#000000;stroke-linecap:square;stroke-linejoin:miter;stroke-width:0.8;"/>
   </g>
   <g id="patch_6">
    <path d="M 60.59 10.8 
L 709.2 10.8 
" style="fill:none;stroke:#000000;stroke-linecap:square;stroke-linejoin:miter;stroke-width:0.8;"/>
   </g>
  </g>
 </g>
 <defs>
  <clipPath id="p7c7ef08ad3">
   <rect height="379.24" width="648.61" x="60.59" y="10.8"/>
  </clipPath>
 </defs>
</svg>
