<?xml version="1.0" encoding="utf-8" standalone="no"?>
<!DOCTYPE svg PUBLIC "-//W3C//DTD SVG 1.1//EN"
  "http://www.w3.org/Graphics/SVG/1.1/DTD/svg11.dtd">
<!-- Created with matplotlib (https://matplotlib.org/) -->
<svg height="432pt" version="1.1" viewBox="0 0 720 432" width="720pt" xmlns="http://www.w3.org/2000/svg" xmlns:xlink="http://www.w3.org/1999/xlink">
 <defs>
  <style type="text/css">
*{stroke-linecap:butt;stroke-linejoin:round;}
  </style>
 </defs>
 <g id="figure_1">
  <g id="patch_1">
   <path d="M 0 432 
L 720 432 
L 720 0 
L 0 0 
z
" style="fill:#ffffff;"/>
  </g>
  <g id="axes_1">
   <g id="patch_2">
    <path d="M 51.05 390.04 
L 687.158478 390.04 
L 687.158478 10.8 
L 51.05 10.8 
z
" style="fill:#ffffff;"/>
   </g>
   <g id="PolyCollection_1">
    <defs>
     <path d="M 79.964022 -282.263218 
L 79.964022 -139.222022 
L 86.931256 -88.284171 
L 107.832958 -121.564808 
L 121.767427 -105.682087 
L 128.734661 -142.701947 
L 142.669129 -87.94539 
L 163.570831 -124.086931 
L 170.538066 -105.391828 
L 184.472534 -92.715334 
L 191.439768 -89.90589 
L 205.374236 -120.227253 
L 212.34147 -121.988511 
L 226.275939 -144.055698 
L 233.243173 -95.163751 
L 247.177641 -120.103299 
L 254.144875 -128.354929 
L 268.079344 -105.572183 
L 275.046578 -143.097297 
L 288.981046 -99.114368 
L 295.94828 -123.094128 
L 309.882749 -127.083677 
L 316.849983 -108.316329 
L 330.784451 -91.727397 
L 337.751685 -97.249123 
L 351.686153 -126.270065 
L 358.653388 -132.482989 
L 372.587856 -150.085615 
L 393.489558 -121.937965 
L 400.456792 -130.57922 
L 414.391261 -111.168778 
L 421.358495 -143.023555 
L 435.292963 -100.947393 
L 442.260197 -128.439443 
L 456.194666 -128.502389 
L 463.1619 -111.158342 
L 477.096368 -93.602148 
L 484.063602 -97.195666 
L 497.99807 -126.797057 
L 504.965305 -130.028863 
L 525.867007 -95.611555 
L 539.801475 -129.724158 
L 546.76871 -128.851524 
L 560.703178 -112.051918 
L 581.60488 -97.46977 
L 588.572114 -130.66759 
L 602.506583 -129.177759 
L 609.473817 -112.352184 
L 623.408285 -96.291869 
L 630.375519 -100.374744 
L 644.309988 -127.205631 
L 651.277222 -131.568515 
L 658.244456 -115.307455 
L 658.244456 -249.918142 
L 658.244456 -249.918142 
L 651.277222 -275.649122 
L 644.309988 -274.513538 
L 630.375519 -242.445066 
L 623.408285 -236.733072 
L 609.473817 -253.558057 
L 602.506583 -271.493164 
L 588.572114 -270.260399 
L 581.60488 -244.393015 
L 560.703178 -255.019778 
L 546.76871 -267.869029 
L 539.801475 -268.533254 
L 525.867007 -237.087938 
L 504.965305 -273.417005 
L 497.99807 -273.719186 
L 484.063602 -243.847072 
L 477.096368 -234.788229 
L 463.1619 -249.274935 
L 456.194666 -269.562464 
L 442.260197 -271.538817 
L 435.292963 -237.722641 
L 421.358495 -283.560758 
L 414.391261 -251.954415 
L 400.456792 -268.891238 
L 393.489558 -269.33145 
L 372.587856 -282.913197 
L 358.653388 -269.773585 
L 351.686153 -264.231865 
L 337.751685 -235.721313 
L 330.784451 -233.627044 
L 316.849983 -251.055434 
L 309.882749 -266.477955 
L 295.94828 -263.631093 
L 288.981046 -237.456462 
L 275.046578 -289.541349 
L 268.079344 -252.29293 
L 254.144875 -263.505244 
L 247.177641 -264.691922 
L 233.243173 -240.334531 
L 226.275939 -281.552509 
L 212.34147 -269.022577 
L 205.374236 -266.554668 
L 191.439768 -235.496142 
L 184.472534 -226.788044 
L 170.538066 -249.476678 
L 163.570831 -262.530496 
L 142.669129 -226.804359 
L 128.734661 -280.773583 
L 121.767427 -247.476216 
L 107.832958 -265.936054 
L 86.931256 -233.631759 
L 79.964022 -282.263218 
z
" id="m4e2df9d592" style="stroke:#0072b2;stroke-opacity:0.2;"/>
    </defs>
    <g clip-path="url(#pb4d83a5319)">
     <use style="fill:#0072b2;fill-opacity:0.2;stroke:#0072b2;stroke-opacity:0.2;" x="0" xlink:href="#m4e2df9d592" y="432"/>
    </g>
   </g>
   <g id="matplotlib.axis_1">
    <g id="xtick_1">
     <g id="line2d_1">
      <path clip-path="url(#pb4d83a5319)" d="M 93.89849 390.04 
L 93.89849 10.8 
" style="fill:none;stroke:#808080;stroke-linecap:square;stroke-opacity:0.2;"/>
     </g>
     <g id="line2d_2">
      <defs>
       <path d="M 0 0 
L 0 3.5 
" id="m52ac9a7703" style="stroke:#000000;stroke-width:0.8;"/>
      </defs>
      <g>
       <use style="stroke:#000000;stroke-width:0.8;" x="93.89849" xlink:href="#m52ac9a7703" y="390.04"/>
      </g>
     </g>
     <g id="text_1">
      <!-- 2019-05-19 -->
      <defs>
       <path d="M 19.1875 8.296875 
L 53.609375 8.296875 
L 53.609375 0 
L 7.328125 0 
L 7.328125 8.296875 
Q 12.9375 14.109375 22.625 23.890625 
Q 32.328125 33.6875 34.8125 36.53125 
Q 39.546875 41.84375 41.421875 45.53125 
Q 43.3125 49.21875 43.3125 52.78125 
Q 43.3125 58.59375 39.234375 62.25 
Q 35.15625 65.921875 28.609375 65.921875 
Q 23.96875 65.921875 18.8125 64.3125 
Q 13.671875 62.703125 7.8125 59.421875 
L 7.8125 69.390625 
Q 13.765625 71.78125 18.9375 73 
Q 24.125 74.21875 28.421875 74.21875 
Q 39.75 74.21875 46.484375 68.546875 
Q 53.21875 62.890625 53.21875 53.421875 
Q 53.21875 48.921875 51.53125 44.890625 
Q 49.859375 40.875 45.40625 35.40625 
Q 44.1875 33.984375 37.640625 27.21875 
Q 31.109375 20.453125 19.1875 8.296875 
z
" id="DejaVuSans-50"/>
       <path d="M 31.78125 66.40625 
Q 24.171875 66.40625 20.328125 58.90625 
Q 16.5 51.421875 16.5 36.375 
Q 16.5 21.390625 20.328125 13.890625 
Q 24.171875 6.390625 31.78125 6.390625 
Q 39.453125 6.390625 43.28125 13.890625 
Q 47.125 21.390625 47.125 36.375 
Q 47.125 51.421875 43.28125 58.90625 
Q 39.453125 66.40625 31.78125 66.40625 
z
M 31.78125 74.21875 
Q 44.046875 74.21875 50.515625 64.515625 
Q 56.984375 54.828125 56.984375 36.375 
Q 56.984375 17.96875 50.515625 8.265625 
Q 44.046875 -1.421875 31.78125 -1.421875 
Q 19.53125 -1.421875 13.0625 8.265625 
Q 6.59375 17.96875 6.59375 36.375 
Q 6.59375 54.828125 13.0625 64.515625 
Q 19.53125 74.21875 31.78125 74.21875 
z
" id="DejaVuSans-48"/>
       <path d="M 12.40625 8.296875 
L 28.515625 8.296875 
L 28.515625 63.921875 
L 10.984375 60.40625 
L 10.984375 69.390625 
L 28.421875 72.90625 
L 38.28125 72.90625 
L 38.28125 8.296875 
L 54.390625 8.296875 
L 54.390625 0 
L 12.40625 0 
z
" id="DejaVuSans-49"/>
       <path d="M 10.984375 1.515625 
L 10.984375 10.5 
Q 14.703125 8.734375 18.5 7.8125 
Q 22.3125 6.890625 25.984375 6.890625 
Q 35.75 6.890625 40.890625 13.453125 
Q 46.046875 20.015625 46.78125 33.40625 
Q 43.953125 29.203125 39.59375 26.953125 
Q 35.25 24.703125 29.984375 24.703125 
Q 19.046875 24.703125 12.671875 31.3125 
Q 6.296875 37.9375 6.296875 49.421875 
Q 6.296875 60.640625 12.9375 67.421875 
Q 19.578125 74.21875 30.609375 74.21875 
Q 43.265625 74.21875 49.921875 64.515625 
Q 56.59375 54.828125 56.59375 36.375 
Q 56.59375 19.140625 48.40625 8.859375 
Q 40.234375 -1.421875 26.421875 -1.421875 
Q 22.703125 -1.421875 18.890625 -0.6875 
Q 15.09375 0.046875 10.984375 1.515625 
z
M 30.609375 32.421875 
Q 37.25 32.421875 41.125 36.953125 
Q 45.015625 41.5 45.015625 49.421875 
Q 45.015625 57.28125 41.125 61.84375 
Q 37.25 66.40625 30.609375 66.40625 
Q 23.96875 66.40625 20.09375 61.84375 
Q 16.21875 57.28125 16.21875 49.421875 
Q 16.21875 41.5 20.09375 36.953125 
Q 23.96875 32.421875 30.609375 32.421875 
z
" id="DejaVuSans-57"/>
       <path d="M 4.890625 31.390625 
L 31.203125 31.390625 
L 31.203125 23.390625 
L 4.890625 23.390625 
z
" id="DejaVuSans-45"/>
       <path d="M 10.796875 72.90625 
L 49.515625 72.90625 
L 49.515625 64.59375 
L 19.828125 64.59375 
L 19.828125 46.734375 
Q 21.96875 47.46875 24.109375 47.828125 
Q 26.265625 48.1875 28.421875 48.1875 
Q 40.625 48.1875 47.75 41.5 
Q 54.890625 34.8125 54.890625 23.390625 
Q 54.890625 11.625 47.5625 5.09375 
Q 40.234375 -1.421875 26.90625 -1.421875 
Q 22.3125 -1.421875 17.546875 -0.640625 
Q 12.796875 0.140625 7.71875 1.703125 
L 7.71875 11.625 
Q 12.109375 9.234375 16.796875 8.0625 
Q 21.484375 6.890625 26.703125 6.890625 
Q 35.15625 6.890625 40.078125 11.328125 
Q 45.015625 15.765625 45.015625 23.390625 
Q 45.015625 31 40.078125 35.4375 
Q 35.15625 39.890625 26.703125 39.890625 
Q 22.75 39.890625 18.8125 39.015625 
Q 14.890625 38.140625 10.796875 36.28125 
z
" id="DejaVuSans-53"/>
      </defs>
      <g transform="translate(64.840677 404.638438)scale(0.1 -0.1)">
       <use xlink:href="#DejaVuSans-50"/>
       <use x="63.623047" xlink:href="#DejaVuSans-48"/>
       <use x="127.246094" xlink:href="#DejaVuSans-49"/>
       <use x="190.869141" xlink:href="#DejaVuSans-57"/>
       <use x="254.492188" xlink:href="#DejaVuSans-45"/>
       <use x="290.576172" xlink:href="#DejaVuSans-48"/>
       <use x="354.199219" xlink:href="#DejaVuSans-53"/>
       <use x="417.822266" xlink:href="#DejaVuSans-45"/>
       <use x="453.90625" xlink:href="#DejaVuSans-49"/>
       <use x="517.529297" xlink:href="#DejaVuSans-57"/>
      </g>
     </g>
    </g>
    <g id="xtick_2">
     <g id="line2d_3">
      <path clip-path="url(#pb4d83a5319)" d="M 191.439768 390.04 
L 191.439768 10.8 
" style="fill:none;stroke:#808080;stroke-linecap:square;stroke-opacity:0.2;"/>
     </g>
     <g id="line2d_4">
      <g>
       <use style="stroke:#000000;stroke-width:0.8;" x="191.439768" xlink:href="#m52ac9a7703" y="390.04"/>
      </g>
     </g>
     <g id="text_2">
      <!-- 2019-06-02 -->
      <defs>
       <path d="M 33.015625 40.375 
Q 26.375 40.375 22.484375 35.828125 
Q 18.609375 31.296875 18.609375 23.390625 
Q 18.609375 15.53125 22.484375 10.953125 
Q 26.375 6.390625 33.015625 6.390625 
Q 39.65625 6.390625 43.53125 10.953125 
Q 47.40625 15.53125 47.40625 23.390625 
Q 47.40625 31.296875 43.53125 35.828125 
Q 39.65625 40.375 33.015625 40.375 
z
M 52.59375 71.296875 
L 52.59375 62.3125 
Q 48.875 64.0625 45.09375 64.984375 
Q 41.3125 65.921875 37.59375 65.921875 
Q 27.828125 65.921875 22.671875 59.328125 
Q 17.53125 52.734375 16.796875 39.40625 
Q 19.671875 43.65625 24.015625 45.921875 
Q 28.375 48.1875 33.59375 48.1875 
Q 44.578125 48.1875 50.953125 41.515625 
Q 57.328125 34.859375 57.328125 23.390625 
Q 57.328125 12.15625 50.6875 5.359375 
Q 44.046875 -1.421875 33.015625 -1.421875 
Q 20.359375 -1.421875 13.671875 8.265625 
Q 6.984375 17.96875 6.984375 36.375 
Q 6.984375 53.65625 15.1875 63.9375 
Q 23.390625 74.21875 37.203125 74.21875 
Q 40.921875 74.21875 44.703125 73.484375 
Q 48.484375 72.75 52.59375 71.296875 
z
" id="DejaVuSans-54"/>
      </defs>
      <g transform="translate(162.381956 404.638438)scale(0.1 -0.1)">
       <use xlink:href="#DejaVuSans-50"/>
       <use x="63.623047" xlink:href="#DejaVuSans-48"/>
       <use x="127.246094" xlink:href="#DejaVuSans-49"/>
       <use x="190.869141" xlink:href="#DejaVuSans-57"/>
       <use x="254.492188" xlink:href="#DejaVuSans-45"/>
       <use x="290.576172" xlink:href="#DejaVuSans-48"/>
       <use x="354.199219" xlink:href="#DejaVuSans-54"/>
       <use x="417.822266" xlink:href="#DejaVuSans-45"/>
       <use x="453.90625" xlink:href="#DejaVuSans-48"/>
       <use x="517.529297" xlink:href="#DejaVuSans-50"/>
      </g>
     </g>
    </g>
    <g id="xtick_3">
     <g id="line2d_5">
      <path clip-path="url(#pb4d83a5319)" d="M 288.981046 390.04 
L 288.981046 10.8 
" style="fill:none;stroke:#808080;stroke-linecap:square;stroke-opacity:0.2;"/>
     </g>
     <g id="line2d_6">
      <g>
       <use style="stroke:#000000;stroke-width:0.8;" x="288.981046" xlink:href="#m52ac9a7703" y="390.04"/>
      </g>
     </g>
     <g id="text_3">
      <!-- 2019-06-16 -->
      <g transform="translate(259.923234 404.638438)scale(0.1 -0.1)">
       <use xlink:href="#DejaVuSans-50"/>
       <use x="63.623047" xlink:href="#DejaVuSans-48"/>
       <use x="127.246094" xlink:href="#DejaVuSans-49"/>
       <use x="190.869141" xlink:href="#DejaVuSans-57"/>
       <use x="254.492188" xlink:href="#DejaVuSans-45"/>
       <use x="290.576172" xlink:href="#DejaVuSans-48"/>
       <use x="354.199219" xlink:href="#DejaVuSans-54"/>
       <use x="417.822266" xlink:href="#DejaVuSans-45"/>
       <use x="453.90625" xlink:href="#DejaVuSans-49"/>
       <use x="517.529297" xlink:href="#DejaVuSans-54"/>
      </g>
     </g>
    </g>
    <g id="xtick_4">
     <g id="line2d_7">
      <path clip-path="url(#pb4d83a5319)" d="M 386.522324 390.04 
L 386.522324 10.8 
" style="fill:none;stroke:#808080;stroke-linecap:square;stroke-opacity:0.2;"/>
     </g>
     <g id="line2d_8">
      <g>
       <use style="stroke:#000000;stroke-width:0.8;" x="386.522324" xlink:href="#m52ac9a7703" y="390.04"/>
      </g>
     </g>
     <g id="text_4">
      <!-- 2019-06-30 -->
      <defs>
       <path d="M 40.578125 39.3125 
Q 47.65625 37.796875 51.625 33 
Q 55.609375 28.21875 55.609375 21.1875 
Q 55.609375 10.40625 48.1875 4.484375 
Q 40.765625 -1.421875 27.09375 -1.421875 
Q 22.515625 -1.421875 17.65625 -0.515625 
Q 12.796875 0.390625 7.625 2.203125 
L 7.625 11.71875 
Q 11.71875 9.328125 16.59375 8.109375 
Q 21.484375 6.890625 26.8125 6.890625 
Q 36.078125 6.890625 40.9375 10.546875 
Q 45.796875 14.203125 45.796875 21.1875 
Q 45.796875 27.640625 41.28125 31.265625 
Q 36.765625 34.90625 28.71875 34.90625 
L 20.21875 34.90625 
L 20.21875 43.015625 
L 29.109375 43.015625 
Q 36.375 43.015625 40.234375 45.921875 
Q 44.09375 48.828125 44.09375 54.296875 
Q 44.09375 59.90625 40.109375 62.90625 
Q 36.140625 65.921875 28.71875 65.921875 
Q 24.65625 65.921875 20.015625 65.03125 
Q 15.375 64.15625 9.8125 62.3125 
L 9.8125 71.09375 
Q 15.4375 72.65625 20.34375 73.4375 
Q 25.25 74.21875 29.59375 74.21875 
Q 40.828125 74.21875 47.359375 69.109375 
Q 53.90625 64.015625 53.90625 55.328125 
Q 53.90625 49.265625 50.4375 45.09375 
Q 46.96875 40.921875 40.578125 39.3125 
z
" id="DejaVuSans-51"/>
      </defs>
      <g transform="translate(357.464512 404.638438)scale(0.1 -0.1)">
       <use xlink:href="#DejaVuSans-50"/>
       <use x="63.623047" xlink:href="#DejaVuSans-48"/>
       <use x="127.246094" xlink:href="#DejaVuSans-49"/>
       <use x="190.869141" xlink:href="#DejaVuSans-57"/>
       <use x="254.492188" xlink:href="#DejaVuSans-45"/>
       <use x="290.576172" xlink:href="#DejaVuSans-48"/>
       <use x="354.199219" xlink:href="#DejaVuSans-54"/>
       <use x="417.822266" xlink:href="#DejaVuSans-45"/>
       <use x="453.90625" xlink:href="#DejaVuSans-51"/>
       <use x="517.529297" xlink:href="#DejaVuSans-48"/>
      </g>
     </g>
    </g>
    <g id="xtick_5">
     <g id="line2d_9">
      <path clip-path="url(#pb4d83a5319)" d="M 484.063602 390.04 
L 484.063602 10.8 
" style="fill:none;stroke:#808080;stroke-linecap:square;stroke-opacity:0.2;"/>
     </g>
     <g id="line2d_10">
      <g>
       <use style="stroke:#000000;stroke-width:0.8;" x="484.063602" xlink:href="#m52ac9a7703" y="390.04"/>
      </g>
     </g>
     <g id="text_5">
      <!-- 2019-07-14 -->
      <defs>
       <path d="M 8.203125 72.90625 
L 55.078125 72.90625 
L 55.078125 68.703125 
L 28.609375 0 
L 18.3125 0 
L 43.21875 64.59375 
L 8.203125 64.59375 
z
" id="DejaVuSans-55"/>
       <path d="M 37.796875 64.3125 
L 12.890625 25.390625 
L 37.796875 25.390625 
z
M 35.203125 72.90625 
L 47.609375 72.90625 
L 47.609375 25.390625 
L 58.015625 25.390625 
L 58.015625 17.1875 
L 47.609375 17.1875 
L 47.609375 0 
L 37.796875 0 
L 37.796875 17.1875 
L 4.890625 17.1875 
L 4.890625 26.703125 
z
" id="DejaVuSans-52"/>
      </defs>
      <g transform="translate(455.00579 404.638438)scale(0.1 -0.1)">
       <use xlink:href="#DejaVuSans-50"/>
       <use x="63.623047" xlink:href="#DejaVuSans-48"/>
       <use x="127.246094" xlink:href="#DejaVuSans-49"/>
       <use x="190.869141" xlink:href="#DejaVuSans-57"/>
       <use x="254.492188" xlink:href="#DejaVuSans-45"/>
       <use x="290.576172" xlink:href="#DejaVuSans-48"/>
       <use x="354.199219" xlink:href="#DejaVuSans-55"/>
       <use x="417.822266" xlink:href="#DejaVuSans-45"/>
       <use x="453.90625" xlink:href="#DejaVuSans-49"/>
       <use x="517.529297" xlink:href="#DejaVuSans-52"/>
      </g>
     </g>
    </g>
    <g id="xtick_6">
     <g id="line2d_11">
      <path clip-path="url(#pb4d83a5319)" d="M 581.60488 390.04 
L 581.60488 10.8 
" style="fill:none;stroke:#808080;stroke-linecap:square;stroke-opacity:0.2;"/>
     </g>
     <g id="line2d_12">
      <g>
       <use style="stroke:#000000;stroke-width:0.8;" x="581.60488" xlink:href="#m52ac9a7703" y="390.04"/>
      </g>
     </g>
     <g id="text_6">
      <!-- 2019-07-28 -->
      <defs>
       <path d="M 31.78125 34.625 
Q 24.75 34.625 20.71875 30.859375 
Q 16.703125 27.09375 16.703125 20.515625 
Q 16.703125 13.921875 20.71875 10.15625 
Q 24.75 6.390625 31.78125 6.390625 
Q 38.8125 6.390625 42.859375 10.171875 
Q 46.921875 13.96875 46.921875 20.515625 
Q 46.921875 27.09375 42.890625 30.859375 
Q 38.875 34.625 31.78125 34.625 
z
M 21.921875 38.8125 
Q 15.578125 40.375 12.03125 44.71875 
Q 8.5 49.078125 8.5 55.328125 
Q 8.5 64.0625 14.71875 69.140625 
Q 20.953125 74.21875 31.78125 74.21875 
Q 42.671875 74.21875 48.875 69.140625 
Q 55.078125 64.0625 55.078125 55.328125 
Q 55.078125 49.078125 51.53125 44.71875 
Q 48 40.375 41.703125 38.8125 
Q 48.828125 37.15625 52.796875 32.3125 
Q 56.78125 27.484375 56.78125 20.515625 
Q 56.78125 9.90625 50.3125 4.234375 
Q 43.84375 -1.421875 31.78125 -1.421875 
Q 19.734375 -1.421875 13.25 4.234375 
Q 6.78125 9.90625 6.78125 20.515625 
Q 6.78125 27.484375 10.78125 32.3125 
Q 14.796875 37.15625 21.921875 38.8125 
z
M 18.3125 54.390625 
Q 18.3125 48.734375 21.84375 45.5625 
Q 25.390625 42.390625 31.78125 42.390625 
Q 38.140625 42.390625 41.71875 45.5625 
Q 45.3125 48.734375 45.3125 54.390625 
Q 45.3125 60.0625 41.71875 63.234375 
Q 38.140625 66.40625 31.78125 66.40625 
Q 25.390625 66.40625 21.84375 63.234375 
Q 18.3125 60.0625 18.3125 54.390625 
z
" id="DejaVuSans-56"/>
      </defs>
      <g transform="translate(552.547068 404.638438)scale(0.1 -0.1)">
       <use xlink:href="#DejaVuSans-50"/>
       <use x="63.623047" xlink:href="#DejaVuSans-48"/>
       <use x="127.246094" xlink:href="#DejaVuSans-49"/>
       <use x="190.869141" xlink:href="#DejaVuSans-57"/>
       <use x="254.492188" xlink:href="#DejaVuSans-45"/>
       <use x="290.576172" xlink:href="#DejaVuSans-48"/>
       <use x="354.199219" xlink:href="#DejaVuSans-55"/>
       <use x="417.822266" xlink:href="#DejaVuSans-45"/>
       <use x="453.90625" xlink:href="#DejaVuSans-50"/>
       <use x="517.529297" xlink:href="#DejaVuSans-56"/>
      </g>
     </g>
    </g>
    <g id="xtick_7">
     <g id="line2d_13">
      <path clip-path="url(#pb4d83a5319)" d="M 679.146158 390.04 
L 679.146158 10.8 
" style="fill:none;stroke:#808080;stroke-linecap:square;stroke-opacity:0.2;"/>
     </g>
     <g id="line2d_14">
      <g>
       <use style="stroke:#000000;stroke-width:0.8;" x="679.146158" xlink:href="#m52ac9a7703" y="390.04"/>
      </g>
     </g>
     <g id="text_7">
      <!-- 2019-08-11 -->
      <g transform="translate(650.088346 404.638438)scale(0.1 -0.1)">
       <use xlink:href="#DejaVuSans-50"/>
       <use x="63.623047" xlink:href="#DejaVuSans-48"/>
       <use x="127.246094" xlink:href="#DejaVuSans-49"/>
       <use x="190.869141" xlink:href="#DejaVuSans-57"/>
       <use x="254.492188" xlink:href="#DejaVuSans-45"/>
       <use x="290.576172" xlink:href="#DejaVuSans-48"/>
       <use x="354.199219" xlink:href="#DejaVuSans-56"/>
       <use x="417.822266" xlink:href="#DejaVuSans-45"/>
       <use x="453.90625" xlink:href="#DejaVuSans-49"/>
       <use x="517.529297" xlink:href="#DejaVuSans-49"/>
      </g>
     </g>
    </g>
    <g id="text_8">
     <!-- ds -->
     <defs>
      <path d="M 45.40625 46.390625 
L 45.40625 75.984375 
L 54.390625 75.984375 
L 54.390625 0 
L 45.40625 0 
L 45.40625 8.203125 
Q 42.578125 3.328125 38.25 0.953125 
Q 33.9375 -1.421875 27.875 -1.421875 
Q 17.96875 -1.421875 11.734375 6.484375 
Q 5.515625 14.40625 5.515625 27.296875 
Q 5.515625 40.1875 11.734375 48.09375 
Q 17.96875 56 27.875 56 
Q 33.9375 56 38.25 53.625 
Q 42.578125 51.265625 45.40625 46.390625 
z
M 14.796875 27.296875 
Q 14.796875 17.390625 18.875 11.75 
Q 22.953125 6.109375 30.078125 6.109375 
Q 37.203125 6.109375 41.296875 11.75 
Q 45.40625 17.390625 45.40625 27.296875 
Q 45.40625 37.203125 41.296875 42.84375 
Q 37.203125 48.484375 30.078125 48.484375 
Q 22.953125 48.484375 18.875 42.84375 
Q 14.796875 37.203125 14.796875 27.296875 
z
" id="DejaVuSans-100"/>
      <path d="M 44.28125 53.078125 
L 44.28125 44.578125 
Q 40.484375 46.53125 36.375 47.5 
Q 32.28125 48.484375 27.875 48.484375 
Q 21.1875 48.484375 17.84375 46.4375 
Q 14.5 44.390625 14.5 40.28125 
Q 14.5 37.15625 16.890625 35.375 
Q 19.28125 33.59375 26.515625 31.984375 
L 29.59375 31.296875 
Q 39.15625 29.25 43.1875 25.515625 
Q 47.21875 21.78125 47.21875 15.09375 
Q 47.21875 7.46875 41.1875 3.015625 
Q 35.15625 -1.421875 24.609375 -1.421875 
Q 20.21875 -1.421875 15.453125 -0.5625 
Q 10.6875 0.296875 5.421875 2 
L 5.421875 11.28125 
Q 10.40625 8.6875 15.234375 7.390625 
Q 20.0625 6.109375 24.8125 6.109375 
Q 31.15625 6.109375 34.5625 8.28125 
Q 37.984375 10.453125 37.984375 14.40625 
Q 37.984375 18.0625 35.515625 20.015625 
Q 33.0625 21.96875 24.703125 23.78125 
L 21.578125 24.515625 
Q 13.234375 26.265625 9.515625 29.90625 
Q 5.8125 33.546875 5.8125 39.890625 
Q 5.8125 47.609375 11.28125 51.796875 
Q 16.75 56 26.8125 56 
Q 31.78125 56 36.171875 55.265625 
Q 40.578125 54.546875 44.28125 53.078125 
z
" id="DejaVuSans-115"/>
     </defs>
     <g transform="translate(363.325333 418.316562)scale(0.1 -0.1)">
      <use xlink:href="#DejaVuSans-100"/>
      <use x="63.476562" xlink:href="#DejaVuSans-115"/>
     </g>
    </g>
   </g>
   <g id="matplotlib.axis_2">
    <g id="ytick_1">
     <g id="line2d_15">
      <path clip-path="url(#pb4d83a5319)" d="M 51.05 362.027955 
L 687.158478 362.027955 
" style="fill:none;stroke:#808080;stroke-linecap:square;stroke-opacity:0.2;"/>
     </g>
     <g id="line2d_16">
      <defs>
       <path d="M 0 0 
L -3.5 0 
" id="ma0518f72cf" style="stroke:#000000;stroke-width:0.8;"/>
      </defs>
      <g>
       <use style="stroke:#000000;stroke-width:0.8;" x="51.05" xlink:href="#ma0518f72cf" y="362.027955"/>
      </g>
     </g>
     <g id="text_9">
      <!-- 140 -->
      <g transform="translate(24.9625 365.827173)scale(0.1 -0.1)">
       <use xlink:href="#DejaVuSans-49"/>
       <use x="63.623047" xlink:href="#DejaVuSans-52"/>
       <use x="127.246094" xlink:href="#DejaVuSans-48"/>
      </g>
     </g>
    </g>
    <g id="ytick_2">
     <g id="line2d_17">
      <path clip-path="url(#pb4d83a5319)" d="M 51.05 308.158636 
L 687.158478 308.158636 
" style="fill:none;stroke:#808080;stroke-linecap:square;stroke-opacity:0.2;"/>
     </g>
     <g id="line2d_18">
      <g>
       <use style="stroke:#000000;stroke-width:0.8;" x="51.05" xlink:href="#ma0518f72cf" y="308.158636"/>
      </g>
     </g>
     <g id="text_10">
      <!-- 145 -->
      <g transform="translate(24.9625 311.957855)scale(0.1 -0.1)">
       <use xlink:href="#DejaVuSans-49"/>
       <use x="63.623047" xlink:href="#DejaVuSans-52"/>
       <use x="127.246094" xlink:href="#DejaVuSans-53"/>
      </g>
     </g>
    </g>
    <g id="ytick_3">
     <g id="line2d_19">
      <path clip-path="url(#pb4d83a5319)" d="M 51.05 254.289318 
L 687.158478 254.289318 
" style="fill:none;stroke:#808080;stroke-linecap:square;stroke-opacity:0.2;"/>
     </g>
     <g id="line2d_20">
      <g>
       <use style="stroke:#000000;stroke-width:0.8;" x="51.05" xlink:href="#ma0518f72cf" y="254.289318"/>
      </g>
     </g>
     <g id="text_11">
      <!-- 150 -->
      <g transform="translate(24.9625 258.088537)scale(0.1 -0.1)">
       <use xlink:href="#DejaVuSans-49"/>
       <use x="63.623047" xlink:href="#DejaVuSans-53"/>
       <use x="127.246094" xlink:href="#DejaVuSans-48"/>
      </g>
     </g>
    </g>
    <g id="ytick_4">
     <g id="line2d_21">
      <path clip-path="url(#pb4d83a5319)" d="M 51.05 200.42 
L 687.158478 200.42 
" style="fill:none;stroke:#808080;stroke-linecap:square;stroke-opacity:0.2;"/>
     </g>
     <g id="line2d_22">
      <g>
       <use style="stroke:#000000;stroke-width:0.8;" x="51.05" xlink:href="#ma0518f72cf" y="200.42"/>
      </g>
     </g>
     <g id="text_12">
      <!-- 155 -->
      <g transform="translate(24.9625 204.219219)scale(0.1 -0.1)">
       <use xlink:href="#DejaVuSans-49"/>
       <use x="63.623047" xlink:href="#DejaVuSans-53"/>
       <use x="127.246094" xlink:href="#DejaVuSans-53"/>
      </g>
     </g>
    </g>
    <g id="ytick_5">
     <g id="line2d_23">
      <path clip-path="url(#pb4d83a5319)" d="M 51.05 146.550682 
L 687.158478 146.550682 
" style="fill:none;stroke:#808080;stroke-linecap:square;stroke-opacity:0.2;"/>
     </g>
     <g id="line2d_24">
      <g>
       <use style="stroke:#000000;stroke-width:0.8;" x="51.05" xlink:href="#ma0518f72cf" y="146.550682"/>
      </g>
     </g>
     <g id="text_13">
      <!-- 160 -->
      <g transform="translate(24.9625 150.349901)scale(0.1 -0.1)">
       <use xlink:href="#DejaVuSans-49"/>
       <use x="63.623047" xlink:href="#DejaVuSans-54"/>
       <use x="127.246094" xlink:href="#DejaVuSans-48"/>
      </g>
     </g>
    </g>
    <g id="ytick_6">
     <g id="line2d_25">
      <path clip-path="url(#pb4d83a5319)" d="M 51.05 92.681364 
L 687.158478 92.681364 
" style="fill:none;stroke:#808080;stroke-linecap:square;stroke-opacity:0.2;"/>
     </g>
     <g id="line2d_26">
      <g>
       <use style="stroke:#000000;stroke-width:0.8;" x="51.05" xlink:href="#ma0518f72cf" y="92.681364"/>
      </g>
     </g>
     <g id="text_14">
      <!-- 165 -->
      <g transform="translate(24.9625 96.480582)scale(0.1 -0.1)">
       <use xlink:href="#DejaVuSans-49"/>
       <use x="63.623047" xlink:href="#DejaVuSans-54"/>
       <use x="127.246094" xlink:href="#DejaVuSans-53"/>
      </g>
     </g>
    </g>
    <g id="ytick_7">
     <g id="line2d_27">
      <path clip-path="url(#pb4d83a5319)" d="M 51.05 38.812045 
L 687.158478 38.812045 
" style="fill:none;stroke:#808080;stroke-linecap:square;stroke-opacity:0.2;"/>
     </g>
     <g id="line2d_28">
      <g>
       <use style="stroke:#000000;stroke-width:0.8;" x="51.05" xlink:href="#ma0518f72cf" y="38.812045"/>
      </g>
     </g>
     <g id="text_15">
      <!-- 170 -->
      <g transform="translate(24.9625 42.611264)scale(0.1 -0.1)">
       <use xlink:href="#DejaVuSans-49"/>
       <use x="63.623047" xlink:href="#DejaVuSans-55"/>
       <use x="127.246094" xlink:href="#DejaVuSans-48"/>
      </g>
     </g>
    </g>
    <g id="text_16">
     <!-- y -->
     <defs>
      <path d="M 32.171875 -5.078125 
Q 28.375 -14.84375 24.75 -17.8125 
Q 21.140625 -20.796875 15.09375 -20.796875 
L 7.90625 -20.796875 
L 7.90625 -13.28125 
L 13.1875 -13.28125 
Q 16.890625 -13.28125 18.9375 -11.515625 
Q 21 -9.765625 23.484375 -3.21875 
L 25.09375 0.875 
L 2.984375 54.6875 
L 12.5 54.6875 
L 29.59375 11.921875 
L 46.6875 54.6875 
L 56.203125 54.6875 
z
" id="DejaVuSans-121"/>
     </defs>
     <g transform="translate(18.882812 203.379375)rotate(-90)scale(0.1 -0.1)">
      <use xlink:href="#DejaVuSans-121"/>
     </g>
    </g>
   </g>
   <g id="line2d_29">
    <defs>
     <path d="M 0 1.5 
C 0.397805 1.5 0.77937 1.341951 1.06066 1.06066 
C 1.341951 0.77937 1.5 0.397805 1.5 0 
C 1.5 -0.397805 1.341951 -0.77937 1.06066 -1.06066 
C 0.77937 -1.341951 0.397805 -1.5 0 -1.5 
C -0.397805 -1.5 -0.77937 -1.341951 -1.06066 -1.06066 
C -1.341951 -0.77937 -1.5 -0.397805 -1.5 0 
C -1.5 0.397805 -1.341951 0.77937 -1.06066 1.06066 
C -0.77937 1.341951 -0.397805 1.5 0 1.5 
z
" id="me320edafe8" style="stroke:#000000;"/>
    </defs>
    <g clip-path="url(#pb4d83a5319)">
     <use style="stroke:#000000;" x="79.964022" xlink:href="#me320edafe8" y="232.741591"/>
     <use style="stroke:#000000;" x="86.931256" xlink:href="#me320edafe8" y="189.646136"/>
     <use style="stroke:#000000;" x="107.832958" xlink:href="#me320edafe8" y="243.515455"/>
     <use style="stroke:#000000;" x="121.767427" xlink:href="#me320edafe8" y="243.515455"/>
     <use style="stroke:#000000;" x="128.734661" xlink:href="#me320edafe8" y="221.967727"/>
     <use style="stroke:#000000;" x="142.669129" xlink:href="#me320edafe8" y="297.384773"/>
     <use style="stroke:#000000;" x="163.570831" xlink:href="#me320edafe8" y="243.515455"/>
     <use style="stroke:#000000;" x="170.538066" xlink:href="#me320edafe8" y="243.515455"/>
     <use style="stroke:#000000;" x="184.472534" xlink:href="#me320edafe8" y="329.706364"/>
     <use style="stroke:#000000;" x="191.439768" xlink:href="#me320edafe8" y="232.741591"/>
     <use style="stroke:#000000;" x="205.374236" xlink:href="#me320edafe8" y="135.776818"/>
     <use style="stroke:#000000;" x="212.34147" xlink:href="#me320edafe8" y="232.741591"/>
     <use style="stroke:#000000;" x="226.275939" xlink:href="#me320edafe8" y="221.967727"/>
     <use style="stroke:#000000;" x="233.243173" xlink:href="#me320edafe8" y="372.801818"/>
     <use style="stroke:#000000;" x="247.177641" xlink:href="#me320edafe8" y="254.289318"/>
     <use style="stroke:#000000;" x="254.144875" xlink:href="#me320edafe8" y="243.515455"/>
     <use style="stroke:#000000;" x="268.079344" xlink:href="#me320edafe8" y="265.063182"/>
     <use style="stroke:#000000;" x="275.046578" xlink:href="#me320edafe8" y="243.515455"/>
     <use style="stroke:#000000;" x="288.981046" xlink:href="#me320edafe8" y="265.063182"/>
     <use style="stroke:#000000;" x="295.94828" xlink:href="#me320edafe8" y="254.289318"/>
     <use style="stroke:#000000;" x="309.882749" xlink:href="#me320edafe8" y="243.515455"/>
     <use style="stroke:#000000;" x="316.849983" xlink:href="#me320edafe8" y="221.967727"/>
     <use style="stroke:#000000;" x="330.784451" xlink:href="#me320edafe8" y="178.872273"/>
     <use style="stroke:#000000;" x="337.751685" xlink:href="#me320edafe8" y="232.741591"/>
     <use style="stroke:#000000;" x="351.686153" xlink:href="#me320edafe8" y="243.515455"/>
     <use style="stroke:#000000;" x="358.653388" xlink:href="#me320edafe8" y="362.027955"/>
     <use style="stroke:#000000;" x="372.587856" xlink:href="#me320edafe8" y="157.324545"/>
     <use style="stroke:#000000;" x="393.489558" xlink:href="#me320edafe8" y="221.967727"/>
     <use style="stroke:#000000;" x="400.456792" xlink:href="#me320edafe8" y="362.027955"/>
     <use style="stroke:#000000;" x="414.391261" xlink:href="#me320edafe8" y="254.289318"/>
     <use style="stroke:#000000;" x="421.358495" xlink:href="#me320edafe8" y="232.741591"/>
     <use style="stroke:#000000;" x="435.292963" xlink:href="#me320edafe8" y="286.610909"/>
     <use style="stroke:#000000;" x="442.260197" xlink:href="#me320edafe8" y="329.706364"/>
     <use style="stroke:#000000;" x="456.194666" xlink:href="#me320edafe8" y="221.967727"/>
     <use style="stroke:#000000;" x="463.1619" xlink:href="#me320edafe8" y="221.967727"/>
     <use style="stroke:#000000;" x="477.096368" xlink:href="#me320edafe8" y="308.158636"/>
     <use style="stroke:#000000;" x="484.063602" xlink:href="#me320edafe8" y="275.837045"/>
     <use style="stroke:#000000;" x="497.99807" xlink:href="#me320edafe8" y="200.42"/>
     <use style="stroke:#000000;" x="504.965305" xlink:href="#me320edafe8" y="28.038182"/>
     <use style="stroke:#000000;" x="525.867007" xlink:href="#me320edafe8" y="221.967727"/>
     <use style="stroke:#000000;" x="539.801475" xlink:href="#me320edafe8" y="221.967727"/>
     <use style="stroke:#000000;" x="546.76871" xlink:href="#me320edafe8" y="232.741591"/>
     <use style="stroke:#000000;" x="560.703178" xlink:href="#me320edafe8" y="286.610909"/>
     <use style="stroke:#000000;" x="581.60488" xlink:href="#me320edafe8" y="243.515455"/>
     <use style="stroke:#000000;" x="588.572114" xlink:href="#me320edafe8" y="135.776818"/>
     <use style="stroke:#000000;" x="602.506583" xlink:href="#me320edafe8" y="232.741591"/>
     <use style="stroke:#000000;" x="609.473817" xlink:href="#me320edafe8" y="286.610909"/>
     <use style="stroke:#000000;" x="623.408285" xlink:href="#me320edafe8" y="265.063182"/>
     <use style="stroke:#000000;" x="630.375519" xlink:href="#me320edafe8" y="286.610909"/>
     <use style="stroke:#000000;" x="644.309988" xlink:href="#me320edafe8" y="221.967727"/>
     <use style="stroke:#000000;" x="651.277222" xlink:href="#me320edafe8" y="297.384773"/>
    </g>
   </g>
   <g id="line2d_30">
    <path clip-path="url(#pb4d83a5319)" d="M 79.964022 221.035442 
L 86.931256 270.724157 
L 107.832958 239.636727 
L 121.767427 256.749752 
L 128.734661 220.285176 
L 142.669129 268.870322 
L 163.570831 236.582862 
L 170.538066 255.999486 
L 184.472534 269.223625 
L 191.439768 268.120056 
L 205.374236 238.136195 
L 212.34147 235.832596 
L 226.275939 218.784644 
L 233.243173 268.473359 
L 247.177641 239.032012 
L 254.144875 237.385929 
L 268.079344 254.498954 
L 275.046578 218.034378 
L 288.981046 266.619523 
L 295.94828 238.281746 
L 309.882749 234.332023 
L 316.849983 253.748627 
L 330.784451 266.972726 
L 337.751685 265.866475 
L 351.686153 235.877252 
L 358.653388 233.570971 
L 372.587856 216.517657 
L 393.489558 236.756981 
L 400.456792 235.106279 
L 414.391261 252.210066 
L 421.358495 215.740871 
L 435.292963 264.316778 
L 442.260197 235.974382 
L 456.194666 232.015461 
L 463.1619 251.427466 
L 477.096368 264.642367 
L 484.063602 263.534179 
L 497.99807 233.54108 
L 504.965305 231.232861 
L 525.867007 263.859767 
L 539.801475 234.409182 
L 546.76871 232.75848 
L 560.703178 249.862267 
L 581.60488 261.968979 
L 588.572114 233.626583 
L 602.506583 229.667662 
L 609.473817 249.079668 
L 623.408285 262.294568 
L 630.375519 261.18638 
L 644.309988 231.193281 
L 651.277222 228.885063 
L 658.244456 248.297068 
" style="fill:none;stroke:#0072b2;stroke-linecap:square;stroke-width:1.5;"/>
   </g>
   <g id="patch_3">
    <path d="M 51.05 390.04 
L 51.05 10.8 
" style="fill:none;stroke:#000000;stroke-linecap:square;stroke-linejoin:miter;stroke-width:0.8;"/>
   </g>
   <g id="patch_4">
    <path d="M 687.158478 390.04 
L 687.158478 10.8 
" style="fill:none;stroke:#000000;stroke-linecap:square;stroke-linejoin:miter;stroke-width:0.8;"/>
   </g>
   <g id="patch_5">
    <path d="M 51.05 390.04 
L 687.158478 390.04 
" style="fill:none;stroke:#000000;stroke-linecap:square;stroke-linejoin:miter;stroke-width:0.8;"/>
   </g>
   <g id="patch_6">
    <path d="M 51.05 10.8 
L 687.158478 10.8 
" style="fill:none;stroke:#000000;stroke-linecap:square;stroke-linejoin:miter;stroke-width:0.8;"/>
   </g>
  </g>
 </g>
 <defs>
  <clipPath id="pb4d83a5319">
   <rect height="379.24" width="636.108478" x="51.05" y="10.8"/>
  </clipPath>
 </defs>
</svg>
