<?xml version="1.0" encoding="utf-8" standalone="no"?>
<!DOCTYPE svg PUBLIC "-//W3C//DTD SVG 1.1//EN"
  "http://www.w3.org/Graphics/SVG/1.1/DTD/svg11.dtd">
<!-- Created with matplotlib (https://matplotlib.org/) -->
<svg height="432pt" version="1.1" viewBox="0 0 720 432" width="720pt" xmlns="http://www.w3.org/2000/svg" xmlns:xlink="http://www.w3.org/1999/xlink">
 <defs>
  <style type="text/css">
*{stroke-linecap:butt;stroke-linejoin:round;}
  </style>
 </defs>
 <g id="figure_1">
  <g id="patch_1">
   <path d="M 0 432 
L 720 432 
L 720 0 
L 0 0 
z
" style="fill:#ffffff;"/>
  </g>
  <g id="axes_1">
   <g id="patch_2">
    <path d="M 51.05 390.04 
L 699.381917 390.04 
L 699.381917 10.8 
L 51.05 10.8 
z
" style="fill:#ffffff;"/>
   </g>
   <g id="PolyCollection_1">
    <defs>
     <path d="M 80.519633 -352.428054 
L 80.519633 -240.719126 
L 87.620749 -225.05528 
L 101.822981 -249.419884 
L 108.924098 -231.94423 
L 123.12633 -252.921196 
L 130.227447 -247.176904 
L 144.429679 -235.01758 
L 151.530795 -255.564069 
L 172.834144 -260.298611 
L 187.036377 -237.677818 
L 194.137493 -243.09344 
L 208.339726 -241.734356 
L 229.643075 -261.240469 
L 236.744191 -247.398199 
L 258.04754 -248.555679 
L 272.249772 -273.848769 
L 279.350889 -263.13628 
L 300.654237 -273.336428 
L 314.85647 -265.885476 
L 321.957586 -276.380638 
L 336.159819 -254.328419 
L 343.260935 -257.444658 
L 357.463168 -262.590454 
L 364.564284 -270.7862 
L 378.766517 -275.559888 
L 385.867633 -258.488096 
L 400.069865 -276.884708 
L 407.170982 -245.991985 
L 428.474331 -252.537786 
L 442.676563 -226.274304 
L 449.777679 -239.682642 
L 463.979912 -224.397361 
L 485.283261 -195.721679 
L 492.384377 -196.994019 
L 506.58661 -181.398368 
L 513.687726 -190.399788 
L 527.889958 -181.010755 
L 534.991075 -158.022115 
L 549.193307 -168.259548 
L 556.294424 -143.208406 
L 570.496656 -153.351828 
L 577.597772 -142.947387 
L 591.800005 -118.45572 
L 598.901121 -133.285709 
L 613.103354 -110.901289 
L 634.406703 -87.63877 
L 641.507819 -85.009845 
L 655.710052 -70.631445 
L 662.811168 -77.791695 
L 669.912284 -78.041899 
L 669.912284 -189.072226 
L 669.912284 -189.072226 
L 662.811168 -183.418257 
L 655.710052 -174.661282 
L 641.507819 -194.191959 
L 634.406703 -194.672992 
L 613.103354 -224.574356 
L 598.901121 -244.055337 
L 591.800005 -227.006747 
L 577.597772 -248.084639 
L 570.496656 -263.129375 
L 556.294424 -251.765694 
L 549.193307 -276.26291 
L 534.991075 -268.806956 
L 527.889958 -293.700417 
L 513.687726 -302.731827 
L 506.58661 -290.039879 
L 492.384377 -304.557884 
L 485.283261 -307.050623 
L 463.979912 -336.736111 
L 449.777679 -348.455459 
L 442.676563 -338.845647 
L 428.474331 -362.176495 
L 407.170982 -360.036389 
L 400.069865 -383.397919 
L 385.867633 -368.402554 
L 378.766517 -386.338691 
L 364.564284 -380.677313 
L 357.463168 -367.585107 
L 343.260935 -370.906743 
L 336.159819 -367.880707 
L 321.957586 -387.957472 
L 314.85647 -377.348868 
L 300.654237 -384.547201 
L 279.350889 -374.010075 
L 272.249772 -379.452509 
L 258.04754 -361.218221 
L 236.744191 -351.805599 
L 229.643075 -370.878528 
L 208.339726 -354.569089 
L 194.137493 -349.871491 
L 187.036377 -348.653792 
L 172.834144 -367.387707 
L 151.530795 -362.812194 
L 144.429679 -348.506905 
L 130.227447 -355.897588 
L 123.12633 -363.409137 
L 108.924098 -340.713716 
L 101.822981 -359.181859 
L 87.620749 -338.685064 
L 80.519633 -352.428054 
z
" id="mbbc08cdfa8" style="stroke:#0072b2;stroke-opacity:0.2;"/>
    </defs>
    <g clip-path="url(#pb93cde418e)">
     <use style="fill:#0072b2;fill-opacity:0.2;stroke:#0072b2;stroke-opacity:0.2;" x="0" xlink:href="#mbbc08cdfa8" y="432"/>
    </g>
   </g>
   <g id="matplotlib.axis_1">
    <g id="xtick_1">
     <g id="line2d_1">
      <path clip-path="url(#pb93cde418e)" d="M 80.519633 390.04 
L 80.519633 10.8 
" style="fill:none;stroke:#808080;stroke-linecap:square;stroke-opacity:0.2;"/>
     </g>
     <g id="line2d_2">
      <defs>
       <path d="M 0 0 
L 0 3.5 
" id="m1c1379655d" style="stroke:#000000;stroke-width:0.8;"/>
      </defs>
      <g>
       <use style="stroke:#000000;stroke-width:0.8;" x="80.519633" xlink:href="#m1c1379655d" y="390.04"/>
      </g>
     </g>
     <g id="text_1">
      <!-- 2019-02-01 -->
      <defs>
       <path d="M 19.1875 8.296875 
L 53.609375 8.296875 
L 53.609375 0 
L 7.328125 0 
L 7.328125 8.296875 
Q 12.9375 14.109375 22.625 23.890625 
Q 32.328125 33.6875 34.8125 36.53125 
Q 39.546875 41.84375 41.421875 45.53125 
Q 43.3125 49.21875 43.3125 52.78125 
Q 43.3125 58.59375 39.234375 62.25 
Q 35.15625 65.921875 28.609375 65.921875 
Q 23.96875 65.921875 18.8125 64.3125 
Q 13.671875 62.703125 7.8125 59.421875 
L 7.8125 69.390625 
Q 13.765625 71.78125 18.9375 73 
Q 24.125 74.21875 28.421875 74.21875 
Q 39.75 74.21875 46.484375 68.546875 
Q 53.21875 62.890625 53.21875 53.421875 
Q 53.21875 48.921875 51.53125 44.890625 
Q 49.859375 40.875 45.40625 35.40625 
Q 44.1875 33.984375 37.640625 27.21875 
Q 31.109375 20.453125 19.1875 8.296875 
z
" id="DejaVuSans-50"/>
       <path d="M 31.78125 66.40625 
Q 24.171875 66.40625 20.328125 58.90625 
Q 16.5 51.421875 16.5 36.375 
Q 16.5 21.390625 20.328125 13.890625 
Q 24.171875 6.390625 31.78125 6.390625 
Q 39.453125 6.390625 43.28125 13.890625 
Q 47.125 21.390625 47.125 36.375 
Q 47.125 51.421875 43.28125 58.90625 
Q 39.453125 66.40625 31.78125 66.40625 
z
M 31.78125 74.21875 
Q 44.046875 74.21875 50.515625 64.515625 
Q 56.984375 54.828125 56.984375 36.375 
Q 56.984375 17.96875 50.515625 8.265625 
Q 44.046875 -1.421875 31.78125 -1.421875 
Q 19.53125 -1.421875 13.0625 8.265625 
Q 6.59375 17.96875 6.59375 36.375 
Q 6.59375 54.828125 13.0625 64.515625 
Q 19.53125 74.21875 31.78125 74.21875 
z
" id="DejaVuSans-48"/>
       <path d="M 12.40625 8.296875 
L 28.515625 8.296875 
L 28.515625 63.921875 
L 10.984375 60.40625 
L 10.984375 69.390625 
L 28.421875 72.90625 
L 38.28125 72.90625 
L 38.28125 8.296875 
L 54.390625 8.296875 
L 54.390625 0 
L 12.40625 0 
z
" id="DejaVuSans-49"/>
       <path d="M 10.984375 1.515625 
L 10.984375 10.5 
Q 14.703125 8.734375 18.5 7.8125 
Q 22.3125 6.890625 25.984375 6.890625 
Q 35.75 6.890625 40.890625 13.453125 
Q 46.046875 20.015625 46.78125 33.40625 
Q 43.953125 29.203125 39.59375 26.953125 
Q 35.25 24.703125 29.984375 24.703125 
Q 19.046875 24.703125 12.671875 31.3125 
Q 6.296875 37.9375 6.296875 49.421875 
Q 6.296875 60.640625 12.9375 67.421875 
Q 19.578125 74.21875 30.609375 74.21875 
Q 43.265625 74.21875 49.921875 64.515625 
Q 56.59375 54.828125 56.59375 36.375 
Q 56.59375 19.140625 48.40625 8.859375 
Q 40.234375 -1.421875 26.421875 -1.421875 
Q 22.703125 -1.421875 18.890625 -0.6875 
Q 15.09375 0.046875 10.984375 1.515625 
z
M 30.609375 32.421875 
Q 37.25 32.421875 41.125 36.953125 
Q 45.015625 41.5 45.015625 49.421875 
Q 45.015625 57.28125 41.125 61.84375 
Q 37.25 66.40625 30.609375 66.40625 
Q 23.96875 66.40625 20.09375 61.84375 
Q 16.21875 57.28125 16.21875 49.421875 
Q 16.21875 41.5 20.09375 36.953125 
Q 23.96875 32.421875 30.609375 32.421875 
z
" id="DejaVuSans-57"/>
       <path d="M 4.890625 31.390625 
L 31.203125 31.390625 
L 31.203125 23.390625 
L 4.890625 23.390625 
z
" id="DejaVuSans-45"/>
      </defs>
      <g transform="translate(51.46182 404.638438)scale(0.1 -0.1)">
       <use xlink:href="#DejaVuSans-50"/>
       <use x="63.623047" xlink:href="#DejaVuSans-48"/>
       <use x="127.246094" xlink:href="#DejaVuSans-49"/>
       <use x="190.869141" xlink:href="#DejaVuSans-57"/>
       <use x="254.492188" xlink:href="#DejaVuSans-45"/>
       <use x="290.576172" xlink:href="#DejaVuSans-48"/>
       <use x="354.199219" xlink:href="#DejaVuSans-50"/>
       <use x="417.822266" xlink:href="#DejaVuSans-45"/>
       <use x="453.90625" xlink:href="#DejaVuSans-48"/>
       <use x="517.529297" xlink:href="#DejaVuSans-49"/>
      </g>
     </g>
    </g>
    <g id="xtick_2">
     <g id="line2d_3">
      <path clip-path="url(#pb93cde418e)" d="M 179.935261 390.04 
L 179.935261 10.8 
" style="fill:none;stroke:#808080;stroke-linecap:square;stroke-opacity:0.2;"/>
     </g>
     <g id="line2d_4">
      <g>
       <use style="stroke:#000000;stroke-width:0.8;" x="179.935261" xlink:href="#m1c1379655d" y="390.04"/>
      </g>
     </g>
     <g id="text_2">
      <!-- 2019-02-15 -->
      <defs>
       <path d="M 10.796875 72.90625 
L 49.515625 72.90625 
L 49.515625 64.59375 
L 19.828125 64.59375 
L 19.828125 46.734375 
Q 21.96875 47.46875 24.109375 47.828125 
Q 26.265625 48.1875 28.421875 48.1875 
Q 40.625 48.1875 47.75 41.5 
Q 54.890625 34.8125 54.890625 23.390625 
Q 54.890625 11.625 47.5625 5.09375 
Q 40.234375 -1.421875 26.90625 -1.421875 
Q 22.3125 -1.421875 17.546875 -0.640625 
Q 12.796875 0.140625 7.71875 1.703125 
L 7.71875 11.625 
Q 12.109375 9.234375 16.796875 8.0625 
Q 21.484375 6.890625 26.703125 6.890625 
Q 35.15625 6.890625 40.078125 11.328125 
Q 45.015625 15.765625 45.015625 23.390625 
Q 45.015625 31 40.078125 35.4375 
Q 35.15625 39.890625 26.703125 39.890625 
Q 22.75 39.890625 18.8125 39.015625 
Q 14.890625 38.140625 10.796875 36.28125 
z
" id="DejaVuSans-53"/>
      </defs>
      <g transform="translate(150.877448 404.638438)scale(0.1 -0.1)">
       <use xlink:href="#DejaVuSans-50"/>
       <use x="63.623047" xlink:href="#DejaVuSans-48"/>
       <use x="127.246094" xlink:href="#DejaVuSans-49"/>
       <use x="190.869141" xlink:href="#DejaVuSans-57"/>
       <use x="254.492188" xlink:href="#DejaVuSans-45"/>
       <use x="290.576172" xlink:href="#DejaVuSans-48"/>
       <use x="354.199219" xlink:href="#DejaVuSans-50"/>
       <use x="417.822266" xlink:href="#DejaVuSans-45"/>
       <use x="453.90625" xlink:href="#DejaVuSans-49"/>
       <use x="517.529297" xlink:href="#DejaVuSans-53"/>
      </g>
     </g>
    </g>
    <g id="xtick_3">
     <g id="line2d_5">
      <path clip-path="url(#pb93cde418e)" d="M 279.350889 390.04 
L 279.350889 10.8 
" style="fill:none;stroke:#808080;stroke-linecap:square;stroke-opacity:0.2;"/>
     </g>
     <g id="line2d_6">
      <g>
       <use style="stroke:#000000;stroke-width:0.8;" x="279.350889" xlink:href="#m1c1379655d" y="390.04"/>
      </g>
     </g>
     <g id="text_3">
      <!-- 2019-03-01 -->
      <defs>
       <path d="M 40.578125 39.3125 
Q 47.65625 37.796875 51.625 33 
Q 55.609375 28.21875 55.609375 21.1875 
Q 55.609375 10.40625 48.1875 4.484375 
Q 40.765625 -1.421875 27.09375 -1.421875 
Q 22.515625 -1.421875 17.65625 -0.515625 
Q 12.796875 0.390625 7.625 2.203125 
L 7.625 11.71875 
Q 11.71875 9.328125 16.59375 8.109375 
Q 21.484375 6.890625 26.8125 6.890625 
Q 36.078125 6.890625 40.9375 10.546875 
Q 45.796875 14.203125 45.796875 21.1875 
Q 45.796875 27.640625 41.28125 31.265625 
Q 36.765625 34.90625 28.71875 34.90625 
L 20.21875 34.90625 
L 20.21875 43.015625 
L 29.109375 43.015625 
Q 36.375 43.015625 40.234375 45.921875 
Q 44.09375 48.828125 44.09375 54.296875 
Q 44.09375 59.90625 40.109375 62.90625 
Q 36.140625 65.921875 28.71875 65.921875 
Q 24.65625 65.921875 20.015625 65.03125 
Q 15.375 64.15625 9.8125 62.3125 
L 9.8125 71.09375 
Q 15.4375 72.65625 20.34375 73.4375 
Q 25.25 74.21875 29.59375 74.21875 
Q 40.828125 74.21875 47.359375 69.109375 
Q 53.90625 64.015625 53.90625 55.328125 
Q 53.90625 49.265625 50.4375 45.09375 
Q 46.96875 40.921875 40.578125 39.3125 
z
" id="DejaVuSans-51"/>
      </defs>
      <g transform="translate(250.293076 404.638438)scale(0.1 -0.1)">
       <use xlink:href="#DejaVuSans-50"/>
       <use x="63.623047" xlink:href="#DejaVuSans-48"/>
       <use x="127.246094" xlink:href="#DejaVuSans-49"/>
       <use x="190.869141" xlink:href="#DejaVuSans-57"/>
       <use x="254.492188" xlink:href="#DejaVuSans-45"/>
       <use x="290.576172" xlink:href="#DejaVuSans-48"/>
       <use x="354.199219" xlink:href="#DejaVuSans-51"/>
       <use x="417.822266" xlink:href="#DejaVuSans-45"/>
       <use x="453.90625" xlink:href="#DejaVuSans-48"/>
       <use x="517.529297" xlink:href="#DejaVuSans-49"/>
      </g>
     </g>
    </g>
    <g id="xtick_4">
     <g id="line2d_7">
      <path clip-path="url(#pb93cde418e)" d="M 378.766517 390.04 
L 378.766517 10.8 
" style="fill:none;stroke:#808080;stroke-linecap:square;stroke-opacity:0.2;"/>
     </g>
     <g id="line2d_8">
      <g>
       <use style="stroke:#000000;stroke-width:0.8;" x="378.766517" xlink:href="#m1c1379655d" y="390.04"/>
      </g>
     </g>
     <g id="text_4">
      <!-- 2019-03-15 -->
      <g transform="translate(349.708704 404.638438)scale(0.1 -0.1)">
       <use xlink:href="#DejaVuSans-50"/>
       <use x="63.623047" xlink:href="#DejaVuSans-48"/>
       <use x="127.246094" xlink:href="#DejaVuSans-49"/>
       <use x="190.869141" xlink:href="#DejaVuSans-57"/>
       <use x="254.492188" xlink:href="#DejaVuSans-45"/>
       <use x="290.576172" xlink:href="#DejaVuSans-48"/>
       <use x="354.199219" xlink:href="#DejaVuSans-51"/>
       <use x="417.822266" xlink:href="#DejaVuSans-45"/>
       <use x="453.90625" xlink:href="#DejaVuSans-49"/>
       <use x="517.529297" xlink:href="#DejaVuSans-53"/>
      </g>
     </g>
    </g>
    <g id="xtick_5">
     <g id="line2d_9">
      <path clip-path="url(#pb93cde418e)" d="M 478.182145 390.04 
L 478.182145 10.8 
" style="fill:none;stroke:#808080;stroke-linecap:square;stroke-opacity:0.2;"/>
     </g>
     <g id="line2d_10">
      <g>
       <use style="stroke:#000000;stroke-width:0.8;" x="478.182145" xlink:href="#m1c1379655d" y="390.04"/>
      </g>
     </g>
     <g id="text_5">
      <!-- 2019-03-29 -->
      <g transform="translate(449.124332 404.638438)scale(0.1 -0.1)">
       <use xlink:href="#DejaVuSans-50"/>
       <use x="63.623047" xlink:href="#DejaVuSans-48"/>
       <use x="127.246094" xlink:href="#DejaVuSans-49"/>
       <use x="190.869141" xlink:href="#DejaVuSans-57"/>
       <use x="254.492188" xlink:href="#DejaVuSans-45"/>
       <use x="290.576172" xlink:href="#DejaVuSans-48"/>
       <use x="354.199219" xlink:href="#DejaVuSans-51"/>
       <use x="417.822266" xlink:href="#DejaVuSans-45"/>
       <use x="453.90625" xlink:href="#DejaVuSans-50"/>
       <use x="517.529297" xlink:href="#DejaVuSans-57"/>
      </g>
     </g>
    </g>
    <g id="xtick_6">
     <g id="line2d_11">
      <path clip-path="url(#pb93cde418e)" d="M 577.597772 390.04 
L 577.597772 10.8 
" style="fill:none;stroke:#808080;stroke-linecap:square;stroke-opacity:0.2;"/>
     </g>
     <g id="line2d_12">
      <g>
       <use style="stroke:#000000;stroke-width:0.8;" x="577.597772" xlink:href="#m1c1379655d" y="390.04"/>
      </g>
     </g>
     <g id="text_6">
      <!-- 2019-04-12 -->
      <defs>
       <path d="M 37.796875 64.3125 
L 12.890625 25.390625 
L 37.796875 25.390625 
z
M 35.203125 72.90625 
L 47.609375 72.90625 
L 47.609375 25.390625 
L 58.015625 25.390625 
L 58.015625 17.1875 
L 47.609375 17.1875 
L 47.609375 0 
L 37.796875 0 
L 37.796875 17.1875 
L 4.890625 17.1875 
L 4.890625 26.703125 
z
" id="DejaVuSans-52"/>
      </defs>
      <g transform="translate(548.53996 404.638438)scale(0.1 -0.1)">
       <use xlink:href="#DejaVuSans-50"/>
       <use x="63.623047" xlink:href="#DejaVuSans-48"/>
       <use x="127.246094" xlink:href="#DejaVuSans-49"/>
       <use x="190.869141" xlink:href="#DejaVuSans-57"/>
       <use x="254.492188" xlink:href="#DejaVuSans-45"/>
       <use x="290.576172" xlink:href="#DejaVuSans-48"/>
       <use x="354.199219" xlink:href="#DejaVuSans-52"/>
       <use x="417.822266" xlink:href="#DejaVuSans-45"/>
       <use x="453.90625" xlink:href="#DejaVuSans-49"/>
       <use x="517.529297" xlink:href="#DejaVuSans-50"/>
      </g>
     </g>
    </g>
    <g id="xtick_7">
     <g id="line2d_13">
      <path clip-path="url(#pb93cde418e)" d="M 677.0134 390.04 
L 677.0134 10.8 
" style="fill:none;stroke:#808080;stroke-linecap:square;stroke-opacity:0.2;"/>
     </g>
     <g id="line2d_14">
      <g>
       <use style="stroke:#000000;stroke-width:0.8;" x="677.0134" xlink:href="#m1c1379655d" y="390.04"/>
      </g>
     </g>
     <g id="text_7">
      <!-- 2019-04-26 -->
      <defs>
       <path d="M 33.015625 40.375 
Q 26.375 40.375 22.484375 35.828125 
Q 18.609375 31.296875 18.609375 23.390625 
Q 18.609375 15.53125 22.484375 10.953125 
Q 26.375 6.390625 33.015625 6.390625 
Q 39.65625 6.390625 43.53125 10.953125 
Q 47.40625 15.53125 47.40625 23.390625 
Q 47.40625 31.296875 43.53125 35.828125 
Q 39.65625 40.375 33.015625 40.375 
z
M 52.59375 71.296875 
L 52.59375 62.3125 
Q 48.875 64.0625 45.09375 64.984375 
Q 41.3125 65.921875 37.59375 65.921875 
Q 27.828125 65.921875 22.671875 59.328125 
Q 17.53125 52.734375 16.796875 39.40625 
Q 19.671875 43.65625 24.015625 45.921875 
Q 28.375 48.1875 33.59375 48.1875 
Q 44.578125 48.1875 50.953125 41.515625 
Q 57.328125 34.859375 57.328125 23.390625 
Q 57.328125 12.15625 50.6875 5.359375 
Q 44.046875 -1.421875 33.015625 -1.421875 
Q 20.359375 -1.421875 13.671875 8.265625 
Q 6.984375 17.96875 6.984375 36.375 
Q 6.984375 53.65625 15.1875 63.9375 
Q 23.390625 74.21875 37.203125 74.21875 
Q 40.921875 74.21875 44.703125 73.484375 
Q 48.484375 72.75 52.59375 71.296875 
z
" id="DejaVuSans-54"/>
      </defs>
      <g transform="translate(647.955588 404.638438)scale(0.1 -0.1)">
       <use xlink:href="#DejaVuSans-50"/>
       <use x="63.623047" xlink:href="#DejaVuSans-48"/>
       <use x="127.246094" xlink:href="#DejaVuSans-49"/>
       <use x="190.869141" xlink:href="#DejaVuSans-57"/>
       <use x="254.492188" xlink:href="#DejaVuSans-45"/>
       <use x="290.576172" xlink:href="#DejaVuSans-48"/>
       <use x="354.199219" xlink:href="#DejaVuSans-52"/>
       <use x="417.822266" xlink:href="#DejaVuSans-45"/>
       <use x="453.90625" xlink:href="#DejaVuSans-50"/>
       <use x="517.529297" xlink:href="#DejaVuSans-54"/>
      </g>
     </g>
    </g>
    <g id="text_8">
     <!-- ds -->
     <defs>
      <path d="M 45.40625 46.390625 
L 45.40625 75.984375 
L 54.390625 75.984375 
L 54.390625 0 
L 45.40625 0 
L 45.40625 8.203125 
Q 42.578125 3.328125 38.25 0.953125 
Q 33.9375 -1.421875 27.875 -1.421875 
Q 17.96875 -1.421875 11.734375 6.484375 
Q 5.515625 14.40625 5.515625 27.296875 
Q 5.515625 40.1875 11.734375 48.09375 
Q 17.96875 56 27.875 56 
Q 33.9375 56 38.25 53.625 
Q 42.578125 51.265625 45.40625 46.390625 
z
M 14.796875 27.296875 
Q 14.796875 17.390625 18.875 11.75 
Q 22.953125 6.109375 30.078125 6.109375 
Q 37.203125 6.109375 41.296875 11.75 
Q 45.40625 17.390625 45.40625 27.296875 
Q 45.40625 37.203125 41.296875 42.84375 
Q 37.203125 48.484375 30.078125 48.484375 
Q 22.953125 48.484375 18.875 42.84375 
Q 14.796875 37.203125 14.796875 27.296875 
z
" id="DejaVuSans-100"/>
      <path d="M 44.28125 53.078125 
L 44.28125 44.578125 
Q 40.484375 46.53125 36.375 47.5 
Q 32.28125 48.484375 27.875 48.484375 
Q 21.1875 48.484375 17.84375 46.4375 
Q 14.5 44.390625 14.5 40.28125 
Q 14.5 37.15625 16.890625 35.375 
Q 19.28125 33.59375 26.515625 31.984375 
L 29.59375 31.296875 
Q 39.15625 29.25 43.1875 25.515625 
Q 47.21875 21.78125 47.21875 15.09375 
Q 47.21875 7.46875 41.1875 3.015625 
Q 35.15625 -1.421875 24.609375 -1.421875 
Q 20.21875 -1.421875 15.453125 -0.5625 
Q 10.6875 0.296875 5.421875 2 
L 5.421875 11.28125 
Q 10.40625 8.6875 15.234375 7.390625 
Q 20.0625 6.109375 24.8125 6.109375 
Q 31.15625 6.109375 34.5625 8.28125 
Q 37.984375 10.453125 37.984375 14.40625 
Q 37.984375 18.0625 35.515625 20.015625 
Q 33.0625 21.96875 24.703125 23.78125 
L 21.578125 24.515625 
Q 13.234375 26.265625 9.515625 29.90625 
Q 5.8125 33.546875 5.8125 39.890625 
Q 5.8125 47.609375 11.28125 51.796875 
Q 16.75 56 26.8125 56 
Q 31.78125 56 36.171875 55.265625 
Q 40.578125 54.546875 44.28125 53.078125 
z
" id="DejaVuSans-115"/>
     </defs>
     <g transform="translate(369.437052 418.316562)scale(0.1 -0.1)">
      <use xlink:href="#DejaVuSans-100"/>
      <use x="63.476562" xlink:href="#DejaVuSans-115"/>
     </g>
    </g>
   </g>
   <g id="matplotlib.axis_2">
    <g id="ytick_1">
     <g id="line2d_15">
      <path clip-path="url(#pb93cde418e)" d="M 51.05 315.341212 
L 699.381917 315.341212 
" style="fill:none;stroke:#808080;stroke-linecap:square;stroke-opacity:0.2;"/>
     </g>
     <g id="line2d_16">
      <defs>
       <path d="M 0 0 
L -3.5 0 
" id="mabb4027086" style="stroke:#000000;stroke-width:0.8;"/>
      </defs>
      <g>
       <use style="stroke:#000000;stroke-width:0.8;" x="51.05" xlink:href="#mabb4027086" y="315.341212"/>
      </g>
     </g>
     <g id="text_9">
      <!-- 120 -->
      <g transform="translate(24.9625 319.140431)scale(0.1 -0.1)">
       <use xlink:href="#DejaVuSans-49"/>
       <use x="63.623047" xlink:href="#DejaVuSans-50"/>
       <use x="127.246094" xlink:href="#DejaVuSans-48"/>
      </g>
     </g>
    </g>
    <g id="ytick_2">
     <g id="line2d_17">
      <path clip-path="url(#pb93cde418e)" d="M 51.05 233.254632 
L 699.381917 233.254632 
" style="fill:none;stroke:#808080;stroke-linecap:square;stroke-opacity:0.2;"/>
     </g>
     <g id="line2d_18">
      <g>
       <use style="stroke:#000000;stroke-width:0.8;" x="51.05" xlink:href="#mabb4027086" y="233.254632"/>
      </g>
     </g>
     <g id="text_10">
      <!-- 130 -->
      <g transform="translate(24.9625 237.053851)scale(0.1 -0.1)">
       <use xlink:href="#DejaVuSans-49"/>
       <use x="63.623047" xlink:href="#DejaVuSans-51"/>
       <use x="127.246094" xlink:href="#DejaVuSans-48"/>
      </g>
     </g>
    </g>
    <g id="ytick_3">
     <g id="line2d_19">
      <path clip-path="url(#pb93cde418e)" d="M 51.05 151.168052 
L 699.381917 151.168052 
" style="fill:none;stroke:#808080;stroke-linecap:square;stroke-opacity:0.2;"/>
     </g>
     <g id="line2d_20">
      <g>
       <use style="stroke:#000000;stroke-width:0.8;" x="51.05" xlink:href="#mabb4027086" y="151.168052"/>
      </g>
     </g>
     <g id="text_11">
      <!-- 140 -->
      <g transform="translate(24.9625 154.967271)scale(0.1 -0.1)">
       <use xlink:href="#DejaVuSans-49"/>
       <use x="63.623047" xlink:href="#DejaVuSans-52"/>
       <use x="127.246094" xlink:href="#DejaVuSans-48"/>
      </g>
     </g>
    </g>
    <g id="ytick_4">
     <g id="line2d_21">
      <path clip-path="url(#pb93cde418e)" d="M 51.05 69.081472 
L 699.381917 69.081472 
" style="fill:none;stroke:#808080;stroke-linecap:square;stroke-opacity:0.2;"/>
     </g>
     <g id="line2d_22">
      <g>
       <use style="stroke:#000000;stroke-width:0.8;" x="51.05" xlink:href="#mabb4027086" y="69.081472"/>
      </g>
     </g>
     <g id="text_12">
      <!-- 150 -->
      <g transform="translate(24.9625 72.880691)scale(0.1 -0.1)">
       <use xlink:href="#DejaVuSans-49"/>
       <use x="63.623047" xlink:href="#DejaVuSans-53"/>
       <use x="127.246094" xlink:href="#DejaVuSans-48"/>
      </g>
     </g>
    </g>
    <g id="text_13">
     <!-- y -->
     <defs>
      <path d="M 32.171875 -5.078125 
Q 28.375 -14.84375 24.75 -17.8125 
Q 21.140625 -20.796875 15.09375 -20.796875 
L 7.90625 -20.796875 
L 7.90625 -13.28125 
L 13.1875 -13.28125 
Q 16.890625 -13.28125 18.9375 -11.515625 
Q 21 -9.765625 23.484375 -3.21875 
L 25.09375 0.875 
L 2.984375 54.6875 
L 12.5 54.6875 
L 29.59375 11.921875 
L 46.6875 54.6875 
L 56.203125 54.6875 
z
" id="DejaVuSans-121"/>
     </defs>
     <g transform="translate(18.882812 203.379375)rotate(-90)scale(0.1 -0.1)">
      <use xlink:href="#DejaVuSans-121"/>
     </g>
    </g>
   </g>
   <g id="line2d_23">
    <defs>
     <path d="M 0 1.5 
C 0.397805 1.5 0.77937 1.341951 1.06066 1.06066 
C 1.341951 0.77937 1.5 0.397805 1.5 0 
C 1.5 -0.397805 1.341951 -0.77937 1.06066 -1.06066 
C 0.77937 -1.341951 0.397805 -1.5 0 -1.5 
C -0.397805 -1.5 -0.77937 -1.341951 -1.06066 -1.06066 
C -1.341951 -0.77937 -1.5 -0.397805 -1.5 0 
C -1.5 0.397805 -1.341951 0.77937 -1.06066 1.06066 
C -0.77937 1.341951 -0.397805 1.5 0 1.5 
z
" id="mc22f99919a" style="stroke:#000000;"/>
    </defs>
    <g clip-path="url(#pb93cde418e)">
     <use style="stroke:#000000;" x="80.519633" xlink:href="#mc22f99919a" y="200.42"/>
     <use style="stroke:#000000;" x="87.620749" xlink:href="#mc22f99919a" y="184.002684"/>
     <use style="stroke:#000000;" x="101.822981" xlink:href="#mc22f99919a" y="184.002684"/>
     <use style="stroke:#000000;" x="108.924098" xlink:href="#mc22f99919a" y="151.168052"/>
     <use style="stroke:#000000;" x="123.12633" xlink:href="#mc22f99919a" y="60.872814"/>
     <use style="stroke:#000000;" x="130.227447" xlink:href="#mc22f99919a" y="110.124762"/>
     <use style="stroke:#000000;" x="144.429679" xlink:href="#mc22f99919a" y="85.498788"/>
     <use style="stroke:#000000;" x="151.530795" xlink:href="#mc22f99919a" y="93.707446"/>
     <use style="stroke:#000000;" x="172.834144" xlink:href="#mc22f99919a" y="159.37671"/>
     <use style="stroke:#000000;" x="187.036377" xlink:href="#mc22f99919a" y="118.33342"/>
     <use style="stroke:#000000;" x="194.137493" xlink:href="#mc22f99919a" y="118.33342"/>
     <use style="stroke:#000000;" x="208.339726" xlink:href="#mc22f99919a" y="93.707446"/>
     <use style="stroke:#000000;" x="229.643075" xlink:href="#mc22f99919a" y="110.124762"/>
     <use style="stroke:#000000;" x="236.744191" xlink:href="#mc22f99919a" y="151.168052"/>
     <use style="stroke:#000000;" x="258.04754" xlink:href="#mc22f99919a" y="208.628658"/>
     <use style="stroke:#000000;" x="272.249772" xlink:href="#mc22f99919a" y="184.002684"/>
     <use style="stroke:#000000;" x="279.350889" xlink:href="#mc22f99919a" y="159.37671"/>
     <use style="stroke:#000000;" x="300.654237" xlink:href="#mc22f99919a" y="69.081472"/>
     <use style="stroke:#000000;" x="314.85647" xlink:href="#mc22f99919a" y="77.29013"/>
     <use style="stroke:#000000;" x="321.957586" xlink:href="#mc22f99919a" y="118.33342"/>
     <use style="stroke:#000000;" x="336.159819" xlink:href="#mc22f99919a" y="28.038182"/>
     <use style="stroke:#000000;" x="343.260935" xlink:href="#mc22f99919a" y="118.33342"/>
     <use style="stroke:#000000;" x="357.463168" xlink:href="#mc22f99919a" y="110.124762"/>
     <use style="stroke:#000000;" x="364.564284" xlink:href="#mc22f99919a" y="134.750736"/>
     <use style="stroke:#000000;" x="378.766517" xlink:href="#mc22f99919a" y="85.498788"/>
     <use style="stroke:#000000;" x="385.867633" xlink:href="#mc22f99919a" y="77.29013"/>
     <use style="stroke:#000000;" x="400.069865" xlink:href="#mc22f99919a" y="101.916104"/>
     <use style="stroke:#000000;" x="407.170982" xlink:href="#mc22f99919a" y="101.916104"/>
     <use style="stroke:#000000;" x="428.474331" xlink:href="#mc22f99919a" y="118.33342"/>
     <use style="stroke:#000000;" x="442.676563" xlink:href="#mc22f99919a" y="159.37671"/>
     <use style="stroke:#000000;" x="449.777679" xlink:href="#mc22f99919a" y="184.002684"/>
     <use style="stroke:#000000;" x="463.979912" xlink:href="#mc22f99919a" y="184.002684"/>
     <use style="stroke:#000000;" x="485.283261" xlink:href="#mc22f99919a" y="216.837316"/>
     <use style="stroke:#000000;" x="492.384377" xlink:href="#mc22f99919a" y="192.211342"/>
     <use style="stroke:#000000;" x="506.58661" xlink:href="#mc22f99919a" y="184.002684"/>
     <use style="stroke:#000000;" x="513.687726" xlink:href="#mc22f99919a" y="134.750736"/>
     <use style="stroke:#000000;" x="527.889958" xlink:href="#mc22f99919a" y="118.33342"/>
     <use style="stroke:#000000;" x="534.991075" xlink:href="#mc22f99919a" y="208.628658"/>
     <use style="stroke:#000000;" x="549.193307" xlink:href="#mc22f99919a" y="192.211342"/>
     <use style="stroke:#000000;" x="556.294424" xlink:href="#mc22f99919a" y="200.42"/>
     <use style="stroke:#000000;" x="570.496656" xlink:href="#mc22f99919a" y="151.168052"/>
     <use style="stroke:#000000;" x="577.597772" xlink:href="#mc22f99919a" y="249.671948"/>
     <use style="stroke:#000000;" x="591.800005" xlink:href="#mc22f99919a" y="249.671948"/>
     <use style="stroke:#000000;" x="598.901121" xlink:href="#mc22f99919a" y="225.045974"/>
     <use style="stroke:#000000;" x="613.103354" xlink:href="#mc22f99919a" y="208.628658"/>
     <use style="stroke:#000000;" x="634.406703" xlink:href="#mc22f99919a" y="364.59316"/>
     <use style="stroke:#000000;" x="641.507819" xlink:href="#mc22f99919a" y="348.175844"/>
     <use style="stroke:#000000;" x="655.710052" xlink:href="#mc22f99919a" y="348.175844"/>
     <use style="stroke:#000000;" x="662.811168" xlink:href="#mc22f99919a" y="372.801818"/>
    </g>
   </g>
   <g id="line2d_24">
    <path clip-path="url(#pb93cde418e)" d="M 80.519633 134.822426 
L 87.620749 149.294303 
L 101.822981 127.965385 
L 108.924098 147.296904 
L 123.12633 124.0707 
L 130.227447 129.211052 
L 144.429679 139.776859 
L 151.530795 122.354011 
L 172.834144 118.459325 
L 187.036377 138.071554 
L 194.137493 134.165623 
L 208.339726 136.074568 
L 229.643075 117.98913 
L 236.744191 132.461144 
L 258.04754 130.464159 
L 272.249772 107.238231 
L 279.350889 112.378721 
L 300.654237 105.522093 
L 314.85647 109.518983 
L 321.957586 101.633465 
L 336.159819 121.256542 
L 343.260935 117.366329 
L 357.463168 119.312052 
L 364.564284 103.995317 
L 378.766517 101.306624 
L 385.867633 119.239273 
L 400.069865 104.831901 
L 407.170982 127.627061 
L 428.474331 126.320321 
L 442.676563 148.072203 
L 449.777679 136.250111 
L 463.979912 151.460343 
L 485.283261 180.002592 
L 492.384377 181.713787 
L 506.58661 195.888874 
L 513.687726 186.686821 
L 527.889958 196.217171 
L 534.991075 216.838714 
L 549.193307 207.80913 
L 556.294424 233.293438 
L 570.496656 222.372813 
L 577.597772 233.665955 
L 591.800005 256.537342 
L 598.901121 245.267283 
L 613.103354 261.569119 
L 634.406703 291.748774 
L 641.507819 293.995495 
L 655.710052 308.209744 
L 662.811168 299.027272 
L 669.912284 297.289119 
" style="fill:none;stroke:#0072b2;stroke-linecap:square;stroke-width:1.5;"/>
   </g>
   <g id="patch_3">
    <path d="M 51.05 390.04 
L 51.05 10.8 
" style="fill:none;stroke:#000000;stroke-linecap:square;stroke-linejoin:miter;stroke-width:0.8;"/>
   </g>
   <g id="patch_4">
    <path d="M 699.381917 390.04 
L 699.381917 10.8 
" style="fill:none;stroke:#000000;stroke-linecap:square;stroke-linejoin:miter;stroke-width:0.8;"/>
   </g>
   <g id="patch_5">
    <path d="M 51.05 390.04 
L 699.381917 390.04 
" style="fill:none;stroke:#000000;stroke-linecap:square;stroke-linejoin:miter;stroke-width:0.8;"/>
   </g>
   <g id="patch_6">
    <path d="M 51.05 10.8 
L 699.381917 10.8 
" style="fill:none;stroke:#000000;stroke-linecap:square;stroke-linejoin:miter;stroke-width:0.8;"/>
   </g>
  </g>
 </g>
 <defs>
  <clipPath id="pb93cde418e">
   <rect height="379.24" width="648.331917" x="51.05" y="10.8"/>
  </clipPath>
 </defs>
</svg>
