<?xml version="1.0" encoding="utf-8" standalone="no"?>
<!DOCTYPE svg PUBLIC "-//W3C//DTD SVG 1.1//EN"
  "http://www.w3.org/Graphics/SVG/1.1/DTD/svg11.dtd">
<!-- Created with matplotlib (https://matplotlib.org/) -->
<svg height="432pt" version="1.1" viewBox="0 0 720 432" width="720pt" xmlns="http://www.w3.org/2000/svg" xmlns:xlink="http://www.w3.org/1999/xlink">
 <defs>
  <style type="text/css">
*{stroke-linecap:butt;stroke-linejoin:round;}
  </style>
 </defs>
 <g id="figure_1">
  <g id="patch_1">
   <path d="M 0 432 
L 720 432 
L 720 0 
L 0 0 
z
" style="fill:#ffffff;"/>
  </g>
  <g id="axes_1">
   <g id="patch_2">
    <path d="M 60.59 390.04 
L 687.158478 390.04 
L 687.158478 10.8 
L 60.59 10.8 
z
" style="fill:#ffffff;"/>
   </g>
   <g id="PolyCollection_1">
    <defs>
     <path d="M 89.070385 -248.744414 
L 89.070385 -87.836485 
L 95.933129 -59.198182 
L 109.658616 -94.329551 
L 116.521359 -92.302322 
L 130.246846 -76.329932 
L 137.10959 -110.691938 
L 150.835076 -108.530672 
L 157.69782 -124.186367 
L 171.423307 -125.729577 
L 178.28605 -104.256491 
L 192.011537 -100.869462 
L 198.874281 -127.60907 
L 212.599768 -131.8688 
L 219.462511 -145.903135 
L 233.187998 -146.056131 
L 240.050741 -127.756726 
L 253.776228 -162.776376 
L 260.638972 -155.230829 
L 274.364459 -147.944629 
L 281.227202 -180.607689 
L 294.952689 -172.401372 
L 301.815432 -189.933473 
L 315.540919 -193.765476 
L 322.403663 -168.039325 
L 336.12915 -165.935375 
L 342.991893 -199.48301 
L 356.71738 -191.676603 
L 363.580124 -212.232064 
L 377.305611 -219.063983 
L 384.168354 -184.362971 
L 397.893841 -221.546169 
L 404.756584 -211.171154 
L 418.482071 -207.572306 
L 425.344815 -237.573704 
L 439.070302 -223.119018 
L 445.933045 -237.260209 
L 459.658532 -236.002446 
L 466.521275 -211.734104 
L 480.246762 -199.935396 
L 487.109506 -223.296916 
L 500.834993 -214.103452 
L 507.697736 -233.861598 
L 521.423223 -228.876364 
L 528.285967 -195.848871 
L 542.011453 -228.094379 
L 548.874197 -215.545621 
L 562.599684 -200.46358 
L 569.462427 -222.16637 
L 583.187914 -213.507615 
L 590.050658 -225.139502 
L 603.776145 -222.80528 
L 610.638888 -194.658085 
L 624.364375 -182.095304 
L 631.227118 -212.670617 
L 644.952605 -208.771425 
L 651.815349 -217.621927 
L 658.678092 -196.048207 
L 658.678092 -345.658639 
L 658.678092 -345.658639 
L 651.815349 -375.795051 
L 644.952605 -358.013541 
L 631.227118 -369.18996 
L 624.364375 -343.683238 
L 610.638888 -351.84547 
L 603.776145 -377.392831 
L 590.050658 -378.188286 
L 583.187914 -371.885109 
L 569.462427 -384.597378 
L 562.599684 -357.839392 
L 548.874197 -368.61732 
L 542.011453 -385.231017 
L 528.285967 -356.221012 
L 521.423223 -384.13797 
L 507.697736 -390.733672 
L 500.834993 -370.876209 
L 487.109506 -384.279316 
L 480.246762 -356.552214 
L 466.521275 -370.177726 
L 459.658532 -393.766587 
L 445.933045 -392.859576 
L 439.070302 -386.966593 
L 425.344815 -400.454173 
L 418.482071 -364.831912 
L 404.756584 -373.073977 
L 397.893841 -384.402819 
L 384.168354 -345.94472 
L 377.305611 -380.840836 
L 363.580124 -367.009566 
L 356.71738 -350.060349 
L 342.991893 -344.68394 
L 336.12915 -316.120769 
L 322.403663 -321.752986 
L 315.540919 -347.09157 
L 301.815432 -341.052035 
L 294.952689 -324.576061 
L 281.227202 -332.757472 
L 274.364459 -302.688899 
L 260.638972 -306.920714 
L 253.776228 -319.437324 
L 240.050741 -284.024573 
L 233.187998 -299.503332 
L 219.462511 -300.024776 
L 212.599768 -285.444445 
L 198.874281 -283.050213 
L 192.011537 -259.529843 
L 178.28605 -259.176357 
L 171.423307 -282.360905 
L 157.69782 -280.0854 
L 150.835076 -257.845545 
L 137.10959 -266.03994 
L 130.246846 -233.630074 
L 116.521359 -245.694576 
L 109.658616 -248.825039 
L 95.933129 -210.900683 
L 89.070385 -248.744414 
z
" id="m54354bcc6c" style="stroke:#0072b2;stroke-opacity:0.2;"/>
    </defs>
    <g clip-path="url(#p18f6435c1c)">
     <use style="fill:#0072b2;fill-opacity:0.2;stroke:#0072b2;stroke-opacity:0.2;" x="0" xlink:href="#m54354bcc6c" y="432"/>
    </g>
   </g>
   <g id="matplotlib.axis_1">
    <g id="xtick_1">
     <g id="line2d_1">
      <path clip-path="url(#p18f6435c1c)" d="M 102.795872 390.04 
L 102.795872 10.8 
" style="fill:none;stroke:#808080;stroke-linecap:square;stroke-opacity:0.2;"/>
     </g>
     <g id="line2d_2">
      <defs>
       <path d="M 0 0 
L 0 3.5 
" id="m24d89e3bea" style="stroke:#000000;stroke-width:0.8;"/>
      </defs>
      <g>
       <use style="stroke:#000000;stroke-width:0.8;" x="102.795872" xlink:href="#m24d89e3bea" y="390.04"/>
      </g>
     </g>
     <g id="text_1">
      <!-- 2019-10-31 -->
      <defs>
       <path d="M 19.1875 8.296875 
L 53.609375 8.296875 
L 53.609375 0 
L 7.328125 0 
L 7.328125 8.296875 
Q 12.9375 14.109375 22.625 23.890625 
Q 32.328125 33.6875 34.8125 36.53125 
Q 39.546875 41.84375 41.421875 45.53125 
Q 43.3125 49.21875 43.3125 52.78125 
Q 43.3125 58.59375 39.234375 62.25 
Q 35.15625 65.921875 28.609375 65.921875 
Q 23.96875 65.921875 18.8125 64.3125 
Q 13.671875 62.703125 7.8125 59.421875 
L 7.8125 69.390625 
Q 13.765625 71.78125 18.9375 73 
Q 24.125 74.21875 28.421875 74.21875 
Q 39.75 74.21875 46.484375 68.546875 
Q 53.21875 62.890625 53.21875 53.421875 
Q 53.21875 48.921875 51.53125 44.890625 
Q 49.859375 40.875 45.40625 35.40625 
Q 44.1875 33.984375 37.640625 27.21875 
Q 31.109375 20.453125 19.1875 8.296875 
z
" id="DejaVuSans-50"/>
       <path d="M 31.78125 66.40625 
Q 24.171875 66.40625 20.328125 58.90625 
Q 16.5 51.421875 16.5 36.375 
Q 16.5 21.390625 20.328125 13.890625 
Q 24.171875 6.390625 31.78125 6.390625 
Q 39.453125 6.390625 43.28125 13.890625 
Q 47.125 21.390625 47.125 36.375 
Q 47.125 51.421875 43.28125 58.90625 
Q 39.453125 66.40625 31.78125 66.40625 
z
M 31.78125 74.21875 
Q 44.046875 74.21875 50.515625 64.515625 
Q 56.984375 54.828125 56.984375 36.375 
Q 56.984375 17.96875 50.515625 8.265625 
Q 44.046875 -1.421875 31.78125 -1.421875 
Q 19.53125 -1.421875 13.0625 8.265625 
Q 6.59375 17.96875 6.59375 36.375 
Q 6.59375 54.828125 13.0625 64.515625 
Q 19.53125 74.21875 31.78125 74.21875 
z
" id="DejaVuSans-48"/>
       <path d="M 12.40625 8.296875 
L 28.515625 8.296875 
L 28.515625 63.921875 
L 10.984375 60.40625 
L 10.984375 69.390625 
L 28.421875 72.90625 
L 38.28125 72.90625 
L 38.28125 8.296875 
L 54.390625 8.296875 
L 54.390625 0 
L 12.40625 0 
z
" id="DejaVuSans-49"/>
       <path d="M 10.984375 1.515625 
L 10.984375 10.5 
Q 14.703125 8.734375 18.5 7.8125 
Q 22.3125 6.890625 25.984375 6.890625 
Q 35.75 6.890625 40.890625 13.453125 
Q 46.046875 20.015625 46.78125 33.40625 
Q 43.953125 29.203125 39.59375 26.953125 
Q 35.25 24.703125 29.984375 24.703125 
Q 19.046875 24.703125 12.671875 31.3125 
Q 6.296875 37.9375 6.296875 49.421875 
Q 6.296875 60.640625 12.9375 67.421875 
Q 19.578125 74.21875 30.609375 74.21875 
Q 43.265625 74.21875 49.921875 64.515625 
Q 56.59375 54.828125 56.59375 36.375 
Q 56.59375 19.140625 48.40625 8.859375 
Q 40.234375 -1.421875 26.421875 -1.421875 
Q 22.703125 -1.421875 18.890625 -0.6875 
Q 15.09375 0.046875 10.984375 1.515625 
z
M 30.609375 32.421875 
Q 37.25 32.421875 41.125 36.953125 
Q 45.015625 41.5 45.015625 49.421875 
Q 45.015625 57.28125 41.125 61.84375 
Q 37.25 66.40625 30.609375 66.40625 
Q 23.96875 66.40625 20.09375 61.84375 
Q 16.21875 57.28125 16.21875 49.421875 
Q 16.21875 41.5 20.09375 36.953125 
Q 23.96875 32.421875 30.609375 32.421875 
z
" id="DejaVuSans-57"/>
       <path d="M 4.890625 31.390625 
L 31.203125 31.390625 
L 31.203125 23.390625 
L 4.890625 23.390625 
z
" id="DejaVuSans-45"/>
       <path d="M 40.578125 39.3125 
Q 47.65625 37.796875 51.625 33 
Q 55.609375 28.21875 55.609375 21.1875 
Q 55.609375 10.40625 48.1875 4.484375 
Q 40.765625 -1.421875 27.09375 -1.421875 
Q 22.515625 -1.421875 17.65625 -0.515625 
Q 12.796875 0.390625 7.625 2.203125 
L 7.625 11.71875 
Q 11.71875 9.328125 16.59375 8.109375 
Q 21.484375 6.890625 26.8125 6.890625 
Q 36.078125 6.890625 40.9375 10.546875 
Q 45.796875 14.203125 45.796875 21.1875 
Q 45.796875 27.640625 41.28125 31.265625 
Q 36.765625 34.90625 28.71875 34.90625 
L 20.21875 34.90625 
L 20.21875 43.015625 
L 29.109375 43.015625 
Q 36.375 43.015625 40.234375 45.921875 
Q 44.09375 48.828125 44.09375 54.296875 
Q 44.09375 59.90625 40.109375 62.90625 
Q 36.140625 65.921875 28.71875 65.921875 
Q 24.65625 65.921875 20.015625 65.03125 
Q 15.375 64.15625 9.8125 62.3125 
L 9.8125 71.09375 
Q 15.4375 72.65625 20.34375 73.4375 
Q 25.25 74.21875 29.59375 74.21875 
Q 40.828125 74.21875 47.359375 69.109375 
Q 53.90625 64.015625 53.90625 55.328125 
Q 53.90625 49.265625 50.4375 45.09375 
Q 46.96875 40.921875 40.578125 39.3125 
z
" id="DejaVuSans-51"/>
      </defs>
      <g transform="translate(73.73806 404.638438)scale(0.1 -0.1)">
       <use xlink:href="#DejaVuSans-50"/>
       <use x="63.623047" xlink:href="#DejaVuSans-48"/>
       <use x="127.246094" xlink:href="#DejaVuSans-49"/>
       <use x="190.869141" xlink:href="#DejaVuSans-57"/>
       <use x="254.492188" xlink:href="#DejaVuSans-45"/>
       <use x="290.576172" xlink:href="#DejaVuSans-49"/>
       <use x="354.199219" xlink:href="#DejaVuSans-48"/>
       <use x="417.822266" xlink:href="#DejaVuSans-45"/>
       <use x="453.90625" xlink:href="#DejaVuSans-51"/>
       <use x="517.529297" xlink:href="#DejaVuSans-49"/>
      </g>
     </g>
    </g>
    <g id="xtick_2">
     <g id="line2d_3">
      <path clip-path="url(#p18f6435c1c)" d="M 198.874281 390.04 
L 198.874281 10.8 
" style="fill:none;stroke:#808080;stroke-linecap:square;stroke-opacity:0.2;"/>
     </g>
     <g id="line2d_4">
      <g>
       <use style="stroke:#000000;stroke-width:0.8;" x="198.874281" xlink:href="#m24d89e3bea" y="390.04"/>
      </g>
     </g>
     <g id="text_2">
      <!-- 2019-11-14 -->
      <defs>
       <path d="M 37.796875 64.3125 
L 12.890625 25.390625 
L 37.796875 25.390625 
z
M 35.203125 72.90625 
L 47.609375 72.90625 
L 47.609375 25.390625 
L 58.015625 25.390625 
L 58.015625 17.1875 
L 47.609375 17.1875 
L 47.609375 0 
L 37.796875 0 
L 37.796875 17.1875 
L 4.890625 17.1875 
L 4.890625 26.703125 
z
" id="DejaVuSans-52"/>
      </defs>
      <g transform="translate(169.816468 404.638438)scale(0.1 -0.1)">
       <use xlink:href="#DejaVuSans-50"/>
       <use x="63.623047" xlink:href="#DejaVuSans-48"/>
       <use x="127.246094" xlink:href="#DejaVuSans-49"/>
       <use x="190.869141" xlink:href="#DejaVuSans-57"/>
       <use x="254.492188" xlink:href="#DejaVuSans-45"/>
       <use x="290.576172" xlink:href="#DejaVuSans-49"/>
       <use x="354.199219" xlink:href="#DejaVuSans-49"/>
       <use x="417.822266" xlink:href="#DejaVuSans-45"/>
       <use x="453.90625" xlink:href="#DejaVuSans-49"/>
       <use x="517.529297" xlink:href="#DejaVuSans-52"/>
      </g>
     </g>
    </g>
    <g id="xtick_3">
     <g id="line2d_5">
      <path clip-path="url(#p18f6435c1c)" d="M 294.952689 390.04 
L 294.952689 10.8 
" style="fill:none;stroke:#808080;stroke-linecap:square;stroke-opacity:0.2;"/>
     </g>
     <g id="line2d_6">
      <g>
       <use style="stroke:#000000;stroke-width:0.8;" x="294.952689" xlink:href="#m24d89e3bea" y="390.04"/>
      </g>
     </g>
     <g id="text_3">
      <!-- 2019-11-28 -->
      <defs>
       <path d="M 31.78125 34.625 
Q 24.75 34.625 20.71875 30.859375 
Q 16.703125 27.09375 16.703125 20.515625 
Q 16.703125 13.921875 20.71875 10.15625 
Q 24.75 6.390625 31.78125 6.390625 
Q 38.8125 6.390625 42.859375 10.171875 
Q 46.921875 13.96875 46.921875 20.515625 
Q 46.921875 27.09375 42.890625 30.859375 
Q 38.875 34.625 31.78125 34.625 
z
M 21.921875 38.8125 
Q 15.578125 40.375 12.03125 44.71875 
Q 8.5 49.078125 8.5 55.328125 
Q 8.5 64.0625 14.71875 69.140625 
Q 20.953125 74.21875 31.78125 74.21875 
Q 42.671875 74.21875 48.875 69.140625 
Q 55.078125 64.0625 55.078125 55.328125 
Q 55.078125 49.078125 51.53125 44.71875 
Q 48 40.375 41.703125 38.8125 
Q 48.828125 37.15625 52.796875 32.3125 
Q 56.78125 27.484375 56.78125 20.515625 
Q 56.78125 9.90625 50.3125 4.234375 
Q 43.84375 -1.421875 31.78125 -1.421875 
Q 19.734375 -1.421875 13.25 4.234375 
Q 6.78125 9.90625 6.78125 20.515625 
Q 6.78125 27.484375 10.78125 32.3125 
Q 14.796875 37.15625 21.921875 38.8125 
z
M 18.3125 54.390625 
Q 18.3125 48.734375 21.84375 45.5625 
Q 25.390625 42.390625 31.78125 42.390625 
Q 38.140625 42.390625 41.71875 45.5625 
Q 45.3125 48.734375 45.3125 54.390625 
Q 45.3125 60.0625 41.71875 63.234375 
Q 38.140625 66.40625 31.78125 66.40625 
Q 25.390625 66.40625 21.84375 63.234375 
Q 18.3125 60.0625 18.3125 54.390625 
z
" id="DejaVuSans-56"/>
      </defs>
      <g transform="translate(265.894877 404.638438)scale(0.1 -0.1)">
       <use xlink:href="#DejaVuSans-50"/>
       <use x="63.623047" xlink:href="#DejaVuSans-48"/>
       <use x="127.246094" xlink:href="#DejaVuSans-49"/>
       <use x="190.869141" xlink:href="#DejaVuSans-57"/>
       <use x="254.492188" xlink:href="#DejaVuSans-45"/>
       <use x="290.576172" xlink:href="#DejaVuSans-49"/>
       <use x="354.199219" xlink:href="#DejaVuSans-49"/>
       <use x="417.822266" xlink:href="#DejaVuSans-45"/>
       <use x="453.90625" xlink:href="#DejaVuSans-50"/>
       <use x="517.529297" xlink:href="#DejaVuSans-56"/>
      </g>
     </g>
    </g>
    <g id="xtick_4">
     <g id="line2d_7">
      <path clip-path="url(#p18f6435c1c)" d="M 391.031097 390.04 
L 391.031097 10.8 
" style="fill:none;stroke:#808080;stroke-linecap:square;stroke-opacity:0.2;"/>
     </g>
     <g id="line2d_8">
      <g>
       <use style="stroke:#000000;stroke-width:0.8;" x="391.031097" xlink:href="#m24d89e3bea" y="390.04"/>
      </g>
     </g>
     <g id="text_4">
      <!-- 2019-12-12 -->
      <g transform="translate(361.973285 404.638438)scale(0.1 -0.1)">
       <use xlink:href="#DejaVuSans-50"/>
       <use x="63.623047" xlink:href="#DejaVuSans-48"/>
       <use x="127.246094" xlink:href="#DejaVuSans-49"/>
       <use x="190.869141" xlink:href="#DejaVuSans-57"/>
       <use x="254.492188" xlink:href="#DejaVuSans-45"/>
       <use x="290.576172" xlink:href="#DejaVuSans-49"/>
       <use x="354.199219" xlink:href="#DejaVuSans-50"/>
       <use x="417.822266" xlink:href="#DejaVuSans-45"/>
       <use x="453.90625" xlink:href="#DejaVuSans-49"/>
       <use x="517.529297" xlink:href="#DejaVuSans-50"/>
      </g>
     </g>
    </g>
    <g id="xtick_5">
     <g id="line2d_9">
      <path clip-path="url(#p18f6435c1c)" d="M 487.109506 390.04 
L 487.109506 10.8 
" style="fill:none;stroke:#808080;stroke-linecap:square;stroke-opacity:0.2;"/>
     </g>
     <g id="line2d_10">
      <g>
       <use style="stroke:#000000;stroke-width:0.8;" x="487.109506" xlink:href="#m24d89e3bea" y="390.04"/>
      </g>
     </g>
     <g id="text_5">
      <!-- 2019-12-26 -->
      <defs>
       <path d="M 33.015625 40.375 
Q 26.375 40.375 22.484375 35.828125 
Q 18.609375 31.296875 18.609375 23.390625 
Q 18.609375 15.53125 22.484375 10.953125 
Q 26.375 6.390625 33.015625 6.390625 
Q 39.65625 6.390625 43.53125 10.953125 
Q 47.40625 15.53125 47.40625 23.390625 
Q 47.40625 31.296875 43.53125 35.828125 
Q 39.65625 40.375 33.015625 40.375 
z
M 52.59375 71.296875 
L 52.59375 62.3125 
Q 48.875 64.0625 45.09375 64.984375 
Q 41.3125 65.921875 37.59375 65.921875 
Q 27.828125 65.921875 22.671875 59.328125 
Q 17.53125 52.734375 16.796875 39.40625 
Q 19.671875 43.65625 24.015625 45.921875 
Q 28.375 48.1875 33.59375 48.1875 
Q 44.578125 48.1875 50.953125 41.515625 
Q 57.328125 34.859375 57.328125 23.390625 
Q 57.328125 12.15625 50.6875 5.359375 
Q 44.046875 -1.421875 33.015625 -1.421875 
Q 20.359375 -1.421875 13.671875 8.265625 
Q 6.984375 17.96875 6.984375 36.375 
Q 6.984375 53.65625 15.1875 63.9375 
Q 23.390625 74.21875 37.203125 74.21875 
Q 40.921875 74.21875 44.703125 73.484375 
Q 48.484375 72.75 52.59375 71.296875 
z
" id="DejaVuSans-54"/>
      </defs>
      <g transform="translate(458.051693 404.638438)scale(0.1 -0.1)">
       <use xlink:href="#DejaVuSans-50"/>
       <use x="63.623047" xlink:href="#DejaVuSans-48"/>
       <use x="127.246094" xlink:href="#DejaVuSans-49"/>
       <use x="190.869141" xlink:href="#DejaVuSans-57"/>
       <use x="254.492188" xlink:href="#DejaVuSans-45"/>
       <use x="290.576172" xlink:href="#DejaVuSans-49"/>
       <use x="354.199219" xlink:href="#DejaVuSans-50"/>
       <use x="417.822266" xlink:href="#DejaVuSans-45"/>
       <use x="453.90625" xlink:href="#DejaVuSans-50"/>
       <use x="517.529297" xlink:href="#DejaVuSans-54"/>
      </g>
     </g>
    </g>
    <g id="xtick_6">
     <g id="line2d_11">
      <path clip-path="url(#p18f6435c1c)" d="M 583.187914 390.04 
L 583.187914 10.8 
" style="fill:none;stroke:#808080;stroke-linecap:square;stroke-opacity:0.2;"/>
     </g>
     <g id="line2d_12">
      <g>
       <use style="stroke:#000000;stroke-width:0.8;" x="583.187914" xlink:href="#m24d89e3bea" y="390.04"/>
      </g>
     </g>
     <g id="text_6">
      <!-- 2020-01-09 -->
      <g transform="translate(554.130102 404.638438)scale(0.1 -0.1)">
       <use xlink:href="#DejaVuSans-50"/>
       <use x="63.623047" xlink:href="#DejaVuSans-48"/>
       <use x="127.246094" xlink:href="#DejaVuSans-50"/>
       <use x="190.869141" xlink:href="#DejaVuSans-48"/>
       <use x="254.492188" xlink:href="#DejaVuSans-45"/>
       <use x="290.576172" xlink:href="#DejaVuSans-48"/>
       <use x="354.199219" xlink:href="#DejaVuSans-49"/>
       <use x="417.822266" xlink:href="#DejaVuSans-45"/>
       <use x="453.90625" xlink:href="#DejaVuSans-48"/>
       <use x="517.529297" xlink:href="#DejaVuSans-57"/>
      </g>
     </g>
    </g>
    <g id="xtick_7">
     <g id="line2d_13">
      <path clip-path="url(#p18f6435c1c)" d="M 679.266323 390.04 
L 679.266323 10.8 
" style="fill:none;stroke:#808080;stroke-linecap:square;stroke-opacity:0.2;"/>
     </g>
     <g id="line2d_14">
      <g>
       <use style="stroke:#000000;stroke-width:0.8;" x="679.266323" xlink:href="#m24d89e3bea" y="390.04"/>
      </g>
     </g>
     <g id="text_7">
      <!-- 2020-01-23 -->
      <g transform="translate(650.20851 404.638438)scale(0.1 -0.1)">
       <use xlink:href="#DejaVuSans-50"/>
       <use x="63.623047" xlink:href="#DejaVuSans-48"/>
       <use x="127.246094" xlink:href="#DejaVuSans-50"/>
       <use x="190.869141" xlink:href="#DejaVuSans-48"/>
       <use x="254.492188" xlink:href="#DejaVuSans-45"/>
       <use x="290.576172" xlink:href="#DejaVuSans-48"/>
       <use x="354.199219" xlink:href="#DejaVuSans-49"/>
       <use x="417.822266" xlink:href="#DejaVuSans-45"/>
       <use x="453.90625" xlink:href="#DejaVuSans-50"/>
       <use x="517.529297" xlink:href="#DejaVuSans-51"/>
      </g>
     </g>
    </g>
    <g id="text_8">
     <!-- ds -->
     <defs>
      <path d="M 45.40625 46.390625 
L 45.40625 75.984375 
L 54.390625 75.984375 
L 54.390625 0 
L 45.40625 0 
L 45.40625 8.203125 
Q 42.578125 3.328125 38.25 0.953125 
Q 33.9375 -1.421875 27.875 -1.421875 
Q 17.96875 -1.421875 11.734375 6.484375 
Q 5.515625 14.40625 5.515625 27.296875 
Q 5.515625 40.1875 11.734375 48.09375 
Q 17.96875 56 27.875 56 
Q 33.9375 56 38.25 53.625 
Q 42.578125 51.265625 45.40625 46.390625 
z
M 14.796875 27.296875 
Q 14.796875 17.390625 18.875 11.75 
Q 22.953125 6.109375 30.078125 6.109375 
Q 37.203125 6.109375 41.296875 11.75 
Q 45.40625 17.390625 45.40625 27.296875 
Q 45.40625 37.203125 41.296875 42.84375 
Q 37.203125 48.484375 30.078125 48.484375 
Q 22.953125 48.484375 18.875 42.84375 
Q 14.796875 37.203125 14.796875 27.296875 
z
" id="DejaVuSans-100"/>
      <path d="M 44.28125 53.078125 
L 44.28125 44.578125 
Q 40.484375 46.53125 36.375 47.5 
Q 32.28125 48.484375 27.875 48.484375 
Q 21.1875 48.484375 17.84375 46.4375 
Q 14.5 44.390625 14.5 40.28125 
Q 14.5 37.15625 16.890625 35.375 
Q 19.28125 33.59375 26.515625 31.984375 
L 29.59375 31.296875 
Q 39.15625 29.25 43.1875 25.515625 
Q 47.21875 21.78125 47.21875 15.09375 
Q 47.21875 7.46875 41.1875 3.015625 
Q 35.15625 -1.421875 24.609375 -1.421875 
Q 20.21875 -1.421875 15.453125 -0.5625 
Q 10.6875 0.296875 5.421875 2 
L 5.421875 11.28125 
Q 10.40625 8.6875 15.234375 7.390625 
Q 20.0625 6.109375 24.8125 6.109375 
Q 31.15625 6.109375 34.5625 8.28125 
Q 37.984375 10.453125 37.984375 14.40625 
Q 37.984375 18.0625 35.515625 20.015625 
Q 33.0625 21.96875 24.703125 23.78125 
L 21.578125 24.515625 
Q 13.234375 26.265625 9.515625 29.90625 
Q 5.8125 33.546875 5.8125 39.890625 
Q 5.8125 47.609375 11.28125 51.796875 
Q 16.75 56 26.8125 56 
Q 31.78125 56 36.171875 55.265625 
Q 40.578125 54.546875 44.28125 53.078125 
z
" id="DejaVuSans-115"/>
     </defs>
     <g transform="translate(368.095333 418.316562)scale(0.1 -0.1)">
      <use xlink:href="#DejaVuSans-100"/>
      <use x="63.476562" xlink:href="#DejaVuSans-115"/>
     </g>
    </g>
   </g>
   <g id="matplotlib.axis_2">
    <g id="ytick_1">
     <g id="line2d_15">
      <path clip-path="url(#p18f6435c1c)" d="M 60.59 352.402878 
L 687.158478 352.402878 
" style="fill:none;stroke:#808080;stroke-linecap:square;stroke-opacity:0.2;"/>
     </g>
     <g id="line2d_16">
      <defs>
       <path d="M 0 0 
L -3.5 0 
" id="m408f2405c2" style="stroke:#000000;stroke-width:0.8;"/>
      </defs>
      <g>
       <use style="stroke:#000000;stroke-width:0.8;" x="60.59" xlink:href="#m408f2405c2" y="352.402878"/>
      </g>
     </g>
     <g id="text_9">
      <!-- 145.0 -->
      <defs>
       <path d="M 10.796875 72.90625 
L 49.515625 72.90625 
L 49.515625 64.59375 
L 19.828125 64.59375 
L 19.828125 46.734375 
Q 21.96875 47.46875 24.109375 47.828125 
Q 26.265625 48.1875 28.421875 48.1875 
Q 40.625 48.1875 47.75 41.5 
Q 54.890625 34.8125 54.890625 23.390625 
Q 54.890625 11.625 47.5625 5.09375 
Q 40.234375 -1.421875 26.90625 -1.421875 
Q 22.3125 -1.421875 17.546875 -0.640625 
Q 12.796875 0.140625 7.71875 1.703125 
L 7.71875 11.625 
Q 12.109375 9.234375 16.796875 8.0625 
Q 21.484375 6.890625 26.703125 6.890625 
Q 35.15625 6.890625 40.078125 11.328125 
Q 45.015625 15.765625 45.015625 23.390625 
Q 45.015625 31 40.078125 35.4375 
Q 35.15625 39.890625 26.703125 39.890625 
Q 22.75 39.890625 18.8125 39.015625 
Q 14.890625 38.140625 10.796875 36.28125 
z
" id="DejaVuSans-53"/>
       <path d="M 10.6875 12.40625 
L 21 12.40625 
L 21 0 
L 10.6875 0 
z
" id="DejaVuSans-46"/>
      </defs>
      <g transform="translate(24.961875 356.202097)scale(0.1 -0.1)">
       <use xlink:href="#DejaVuSans-49"/>
       <use x="63.623047" xlink:href="#DejaVuSans-52"/>
       <use x="127.246094" xlink:href="#DejaVuSans-53"/>
       <use x="190.869141" xlink:href="#DejaVuSans-46"/>
       <use x="222.65625" xlink:href="#DejaVuSans-48"/>
      </g>
     </g>
    </g>
    <g id="ytick_2">
     <g id="line2d_17">
      <path clip-path="url(#p18f6435c1c)" d="M 60.59 307.352226 
L 687.158478 307.352226 
" style="fill:none;stroke:#808080;stroke-linecap:square;stroke-opacity:0.2;"/>
     </g>
     <g id="line2d_18">
      <g>
       <use style="stroke:#000000;stroke-width:0.8;" x="60.59" xlink:href="#m408f2405c2" y="307.352226"/>
      </g>
     </g>
     <g id="text_10">
      <!-- 147.5 -->
      <defs>
       <path d="M 8.203125 72.90625 
L 55.078125 72.90625 
L 55.078125 68.703125 
L 28.609375 0 
L 18.3125 0 
L 43.21875 64.59375 
L 8.203125 64.59375 
z
" id="DejaVuSans-55"/>
      </defs>
      <g transform="translate(24.961875 311.151445)scale(0.1 -0.1)">
       <use xlink:href="#DejaVuSans-49"/>
       <use x="63.623047" xlink:href="#DejaVuSans-52"/>
       <use x="127.246094" xlink:href="#DejaVuSans-55"/>
       <use x="190.869141" xlink:href="#DejaVuSans-46"/>
       <use x="222.65625" xlink:href="#DejaVuSans-53"/>
      </g>
     </g>
    </g>
    <g id="ytick_3">
     <g id="line2d_19">
      <path clip-path="url(#p18f6435c1c)" d="M 60.59 262.301574 
L 687.158478 262.301574 
" style="fill:none;stroke:#808080;stroke-linecap:square;stroke-opacity:0.2;"/>
     </g>
     <g id="line2d_20">
      <g>
       <use style="stroke:#000000;stroke-width:0.8;" x="60.59" xlink:href="#m408f2405c2" y="262.301574"/>
      </g>
     </g>
     <g id="text_11">
      <!-- 150.0 -->
      <g transform="translate(24.961875 266.100793)scale(0.1 -0.1)">
       <use xlink:href="#DejaVuSans-49"/>
       <use x="63.623047" xlink:href="#DejaVuSans-53"/>
       <use x="127.246094" xlink:href="#DejaVuSans-48"/>
       <use x="190.869141" xlink:href="#DejaVuSans-46"/>
       <use x="222.65625" xlink:href="#DejaVuSans-48"/>
      </g>
     </g>
    </g>
    <g id="ytick_4">
     <g id="line2d_21">
      <path clip-path="url(#p18f6435c1c)" d="M 60.59 217.250921 
L 687.158478 217.250921 
" style="fill:none;stroke:#808080;stroke-linecap:square;stroke-opacity:0.2;"/>
     </g>
     <g id="line2d_22">
      <g>
       <use style="stroke:#000000;stroke-width:0.8;" x="60.59" xlink:href="#m408f2405c2" y="217.250921"/>
      </g>
     </g>
     <g id="text_12">
      <!-- 152.5 -->
      <g transform="translate(24.961875 221.05014)scale(0.1 -0.1)">
       <use xlink:href="#DejaVuSans-49"/>
       <use x="63.623047" xlink:href="#DejaVuSans-53"/>
       <use x="127.246094" xlink:href="#DejaVuSans-50"/>
       <use x="190.869141" xlink:href="#DejaVuSans-46"/>
       <use x="222.65625" xlink:href="#DejaVuSans-53"/>
      </g>
     </g>
    </g>
    <g id="ytick_5">
     <g id="line2d_23">
      <path clip-path="url(#p18f6435c1c)" d="M 60.59 172.200269 
L 687.158478 172.200269 
" style="fill:none;stroke:#808080;stroke-linecap:square;stroke-opacity:0.2;"/>
     </g>
     <g id="line2d_24">
      <g>
       <use style="stroke:#000000;stroke-width:0.8;" x="60.59" xlink:href="#m408f2405c2" y="172.200269"/>
      </g>
     </g>
     <g id="text_13">
      <!-- 155.0 -->
      <g transform="translate(24.961875 175.999488)scale(0.1 -0.1)">
       <use xlink:href="#DejaVuSans-49"/>
       <use x="63.623047" xlink:href="#DejaVuSans-53"/>
       <use x="127.246094" xlink:href="#DejaVuSans-53"/>
       <use x="190.869141" xlink:href="#DejaVuSans-46"/>
       <use x="222.65625" xlink:href="#DejaVuSans-48"/>
      </g>
     </g>
    </g>
    <g id="ytick_6">
     <g id="line2d_25">
      <path clip-path="url(#p18f6435c1c)" d="M 60.59 127.149617 
L 687.158478 127.149617 
" style="fill:none;stroke:#808080;stroke-linecap:square;stroke-opacity:0.2;"/>
     </g>
     <g id="line2d_26">
      <g>
       <use style="stroke:#000000;stroke-width:0.8;" x="60.59" xlink:href="#m408f2405c2" y="127.149617"/>
      </g>
     </g>
     <g id="text_14">
      <!-- 157.5 -->
      <g transform="translate(24.961875 130.948836)scale(0.1 -0.1)">
       <use xlink:href="#DejaVuSans-49"/>
       <use x="63.623047" xlink:href="#DejaVuSans-53"/>
       <use x="127.246094" xlink:href="#DejaVuSans-55"/>
       <use x="190.869141" xlink:href="#DejaVuSans-46"/>
       <use x="222.65625" xlink:href="#DejaVuSans-53"/>
      </g>
     </g>
    </g>
    <g id="ytick_7">
     <g id="line2d_27">
      <path clip-path="url(#p18f6435c1c)" d="M 60.59 82.098965 
L 687.158478 82.098965 
" style="fill:none;stroke:#808080;stroke-linecap:square;stroke-opacity:0.2;"/>
     </g>
     <g id="line2d_28">
      <g>
       <use style="stroke:#000000;stroke-width:0.8;" x="60.59" xlink:href="#m408f2405c2" y="82.098965"/>
      </g>
     </g>
     <g id="text_15">
      <!-- 160.0 -->
      <g transform="translate(24.961875 85.898183)scale(0.1 -0.1)">
       <use xlink:href="#DejaVuSans-49"/>
       <use x="63.623047" xlink:href="#DejaVuSans-54"/>
       <use x="127.246094" xlink:href="#DejaVuSans-48"/>
       <use x="190.869141" xlink:href="#DejaVuSans-46"/>
       <use x="222.65625" xlink:href="#DejaVuSans-48"/>
      </g>
     </g>
    </g>
    <g id="ytick_8">
     <g id="line2d_29">
      <path clip-path="url(#p18f6435c1c)" d="M 60.59 37.048312 
L 687.158478 37.048312 
" style="fill:none;stroke:#808080;stroke-linecap:square;stroke-opacity:0.2;"/>
     </g>
     <g id="line2d_30">
      <g>
       <use style="stroke:#000000;stroke-width:0.8;" x="60.59" xlink:href="#m408f2405c2" y="37.048312"/>
      </g>
     </g>
     <g id="text_16">
      <!-- 162.5 -->
      <g transform="translate(24.961875 40.847531)scale(0.1 -0.1)">
       <use xlink:href="#DejaVuSans-49"/>
       <use x="63.623047" xlink:href="#DejaVuSans-54"/>
       <use x="127.246094" xlink:href="#DejaVuSans-50"/>
       <use x="190.869141" xlink:href="#DejaVuSans-46"/>
       <use x="222.65625" xlink:href="#DejaVuSans-53"/>
      </g>
     </g>
    </g>
    <g id="text_17">
     <!-- y -->
     <defs>
      <path d="M 32.171875 -5.078125 
Q 28.375 -14.84375 24.75 -17.8125 
Q 21.140625 -20.796875 15.09375 -20.796875 
L 7.90625 -20.796875 
L 7.90625 -13.28125 
L 13.1875 -13.28125 
Q 16.890625 -13.28125 18.9375 -11.515625 
Q 21 -9.765625 23.484375 -3.21875 
L 25.09375 0.875 
L 2.984375 54.6875 
L 12.5 54.6875 
L 29.59375 11.921875 
L 46.6875 54.6875 
L 56.203125 54.6875 
z
" id="DejaVuSans-121"/>
     </defs>
     <g transform="translate(18.882188 203.379375)rotate(-90)scale(0.1 -0.1)">
      <use xlink:href="#DejaVuSans-121"/>
     </g>
    </g>
   </g>
   <g id="line2d_31">
    <defs>
     <path d="M 0 1.5 
C 0.397805 1.5 0.77937 1.341951 1.06066 1.06066 
C 1.341951 0.77937 1.5 0.397805 1.5 0 
C 1.5 -0.397805 1.341951 -0.77937 1.06066 -1.06066 
C 0.77937 -1.341951 0.397805 -1.5 0 -1.5 
C -0.397805 -1.5 -0.77937 -1.341951 -1.06066 -1.06066 
C -1.341951 -0.77937 -1.5 -0.397805 -1.5 0 
C -1.5 0.397805 -1.341951 0.77937 -1.06066 1.06066 
C -0.77937 1.341951 -0.397805 1.5 0 1.5 
z
" id="mc43505bd39" style="stroke:#000000;"/>
    </defs>
    <g clip-path="url(#p18f6435c1c)">
     <use style="stroke:#000000;" x="89.070385" xlink:href="#mc43505bd39" y="262.301574"/>
     <use style="stroke:#000000;" x="95.933129" xlink:href="#mc43505bd39" y="334.382617"/>
     <use style="stroke:#000000;" x="109.658616" xlink:href="#mc43505bd39" y="190.22053"/>
     <use style="stroke:#000000;" x="116.521359" xlink:href="#mc43505bd39" y="298.342096"/>
     <use style="stroke:#000000;" x="130.246846" xlink:href="#mc43505bd39" y="262.301574"/>
     <use style="stroke:#000000;" x="137.10959" xlink:href="#mc43505bd39" y="244.281313"/>
     <use style="stroke:#000000;" x="150.835076" xlink:href="#mc43505bd39" y="226.261052"/>
     <use style="stroke:#000000;" x="157.69782" xlink:href="#mc43505bd39" y="352.402878"/>
     <use style="stroke:#000000;" x="171.423307" xlink:href="#mc43505bd39" y="226.261052"/>
     <use style="stroke:#000000;" x="178.28605" xlink:href="#mc43505bd39" y="316.362357"/>
     <use style="stroke:#000000;" x="192.011537" xlink:href="#mc43505bd39" y="208.240791"/>
     <use style="stroke:#000000;" x="198.874281" xlink:href="#mc43505bd39" y="352.402878"/>
     <use style="stroke:#000000;" x="212.599768" xlink:href="#mc43505bd39" y="118.139486"/>
     <use style="stroke:#000000;" x="219.462511" xlink:href="#mc43505bd39" y="154.180008"/>
     <use style="stroke:#000000;" x="233.187998" xlink:href="#mc43505bd39" y="190.22053"/>
     <use style="stroke:#000000;" x="240.050741" xlink:href="#mc43505bd39" y="262.301574"/>
     <use style="stroke:#000000;" x="253.776228" xlink:href="#mc43505bd39" y="172.200269"/>
     <use style="stroke:#000000;" x="260.638972" xlink:href="#mc43505bd39" y="190.22053"/>
     <use style="stroke:#000000;" x="274.364459" xlink:href="#mc43505bd39" y="82.098965"/>
     <use style="stroke:#000000;" x="281.227202" xlink:href="#mc43505bd39" y="100.119226"/>
     <use style="stroke:#000000;" x="294.952689" xlink:href="#mc43505bd39" y="172.200269"/>
     <use style="stroke:#000000;" x="301.815432" xlink:href="#mc43505bd39" y="190.22053"/>
     <use style="stroke:#000000;" x="315.540919" xlink:href="#mc43505bd39" y="244.281313"/>
     <use style="stroke:#000000;" x="322.403663" xlink:href="#mc43505bd39" y="226.261052"/>
     <use style="stroke:#000000;" x="336.12915" xlink:href="#mc43505bd39" y="226.261052"/>
     <use style="stroke:#000000;" x="342.991893" xlink:href="#mc43505bd39" y="154.180008"/>
     <use style="stroke:#000000;" x="356.71738" xlink:href="#mc43505bd39" y="136.159747"/>
     <use style="stroke:#000000;" x="363.580124" xlink:href="#mc43505bd39" y="262.301574"/>
     <use style="stroke:#000000;" x="377.305611" xlink:href="#mc43505bd39" y="136.159747"/>
     <use style="stroke:#000000;" x="384.168354" xlink:href="#mc43505bd39" y="118.139486"/>
     <use style="stroke:#000000;" x="397.893841" xlink:href="#mc43505bd39" y="100.119226"/>
     <use style="stroke:#000000;" x="404.756584" xlink:href="#mc43505bd39" y="172.200269"/>
     <use style="stroke:#000000;" x="418.482071" xlink:href="#mc43505bd39" y="118.139486"/>
     <use style="stroke:#000000;" x="425.344815" xlink:href="#mc43505bd39" y="28.038182"/>
     <use style="stroke:#000000;" x="439.070302" xlink:href="#mc43505bd39" y="82.098965"/>
     <use style="stroke:#000000;" x="445.933045" xlink:href="#mc43505bd39" y="64.078704"/>
     <use style="stroke:#000000;" x="459.658532" xlink:href="#mc43505bd39" y="82.098965"/>
     <use style="stroke:#000000;" x="466.521275" xlink:href="#mc43505bd39" y="154.180008"/>
     <use style="stroke:#000000;" x="480.246762" xlink:href="#mc43505bd39" y="244.281313"/>
     <use style="stroke:#000000;" x="487.109506" xlink:href="#mc43505bd39" y="64.078704"/>
     <use style="stroke:#000000;" x="500.834993" xlink:href="#mc43505bd39" y="82.098965"/>
     <use style="stroke:#000000;" x="507.697736" xlink:href="#mc43505bd39" y="100.119226"/>
     <use style="stroke:#000000;" x="521.423223" xlink:href="#mc43505bd39" y="316.362357"/>
     <use style="stroke:#000000;" x="528.285967" xlink:href="#mc43505bd39" y="82.098965"/>
     <use style="stroke:#000000;" x="542.011453" xlink:href="#mc43505bd39" y="82.098965"/>
     <use style="stroke:#000000;" x="548.874197" xlink:href="#mc43505bd39" y="208.240791"/>
     <use style="stroke:#000000;" x="562.599684" xlink:href="#mc43505bd39" y="190.22053"/>
     <use style="stroke:#000000;" x="569.462427" xlink:href="#mc43505bd39" y="118.139486"/>
     <use style="stroke:#000000;" x="583.187914" xlink:href="#mc43505bd39" y="154.180008"/>
     <use style="stroke:#000000;" x="590.050658" xlink:href="#mc43505bd39" y="208.240791"/>
     <use style="stroke:#000000;" x="603.776145" xlink:href="#mc43505bd39" y="64.078704"/>
     <use style="stroke:#000000;" x="610.638888" xlink:href="#mc43505bd39" y="154.180008"/>
     <use style="stroke:#000000;" x="624.364375" xlink:href="#mc43505bd39" y="136.159747"/>
     <use style="stroke:#000000;" x="631.227118" xlink:href="#mc43505bd39" y="154.180008"/>
     <use style="stroke:#000000;" x="644.952605" xlink:href="#mc43505bd39" y="208.240791"/>
     <use style="stroke:#000000;" x="651.815349" xlink:href="#mc43505bd39" y="100.119226"/>
    </g>
   </g>
   <g id="line2d_32">
    <path clip-path="url(#p18f6435c1c)" d="M 89.070385 266.021212 
L 95.933129 295.868867 
L 109.658616 257.265866 
L 116.521359 266.84014 
L 130.246846 271.01396 
L 137.10959 244.33776 
L 150.835076 247.812707 
L 157.69782 235.582413 
L 171.423307 226.394315 
L 178.28605 249.330507 
L 192.011537 252.501961 
L 198.874281 226.129254 
L 212.599768 223.473234 
L 219.462511 204.710863 
L 233.187998 200.970854 
L 240.050741 230.818561 
L 253.776228 192.215665 
L 260.638972 201.789991 
L 274.364459 205.975922 
L 281.227202 179.305777 
L 294.952689 182.838746 
L 301.815432 170.637463 
L 315.540919 161.528062 
L 322.403663 184.503605 
L 336.12915 187.75376 
L 342.991893 161.420403 
L 356.71738 158.843083 
L 363.580124 140.124365 
L 377.305611 136.471662 
L 384.168354 166.380524 
L 397.893841 127.900627 
L 404.756584 137.536453 
L 418.482071 141.859193 
L 425.344815 115.257453 
L 439.070302 126.199588 
L 445.933045 117.716847 
L 459.658532 116.023857 
L 466.521275 142.711821 
L 480.246762 153.386819 
L 487.109506 130.766023 
L 500.834993 135.613824 
L 507.697736 120.603364 
L 521.423223 124.367178 
L 528.285967 157.966744 
L 542.011453 126.867565 
L 548.874197 140.193749 
L 562.599684 151.871392 
L 569.462427 128.947103 
L 583.187914 139.925872 
L 590.050658 131.44749 
L 603.776145 129.763214 
L 610.638888 156.451317 
L 624.364375 167.126593 
L 631.227118 144.505797 
L 644.952605 149.353599 
L 651.815349 134.343139 
L 658.678092 161.031242 
" style="fill:none;stroke:#0072b2;stroke-linecap:square;stroke-width:1.5;"/>
   </g>
   <g id="patch_3">
    <path d="M 60.59 390.04 
L 60.59 10.8 
" style="fill:none;stroke:#000000;stroke-linecap:square;stroke-linejoin:miter;stroke-width:0.8;"/>
   </g>
   <g id="patch_4">
    <path d="M 687.158478 390.04 
L 687.158478 10.8 
" style="fill:none;stroke:#000000;stroke-linecap:square;stroke-linejoin:miter;stroke-width:0.8;"/>
   </g>
   <g id="patch_5">
    <path d="M 60.59 390.04 
L 687.158478 390.04 
" style="fill:none;stroke:#000000;stroke-linecap:square;stroke-linejoin:miter;stroke-width:0.8;"/>
   </g>
   <g id="patch_6">
    <path d="M 60.59 10.8 
L 687.158478 10.8 
" style="fill:none;stroke:#000000;stroke-linecap:square;stroke-linejoin:miter;stroke-width:0.8;"/>
   </g>
  </g>
 </g>
 <defs>
  <clipPath id="p18f6435c1c">
   <rect height="379.24" width="626.568478" x="60.59" y="10.8"/>
  </clipPath>
 </defs>
</svg>
