<?xml version="1.0" encoding="utf-8" standalone="no"?>
<!DOCTYPE svg PUBLIC "-//W3C//DTD SVG 1.1//EN"
  "http://www.w3.org/Graphics/SVG/1.1/DTD/svg11.dtd">
<!-- Created with matplotlib (https://matplotlib.org/) -->
<svg height="432pt" version="1.1" viewBox="0 0 720 432" width="720pt" xmlns="http://www.w3.org/2000/svg" xmlns:xlink="http://www.w3.org/1999/xlink">
 <defs>
  <style type="text/css">
*{stroke-linecap:butt;stroke-linejoin:round;}
  </style>
 </defs>
 <g id="figure_1">
  <g id="patch_1">
   <path d="M 0 432 
L 720 432 
L 720 0 
L 0 0 
z
" style="fill:#ffffff;"/>
  </g>
  <g id="axes_1">
   <g id="patch_2">
    <path d="M 60.59 390.04 
L 687.158478 390.04 
L 687.158478 12.697613 
L 60.59 12.697613 
z
" style="fill:#ffffff;"/>
   </g>
   <g id="PolyCollection_1">
    <defs>
     <path d="M 89.070385 -392.488201 
L 89.070385 -236.490822 
L 95.933129 -215.983799 
L 109.658616 -246.197921 
L 116.521359 -208.497644 
L 130.246846 -169.46352 
L 137.10959 -221.565336 
L 150.835076 -181.751904 
L 157.69782 -235.834203 
L 171.423307 -186.314727 
L 178.28605 -151.209025 
L 192.011537 -184.992452 
L 198.874281 -171.039177 
L 212.599768 -175.699709 
L 219.462511 -172.034217 
L 233.187998 -191.704296 
L 240.050741 -167.848638 
L 253.776228 -200.472174 
L 260.638972 -161.659554 
L 274.364459 -128.140066 
L 281.227202 -175.906017 
L 294.952689 -147.081642 
L 301.815432 -184.694924 
L 315.540919 -141.401884 
L 322.403663 -113.468283 
L 336.12915 -153.196808 
L 342.991893 -137.722726 
L 356.71738 -148.459069 
L 363.580124 -147.618918 
L 377.305611 -174.813271 
L 384.168354 -150.606064 
L 397.893841 -184.65341 
L 404.756584 -153.382764 
L 418.482071 -117.832799 
L 425.344815 -170.231269 
L 445.933045 -193.154614 
L 459.658532 -156.169371 
L 466.521275 -119.154762 
L 480.246762 -156.32285 
L 487.109506 -151.44729 
L 500.834993 -166.005736 
L 507.697736 -158.007895 
L 521.423223 -175.455122 
L 528.285967 -158.601297 
L 542.011453 -204.189666 
L 548.874197 -156.004855 
L 562.599684 -122.670819 
L 569.462427 -175.386526 
L 583.187914 -161.695158 
L 590.050658 -204.321148 
L 603.776145 -157.896657 
L 610.638888 -131.610073 
L 624.364375 -164.281355 
L 631.227118 -163.8846 
L 644.952605 -167.618534 
L 651.815349 -164.044306 
L 658.678092 -127.801499 
L 658.678092 -279.518187 
L 658.678092 -279.518187 
L 651.815349 -319.346098 
L 644.952605 -320.117639 
L 631.227118 -312.756743 
L 624.364375 -317.242336 
L 610.638888 -281.319236 
L 603.776145 -314.655233 
L 590.050658 -358.53853 
L 583.187914 -313.252503 
L 569.462427 -330.905681 
L 562.599684 -277.706833 
L 548.874197 -307.774248 
L 542.011453 -351.903119 
L 528.285967 -310.232984 
L 521.423223 -327.060674 
L 507.697736 -307.119158 
L 500.834993 -308.695986 
L 487.109506 -303.175098 
L 480.246762 -310.274094 
L 466.521275 -278.078242 
L 459.658532 -307.367327 
L 445.933045 -342.017236 
L 425.344815 -323.39018 
L 418.482071 -269.762168 
L 404.756584 -301.732038 
L 397.893841 -340.86411 
L 384.168354 -306.730322 
L 377.305611 -317.088983 
L 363.580124 -298.742578 
L 356.71738 -302.924135 
L 342.991893 -297.00454 
L 336.12915 -306.877713 
L 322.403663 -263.934995 
L 315.540919 -289.760508 
L 301.815432 -346.785161 
L 294.952689 -298.976815 
L 281.227202 -326.291324 
L 274.364459 -275.060189 
L 260.638972 -313.95303 
L 253.776228 -355.251705 
L 240.050741 -321.772224 
L 233.187998 -342.359222 
L 219.462511 -332.412961 
L 212.599768 -328.291257 
L 198.874281 -328.41404 
L 192.011537 -339.347944 
L 178.28605 -306.730829 
L 171.423307 -347.208076 
L 157.69782 -388.005312 
L 150.835076 -339.344705 
L 137.10959 -373.195536 
L 130.246846 -321.007389 
L 116.521359 -362.492954 
L 109.658616 -402.15046 
L 95.933129 -368.607564 
L 89.070385 -392.488201 
z
" id="md7f81dbc2a" style="stroke:#0072b2;stroke-opacity:0.2;"/>
    </defs>
    <g clip-path="url(#pbc73ad1a8b)">
     <use style="fill:#0072b2;fill-opacity:0.2;stroke:#0072b2;stroke-opacity:0.2;" x="0" xlink:href="#md7f81dbc2a" y="432"/>
    </g>
   </g>
   <g id="matplotlib.axis_1">
    <g id="xtick_1">
     <g id="line2d_1">
      <path clip-path="url(#pbc73ad1a8b)" d="M 102.795872 390.04 
L 102.795872 12.697613 
" style="fill:none;stroke:#808080;stroke-linecap:square;stroke-opacity:0.2;"/>
     </g>
     <g id="line2d_2">
      <defs>
       <path d="M 0 0 
L 0 3.5 
" id="m6aa75cf62f" style="stroke:#000000;stroke-width:0.8;"/>
      </defs>
      <g>
       <use style="stroke:#000000;stroke-width:0.8;" x="102.795872" xlink:href="#m6aa75cf62f" y="390.04"/>
      </g>
     </g>
     <g id="text_1">
      <!-- 2019-12-15 -->
      <defs>
       <path d="M 19.1875 8.296875 
L 53.609375 8.296875 
L 53.609375 0 
L 7.328125 0 
L 7.328125 8.296875 
Q 12.9375 14.109375 22.625 23.890625 
Q 32.328125 33.6875 34.8125 36.53125 
Q 39.546875 41.84375 41.421875 45.53125 
Q 43.3125 49.21875 43.3125 52.78125 
Q 43.3125 58.59375 39.234375 62.25 
Q 35.15625 65.921875 28.609375 65.921875 
Q 23.96875 65.921875 18.8125 64.3125 
Q 13.671875 62.703125 7.8125 59.421875 
L 7.8125 69.390625 
Q 13.765625 71.78125 18.9375 73 
Q 24.125 74.21875 28.421875 74.21875 
Q 39.75 74.21875 46.484375 68.546875 
Q 53.21875 62.890625 53.21875 53.421875 
Q 53.21875 48.921875 51.53125 44.890625 
Q 49.859375 40.875 45.40625 35.40625 
Q 44.1875 33.984375 37.640625 27.21875 
Q 31.109375 20.453125 19.1875 8.296875 
z
" id="DejaVuSans-50"/>
       <path d="M 31.78125 66.40625 
Q 24.171875 66.40625 20.328125 58.90625 
Q 16.5 51.421875 16.5 36.375 
Q 16.5 21.390625 20.328125 13.890625 
Q 24.171875 6.390625 31.78125 6.390625 
Q 39.453125 6.390625 43.28125 13.890625 
Q 47.125 21.390625 47.125 36.375 
Q 47.125 51.421875 43.28125 58.90625 
Q 39.453125 66.40625 31.78125 66.40625 
z
M 31.78125 74.21875 
Q 44.046875 74.21875 50.515625 64.515625 
Q 56.984375 54.828125 56.984375 36.375 
Q 56.984375 17.96875 50.515625 8.265625 
Q 44.046875 -1.421875 31.78125 -1.421875 
Q 19.53125 -1.421875 13.0625 8.265625 
Q 6.59375 17.96875 6.59375 36.375 
Q 6.59375 54.828125 13.0625 64.515625 
Q 19.53125 74.21875 31.78125 74.21875 
z
" id="DejaVuSans-48"/>
       <path d="M 12.40625 8.296875 
L 28.515625 8.296875 
L 28.515625 63.921875 
L 10.984375 60.40625 
L 10.984375 69.390625 
L 28.421875 72.90625 
L 38.28125 72.90625 
L 38.28125 8.296875 
L 54.390625 8.296875 
L 54.390625 0 
L 12.40625 0 
z
" id="DejaVuSans-49"/>
       <path d="M 10.984375 1.515625 
L 10.984375 10.5 
Q 14.703125 8.734375 18.5 7.8125 
Q 22.3125 6.890625 25.984375 6.890625 
Q 35.75 6.890625 40.890625 13.453125 
Q 46.046875 20.015625 46.78125 33.40625 
Q 43.953125 29.203125 39.59375 26.953125 
Q 35.25 24.703125 29.984375 24.703125 
Q 19.046875 24.703125 12.671875 31.3125 
Q 6.296875 37.9375 6.296875 49.421875 
Q 6.296875 60.640625 12.9375 67.421875 
Q 19.578125 74.21875 30.609375 74.21875 
Q 43.265625 74.21875 49.921875 64.515625 
Q 56.59375 54.828125 56.59375 36.375 
Q 56.59375 19.140625 48.40625 8.859375 
Q 40.234375 -1.421875 26.421875 -1.421875 
Q 22.703125 -1.421875 18.890625 -0.6875 
Q 15.09375 0.046875 10.984375 1.515625 
z
M 30.609375 32.421875 
Q 37.25 32.421875 41.125 36.953125 
Q 45.015625 41.5 45.015625 49.421875 
Q 45.015625 57.28125 41.125 61.84375 
Q 37.25 66.40625 30.609375 66.40625 
Q 23.96875 66.40625 20.09375 61.84375 
Q 16.21875 57.28125 16.21875 49.421875 
Q 16.21875 41.5 20.09375 36.953125 
Q 23.96875 32.421875 30.609375 32.421875 
z
" id="DejaVuSans-57"/>
       <path d="M 4.890625 31.390625 
L 31.203125 31.390625 
L 31.203125 23.390625 
L 4.890625 23.390625 
z
" id="DejaVuSans-45"/>
       <path d="M 10.796875 72.90625 
L 49.515625 72.90625 
L 49.515625 64.59375 
L 19.828125 64.59375 
L 19.828125 46.734375 
Q 21.96875 47.46875 24.109375 47.828125 
Q 26.265625 48.1875 28.421875 48.1875 
Q 40.625 48.1875 47.75 41.5 
Q 54.890625 34.8125 54.890625 23.390625 
Q 54.890625 11.625 47.5625 5.09375 
Q 40.234375 -1.421875 26.90625 -1.421875 
Q 22.3125 -1.421875 17.546875 -0.640625 
Q 12.796875 0.140625 7.71875 1.703125 
L 7.71875 11.625 
Q 12.109375 9.234375 16.796875 8.0625 
Q 21.484375 6.890625 26.703125 6.890625 
Q 35.15625 6.890625 40.078125 11.328125 
Q 45.015625 15.765625 45.015625 23.390625 
Q 45.015625 31 40.078125 35.4375 
Q 35.15625 39.890625 26.703125 39.890625 
Q 22.75 39.890625 18.8125 39.015625 
Q 14.890625 38.140625 10.796875 36.28125 
z
" id="DejaVuSans-53"/>
      </defs>
      <g transform="translate(73.73806 404.638438)scale(0.1 -0.1)">
       <use xlink:href="#DejaVuSans-50"/>
       <use x="63.623047" xlink:href="#DejaVuSans-48"/>
       <use x="127.246094" xlink:href="#DejaVuSans-49"/>
       <use x="190.869141" xlink:href="#DejaVuSans-57"/>
       <use x="254.492188" xlink:href="#DejaVuSans-45"/>
       <use x="290.576172" xlink:href="#DejaVuSans-49"/>
       <use x="354.199219" xlink:href="#DejaVuSans-50"/>
       <use x="417.822266" xlink:href="#DejaVuSans-45"/>
       <use x="453.90625" xlink:href="#DejaVuSans-49"/>
       <use x="517.529297" xlink:href="#DejaVuSans-53"/>
      </g>
     </g>
    </g>
    <g id="xtick_2">
     <g id="line2d_3">
      <path clip-path="url(#pbc73ad1a8b)" d="M 198.874281 390.04 
L 198.874281 12.697613 
" style="fill:none;stroke:#808080;stroke-linecap:square;stroke-opacity:0.2;"/>
     </g>
     <g id="line2d_4">
      <g>
       <use style="stroke:#000000;stroke-width:0.8;" x="198.874281" xlink:href="#m6aa75cf62f" y="390.04"/>
      </g>
     </g>
     <g id="text_2">
      <!-- 2019-12-29 -->
      <g transform="translate(169.816468 404.638438)scale(0.1 -0.1)">
       <use xlink:href="#DejaVuSans-50"/>
       <use x="63.623047" xlink:href="#DejaVuSans-48"/>
       <use x="127.246094" xlink:href="#DejaVuSans-49"/>
       <use x="190.869141" xlink:href="#DejaVuSans-57"/>
       <use x="254.492188" xlink:href="#DejaVuSans-45"/>
       <use x="290.576172" xlink:href="#DejaVuSans-49"/>
       <use x="354.199219" xlink:href="#DejaVuSans-50"/>
       <use x="417.822266" xlink:href="#DejaVuSans-45"/>
       <use x="453.90625" xlink:href="#DejaVuSans-50"/>
       <use x="517.529297" xlink:href="#DejaVuSans-57"/>
      </g>
     </g>
    </g>
    <g id="xtick_3">
     <g id="line2d_5">
      <path clip-path="url(#pbc73ad1a8b)" d="M 294.952689 390.04 
L 294.952689 12.697613 
" style="fill:none;stroke:#808080;stroke-linecap:square;stroke-opacity:0.2;"/>
     </g>
     <g id="line2d_6">
      <g>
       <use style="stroke:#000000;stroke-width:0.8;" x="294.952689" xlink:href="#m6aa75cf62f" y="390.04"/>
      </g>
     </g>
     <g id="text_3">
      <!-- 2020-01-12 -->
      <g transform="translate(265.894877 404.638438)scale(0.1 -0.1)">
       <use xlink:href="#DejaVuSans-50"/>
       <use x="63.623047" xlink:href="#DejaVuSans-48"/>
       <use x="127.246094" xlink:href="#DejaVuSans-50"/>
       <use x="190.869141" xlink:href="#DejaVuSans-48"/>
       <use x="254.492188" xlink:href="#DejaVuSans-45"/>
       <use x="290.576172" xlink:href="#DejaVuSans-48"/>
       <use x="354.199219" xlink:href="#DejaVuSans-49"/>
       <use x="417.822266" xlink:href="#DejaVuSans-45"/>
       <use x="453.90625" xlink:href="#DejaVuSans-49"/>
       <use x="517.529297" xlink:href="#DejaVuSans-50"/>
      </g>
     </g>
    </g>
    <g id="xtick_4">
     <g id="line2d_7">
      <path clip-path="url(#pbc73ad1a8b)" d="M 391.031097 390.04 
L 391.031097 12.697613 
" style="fill:none;stroke:#808080;stroke-linecap:square;stroke-opacity:0.2;"/>
     </g>
     <g id="line2d_8">
      <g>
       <use style="stroke:#000000;stroke-width:0.8;" x="391.031097" xlink:href="#m6aa75cf62f" y="390.04"/>
      </g>
     </g>
     <g id="text_4">
      <!-- 2020-01-26 -->
      <defs>
       <path d="M 33.015625 40.375 
Q 26.375 40.375 22.484375 35.828125 
Q 18.609375 31.296875 18.609375 23.390625 
Q 18.609375 15.53125 22.484375 10.953125 
Q 26.375 6.390625 33.015625 6.390625 
Q 39.65625 6.390625 43.53125 10.953125 
Q 47.40625 15.53125 47.40625 23.390625 
Q 47.40625 31.296875 43.53125 35.828125 
Q 39.65625 40.375 33.015625 40.375 
z
M 52.59375 71.296875 
L 52.59375 62.3125 
Q 48.875 64.0625 45.09375 64.984375 
Q 41.3125 65.921875 37.59375 65.921875 
Q 27.828125 65.921875 22.671875 59.328125 
Q 17.53125 52.734375 16.796875 39.40625 
Q 19.671875 43.65625 24.015625 45.921875 
Q 28.375 48.1875 33.59375 48.1875 
Q 44.578125 48.1875 50.953125 41.515625 
Q 57.328125 34.859375 57.328125 23.390625 
Q 57.328125 12.15625 50.6875 5.359375 
Q 44.046875 -1.421875 33.015625 -1.421875 
Q 20.359375 -1.421875 13.671875 8.265625 
Q 6.984375 17.96875 6.984375 36.375 
Q 6.984375 53.65625 15.1875 63.9375 
Q 23.390625 74.21875 37.203125 74.21875 
Q 40.921875 74.21875 44.703125 73.484375 
Q 48.484375 72.75 52.59375 71.296875 
z
" id="DejaVuSans-54"/>
      </defs>
      <g transform="translate(361.973285 404.638438)scale(0.1 -0.1)">
       <use xlink:href="#DejaVuSans-50"/>
       <use x="63.623047" xlink:href="#DejaVuSans-48"/>
       <use x="127.246094" xlink:href="#DejaVuSans-50"/>
       <use x="190.869141" xlink:href="#DejaVuSans-48"/>
       <use x="254.492188" xlink:href="#DejaVuSans-45"/>
       <use x="290.576172" xlink:href="#DejaVuSans-48"/>
       <use x="354.199219" xlink:href="#DejaVuSans-49"/>
       <use x="417.822266" xlink:href="#DejaVuSans-45"/>
       <use x="453.90625" xlink:href="#DejaVuSans-50"/>
       <use x="517.529297" xlink:href="#DejaVuSans-54"/>
      </g>
     </g>
    </g>
    <g id="xtick_5">
     <g id="line2d_9">
      <path clip-path="url(#pbc73ad1a8b)" d="M 487.109506 390.04 
L 487.109506 12.697613 
" style="fill:none;stroke:#808080;stroke-linecap:square;stroke-opacity:0.2;"/>
     </g>
     <g id="line2d_10">
      <g>
       <use style="stroke:#000000;stroke-width:0.8;" x="487.109506" xlink:href="#m6aa75cf62f" y="390.04"/>
      </g>
     </g>
     <g id="text_5">
      <!-- 2020-02-09 -->
      <g transform="translate(458.051693 404.638438)scale(0.1 -0.1)">
       <use xlink:href="#DejaVuSans-50"/>
       <use x="63.623047" xlink:href="#DejaVuSans-48"/>
       <use x="127.246094" xlink:href="#DejaVuSans-50"/>
       <use x="190.869141" xlink:href="#DejaVuSans-48"/>
       <use x="254.492188" xlink:href="#DejaVuSans-45"/>
       <use x="290.576172" xlink:href="#DejaVuSans-48"/>
       <use x="354.199219" xlink:href="#DejaVuSans-50"/>
       <use x="417.822266" xlink:href="#DejaVuSans-45"/>
       <use x="453.90625" xlink:href="#DejaVuSans-48"/>
       <use x="517.529297" xlink:href="#DejaVuSans-57"/>
      </g>
     </g>
    </g>
    <g id="xtick_6">
     <g id="line2d_11">
      <path clip-path="url(#pbc73ad1a8b)" d="M 583.187914 390.04 
L 583.187914 12.697613 
" style="fill:none;stroke:#808080;stroke-linecap:square;stroke-opacity:0.2;"/>
     </g>
     <g id="line2d_12">
      <g>
       <use style="stroke:#000000;stroke-width:0.8;" x="583.187914" xlink:href="#m6aa75cf62f" y="390.04"/>
      </g>
     </g>
     <g id="text_6">
      <!-- 2020-02-23 -->
      <defs>
       <path d="M 40.578125 39.3125 
Q 47.65625 37.796875 51.625 33 
Q 55.609375 28.21875 55.609375 21.1875 
Q 55.609375 10.40625 48.1875 4.484375 
Q 40.765625 -1.421875 27.09375 -1.421875 
Q 22.515625 -1.421875 17.65625 -0.515625 
Q 12.796875 0.390625 7.625 2.203125 
L 7.625 11.71875 
Q 11.71875 9.328125 16.59375 8.109375 
Q 21.484375 6.890625 26.8125 6.890625 
Q 36.078125 6.890625 40.9375 10.546875 
Q 45.796875 14.203125 45.796875 21.1875 
Q 45.796875 27.640625 41.28125 31.265625 
Q 36.765625 34.90625 28.71875 34.90625 
L 20.21875 34.90625 
L 20.21875 43.015625 
L 29.109375 43.015625 
Q 36.375 43.015625 40.234375 45.921875 
Q 44.09375 48.828125 44.09375 54.296875 
Q 44.09375 59.90625 40.109375 62.90625 
Q 36.140625 65.921875 28.71875 65.921875 
Q 24.65625 65.921875 20.015625 65.03125 
Q 15.375 64.15625 9.8125 62.3125 
L 9.8125 71.09375 
Q 15.4375 72.65625 20.34375 73.4375 
Q 25.25 74.21875 29.59375 74.21875 
Q 40.828125 74.21875 47.359375 69.109375 
Q 53.90625 64.015625 53.90625 55.328125 
Q 53.90625 49.265625 50.4375 45.09375 
Q 46.96875 40.921875 40.578125 39.3125 
z
" id="DejaVuSans-51"/>
      </defs>
      <g transform="translate(554.130102 404.638438)scale(0.1 -0.1)">
       <use xlink:href="#DejaVuSans-50"/>
       <use x="63.623047" xlink:href="#DejaVuSans-48"/>
       <use x="127.246094" xlink:href="#DejaVuSans-50"/>
       <use x="190.869141" xlink:href="#DejaVuSans-48"/>
       <use x="254.492188" xlink:href="#DejaVuSans-45"/>
       <use x="290.576172" xlink:href="#DejaVuSans-48"/>
       <use x="354.199219" xlink:href="#DejaVuSans-50"/>
       <use x="417.822266" xlink:href="#DejaVuSans-45"/>
       <use x="453.90625" xlink:href="#DejaVuSans-50"/>
       <use x="517.529297" xlink:href="#DejaVuSans-51"/>
      </g>
     </g>
    </g>
    <g id="xtick_7">
     <g id="line2d_13">
      <path clip-path="url(#pbc73ad1a8b)" d="M 679.266323 390.04 
L 679.266323 12.697613 
" style="fill:none;stroke:#808080;stroke-linecap:square;stroke-opacity:0.2;"/>
     </g>
     <g id="line2d_14">
      <g>
       <use style="stroke:#000000;stroke-width:0.8;" x="679.266323" xlink:href="#m6aa75cf62f" y="390.04"/>
      </g>
     </g>
     <g id="text_7">
      <!-- 2020-03-08 -->
      <defs>
       <path d="M 31.78125 34.625 
Q 24.75 34.625 20.71875 30.859375 
Q 16.703125 27.09375 16.703125 20.515625 
Q 16.703125 13.921875 20.71875 10.15625 
Q 24.75 6.390625 31.78125 6.390625 
Q 38.8125 6.390625 42.859375 10.171875 
Q 46.921875 13.96875 46.921875 20.515625 
Q 46.921875 27.09375 42.890625 30.859375 
Q 38.875 34.625 31.78125 34.625 
z
M 21.921875 38.8125 
Q 15.578125 40.375 12.03125 44.71875 
Q 8.5 49.078125 8.5 55.328125 
Q 8.5 64.0625 14.71875 69.140625 
Q 20.953125 74.21875 31.78125 74.21875 
Q 42.671875 74.21875 48.875 69.140625 
Q 55.078125 64.0625 55.078125 55.328125 
Q 55.078125 49.078125 51.53125 44.71875 
Q 48 40.375 41.703125 38.8125 
Q 48.828125 37.15625 52.796875 32.3125 
Q 56.78125 27.484375 56.78125 20.515625 
Q 56.78125 9.90625 50.3125 4.234375 
Q 43.84375 -1.421875 31.78125 -1.421875 
Q 19.734375 -1.421875 13.25 4.234375 
Q 6.78125 9.90625 6.78125 20.515625 
Q 6.78125 27.484375 10.78125 32.3125 
Q 14.796875 37.15625 21.921875 38.8125 
z
M 18.3125 54.390625 
Q 18.3125 48.734375 21.84375 45.5625 
Q 25.390625 42.390625 31.78125 42.390625 
Q 38.140625 42.390625 41.71875 45.5625 
Q 45.3125 48.734375 45.3125 54.390625 
Q 45.3125 60.0625 41.71875 63.234375 
Q 38.140625 66.40625 31.78125 66.40625 
Q 25.390625 66.40625 21.84375 63.234375 
Q 18.3125 60.0625 18.3125 54.390625 
z
" id="DejaVuSans-56"/>
      </defs>
      <g transform="translate(650.20851 404.638438)scale(0.1 -0.1)">
       <use xlink:href="#DejaVuSans-50"/>
       <use x="63.623047" xlink:href="#DejaVuSans-48"/>
       <use x="127.246094" xlink:href="#DejaVuSans-50"/>
       <use x="190.869141" xlink:href="#DejaVuSans-48"/>
       <use x="254.492188" xlink:href="#DejaVuSans-45"/>
       <use x="290.576172" xlink:href="#DejaVuSans-48"/>
       <use x="354.199219" xlink:href="#DejaVuSans-51"/>
       <use x="417.822266" xlink:href="#DejaVuSans-45"/>
       <use x="453.90625" xlink:href="#DejaVuSans-48"/>
       <use x="517.529297" xlink:href="#DejaVuSans-56"/>
      </g>
     </g>
    </g>
    <g id="text_8">
     <!-- ds -->
     <defs>
      <path d="M 45.40625 46.390625 
L 45.40625 75.984375 
L 54.390625 75.984375 
L 54.390625 0 
L 45.40625 0 
L 45.40625 8.203125 
Q 42.578125 3.328125 38.25 0.953125 
Q 33.9375 -1.421875 27.875 -1.421875 
Q 17.96875 -1.421875 11.734375 6.484375 
Q 5.515625 14.40625 5.515625 27.296875 
Q 5.515625 40.1875 11.734375 48.09375 
Q 17.96875 56 27.875 56 
Q 33.9375 56 38.25 53.625 
Q 42.578125 51.265625 45.40625 46.390625 
z
M 14.796875 27.296875 
Q 14.796875 17.390625 18.875 11.75 
Q 22.953125 6.109375 30.078125 6.109375 
Q 37.203125 6.109375 41.296875 11.75 
Q 45.40625 17.390625 45.40625 27.296875 
Q 45.40625 37.203125 41.296875 42.84375 
Q 37.203125 48.484375 30.078125 48.484375 
Q 22.953125 48.484375 18.875 42.84375 
Q 14.796875 37.203125 14.796875 27.296875 
z
" id="DejaVuSans-100"/>
      <path d="M 44.28125 53.078125 
L 44.28125 44.578125 
Q 40.484375 46.53125 36.375 47.5 
Q 32.28125 48.484375 27.875 48.484375 
Q 21.1875 48.484375 17.84375 46.4375 
Q 14.5 44.390625 14.5 40.28125 
Q 14.5 37.15625 16.890625 35.375 
Q 19.28125 33.59375 26.515625 31.984375 
L 29.59375 31.296875 
Q 39.15625 29.25 43.1875 25.515625 
Q 47.21875 21.78125 47.21875 15.09375 
Q 47.21875 7.46875 41.1875 3.015625 
Q 35.15625 -1.421875 24.609375 -1.421875 
Q 20.21875 -1.421875 15.453125 -0.5625 
Q 10.6875 0.296875 5.421875 2 
L 5.421875 11.28125 
Q 10.40625 8.6875 15.234375 7.390625 
Q 20.0625 6.109375 24.8125 6.109375 
Q 31.15625 6.109375 34.5625 8.28125 
Q 37.984375 10.453125 37.984375 14.40625 
Q 37.984375 18.0625 35.515625 20.015625 
Q 33.0625 21.96875 24.703125 23.78125 
L 21.578125 24.515625 
Q 13.234375 26.265625 9.515625 29.90625 
Q 5.8125 33.546875 5.8125 39.890625 
Q 5.8125 47.609375 11.28125 51.796875 
Q 16.75 56 26.8125 56 
Q 31.78125 56 36.171875 55.265625 
Q 40.578125 54.546875 44.28125 53.078125 
z
" id="DejaVuSans-115"/>
     </defs>
     <g transform="translate(368.095333 418.316562)scale(0.1 -0.1)">
      <use xlink:href="#DejaVuSans-100"/>
      <use x="63.476562" xlink:href="#DejaVuSans-115"/>
     </g>
    </g>
   </g>
   <g id="matplotlib.axis_2">
    <g id="ytick_1">
     <g id="line2d_15">
      <path clip-path="url(#pbc73ad1a8b)" d="M 60.59 364.160002 
L 687.158478 364.160002 
" style="fill:none;stroke:#808080;stroke-linecap:square;stroke-opacity:0.2;"/>
     </g>
     <g id="line2d_16">
      <defs>
       <path d="M 0 0 
L -3.5 0 
" id="m0998eeaa59" style="stroke:#000000;stroke-width:0.8;"/>
      </defs>
      <g>
       <use style="stroke:#000000;stroke-width:0.8;" x="60.59" xlink:href="#m0998eeaa59" y="364.160002"/>
      </g>
     </g>
     <g id="text_9">
      <!-- 137.5 -->
      <defs>
       <path d="M 8.203125 72.90625 
L 55.078125 72.90625 
L 55.078125 68.703125 
L 28.609375 0 
L 18.3125 0 
L 43.21875 64.59375 
L 8.203125 64.59375 
z
" id="DejaVuSans-55"/>
       <path d="M 10.6875 12.40625 
L 21 12.40625 
L 21 0 
L 10.6875 0 
z
" id="DejaVuSans-46"/>
      </defs>
      <g transform="translate(24.961875 367.959221)scale(0.1 -0.1)">
       <use xlink:href="#DejaVuSans-49"/>
       <use x="63.623047" xlink:href="#DejaVuSans-51"/>
       <use x="127.246094" xlink:href="#DejaVuSans-55"/>
       <use x="190.869141" xlink:href="#DejaVuSans-46"/>
       <use x="222.65625" xlink:href="#DejaVuSans-53"/>
      </g>
     </g>
    </g>
    <g id="ytick_2">
     <g id="line2d_17">
      <path clip-path="url(#pbc73ad1a8b)" d="M 60.59 320.519647 
L 687.158478 320.519647 
" style="fill:none;stroke:#808080;stroke-linecap:square;stroke-opacity:0.2;"/>
     </g>
     <g id="line2d_18">
      <g>
       <use style="stroke:#000000;stroke-width:0.8;" x="60.59" xlink:href="#m0998eeaa59" y="320.519647"/>
      </g>
     </g>
     <g id="text_10">
      <!-- 140.0 -->
      <defs>
       <path d="M 37.796875 64.3125 
L 12.890625 25.390625 
L 37.796875 25.390625 
z
M 35.203125 72.90625 
L 47.609375 72.90625 
L 47.609375 25.390625 
L 58.015625 25.390625 
L 58.015625 17.1875 
L 47.609375 17.1875 
L 47.609375 0 
L 37.796875 0 
L 37.796875 17.1875 
L 4.890625 17.1875 
L 4.890625 26.703125 
z
" id="DejaVuSans-52"/>
      </defs>
      <g transform="translate(24.961875 324.318865)scale(0.1 -0.1)">
       <use xlink:href="#DejaVuSans-49"/>
       <use x="63.623047" xlink:href="#DejaVuSans-52"/>
       <use x="127.246094" xlink:href="#DejaVuSans-48"/>
       <use x="190.869141" xlink:href="#DejaVuSans-46"/>
       <use x="222.65625" xlink:href="#DejaVuSans-48"/>
      </g>
     </g>
    </g>
    <g id="ytick_3">
     <g id="line2d_19">
      <path clip-path="url(#pbc73ad1a8b)" d="M 60.59 276.879291 
L 687.158478 276.879291 
" style="fill:none;stroke:#808080;stroke-linecap:square;stroke-opacity:0.2;"/>
     </g>
     <g id="line2d_20">
      <g>
       <use style="stroke:#000000;stroke-width:0.8;" x="60.59" xlink:href="#m0998eeaa59" y="276.879291"/>
      </g>
     </g>
     <g id="text_11">
      <!-- 142.5 -->
      <g transform="translate(24.961875 280.67851)scale(0.1 -0.1)">
       <use xlink:href="#DejaVuSans-49"/>
       <use x="63.623047" xlink:href="#DejaVuSans-52"/>
       <use x="127.246094" xlink:href="#DejaVuSans-50"/>
       <use x="190.869141" xlink:href="#DejaVuSans-46"/>
       <use x="222.65625" xlink:href="#DejaVuSans-53"/>
      </g>
     </g>
    </g>
    <g id="ytick_4">
     <g id="line2d_21">
      <path clip-path="url(#pbc73ad1a8b)" d="M 60.59 233.238935 
L 687.158478 233.238935 
" style="fill:none;stroke:#808080;stroke-linecap:square;stroke-opacity:0.2;"/>
     </g>
     <g id="line2d_22">
      <g>
       <use style="stroke:#000000;stroke-width:0.8;" x="60.59" xlink:href="#m0998eeaa59" y="233.238935"/>
      </g>
     </g>
     <g id="text_12">
      <!-- 145.0 -->
      <g transform="translate(24.961875 237.038154)scale(0.1 -0.1)">
       <use xlink:href="#DejaVuSans-49"/>
       <use x="63.623047" xlink:href="#DejaVuSans-52"/>
       <use x="127.246094" xlink:href="#DejaVuSans-53"/>
       <use x="190.869141" xlink:href="#DejaVuSans-46"/>
       <use x="222.65625" xlink:href="#DejaVuSans-48"/>
      </g>
     </g>
    </g>
    <g id="ytick_5">
     <g id="line2d_23">
      <path clip-path="url(#pbc73ad1a8b)" d="M 60.59 189.59858 
L 687.158478 189.59858 
" style="fill:none;stroke:#808080;stroke-linecap:square;stroke-opacity:0.2;"/>
     </g>
     <g id="line2d_24">
      <g>
       <use style="stroke:#000000;stroke-width:0.8;" x="60.59" xlink:href="#m0998eeaa59" y="189.59858"/>
      </g>
     </g>
     <g id="text_13">
      <!-- 147.5 -->
      <g transform="translate(24.961875 193.397799)scale(0.1 -0.1)">
       <use xlink:href="#DejaVuSans-49"/>
       <use x="63.623047" xlink:href="#DejaVuSans-52"/>
       <use x="127.246094" xlink:href="#DejaVuSans-55"/>
       <use x="190.869141" xlink:href="#DejaVuSans-46"/>
       <use x="222.65625" xlink:href="#DejaVuSans-53"/>
      </g>
     </g>
    </g>
    <g id="ytick_6">
     <g id="line2d_25">
      <path clip-path="url(#pbc73ad1a8b)" d="M 60.59 145.958224 
L 687.158478 145.958224 
" style="fill:none;stroke:#808080;stroke-linecap:square;stroke-opacity:0.2;"/>
     </g>
     <g id="line2d_26">
      <g>
       <use style="stroke:#000000;stroke-width:0.8;" x="60.59" xlink:href="#m0998eeaa59" y="145.958224"/>
      </g>
     </g>
     <g id="text_14">
      <!-- 150.0 -->
      <g transform="translate(24.961875 149.757443)scale(0.1 -0.1)">
       <use xlink:href="#DejaVuSans-49"/>
       <use x="63.623047" xlink:href="#DejaVuSans-53"/>
       <use x="127.246094" xlink:href="#DejaVuSans-48"/>
       <use x="190.869141" xlink:href="#DejaVuSans-46"/>
       <use x="222.65625" xlink:href="#DejaVuSans-48"/>
      </g>
     </g>
    </g>
    <g id="ytick_7">
     <g id="line2d_27">
      <path clip-path="url(#pbc73ad1a8b)" d="M 60.59 102.317869 
L 687.158478 102.317869 
" style="fill:none;stroke:#808080;stroke-linecap:square;stroke-opacity:0.2;"/>
     </g>
     <g id="line2d_28">
      <g>
       <use style="stroke:#000000;stroke-width:0.8;" x="60.59" xlink:href="#m0998eeaa59" y="102.317869"/>
      </g>
     </g>
     <g id="text_15">
      <!-- 152.5 -->
      <g transform="translate(24.961875 106.117087)scale(0.1 -0.1)">
       <use xlink:href="#DejaVuSans-49"/>
       <use x="63.623047" xlink:href="#DejaVuSans-53"/>
       <use x="127.246094" xlink:href="#DejaVuSans-50"/>
       <use x="190.869141" xlink:href="#DejaVuSans-46"/>
       <use x="222.65625" xlink:href="#DejaVuSans-53"/>
      </g>
     </g>
    </g>
    <g id="ytick_8">
     <g id="line2d_29">
      <path clip-path="url(#pbc73ad1a8b)" d="M 60.59 58.677513 
L 687.158478 58.677513 
" style="fill:none;stroke:#808080;stroke-linecap:square;stroke-opacity:0.2;"/>
     </g>
     <g id="line2d_30">
      <g>
       <use style="stroke:#000000;stroke-width:0.8;" x="60.59" xlink:href="#m0998eeaa59" y="58.677513"/>
      </g>
     </g>
     <g id="text_16">
      <!-- 155.0 -->
      <g transform="translate(24.961875 62.476732)scale(0.1 -0.1)">
       <use xlink:href="#DejaVuSans-49"/>
       <use x="63.623047" xlink:href="#DejaVuSans-53"/>
       <use x="127.246094" xlink:href="#DejaVuSans-53"/>
       <use x="190.869141" xlink:href="#DejaVuSans-46"/>
       <use x="222.65625" xlink:href="#DejaVuSans-48"/>
      </g>
     </g>
    </g>
    <g id="ytick_9">
     <g id="line2d_31">
      <path clip-path="url(#pbc73ad1a8b)" d="M 60.59 15.037157 
L 687.158478 15.037157 
" style="fill:none;stroke:#808080;stroke-linecap:square;stroke-opacity:0.2;"/>
     </g>
     <g id="line2d_32">
      <g>
       <use style="stroke:#000000;stroke-width:0.8;" x="60.59" xlink:href="#m0998eeaa59" y="15.037157"/>
      </g>
     </g>
     <g id="text_17">
      <!-- 157.5 -->
      <g transform="translate(24.961875 18.836376)scale(0.1 -0.1)">
       <use xlink:href="#DejaVuSans-49"/>
       <use x="63.623047" xlink:href="#DejaVuSans-53"/>
       <use x="127.246094" xlink:href="#DejaVuSans-55"/>
       <use x="190.869141" xlink:href="#DejaVuSans-46"/>
       <use x="222.65625" xlink:href="#DejaVuSans-53"/>
      </g>
     </g>
    </g>
    <g id="text_18">
     <!-- y -->
     <defs>
      <path d="M 32.171875 -5.078125 
Q 28.375 -14.84375 24.75 -17.8125 
Q 21.140625 -20.796875 15.09375 -20.796875 
L 7.90625 -20.796875 
L 7.90625 -13.28125 
L 13.1875 -13.28125 
Q 16.890625 -13.28125 18.9375 -11.515625 
Q 21 -9.765625 23.484375 -3.21875 
L 25.09375 0.875 
L 2.984375 54.6875 
L 12.5 54.6875 
L 29.59375 11.921875 
L 46.6875 54.6875 
L 56.203125 54.6875 
z
" id="DejaVuSans-121"/>
     </defs>
     <g transform="translate(18.882188 204.328181)rotate(-90)scale(0.1 -0.1)">
      <use xlink:href="#DejaVuSans-121"/>
     </g>
    </g>
   </g>
   <g id="line2d_33">
    <defs>
     <path d="M 0 1.5 
C 0.397805 1.5 0.77937 1.341951 1.06066 1.06066 
C 1.341951 0.77937 1.5 0.397805 1.5 0 
C 1.5 -0.397805 1.341951 -0.77937 1.06066 -1.06066 
C 0.77937 -1.341951 0.397805 -1.5 0 -1.5 
C -0.397805 -1.5 -0.77937 -1.341951 -1.06066 -1.06066 
C -1.341951 -0.77937 -1.5 -0.397805 -1.5 0 
C -1.5 0.397805 -1.341951 0.77937 -1.06066 1.06066 
C -0.77937 1.341951 -0.397805 1.5 0 1.5 
z
" id="m172a4e7a57" style="stroke:#000000;"/>
    </defs>
    <g clip-path="url(#pbc73ad1a8b)">
     <use style="stroke:#000000;" x="89.070385" xlink:href="#m172a4e7a57" y="111.04594"/>
     <use style="stroke:#000000;" x="95.933129" xlink:href="#m172a4e7a57" y="128.502082"/>
     <use style="stroke:#000000;" x="109.658616" xlink:href="#m172a4e7a57" y="93.589797"/>
     <use style="stroke:#000000;" x="116.521359" xlink:href="#m172a4e7a57" y="128.502082"/>
     <use style="stroke:#000000;" x="130.246846" xlink:href="#m172a4e7a57" y="128.502082"/>
     <use style="stroke:#000000;" x="137.10959" xlink:href="#m172a4e7a57" y="41.221371"/>
     <use style="stroke:#000000;" x="150.835076" xlink:href="#m172a4e7a57" y="198.326651"/>
     <use style="stroke:#000000;" x="157.69782" xlink:href="#m172a4e7a57" y="145.958224"/>
     <use style="stroke:#000000;" x="171.423307" xlink:href="#m172a4e7a57" y="163.414366"/>
     <use style="stroke:#000000;" x="178.28605" xlink:href="#m172a4e7a57" y="180.870509"/>
     <use style="stroke:#000000;" x="192.011537" xlink:href="#m172a4e7a57" y="198.326651"/>
     <use style="stroke:#000000;" x="198.874281" xlink:href="#m172a4e7a57" y="215.782793"/>
     <use style="stroke:#000000;" x="212.599768" xlink:href="#m172a4e7a57" y="285.607362"/>
     <use style="stroke:#000000;" x="219.462511" xlink:href="#m172a4e7a57" y="163.414366"/>
     <use style="stroke:#000000;" x="233.187998" xlink:href="#m172a4e7a57" y="163.414366"/>
     <use style="stroke:#000000;" x="240.050741" xlink:href="#m172a4e7a57" y="180.870509"/>
     <use style="stroke:#000000;" x="253.776228" xlink:href="#m172a4e7a57" y="268.15122"/>
     <use style="stroke:#000000;" x="260.638972" xlink:href="#m172a4e7a57" y="215.782793"/>
     <use style="stroke:#000000;" x="274.364459" xlink:href="#m172a4e7a57" y="145.958224"/>
     <use style="stroke:#000000;" x="281.227202" xlink:href="#m172a4e7a57" y="145.958224"/>
     <use style="stroke:#000000;" x="294.952689" xlink:href="#m172a4e7a57" y="180.870509"/>
     <use style="stroke:#000000;" x="301.815432" xlink:href="#m172a4e7a57" y="128.502082"/>
     <use style="stroke:#000000;" x="315.540919" xlink:href="#m172a4e7a57" y="145.958224"/>
     <use style="stroke:#000000;" x="322.403663" xlink:href="#m172a4e7a57" y="268.15122"/>
     <use style="stroke:#000000;" x="336.12915" xlink:href="#m172a4e7a57" y="285.607362"/>
     <use style="stroke:#000000;" x="342.991893" xlink:href="#m172a4e7a57" y="372.888073"/>
     <use style="stroke:#000000;" x="356.71738" xlink:href="#m172a4e7a57" y="145.958224"/>
     <use style="stroke:#000000;" x="363.580124" xlink:href="#m172a4e7a57" y="198.326651"/>
     <use style="stroke:#000000;" x="377.305611" xlink:href="#m172a4e7a57" y="285.607362"/>
     <use style="stroke:#000000;" x="384.168354" xlink:href="#m172a4e7a57" y="215.782793"/>
     <use style="stroke:#000000;" x="397.893841" xlink:href="#m172a4e7a57" y="180.870509"/>
     <use style="stroke:#000000;" x="404.756584" xlink:href="#m172a4e7a57" y="180.870509"/>
     <use style="stroke:#000000;" x="418.482071" xlink:href="#m172a4e7a57" y="198.326651"/>
     <use style="stroke:#000000;" x="425.344815" xlink:href="#m172a4e7a57" y="163.414366"/>
     <use style="stroke:#000000;" x="445.933045" xlink:href="#m172a4e7a57" y="128.502082"/>
     <use style="stroke:#000000;" x="459.658532" xlink:href="#m172a4e7a57" y="180.870509"/>
     <use style="stroke:#000000;" x="466.521275" xlink:href="#m172a4e7a57" y="268.15122"/>
     <use style="stroke:#000000;" x="480.246762" xlink:href="#m172a4e7a57" y="250.695078"/>
     <use style="stroke:#000000;" x="487.109506" xlink:href="#m172a4e7a57" y="145.958224"/>
     <use style="stroke:#000000;" x="500.834993" xlink:href="#m172a4e7a57" y="128.502082"/>
     <use style="stroke:#000000;" x="507.697736" xlink:href="#m172a4e7a57" y="250.695078"/>
     <use style="stroke:#000000;" x="521.423223" xlink:href="#m172a4e7a57" y="215.782793"/>
     <use style="stroke:#000000;" x="528.285967" xlink:href="#m172a4e7a57" y="93.589797"/>
     <use style="stroke:#000000;" x="542.011453" xlink:href="#m172a4e7a57" y="111.04594"/>
     <use style="stroke:#000000;" x="548.874197" xlink:href="#m172a4e7a57" y="198.326651"/>
     <use style="stroke:#000000;" x="562.599684" xlink:href="#m172a4e7a57" y="372.888073"/>
     <use style="stroke:#000000;" x="569.462427" xlink:href="#m172a4e7a57" y="198.326651"/>
     <use style="stroke:#000000;" x="583.187914" xlink:href="#m172a4e7a57" y="58.677513"/>
     <use style="stroke:#000000;" x="590.050658" xlink:href="#m172a4e7a57" y="128.502082"/>
     <use style="stroke:#000000;" x="603.776145" xlink:href="#m172a4e7a57" y="303.063504"/>
     <use style="stroke:#000000;" x="610.638888" xlink:href="#m172a4e7a57" y="233.238935"/>
     <use style="stroke:#000000;" x="624.364375" xlink:href="#m172a4e7a57" y="128.502082"/>
     <use style="stroke:#000000;" x="631.227118" xlink:href="#m172a4e7a57" y="198.326651"/>
     <use style="stroke:#000000;" x="644.952605" xlink:href="#m172a4e7a57" y="233.238935"/>
     <use style="stroke:#000000;" x="651.815349" xlink:href="#m172a4e7a57" y="145.958224"/>
    </g>
   </g>
   <g id="line2d_34">
    <path clip-path="url(#pbc73ad1a8b)" d="M 89.070385 120.773777 
L 95.933129 139.812412 
L 109.658616 107.196042 
L 116.521359 149.050103 
L 130.246846 188.184537 
L 137.10959 135.888995 
L 150.835076 165.834301 
L 157.69782 122.31126 
L 171.423307 167.301955 
L 178.28605 203.299755 
L 192.011537 170.027057 
L 198.874281 180.909216 
L 212.599768 179.191214 
L 219.462511 182.291733 
L 233.187998 165.921759 
L 240.050741 184.917668 
L 253.776228 152.20204 
L 260.638972 194.006473 
L 274.364459 232.791483 
L 281.227202 180.321228 
L 294.952689 209.912957 
L 301.815432 166.213128 
L 315.540919 210.845715 
L 322.403663 244.32206 
L 336.12915 206.022244 
L 342.991893 214.388171 
L 356.71738 207.637704 
L 363.580124 208.221922 
L 377.305611 186.819347 
L 384.168354 203.296098 
L 397.893841 165.507332 
L 404.756584 204.775195 
L 418.482071 238.736848 
L 425.344815 183.854915 
L 445.933045 162.515468 
L 459.658532 202.331688 
L 466.521275 235.742251 
L 480.246762 197.310869 
L 487.109506 205.630302 
L 500.834993 198.786847 
L 507.697736 199.336245 
L 521.423223 177.864027 
L 528.285967 194.315425 
L 542.011453 156.52458 
L 548.874197 195.791403 
L 562.599684 229.751363 
L 569.462427 174.868583 
L 583.187914 199.639414 
L 590.050658 153.529135 
L 603.776145 193.345356 
L 610.638888 226.755919 
L 624.364375 188.324537 
L 631.227118 196.64397 
L 644.952605 189.800515 
L 651.815349 190.349912 
L 658.678092 223.760474 
" style="fill:none;stroke:#0072b2;stroke-linecap:square;stroke-width:1.5;"/>
   </g>
   <g id="patch_3">
    <path d="M 60.59 390.04 
L 60.59 12.697613 
" style="fill:none;stroke:#000000;stroke-linecap:square;stroke-linejoin:miter;stroke-width:0.8;"/>
   </g>
   <g id="patch_4">
    <path d="M 687.158478 390.04 
L 687.158478 12.697613 
" style="fill:none;stroke:#000000;stroke-linecap:square;stroke-linejoin:miter;stroke-width:0.8;"/>
   </g>
   <g id="patch_5">
    <path d="M 60.59 390.04 
L 687.158478 390.04 
" style="fill:none;stroke:#000000;stroke-linecap:square;stroke-linejoin:miter;stroke-width:0.8;"/>
   </g>
   <g id="patch_6">
    <path d="M 60.59 12.697613 
L 687.158478 12.697613 
" style="fill:none;stroke:#000000;stroke-linecap:square;stroke-linejoin:miter;stroke-width:0.8;"/>
   </g>
  </g>
 </g>
 <defs>
  <clipPath id="pbc73ad1a8b">
   <rect height="377.342387" width="626.568478" x="60.59" y="12.697613"/>
  </clipPath>
 </defs>
</svg>
