<?xml version="1.0" encoding="utf-8" standalone="no"?>
<!DOCTYPE svg PUBLIC "-//W3C//DTD SVG 1.1//EN"
  "http://www.w3.org/Graphics/SVG/1.1/DTD/svg11.dtd">
<!-- Created with matplotlib (https://matplotlib.org/) -->
<svg height="432pt" version="1.1" viewBox="0 0 720 432" width="720pt" xmlns="http://www.w3.org/2000/svg" xmlns:xlink="http://www.w3.org/1999/xlink">
 <defs>
  <style type="text/css">
*{stroke-linecap:butt;stroke-linejoin:round;}
  </style>
 </defs>
 <g id="figure_1">
  <g id="patch_1">
   <path d="M 0 432 
L 720 432 
L 720 0 
L 0 0 
z
" style="fill:#ffffff;"/>
  </g>
  <g id="axes_1">
   <g id="patch_2">
    <path d="M 51.05 390.04 
L 687.158478 390.04 
L 687.158478 11.736 
L 51.05 11.736 
z
" style="fill:#ffffff;"/>
   </g>
   <g id="PolyCollection_1">
    <defs>
     <path d="M 79.964022 -329.844893 
L 79.964022 -167.334706 
L 86.931256 -188.261784 
L 100.865724 -159.694377 
L 107.832958 -149.643472 
L 121.767427 -172.127652 
L 128.734661 -163.847949 
L 142.669129 -186.199742 
L 149.636363 -153.25009 
L 163.570831 -171.347065 
L 170.538066 -164.993095 
L 184.472534 -181.662563 
L 191.439768 -177.343917 
L 205.374236 -139.099926 
L 212.34147 -170.185462 
L 226.275939 -151.176725 
L 233.243173 -180.955886 
L 247.177641 -142.564609 
L 254.144875 -134.929786 
L 268.079344 -162.011767 
L 275.046578 -155.696532 
L 288.981046 -171.536835 
L 295.94828 -140.7024 
L 309.882749 -161.575073 
L 316.849983 -159.793796 
L 337.751685 -162.231359 
L 351.686153 -134.30072 
L 358.653388 -162.602812 
L 372.587856 -140.667614 
L 379.55509 -165.080968 
L 393.489558 -132.03536 
L 400.456792 -125.647755 
L 414.391261 -152.722311 
L 421.358495 -142.223914 
L 435.292963 -164.614624 
L 442.260197 -127.485375 
L 456.194666 -149.814333 
L 463.1619 -145.177649 
L 477.096368 -159.83355 
L 484.063602 -155.717406 
L 497.99807 -121.806706 
L 504.965305 -147.565552 
L 518.899773 -128.590592 
L 525.867007 -164.410917 
L 539.801475 -114.415489 
L 546.76871 -122.096772 
L 560.703178 -147.584867 
L 567.670412 -130.688345 
L 581.60488 -149.078911 
L 588.572114 -114.300705 
L 602.506583 -144.136834 
L 609.473817 -143.249166 
L 623.408285 -147.988173 
L 630.375519 -150.597009 
L 644.309988 -116.27522 
L 651.277222 -139.360077 
L 658.244456 -132.048142 
L 658.244456 -302.217011 
L 658.244456 -302.217011 
L 651.277222 -312.70424 
L 644.309988 -281.076158 
L 630.375519 -324.986505 
L 623.408285 -317.147868 
L 609.473817 -305.411944 
L 602.506583 -313.055006 
L 588.572114 -289.143873 
L 581.60488 -316.762603 
L 567.670412 -299.479344 
L 560.703178 -309.973094 
L 546.76871 -288.615166 
L 539.801475 -288.723069 
L 525.867007 -328.347315 
L 518.899773 -303.900612 
L 504.965305 -317.860638 
L 497.99807 -296.010719 
L 484.063602 -324.641223 
L 477.096368 -329.934793 
L 463.1619 -313.914492 
L 456.194666 -323.599177 
L 442.260197 -288.010827 
L 435.292963 -329.813497 
L 421.358495 -311.668754 
L 414.391261 -317.066777 
L 400.456792 -296.682667 
L 393.489558 -301.332966 
L 379.55509 -340.332374 
L 372.587856 -306.808098 
L 358.653388 -324.766771 
L 351.686153 -301.971698 
L 337.751685 -336.542478 
L 316.849983 -324.563574 
L 309.882749 -329.329226 
L 295.94828 -310.698641 
L 288.981046 -346.62264 
L 275.046578 -320.611887 
L 268.079344 -327.864657 
L 254.144875 -304.360663 
L 247.177641 -316.082306 
L 233.243173 -343.527827 
L 226.275939 -322.165005 
L 212.34147 -336.702799 
L 205.374236 -306.80013 
L 191.439768 -347.8426 
L 184.472534 -357.387625 
L 170.538066 -335.908625 
L 163.570831 -343.921116 
L 149.636363 -316.679225 
L 142.669129 -352.487409 
L 128.734661 -330.454584 
L 121.767427 -341.524812 
L 107.832958 -317.260965 
L 100.865724 -325.433209 
L 86.931256 -357.030246 
L 79.964022 -329.844893 
z
" id="m49f4690580" style="stroke:#0072b2;stroke-opacity:0.2;"/>
    </defs>
    <g clip-path="url(#pce44df17fe)">
     <use style="fill:#0072b2;fill-opacity:0.2;stroke:#0072b2;stroke-opacity:0.2;" x="0" xlink:href="#m49f4690580" y="432"/>
    </g>
   </g>
   <g id="matplotlib.axis_1">
    <g id="xtick_1">
     <g id="line2d_1">
      <path clip-path="url(#pce44df17fe)" d="M 93.89849 390.04 
L 93.89849 11.736 
" style="fill:none;stroke:#808080;stroke-linecap:square;stroke-opacity:0.2;"/>
     </g>
     <g id="line2d_2">
      <defs>
       <path d="M 0 0 
L 0 3.5 
" id="ma4c2063219" style="stroke:#000000;stroke-width:0.8;"/>
      </defs>
      <g>
       <use style="stroke:#000000;stroke-width:0.8;" x="93.89849" xlink:href="#ma4c2063219" y="390.04"/>
      </g>
     </g>
     <g id="text_1">
      <!-- 2019-12-30 -->
      <defs>
       <path d="M 19.1875 8.296875 
L 53.609375 8.296875 
L 53.609375 0 
L 7.328125 0 
L 7.328125 8.296875 
Q 12.9375 14.109375 22.625 23.890625 
Q 32.328125 33.6875 34.8125 36.53125 
Q 39.546875 41.84375 41.421875 45.53125 
Q 43.3125 49.21875 43.3125 52.78125 
Q 43.3125 58.59375 39.234375 62.25 
Q 35.15625 65.921875 28.609375 65.921875 
Q 23.96875 65.921875 18.8125 64.3125 
Q 13.671875 62.703125 7.8125 59.421875 
L 7.8125 69.390625 
Q 13.765625 71.78125 18.9375 73 
Q 24.125 74.21875 28.421875 74.21875 
Q 39.75 74.21875 46.484375 68.546875 
Q 53.21875 62.890625 53.21875 53.421875 
Q 53.21875 48.921875 51.53125 44.890625 
Q 49.859375 40.875 45.40625 35.40625 
Q 44.1875 33.984375 37.640625 27.21875 
Q 31.109375 20.453125 19.1875 8.296875 
z
" id="DejaVuSans-50"/>
       <path d="M 31.78125 66.40625 
Q 24.171875 66.40625 20.328125 58.90625 
Q 16.5 51.421875 16.5 36.375 
Q 16.5 21.390625 20.328125 13.890625 
Q 24.171875 6.390625 31.78125 6.390625 
Q 39.453125 6.390625 43.28125 13.890625 
Q 47.125 21.390625 47.125 36.375 
Q 47.125 51.421875 43.28125 58.90625 
Q 39.453125 66.40625 31.78125 66.40625 
z
M 31.78125 74.21875 
Q 44.046875 74.21875 50.515625 64.515625 
Q 56.984375 54.828125 56.984375 36.375 
Q 56.984375 17.96875 50.515625 8.265625 
Q 44.046875 -1.421875 31.78125 -1.421875 
Q 19.53125 -1.421875 13.0625 8.265625 
Q 6.59375 17.96875 6.59375 36.375 
Q 6.59375 54.828125 13.0625 64.515625 
Q 19.53125 74.21875 31.78125 74.21875 
z
" id="DejaVuSans-48"/>
       <path d="M 12.40625 8.296875 
L 28.515625 8.296875 
L 28.515625 63.921875 
L 10.984375 60.40625 
L 10.984375 69.390625 
L 28.421875 72.90625 
L 38.28125 72.90625 
L 38.28125 8.296875 
L 54.390625 8.296875 
L 54.390625 0 
L 12.40625 0 
z
" id="DejaVuSans-49"/>
       <path d="M 10.984375 1.515625 
L 10.984375 10.5 
Q 14.703125 8.734375 18.5 7.8125 
Q 22.3125 6.890625 25.984375 6.890625 
Q 35.75 6.890625 40.890625 13.453125 
Q 46.046875 20.015625 46.78125 33.40625 
Q 43.953125 29.203125 39.59375 26.953125 
Q 35.25 24.703125 29.984375 24.703125 
Q 19.046875 24.703125 12.671875 31.3125 
Q 6.296875 37.9375 6.296875 49.421875 
Q 6.296875 60.640625 12.9375 67.421875 
Q 19.578125 74.21875 30.609375 74.21875 
Q 43.265625 74.21875 49.921875 64.515625 
Q 56.59375 54.828125 56.59375 36.375 
Q 56.59375 19.140625 48.40625 8.859375 
Q 40.234375 -1.421875 26.421875 -1.421875 
Q 22.703125 -1.421875 18.890625 -0.6875 
Q 15.09375 0.046875 10.984375 1.515625 
z
M 30.609375 32.421875 
Q 37.25 32.421875 41.125 36.953125 
Q 45.015625 41.5 45.015625 49.421875 
Q 45.015625 57.28125 41.125 61.84375 
Q 37.25 66.40625 30.609375 66.40625 
Q 23.96875 66.40625 20.09375 61.84375 
Q 16.21875 57.28125 16.21875 49.421875 
Q 16.21875 41.5 20.09375 36.953125 
Q 23.96875 32.421875 30.609375 32.421875 
z
" id="DejaVuSans-57"/>
       <path d="M 4.890625 31.390625 
L 31.203125 31.390625 
L 31.203125 23.390625 
L 4.890625 23.390625 
z
" id="DejaVuSans-45"/>
       <path d="M 40.578125 39.3125 
Q 47.65625 37.796875 51.625 33 
Q 55.609375 28.21875 55.609375 21.1875 
Q 55.609375 10.40625 48.1875 4.484375 
Q 40.765625 -1.421875 27.09375 -1.421875 
Q 22.515625 -1.421875 17.65625 -0.515625 
Q 12.796875 0.390625 7.625 2.203125 
L 7.625 11.71875 
Q 11.71875 9.328125 16.59375 8.109375 
Q 21.484375 6.890625 26.8125 6.890625 
Q 36.078125 6.890625 40.9375 10.546875 
Q 45.796875 14.203125 45.796875 21.1875 
Q 45.796875 27.640625 41.28125 31.265625 
Q 36.765625 34.90625 28.71875 34.90625 
L 20.21875 34.90625 
L 20.21875 43.015625 
L 29.109375 43.015625 
Q 36.375 43.015625 40.234375 45.921875 
Q 44.09375 48.828125 44.09375 54.296875 
Q 44.09375 59.90625 40.109375 62.90625 
Q 36.140625 65.921875 28.71875 65.921875 
Q 24.65625 65.921875 20.015625 65.03125 
Q 15.375 64.15625 9.8125 62.3125 
L 9.8125 71.09375 
Q 15.4375 72.65625 20.34375 73.4375 
Q 25.25 74.21875 29.59375 74.21875 
Q 40.828125 74.21875 47.359375 69.109375 
Q 53.90625 64.015625 53.90625 55.328125 
Q 53.90625 49.265625 50.4375 45.09375 
Q 46.96875 40.921875 40.578125 39.3125 
z
" id="DejaVuSans-51"/>
      </defs>
      <g transform="translate(64.840677 404.638438)scale(0.1 -0.1)">
       <use xlink:href="#DejaVuSans-50"/>
       <use x="63.623047" xlink:href="#DejaVuSans-48"/>
       <use x="127.246094" xlink:href="#DejaVuSans-49"/>
       <use x="190.869141" xlink:href="#DejaVuSans-57"/>
       <use x="254.492188" xlink:href="#DejaVuSans-45"/>
       <use x="290.576172" xlink:href="#DejaVuSans-49"/>
       <use x="354.199219" xlink:href="#DejaVuSans-50"/>
       <use x="417.822266" xlink:href="#DejaVuSans-45"/>
       <use x="453.90625" xlink:href="#DejaVuSans-51"/>
       <use x="517.529297" xlink:href="#DejaVuSans-48"/>
      </g>
     </g>
    </g>
    <g id="xtick_2">
     <g id="line2d_3">
      <path clip-path="url(#pce44df17fe)" d="M 191.439768 390.04 
L 191.439768 11.736 
" style="fill:none;stroke:#808080;stroke-linecap:square;stroke-opacity:0.2;"/>
     </g>
     <g id="line2d_4">
      <g>
       <use style="stroke:#000000;stroke-width:0.8;" x="191.439768" xlink:href="#ma4c2063219" y="390.04"/>
      </g>
     </g>
     <g id="text_2">
      <!-- 2020-01-13 -->
      <g transform="translate(162.381956 404.638438)scale(0.1 -0.1)">
       <use xlink:href="#DejaVuSans-50"/>
       <use x="63.623047" xlink:href="#DejaVuSans-48"/>
       <use x="127.246094" xlink:href="#DejaVuSans-50"/>
       <use x="190.869141" xlink:href="#DejaVuSans-48"/>
       <use x="254.492188" xlink:href="#DejaVuSans-45"/>
       <use x="290.576172" xlink:href="#DejaVuSans-48"/>
       <use x="354.199219" xlink:href="#DejaVuSans-49"/>
       <use x="417.822266" xlink:href="#DejaVuSans-45"/>
       <use x="453.90625" xlink:href="#DejaVuSans-49"/>
       <use x="517.529297" xlink:href="#DejaVuSans-51"/>
      </g>
     </g>
    </g>
    <g id="xtick_3">
     <g id="line2d_5">
      <path clip-path="url(#pce44df17fe)" d="M 288.981046 390.04 
L 288.981046 11.736 
" style="fill:none;stroke:#808080;stroke-linecap:square;stroke-opacity:0.2;"/>
     </g>
     <g id="line2d_6">
      <g>
       <use style="stroke:#000000;stroke-width:0.8;" x="288.981046" xlink:href="#ma4c2063219" y="390.04"/>
      </g>
     </g>
     <g id="text_3">
      <!-- 2020-01-27 -->
      <defs>
       <path d="M 8.203125 72.90625 
L 55.078125 72.90625 
L 55.078125 68.703125 
L 28.609375 0 
L 18.3125 0 
L 43.21875 64.59375 
L 8.203125 64.59375 
z
" id="DejaVuSans-55"/>
      </defs>
      <g transform="translate(259.923234 404.638438)scale(0.1 -0.1)">
       <use xlink:href="#DejaVuSans-50"/>
       <use x="63.623047" xlink:href="#DejaVuSans-48"/>
       <use x="127.246094" xlink:href="#DejaVuSans-50"/>
       <use x="190.869141" xlink:href="#DejaVuSans-48"/>
       <use x="254.492188" xlink:href="#DejaVuSans-45"/>
       <use x="290.576172" xlink:href="#DejaVuSans-48"/>
       <use x="354.199219" xlink:href="#DejaVuSans-49"/>
       <use x="417.822266" xlink:href="#DejaVuSans-45"/>
       <use x="453.90625" xlink:href="#DejaVuSans-50"/>
       <use x="517.529297" xlink:href="#DejaVuSans-55"/>
      </g>
     </g>
    </g>
    <g id="xtick_4">
     <g id="line2d_7">
      <path clip-path="url(#pce44df17fe)" d="M 386.522324 390.04 
L 386.522324 11.736 
" style="fill:none;stroke:#808080;stroke-linecap:square;stroke-opacity:0.2;"/>
     </g>
     <g id="line2d_8">
      <g>
       <use style="stroke:#000000;stroke-width:0.8;" x="386.522324" xlink:href="#ma4c2063219" y="390.04"/>
      </g>
     </g>
     <g id="text_4">
      <!-- 2020-02-10 -->
      <g transform="translate(357.464512 404.638438)scale(0.1 -0.1)">
       <use xlink:href="#DejaVuSans-50"/>
       <use x="63.623047" xlink:href="#DejaVuSans-48"/>
       <use x="127.246094" xlink:href="#DejaVuSans-50"/>
       <use x="190.869141" xlink:href="#DejaVuSans-48"/>
       <use x="254.492188" xlink:href="#DejaVuSans-45"/>
       <use x="290.576172" xlink:href="#DejaVuSans-48"/>
       <use x="354.199219" xlink:href="#DejaVuSans-50"/>
       <use x="417.822266" xlink:href="#DejaVuSans-45"/>
       <use x="453.90625" xlink:href="#DejaVuSans-49"/>
       <use x="517.529297" xlink:href="#DejaVuSans-48"/>
      </g>
     </g>
    </g>
    <g id="xtick_5">
     <g id="line2d_9">
      <path clip-path="url(#pce44df17fe)" d="M 484.063602 390.04 
L 484.063602 11.736 
" style="fill:none;stroke:#808080;stroke-linecap:square;stroke-opacity:0.2;"/>
     </g>
     <g id="line2d_10">
      <g>
       <use style="stroke:#000000;stroke-width:0.8;" x="484.063602" xlink:href="#ma4c2063219" y="390.04"/>
      </g>
     </g>
     <g id="text_5">
      <!-- 2020-02-24 -->
      <defs>
       <path d="M 37.796875 64.3125 
L 12.890625 25.390625 
L 37.796875 25.390625 
z
M 35.203125 72.90625 
L 47.609375 72.90625 
L 47.609375 25.390625 
L 58.015625 25.390625 
L 58.015625 17.1875 
L 47.609375 17.1875 
L 47.609375 0 
L 37.796875 0 
L 37.796875 17.1875 
L 4.890625 17.1875 
L 4.890625 26.703125 
z
" id="DejaVuSans-52"/>
      </defs>
      <g transform="translate(455.00579 404.638438)scale(0.1 -0.1)">
       <use xlink:href="#DejaVuSans-50"/>
       <use x="63.623047" xlink:href="#DejaVuSans-48"/>
       <use x="127.246094" xlink:href="#DejaVuSans-50"/>
       <use x="190.869141" xlink:href="#DejaVuSans-48"/>
       <use x="254.492188" xlink:href="#DejaVuSans-45"/>
       <use x="290.576172" xlink:href="#DejaVuSans-48"/>
       <use x="354.199219" xlink:href="#DejaVuSans-50"/>
       <use x="417.822266" xlink:href="#DejaVuSans-45"/>
       <use x="453.90625" xlink:href="#DejaVuSans-50"/>
       <use x="517.529297" xlink:href="#DejaVuSans-52"/>
      </g>
     </g>
    </g>
    <g id="xtick_6">
     <g id="line2d_11">
      <path clip-path="url(#pce44df17fe)" d="M 581.60488 390.04 
L 581.60488 11.736 
" style="fill:none;stroke:#808080;stroke-linecap:square;stroke-opacity:0.2;"/>
     </g>
     <g id="line2d_12">
      <g>
       <use style="stroke:#000000;stroke-width:0.8;" x="581.60488" xlink:href="#ma4c2063219" y="390.04"/>
      </g>
     </g>
     <g id="text_6">
      <!-- 2020-03-09 -->
      <g transform="translate(552.547068 404.638438)scale(0.1 -0.1)">
       <use xlink:href="#DejaVuSans-50"/>
       <use x="63.623047" xlink:href="#DejaVuSans-48"/>
       <use x="127.246094" xlink:href="#DejaVuSans-50"/>
       <use x="190.869141" xlink:href="#DejaVuSans-48"/>
       <use x="254.492188" xlink:href="#DejaVuSans-45"/>
       <use x="290.576172" xlink:href="#DejaVuSans-48"/>
       <use x="354.199219" xlink:href="#DejaVuSans-51"/>
       <use x="417.822266" xlink:href="#DejaVuSans-45"/>
       <use x="453.90625" xlink:href="#DejaVuSans-48"/>
       <use x="517.529297" xlink:href="#DejaVuSans-57"/>
      </g>
     </g>
    </g>
    <g id="xtick_7">
     <g id="line2d_13">
      <path clip-path="url(#pce44df17fe)" d="M 679.146158 390.04 
L 679.146158 11.736 
" style="fill:none;stroke:#808080;stroke-linecap:square;stroke-opacity:0.2;"/>
     </g>
     <g id="line2d_14">
      <g>
       <use style="stroke:#000000;stroke-width:0.8;" x="679.146158" xlink:href="#ma4c2063219" y="390.04"/>
      </g>
     </g>
     <g id="text_7">
      <!-- 2020-03-23 -->
      <g transform="translate(650.088346 404.638438)scale(0.1 -0.1)">
       <use xlink:href="#DejaVuSans-50"/>
       <use x="63.623047" xlink:href="#DejaVuSans-48"/>
       <use x="127.246094" xlink:href="#DejaVuSans-50"/>
       <use x="190.869141" xlink:href="#DejaVuSans-48"/>
       <use x="254.492188" xlink:href="#DejaVuSans-45"/>
       <use x="290.576172" xlink:href="#DejaVuSans-48"/>
       <use x="354.199219" xlink:href="#DejaVuSans-51"/>
       <use x="417.822266" xlink:href="#DejaVuSans-45"/>
       <use x="453.90625" xlink:href="#DejaVuSans-50"/>
       <use x="517.529297" xlink:href="#DejaVuSans-51"/>
      </g>
     </g>
    </g>
    <g id="text_8">
     <!-- ds -->
     <defs>
      <path d="M 45.40625 46.390625 
L 45.40625 75.984375 
L 54.390625 75.984375 
L 54.390625 0 
L 45.40625 0 
L 45.40625 8.203125 
Q 42.578125 3.328125 38.25 0.953125 
Q 33.9375 -1.421875 27.875 -1.421875 
Q 17.96875 -1.421875 11.734375 6.484375 
Q 5.515625 14.40625 5.515625 27.296875 
Q 5.515625 40.1875 11.734375 48.09375 
Q 17.96875 56 27.875 56 
Q 33.9375 56 38.25 53.625 
Q 42.578125 51.265625 45.40625 46.390625 
z
M 14.796875 27.296875 
Q 14.796875 17.390625 18.875 11.75 
Q 22.953125 6.109375 30.078125 6.109375 
Q 37.203125 6.109375 41.296875 11.75 
Q 45.40625 17.390625 45.40625 27.296875 
Q 45.40625 37.203125 41.296875 42.84375 
Q 37.203125 48.484375 30.078125 48.484375 
Q 22.953125 48.484375 18.875 42.84375 
Q 14.796875 37.203125 14.796875 27.296875 
z
" id="DejaVuSans-100"/>
      <path d="M 44.28125 53.078125 
L 44.28125 44.578125 
Q 40.484375 46.53125 36.375 47.5 
Q 32.28125 48.484375 27.875 48.484375 
Q 21.1875 48.484375 17.84375 46.4375 
Q 14.5 44.390625 14.5 40.28125 
Q 14.5 37.15625 16.890625 35.375 
Q 19.28125 33.59375 26.515625 31.984375 
L 29.59375 31.296875 
Q 39.15625 29.25 43.1875 25.515625 
Q 47.21875 21.78125 47.21875 15.09375 
Q 47.21875 7.46875 41.1875 3.015625 
Q 35.15625 -1.421875 24.609375 -1.421875 
Q 20.21875 -1.421875 15.453125 -0.5625 
Q 10.6875 0.296875 5.421875 2 
L 5.421875 11.28125 
Q 10.40625 8.6875 15.234375 7.390625 
Q 20.0625 6.109375 24.8125 6.109375 
Q 31.15625 6.109375 34.5625 8.28125 
Q 37.984375 10.453125 37.984375 14.40625 
Q 37.984375 18.0625 35.515625 20.015625 
Q 33.0625 21.96875 24.703125 23.78125 
L 21.578125 24.515625 
Q 13.234375 26.265625 9.515625 29.90625 
Q 5.8125 33.546875 5.8125 39.890625 
Q 5.8125 47.609375 11.28125 51.796875 
Q 16.75 56 26.8125 56 
Q 31.78125 56 36.171875 55.265625 
Q 40.578125 54.546875 44.28125 53.078125 
z
" id="DejaVuSans-115"/>
     </defs>
     <g transform="translate(363.325333 418.316562)scale(0.1 -0.1)">
      <use xlink:href="#DejaVuSans-100"/>
      <use x="63.476562" xlink:href="#DejaVuSans-115"/>
     </g>
    </g>
   </g>
   <g id="matplotlib.axis_2">
    <g id="ytick_1">
     <g id="line2d_15">
      <path clip-path="url(#pce44df17fe)" d="M 51.05 359.087855 
L 687.158478 359.087855 
" style="fill:none;stroke:#808080;stroke-linecap:square;stroke-opacity:0.2;"/>
     </g>
     <g id="line2d_16">
      <defs>
       <path d="M 0 0 
L -3.5 0 
" id="mef8dd830b3" style="stroke:#000000;stroke-width:0.8;"/>
      </defs>
      <g>
       <use style="stroke:#000000;stroke-width:0.8;" x="51.05" xlink:href="#mef8dd830b3" y="359.087855"/>
      </g>
     </g>
     <g id="text_9">
      <!-- 145 -->
      <defs>
       <path d="M 10.796875 72.90625 
L 49.515625 72.90625 
L 49.515625 64.59375 
L 19.828125 64.59375 
L 19.828125 46.734375 
Q 21.96875 47.46875 24.109375 47.828125 
Q 26.265625 48.1875 28.421875 48.1875 
Q 40.625 48.1875 47.75 41.5 
Q 54.890625 34.8125 54.890625 23.390625 
Q 54.890625 11.625 47.5625 5.09375 
Q 40.234375 -1.421875 26.90625 -1.421875 
Q 22.3125 -1.421875 17.546875 -0.640625 
Q 12.796875 0.140625 7.71875 1.703125 
L 7.71875 11.625 
Q 12.109375 9.234375 16.796875 8.0625 
Q 21.484375 6.890625 26.703125 6.890625 
Q 35.15625 6.890625 40.078125 11.328125 
Q 45.015625 15.765625 45.015625 23.390625 
Q 45.015625 31 40.078125 35.4375 
Q 35.15625 39.890625 26.703125 39.890625 
Q 22.75 39.890625 18.8125 39.015625 
Q 14.890625 38.140625 10.796875 36.28125 
z
" id="DejaVuSans-53"/>
      </defs>
      <g transform="translate(24.9625 362.887073)scale(0.1 -0.1)">
       <use xlink:href="#DejaVuSans-49"/>
       <use x="63.623047" xlink:href="#DejaVuSans-52"/>
       <use x="127.246094" xlink:href="#DejaVuSans-53"/>
      </g>
     </g>
    </g>
    <g id="ytick_2">
     <g id="line2d_17">
      <path clip-path="url(#pce44df17fe)" d="M 51.05 290.305309 
L 687.158478 290.305309 
" style="fill:none;stroke:#808080;stroke-linecap:square;stroke-opacity:0.2;"/>
     </g>
     <g id="line2d_18">
      <g>
       <use style="stroke:#000000;stroke-width:0.8;" x="51.05" xlink:href="#mef8dd830b3" y="290.305309"/>
      </g>
     </g>
     <g id="text_10">
      <!-- 150 -->
      <g transform="translate(24.9625 294.104528)scale(0.1 -0.1)">
       <use xlink:href="#DejaVuSans-49"/>
       <use x="63.623047" xlink:href="#DejaVuSans-53"/>
       <use x="127.246094" xlink:href="#DejaVuSans-48"/>
      </g>
     </g>
    </g>
    <g id="ytick_3">
     <g id="line2d_19">
      <path clip-path="url(#pce44df17fe)" d="M 51.05 221.522764 
L 687.158478 221.522764 
" style="fill:none;stroke:#808080;stroke-linecap:square;stroke-opacity:0.2;"/>
     </g>
     <g id="line2d_20">
      <g>
       <use style="stroke:#000000;stroke-width:0.8;" x="51.05" xlink:href="#mef8dd830b3" y="221.522764"/>
      </g>
     </g>
     <g id="text_11">
      <!-- 155 -->
      <g transform="translate(24.9625 225.321982)scale(0.1 -0.1)">
       <use xlink:href="#DejaVuSans-49"/>
       <use x="63.623047" xlink:href="#DejaVuSans-53"/>
       <use x="127.246094" xlink:href="#DejaVuSans-53"/>
      </g>
     </g>
    </g>
    <g id="ytick_4">
     <g id="line2d_21">
      <path clip-path="url(#pce44df17fe)" d="M 51.05 152.740218 
L 687.158478 152.740218 
" style="fill:none;stroke:#808080;stroke-linecap:square;stroke-opacity:0.2;"/>
     </g>
     <g id="line2d_22">
      <g>
       <use style="stroke:#000000;stroke-width:0.8;" x="51.05" xlink:href="#mef8dd830b3" y="152.740218"/>
      </g>
     </g>
     <g id="text_12">
      <!-- 160 -->
      <defs>
       <path d="M 33.015625 40.375 
Q 26.375 40.375 22.484375 35.828125 
Q 18.609375 31.296875 18.609375 23.390625 
Q 18.609375 15.53125 22.484375 10.953125 
Q 26.375 6.390625 33.015625 6.390625 
Q 39.65625 6.390625 43.53125 10.953125 
Q 47.40625 15.53125 47.40625 23.390625 
Q 47.40625 31.296875 43.53125 35.828125 
Q 39.65625 40.375 33.015625 40.375 
z
M 52.59375 71.296875 
L 52.59375 62.3125 
Q 48.875 64.0625 45.09375 64.984375 
Q 41.3125 65.921875 37.59375 65.921875 
Q 27.828125 65.921875 22.671875 59.328125 
Q 17.53125 52.734375 16.796875 39.40625 
Q 19.671875 43.65625 24.015625 45.921875 
Q 28.375 48.1875 33.59375 48.1875 
Q 44.578125 48.1875 50.953125 41.515625 
Q 57.328125 34.859375 57.328125 23.390625 
Q 57.328125 12.15625 50.6875 5.359375 
Q 44.046875 -1.421875 33.015625 -1.421875 
Q 20.359375 -1.421875 13.671875 8.265625 
Q 6.984375 17.96875 6.984375 36.375 
Q 6.984375 53.65625 15.1875 63.9375 
Q 23.390625 74.21875 37.203125 74.21875 
Q 40.921875 74.21875 44.703125 73.484375 
Q 48.484375 72.75 52.59375 71.296875 
z
" id="DejaVuSans-54"/>
      </defs>
      <g transform="translate(24.9625 156.539437)scale(0.1 -0.1)">
       <use xlink:href="#DejaVuSans-49"/>
       <use x="63.623047" xlink:href="#DejaVuSans-54"/>
       <use x="127.246094" xlink:href="#DejaVuSans-48"/>
      </g>
     </g>
    </g>
    <g id="ytick_5">
     <g id="line2d_23">
      <path clip-path="url(#pce44df17fe)" d="M 51.05 83.957673 
L 687.158478 83.957673 
" style="fill:none;stroke:#808080;stroke-linecap:square;stroke-opacity:0.2;"/>
     </g>
     <g id="line2d_24">
      <g>
       <use style="stroke:#000000;stroke-width:0.8;" x="51.05" xlink:href="#mef8dd830b3" y="83.957673"/>
      </g>
     </g>
     <g id="text_13">
      <!-- 165 -->
      <g transform="translate(24.9625 87.756891)scale(0.1 -0.1)">
       <use xlink:href="#DejaVuSans-49"/>
       <use x="63.623047" xlink:href="#DejaVuSans-54"/>
       <use x="127.246094" xlink:href="#DejaVuSans-53"/>
      </g>
     </g>
    </g>
    <g id="ytick_6">
     <g id="line2d_25">
      <path clip-path="url(#pce44df17fe)" d="M 51.05 15.175127 
L 687.158478 15.175127 
" style="fill:none;stroke:#808080;stroke-linecap:square;stroke-opacity:0.2;"/>
     </g>
     <g id="line2d_26">
      <g>
       <use style="stroke:#000000;stroke-width:0.8;" x="51.05" xlink:href="#mef8dd830b3" y="15.175127"/>
      </g>
     </g>
     <g id="text_14">
      <!-- 170 -->
      <g transform="translate(24.9625 18.974346)scale(0.1 -0.1)">
       <use xlink:href="#DejaVuSans-49"/>
       <use x="63.623047" xlink:href="#DejaVuSans-55"/>
       <use x="127.246094" xlink:href="#DejaVuSans-48"/>
      </g>
     </g>
    </g>
    <g id="text_15">
     <!-- y -->
     <defs>
      <path d="M 32.171875 -5.078125 
Q 28.375 -14.84375 24.75 -17.8125 
Q 21.140625 -20.796875 15.09375 -20.796875 
L 7.90625 -20.796875 
L 7.90625 -13.28125 
L 13.1875 -13.28125 
Q 16.890625 -13.28125 18.9375 -11.515625 
Q 21 -9.765625 23.484375 -3.21875 
L 25.09375 0.875 
L 2.984375 54.6875 
L 12.5 54.6875 
L 29.59375 11.921875 
L 46.6875 54.6875 
L 56.203125 54.6875 
z
" id="DejaVuSans-121"/>
     </defs>
     <g transform="translate(18.882812 203.847375)rotate(-90)scale(0.1 -0.1)">
      <use xlink:href="#DejaVuSans-121"/>
     </g>
    </g>
   </g>
   <g id="line2d_27">
    <defs>
     <path d="M 0 1.5 
C 0.397805 1.5 0.77937 1.341951 1.06066 1.06066 
C 1.341951 0.77937 1.5 0.397805 1.5 0 
C 1.5 -0.397805 1.341951 -0.77937 1.06066 -1.06066 
C 0.77937 -1.341951 0.397805 -1.5 0 -1.5 
C -0.397805 -1.5 -0.77937 -1.341951 -1.06066 -1.06066 
C -1.341951 -0.77937 -1.5 -0.397805 -1.5 0 
C -1.5 0.397805 -1.341951 0.77937 -1.06066 1.06066 
C -0.77937 1.341951 -0.397805 1.5 0 1.5 
z
" id="mfb00a3b0c5" style="stroke:#000000;"/>
    </defs>
    <g clip-path="url(#pce44df17fe)">
     <use style="stroke:#000000;" x="79.964022" xlink:href="#mfb00a3b0c5" y="97.714182"/>
     <use style="stroke:#000000;" x="86.931256" xlink:href="#mfb00a3b0c5" y="276.5488"/>
     <use style="stroke:#000000;" x="100.865724" xlink:href="#mfb00a3b0c5" y="97.714182"/>
     <use style="stroke:#000000;" x="107.832958" xlink:href="#mfb00a3b0c5" y="180.253236"/>
     <use style="stroke:#000000;" x="121.767427" xlink:href="#mfb00a3b0c5" y="152.740218"/>
     <use style="stroke:#000000;" x="128.734661" xlink:href="#mfb00a3b0c5" y="194.009745"/>
     <use style="stroke:#000000;" x="142.669129" xlink:href="#mfb00a3b0c5" y="180.253236"/>
     <use style="stroke:#000000;" x="149.636363" xlink:href="#mfb00a3b0c5" y="221.522764"/>
     <use style="stroke:#000000;" x="163.570831" xlink:href="#mfb00a3b0c5" y="152.740218"/>
     <use style="stroke:#000000;" x="170.538066" xlink:href="#mfb00a3b0c5" y="180.253236"/>
     <use style="stroke:#000000;" x="184.472534" xlink:href="#mfb00a3b0c5" y="28.931636"/>
     <use style="stroke:#000000;" x="191.439768" xlink:href="#mfb00a3b0c5" y="180.253236"/>
     <use style="stroke:#000000;" x="205.374236" xlink:href="#mfb00a3b0c5" y="276.5488"/>
     <use style="stroke:#000000;" x="212.34147" xlink:href="#mfb00a3b0c5" y="138.983709"/>
     <use style="stroke:#000000;" x="226.275939" xlink:href="#mfb00a3b0c5" y="207.766255"/>
     <use style="stroke:#000000;" x="233.243173" xlink:href="#mfb00a3b0c5" y="207.766255"/>
     <use style="stroke:#000000;" x="247.177641" xlink:href="#mfb00a3b0c5" y="331.574836"/>
     <use style="stroke:#000000;" x="254.144875" xlink:href="#mfb00a3b0c5" y="207.766255"/>
     <use style="stroke:#000000;" x="268.079344" xlink:href="#mfb00a3b0c5" y="111.470691"/>
     <use style="stroke:#000000;" x="275.046578" xlink:href="#mfb00a3b0c5" y="194.009745"/>
     <use style="stroke:#000000;" x="288.981046" xlink:href="#mfb00a3b0c5" y="138.983709"/>
     <use style="stroke:#000000;" x="295.94828" xlink:href="#mfb00a3b0c5" y="276.5488"/>
     <use style="stroke:#000000;" x="309.882749" xlink:href="#mfb00a3b0c5" y="152.740218"/>
     <use style="stroke:#000000;" x="316.849983" xlink:href="#mfb00a3b0c5" y="180.253236"/>
     <use style="stroke:#000000;" x="337.751685" xlink:href="#mfb00a3b0c5" y="331.574836"/>
     <use style="stroke:#000000;" x="351.686153" xlink:href="#mfb00a3b0c5" y="180.253236"/>
     <use style="stroke:#000000;" x="358.653388" xlink:href="#mfb00a3b0c5" y="180.253236"/>
     <use style="stroke:#000000;" x="372.587856" xlink:href="#mfb00a3b0c5" y="221.522764"/>
     <use style="stroke:#000000;" x="379.55509" xlink:href="#mfb00a3b0c5" y="152.740218"/>
     <use style="stroke:#000000;" x="393.489558" xlink:href="#mfb00a3b0c5" y="138.983709"/>
     <use style="stroke:#000000;" x="400.456792" xlink:href="#mfb00a3b0c5" y="221.522764"/>
     <use style="stroke:#000000;" x="414.391261" xlink:href="#mfb00a3b0c5" y="345.331345"/>
     <use style="stroke:#000000;" x="421.358495" xlink:href="#mfb00a3b0c5" y="207.766255"/>
     <use style="stroke:#000000;" x="435.292963" xlink:href="#mfb00a3b0c5" y="97.714182"/>
     <use style="stroke:#000000;" x="442.260197" xlink:href="#mfb00a3b0c5" y="221.522764"/>
     <use style="stroke:#000000;" x="456.194666" xlink:href="#mfb00a3b0c5" y="207.766255"/>
     <use style="stroke:#000000;" x="463.1619" xlink:href="#mfb00a3b0c5" y="194.009745"/>
     <use style="stroke:#000000;" x="477.096368" xlink:href="#mfb00a3b0c5" y="138.983709"/>
     <use style="stroke:#000000;" x="484.063602" xlink:href="#mfb00a3b0c5" y="235.279273"/>
     <use style="stroke:#000000;" x="497.99807" xlink:href="#mfb00a3b0c5" y="180.253236"/>
     <use style="stroke:#000000;" x="504.965305" xlink:href="#mfb00a3b0c5" y="262.792291"/>
     <use style="stroke:#000000;" x="518.899773" xlink:href="#mfb00a3b0c5" y="111.470691"/>
     <use style="stroke:#000000;" x="525.867007" xlink:href="#mfb00a3b0c5" y="317.818327"/>
     <use style="stroke:#000000;" x="539.801475" xlink:href="#mfb00a3b0c5" y="194.009745"/>
     <use style="stroke:#000000;" x="546.76871" xlink:href="#mfb00a3b0c5" y="317.818327"/>
     <use style="stroke:#000000;" x="560.703178" xlink:href="#mfb00a3b0c5" y="221.522764"/>
     <use style="stroke:#000000;" x="567.670412" xlink:href="#mfb00a3b0c5" y="372.844364"/>
     <use style="stroke:#000000;" x="581.60488" xlink:href="#mfb00a3b0c5" y="125.2272"/>
     <use style="stroke:#000000;" x="588.572114" xlink:href="#mfb00a3b0c5" y="221.522764"/>
     <use style="stroke:#000000;" x="602.506583" xlink:href="#mfb00a3b0c5" y="249.035782"/>
     <use style="stroke:#000000;" x="609.473817" xlink:href="#mfb00a3b0c5" y="166.496727"/>
     <use style="stroke:#000000;" x="623.408285" xlink:href="#mfb00a3b0c5" y="125.2272"/>
     <use style="stroke:#000000;" x="630.375519" xlink:href="#mfb00a3b0c5" y="166.496727"/>
     <use style="stroke:#000000;" x="644.309988" xlink:href="#mfb00a3b0c5" y="166.496727"/>
     <use style="stroke:#000000;" x="651.277222" xlink:href="#mfb00a3b0c5" y="180.253236"/>
    </g>
   </g>
   <g id="line2d_28">
    <path clip-path="url(#pce44df17fe)" d="M 79.964022 182.395259 
L 86.931256 158.031134 
L 100.865724 194.61371 
L 107.832958 196.441826 
L 121.767427 175.899678 
L 128.734661 186.282489 
L 142.669129 164.076624 
L 149.636363 198.500939 
L 163.570831 172.901541 
L 170.538066 179.786908 
L 184.472534 165.805593 
L 191.439768 167.963853 
L 205.374236 204.216284 
L 212.34147 176.78877 
L 226.275939 194.056947 
L 233.243173 169.691531 
L 247.177641 206.270745 
L 254.144875 208.097181 
L 268.079344 187.533707 
L 275.046578 197.905855 
L 288.981046 175.654909 
L 295.94828 210.056684 
L 309.882749 184.408637 
L 316.849983 191.263441 
L 337.751685 179.348697 
L 351.686153 215.52915 
L 358.653388 188.065647 
L 372.587856 205.231846 
L 379.55509 180.816732 
L 393.489558 217.274418 
L 400.456792 219.02951 
L 414.391261 198.341314 
L 421.358495 208.642353 
L 435.292963 186.272945 
L 442.260197 220.606648 
L 456.194666 194.80741 
L 463.1619 201.592857 
L 477.096368 187.391889 
L 484.063602 189.440322 
L 497.99807 225.448364 
L 504.965305 197.898655 
L 518.899773 214.891703 
L 525.867007 190.376136 
L 539.801475 226.65583 
L 546.76871 228.318192 
L 560.703178 207.444538 
L 567.670412 217.661596 
L 581.60488 195.124224 
L 588.572114 229.382787 
L 602.506583 203.451882 
L 609.473817 210.171496 
L 623.408285 195.858674 
L 630.375519 197.851181 
L 644.309988 233.772107 
L 651.277222 206.178839 
L 658.244456 212.898453 
" style="fill:none;stroke:#0072b2;stroke-linecap:square;stroke-width:1.5;"/>
   </g>
   <g id="patch_3">
    <path d="M 51.05 390.04 
L 51.05 11.736 
" style="fill:none;stroke:#000000;stroke-linecap:square;stroke-linejoin:miter;stroke-width:0.8;"/>
   </g>
   <g id="patch_4">
    <path d="M 687.158478 390.04 
L 687.158478 11.736 
" style="fill:none;stroke:#000000;stroke-linecap:square;stroke-linejoin:miter;stroke-width:0.8;"/>
   </g>
   <g id="patch_5">
    <path d="M 51.05 390.04 
L 687.158478 390.04 
" style="fill:none;stroke:#000000;stroke-linecap:square;stroke-linejoin:miter;stroke-width:0.8;"/>
   </g>
   <g id="patch_6">
    <path d="M 51.05 11.736 
L 687.158478 11.736 
" style="fill:none;stroke:#000000;stroke-linecap:square;stroke-linejoin:miter;stroke-width:0.8;"/>
   </g>
  </g>
 </g>
 <defs>
  <clipPath id="pce44df17fe">
   <rect height="378.304" width="636.108478" x="51.05" y="11.736"/>
  </clipPath>
 </defs>
</svg>
