<?xml version="1.0" encoding="utf-8" standalone="no"?>
<!DOCTYPE svg PUBLIC "-//W3C//DTD SVG 1.1//EN"
  "http://www.w3.org/Graphics/SVG/1.1/DTD/svg11.dtd">
<!-- Created with matplotlib (https://matplotlib.org/) -->
<svg height="432pt" version="1.1" viewBox="0 0 720 432" width="720pt" xmlns="http://www.w3.org/2000/svg" xmlns:xlink="http://www.w3.org/1999/xlink">
 <defs>
  <style type="text/css">
*{stroke-linecap:butt;stroke-linejoin:round;}
  </style>
 </defs>
 <g id="figure_1">
  <g id="patch_1">
   <path d="M 0 432 
L 720 432 
L 720 0 
L 0 0 
z
" style="fill:#ffffff;"/>
  </g>
  <g id="axes_1">
   <g id="patch_2">
    <path d="M 60.59 390.04 
L 687.158478 390.04 
L 687.158478 10.8 
L 60.59 10.8 
z
" style="fill:#ffffff;"/>
   </g>
   <g id="PolyCollection_1">
    <defs>
     <path d="M 89.070385 -281.32029 
L 89.070385 -90.906439 
L 95.933129 -81.457772 
L 109.658616 -160.848688 
L 116.521359 -136.887425 
L 130.246846 -116.415806 
L 137.10959 -111.563318 
L 150.835076 -129.946657 
L 157.69782 -171.0537 
L 171.423307 -139.102359 
L 178.28605 -136.800885 
L 192.011537 -125.052098 
L 198.874281 -155.193297 
L 212.599768 -173.862977 
L 219.462511 -155.583948 
L 233.187998 -154.608891 
L 240.050741 -139.966269 
L 253.776228 -202.330302 
L 260.638972 -181.550484 
L 274.364459 -167.536977 
L 281.227202 -175.320256 
L 294.952689 -194.146088 
L 301.815432 -218.464511 
L 315.540919 -183.675329 
L 322.403663 -183.218248 
L 336.12915 -160.983456 
L 342.991893 -187.770584 
L 356.71738 -200.39764 
L 363.580124 -179.016597 
L 377.305611 -170.161826 
L 384.168354 -152.881057 
L 397.893841 -214.640473 
L 404.756584 -197.244938 
L 418.482071 -164.069376 
L 425.344815 -159.797134 
L 439.070302 -174.416725 
L 445.933045 -214.114398 
L 459.658532 -166.278298 
L 466.521275 -163.424893 
L 480.246762 -130.003785 
L 487.109506 -171.601209 
L 500.834993 -179.458612 
L 507.697736 -153.837766 
L 521.423223 -144.152653 
L 528.285967 -132.901918 
L 542.011453 -194.427375 
L 548.874197 -172.88378 
L 562.599684 -136.351202 
L 569.462427 -136.273197 
L 583.187914 -152.469995 
L 590.050658 -184.491757 
L 603.776145 -138.331456 
L 610.638888 -133.24587 
L 624.364375 -116.240544 
L 631.227118 -142.620893 
L 651.815349 -140.008512 
L 658.678092 -124.589247 
L 658.678092 -309.848114 
L 658.678092 -309.848114 
L 651.815349 -312.035937 
L 631.227118 -327.889864 
L 624.364375 -294.032651 
L 610.638888 -312.982736 
L 603.776145 -323.824398 
L 590.050658 -367.324897 
L 583.187914 -336.38133 
L 569.462427 -324.868541 
L 562.599684 -323.111116 
L 548.874197 -359.054232 
L 542.011453 -379.331553 
L 528.285967 -319.175154 
L 521.423223 -329.723545 
L 507.697736 -341.340385 
L 500.834993 -364.813287 
L 487.109506 -353.631715 
L 480.246762 -320.208254 
L 466.521275 -347.642448 
L 459.658532 -348.718376 
L 445.933045 -391.710596 
L 439.070302 -356.339779 
L 425.344815 -346.110994 
L 418.482071 -346.551561 
L 404.756584 -387.283227 
L 397.893841 -398.927013 
L 384.168354 -334.319457 
L 377.305611 -356.529751 
L 363.580124 -361.718534 
L 356.71738 -386.248732 
L 342.991893 -369.562745 
L 336.12915 -348.809259 
L 322.403663 -367.157691 
L 315.540919 -365.769384 
L 301.815432 -403.961818 
L 294.952689 -379.22059 
L 281.227202 -353.390611 
L 274.364459 -354.731374 
L 260.638972 -374.56324 
L 253.776228 -388.312339 
L 240.050741 -320.674919 
L 233.187998 -334.10476 
L 219.462511 -341.048909 
L 212.599768 -354.90471 
L 198.874281 -336.551256 
L 192.011537 -304.687801 
L 178.28605 -312.952646 
L 171.423307 -318.405741 
L 157.69782 -349.941995 
L 150.835076 -314.528535 
L 137.10959 -295.960776 
L 130.246846 -306.955257 
L 116.521359 -321.537175 
L 109.658616 -339.052326 
L 95.933129 -266.308541 
L 89.070385 -281.32029 
z
" id="m704cfd8aae" style="stroke:#0072b2;stroke-opacity:0.2;"/>
    </defs>
    <g clip-path="url(#p3625d45f35)">
     <use style="fill:#0072b2;fill-opacity:0.2;stroke:#0072b2;stroke-opacity:0.2;" x="0" xlink:href="#m704cfd8aae" y="432"/>
    </g>
   </g>
   <g id="matplotlib.axis_1">
    <g id="xtick_1">
     <g id="line2d_1">
      <path clip-path="url(#p3625d45f35)" d="M 102.795872 390.04 
L 102.795872 10.8 
" style="fill:none;stroke:#808080;stroke-linecap:square;stroke-opacity:0.2;"/>
     </g>
     <g id="line2d_2">
      <defs>
       <path d="M 0 0 
L 0 3.5 
" id="m1f9cf0e129" style="stroke:#000000;stroke-width:0.8;"/>
      </defs>
      <g>
       <use style="stroke:#000000;stroke-width:0.8;" x="102.795872" xlink:href="#m1f9cf0e129" y="390.04"/>
      </g>
     </g>
     <g id="text_1">
      <!-- 2019-11-15 -->
      <defs>
       <path d="M 19.1875 8.296875 
L 53.609375 8.296875 
L 53.609375 0 
L 7.328125 0 
L 7.328125 8.296875 
Q 12.9375 14.109375 22.625 23.890625 
Q 32.328125 33.6875 34.8125 36.53125 
Q 39.546875 41.84375 41.421875 45.53125 
Q 43.3125 49.21875 43.3125 52.78125 
Q 43.3125 58.59375 39.234375 62.25 
Q 35.15625 65.921875 28.609375 65.921875 
Q 23.96875 65.921875 18.8125 64.3125 
Q 13.671875 62.703125 7.8125 59.421875 
L 7.8125 69.390625 
Q 13.765625 71.78125 18.9375 73 
Q 24.125 74.21875 28.421875 74.21875 
Q 39.75 74.21875 46.484375 68.546875 
Q 53.21875 62.890625 53.21875 53.421875 
Q 53.21875 48.921875 51.53125 44.890625 
Q 49.859375 40.875 45.40625 35.40625 
Q 44.1875 33.984375 37.640625 27.21875 
Q 31.109375 20.453125 19.1875 8.296875 
z
" id="DejaVuSans-50"/>
       <path d="M 31.78125 66.40625 
Q 24.171875 66.40625 20.328125 58.90625 
Q 16.5 51.421875 16.5 36.375 
Q 16.5 21.390625 20.328125 13.890625 
Q 24.171875 6.390625 31.78125 6.390625 
Q 39.453125 6.390625 43.28125 13.890625 
Q 47.125 21.390625 47.125 36.375 
Q 47.125 51.421875 43.28125 58.90625 
Q 39.453125 66.40625 31.78125 66.40625 
z
M 31.78125 74.21875 
Q 44.046875 74.21875 50.515625 64.515625 
Q 56.984375 54.828125 56.984375 36.375 
Q 56.984375 17.96875 50.515625 8.265625 
Q 44.046875 -1.421875 31.78125 -1.421875 
Q 19.53125 -1.421875 13.0625 8.265625 
Q 6.59375 17.96875 6.59375 36.375 
Q 6.59375 54.828125 13.0625 64.515625 
Q 19.53125 74.21875 31.78125 74.21875 
z
" id="DejaVuSans-48"/>
       <path d="M 12.40625 8.296875 
L 28.515625 8.296875 
L 28.515625 63.921875 
L 10.984375 60.40625 
L 10.984375 69.390625 
L 28.421875 72.90625 
L 38.28125 72.90625 
L 38.28125 8.296875 
L 54.390625 8.296875 
L 54.390625 0 
L 12.40625 0 
z
" id="DejaVuSans-49"/>
       <path d="M 10.984375 1.515625 
L 10.984375 10.5 
Q 14.703125 8.734375 18.5 7.8125 
Q 22.3125 6.890625 25.984375 6.890625 
Q 35.75 6.890625 40.890625 13.453125 
Q 46.046875 20.015625 46.78125 33.40625 
Q 43.953125 29.203125 39.59375 26.953125 
Q 35.25 24.703125 29.984375 24.703125 
Q 19.046875 24.703125 12.671875 31.3125 
Q 6.296875 37.9375 6.296875 49.421875 
Q 6.296875 60.640625 12.9375 67.421875 
Q 19.578125 74.21875 30.609375 74.21875 
Q 43.265625 74.21875 49.921875 64.515625 
Q 56.59375 54.828125 56.59375 36.375 
Q 56.59375 19.140625 48.40625 8.859375 
Q 40.234375 -1.421875 26.421875 -1.421875 
Q 22.703125 -1.421875 18.890625 -0.6875 
Q 15.09375 0.046875 10.984375 1.515625 
z
M 30.609375 32.421875 
Q 37.25 32.421875 41.125 36.953125 
Q 45.015625 41.5 45.015625 49.421875 
Q 45.015625 57.28125 41.125 61.84375 
Q 37.25 66.40625 30.609375 66.40625 
Q 23.96875 66.40625 20.09375 61.84375 
Q 16.21875 57.28125 16.21875 49.421875 
Q 16.21875 41.5 20.09375 36.953125 
Q 23.96875 32.421875 30.609375 32.421875 
z
" id="DejaVuSans-57"/>
       <path d="M 4.890625 31.390625 
L 31.203125 31.390625 
L 31.203125 23.390625 
L 4.890625 23.390625 
z
" id="DejaVuSans-45"/>
       <path d="M 10.796875 72.90625 
L 49.515625 72.90625 
L 49.515625 64.59375 
L 19.828125 64.59375 
L 19.828125 46.734375 
Q 21.96875 47.46875 24.109375 47.828125 
Q 26.265625 48.1875 28.421875 48.1875 
Q 40.625 48.1875 47.75 41.5 
Q 54.890625 34.8125 54.890625 23.390625 
Q 54.890625 11.625 47.5625 5.09375 
Q 40.234375 -1.421875 26.90625 -1.421875 
Q 22.3125 -1.421875 17.546875 -0.640625 
Q 12.796875 0.140625 7.71875 1.703125 
L 7.71875 11.625 
Q 12.109375 9.234375 16.796875 8.0625 
Q 21.484375 6.890625 26.703125 6.890625 
Q 35.15625 6.890625 40.078125 11.328125 
Q 45.015625 15.765625 45.015625 23.390625 
Q 45.015625 31 40.078125 35.4375 
Q 35.15625 39.890625 26.703125 39.890625 
Q 22.75 39.890625 18.8125 39.015625 
Q 14.890625 38.140625 10.796875 36.28125 
z
" id="DejaVuSans-53"/>
      </defs>
      <g transform="translate(73.73806 404.638438)scale(0.1 -0.1)">
       <use xlink:href="#DejaVuSans-50"/>
       <use x="63.623047" xlink:href="#DejaVuSans-48"/>
       <use x="127.246094" xlink:href="#DejaVuSans-49"/>
       <use x="190.869141" xlink:href="#DejaVuSans-57"/>
       <use x="254.492188" xlink:href="#DejaVuSans-45"/>
       <use x="290.576172" xlink:href="#DejaVuSans-49"/>
       <use x="354.199219" xlink:href="#DejaVuSans-49"/>
       <use x="417.822266" xlink:href="#DejaVuSans-45"/>
       <use x="453.90625" xlink:href="#DejaVuSans-49"/>
       <use x="517.529297" xlink:href="#DejaVuSans-53"/>
      </g>
     </g>
    </g>
    <g id="xtick_2">
     <g id="line2d_3">
      <path clip-path="url(#p3625d45f35)" d="M 198.874281 390.04 
L 198.874281 10.8 
" style="fill:none;stroke:#808080;stroke-linecap:square;stroke-opacity:0.2;"/>
     </g>
     <g id="line2d_4">
      <g>
       <use style="stroke:#000000;stroke-width:0.8;" x="198.874281" xlink:href="#m1f9cf0e129" y="390.04"/>
      </g>
     </g>
     <g id="text_2">
      <!-- 2019-11-29 -->
      <g transform="translate(169.816468 404.638438)scale(0.1 -0.1)">
       <use xlink:href="#DejaVuSans-50"/>
       <use x="63.623047" xlink:href="#DejaVuSans-48"/>
       <use x="127.246094" xlink:href="#DejaVuSans-49"/>
       <use x="190.869141" xlink:href="#DejaVuSans-57"/>
       <use x="254.492188" xlink:href="#DejaVuSans-45"/>
       <use x="290.576172" xlink:href="#DejaVuSans-49"/>
       <use x="354.199219" xlink:href="#DejaVuSans-49"/>
       <use x="417.822266" xlink:href="#DejaVuSans-45"/>
       <use x="453.90625" xlink:href="#DejaVuSans-50"/>
       <use x="517.529297" xlink:href="#DejaVuSans-57"/>
      </g>
     </g>
    </g>
    <g id="xtick_3">
     <g id="line2d_5">
      <path clip-path="url(#p3625d45f35)" d="M 294.952689 390.04 
L 294.952689 10.8 
" style="fill:none;stroke:#808080;stroke-linecap:square;stroke-opacity:0.2;"/>
     </g>
     <g id="line2d_6">
      <g>
       <use style="stroke:#000000;stroke-width:0.8;" x="294.952689" xlink:href="#m1f9cf0e129" y="390.04"/>
      </g>
     </g>
     <g id="text_3">
      <!-- 2019-12-13 -->
      <defs>
       <path d="M 40.578125 39.3125 
Q 47.65625 37.796875 51.625 33 
Q 55.609375 28.21875 55.609375 21.1875 
Q 55.609375 10.40625 48.1875 4.484375 
Q 40.765625 -1.421875 27.09375 -1.421875 
Q 22.515625 -1.421875 17.65625 -0.515625 
Q 12.796875 0.390625 7.625 2.203125 
L 7.625 11.71875 
Q 11.71875 9.328125 16.59375 8.109375 
Q 21.484375 6.890625 26.8125 6.890625 
Q 36.078125 6.890625 40.9375 10.546875 
Q 45.796875 14.203125 45.796875 21.1875 
Q 45.796875 27.640625 41.28125 31.265625 
Q 36.765625 34.90625 28.71875 34.90625 
L 20.21875 34.90625 
L 20.21875 43.015625 
L 29.109375 43.015625 
Q 36.375 43.015625 40.234375 45.921875 
Q 44.09375 48.828125 44.09375 54.296875 
Q 44.09375 59.90625 40.109375 62.90625 
Q 36.140625 65.921875 28.71875 65.921875 
Q 24.65625 65.921875 20.015625 65.03125 
Q 15.375 64.15625 9.8125 62.3125 
L 9.8125 71.09375 
Q 15.4375 72.65625 20.34375 73.4375 
Q 25.25 74.21875 29.59375 74.21875 
Q 40.828125 74.21875 47.359375 69.109375 
Q 53.90625 64.015625 53.90625 55.328125 
Q 53.90625 49.265625 50.4375 45.09375 
Q 46.96875 40.921875 40.578125 39.3125 
z
" id="DejaVuSans-51"/>
      </defs>
      <g transform="translate(265.894877 404.638438)scale(0.1 -0.1)">
       <use xlink:href="#DejaVuSans-50"/>
       <use x="63.623047" xlink:href="#DejaVuSans-48"/>
       <use x="127.246094" xlink:href="#DejaVuSans-49"/>
       <use x="190.869141" xlink:href="#DejaVuSans-57"/>
       <use x="254.492188" xlink:href="#DejaVuSans-45"/>
       <use x="290.576172" xlink:href="#DejaVuSans-49"/>
       <use x="354.199219" xlink:href="#DejaVuSans-50"/>
       <use x="417.822266" xlink:href="#DejaVuSans-45"/>
       <use x="453.90625" xlink:href="#DejaVuSans-49"/>
       <use x="517.529297" xlink:href="#DejaVuSans-51"/>
      </g>
     </g>
    </g>
    <g id="xtick_4">
     <g id="line2d_7">
      <path clip-path="url(#p3625d45f35)" d="M 391.031097 390.04 
L 391.031097 10.8 
" style="fill:none;stroke:#808080;stroke-linecap:square;stroke-opacity:0.2;"/>
     </g>
     <g id="line2d_8">
      <g>
       <use style="stroke:#000000;stroke-width:0.8;" x="391.031097" xlink:href="#m1f9cf0e129" y="390.04"/>
      </g>
     </g>
     <g id="text_4">
      <!-- 2019-12-27 -->
      <defs>
       <path d="M 8.203125 72.90625 
L 55.078125 72.90625 
L 55.078125 68.703125 
L 28.609375 0 
L 18.3125 0 
L 43.21875 64.59375 
L 8.203125 64.59375 
z
" id="DejaVuSans-55"/>
      </defs>
      <g transform="translate(361.973285 404.638438)scale(0.1 -0.1)">
       <use xlink:href="#DejaVuSans-50"/>
       <use x="63.623047" xlink:href="#DejaVuSans-48"/>
       <use x="127.246094" xlink:href="#DejaVuSans-49"/>
       <use x="190.869141" xlink:href="#DejaVuSans-57"/>
       <use x="254.492188" xlink:href="#DejaVuSans-45"/>
       <use x="290.576172" xlink:href="#DejaVuSans-49"/>
       <use x="354.199219" xlink:href="#DejaVuSans-50"/>
       <use x="417.822266" xlink:href="#DejaVuSans-45"/>
       <use x="453.90625" xlink:href="#DejaVuSans-50"/>
       <use x="517.529297" xlink:href="#DejaVuSans-55"/>
      </g>
     </g>
    </g>
    <g id="xtick_5">
     <g id="line2d_9">
      <path clip-path="url(#p3625d45f35)" d="M 487.109506 390.04 
L 487.109506 10.8 
" style="fill:none;stroke:#808080;stroke-linecap:square;stroke-opacity:0.2;"/>
     </g>
     <g id="line2d_10">
      <g>
       <use style="stroke:#000000;stroke-width:0.8;" x="487.109506" xlink:href="#m1f9cf0e129" y="390.04"/>
      </g>
     </g>
     <g id="text_5">
      <!-- 2020-01-10 -->
      <g transform="translate(458.051693 404.638438)scale(0.1 -0.1)">
       <use xlink:href="#DejaVuSans-50"/>
       <use x="63.623047" xlink:href="#DejaVuSans-48"/>
       <use x="127.246094" xlink:href="#DejaVuSans-50"/>
       <use x="190.869141" xlink:href="#DejaVuSans-48"/>
       <use x="254.492188" xlink:href="#DejaVuSans-45"/>
       <use x="290.576172" xlink:href="#DejaVuSans-48"/>
       <use x="354.199219" xlink:href="#DejaVuSans-49"/>
       <use x="417.822266" xlink:href="#DejaVuSans-45"/>
       <use x="453.90625" xlink:href="#DejaVuSans-49"/>
       <use x="517.529297" xlink:href="#DejaVuSans-48"/>
      </g>
     </g>
    </g>
    <g id="xtick_6">
     <g id="line2d_11">
      <path clip-path="url(#p3625d45f35)" d="M 583.187914 390.04 
L 583.187914 10.8 
" style="fill:none;stroke:#808080;stroke-linecap:square;stroke-opacity:0.2;"/>
     </g>
     <g id="line2d_12">
      <g>
       <use style="stroke:#000000;stroke-width:0.8;" x="583.187914" xlink:href="#m1f9cf0e129" y="390.04"/>
      </g>
     </g>
     <g id="text_6">
      <!-- 2020-01-24 -->
      <defs>
       <path d="M 37.796875 64.3125 
L 12.890625 25.390625 
L 37.796875 25.390625 
z
M 35.203125 72.90625 
L 47.609375 72.90625 
L 47.609375 25.390625 
L 58.015625 25.390625 
L 58.015625 17.1875 
L 47.609375 17.1875 
L 47.609375 0 
L 37.796875 0 
L 37.796875 17.1875 
L 4.890625 17.1875 
L 4.890625 26.703125 
z
" id="DejaVuSans-52"/>
      </defs>
      <g transform="translate(554.130102 404.638438)scale(0.1 -0.1)">
       <use xlink:href="#DejaVuSans-50"/>
       <use x="63.623047" xlink:href="#DejaVuSans-48"/>
       <use x="127.246094" xlink:href="#DejaVuSans-50"/>
       <use x="190.869141" xlink:href="#DejaVuSans-48"/>
       <use x="254.492188" xlink:href="#DejaVuSans-45"/>
       <use x="290.576172" xlink:href="#DejaVuSans-48"/>
       <use x="354.199219" xlink:href="#DejaVuSans-49"/>
       <use x="417.822266" xlink:href="#DejaVuSans-45"/>
       <use x="453.90625" xlink:href="#DejaVuSans-50"/>
       <use x="517.529297" xlink:href="#DejaVuSans-52"/>
      </g>
     </g>
    </g>
    <g id="xtick_7">
     <g id="line2d_13">
      <path clip-path="url(#p3625d45f35)" d="M 679.266323 390.04 
L 679.266323 10.8 
" style="fill:none;stroke:#808080;stroke-linecap:square;stroke-opacity:0.2;"/>
     </g>
     <g id="line2d_14">
      <g>
       <use style="stroke:#000000;stroke-width:0.8;" x="679.266323" xlink:href="#m1f9cf0e129" y="390.04"/>
      </g>
     </g>
     <g id="text_7">
      <!-- 2020-02-07 -->
      <g transform="translate(650.20851 404.638438)scale(0.1 -0.1)">
       <use xlink:href="#DejaVuSans-50"/>
       <use x="63.623047" xlink:href="#DejaVuSans-48"/>
       <use x="127.246094" xlink:href="#DejaVuSans-50"/>
       <use x="190.869141" xlink:href="#DejaVuSans-48"/>
       <use x="254.492188" xlink:href="#DejaVuSans-45"/>
       <use x="290.576172" xlink:href="#DejaVuSans-48"/>
       <use x="354.199219" xlink:href="#DejaVuSans-50"/>
       <use x="417.822266" xlink:href="#DejaVuSans-45"/>
       <use x="453.90625" xlink:href="#DejaVuSans-48"/>
       <use x="517.529297" xlink:href="#DejaVuSans-55"/>
      </g>
     </g>
    </g>
    <g id="text_8">
     <!-- ds -->
     <defs>
      <path d="M 45.40625 46.390625 
L 45.40625 75.984375 
L 54.390625 75.984375 
L 54.390625 0 
L 45.40625 0 
L 45.40625 8.203125 
Q 42.578125 3.328125 38.25 0.953125 
Q 33.9375 -1.421875 27.875 -1.421875 
Q 17.96875 -1.421875 11.734375 6.484375 
Q 5.515625 14.40625 5.515625 27.296875 
Q 5.515625 40.1875 11.734375 48.09375 
Q 17.96875 56 27.875 56 
Q 33.9375 56 38.25 53.625 
Q 42.578125 51.265625 45.40625 46.390625 
z
M 14.796875 27.296875 
Q 14.796875 17.390625 18.875 11.75 
Q 22.953125 6.109375 30.078125 6.109375 
Q 37.203125 6.109375 41.296875 11.75 
Q 45.40625 17.390625 45.40625 27.296875 
Q 45.40625 37.203125 41.296875 42.84375 
Q 37.203125 48.484375 30.078125 48.484375 
Q 22.953125 48.484375 18.875 42.84375 
Q 14.796875 37.203125 14.796875 27.296875 
z
" id="DejaVuSans-100"/>
      <path d="M 44.28125 53.078125 
L 44.28125 44.578125 
Q 40.484375 46.53125 36.375 47.5 
Q 32.28125 48.484375 27.875 48.484375 
Q 21.1875 48.484375 17.84375 46.4375 
Q 14.5 44.390625 14.5 40.28125 
Q 14.5 37.15625 16.890625 35.375 
Q 19.28125 33.59375 26.515625 31.984375 
L 29.59375 31.296875 
Q 39.15625 29.25 43.1875 25.515625 
Q 47.21875 21.78125 47.21875 15.09375 
Q 47.21875 7.46875 41.1875 3.015625 
Q 35.15625 -1.421875 24.609375 -1.421875 
Q 20.21875 -1.421875 15.453125 -0.5625 
Q 10.6875 0.296875 5.421875 2 
L 5.421875 11.28125 
Q 10.40625 8.6875 15.234375 7.390625 
Q 20.0625 6.109375 24.8125 6.109375 
Q 31.15625 6.109375 34.5625 8.28125 
Q 37.984375 10.453125 37.984375 14.40625 
Q 37.984375 18.0625 35.515625 20.015625 
Q 33.0625 21.96875 24.703125 23.78125 
L 21.578125 24.515625 
Q 13.234375 26.265625 9.515625 29.90625 
Q 5.8125 33.546875 5.8125 39.890625 
Q 5.8125 47.609375 11.28125 51.796875 
Q 16.75 56 26.8125 56 
Q 31.78125 56 36.171875 55.265625 
Q 40.578125 54.546875 44.28125 53.078125 
z
" id="DejaVuSans-115"/>
     </defs>
     <g transform="translate(368.095333 418.316562)scale(0.1 -0.1)">
      <use xlink:href="#DejaVuSans-100"/>
      <use x="63.476562" xlink:href="#DejaVuSans-115"/>
     </g>
    </g>
   </g>
   <g id="matplotlib.axis_2">
    <g id="ytick_1">
     <g id="line2d_15">
      <path clip-path="url(#p3625d45f35)" d="M 60.59 372.801818 
L 687.158478 372.801818 
" style="fill:none;stroke:#808080;stroke-linecap:square;stroke-opacity:0.2;"/>
     </g>
     <g id="line2d_16">
      <defs>
       <path d="M 0 0 
L -3.5 0 
" id="ma09b55a8d9" style="stroke:#000000;stroke-width:0.8;"/>
      </defs>
      <g>
       <use style="stroke:#000000;stroke-width:0.8;" x="60.59" xlink:href="#ma09b55a8d9" y="372.801818"/>
      </g>
     </g>
     <g id="text_9">
      <!-- 145.0 -->
      <defs>
       <path d="M 10.6875 12.40625 
L 21 12.40625 
L 21 0 
L 10.6875 0 
z
" id="DejaVuSans-46"/>
      </defs>
      <g transform="translate(24.961875 376.601037)scale(0.1 -0.1)">
       <use xlink:href="#DejaVuSans-49"/>
       <use x="63.623047" xlink:href="#DejaVuSans-52"/>
       <use x="127.246094" xlink:href="#DejaVuSans-53"/>
       <use x="190.869141" xlink:href="#DejaVuSans-46"/>
       <use x="222.65625" xlink:href="#DejaVuSans-48"/>
      </g>
     </g>
    </g>
    <g id="ytick_2">
     <g id="line2d_17">
      <path clip-path="url(#p3625d45f35)" d="M 60.59 320.771253 
L 687.158478 320.771253 
" style="fill:none;stroke:#808080;stroke-linecap:square;stroke-opacity:0.2;"/>
     </g>
     <g id="line2d_18">
      <g>
       <use style="stroke:#000000;stroke-width:0.8;" x="60.59" xlink:href="#ma09b55a8d9" y="320.771253"/>
      </g>
     </g>
     <g id="text_10">
      <!-- 147.5 -->
      <g transform="translate(24.961875 324.570472)scale(0.1 -0.1)">
       <use xlink:href="#DejaVuSans-49"/>
       <use x="63.623047" xlink:href="#DejaVuSans-52"/>
       <use x="127.246094" xlink:href="#DejaVuSans-55"/>
       <use x="190.869141" xlink:href="#DejaVuSans-46"/>
       <use x="222.65625" xlink:href="#DejaVuSans-53"/>
      </g>
     </g>
    </g>
    <g id="ytick_3">
     <g id="line2d_19">
      <path clip-path="url(#p3625d45f35)" d="M 60.59 268.740688 
L 687.158478 268.740688 
" style="fill:none;stroke:#808080;stroke-linecap:square;stroke-opacity:0.2;"/>
     </g>
     <g id="line2d_20">
      <g>
       <use style="stroke:#000000;stroke-width:0.8;" x="60.59" xlink:href="#ma09b55a8d9" y="268.740688"/>
      </g>
     </g>
     <g id="text_11">
      <!-- 150.0 -->
      <g transform="translate(24.961875 272.539907)scale(0.1 -0.1)">
       <use xlink:href="#DejaVuSans-49"/>
       <use x="63.623047" xlink:href="#DejaVuSans-53"/>
       <use x="127.246094" xlink:href="#DejaVuSans-48"/>
       <use x="190.869141" xlink:href="#DejaVuSans-46"/>
       <use x="222.65625" xlink:href="#DejaVuSans-48"/>
      </g>
     </g>
    </g>
    <g id="ytick_4">
     <g id="line2d_21">
      <path clip-path="url(#p3625d45f35)" d="M 60.59 216.710123 
L 687.158478 216.710123 
" style="fill:none;stroke:#808080;stroke-linecap:square;stroke-opacity:0.2;"/>
     </g>
     <g id="line2d_22">
      <g>
       <use style="stroke:#000000;stroke-width:0.8;" x="60.59" xlink:href="#ma09b55a8d9" y="216.710123"/>
      </g>
     </g>
     <g id="text_12">
      <!-- 152.5 -->
      <g transform="translate(24.961875 220.509341)scale(0.1 -0.1)">
       <use xlink:href="#DejaVuSans-49"/>
       <use x="63.623047" xlink:href="#DejaVuSans-53"/>
       <use x="127.246094" xlink:href="#DejaVuSans-50"/>
       <use x="190.869141" xlink:href="#DejaVuSans-46"/>
       <use x="222.65625" xlink:href="#DejaVuSans-53"/>
      </g>
     </g>
    </g>
    <g id="ytick_5">
     <g id="line2d_23">
      <path clip-path="url(#p3625d45f35)" d="M 60.59 164.679557 
L 687.158478 164.679557 
" style="fill:none;stroke:#808080;stroke-linecap:square;stroke-opacity:0.2;"/>
     </g>
     <g id="line2d_24">
      <g>
       <use style="stroke:#000000;stroke-width:0.8;" x="60.59" xlink:href="#ma09b55a8d9" y="164.679557"/>
      </g>
     </g>
     <g id="text_13">
      <!-- 155.0 -->
      <g transform="translate(24.961875 168.478776)scale(0.1 -0.1)">
       <use xlink:href="#DejaVuSans-49"/>
       <use x="63.623047" xlink:href="#DejaVuSans-53"/>
       <use x="127.246094" xlink:href="#DejaVuSans-53"/>
       <use x="190.869141" xlink:href="#DejaVuSans-46"/>
       <use x="222.65625" xlink:href="#DejaVuSans-48"/>
      </g>
     </g>
    </g>
    <g id="ytick_6">
     <g id="line2d_25">
      <path clip-path="url(#p3625d45f35)" d="M 60.59 112.648992 
L 687.158478 112.648992 
" style="fill:none;stroke:#808080;stroke-linecap:square;stroke-opacity:0.2;"/>
     </g>
     <g id="line2d_26">
      <g>
       <use style="stroke:#000000;stroke-width:0.8;" x="60.59" xlink:href="#ma09b55a8d9" y="112.648992"/>
      </g>
     </g>
     <g id="text_14">
      <!-- 157.5 -->
      <g transform="translate(24.961875 116.448211)scale(0.1 -0.1)">
       <use xlink:href="#DejaVuSans-49"/>
       <use x="63.623047" xlink:href="#DejaVuSans-53"/>
       <use x="127.246094" xlink:href="#DejaVuSans-55"/>
       <use x="190.869141" xlink:href="#DejaVuSans-46"/>
       <use x="222.65625" xlink:href="#DejaVuSans-53"/>
      </g>
     </g>
    </g>
    <g id="ytick_7">
     <g id="line2d_27">
      <path clip-path="url(#p3625d45f35)" d="M 60.59 60.618427 
L 687.158478 60.618427 
" style="fill:none;stroke:#808080;stroke-linecap:square;stroke-opacity:0.2;"/>
     </g>
     <g id="line2d_28">
      <g>
       <use style="stroke:#000000;stroke-width:0.8;" x="60.59" xlink:href="#ma09b55a8d9" y="60.618427"/>
      </g>
     </g>
     <g id="text_15">
      <!-- 160.0 -->
      <defs>
       <path d="M 33.015625 40.375 
Q 26.375 40.375 22.484375 35.828125 
Q 18.609375 31.296875 18.609375 23.390625 
Q 18.609375 15.53125 22.484375 10.953125 
Q 26.375 6.390625 33.015625 6.390625 
Q 39.65625 6.390625 43.53125 10.953125 
Q 47.40625 15.53125 47.40625 23.390625 
Q 47.40625 31.296875 43.53125 35.828125 
Q 39.65625 40.375 33.015625 40.375 
z
M 52.59375 71.296875 
L 52.59375 62.3125 
Q 48.875 64.0625 45.09375 64.984375 
Q 41.3125 65.921875 37.59375 65.921875 
Q 27.828125 65.921875 22.671875 59.328125 
Q 17.53125 52.734375 16.796875 39.40625 
Q 19.671875 43.65625 24.015625 45.921875 
Q 28.375 48.1875 33.59375 48.1875 
Q 44.578125 48.1875 50.953125 41.515625 
Q 57.328125 34.859375 57.328125 23.390625 
Q 57.328125 12.15625 50.6875 5.359375 
Q 44.046875 -1.421875 33.015625 -1.421875 
Q 20.359375 -1.421875 13.671875 8.265625 
Q 6.984375 17.96875 6.984375 36.375 
Q 6.984375 53.65625 15.1875 63.9375 
Q 23.390625 74.21875 37.203125 74.21875 
Q 40.921875 74.21875 44.703125 73.484375 
Q 48.484375 72.75 52.59375 71.296875 
z
" id="DejaVuSans-54"/>
      </defs>
      <g transform="translate(24.961875 64.417646)scale(0.1 -0.1)">
       <use xlink:href="#DejaVuSans-49"/>
       <use x="63.623047" xlink:href="#DejaVuSans-54"/>
       <use x="127.246094" xlink:href="#DejaVuSans-48"/>
       <use x="190.869141" xlink:href="#DejaVuSans-46"/>
       <use x="222.65625" xlink:href="#DejaVuSans-48"/>
      </g>
     </g>
    </g>
    <g id="text_16">
     <!-- y -->
     <defs>
      <path d="M 32.171875 -5.078125 
Q 28.375 -14.84375 24.75 -17.8125 
Q 21.140625 -20.796875 15.09375 -20.796875 
L 7.90625 -20.796875 
L 7.90625 -13.28125 
L 13.1875 -13.28125 
Q 16.890625 -13.28125 18.9375 -11.515625 
Q 21 -9.765625 23.484375 -3.21875 
L 25.09375 0.875 
L 2.984375 54.6875 
L 12.5 54.6875 
L 29.59375 11.921875 
L 46.6875 54.6875 
L 56.203125 54.6875 
z
" id="DejaVuSans-121"/>
     </defs>
     <g transform="translate(18.882188 203.379375)rotate(-90)scale(0.1 -0.1)">
      <use xlink:href="#DejaVuSans-121"/>
     </g>
    </g>
   </g>
   <g id="line2d_29">
    <defs>
     <path d="M 0 1.5 
C 0.397805 1.5 0.77937 1.341951 1.06066 1.06066 
C 1.341951 0.77937 1.5 0.397805 1.5 0 
C 1.5 -0.397805 1.341951 -0.77937 1.06066 -1.06066 
C 0.77937 -1.341951 0.397805 -1.5 0 -1.5 
C -0.397805 -1.5 -0.77937 -1.341951 -1.06066 -1.06066 
C -1.341951 -0.77937 -1.5 -0.397805 -1.5 0 
C -1.5 0.397805 -1.341951 0.77937 -1.06066 1.06066 
C -0.77937 1.341951 -0.397805 1.5 0 1.5 
z
" id="me6c3a9c758" style="stroke:#000000;"/>
    </defs>
    <g clip-path="url(#p3625d45f35)">
     <use style="stroke:#000000;" x="89.070385" xlink:href="#me6c3a9c758" y="185.491783"/>
     <use style="stroke:#000000;" x="95.933129" xlink:href="#me6c3a9c758" y="289.552914"/>
     <use style="stroke:#000000;" x="109.658616" xlink:href="#me6c3a9c758" y="123.055105"/>
     <use style="stroke:#000000;" x="116.521359" xlink:href="#me6c3a9c758" y="372.801818"/>
     <use style="stroke:#000000;" x="130.246846" xlink:href="#me6c3a9c758" y="331.177366"/>
     <use style="stroke:#000000;" x="137.10959" xlink:href="#me6c3a9c758" y="247.928462"/>
     <use style="stroke:#000000;" x="150.835076" xlink:href="#me6c3a9c758" y="185.491783"/>
     <use style="stroke:#000000;" x="157.69782" xlink:href="#me6c3a9c758" y="102.242879"/>
     <use style="stroke:#000000;" x="171.423307" xlink:href="#me6c3a9c758" y="143.867331"/>
     <use style="stroke:#000000;" x="178.28605" xlink:href="#me6c3a9c758" y="185.491783"/>
     <use style="stroke:#000000;" x="192.011537" xlink:href="#me6c3a9c758" y="206.30401"/>
     <use style="stroke:#000000;" x="198.874281" xlink:href="#me6c3a9c758" y="143.867331"/>
     <use style="stroke:#000000;" x="212.599768" xlink:href="#me6c3a9c758" y="60.618427"/>
     <use style="stroke:#000000;" x="219.462511" xlink:href="#me6c3a9c758" y="331.177366"/>
     <use style="stroke:#000000;" x="233.187998" xlink:href="#me6c3a9c758" y="310.36514"/>
     <use style="stroke:#000000;" x="240.050741" xlink:href="#me6c3a9c758" y="206.30401"/>
     <use style="stroke:#000000;" x="253.776228" xlink:href="#me6c3a9c758" y="227.116236"/>
     <use style="stroke:#000000;" x="260.638972" xlink:href="#me6c3a9c758" y="102.242879"/>
     <use style="stroke:#000000;" x="274.364459" xlink:href="#me6c3a9c758" y="81.430653"/>
     <use style="stroke:#000000;" x="281.227202" xlink:href="#me6c3a9c758" y="143.867331"/>
     <use style="stroke:#000000;" x="294.952689" xlink:href="#me6c3a9c758" y="39.806201"/>
     <use style="stroke:#000000;" x="301.815432" xlink:href="#me6c3a9c758" y="81.430653"/>
     <use style="stroke:#000000;" x="315.540919" xlink:href="#me6c3a9c758" y="143.867331"/>
     <use style="stroke:#000000;" x="322.403663" xlink:href="#me6c3a9c758" y="123.055105"/>
     <use style="stroke:#000000;" x="336.12915" xlink:href="#me6c3a9c758" y="81.430653"/>
     <use style="stroke:#000000;" x="342.991893" xlink:href="#me6c3a9c758" y="123.055105"/>
     <use style="stroke:#000000;" x="356.71738" xlink:href="#me6c3a9c758" y="185.491783"/>
     <use style="stroke:#000000;" x="363.580124" xlink:href="#me6c3a9c758" y="206.30401"/>
     <use style="stroke:#000000;" x="377.305611" xlink:href="#me6c3a9c758" y="102.242879"/>
     <use style="stroke:#000000;" x="384.168354" xlink:href="#me6c3a9c758" y="331.177366"/>
     <use style="stroke:#000000;" x="397.893841" xlink:href="#me6c3a9c758" y="123.055105"/>
     <use style="stroke:#000000;" x="404.756584" xlink:href="#me6c3a9c758" y="185.491783"/>
     <use style="stroke:#000000;" x="418.482071" xlink:href="#me6c3a9c758" y="123.055105"/>
     <use style="stroke:#000000;" x="425.344815" xlink:href="#me6c3a9c758" y="206.30401"/>
     <use style="stroke:#000000;" x="439.070302" xlink:href="#me6c3a9c758" y="310.36514"/>
     <use style="stroke:#000000;" x="445.933045" xlink:href="#me6c3a9c758" y="143.867331"/>
     <use style="stroke:#000000;" x="459.658532" xlink:href="#me6c3a9c758" y="123.055105"/>
     <use style="stroke:#000000;" x="466.521275" xlink:href="#me6c3a9c758" y="164.679557"/>
     <use style="stroke:#000000;" x="480.246762" xlink:href="#me6c3a9c758" y="164.679557"/>
     <use style="stroke:#000000;" x="487.109506" xlink:href="#me6c3a9c758" y="164.679557"/>
     <use style="stroke:#000000;" x="500.834993" xlink:href="#me6c3a9c758" y="39.806201"/>
     <use style="stroke:#000000;" x="507.697736" xlink:href="#me6c3a9c758" y="227.116236"/>
     <use style="stroke:#000000;" x="521.423223" xlink:href="#me6c3a9c758" y="102.242879"/>
     <use style="stroke:#000000;" x="528.285967" xlink:href="#me6c3a9c758" y="123.055105"/>
     <use style="stroke:#000000;" x="542.011453" xlink:href="#me6c3a9c758" y="247.928462"/>
     <use style="stroke:#000000;" x="548.874197" xlink:href="#me6c3a9c758" y="185.491783"/>
     <use style="stroke:#000000;" x="562.599684" xlink:href="#me6c3a9c758" y="289.552914"/>
     <use style="stroke:#000000;" x="569.462427" xlink:href="#me6c3a9c758" y="268.740688"/>
     <use style="stroke:#000000;" x="583.187914" xlink:href="#me6c3a9c758" y="164.679557"/>
     <use style="stroke:#000000;" x="590.050658" xlink:href="#me6c3a9c758" y="123.055105"/>
     <use style="stroke:#000000;" x="603.776145" xlink:href="#me6c3a9c758" y="143.867331"/>
     <use style="stroke:#000000;" x="610.638888" xlink:href="#me6c3a9c758" y="206.30401"/>
     <use style="stroke:#000000;" x="624.364375" xlink:href="#me6c3a9c758" y="268.740688"/>
     <use style="stroke:#000000;" x="631.227118" xlink:href="#me6c3a9c758" y="289.552914"/>
     <use style="stroke:#000000;" x="651.815349" xlink:href="#me6c3a9c758" y="143.867331"/>
    </g>
   </g>
   <g id="line2d_30">
    <path clip-path="url(#p3625d45f35)" d="M 89.070385 244.398421 
L 95.933129 256.108463 
L 109.658616 189.166743 
L 116.521359 204.388839 
L 130.246846 223.759925 
L 137.10959 225.211036 
L 150.835076 206.208689 
L 157.69782 169.979358 
L 171.423307 203.356738 
L 178.28605 204.57254 
L 192.011537 217.733693 
L 198.874281 187.021304 
L 212.599768 166.014069 
L 219.462511 184.169353 
L 233.187998 186.836266 
L 240.050741 198.546308 
L 253.776228 131.604588 
L 260.638972 146.826684 
L 274.364459 166.211563 
L 281.227202 167.669571 
L 294.952689 148.711411 
L 301.815432 112.504173 
L 315.540919 153.433135 
L 322.403663 158.442478 
L 336.12915 179.190711 
L 342.991893 152.272453 
L 356.71738 138.853479 
L 363.580124 160.807708 
L 377.305611 171.072513 
L 384.168354 186.581501 
L 397.893841 127.237672 
L 404.756584 146.258713 
L 418.482071 173.22769 
L 425.344815 178.477747 
L 439.070302 167.073291 
L 445.933045 134.642906 
L 459.658532 175.618177 
L 466.521275 180.632925 
L 480.246762 201.39197 
L 487.109506 174.478526 
L 500.834993 161.069182 
L 507.697736 183.023412 
L 521.423223 193.288216 
L 528.285967 208.797204 
L 542.011453 149.453376 
L 548.874197 168.474417 
L 562.599684 195.443394 
L 569.462427 200.693451 
L 583.187914 189.288995 
L 590.050658 156.85861 
L 603.776145 197.833881 
L 610.638888 202.848629 
L 624.364375 223.607673 
L 631.227118 196.69423 
L 651.815349 205.239116 
L 658.678092 210.253863 
" style="fill:none;stroke:#0072b2;stroke-linecap:square;stroke-width:1.5;"/>
   </g>
   <g id="patch_3">
    <path d="M 60.59 390.04 
L 60.59 10.8 
" style="fill:none;stroke:#000000;stroke-linecap:square;stroke-linejoin:miter;stroke-width:0.8;"/>
   </g>
   <g id="patch_4">
    <path d="M 687.158478 390.04 
L 687.158478 10.8 
" style="fill:none;stroke:#000000;stroke-linecap:square;stroke-linejoin:miter;stroke-width:0.8;"/>
   </g>
   <g id="patch_5">
    <path d="M 60.59 390.04 
L 687.158478 390.04 
" style="fill:none;stroke:#000000;stroke-linecap:square;stroke-linejoin:miter;stroke-width:0.8;"/>
   </g>
   <g id="patch_6">
    <path d="M 60.59 10.8 
L 687.158478 10.8 
" style="fill:none;stroke:#000000;stroke-linecap:square;stroke-linejoin:miter;stroke-width:0.8;"/>
   </g>
  </g>
 </g>
 <defs>
  <clipPath id="p3625d45f35">
   <rect height="379.24" width="626.568478" x="60.59" y="10.8"/>
  </clipPath>
 </defs>
</svg>
