<?xml version="1.0" encoding="utf-8" standalone="no"?>
<!DOCTYPE svg PUBLIC "-//W3C//DTD SVG 1.1//EN"
  "http://www.w3.org/Graphics/SVG/1.1/DTD/svg11.dtd">
<!-- Created with matplotlib (https://matplotlib.org/) -->
<svg height="432pt" version="1.1" viewBox="0 0 720 432" width="720pt" xmlns="http://www.w3.org/2000/svg" xmlns:xlink="http://www.w3.org/1999/xlink">
 <defs>
  <style type="text/css">
*{stroke-linecap:butt;stroke-linejoin:round;}
  </style>
 </defs>
 <g id="figure_1">
  <g id="patch_1">
   <path d="M 0 432 
L 720 432 
L 720 0 
L 0 0 
z
" style="fill:#ffffff;"/>
  </g>
  <g id="axes_1">
   <g id="patch_2">
    <path d="M 51.05 390.04 
L 687.158478 390.04 
L 687.158478 10.8 
L 51.05 10.8 
z
" style="fill:#ffffff;"/>
   </g>
   <g id="PolyCollection_1">
    <defs>
     <path d="M 79.964022 -267.943636 
L 79.964022 -74.995772 
L 86.931256 -90.109959 
L 100.865724 -93.587469 
L 107.832958 -104.636584 
L 121.767427 -83.655025 
L 128.734661 -69.629928 
L 142.669129 -78.878862 
L 149.636363 -90.11987 
L 163.570831 -90.349658 
L 170.538066 -89.722686 
L 184.472534 -101.02129 
L 191.439768 -87.977206 
L 205.374236 -116.319087 
L 212.34147 -97.267971 
L 226.275939 -79.716027 
L 233.243173 -108.393784 
L 247.177641 -115.147026 
L 254.144875 -123.563489 
L 268.079344 -102.021309 
L 275.046578 -92.111069 
L 288.981046 -86.182899 
L 295.94828 -119.030692 
L 309.882749 -110.011462 
L 316.849983 -102.819156 
L 330.784451 -113.417526 
L 337.751685 -98.805196 
L 351.686153 -139.807217 
L 358.653388 -114.568406 
L 372.587856 -107.287731 
L 379.55509 -120.355049 
L 393.489558 -127.710196 
L 400.456792 -139.626057 
L 414.391261 -118.987558 
L 421.358495 -112.76837 
L 435.292963 -116.506247 
L 442.260197 -130.38066 
L 456.194666 -127.967868 
L 463.1619 -125.043044 
L 477.096368 -136.666283 
L 484.063602 -115.010035 
L 497.99807 -145.167535 
L 504.965305 -132.956716 
L 518.899773 -120.16718 
L 525.867007 -142.817986 
L 539.801475 -149.46451 
L 546.76871 -160.665121 
L 560.703178 -137.318898 
L 567.670412 -130.91716 
L 581.60488 -126.146403 
L 588.572114 -152.616201 
L 602.506583 -142.161344 
L 609.473817 -147.876387 
L 623.408285 -153.757111 
L 630.375519 -131.026085 
L 644.309988 -172.27291 
L 651.277222 -145.383804 
L 658.244456 -153.636128 
L 658.244456 -360.309794 
L 658.244456 -360.309794 
L 651.277222 -354.138899 
L 644.309988 -378.375498 
L 630.375519 -342.461852 
L 623.408285 -356.176856 
L 609.473817 -357.195907 
L 602.506583 -351.195772 
L 588.572114 -367.110767 
L 581.60488 -327.009157 
L 567.670412 -332.309795 
L 560.703178 -344.185939 
L 546.76871 -358.141431 
L 539.801475 -347.70261 
L 525.867007 -348.938903 
L 518.899773 -319.308976 
L 504.965305 -337.007309 
L 497.99807 -348.2921 
L 484.063602 -318.627104 
L 477.096368 -340.997323 
L 463.1619 -331.836971 
L 456.194666 -323.414215 
L 442.260197 -333.10961 
L 435.292963 -314.282348 
L 421.358495 -309.449421 
L 414.391261 -323.273224 
L 400.456792 -341.777199 
L 393.489558 -335.211469 
L 379.55509 -316.365315 
L 372.587856 -306.72348 
L 358.653388 -322.259064 
L 351.686153 -336.454506 
L 337.751685 -302.537517 
L 330.784451 -322.562386 
L 316.849983 -313.930571 
L 309.882749 -309.536668 
L 295.94828 -328.204058 
L 288.981046 -292.290108 
L 275.046578 -293.441639 
L 268.079344 -308.083105 
L 254.144875 -325.918978 
L 247.177641 -312.148045 
L 233.243173 -308.922025 
L 226.275939 -290.254721 
L 212.34147 -305.82563 
L 205.374236 -315.050766 
L 191.439768 -278.785605 
L 184.472534 -303.544821 
L 170.538066 -292.118097 
L 163.570831 -290.307601 
L 149.636363 -300.643435 
L 142.669129 -273.707762 
L 128.734661 -278.610389 
L 121.767427 -286.722209 
L 107.832958 -307.192927 
L 100.865724 -290.590077 
L 86.931256 -290.013488 
L 79.964022 -267.943636 
z
" id="m11f42576dd" style="stroke:#0072b2;stroke-opacity:0.2;"/>
    </defs>
    <g clip-path="url(#pcdcfccb5d8)">
     <use style="fill:#0072b2;fill-opacity:0.2;stroke:#0072b2;stroke-opacity:0.2;" x="0" xlink:href="#m11f42576dd" y="432"/>
    </g>
   </g>
   <g id="matplotlib.axis_1">
    <g id="xtick_1">
     <g id="line2d_1">
      <path clip-path="url(#pcdcfccb5d8)" d="M 93.89849 390.04 
L 93.89849 10.8 
" style="fill:none;stroke:#808080;stroke-linecap:square;stroke-opacity:0.2;"/>
     </g>
     <g id="line2d_2">
      <defs>
       <path d="M 0 0 
L 0 3.5 
" id="m8440cd59ab" style="stroke:#000000;stroke-width:0.8;"/>
      </defs>
      <g>
       <use style="stroke:#000000;stroke-width:0.8;" x="93.89849" xlink:href="#m8440cd59ab" y="390.04"/>
      </g>
     </g>
     <g id="text_1">
      <!-- 2019-10-16 -->
      <defs>
       <path d="M 19.1875 8.296875 
L 53.609375 8.296875 
L 53.609375 0 
L 7.328125 0 
L 7.328125 8.296875 
Q 12.9375 14.109375 22.625 23.890625 
Q 32.328125 33.6875 34.8125 36.53125 
Q 39.546875 41.84375 41.421875 45.53125 
Q 43.3125 49.21875 43.3125 52.78125 
Q 43.3125 58.59375 39.234375 62.25 
Q 35.15625 65.921875 28.609375 65.921875 
Q 23.96875 65.921875 18.8125 64.3125 
Q 13.671875 62.703125 7.8125 59.421875 
L 7.8125 69.390625 
Q 13.765625 71.78125 18.9375 73 
Q 24.125 74.21875 28.421875 74.21875 
Q 39.75 74.21875 46.484375 68.546875 
Q 53.21875 62.890625 53.21875 53.421875 
Q 53.21875 48.921875 51.53125 44.890625 
Q 49.859375 40.875 45.40625 35.40625 
Q 44.1875 33.984375 37.640625 27.21875 
Q 31.109375 20.453125 19.1875 8.296875 
z
" id="DejaVuSans-50"/>
       <path d="M 31.78125 66.40625 
Q 24.171875 66.40625 20.328125 58.90625 
Q 16.5 51.421875 16.5 36.375 
Q 16.5 21.390625 20.328125 13.890625 
Q 24.171875 6.390625 31.78125 6.390625 
Q 39.453125 6.390625 43.28125 13.890625 
Q 47.125 21.390625 47.125 36.375 
Q 47.125 51.421875 43.28125 58.90625 
Q 39.453125 66.40625 31.78125 66.40625 
z
M 31.78125 74.21875 
Q 44.046875 74.21875 50.515625 64.515625 
Q 56.984375 54.828125 56.984375 36.375 
Q 56.984375 17.96875 50.515625 8.265625 
Q 44.046875 -1.421875 31.78125 -1.421875 
Q 19.53125 -1.421875 13.0625 8.265625 
Q 6.59375 17.96875 6.59375 36.375 
Q 6.59375 54.828125 13.0625 64.515625 
Q 19.53125 74.21875 31.78125 74.21875 
z
" id="DejaVuSans-48"/>
       <path d="M 12.40625 8.296875 
L 28.515625 8.296875 
L 28.515625 63.921875 
L 10.984375 60.40625 
L 10.984375 69.390625 
L 28.421875 72.90625 
L 38.28125 72.90625 
L 38.28125 8.296875 
L 54.390625 8.296875 
L 54.390625 0 
L 12.40625 0 
z
" id="DejaVuSans-49"/>
       <path d="M 10.984375 1.515625 
L 10.984375 10.5 
Q 14.703125 8.734375 18.5 7.8125 
Q 22.3125 6.890625 25.984375 6.890625 
Q 35.75 6.890625 40.890625 13.453125 
Q 46.046875 20.015625 46.78125 33.40625 
Q 43.953125 29.203125 39.59375 26.953125 
Q 35.25 24.703125 29.984375 24.703125 
Q 19.046875 24.703125 12.671875 31.3125 
Q 6.296875 37.9375 6.296875 49.421875 
Q 6.296875 60.640625 12.9375 67.421875 
Q 19.578125 74.21875 30.609375 74.21875 
Q 43.265625 74.21875 49.921875 64.515625 
Q 56.59375 54.828125 56.59375 36.375 
Q 56.59375 19.140625 48.40625 8.859375 
Q 40.234375 -1.421875 26.421875 -1.421875 
Q 22.703125 -1.421875 18.890625 -0.6875 
Q 15.09375 0.046875 10.984375 1.515625 
z
M 30.609375 32.421875 
Q 37.25 32.421875 41.125 36.953125 
Q 45.015625 41.5 45.015625 49.421875 
Q 45.015625 57.28125 41.125 61.84375 
Q 37.25 66.40625 30.609375 66.40625 
Q 23.96875 66.40625 20.09375 61.84375 
Q 16.21875 57.28125 16.21875 49.421875 
Q 16.21875 41.5 20.09375 36.953125 
Q 23.96875 32.421875 30.609375 32.421875 
z
" id="DejaVuSans-57"/>
       <path d="M 4.890625 31.390625 
L 31.203125 31.390625 
L 31.203125 23.390625 
L 4.890625 23.390625 
z
" id="DejaVuSans-45"/>
       <path d="M 33.015625 40.375 
Q 26.375 40.375 22.484375 35.828125 
Q 18.609375 31.296875 18.609375 23.390625 
Q 18.609375 15.53125 22.484375 10.953125 
Q 26.375 6.390625 33.015625 6.390625 
Q 39.65625 6.390625 43.53125 10.953125 
Q 47.40625 15.53125 47.40625 23.390625 
Q 47.40625 31.296875 43.53125 35.828125 
Q 39.65625 40.375 33.015625 40.375 
z
M 52.59375 71.296875 
L 52.59375 62.3125 
Q 48.875 64.0625 45.09375 64.984375 
Q 41.3125 65.921875 37.59375 65.921875 
Q 27.828125 65.921875 22.671875 59.328125 
Q 17.53125 52.734375 16.796875 39.40625 
Q 19.671875 43.65625 24.015625 45.921875 
Q 28.375 48.1875 33.59375 48.1875 
Q 44.578125 48.1875 50.953125 41.515625 
Q 57.328125 34.859375 57.328125 23.390625 
Q 57.328125 12.15625 50.6875 5.359375 
Q 44.046875 -1.421875 33.015625 -1.421875 
Q 20.359375 -1.421875 13.671875 8.265625 
Q 6.984375 17.96875 6.984375 36.375 
Q 6.984375 53.65625 15.1875 63.9375 
Q 23.390625 74.21875 37.203125 74.21875 
Q 40.921875 74.21875 44.703125 73.484375 
Q 48.484375 72.75 52.59375 71.296875 
z
" id="DejaVuSans-54"/>
      </defs>
      <g transform="translate(64.840677 404.638438)scale(0.1 -0.1)">
       <use xlink:href="#DejaVuSans-50"/>
       <use x="63.623047" xlink:href="#DejaVuSans-48"/>
       <use x="127.246094" xlink:href="#DejaVuSans-49"/>
       <use x="190.869141" xlink:href="#DejaVuSans-57"/>
       <use x="254.492188" xlink:href="#DejaVuSans-45"/>
       <use x="290.576172" xlink:href="#DejaVuSans-49"/>
       <use x="354.199219" xlink:href="#DejaVuSans-48"/>
       <use x="417.822266" xlink:href="#DejaVuSans-45"/>
       <use x="453.90625" xlink:href="#DejaVuSans-49"/>
       <use x="517.529297" xlink:href="#DejaVuSans-54"/>
      </g>
     </g>
    </g>
    <g id="xtick_2">
     <g id="line2d_3">
      <path clip-path="url(#pcdcfccb5d8)" d="M 191.439768 390.04 
L 191.439768 10.8 
" style="fill:none;stroke:#808080;stroke-linecap:square;stroke-opacity:0.2;"/>
     </g>
     <g id="line2d_4">
      <g>
       <use style="stroke:#000000;stroke-width:0.8;" x="191.439768" xlink:href="#m8440cd59ab" y="390.04"/>
      </g>
     </g>
     <g id="text_2">
      <!-- 2019-10-30 -->
      <defs>
       <path d="M 40.578125 39.3125 
Q 47.65625 37.796875 51.625 33 
Q 55.609375 28.21875 55.609375 21.1875 
Q 55.609375 10.40625 48.1875 4.484375 
Q 40.765625 -1.421875 27.09375 -1.421875 
Q 22.515625 -1.421875 17.65625 -0.515625 
Q 12.796875 0.390625 7.625 2.203125 
L 7.625 11.71875 
Q 11.71875 9.328125 16.59375 8.109375 
Q 21.484375 6.890625 26.8125 6.890625 
Q 36.078125 6.890625 40.9375 10.546875 
Q 45.796875 14.203125 45.796875 21.1875 
Q 45.796875 27.640625 41.28125 31.265625 
Q 36.765625 34.90625 28.71875 34.90625 
L 20.21875 34.90625 
L 20.21875 43.015625 
L 29.109375 43.015625 
Q 36.375 43.015625 40.234375 45.921875 
Q 44.09375 48.828125 44.09375 54.296875 
Q 44.09375 59.90625 40.109375 62.90625 
Q 36.140625 65.921875 28.71875 65.921875 
Q 24.65625 65.921875 20.015625 65.03125 
Q 15.375 64.15625 9.8125 62.3125 
L 9.8125 71.09375 
Q 15.4375 72.65625 20.34375 73.4375 
Q 25.25 74.21875 29.59375 74.21875 
Q 40.828125 74.21875 47.359375 69.109375 
Q 53.90625 64.015625 53.90625 55.328125 
Q 53.90625 49.265625 50.4375 45.09375 
Q 46.96875 40.921875 40.578125 39.3125 
z
" id="DejaVuSans-51"/>
      </defs>
      <g transform="translate(162.381956 404.638438)scale(0.1 -0.1)">
       <use xlink:href="#DejaVuSans-50"/>
       <use x="63.623047" xlink:href="#DejaVuSans-48"/>
       <use x="127.246094" xlink:href="#DejaVuSans-49"/>
       <use x="190.869141" xlink:href="#DejaVuSans-57"/>
       <use x="254.492188" xlink:href="#DejaVuSans-45"/>
       <use x="290.576172" xlink:href="#DejaVuSans-49"/>
       <use x="354.199219" xlink:href="#DejaVuSans-48"/>
       <use x="417.822266" xlink:href="#DejaVuSans-45"/>
       <use x="453.90625" xlink:href="#DejaVuSans-51"/>
       <use x="517.529297" xlink:href="#DejaVuSans-48"/>
      </g>
     </g>
    </g>
    <g id="xtick_3">
     <g id="line2d_5">
      <path clip-path="url(#pcdcfccb5d8)" d="M 288.981046 390.04 
L 288.981046 10.8 
" style="fill:none;stroke:#808080;stroke-linecap:square;stroke-opacity:0.2;"/>
     </g>
     <g id="line2d_6">
      <g>
       <use style="stroke:#000000;stroke-width:0.8;" x="288.981046" xlink:href="#m8440cd59ab" y="390.04"/>
      </g>
     </g>
     <g id="text_3">
      <!-- 2019-11-13 -->
      <g transform="translate(259.923234 404.638438)scale(0.1 -0.1)">
       <use xlink:href="#DejaVuSans-50"/>
       <use x="63.623047" xlink:href="#DejaVuSans-48"/>
       <use x="127.246094" xlink:href="#DejaVuSans-49"/>
       <use x="190.869141" xlink:href="#DejaVuSans-57"/>
       <use x="254.492188" xlink:href="#DejaVuSans-45"/>
       <use x="290.576172" xlink:href="#DejaVuSans-49"/>
       <use x="354.199219" xlink:href="#DejaVuSans-49"/>
       <use x="417.822266" xlink:href="#DejaVuSans-45"/>
       <use x="453.90625" xlink:href="#DejaVuSans-49"/>
       <use x="517.529297" xlink:href="#DejaVuSans-51"/>
      </g>
     </g>
    </g>
    <g id="xtick_4">
     <g id="line2d_7">
      <path clip-path="url(#pcdcfccb5d8)" d="M 386.522324 390.04 
L 386.522324 10.8 
" style="fill:none;stroke:#808080;stroke-linecap:square;stroke-opacity:0.2;"/>
     </g>
     <g id="line2d_8">
      <g>
       <use style="stroke:#000000;stroke-width:0.8;" x="386.522324" xlink:href="#m8440cd59ab" y="390.04"/>
      </g>
     </g>
     <g id="text_4">
      <!-- 2019-11-27 -->
      <defs>
       <path d="M 8.203125 72.90625 
L 55.078125 72.90625 
L 55.078125 68.703125 
L 28.609375 0 
L 18.3125 0 
L 43.21875 64.59375 
L 8.203125 64.59375 
z
" id="DejaVuSans-55"/>
      </defs>
      <g transform="translate(357.464512 404.638438)scale(0.1 -0.1)">
       <use xlink:href="#DejaVuSans-50"/>
       <use x="63.623047" xlink:href="#DejaVuSans-48"/>
       <use x="127.246094" xlink:href="#DejaVuSans-49"/>
       <use x="190.869141" xlink:href="#DejaVuSans-57"/>
       <use x="254.492188" xlink:href="#DejaVuSans-45"/>
       <use x="290.576172" xlink:href="#DejaVuSans-49"/>
       <use x="354.199219" xlink:href="#DejaVuSans-49"/>
       <use x="417.822266" xlink:href="#DejaVuSans-45"/>
       <use x="453.90625" xlink:href="#DejaVuSans-50"/>
       <use x="517.529297" xlink:href="#DejaVuSans-55"/>
      </g>
     </g>
    </g>
    <g id="xtick_5">
     <g id="line2d_9">
      <path clip-path="url(#pcdcfccb5d8)" d="M 484.063602 390.04 
L 484.063602 10.8 
" style="fill:none;stroke:#808080;stroke-linecap:square;stroke-opacity:0.2;"/>
     </g>
     <g id="line2d_10">
      <g>
       <use style="stroke:#000000;stroke-width:0.8;" x="484.063602" xlink:href="#m8440cd59ab" y="390.04"/>
      </g>
     </g>
     <g id="text_5">
      <!-- 2019-12-11 -->
      <g transform="translate(455.00579 404.638438)scale(0.1 -0.1)">
       <use xlink:href="#DejaVuSans-50"/>
       <use x="63.623047" xlink:href="#DejaVuSans-48"/>
       <use x="127.246094" xlink:href="#DejaVuSans-49"/>
       <use x="190.869141" xlink:href="#DejaVuSans-57"/>
       <use x="254.492188" xlink:href="#DejaVuSans-45"/>
       <use x="290.576172" xlink:href="#DejaVuSans-49"/>
       <use x="354.199219" xlink:href="#DejaVuSans-50"/>
       <use x="417.822266" xlink:href="#DejaVuSans-45"/>
       <use x="453.90625" xlink:href="#DejaVuSans-49"/>
       <use x="517.529297" xlink:href="#DejaVuSans-49"/>
      </g>
     </g>
    </g>
    <g id="xtick_6">
     <g id="line2d_11">
      <path clip-path="url(#pcdcfccb5d8)" d="M 581.60488 390.04 
L 581.60488 10.8 
" style="fill:none;stroke:#808080;stroke-linecap:square;stroke-opacity:0.2;"/>
     </g>
     <g id="line2d_12">
      <g>
       <use style="stroke:#000000;stroke-width:0.8;" x="581.60488" xlink:href="#m8440cd59ab" y="390.04"/>
      </g>
     </g>
     <g id="text_6">
      <!-- 2019-12-25 -->
      <defs>
       <path d="M 10.796875 72.90625 
L 49.515625 72.90625 
L 49.515625 64.59375 
L 19.828125 64.59375 
L 19.828125 46.734375 
Q 21.96875 47.46875 24.109375 47.828125 
Q 26.265625 48.1875 28.421875 48.1875 
Q 40.625 48.1875 47.75 41.5 
Q 54.890625 34.8125 54.890625 23.390625 
Q 54.890625 11.625 47.5625 5.09375 
Q 40.234375 -1.421875 26.90625 -1.421875 
Q 22.3125 -1.421875 17.546875 -0.640625 
Q 12.796875 0.140625 7.71875 1.703125 
L 7.71875 11.625 
Q 12.109375 9.234375 16.796875 8.0625 
Q 21.484375 6.890625 26.703125 6.890625 
Q 35.15625 6.890625 40.078125 11.328125 
Q 45.015625 15.765625 45.015625 23.390625 
Q 45.015625 31 40.078125 35.4375 
Q 35.15625 39.890625 26.703125 39.890625 
Q 22.75 39.890625 18.8125 39.015625 
Q 14.890625 38.140625 10.796875 36.28125 
z
" id="DejaVuSans-53"/>
      </defs>
      <g transform="translate(552.547068 404.638438)scale(0.1 -0.1)">
       <use xlink:href="#DejaVuSans-50"/>
       <use x="63.623047" xlink:href="#DejaVuSans-48"/>
       <use x="127.246094" xlink:href="#DejaVuSans-49"/>
       <use x="190.869141" xlink:href="#DejaVuSans-57"/>
       <use x="254.492188" xlink:href="#DejaVuSans-45"/>
       <use x="290.576172" xlink:href="#DejaVuSans-49"/>
       <use x="354.199219" xlink:href="#DejaVuSans-50"/>
       <use x="417.822266" xlink:href="#DejaVuSans-45"/>
       <use x="453.90625" xlink:href="#DejaVuSans-50"/>
       <use x="517.529297" xlink:href="#DejaVuSans-53"/>
      </g>
     </g>
    </g>
    <g id="xtick_7">
     <g id="line2d_13">
      <path clip-path="url(#pcdcfccb5d8)" d="M 679.146158 390.04 
L 679.146158 10.8 
" style="fill:none;stroke:#808080;stroke-linecap:square;stroke-opacity:0.2;"/>
     </g>
     <g id="line2d_14">
      <g>
       <use style="stroke:#000000;stroke-width:0.8;" x="679.146158" xlink:href="#m8440cd59ab" y="390.04"/>
      </g>
     </g>
     <g id="text_7">
      <!-- 2020-01-08 -->
      <defs>
       <path d="M 31.78125 34.625 
Q 24.75 34.625 20.71875 30.859375 
Q 16.703125 27.09375 16.703125 20.515625 
Q 16.703125 13.921875 20.71875 10.15625 
Q 24.75 6.390625 31.78125 6.390625 
Q 38.8125 6.390625 42.859375 10.171875 
Q 46.921875 13.96875 46.921875 20.515625 
Q 46.921875 27.09375 42.890625 30.859375 
Q 38.875 34.625 31.78125 34.625 
z
M 21.921875 38.8125 
Q 15.578125 40.375 12.03125 44.71875 
Q 8.5 49.078125 8.5 55.328125 
Q 8.5 64.0625 14.71875 69.140625 
Q 20.953125 74.21875 31.78125 74.21875 
Q 42.671875 74.21875 48.875 69.140625 
Q 55.078125 64.0625 55.078125 55.328125 
Q 55.078125 49.078125 51.53125 44.71875 
Q 48 40.375 41.703125 38.8125 
Q 48.828125 37.15625 52.796875 32.3125 
Q 56.78125 27.484375 56.78125 20.515625 
Q 56.78125 9.90625 50.3125 4.234375 
Q 43.84375 -1.421875 31.78125 -1.421875 
Q 19.734375 -1.421875 13.25 4.234375 
Q 6.78125 9.90625 6.78125 20.515625 
Q 6.78125 27.484375 10.78125 32.3125 
Q 14.796875 37.15625 21.921875 38.8125 
z
M 18.3125 54.390625 
Q 18.3125 48.734375 21.84375 45.5625 
Q 25.390625 42.390625 31.78125 42.390625 
Q 38.140625 42.390625 41.71875 45.5625 
Q 45.3125 48.734375 45.3125 54.390625 
Q 45.3125 60.0625 41.71875 63.234375 
Q 38.140625 66.40625 31.78125 66.40625 
Q 25.390625 66.40625 21.84375 63.234375 
Q 18.3125 60.0625 18.3125 54.390625 
z
" id="DejaVuSans-56"/>
      </defs>
      <g transform="translate(650.088346 404.638438)scale(0.1 -0.1)">
       <use xlink:href="#DejaVuSans-50"/>
       <use x="63.623047" xlink:href="#DejaVuSans-48"/>
       <use x="127.246094" xlink:href="#DejaVuSans-50"/>
       <use x="190.869141" xlink:href="#DejaVuSans-48"/>
       <use x="254.492188" xlink:href="#DejaVuSans-45"/>
       <use x="290.576172" xlink:href="#DejaVuSans-48"/>
       <use x="354.199219" xlink:href="#DejaVuSans-49"/>
       <use x="417.822266" xlink:href="#DejaVuSans-45"/>
       <use x="453.90625" xlink:href="#DejaVuSans-48"/>
       <use x="517.529297" xlink:href="#DejaVuSans-56"/>
      </g>
     </g>
    </g>
    <g id="text_8">
     <!-- ds -->
     <defs>
      <path d="M 45.40625 46.390625 
L 45.40625 75.984375 
L 54.390625 75.984375 
L 54.390625 0 
L 45.40625 0 
L 45.40625 8.203125 
Q 42.578125 3.328125 38.25 0.953125 
Q 33.9375 -1.421875 27.875 -1.421875 
Q 17.96875 -1.421875 11.734375 6.484375 
Q 5.515625 14.40625 5.515625 27.296875 
Q 5.515625 40.1875 11.734375 48.09375 
Q 17.96875 56 27.875 56 
Q 33.9375 56 38.25 53.625 
Q 42.578125 51.265625 45.40625 46.390625 
z
M 14.796875 27.296875 
Q 14.796875 17.390625 18.875 11.75 
Q 22.953125 6.109375 30.078125 6.109375 
Q 37.203125 6.109375 41.296875 11.75 
Q 45.40625 17.390625 45.40625 27.296875 
Q 45.40625 37.203125 41.296875 42.84375 
Q 37.203125 48.484375 30.078125 48.484375 
Q 22.953125 48.484375 18.875 42.84375 
Q 14.796875 37.203125 14.796875 27.296875 
z
" id="DejaVuSans-100"/>
      <path d="M 44.28125 53.078125 
L 44.28125 44.578125 
Q 40.484375 46.53125 36.375 47.5 
Q 32.28125 48.484375 27.875 48.484375 
Q 21.1875 48.484375 17.84375 46.4375 
Q 14.5 44.390625 14.5 40.28125 
Q 14.5 37.15625 16.890625 35.375 
Q 19.28125 33.59375 26.515625 31.984375 
L 29.59375 31.296875 
Q 39.15625 29.25 43.1875 25.515625 
Q 47.21875 21.78125 47.21875 15.09375 
Q 47.21875 7.46875 41.1875 3.015625 
Q 35.15625 -1.421875 24.609375 -1.421875 
Q 20.21875 -1.421875 15.453125 -0.5625 
Q 10.6875 0.296875 5.421875 2 
L 5.421875 11.28125 
Q 10.40625 8.6875 15.234375 7.390625 
Q 20.0625 6.109375 24.8125 6.109375 
Q 31.15625 6.109375 34.5625 8.28125 
Q 37.984375 10.453125 37.984375 14.40625 
Q 37.984375 18.0625 35.515625 20.015625 
Q 33.0625 21.96875 24.703125 23.78125 
L 21.578125 24.515625 
Q 13.234375 26.265625 9.515625 29.90625 
Q 5.8125 33.546875 5.8125 39.890625 
Q 5.8125 47.609375 11.28125 51.796875 
Q 16.75 56 26.8125 56 
Q 31.78125 56 36.171875 55.265625 
Q 40.578125 54.546875 44.28125 53.078125 
z
" id="DejaVuSans-115"/>
     </defs>
     <g transform="translate(363.325333 418.316562)scale(0.1 -0.1)">
      <use xlink:href="#DejaVuSans-100"/>
      <use x="63.476562" xlink:href="#DejaVuSans-115"/>
     </g>
    </g>
   </g>
   <g id="matplotlib.axis_2">
    <g id="ytick_1">
     <g id="line2d_15">
      <path clip-path="url(#pcdcfccb5d8)" d="M 51.05 372.801818 
L 687.158478 372.801818 
" style="fill:none;stroke:#808080;stroke-linecap:square;stroke-opacity:0.2;"/>
     </g>
     <g id="line2d_16">
      <defs>
       <path d="M 0 0 
L -3.5 0 
" id="m654d84750d" style="stroke:#000000;stroke-width:0.8;"/>
      </defs>
      <g>
       <use style="stroke:#000000;stroke-width:0.8;" x="51.05" xlink:href="#m654d84750d" y="372.801818"/>
      </g>
     </g>
     <g id="text_9">
      <!-- 140 -->
      <defs>
       <path d="M 37.796875 64.3125 
L 12.890625 25.390625 
L 37.796875 25.390625 
z
M 35.203125 72.90625 
L 47.609375 72.90625 
L 47.609375 25.390625 
L 58.015625 25.390625 
L 58.015625 17.1875 
L 47.609375 17.1875 
L 47.609375 0 
L 37.796875 0 
L 37.796875 17.1875 
L 4.890625 17.1875 
L 4.890625 26.703125 
z
" id="DejaVuSans-52"/>
      </defs>
      <g transform="translate(24.9625 376.601037)scale(0.1 -0.1)">
       <use xlink:href="#DejaVuSans-49"/>
       <use x="63.623047" xlink:href="#DejaVuSans-52"/>
       <use x="127.246094" xlink:href="#DejaVuSans-48"/>
      </g>
     </g>
    </g>
    <g id="ytick_2">
     <g id="line2d_17">
      <path clip-path="url(#pcdcfccb5d8)" d="M 51.05 308.9567 
L 687.158478 308.9567 
" style="fill:none;stroke:#808080;stroke-linecap:square;stroke-opacity:0.2;"/>
     </g>
     <g id="line2d_18">
      <g>
       <use style="stroke:#000000;stroke-width:0.8;" x="51.05" xlink:href="#m654d84750d" y="308.9567"/>
      </g>
     </g>
     <g id="text_10">
      <!-- 145 -->
      <g transform="translate(24.9625 312.755919)scale(0.1 -0.1)">
       <use xlink:href="#DejaVuSans-49"/>
       <use x="63.623047" xlink:href="#DejaVuSans-52"/>
       <use x="127.246094" xlink:href="#DejaVuSans-53"/>
      </g>
     </g>
    </g>
    <g id="ytick_3">
     <g id="line2d_19">
      <path clip-path="url(#pcdcfccb5d8)" d="M 51.05 245.111582 
L 687.158478 245.111582 
" style="fill:none;stroke:#808080;stroke-linecap:square;stroke-opacity:0.2;"/>
     </g>
     <g id="line2d_20">
      <g>
       <use style="stroke:#000000;stroke-width:0.8;" x="51.05" xlink:href="#m654d84750d" y="245.111582"/>
      </g>
     </g>
     <g id="text_11">
      <!-- 150 -->
      <g transform="translate(24.9625 248.910801)scale(0.1 -0.1)">
       <use xlink:href="#DejaVuSans-49"/>
       <use x="63.623047" xlink:href="#DejaVuSans-53"/>
       <use x="127.246094" xlink:href="#DejaVuSans-48"/>
      </g>
     </g>
    </g>
    <g id="ytick_4">
     <g id="line2d_21">
      <path clip-path="url(#pcdcfccb5d8)" d="M 51.05 181.266465 
L 687.158478 181.266465 
" style="fill:none;stroke:#808080;stroke-linecap:square;stroke-opacity:0.2;"/>
     </g>
     <g id="line2d_22">
      <g>
       <use style="stroke:#000000;stroke-width:0.8;" x="51.05" xlink:href="#m654d84750d" y="181.266465"/>
      </g>
     </g>
     <g id="text_12">
      <!-- 155 -->
      <g transform="translate(24.9625 185.065683)scale(0.1 -0.1)">
       <use xlink:href="#DejaVuSans-49"/>
       <use x="63.623047" xlink:href="#DejaVuSans-53"/>
       <use x="127.246094" xlink:href="#DejaVuSans-53"/>
      </g>
     </g>
    </g>
    <g id="ytick_5">
     <g id="line2d_23">
      <path clip-path="url(#pcdcfccb5d8)" d="M 51.05 117.421347 
L 687.158478 117.421347 
" style="fill:none;stroke:#808080;stroke-linecap:square;stroke-opacity:0.2;"/>
     </g>
     <g id="line2d_24">
      <g>
       <use style="stroke:#000000;stroke-width:0.8;" x="51.05" xlink:href="#m654d84750d" y="117.421347"/>
      </g>
     </g>
     <g id="text_13">
      <!-- 160 -->
      <g transform="translate(24.9625 121.220566)scale(0.1 -0.1)">
       <use xlink:href="#DejaVuSans-49"/>
       <use x="63.623047" xlink:href="#DejaVuSans-54"/>
       <use x="127.246094" xlink:href="#DejaVuSans-48"/>
      </g>
     </g>
    </g>
    <g id="ytick_6">
     <g id="line2d_25">
      <path clip-path="url(#pcdcfccb5d8)" d="M 51.05 53.576229 
L 687.158478 53.576229 
" style="fill:none;stroke:#808080;stroke-linecap:square;stroke-opacity:0.2;"/>
     </g>
     <g id="line2d_26">
      <g>
       <use style="stroke:#000000;stroke-width:0.8;" x="51.05" xlink:href="#m654d84750d" y="53.576229"/>
      </g>
     </g>
     <g id="text_14">
      <!-- 165 -->
      <g transform="translate(24.9625 57.375448)scale(0.1 -0.1)">
       <use xlink:href="#DejaVuSans-49"/>
       <use x="63.623047" xlink:href="#DejaVuSans-54"/>
       <use x="127.246094" xlink:href="#DejaVuSans-53"/>
      </g>
     </g>
    </g>
    <g id="text_15">
     <!-- y -->
     <defs>
      <path d="M 32.171875 -5.078125 
Q 28.375 -14.84375 24.75 -17.8125 
Q 21.140625 -20.796875 15.09375 -20.796875 
L 7.90625 -20.796875 
L 7.90625 -13.28125 
L 13.1875 -13.28125 
Q 16.890625 -13.28125 18.9375 -11.515625 
Q 21 -9.765625 23.484375 -3.21875 
L 25.09375 0.875 
L 2.984375 54.6875 
L 12.5 54.6875 
L 29.59375 11.921875 
L 46.6875 54.6875 
L 56.203125 54.6875 
z
" id="DejaVuSans-121"/>
     </defs>
     <g transform="translate(18.882812 203.379375)rotate(-90)scale(0.1 -0.1)">
      <use xlink:href="#DejaVuSans-121"/>
     </g>
    </g>
   </g>
   <g id="line2d_27">
    <defs>
     <path d="M 0 1.5 
C 0.397805 1.5 0.77937 1.341951 1.06066 1.06066 
C 1.341951 0.77937 1.5 0.397805 1.5 0 
C 1.5 -0.397805 1.341951 -0.77937 1.06066 -1.06066 
C 0.77937 -1.341951 0.397805 -1.5 0 -1.5 
C -0.397805 -1.5 -0.77937 -1.341951 -1.06066 -1.06066 
C -1.341951 -0.77937 -1.5 -0.397805 -1.5 0 
C -1.5 0.397805 -1.341951 0.77937 -1.06066 1.06066 
C -0.77937 1.341951 -0.397805 1.5 0 1.5 
z
" id="m2176d08b36" style="stroke:#000000;"/>
    </defs>
    <g clip-path="url(#pcdcfccb5d8)">
     <use style="stroke:#000000;" x="79.964022" xlink:href="#m2176d08b36" y="232.342559"/>
     <use style="stroke:#000000;" x="86.931256" xlink:href="#m2176d08b36" y="334.494747"/>
     <use style="stroke:#000000;" x="100.865724" xlink:href="#m2176d08b36" y="245.111582"/>
     <use style="stroke:#000000;" x="107.832958" xlink:href="#m2176d08b36" y="130.19037"/>
     <use style="stroke:#000000;" x="121.767427" xlink:href="#m2176d08b36" y="270.64963"/>
     <use style="stroke:#000000;" x="128.734661" xlink:href="#m2176d08b36" y="360.032795"/>
     <use style="stroke:#000000;" x="142.669129" xlink:href="#m2176d08b36" y="245.111582"/>
     <use style="stroke:#000000;" x="149.636363" xlink:href="#m2176d08b36" y="117.421347"/>
     <use style="stroke:#000000;" x="163.570831" xlink:href="#m2176d08b36" y="206.804512"/>
     <use style="stroke:#000000;" x="170.538066" xlink:href="#m2176d08b36" y="334.494747"/>
     <use style="stroke:#000000;" x="184.472534" xlink:href="#m2176d08b36" y="206.804512"/>
     <use style="stroke:#000000;" x="191.439768" xlink:href="#m2176d08b36" y="206.804512"/>
     <use style="stroke:#000000;" x="205.374236" xlink:href="#m2176d08b36" y="245.111582"/>
     <use style="stroke:#000000;" x="212.34147" xlink:href="#m2176d08b36" y="372.801818"/>
     <use style="stroke:#000000;" x="226.275939" xlink:href="#m2176d08b36" y="283.418653"/>
     <use style="stroke:#000000;" x="233.243173" xlink:href="#m2176d08b36" y="91.8833"/>
     <use style="stroke:#000000;" x="247.177641" xlink:href="#m2176d08b36" y="194.035488"/>
     <use style="stroke:#000000;" x="254.144875" xlink:href="#m2176d08b36" y="360.032795"/>
     <use style="stroke:#000000;" x="268.079344" xlink:href="#m2176d08b36" y="232.342559"/>
     <use style="stroke:#000000;" x="275.046578" xlink:href="#m2176d08b36" y="91.8833"/>
     <use style="stroke:#000000;" x="288.981046" xlink:href="#m2176d08b36" y="219.573535"/>
     <use style="stroke:#000000;" x="295.94828" xlink:href="#m2176d08b36" y="308.9567"/>
     <use style="stroke:#000000;" x="309.882749" xlink:href="#m2176d08b36" y="232.342559"/>
     <use style="stroke:#000000;" x="316.849983" xlink:href="#m2176d08b36" y="66.345253"/>
     <use style="stroke:#000000;" x="330.784451" xlink:href="#m2176d08b36" y="296.187677"/>
     <use style="stroke:#000000;" x="337.751685" xlink:href="#m2176d08b36" y="308.9567"/>
     <use style="stroke:#000000;" x="351.686153" xlink:href="#m2176d08b36" y="283.418653"/>
     <use style="stroke:#000000;" x="358.653388" xlink:href="#m2176d08b36" y="28.038182"/>
     <use style="stroke:#000000;" x="372.587856" xlink:href="#m2176d08b36" y="168.497441"/>
     <use style="stroke:#000000;" x="379.55509" xlink:href="#m2176d08b36" y="245.111582"/>
     <use style="stroke:#000000;" x="393.489558" xlink:href="#m2176d08b36" y="270.64963"/>
     <use style="stroke:#000000;" x="400.456792" xlink:href="#m2176d08b36" y="53.576229"/>
     <use style="stroke:#000000;" x="414.391261" xlink:href="#m2176d08b36" y="219.573535"/>
     <use style="stroke:#000000;" x="421.358495" xlink:href="#m2176d08b36" y="372.801818"/>
     <use style="stroke:#000000;" x="435.292963" xlink:href="#m2176d08b36" y="270.64963"/>
     <use style="stroke:#000000;" x="442.260197" xlink:href="#m2176d08b36" y="142.959394"/>
     <use style="stroke:#000000;" x="456.194666" xlink:href="#m2176d08b36" y="181.266465"/>
     <use style="stroke:#000000;" x="463.1619" xlink:href="#m2176d08b36" y="270.64963"/>
     <use style="stroke:#000000;" x="477.096368" xlink:href="#m2176d08b36" y="194.035488"/>
     <use style="stroke:#000000;" x="484.063602" xlink:href="#m2176d08b36" y="91.8833"/>
     <use style="stroke:#000000;" x="497.99807" xlink:href="#m2176d08b36" y="104.652323"/>
     <use style="stroke:#000000;" x="504.965305" xlink:href="#m2176d08b36" y="257.880606"/>
     <use style="stroke:#000000;" x="518.899773" xlink:href="#m2176d08b36" y="168.497441"/>
     <use style="stroke:#000000;" x="525.867007" xlink:href="#m2176d08b36" y="117.421347"/>
     <use style="stroke:#000000;" x="539.801475" xlink:href="#m2176d08b36" y="104.652323"/>
     <use style="stroke:#000000;" x="546.76871" xlink:href="#m2176d08b36" y="232.342559"/>
     <use style="stroke:#000000;" x="560.703178" xlink:href="#m2176d08b36" y="168.497441"/>
     <use style="stroke:#000000;" x="567.670412" xlink:href="#m2176d08b36" y="194.035488"/>
     <use style="stroke:#000000;" x="581.60488" xlink:href="#m2176d08b36" y="206.804512"/>
     <use style="stroke:#000000;" x="588.572114" xlink:href="#m2176d08b36" y="283.418653"/>
     <use style="stroke:#000000;" x="602.506583" xlink:href="#m2176d08b36" y="232.342559"/>
     <use style="stroke:#000000;" x="609.473817" xlink:href="#m2176d08b36" y="142.959394"/>
     <use style="stroke:#000000;" x="623.408285" xlink:href="#m2176d08b36" y="194.035488"/>
     <use style="stroke:#000000;" x="630.375519" xlink:href="#m2176d08b36" y="270.64963"/>
     <use style="stroke:#000000;" x="644.309988" xlink:href="#m2176d08b36" y="142.959394"/>
     <use style="stroke:#000000;" x="651.277222" xlink:href="#m2176d08b36" y="168.497441"/>
    </g>
   </g>
   <g id="line2d_28">
    <path clip-path="url(#pcdcfccb5d8)" d="M 79.964022 264.877046 
L 86.931256 244.079678 
L 100.865724 239.387884 
L 107.832958 228.146337 
L 121.767427 244.160436 
L 128.734661 258.677057 
L 142.669129 258.490473 
L 149.636363 233.187895 
L 163.570831 240.966151 
L 170.538066 237.960446 
L 184.472534 231.679699 
L 191.439768 252.290483 
L 205.374236 215.746357 
L 212.34147 234.766161 
L 226.275939 246.277077 
L 233.243173 225.479709 
L 247.177641 220.787915 
L 254.144875 209.546367 
L 268.079344 225.560466 
L 275.046578 240.077087 
L 288.981046 239.890504 
L 295.94828 214.587925 
L 309.882749 222.366182 
L 316.849983 219.360477 
L 330.784451 213.079729 
L 337.751685 233.690514 
L 351.686153 197.146387 
L 358.653388 216.166192 
L 372.587856 227.677107 
L 379.55509 206.879739 
L 393.489558 202.187945 
L 400.456792 190.946398 
L 414.391261 206.960497 
L 421.358495 221.477118 
L 435.292963 221.290535 
L 442.260197 195.987959 
L 456.194666 203.766222 
L 463.1619 200.760538 
L 477.096368 194.479832 
L 484.063602 215.090638 
L 497.99807 178.546554 
L 504.965305 197.566421 
L 518.899773 209.077463 
L 525.867007 188.280158 
L 539.801475 183.589369 
L 546.76871 172.348323 
L 560.703178 188.363427 
L 567.670412 202.88055 
L 581.60488 202.694971 
L 588.572114 177.392895 
L 602.506583 185.172156 
L 609.473817 182.166953 
L 623.408285 175.88721 
L 630.375519 196.498497 
L 644.309988 159.955375 
L 651.277222 178.975681 
L 658.244456 175.970479 
" style="fill:none;stroke:#0072b2;stroke-linecap:square;stroke-width:1.5;"/>
   </g>
   <g id="patch_3">
    <path d="M 51.05 390.04 
L 51.05 10.8 
" style="fill:none;stroke:#000000;stroke-linecap:square;stroke-linejoin:miter;stroke-width:0.8;"/>
   </g>
   <g id="patch_4">
    <path d="M 687.158478 390.04 
L 687.158478 10.8 
" style="fill:none;stroke:#000000;stroke-linecap:square;stroke-linejoin:miter;stroke-width:0.8;"/>
   </g>
   <g id="patch_5">
    <path d="M 51.05 390.04 
L 687.158478 390.04 
" style="fill:none;stroke:#000000;stroke-linecap:square;stroke-linejoin:miter;stroke-width:0.8;"/>
   </g>
   <g id="patch_6">
    <path d="M 51.05 10.8 
L 687.158478 10.8 
" style="fill:none;stroke:#000000;stroke-linecap:square;stroke-linejoin:miter;stroke-width:0.8;"/>
   </g>
  </g>
 </g>
 <defs>
  <clipPath id="pcdcfccb5d8">
   <rect height="379.24" width="636.108478" x="51.05" y="10.8"/>
  </clipPath>
 </defs>
</svg>
