<?xml version="1.0" encoding="utf-8" standalone="no"?>
<!DOCTYPE svg PUBLIC "-//W3C//DTD SVG 1.1//EN"
  "http://www.w3.org/Graphics/SVG/1.1/DTD/svg11.dtd">
<!-- Created with matplotlib (https://matplotlib.org/) -->
<svg height="432pt" version="1.1" viewBox="0 0 720 432" width="720pt" xmlns="http://www.w3.org/2000/svg" xmlns:xlink="http://www.w3.org/1999/xlink">
 <defs>
  <style type="text/css">
*{stroke-linecap:butt;stroke-linejoin:round;}
  </style>
 </defs>
 <g id="figure_1">
  <g id="patch_1">
   <path d="M 0 432 
L 720 432 
L 720 0 
L 0 0 
z
" style="fill:#ffffff;"/>
  </g>
  <g id="axes_1">
   <g id="patch_2">
    <path d="M 51.05 390.04 
L 699.857273 390.04 
L 699.857273 14.628265 
L 51.05 14.628265 
z
" style="fill:#ffffff;"/>
   </g>
   <g id="PolyCollection_1">
    <defs>
     <path d="M 80.54124 -387.380502 
L 80.54124 -97.39481 
L 87.094848 -91.548821 
L 100.202066 -66.648895 
L 106.755675 -78.3876 
L 113.309284 -82.977683 
L 119.862893 -85.86878 
L 126.416501 -96.840986 
L 132.97011 -94.001432 
L 139.523719 -105.51528 
L 146.077328 -88.200923 
L 152.630937 -64.630982 
L 159.184545 -79.214639 
L 165.738154 -84.879434 
L 178.845372 -82.981406 
L 185.398981 -89.063954 
L 191.95259 -72.045791 
L 198.506198 -75.830749 
L 205.059807 -87.577974 
L 211.613416 -86.949295 
L 218.167025 -99.047495 
L 224.720634 -74.469806 
L 231.274242 -80.975783 
L 237.827851 -81.946962 
L 244.38146 -63.642878 
L 250.935069 -82.430975 
L 257.488678 -97.873469 
L 264.042287 -109.041022 
L 270.595895 -81.716729 
L 277.149504 -93.640067 
L 283.703113 -76.89613 
L 290.256722 -83.658271 
L 296.810331 -77.789384 
L 303.363939 -105.882819 
L 309.917548 -97.737881 
L 316.471157 -79.022356 
L 323.024766 -96.939751 
L 329.578375 -69.600645 
L 336.131983 -59.708627 
L 342.685592 -75.512327 
L 349.239201 -79.601883 
L 355.79281 -108.152231 
L 368.900028 -91.049369 
L 382.007245 -63.960525 
L 388.560854 -82.390818 
L 395.114463 -72.695046 
L 401.668072 -94.973724 
L 414.775289 -97.019399 
L 421.328898 -88.550569 
L 427.882507 -71.465138 
L 434.436116 -81.526626 
L 447.543333 -100.609383 
L 454.096942 -82.786161 
L 460.650551 -93.460271 
L 467.20416 -70.083554 
L 473.757769 -66.533549 
L 486.864986 -88.536326 
L 493.418595 -98.219435 
L 499.972204 -84.744625 
L 506.525813 -95.557607 
L 513.079421 -80.38788 
L 519.63303 -59.280229 
L 526.186639 -75.447456 
L 532.740248 -85.953648 
L 539.293857 -87.63598 
L 545.847466 -78.818379 
L 552.401074 -93.62619 
L 558.954683 -87.652045 
L 565.508292 -70.095506 
L 572.061901 -76.755777 
L 578.61551 -96.634529 
L 585.169118 -95.287606 
L 591.722727 -71.488144 
L 604.829945 -73.050176 
L 611.383554 -59.02417 
L 617.937163 -79.030618 
L 624.490771 -86.893693 
L 631.04438 -95.455984 
L 637.597989 -80.255743 
L 650.705207 -80.284526 
L 657.258815 -60.209897 
L 663.812424 -75.857271 
L 670.366033 -86.037844 
L 670.366033 -359.164557 
L 670.366033 -359.164557 
L 663.812424 -355.5505 
L 657.258815 -349.598027 
L 650.705207 -359.627582 
L 637.597989 -369.405832 
L 631.04438 -370.324745 
L 624.490771 -364.434457 
L 617.937163 -363.679857 
L 611.383554 -350.908956 
L 604.829945 -366.88911 
L 591.722727 -356.714928 
L 585.169118 -382.004585 
L 578.61551 -367.03863 
L 572.061901 -355.209404 
L 565.508292 -351.226859 
L 558.954683 -364.201411 
L 552.401074 -376.556588 
L 545.847466 -367.27251 
L 539.293857 -384.181481 
L 532.740248 -373.906236 
L 526.186639 -359.601489 
L 519.63303 -346.986434 
L 513.079421 -348.053869 
L 506.525813 -367.230924 
L 499.972204 -355.924615 
L 493.418595 -400.307565 
L 486.864986 -380.255488 
L 473.757769 -356.908399 
L 467.20416 -361.313106 
L 460.650551 -385.853917 
L 454.096942 -361.272388 
L 447.543333 -388.093829 
L 434.436116 -364.140131 
L 427.882507 -369.712826 
L 421.328898 -368.575932 
L 414.775289 -384.027836 
L 401.668072 -387.776376 
L 395.114463 -375.368506 
L 388.560854 -362.011616 
L 382.007245 -353.282161 
L 368.900028 -387.754186 
L 355.79281 -381.179554 
L 349.239201 -365.167486 
L 342.685592 -353.512021 
L 336.131983 -353.048365 
L 329.578375 -356.155197 
L 323.024766 -372.305319 
L 316.471157 -380.171537 
L 309.917548 -387.680537 
L 303.363939 -377.705098 
L 296.810331 -357.414267 
L 290.256722 -363.139982 
L 283.703113 -355.900907 
L 277.149504 -377.726824 
L 270.595895 -357.345039 
L 264.042287 -380.845257 
L 257.488678 -381.496821 
L 250.935069 -361.373163 
L 244.38146 -364.038556 
L 237.827851 -372.194115 
L 231.274242 -384.483974 
L 224.720634 -373.621095 
L 218.167025 -394.437897 
L 211.613416 -379.133306 
L 205.059807 -360.67767 
L 198.506198 -358.204436 
L 191.95259 -366.359063 
L 185.398981 -379.948041 
L 178.845372 -365.716677 
L 165.738154 -372.777615 
L 159.184545 -369.089574 
L 152.630937 -354.021874 
L 146.077328 -370.556654 
L 139.523719 -382.068519 
L 132.97011 -375.599731 
L 126.416501 -379.363921 
L 119.862893 -387.158092 
L 113.309284 -371.301148 
L 106.755675 -351.550903 
L 100.202066 -350.768186 
L 87.094848 -369.151798 
L 80.54124 -387.380502 
z
" id="me363ca9218" style="stroke:#0072b2;stroke-opacity:0.2;"/>
    </defs>
    <g clip-path="url(#pc0c4d43350)">
     <use style="fill:#0072b2;fill-opacity:0.2;stroke:#0072b2;stroke-opacity:0.2;" x="0" xlink:href="#me363ca9218" y="432"/>
    </g>
   </g>
   <g id="matplotlib.axis_1">
    <g id="xtick_1">
     <g id="line2d_1">
      <path clip-path="url(#pc0c4d43350)" d="M 126.416501 390.04 
L 126.416501 14.628265 
" style="fill:none;stroke:#808080;stroke-linecap:square;stroke-opacity:0.2;"/>
     </g>
     <g id="line2d_2">
      <defs>
       <path d="M 0 0 
L 0 3.5 
" id="m0f948f8998" style="stroke:#000000;stroke-width:0.8;"/>
      </defs>
      <g>
       <use style="stroke:#000000;stroke-width:0.8;" x="126.416501" xlink:href="#m0f948f8998" y="390.04"/>
      </g>
     </g>
     <g id="text_1">
      <!-- 2019-01-08 -->
      <defs>
       <path d="M 19.1875 8.296875 
L 53.609375 8.296875 
L 53.609375 0 
L 7.328125 0 
L 7.328125 8.296875 
Q 12.9375 14.109375 22.625 23.890625 
Q 32.328125 33.6875 34.8125 36.53125 
Q 39.546875 41.84375 41.421875 45.53125 
Q 43.3125 49.21875 43.3125 52.78125 
Q 43.3125 58.59375 39.234375 62.25 
Q 35.15625 65.921875 28.609375 65.921875 
Q 23.96875 65.921875 18.8125 64.3125 
Q 13.671875 62.703125 7.8125 59.421875 
L 7.8125 69.390625 
Q 13.765625 71.78125 18.9375 73 
Q 24.125 74.21875 28.421875 74.21875 
Q 39.75 74.21875 46.484375 68.546875 
Q 53.21875 62.890625 53.21875 53.421875 
Q 53.21875 48.921875 51.53125 44.890625 
Q 49.859375 40.875 45.40625 35.40625 
Q 44.1875 33.984375 37.640625 27.21875 
Q 31.109375 20.453125 19.1875 8.296875 
z
" id="DejaVuSans-50"/>
       <path d="M 31.78125 66.40625 
Q 24.171875 66.40625 20.328125 58.90625 
Q 16.5 51.421875 16.5 36.375 
Q 16.5 21.390625 20.328125 13.890625 
Q 24.171875 6.390625 31.78125 6.390625 
Q 39.453125 6.390625 43.28125 13.890625 
Q 47.125 21.390625 47.125 36.375 
Q 47.125 51.421875 43.28125 58.90625 
Q 39.453125 66.40625 31.78125 66.40625 
z
M 31.78125 74.21875 
Q 44.046875 74.21875 50.515625 64.515625 
Q 56.984375 54.828125 56.984375 36.375 
Q 56.984375 17.96875 50.515625 8.265625 
Q 44.046875 -1.421875 31.78125 -1.421875 
Q 19.53125 -1.421875 13.0625 8.265625 
Q 6.59375 17.96875 6.59375 36.375 
Q 6.59375 54.828125 13.0625 64.515625 
Q 19.53125 74.21875 31.78125 74.21875 
z
" id="DejaVuSans-48"/>
       <path d="M 12.40625 8.296875 
L 28.515625 8.296875 
L 28.515625 63.921875 
L 10.984375 60.40625 
L 10.984375 69.390625 
L 28.421875 72.90625 
L 38.28125 72.90625 
L 38.28125 8.296875 
L 54.390625 8.296875 
L 54.390625 0 
L 12.40625 0 
z
" id="DejaVuSans-49"/>
       <path d="M 10.984375 1.515625 
L 10.984375 10.5 
Q 14.703125 8.734375 18.5 7.8125 
Q 22.3125 6.890625 25.984375 6.890625 
Q 35.75 6.890625 40.890625 13.453125 
Q 46.046875 20.015625 46.78125 33.40625 
Q 43.953125 29.203125 39.59375 26.953125 
Q 35.25 24.703125 29.984375 24.703125 
Q 19.046875 24.703125 12.671875 31.3125 
Q 6.296875 37.9375 6.296875 49.421875 
Q 6.296875 60.640625 12.9375 67.421875 
Q 19.578125 74.21875 30.609375 74.21875 
Q 43.265625 74.21875 49.921875 64.515625 
Q 56.59375 54.828125 56.59375 36.375 
Q 56.59375 19.140625 48.40625 8.859375 
Q 40.234375 -1.421875 26.421875 -1.421875 
Q 22.703125 -1.421875 18.890625 -0.6875 
Q 15.09375 0.046875 10.984375 1.515625 
z
M 30.609375 32.421875 
Q 37.25 32.421875 41.125 36.953125 
Q 45.015625 41.5 45.015625 49.421875 
Q 45.015625 57.28125 41.125 61.84375 
Q 37.25 66.40625 30.609375 66.40625 
Q 23.96875 66.40625 20.09375 61.84375 
Q 16.21875 57.28125 16.21875 49.421875 
Q 16.21875 41.5 20.09375 36.953125 
Q 23.96875 32.421875 30.609375 32.421875 
z
" id="DejaVuSans-57"/>
       <path d="M 4.890625 31.390625 
L 31.203125 31.390625 
L 31.203125 23.390625 
L 4.890625 23.390625 
z
" id="DejaVuSans-45"/>
       <path d="M 31.78125 34.625 
Q 24.75 34.625 20.71875 30.859375 
Q 16.703125 27.09375 16.703125 20.515625 
Q 16.703125 13.921875 20.71875 10.15625 
Q 24.75 6.390625 31.78125 6.390625 
Q 38.8125 6.390625 42.859375 10.171875 
Q 46.921875 13.96875 46.921875 20.515625 
Q 46.921875 27.09375 42.890625 30.859375 
Q 38.875 34.625 31.78125 34.625 
z
M 21.921875 38.8125 
Q 15.578125 40.375 12.03125 44.71875 
Q 8.5 49.078125 8.5 55.328125 
Q 8.5 64.0625 14.71875 69.140625 
Q 20.953125 74.21875 31.78125 74.21875 
Q 42.671875 74.21875 48.875 69.140625 
Q 55.078125 64.0625 55.078125 55.328125 
Q 55.078125 49.078125 51.53125 44.71875 
Q 48 40.375 41.703125 38.8125 
Q 48.828125 37.15625 52.796875 32.3125 
Q 56.78125 27.484375 56.78125 20.515625 
Q 56.78125 9.90625 50.3125 4.234375 
Q 43.84375 -1.421875 31.78125 -1.421875 
Q 19.734375 -1.421875 13.25 4.234375 
Q 6.78125 9.90625 6.78125 20.515625 
Q 6.78125 27.484375 10.78125 32.3125 
Q 14.796875 37.15625 21.921875 38.8125 
z
M 18.3125 54.390625 
Q 18.3125 48.734375 21.84375 45.5625 
Q 25.390625 42.390625 31.78125 42.390625 
Q 38.140625 42.390625 41.71875 45.5625 
Q 45.3125 48.734375 45.3125 54.390625 
Q 45.3125 60.0625 41.71875 63.234375 
Q 38.140625 66.40625 31.78125 66.40625 
Q 25.390625 66.40625 21.84375 63.234375 
Q 18.3125 60.0625 18.3125 54.390625 
z
" id="DejaVuSans-56"/>
      </defs>
      <g transform="translate(97.358689 404.638438)scale(0.1 -0.1)">
       <use xlink:href="#DejaVuSans-50"/>
       <use x="63.623047" xlink:href="#DejaVuSans-48"/>
       <use x="127.246094" xlink:href="#DejaVuSans-49"/>
       <use x="190.869141" xlink:href="#DejaVuSans-57"/>
       <use x="254.492188" xlink:href="#DejaVuSans-45"/>
       <use x="290.576172" xlink:href="#DejaVuSans-48"/>
       <use x="354.199219" xlink:href="#DejaVuSans-49"/>
       <use x="417.822266" xlink:href="#DejaVuSans-45"/>
       <use x="453.90625" xlink:href="#DejaVuSans-48"/>
       <use x="517.529297" xlink:href="#DejaVuSans-56"/>
      </g>
     </g>
    </g>
    <g id="xtick_2">
     <g id="line2d_3">
      <path clip-path="url(#pc0c4d43350)" d="M 218.167025 390.04 
L 218.167025 14.628265 
" style="fill:none;stroke:#808080;stroke-linecap:square;stroke-opacity:0.2;"/>
     </g>
     <g id="line2d_4">
      <g>
       <use style="stroke:#000000;stroke-width:0.8;" x="218.167025" xlink:href="#m0f948f8998" y="390.04"/>
      </g>
     </g>
     <g id="text_2">
      <!-- 2019-01-22 -->
      <g transform="translate(189.109212 404.638438)scale(0.1 -0.1)">
       <use xlink:href="#DejaVuSans-50"/>
       <use x="63.623047" xlink:href="#DejaVuSans-48"/>
       <use x="127.246094" xlink:href="#DejaVuSans-49"/>
       <use x="190.869141" xlink:href="#DejaVuSans-57"/>
       <use x="254.492188" xlink:href="#DejaVuSans-45"/>
       <use x="290.576172" xlink:href="#DejaVuSans-48"/>
       <use x="354.199219" xlink:href="#DejaVuSans-49"/>
       <use x="417.822266" xlink:href="#DejaVuSans-45"/>
       <use x="453.90625" xlink:href="#DejaVuSans-50"/>
       <use x="517.529297" xlink:href="#DejaVuSans-50"/>
      </g>
     </g>
    </g>
    <g id="xtick_3">
     <g id="line2d_5">
      <path clip-path="url(#pc0c4d43350)" d="M 309.917548 390.04 
L 309.917548 14.628265 
" style="fill:none;stroke:#808080;stroke-linecap:square;stroke-opacity:0.2;"/>
     </g>
     <g id="line2d_6">
      <g>
       <use style="stroke:#000000;stroke-width:0.8;" x="309.917548" xlink:href="#m0f948f8998" y="390.04"/>
      </g>
     </g>
     <g id="text_3">
      <!-- 2019-02-05 -->
      <defs>
       <path d="M 10.796875 72.90625 
L 49.515625 72.90625 
L 49.515625 64.59375 
L 19.828125 64.59375 
L 19.828125 46.734375 
Q 21.96875 47.46875 24.109375 47.828125 
Q 26.265625 48.1875 28.421875 48.1875 
Q 40.625 48.1875 47.75 41.5 
Q 54.890625 34.8125 54.890625 23.390625 
Q 54.890625 11.625 47.5625 5.09375 
Q 40.234375 -1.421875 26.90625 -1.421875 
Q 22.3125 -1.421875 17.546875 -0.640625 
Q 12.796875 0.140625 7.71875 1.703125 
L 7.71875 11.625 
Q 12.109375 9.234375 16.796875 8.0625 
Q 21.484375 6.890625 26.703125 6.890625 
Q 35.15625 6.890625 40.078125 11.328125 
Q 45.015625 15.765625 45.015625 23.390625 
Q 45.015625 31 40.078125 35.4375 
Q 35.15625 39.890625 26.703125 39.890625 
Q 22.75 39.890625 18.8125 39.015625 
Q 14.890625 38.140625 10.796875 36.28125 
z
" id="DejaVuSans-53"/>
      </defs>
      <g transform="translate(280.859736 404.638438)scale(0.1 -0.1)">
       <use xlink:href="#DejaVuSans-50"/>
       <use x="63.623047" xlink:href="#DejaVuSans-48"/>
       <use x="127.246094" xlink:href="#DejaVuSans-49"/>
       <use x="190.869141" xlink:href="#DejaVuSans-57"/>
       <use x="254.492188" xlink:href="#DejaVuSans-45"/>
       <use x="290.576172" xlink:href="#DejaVuSans-48"/>
       <use x="354.199219" xlink:href="#DejaVuSans-50"/>
       <use x="417.822266" xlink:href="#DejaVuSans-45"/>
       <use x="453.90625" xlink:href="#DejaVuSans-48"/>
       <use x="517.529297" xlink:href="#DejaVuSans-53"/>
      </g>
     </g>
    </g>
    <g id="xtick_4">
     <g id="line2d_7">
      <path clip-path="url(#pc0c4d43350)" d="M 401.668072 390.04 
L 401.668072 14.628265 
" style="fill:none;stroke:#808080;stroke-linecap:square;stroke-opacity:0.2;"/>
     </g>
     <g id="line2d_8">
      <g>
       <use style="stroke:#000000;stroke-width:0.8;" x="401.668072" xlink:href="#m0f948f8998" y="390.04"/>
      </g>
     </g>
     <g id="text_4">
      <!-- 2019-02-19 -->
      <g transform="translate(372.610259 404.638438)scale(0.1 -0.1)">
       <use xlink:href="#DejaVuSans-50"/>
       <use x="63.623047" xlink:href="#DejaVuSans-48"/>
       <use x="127.246094" xlink:href="#DejaVuSans-49"/>
       <use x="190.869141" xlink:href="#DejaVuSans-57"/>
       <use x="254.492188" xlink:href="#DejaVuSans-45"/>
       <use x="290.576172" xlink:href="#DejaVuSans-48"/>
       <use x="354.199219" xlink:href="#DejaVuSans-50"/>
       <use x="417.822266" xlink:href="#DejaVuSans-45"/>
       <use x="453.90625" xlink:href="#DejaVuSans-49"/>
       <use x="517.529297" xlink:href="#DejaVuSans-57"/>
      </g>
     </g>
    </g>
    <g id="xtick_5">
     <g id="line2d_9">
      <path clip-path="url(#pc0c4d43350)" d="M 493.418595 390.04 
L 493.418595 14.628265 
" style="fill:none;stroke:#808080;stroke-linecap:square;stroke-opacity:0.2;"/>
     </g>
     <g id="line2d_10">
      <g>
       <use style="stroke:#000000;stroke-width:0.8;" x="493.418595" xlink:href="#m0f948f8998" y="390.04"/>
      </g>
     </g>
     <g id="text_5">
      <!-- 2019-03-05 -->
      <defs>
       <path d="M 40.578125 39.3125 
Q 47.65625 37.796875 51.625 33 
Q 55.609375 28.21875 55.609375 21.1875 
Q 55.609375 10.40625 48.1875 4.484375 
Q 40.765625 -1.421875 27.09375 -1.421875 
Q 22.515625 -1.421875 17.65625 -0.515625 
Q 12.796875 0.390625 7.625 2.203125 
L 7.625 11.71875 
Q 11.71875 9.328125 16.59375 8.109375 
Q 21.484375 6.890625 26.8125 6.890625 
Q 36.078125 6.890625 40.9375 10.546875 
Q 45.796875 14.203125 45.796875 21.1875 
Q 45.796875 27.640625 41.28125 31.265625 
Q 36.765625 34.90625 28.71875 34.90625 
L 20.21875 34.90625 
L 20.21875 43.015625 
L 29.109375 43.015625 
Q 36.375 43.015625 40.234375 45.921875 
Q 44.09375 48.828125 44.09375 54.296875 
Q 44.09375 59.90625 40.109375 62.90625 
Q 36.140625 65.921875 28.71875 65.921875 
Q 24.65625 65.921875 20.015625 65.03125 
Q 15.375 64.15625 9.8125 62.3125 
L 9.8125 71.09375 
Q 15.4375 72.65625 20.34375 73.4375 
Q 25.25 74.21875 29.59375 74.21875 
Q 40.828125 74.21875 47.359375 69.109375 
Q 53.90625 64.015625 53.90625 55.328125 
Q 53.90625 49.265625 50.4375 45.09375 
Q 46.96875 40.921875 40.578125 39.3125 
z
" id="DejaVuSans-51"/>
      </defs>
      <g transform="translate(464.360783 404.638438)scale(0.1 -0.1)">
       <use xlink:href="#DejaVuSans-50"/>
       <use x="63.623047" xlink:href="#DejaVuSans-48"/>
       <use x="127.246094" xlink:href="#DejaVuSans-49"/>
       <use x="190.869141" xlink:href="#DejaVuSans-57"/>
       <use x="254.492188" xlink:href="#DejaVuSans-45"/>
       <use x="290.576172" xlink:href="#DejaVuSans-48"/>
       <use x="354.199219" xlink:href="#DejaVuSans-51"/>
       <use x="417.822266" xlink:href="#DejaVuSans-45"/>
       <use x="453.90625" xlink:href="#DejaVuSans-48"/>
       <use x="517.529297" xlink:href="#DejaVuSans-53"/>
      </g>
     </g>
    </g>
    <g id="xtick_6">
     <g id="line2d_11">
      <path clip-path="url(#pc0c4d43350)" d="M 585.169118 390.04 
L 585.169118 14.628265 
" style="fill:none;stroke:#808080;stroke-linecap:square;stroke-opacity:0.2;"/>
     </g>
     <g id="line2d_12">
      <g>
       <use style="stroke:#000000;stroke-width:0.8;" x="585.169118" xlink:href="#m0f948f8998" y="390.04"/>
      </g>
     </g>
     <g id="text_6">
      <!-- 2019-03-19 -->
      <g transform="translate(556.111306 404.638438)scale(0.1 -0.1)">
       <use xlink:href="#DejaVuSans-50"/>
       <use x="63.623047" xlink:href="#DejaVuSans-48"/>
       <use x="127.246094" xlink:href="#DejaVuSans-49"/>
       <use x="190.869141" xlink:href="#DejaVuSans-57"/>
       <use x="254.492188" xlink:href="#DejaVuSans-45"/>
       <use x="290.576172" xlink:href="#DejaVuSans-48"/>
       <use x="354.199219" xlink:href="#DejaVuSans-51"/>
       <use x="417.822266" xlink:href="#DejaVuSans-45"/>
       <use x="453.90625" xlink:href="#DejaVuSans-49"/>
       <use x="517.529297" xlink:href="#DejaVuSans-57"/>
      </g>
     </g>
    </g>
    <g id="xtick_7">
     <g id="line2d_13">
      <path clip-path="url(#pc0c4d43350)" d="M 676.919642 390.04 
L 676.919642 14.628265 
" style="fill:none;stroke:#808080;stroke-linecap:square;stroke-opacity:0.2;"/>
     </g>
     <g id="line2d_14">
      <g>
       <use style="stroke:#000000;stroke-width:0.8;" x="676.919642" xlink:href="#m0f948f8998" y="390.04"/>
      </g>
     </g>
     <g id="text_7">
      <!-- 2019-04-02 -->
      <defs>
       <path d="M 37.796875 64.3125 
L 12.890625 25.390625 
L 37.796875 25.390625 
z
M 35.203125 72.90625 
L 47.609375 72.90625 
L 47.609375 25.390625 
L 58.015625 25.390625 
L 58.015625 17.1875 
L 47.609375 17.1875 
L 47.609375 0 
L 37.796875 0 
L 37.796875 17.1875 
L 4.890625 17.1875 
L 4.890625 26.703125 
z
" id="DejaVuSans-52"/>
      </defs>
      <g transform="translate(647.861829 404.638438)scale(0.1 -0.1)">
       <use xlink:href="#DejaVuSans-50"/>
       <use x="63.623047" xlink:href="#DejaVuSans-48"/>
       <use x="127.246094" xlink:href="#DejaVuSans-49"/>
       <use x="190.869141" xlink:href="#DejaVuSans-57"/>
       <use x="254.492188" xlink:href="#DejaVuSans-45"/>
       <use x="290.576172" xlink:href="#DejaVuSans-48"/>
       <use x="354.199219" xlink:href="#DejaVuSans-52"/>
       <use x="417.822266" xlink:href="#DejaVuSans-45"/>
       <use x="453.90625" xlink:href="#DejaVuSans-48"/>
       <use x="517.529297" xlink:href="#DejaVuSans-50"/>
      </g>
     </g>
    </g>
    <g id="text_8">
     <!-- ds -->
     <defs>
      <path d="M 45.40625 46.390625 
L 45.40625 75.984375 
L 54.390625 75.984375 
L 54.390625 0 
L 45.40625 0 
L 45.40625 8.203125 
Q 42.578125 3.328125 38.25 0.953125 
Q 33.9375 -1.421875 27.875 -1.421875 
Q 17.96875 -1.421875 11.734375 6.484375 
Q 5.515625 14.40625 5.515625 27.296875 
Q 5.515625 40.1875 11.734375 48.09375 
Q 17.96875 56 27.875 56 
Q 33.9375 56 38.25 53.625 
Q 42.578125 51.265625 45.40625 46.390625 
z
M 14.796875 27.296875 
Q 14.796875 17.390625 18.875 11.75 
Q 22.953125 6.109375 30.078125 6.109375 
Q 37.203125 6.109375 41.296875 11.75 
Q 45.40625 17.390625 45.40625 27.296875 
Q 45.40625 37.203125 41.296875 42.84375 
Q 37.203125 48.484375 30.078125 48.484375 
Q 22.953125 48.484375 18.875 42.84375 
Q 14.796875 37.203125 14.796875 27.296875 
z
" id="DejaVuSans-100"/>
      <path d="M 44.28125 53.078125 
L 44.28125 44.578125 
Q 40.484375 46.53125 36.375 47.5 
Q 32.28125 48.484375 27.875 48.484375 
Q 21.1875 48.484375 17.84375 46.4375 
Q 14.5 44.390625 14.5 40.28125 
Q 14.5 37.15625 16.890625 35.375 
Q 19.28125 33.59375 26.515625 31.984375 
L 29.59375 31.296875 
Q 39.15625 29.25 43.1875 25.515625 
Q 47.21875 21.78125 47.21875 15.09375 
Q 47.21875 7.46875 41.1875 3.015625 
Q 35.15625 -1.421875 24.609375 -1.421875 
Q 20.21875 -1.421875 15.453125 -0.5625 
Q 10.6875 0.296875 5.421875 2 
L 5.421875 11.28125 
Q 10.40625 8.6875 15.234375 7.390625 
Q 20.0625 6.109375 24.8125 6.109375 
Q 31.15625 6.109375 34.5625 8.28125 
Q 37.984375 10.453125 37.984375 14.40625 
Q 37.984375 18.0625 35.515625 20.015625 
Q 33.0625 21.96875 24.703125 23.78125 
L 21.578125 24.515625 
Q 13.234375 26.265625 9.515625 29.90625 
Q 5.8125 33.546875 5.8125 39.890625 
Q 5.8125 47.609375 11.28125 51.796875 
Q 16.75 56 26.8125 56 
Q 31.78125 56 36.171875 55.265625 
Q 40.578125 54.546875 44.28125 53.078125 
z
" id="DejaVuSans-115"/>
     </defs>
     <g transform="translate(369.67473 418.316562)scale(0.1 -0.1)">
      <use xlink:href="#DejaVuSans-100"/>
      <use x="63.476562" xlink:href="#DejaVuSans-115"/>
     </g>
    </g>
   </g>
   <g id="matplotlib.axis_2">
    <g id="ytick_1">
     <g id="line2d_15">
      <path clip-path="url(#pc0c4d43350)" d="M 51.05 379.134413 
L 699.857273 379.134413 
" style="fill:none;stroke:#808080;stroke-linecap:square;stroke-opacity:0.2;"/>
     </g>
     <g id="line2d_16">
      <defs>
       <path d="M 0 0 
L -3.5 0 
" id="m9f86eb3b14" style="stroke:#000000;stroke-width:0.8;"/>
      </defs>
      <g>
       <use style="stroke:#000000;stroke-width:0.8;" x="51.05" xlink:href="#m9f86eb3b14" y="379.134413"/>
      </g>
     </g>
     <g id="text_9">
      <!-- 100 -->
      <g transform="translate(24.9625 382.933632)scale(0.1 -0.1)">
       <use xlink:href="#DejaVuSans-49"/>
       <use x="63.623047" xlink:href="#DejaVuSans-48"/>
       <use x="127.246094" xlink:href="#DejaVuSans-48"/>
      </g>
     </g>
    </g>
    <g id="ytick_2">
     <g id="line2d_17">
      <path clip-path="url(#pc0c4d43350)" d="M 51.05 327.083345 
L 699.857273 327.083345 
" style="fill:none;stroke:#808080;stroke-linecap:square;stroke-opacity:0.2;"/>
     </g>
     <g id="line2d_18">
      <g>
       <use style="stroke:#000000;stroke-width:0.8;" x="51.05" xlink:href="#m9f86eb3b14" y="327.083345"/>
      </g>
     </g>
     <g id="text_10">
      <!-- 125 -->
      <g transform="translate(24.9625 330.882564)scale(0.1 -0.1)">
       <use xlink:href="#DejaVuSans-49"/>
       <use x="63.623047" xlink:href="#DejaVuSans-50"/>
       <use x="127.246094" xlink:href="#DejaVuSans-53"/>
      </g>
     </g>
    </g>
    <g id="ytick_3">
     <g id="line2d_19">
      <path clip-path="url(#pc0c4d43350)" d="M 51.05 275.032277 
L 699.857273 275.032277 
" style="fill:none;stroke:#808080;stroke-linecap:square;stroke-opacity:0.2;"/>
     </g>
     <g id="line2d_20">
      <g>
       <use style="stroke:#000000;stroke-width:0.8;" x="51.05" xlink:href="#m9f86eb3b14" y="275.032277"/>
      </g>
     </g>
     <g id="text_11">
      <!-- 150 -->
      <g transform="translate(24.9625 278.831496)scale(0.1 -0.1)">
       <use xlink:href="#DejaVuSans-49"/>
       <use x="63.623047" xlink:href="#DejaVuSans-53"/>
       <use x="127.246094" xlink:href="#DejaVuSans-48"/>
      </g>
     </g>
    </g>
    <g id="ytick_4">
     <g id="line2d_21">
      <path clip-path="url(#pc0c4d43350)" d="M 51.05 222.98121 
L 699.857273 222.98121 
" style="fill:none;stroke:#808080;stroke-linecap:square;stroke-opacity:0.2;"/>
     </g>
     <g id="line2d_22">
      <g>
       <use style="stroke:#000000;stroke-width:0.8;" x="51.05" xlink:href="#m9f86eb3b14" y="222.98121"/>
      </g>
     </g>
     <g id="text_12">
      <!-- 175 -->
      <defs>
       <path d="M 8.203125 72.90625 
L 55.078125 72.90625 
L 55.078125 68.703125 
L 28.609375 0 
L 18.3125 0 
L 43.21875 64.59375 
L 8.203125 64.59375 
z
" id="DejaVuSans-55"/>
      </defs>
      <g transform="translate(24.9625 226.780428)scale(0.1 -0.1)">
       <use xlink:href="#DejaVuSans-49"/>
       <use x="63.623047" xlink:href="#DejaVuSans-55"/>
       <use x="127.246094" xlink:href="#DejaVuSans-53"/>
      </g>
     </g>
    </g>
    <g id="ytick_5">
     <g id="line2d_23">
      <path clip-path="url(#pc0c4d43350)" d="M 51.05 170.930142 
L 699.857273 170.930142 
" style="fill:none;stroke:#808080;stroke-linecap:square;stroke-opacity:0.2;"/>
     </g>
     <g id="line2d_24">
      <g>
       <use style="stroke:#000000;stroke-width:0.8;" x="51.05" xlink:href="#m9f86eb3b14" y="170.930142"/>
      </g>
     </g>
     <g id="text_13">
      <!-- 200 -->
      <g transform="translate(24.9625 174.729361)scale(0.1 -0.1)">
       <use xlink:href="#DejaVuSans-50"/>
       <use x="63.623047" xlink:href="#DejaVuSans-48"/>
       <use x="127.246094" xlink:href="#DejaVuSans-48"/>
      </g>
     </g>
    </g>
    <g id="ytick_6">
     <g id="line2d_25">
      <path clip-path="url(#pc0c4d43350)" d="M 51.05 118.879074 
L 699.857273 118.879074 
" style="fill:none;stroke:#808080;stroke-linecap:square;stroke-opacity:0.2;"/>
     </g>
     <g id="line2d_26">
      <g>
       <use style="stroke:#000000;stroke-width:0.8;" x="51.05" xlink:href="#m9f86eb3b14" y="118.879074"/>
      </g>
     </g>
     <g id="text_14">
      <!-- 225 -->
      <g transform="translate(24.9625 122.678293)scale(0.1 -0.1)">
       <use xlink:href="#DejaVuSans-50"/>
       <use x="63.623047" xlink:href="#DejaVuSans-50"/>
       <use x="127.246094" xlink:href="#DejaVuSans-53"/>
      </g>
     </g>
    </g>
    <g id="ytick_7">
     <g id="line2d_27">
      <path clip-path="url(#pc0c4d43350)" d="M 51.05 66.828007 
L 699.857273 66.828007 
" style="fill:none;stroke:#808080;stroke-linecap:square;stroke-opacity:0.2;"/>
     </g>
     <g id="line2d_28">
      <g>
       <use style="stroke:#000000;stroke-width:0.8;" x="51.05" xlink:href="#m9f86eb3b14" y="66.828007"/>
      </g>
     </g>
     <g id="text_15">
      <!-- 250 -->
      <g transform="translate(24.9625 70.627225)scale(0.1 -0.1)">
       <use xlink:href="#DejaVuSans-50"/>
       <use x="63.623047" xlink:href="#DejaVuSans-53"/>
       <use x="127.246094" xlink:href="#DejaVuSans-48"/>
      </g>
     </g>
    </g>
    <g id="ytick_8">
     <g id="line2d_29">
      <path clip-path="url(#pc0c4d43350)" d="M 51.05 14.776939 
L 699.857273 14.776939 
" style="fill:none;stroke:#808080;stroke-linecap:square;stroke-opacity:0.2;"/>
     </g>
     <g id="line2d_30">
      <g>
       <use style="stroke:#000000;stroke-width:0.8;" x="51.05" xlink:href="#m9f86eb3b14" y="14.776939"/>
      </g>
     </g>
     <g id="text_16">
      <!-- 275 -->
      <g transform="translate(24.9625 18.576158)scale(0.1 -0.1)">
       <use xlink:href="#DejaVuSans-50"/>
       <use x="63.623047" xlink:href="#DejaVuSans-55"/>
       <use x="127.246094" xlink:href="#DejaVuSans-53"/>
      </g>
     </g>
    </g>
    <g id="text_17">
     <!-- y -->
     <defs>
      <path d="M 32.171875 -5.078125 
Q 28.375 -14.84375 24.75 -17.8125 
Q 21.140625 -20.796875 15.09375 -20.796875 
L 7.90625 -20.796875 
L 7.90625 -13.28125 
L 13.1875 -13.28125 
Q 16.890625 -13.28125 18.9375 -11.515625 
Q 21 -9.765625 23.484375 -3.21875 
L 25.09375 0.875 
L 2.984375 54.6875 
L 12.5 54.6875 
L 29.59375 11.921875 
L 46.6875 54.6875 
L 56.203125 54.6875 
z
" id="DejaVuSans-121"/>
     </defs>
     <g transform="translate(18.882812 205.293508)rotate(-90)scale(0.1 -0.1)">
      <use xlink:href="#DejaVuSans-121"/>
     </g>
    </g>
   </g>
   <g id="line2d_31">
    <defs>
     <path d="M 0 1.5 
C 0.397805 1.5 0.77937 1.341951 1.06066 1.06066 
C 1.341951 0.77937 1.5 0.397805 1.5 0 
C 1.5 -0.397805 1.341951 -0.77937 1.06066 -1.06066 
C 0.77937 -1.341951 0.397805 -1.5 0 -1.5 
C -0.397805 -1.5 -0.77937 -1.341951 -1.06066 -1.06066 
C -1.341951 -0.77937 -1.5 -0.397805 -1.5 0 
C -1.5 0.397805 -1.341951 0.77937 -1.06066 1.06066 
C -0.77937 1.341951 -0.397805 1.5 0 1.5 
z
" id="m37715ac79f" style="stroke:#000000;"/>
    </defs>
    <g clip-path="url(#pc0c4d43350)">
     <use style="stroke:#000000;" x="80.54124" xlink:href="#m37715ac79f" y="56.417793"/>
     <use style="stroke:#000000;" x="87.094848" xlink:href="#m37715ac79f" y="283.360448"/>
     <use style="stroke:#000000;" x="100.202066" xlink:href="#m37715ac79f" y="56.417793"/>
     <use style="stroke:#000000;" x="106.755675" xlink:href="#m37715ac79f" y="281.278406"/>
     <use style="stroke:#000000;" x="113.309284" xlink:href="#m37715ac79f" y="291.688619"/>
     <use style="stroke:#000000;" x="119.862893" xlink:href="#m37715ac79f" y="56.417793"/>
     <use style="stroke:#000000;" x="126.416501" xlink:href="#m37715ac79f" y="287.524534"/>
     <use style="stroke:#000000;" x="132.97011" xlink:href="#m37715ac79f" y="295.852705"/>
     <use style="stroke:#000000;" x="139.523719" xlink:href="#m37715ac79f" y="56.417793"/>
     <use style="stroke:#000000;" x="146.077328" xlink:href="#m37715ac79f" y="287.524534"/>
     <use style="stroke:#000000;" x="152.630937" xlink:href="#m37715ac79f" y="291.688619"/>
     <use style="stroke:#000000;" x="159.184545" xlink:href="#m37715ac79f" y="56.417793"/>
     <use style="stroke:#000000;" x="165.738154" xlink:href="#m37715ac79f" y="287.524534"/>
     <use style="stroke:#000000;" x="178.845372" xlink:href="#m37715ac79f" y="56.417793"/>
     <use style="stroke:#000000;" x="185.398981" xlink:href="#m37715ac79f" y="283.360448"/>
     <use style="stroke:#000000;" x="191.95259" xlink:href="#m37715ac79f" y="293.770662"/>
     <use style="stroke:#000000;" x="198.506198" xlink:href="#m37715ac79f" y="56.417793"/>
     <use style="stroke:#000000;" x="205.059807" xlink:href="#m37715ac79f" y="287.524534"/>
     <use style="stroke:#000000;" x="211.613416" xlink:href="#m37715ac79f" y="287.524534"/>
     <use style="stroke:#000000;" x="218.167025" xlink:href="#m37715ac79f" y="56.417793"/>
     <use style="stroke:#000000;" x="224.720634" xlink:href="#m37715ac79f" y="291.688619"/>
     <use style="stroke:#000000;" x="231.274242" xlink:href="#m37715ac79f" y="283.360448"/>
     <use style="stroke:#000000;" x="237.827851" xlink:href="#m37715ac79f" y="56.417793"/>
     <use style="stroke:#000000;" x="244.38146" xlink:href="#m37715ac79f" y="304.180875"/>
     <use style="stroke:#000000;" x="250.935069" xlink:href="#m37715ac79f" y="295.852705"/>
     <use style="stroke:#000000;" x="257.488678" xlink:href="#m37715ac79f" y="56.417793"/>
     <use style="stroke:#000000;" x="264.042287" xlink:href="#m37715ac79f" y="279.196363"/>
     <use style="stroke:#000000;" x="270.595895" xlink:href="#m37715ac79f" y="287.524534"/>
     <use style="stroke:#000000;" x="277.149504" xlink:href="#m37715ac79f" y="56.417793"/>
     <use style="stroke:#000000;" x="283.703113" xlink:href="#m37715ac79f" y="283.360448"/>
     <use style="stroke:#000000;" x="290.256722" xlink:href="#m37715ac79f" y="279.196363"/>
     <use style="stroke:#000000;" x="296.810331" xlink:href="#m37715ac79f" y="56.417793"/>
     <use style="stroke:#000000;" x="303.363939" xlink:href="#m37715ac79f" y="283.360448"/>
     <use style="stroke:#000000;" x="309.917548" xlink:href="#m37715ac79f" y="295.852705"/>
     <use style="stroke:#000000;" x="316.471157" xlink:href="#m37715ac79f" y="56.417793"/>
     <use style="stroke:#000000;" x="323.024766" xlink:href="#m37715ac79f" y="297.934747"/>
     <use style="stroke:#000000;" x="329.578375" xlink:href="#m37715ac79f" y="287.524534"/>
     <use style="stroke:#000000;" x="336.131983" xlink:href="#m37715ac79f" y="56.417793"/>
     <use style="stroke:#000000;" x="342.685592" xlink:href="#m37715ac79f" y="287.524534"/>
     <use style="stroke:#000000;" x="349.239201" xlink:href="#m37715ac79f" y="287.524534"/>
     <use style="stroke:#000000;" x="355.79281" xlink:href="#m37715ac79f" y="56.417793"/>
     <use style="stroke:#000000;" x="368.900028" xlink:href="#m37715ac79f" y="304.180875"/>
     <use style="stroke:#000000;" x="382.007245" xlink:href="#m37715ac79f" y="291.688619"/>
     <use style="stroke:#000000;" x="388.560854" xlink:href="#m37715ac79f" y="287.524534"/>
     <use style="stroke:#000000;" x="395.114463" xlink:href="#m37715ac79f" y="56.417793"/>
     <use style="stroke:#000000;" x="401.668072" xlink:href="#m37715ac79f" y="283.360448"/>
     <use style="stroke:#000000;" x="414.775289" xlink:href="#m37715ac79f" y="56.417793"/>
     <use style="stroke:#000000;" x="421.328898" xlink:href="#m37715ac79f" y="279.196363"/>
     <use style="stroke:#000000;" x="427.882507" xlink:href="#m37715ac79f" y="295.852705"/>
     <use style="stroke:#000000;" x="434.436116" xlink:href="#m37715ac79f" y="56.417793"/>
     <use style="stroke:#000000;" x="447.543333" xlink:href="#m37715ac79f" y="300.01679"/>
     <use style="stroke:#000000;" x="454.096942" xlink:href="#m37715ac79f" y="56.417793"/>
     <use style="stroke:#000000;" x="460.650551" xlink:href="#m37715ac79f" y="279.196363"/>
     <use style="stroke:#000000;" x="467.20416" xlink:href="#m37715ac79f" y="295.852705"/>
     <use style="stroke:#000000;" x="473.757769" xlink:href="#m37715ac79f" y="56.417793"/>
     <use style="stroke:#000000;" x="486.864986" xlink:href="#m37715ac79f" y="291.688619"/>
     <use style="stroke:#000000;" x="493.418595" xlink:href="#m37715ac79f" y="56.417793"/>
     <use style="stroke:#000000;" x="499.972204" xlink:href="#m37715ac79f" y="287.524534"/>
     <use style="stroke:#000000;" x="506.525813" xlink:href="#m37715ac79f" y="283.360448"/>
     <use style="stroke:#000000;" x="513.079421" xlink:href="#m37715ac79f" y="56.417793"/>
     <use style="stroke:#000000;" x="519.63303" xlink:href="#m37715ac79f" y="291.688619"/>
     <use style="stroke:#000000;" x="526.186639" xlink:href="#m37715ac79f" y="293.770662"/>
     <use style="stroke:#000000;" x="532.740248" xlink:href="#m37715ac79f" y="56.417793"/>
     <use style="stroke:#000000;" x="539.293857" xlink:href="#m37715ac79f" y="295.852705"/>
     <use style="stroke:#000000;" x="545.847466" xlink:href="#m37715ac79f" y="289.606576"/>
     <use style="stroke:#000000;" x="552.401074" xlink:href="#m37715ac79f" y="56.417793"/>
     <use style="stroke:#000000;" x="558.954683" xlink:href="#m37715ac79f" y="291.688619"/>
     <use style="stroke:#000000;" x="565.508292" xlink:href="#m37715ac79f" y="283.360448"/>
     <use style="stroke:#000000;" x="572.061901" xlink:href="#m37715ac79f" y="56.417793"/>
     <use style="stroke:#000000;" x="578.61551" xlink:href="#m37715ac79f" y="272.950235"/>
     <use style="stroke:#000000;" x="585.169118" xlink:href="#m37715ac79f" y="289.606576"/>
     <use style="stroke:#000000;" x="591.722727" xlink:href="#m37715ac79f" y="56.417793"/>
     <use style="stroke:#000000;" x="604.829945" xlink:href="#m37715ac79f" y="291.688619"/>
     <use style="stroke:#000000;" x="611.383554" xlink:href="#m37715ac79f" y="56.417793"/>
     <use style="stroke:#000000;" x="617.937163" xlink:href="#m37715ac79f" y="283.360448"/>
     <use style="stroke:#000000;" x="624.490771" xlink:href="#m37715ac79f" y="291.688619"/>
     <use style="stroke:#000000;" x="631.04438" xlink:href="#m37715ac79f" y="56.417793"/>
     <use style="stroke:#000000;" x="637.597989" xlink:href="#m37715ac79f" y="291.688619"/>
     <use style="stroke:#000000;" x="650.705207" xlink:href="#m37715ac79f" y="56.417793"/>
     <use style="stroke:#000000;" x="657.258815" xlink:href="#m37715ac79f" y="291.688619"/>
     <use style="stroke:#000000;" x="663.812424" xlink:href="#m37715ac79f" y="287.524534"/>
    </g>
   </g>
   <g id="line2d_32">
    <path clip-path="url(#pc0c4d43350)" d="M 80.54124 189.954558 
L 87.094848 202.172465 
L 100.202066 208.676401 
L 106.755675 215.497497 
L 113.309284 209.097757 
L 119.862893 200.144757 
L 126.416501 190.405174 
L 132.97011 202.623081 
L 139.523719 193.70244 
L 146.077328 209.127016 
L 152.630937 215.948112 
L 159.184545 209.548372 
L 165.738154 200.595373 
L 178.845372 203.073697 
L 185.398981 194.153056 
L 191.95259 209.577632 
L 198.506198 216.398728 
L 205.059807 209.998988 
L 211.613416 201.045989 
L 218.167025 191.306405 
L 224.720634 203.524312 
L 231.274242 194.603672 
L 237.827851 210.028248 
L 244.38146 216.849344 
L 250.935069 210.449604 
L 257.488678 201.496604 
L 264.042287 191.757021 
L 270.595895 203.974928 
L 277.149504 195.054287 
L 283.703113 210.478864 
L 290.256722 217.29996 
L 296.810331 210.900219 
L 303.363939 201.94722 
L 309.917548 192.207636 
L 316.471157 204.425544 
L 323.024766 195.504903 
L 329.578375 210.929479 
L 336.131983 217.750575 
L 342.685592 211.350835 
L 349.239201 202.397836 
L 355.79281 192.658252 
L 368.900028 195.955519 
L 382.007245 218.201191 
L 388.560854 211.801451 
L 395.114463 202.848452 
L 401.668072 193.108868 
L 414.775289 196.406134 
L 421.328898 211.830711 
L 427.882507 218.651807 
L 434.436116 212.252066 
L 447.543333 193.559484 
L 454.096942 205.777391 
L 460.650551 196.85675 
L 467.20416 212.281326 
L 473.757769 219.102422 
L 486.864986 203.749683 
L 493.418595 194.010099 
L 499.972204 206.228007 
L 506.525813 197.307366 
L 513.079421 212.731942 
L 519.63303 219.553038 
L 526.186639 213.153298 
L 532.740248 204.200299 
L 539.293857 194.460715 
L 545.847466 206.678622 
L 552.401074 197.757981 
L 558.954683 213.182558 
L 565.508292 220.003654 
L 572.061901 213.603914 
L 578.61551 204.650914 
L 585.169118 194.911331 
L 591.722727 207.129238 
L 604.829945 213.633173 
L 611.383554 220.454269 
L 617.937163 214.054529 
L 624.490771 205.10153 
L 631.04438 195.361946 
L 637.597989 207.579854 
L 650.705207 214.083789 
L 657.258815 220.904885 
L 663.812424 214.505145 
L 670.366033 205.552146 
" style="fill:none;stroke:#0072b2;stroke-linecap:square;stroke-width:1.5;"/>
   </g>
   <g id="patch_3">
    <path d="M 51.05 390.04 
L 51.05 14.628265 
" style="fill:none;stroke:#000000;stroke-linecap:square;stroke-linejoin:miter;stroke-width:0.8;"/>
   </g>
   <g id="patch_4">
    <path d="M 699.857273 390.04 
L 699.857273 14.628265 
" style="fill:none;stroke:#000000;stroke-linecap:square;stroke-linejoin:miter;stroke-width:0.8;"/>
   </g>
   <g id="patch_5">
    <path d="M 51.05 390.04 
L 699.857273 390.04 
" style="fill:none;stroke:#000000;stroke-linecap:square;stroke-linejoin:miter;stroke-width:0.8;"/>
   </g>
   <g id="patch_6">
    <path d="M 51.05 14.628265 
L 699.857273 14.628265 
" style="fill:none;stroke:#000000;stroke-linecap:square;stroke-linejoin:miter;stroke-width:0.8;"/>
   </g>
  </g>
 </g>
 <defs>
  <clipPath id="pc0c4d43350">
   <rect height="375.411735" width="648.807273" x="51.05" y="14.628265"/>
  </clipPath>
 </defs>
</svg>
