<?xml version="1.0" encoding="utf-8" standalone="no"?>
<!DOCTYPE svg PUBLIC "-//W3C//DTD SVG 1.1//EN"
  "http://www.w3.org/Graphics/SVG/1.1/DTD/svg11.dtd">
<!-- Created with matplotlib (https://matplotlib.org/) -->
<svg height="432pt" version="1.1" viewBox="0 0 720 432" width="720pt" xmlns="http://www.w3.org/2000/svg" xmlns:xlink="http://www.w3.org/1999/xlink">
 <defs>
  <style type="text/css">
*{stroke-linecap:butt;stroke-linejoin:round;}
  </style>
 </defs>
 <g id="figure_1">
  <g id="patch_1">
   <path d="M 0 432 
L 720 432 
L 720 0 
L 0 0 
z
" style="fill:#ffffff;"/>
  </g>
  <g id="axes_1">
   <g id="patch_2">
    <path d="M 51.05 390.04 
L 699.857273 390.04 
L 699.857273 10.8 
L 51.05 10.8 
z
" style="fill:#ffffff;"/>
   </g>
   <g id="PolyCollection_1">
    <defs>
     <path d="M 80.54124 -392.484726 
L 80.54124 -104.330348 
L 87.094848 -81.160315 
L 100.202066 -77.489984 
L 106.755675 -59.198182 
L 113.309284 -86.458535 
L 119.862893 -81.344592 
L 126.416501 -115.928064 
L 132.97011 -82.070748 
L 139.523719 -87.052701 
L 146.077328 -78.984633 
L 152.630937 -68.403908 
L 159.184545 -76.185196 
L 165.738154 -82.775812 
L 178.845372 -96.010304 
L 185.398981 -104.620643 
L 191.95259 -85.577263 
L 198.506198 -81.201038 
L 205.059807 -79.515508 
L 211.613416 -86.073633 
L 218.167025 -100.930155 
L 224.720634 -86.358664 
L 231.274242 -101.474087 
L 237.827851 -76.465675 
L 244.38146 -73.320262 
L 250.935069 -76.813354 
L 257.488678 -79.076025 
L 264.042287 -105.510498 
L 270.595895 -86.800933 
L 277.149504 -103.241253 
L 283.703113 -77.149086 
L 290.256722 -74.119275 
L 296.810331 -74.534513 
L 303.363939 -84.730835 
L 309.917548 -106.165912 
L 316.471157 -90.103969 
L 323.024766 -86.903545 
L 329.578375 -78.461791 
L 336.131983 -74.935424 
L 342.685592 -86.671785 
L 349.239201 -94.222246 
L 355.79281 -116.642727 
L 368.900028 -84.291612 
L 382.007245 -64.877089 
L 388.560854 -84.381561 
L 395.114463 -83.754911 
L 401.668072 -93.962731 
L 414.775289 -87.026049 
L 421.328898 -68.733968 
L 427.882507 -74.720608 
L 434.436116 -73.678379 
L 447.543333 -108.78718 
L 454.096942 -78.119642 
L 460.650551 -88.805739 
L 467.20416 -79.762107 
L 473.757769 -64.05602 
L 486.864986 -85.379008 
L 493.418595 -94.681771 
L 499.972204 -82.376519 
L 506.525813 -93.509933 
L 513.079421 -74.773701 
L 519.63303 -76.989373 
L 526.186639 -75.987569 
L 532.740248 -81.507194 
L 539.293857 -108.116575 
L 545.847466 -76.364846 
L 552.401074 -98.952274 
L 558.954683 -82.58296 
L 565.508292 -67.269043 
L 572.061901 -79.003827 
L 578.61551 -95.19211 
L 585.169118 -102.795548 
L 591.722727 -77.833748 
L 604.829945 -69.788232 
L 611.383554 -66.17719 
L 617.937163 -84.603464 
L 624.490771 -88.380475 
L 631.04438 -99.167812 
L 637.597989 -84.179349 
L 650.705207 -83.858395 
L 657.258815 -74.267537 
L 663.812424 -77.755955 
L 670.366033 -89.893699 
L 670.366033 -372.328488 
L 670.366033 -372.328488 
L 663.812424 -372.127927 
L 657.258815 -359.120518 
L 650.705207 -369.081803 
L 637.597989 -375.363365 
L 631.04438 -390.671774 
L 624.490771 -372.783478 
L 617.937163 -373.780006 
L 611.383554 -362.364027 
L 604.829945 -370.786622 
L 591.722727 -372.038856 
L 585.169118 -388.52859 
L 578.61551 -373.62072 
L 572.061901 -371.893867 
L 565.508292 -368.920008 
L 558.954683 -373.04915 
L 552.401074 -381.194199 
L 545.847466 -382.360195 
L 539.293857 -386.712357 
L 532.740248 -369.123564 
L 526.186639 -368.124716 
L 519.63303 -369.983851 
L 513.079421 -376.039133 
L 506.525813 -377.077639 
L 499.972204 -368.559522 
L 493.418595 -391.713468 
L 486.864986 -379.497338 
L 473.757769 -355.187893 
L 467.20416 -380.743401 
L 460.650551 -384.891675 
L 454.096942 -372.923419 
L 447.543333 -385.323329 
L 434.436116 -359.870029 
L 427.882507 -363.08163 
L 421.328898 -362.016111 
L 414.775289 -383.754884 
L 401.668072 -388.868481 
L 395.114463 -377.557991 
L 388.560854 -368.493096 
L 382.007245 -350.610417 
L 368.900028 -394.52426 
L 355.79281 -403.961818 
L 349.239201 -373.78109 
L 342.685592 -365.500082 
L 336.131983 -354.059627 
L 329.578375 -372.121153 
L 323.024766 -383.363747 
L 316.471157 -377.286638 
L 309.917548 -387.117213 
L 303.363939 -378.902352 
L 296.810331 -367.892605 
L 290.256722 -361.222821 
L 283.703113 -366.726549 
L 277.149504 -387.634406 
L 270.595895 -381.181395 
L 264.042287 -392.362488 
L 257.488678 -373.238582 
L 250.935069 -365.827266 
L 244.38146 -368.511843 
L 237.827851 -367.936272 
L 231.274242 -388.229013 
L 224.720634 -376.365354 
L 218.167025 -391.817686 
L 211.613416 -361.598181 
L 205.059807 -362.996079 
L 198.506198 -358.324729 
L 191.95259 -372.977096 
L 185.398981 -388.491918 
L 178.845372 -384.63725 
L 165.738154 -375.237954 
L 159.184545 -373.0431 
L 152.630937 -363.844886 
L 146.077328 -379.967804 
L 139.523719 -380.918787 
L 132.97011 -373.474188 
L 126.416501 -393.573158 
L 119.862893 -368.557098 
L 113.309284 -359.047389 
L 106.755675 -363.011386 
L 100.202066 -376.642448 
L 87.094848 -380.579233 
L 80.54124 -392.484726 
z
" id="me4f398682c" style="stroke:#0072b2;stroke-opacity:0.2;"/>
    </defs>
    <g clip-path="url(#p7c672585a9)">
     <use style="fill:#0072b2;fill-opacity:0.2;stroke:#0072b2;stroke-opacity:0.2;" x="0" xlink:href="#me4f398682c" y="432"/>
    </g>
   </g>
   <g id="matplotlib.axis_1">
    <g id="xtick_1">
     <g id="line2d_1">
      <path clip-path="url(#p7c672585a9)" d="M 126.416501 390.04 
L 126.416501 10.8 
" style="fill:none;stroke:#808080;stroke-linecap:square;stroke-opacity:0.2;"/>
     </g>
     <g id="line2d_2">
      <defs>
       <path d="M 0 0 
L 0 3.5 
" id="mddd5587bef" style="stroke:#000000;stroke-width:0.8;"/>
      </defs>
      <g>
       <use style="stroke:#000000;stroke-width:0.8;" x="126.416501" xlink:href="#mddd5587bef" y="390.04"/>
      </g>
     </g>
     <g id="text_1">
      <!-- 2019-01-08 -->
      <defs>
       <path d="M 19.1875 8.296875 
L 53.609375 8.296875 
L 53.609375 0 
L 7.328125 0 
L 7.328125 8.296875 
Q 12.9375 14.109375 22.625 23.890625 
Q 32.328125 33.6875 34.8125 36.53125 
Q 39.546875 41.84375 41.421875 45.53125 
Q 43.3125 49.21875 43.3125 52.78125 
Q 43.3125 58.59375 39.234375 62.25 
Q 35.15625 65.921875 28.609375 65.921875 
Q 23.96875 65.921875 18.8125 64.3125 
Q 13.671875 62.703125 7.8125 59.421875 
L 7.8125 69.390625 
Q 13.765625 71.78125 18.9375 73 
Q 24.125 74.21875 28.421875 74.21875 
Q 39.75 74.21875 46.484375 68.546875 
Q 53.21875 62.890625 53.21875 53.421875 
Q 53.21875 48.921875 51.53125 44.890625 
Q 49.859375 40.875 45.40625 35.40625 
Q 44.1875 33.984375 37.640625 27.21875 
Q 31.109375 20.453125 19.1875 8.296875 
z
" id="DejaVuSans-50"/>
       <path d="M 31.78125 66.40625 
Q 24.171875 66.40625 20.328125 58.90625 
Q 16.5 51.421875 16.5 36.375 
Q 16.5 21.390625 20.328125 13.890625 
Q 24.171875 6.390625 31.78125 6.390625 
Q 39.453125 6.390625 43.28125 13.890625 
Q 47.125 21.390625 47.125 36.375 
Q 47.125 51.421875 43.28125 58.90625 
Q 39.453125 66.40625 31.78125 66.40625 
z
M 31.78125 74.21875 
Q 44.046875 74.21875 50.515625 64.515625 
Q 56.984375 54.828125 56.984375 36.375 
Q 56.984375 17.96875 50.515625 8.265625 
Q 44.046875 -1.421875 31.78125 -1.421875 
Q 19.53125 -1.421875 13.0625 8.265625 
Q 6.59375 17.96875 6.59375 36.375 
Q 6.59375 54.828125 13.0625 64.515625 
Q 19.53125 74.21875 31.78125 74.21875 
z
" id="DejaVuSans-48"/>
       <path d="M 12.40625 8.296875 
L 28.515625 8.296875 
L 28.515625 63.921875 
L 10.984375 60.40625 
L 10.984375 69.390625 
L 28.421875 72.90625 
L 38.28125 72.90625 
L 38.28125 8.296875 
L 54.390625 8.296875 
L 54.390625 0 
L 12.40625 0 
z
" id="DejaVuSans-49"/>
       <path d="M 10.984375 1.515625 
L 10.984375 10.5 
Q 14.703125 8.734375 18.5 7.8125 
Q 22.3125 6.890625 25.984375 6.890625 
Q 35.75 6.890625 40.890625 13.453125 
Q 46.046875 20.015625 46.78125 33.40625 
Q 43.953125 29.203125 39.59375 26.953125 
Q 35.25 24.703125 29.984375 24.703125 
Q 19.046875 24.703125 12.671875 31.3125 
Q 6.296875 37.9375 6.296875 49.421875 
Q 6.296875 60.640625 12.9375 67.421875 
Q 19.578125 74.21875 30.609375 74.21875 
Q 43.265625 74.21875 49.921875 64.515625 
Q 56.59375 54.828125 56.59375 36.375 
Q 56.59375 19.140625 48.40625 8.859375 
Q 40.234375 -1.421875 26.421875 -1.421875 
Q 22.703125 -1.421875 18.890625 -0.6875 
Q 15.09375 0.046875 10.984375 1.515625 
z
M 30.609375 32.421875 
Q 37.25 32.421875 41.125 36.953125 
Q 45.015625 41.5 45.015625 49.421875 
Q 45.015625 57.28125 41.125 61.84375 
Q 37.25 66.40625 30.609375 66.40625 
Q 23.96875 66.40625 20.09375 61.84375 
Q 16.21875 57.28125 16.21875 49.421875 
Q 16.21875 41.5 20.09375 36.953125 
Q 23.96875 32.421875 30.609375 32.421875 
z
" id="DejaVuSans-57"/>
       <path d="M 4.890625 31.390625 
L 31.203125 31.390625 
L 31.203125 23.390625 
L 4.890625 23.390625 
z
" id="DejaVuSans-45"/>
       <path d="M 31.78125 34.625 
Q 24.75 34.625 20.71875 30.859375 
Q 16.703125 27.09375 16.703125 20.515625 
Q 16.703125 13.921875 20.71875 10.15625 
Q 24.75 6.390625 31.78125 6.390625 
Q 38.8125 6.390625 42.859375 10.171875 
Q 46.921875 13.96875 46.921875 20.515625 
Q 46.921875 27.09375 42.890625 30.859375 
Q 38.875 34.625 31.78125 34.625 
z
M 21.921875 38.8125 
Q 15.578125 40.375 12.03125 44.71875 
Q 8.5 49.078125 8.5 55.328125 
Q 8.5 64.0625 14.71875 69.140625 
Q 20.953125 74.21875 31.78125 74.21875 
Q 42.671875 74.21875 48.875 69.140625 
Q 55.078125 64.0625 55.078125 55.328125 
Q 55.078125 49.078125 51.53125 44.71875 
Q 48 40.375 41.703125 38.8125 
Q 48.828125 37.15625 52.796875 32.3125 
Q 56.78125 27.484375 56.78125 20.515625 
Q 56.78125 9.90625 50.3125 4.234375 
Q 43.84375 -1.421875 31.78125 -1.421875 
Q 19.734375 -1.421875 13.25 4.234375 
Q 6.78125 9.90625 6.78125 20.515625 
Q 6.78125 27.484375 10.78125 32.3125 
Q 14.796875 37.15625 21.921875 38.8125 
z
M 18.3125 54.390625 
Q 18.3125 48.734375 21.84375 45.5625 
Q 25.390625 42.390625 31.78125 42.390625 
Q 38.140625 42.390625 41.71875 45.5625 
Q 45.3125 48.734375 45.3125 54.390625 
Q 45.3125 60.0625 41.71875 63.234375 
Q 38.140625 66.40625 31.78125 66.40625 
Q 25.390625 66.40625 21.84375 63.234375 
Q 18.3125 60.0625 18.3125 54.390625 
z
" id="DejaVuSans-56"/>
      </defs>
      <g transform="translate(97.358689 404.638438)scale(0.1 -0.1)">
       <use xlink:href="#DejaVuSans-50"/>
       <use x="63.623047" xlink:href="#DejaVuSans-48"/>
       <use x="127.246094" xlink:href="#DejaVuSans-49"/>
       <use x="190.869141" xlink:href="#DejaVuSans-57"/>
       <use x="254.492188" xlink:href="#DejaVuSans-45"/>
       <use x="290.576172" xlink:href="#DejaVuSans-48"/>
       <use x="354.199219" xlink:href="#DejaVuSans-49"/>
       <use x="417.822266" xlink:href="#DejaVuSans-45"/>
       <use x="453.90625" xlink:href="#DejaVuSans-48"/>
       <use x="517.529297" xlink:href="#DejaVuSans-56"/>
      </g>
     </g>
    </g>
    <g id="xtick_2">
     <g id="line2d_3">
      <path clip-path="url(#p7c672585a9)" d="M 218.167025 390.04 
L 218.167025 10.8 
" style="fill:none;stroke:#808080;stroke-linecap:square;stroke-opacity:0.2;"/>
     </g>
     <g id="line2d_4">
      <g>
       <use style="stroke:#000000;stroke-width:0.8;" x="218.167025" xlink:href="#mddd5587bef" y="390.04"/>
      </g>
     </g>
     <g id="text_2">
      <!-- 2019-01-22 -->
      <g transform="translate(189.109212 404.638438)scale(0.1 -0.1)">
       <use xlink:href="#DejaVuSans-50"/>
       <use x="63.623047" xlink:href="#DejaVuSans-48"/>
       <use x="127.246094" xlink:href="#DejaVuSans-49"/>
       <use x="190.869141" xlink:href="#DejaVuSans-57"/>
       <use x="254.492188" xlink:href="#DejaVuSans-45"/>
       <use x="290.576172" xlink:href="#DejaVuSans-48"/>
       <use x="354.199219" xlink:href="#DejaVuSans-49"/>
       <use x="417.822266" xlink:href="#DejaVuSans-45"/>
       <use x="453.90625" xlink:href="#DejaVuSans-50"/>
       <use x="517.529297" xlink:href="#DejaVuSans-50"/>
      </g>
     </g>
    </g>
    <g id="xtick_3">
     <g id="line2d_5">
      <path clip-path="url(#p7c672585a9)" d="M 309.917548 390.04 
L 309.917548 10.8 
" style="fill:none;stroke:#808080;stroke-linecap:square;stroke-opacity:0.2;"/>
     </g>
     <g id="line2d_6">
      <g>
       <use style="stroke:#000000;stroke-width:0.8;" x="309.917548" xlink:href="#mddd5587bef" y="390.04"/>
      </g>
     </g>
     <g id="text_3">
      <!-- 2019-02-05 -->
      <defs>
       <path d="M 10.796875 72.90625 
L 49.515625 72.90625 
L 49.515625 64.59375 
L 19.828125 64.59375 
L 19.828125 46.734375 
Q 21.96875 47.46875 24.109375 47.828125 
Q 26.265625 48.1875 28.421875 48.1875 
Q 40.625 48.1875 47.75 41.5 
Q 54.890625 34.8125 54.890625 23.390625 
Q 54.890625 11.625 47.5625 5.09375 
Q 40.234375 -1.421875 26.90625 -1.421875 
Q 22.3125 -1.421875 17.546875 -0.640625 
Q 12.796875 0.140625 7.71875 1.703125 
L 7.71875 11.625 
Q 12.109375 9.234375 16.796875 8.0625 
Q 21.484375 6.890625 26.703125 6.890625 
Q 35.15625 6.890625 40.078125 11.328125 
Q 45.015625 15.765625 45.015625 23.390625 
Q 45.015625 31 40.078125 35.4375 
Q 35.15625 39.890625 26.703125 39.890625 
Q 22.75 39.890625 18.8125 39.015625 
Q 14.890625 38.140625 10.796875 36.28125 
z
" id="DejaVuSans-53"/>
      </defs>
      <g transform="translate(280.859736 404.638438)scale(0.1 -0.1)">
       <use xlink:href="#DejaVuSans-50"/>
       <use x="63.623047" xlink:href="#DejaVuSans-48"/>
       <use x="127.246094" xlink:href="#DejaVuSans-49"/>
       <use x="190.869141" xlink:href="#DejaVuSans-57"/>
       <use x="254.492188" xlink:href="#DejaVuSans-45"/>
       <use x="290.576172" xlink:href="#DejaVuSans-48"/>
       <use x="354.199219" xlink:href="#DejaVuSans-50"/>
       <use x="417.822266" xlink:href="#DejaVuSans-45"/>
       <use x="453.90625" xlink:href="#DejaVuSans-48"/>
       <use x="517.529297" xlink:href="#DejaVuSans-53"/>
      </g>
     </g>
    </g>
    <g id="xtick_4">
     <g id="line2d_7">
      <path clip-path="url(#p7c672585a9)" d="M 401.668072 390.04 
L 401.668072 10.8 
" style="fill:none;stroke:#808080;stroke-linecap:square;stroke-opacity:0.2;"/>
     </g>
     <g id="line2d_8">
      <g>
       <use style="stroke:#000000;stroke-width:0.8;" x="401.668072" xlink:href="#mddd5587bef" y="390.04"/>
      </g>
     </g>
     <g id="text_4">
      <!-- 2019-02-19 -->
      <g transform="translate(372.610259 404.638438)scale(0.1 -0.1)">
       <use xlink:href="#DejaVuSans-50"/>
       <use x="63.623047" xlink:href="#DejaVuSans-48"/>
       <use x="127.246094" xlink:href="#DejaVuSans-49"/>
       <use x="190.869141" xlink:href="#DejaVuSans-57"/>
       <use x="254.492188" xlink:href="#DejaVuSans-45"/>
       <use x="290.576172" xlink:href="#DejaVuSans-48"/>
       <use x="354.199219" xlink:href="#DejaVuSans-50"/>
       <use x="417.822266" xlink:href="#DejaVuSans-45"/>
       <use x="453.90625" xlink:href="#DejaVuSans-49"/>
       <use x="517.529297" xlink:href="#DejaVuSans-57"/>
      </g>
     </g>
    </g>
    <g id="xtick_5">
     <g id="line2d_9">
      <path clip-path="url(#p7c672585a9)" d="M 493.418595 390.04 
L 493.418595 10.8 
" style="fill:none;stroke:#808080;stroke-linecap:square;stroke-opacity:0.2;"/>
     </g>
     <g id="line2d_10">
      <g>
       <use style="stroke:#000000;stroke-width:0.8;" x="493.418595" xlink:href="#mddd5587bef" y="390.04"/>
      </g>
     </g>
     <g id="text_5">
      <!-- 2019-03-05 -->
      <defs>
       <path d="M 40.578125 39.3125 
Q 47.65625 37.796875 51.625 33 
Q 55.609375 28.21875 55.609375 21.1875 
Q 55.609375 10.40625 48.1875 4.484375 
Q 40.765625 -1.421875 27.09375 -1.421875 
Q 22.515625 -1.421875 17.65625 -0.515625 
Q 12.796875 0.390625 7.625 2.203125 
L 7.625 11.71875 
Q 11.71875 9.328125 16.59375 8.109375 
Q 21.484375 6.890625 26.8125 6.890625 
Q 36.078125 6.890625 40.9375 10.546875 
Q 45.796875 14.203125 45.796875 21.1875 
Q 45.796875 27.640625 41.28125 31.265625 
Q 36.765625 34.90625 28.71875 34.90625 
L 20.21875 34.90625 
L 20.21875 43.015625 
L 29.109375 43.015625 
Q 36.375 43.015625 40.234375 45.921875 
Q 44.09375 48.828125 44.09375 54.296875 
Q 44.09375 59.90625 40.109375 62.90625 
Q 36.140625 65.921875 28.71875 65.921875 
Q 24.65625 65.921875 20.015625 65.03125 
Q 15.375 64.15625 9.8125 62.3125 
L 9.8125 71.09375 
Q 15.4375 72.65625 20.34375 73.4375 
Q 25.25 74.21875 29.59375 74.21875 
Q 40.828125 74.21875 47.359375 69.109375 
Q 53.90625 64.015625 53.90625 55.328125 
Q 53.90625 49.265625 50.4375 45.09375 
Q 46.96875 40.921875 40.578125 39.3125 
z
" id="DejaVuSans-51"/>
      </defs>
      <g transform="translate(464.360783 404.638438)scale(0.1 -0.1)">
       <use xlink:href="#DejaVuSans-50"/>
       <use x="63.623047" xlink:href="#DejaVuSans-48"/>
       <use x="127.246094" xlink:href="#DejaVuSans-49"/>
       <use x="190.869141" xlink:href="#DejaVuSans-57"/>
       <use x="254.492188" xlink:href="#DejaVuSans-45"/>
       <use x="290.576172" xlink:href="#DejaVuSans-48"/>
       <use x="354.199219" xlink:href="#DejaVuSans-51"/>
       <use x="417.822266" xlink:href="#DejaVuSans-45"/>
       <use x="453.90625" xlink:href="#DejaVuSans-48"/>
       <use x="517.529297" xlink:href="#DejaVuSans-53"/>
      </g>
     </g>
    </g>
    <g id="xtick_6">
     <g id="line2d_11">
      <path clip-path="url(#p7c672585a9)" d="M 585.169118 390.04 
L 585.169118 10.8 
" style="fill:none;stroke:#808080;stroke-linecap:square;stroke-opacity:0.2;"/>
     </g>
     <g id="line2d_12">
      <g>
       <use style="stroke:#000000;stroke-width:0.8;" x="585.169118" xlink:href="#mddd5587bef" y="390.04"/>
      </g>
     </g>
     <g id="text_6">
      <!-- 2019-03-19 -->
      <g transform="translate(556.111306 404.638438)scale(0.1 -0.1)">
       <use xlink:href="#DejaVuSans-50"/>
       <use x="63.623047" xlink:href="#DejaVuSans-48"/>
       <use x="127.246094" xlink:href="#DejaVuSans-49"/>
       <use x="190.869141" xlink:href="#DejaVuSans-57"/>
       <use x="254.492188" xlink:href="#DejaVuSans-45"/>
       <use x="290.576172" xlink:href="#DejaVuSans-48"/>
       <use x="354.199219" xlink:href="#DejaVuSans-51"/>
       <use x="417.822266" xlink:href="#DejaVuSans-45"/>
       <use x="453.90625" xlink:href="#DejaVuSans-49"/>
       <use x="517.529297" xlink:href="#DejaVuSans-57"/>
      </g>
     </g>
    </g>
    <g id="xtick_7">
     <g id="line2d_13">
      <path clip-path="url(#p7c672585a9)" d="M 676.919642 390.04 
L 676.919642 10.8 
" style="fill:none;stroke:#808080;stroke-linecap:square;stroke-opacity:0.2;"/>
     </g>
     <g id="line2d_14">
      <g>
       <use style="stroke:#000000;stroke-width:0.8;" x="676.919642" xlink:href="#mddd5587bef" y="390.04"/>
      </g>
     </g>
     <g id="text_7">
      <!-- 2019-04-02 -->
      <defs>
       <path d="M 37.796875 64.3125 
L 12.890625 25.390625 
L 37.796875 25.390625 
z
M 35.203125 72.90625 
L 47.609375 72.90625 
L 47.609375 25.390625 
L 58.015625 25.390625 
L 58.015625 17.1875 
L 47.609375 17.1875 
L 47.609375 0 
L 37.796875 0 
L 37.796875 17.1875 
L 4.890625 17.1875 
L 4.890625 26.703125 
z
" id="DejaVuSans-52"/>
      </defs>
      <g transform="translate(647.861829 404.638438)scale(0.1 -0.1)">
       <use xlink:href="#DejaVuSans-50"/>
       <use x="63.623047" xlink:href="#DejaVuSans-48"/>
       <use x="127.246094" xlink:href="#DejaVuSans-49"/>
       <use x="190.869141" xlink:href="#DejaVuSans-57"/>
       <use x="254.492188" xlink:href="#DejaVuSans-45"/>
       <use x="290.576172" xlink:href="#DejaVuSans-48"/>
       <use x="354.199219" xlink:href="#DejaVuSans-52"/>
       <use x="417.822266" xlink:href="#DejaVuSans-45"/>
       <use x="453.90625" xlink:href="#DejaVuSans-48"/>
       <use x="517.529297" xlink:href="#DejaVuSans-50"/>
      </g>
     </g>
    </g>
    <g id="text_8">
     <!-- ds -->
     <defs>
      <path d="M 45.40625 46.390625 
L 45.40625 75.984375 
L 54.390625 75.984375 
L 54.390625 0 
L 45.40625 0 
L 45.40625 8.203125 
Q 42.578125 3.328125 38.25 0.953125 
Q 33.9375 -1.421875 27.875 -1.421875 
Q 17.96875 -1.421875 11.734375 6.484375 
Q 5.515625 14.40625 5.515625 27.296875 
Q 5.515625 40.1875 11.734375 48.09375 
Q 17.96875 56 27.875 56 
Q 33.9375 56 38.25 53.625 
Q 42.578125 51.265625 45.40625 46.390625 
z
M 14.796875 27.296875 
Q 14.796875 17.390625 18.875 11.75 
Q 22.953125 6.109375 30.078125 6.109375 
Q 37.203125 6.109375 41.296875 11.75 
Q 45.40625 17.390625 45.40625 27.296875 
Q 45.40625 37.203125 41.296875 42.84375 
Q 37.203125 48.484375 30.078125 48.484375 
Q 22.953125 48.484375 18.875 42.84375 
Q 14.796875 37.203125 14.796875 27.296875 
z
" id="DejaVuSans-100"/>
      <path d="M 44.28125 53.078125 
L 44.28125 44.578125 
Q 40.484375 46.53125 36.375 47.5 
Q 32.28125 48.484375 27.875 48.484375 
Q 21.1875 48.484375 17.84375 46.4375 
Q 14.5 44.390625 14.5 40.28125 
Q 14.5 37.15625 16.890625 35.375 
Q 19.28125 33.59375 26.515625 31.984375 
L 29.59375 31.296875 
Q 39.15625 29.25 43.1875 25.515625 
Q 47.21875 21.78125 47.21875 15.09375 
Q 47.21875 7.46875 41.1875 3.015625 
Q 35.15625 -1.421875 24.609375 -1.421875 
Q 20.21875 -1.421875 15.453125 -0.5625 
Q 10.6875 0.296875 5.421875 2 
L 5.421875 11.28125 
Q 10.40625 8.6875 15.234375 7.390625 
Q 20.0625 6.109375 24.8125 6.109375 
Q 31.15625 6.109375 34.5625 8.28125 
Q 37.984375 10.453125 37.984375 14.40625 
Q 37.984375 18.0625 35.515625 20.015625 
Q 33.0625 21.96875 24.703125 23.78125 
L 21.578125 24.515625 
Q 13.234375 26.265625 9.515625 29.90625 
Q 5.8125 33.546875 5.8125 39.890625 
Q 5.8125 47.609375 11.28125 51.796875 
Q 16.75 56 26.8125 56 
Q 31.78125 56 36.171875 55.265625 
Q 40.578125 54.546875 44.28125 53.078125 
z
" id="DejaVuSans-115"/>
     </defs>
     <g transform="translate(369.67473 418.316562)scale(0.1 -0.1)">
      <use xlink:href="#DejaVuSans-100"/>
      <use x="63.476562" xlink:href="#DejaVuSans-115"/>
     </g>
    </g>
   </g>
   <g id="matplotlib.axis_2">
    <g id="ytick_1">
     <g id="line2d_15">
      <path clip-path="url(#p7c672585a9)" d="M 51.05 374.812039 
L 699.857273 374.812039 
" style="fill:none;stroke:#808080;stroke-linecap:square;stroke-opacity:0.2;"/>
     </g>
     <g id="line2d_16">
      <defs>
       <path d="M 0 0 
L -3.5 0 
" id="m5d808e8d87" style="stroke:#000000;stroke-width:0.8;"/>
      </defs>
      <g>
       <use style="stroke:#000000;stroke-width:0.8;" x="51.05" xlink:href="#m5d808e8d87" y="374.812039"/>
      </g>
     </g>
     <g id="text_9">
      <!-- 100 -->
      <g transform="translate(24.9625 378.611258)scale(0.1 -0.1)">
       <use xlink:href="#DejaVuSans-49"/>
       <use x="63.623047" xlink:href="#DejaVuSans-48"/>
       <use x="127.246094" xlink:href="#DejaVuSans-48"/>
      </g>
     </g>
    </g>
    <g id="ytick_2">
     <g id="line2d_17">
      <path clip-path="url(#p7c672585a9)" d="M 51.05 322.413597 
L 699.857273 322.413597 
" style="fill:none;stroke:#808080;stroke-linecap:square;stroke-opacity:0.2;"/>
     </g>
     <g id="line2d_18">
      <g>
       <use style="stroke:#000000;stroke-width:0.8;" x="51.05" xlink:href="#m5d808e8d87" y="322.413597"/>
      </g>
     </g>
     <g id="text_10">
      <!-- 125 -->
      <g transform="translate(24.9625 326.212815)scale(0.1 -0.1)">
       <use xlink:href="#DejaVuSans-49"/>
       <use x="63.623047" xlink:href="#DejaVuSans-50"/>
       <use x="127.246094" xlink:href="#DejaVuSans-53"/>
      </g>
     </g>
    </g>
    <g id="ytick_3">
     <g id="line2d_19">
      <path clip-path="url(#p7c672585a9)" d="M 51.05 270.015154 
L 699.857273 270.015154 
" style="fill:none;stroke:#808080;stroke-linecap:square;stroke-opacity:0.2;"/>
     </g>
     <g id="line2d_20">
      <g>
       <use style="stroke:#000000;stroke-width:0.8;" x="51.05" xlink:href="#m5d808e8d87" y="270.015154"/>
      </g>
     </g>
     <g id="text_11">
      <!-- 150 -->
      <g transform="translate(24.9625 273.814373)scale(0.1 -0.1)">
       <use xlink:href="#DejaVuSans-49"/>
       <use x="63.623047" xlink:href="#DejaVuSans-53"/>
       <use x="127.246094" xlink:href="#DejaVuSans-48"/>
      </g>
     </g>
    </g>
    <g id="ytick_4">
     <g id="line2d_21">
      <path clip-path="url(#p7c672585a9)" d="M 51.05 217.616712 
L 699.857273 217.616712 
" style="fill:none;stroke:#808080;stroke-linecap:square;stroke-opacity:0.2;"/>
     </g>
     <g id="line2d_22">
      <g>
       <use style="stroke:#000000;stroke-width:0.8;" x="51.05" xlink:href="#m5d808e8d87" y="217.616712"/>
      </g>
     </g>
     <g id="text_12">
      <!-- 175 -->
      <defs>
       <path d="M 8.203125 72.90625 
L 55.078125 72.90625 
L 55.078125 68.703125 
L 28.609375 0 
L 18.3125 0 
L 43.21875 64.59375 
L 8.203125 64.59375 
z
" id="DejaVuSans-55"/>
      </defs>
      <g transform="translate(24.9625 221.415931)scale(0.1 -0.1)">
       <use xlink:href="#DejaVuSans-49"/>
       <use x="63.623047" xlink:href="#DejaVuSans-55"/>
       <use x="127.246094" xlink:href="#DejaVuSans-53"/>
      </g>
     </g>
    </g>
    <g id="ytick_5">
     <g id="line2d_23">
      <path clip-path="url(#p7c672585a9)" d="M 51.05 165.218269 
L 699.857273 165.218269 
" style="fill:none;stroke:#808080;stroke-linecap:square;stroke-opacity:0.2;"/>
     </g>
     <g id="line2d_24">
      <g>
       <use style="stroke:#000000;stroke-width:0.8;" x="51.05" xlink:href="#m5d808e8d87" y="165.218269"/>
      </g>
     </g>
     <g id="text_13">
      <!-- 200 -->
      <g transform="translate(24.9625 169.017488)scale(0.1 -0.1)">
       <use xlink:href="#DejaVuSans-50"/>
       <use x="63.623047" xlink:href="#DejaVuSans-48"/>
       <use x="127.246094" xlink:href="#DejaVuSans-48"/>
      </g>
     </g>
    </g>
    <g id="ytick_6">
     <g id="line2d_25">
      <path clip-path="url(#p7c672585a9)" d="M 51.05 112.819827 
L 699.857273 112.819827 
" style="fill:none;stroke:#808080;stroke-linecap:square;stroke-opacity:0.2;"/>
     </g>
     <g id="line2d_26">
      <g>
       <use style="stroke:#000000;stroke-width:0.8;" x="51.05" xlink:href="#m5d808e8d87" y="112.819827"/>
      </g>
     </g>
     <g id="text_14">
      <!-- 225 -->
      <g transform="translate(24.9625 116.619046)scale(0.1 -0.1)">
       <use xlink:href="#DejaVuSans-50"/>
       <use x="63.623047" xlink:href="#DejaVuSans-50"/>
       <use x="127.246094" xlink:href="#DejaVuSans-53"/>
      </g>
     </g>
    </g>
    <g id="ytick_7">
     <g id="line2d_27">
      <path clip-path="url(#p7c672585a9)" d="M 51.05 60.421385 
L 699.857273 60.421385 
" style="fill:none;stroke:#808080;stroke-linecap:square;stroke-opacity:0.2;"/>
     </g>
     <g id="line2d_28">
      <g>
       <use style="stroke:#000000;stroke-width:0.8;" x="51.05" xlink:href="#m5d808e8d87" y="60.421385"/>
      </g>
     </g>
     <g id="text_15">
      <!-- 250 -->
      <g transform="translate(24.9625 64.220603)scale(0.1 -0.1)">
       <use xlink:href="#DejaVuSans-50"/>
       <use x="63.623047" xlink:href="#DejaVuSans-53"/>
       <use x="127.246094" xlink:href="#DejaVuSans-48"/>
      </g>
     </g>
    </g>
    <g id="text_16">
     <!-- y -->
     <defs>
      <path d="M 32.171875 -5.078125 
Q 28.375 -14.84375 24.75 -17.8125 
Q 21.140625 -20.796875 15.09375 -20.796875 
L 7.90625 -20.796875 
L 7.90625 -13.28125 
L 13.1875 -13.28125 
Q 16.890625 -13.28125 18.9375 -11.515625 
Q 21 -9.765625 23.484375 -3.21875 
L 25.09375 0.875 
L 2.984375 54.6875 
L 12.5 54.6875 
L 29.59375 11.921875 
L 46.6875 54.6875 
L 56.203125 54.6875 
z
" id="DejaVuSans-121"/>
     </defs>
     <g transform="translate(18.882812 203.379375)rotate(-90)scale(0.1 -0.1)">
      <use xlink:href="#DejaVuSans-121"/>
     </g>
    </g>
   </g>
   <g id="line2d_29">
    <defs>
     <path d="M 0 1.5 
C 0.397805 1.5 0.77937 1.341951 1.06066 1.06066 
C 1.341951 0.77937 1.5 0.397805 1.5 0 
C 1.5 -0.397805 1.341951 -0.77937 1.06066 -1.06066 
C 0.77937 -1.341951 0.397805 -1.5 0 -1.5 
C -0.397805 -1.5 -0.77937 -1.341951 -1.06066 -1.06066 
C -1.341951 -0.77937 -1.5 -0.397805 -1.5 0 
C -1.5 0.397805 -1.341951 0.77937 -1.06066 1.06066 
C -0.77937 1.341951 -0.397805 1.5 0 1.5 
z
" id="m2443819ba2" style="stroke:#000000;"/>
    </defs>
    <g clip-path="url(#p7c672585a9)">
     <use style="stroke:#000000;" x="80.54124" xlink:href="#m2443819ba2" y="49.941696"/>
     <use style="stroke:#000000;" x="87.094848" xlink:href="#m2443819ba2" y="295.166407"/>
     <use style="stroke:#000000;" x="100.202066" xlink:href="#m2443819ba2" y="49.941696"/>
     <use style="stroke:#000000;" x="106.755675" xlink:href="#m2443819ba2" y="286.782656"/>
     <use style="stroke:#000000;" x="113.309284" xlink:href="#m2443819ba2" y="286.782656"/>
     <use style="stroke:#000000;" x="119.862893" xlink:href="#m2443819ba2" y="49.941696"/>
     <use style="stroke:#000000;" x="126.416501" xlink:href="#m2443819ba2" y="290.974531"/>
     <use style="stroke:#000000;" x="132.97011" xlink:href="#m2443819ba2" y="290.974531"/>
     <use style="stroke:#000000;" x="139.523719" xlink:href="#m2443819ba2" y="49.941696"/>
     <use style="stroke:#000000;" x="146.077328" xlink:href="#m2443819ba2" y="284.686718"/>
     <use style="stroke:#000000;" x="152.630937" xlink:href="#m2443819ba2" y="286.782656"/>
     <use style="stroke:#000000;" x="159.184545" xlink:href="#m2443819ba2" y="49.941696"/>
     <use style="stroke:#000000;" x="165.738154" xlink:href="#m2443819ba2" y="286.782656"/>
     <use style="stroke:#000000;" x="178.845372" xlink:href="#m2443819ba2" y="49.941696"/>
     <use style="stroke:#000000;" x="185.398981" xlink:href="#m2443819ba2" y="290.974531"/>
     <use style="stroke:#000000;" x="191.95259" xlink:href="#m2443819ba2" y="278.398905"/>
     <use style="stroke:#000000;" x="198.506198" xlink:href="#m2443819ba2" y="49.941696"/>
     <use style="stroke:#000000;" x="205.059807" xlink:href="#m2443819ba2" y="286.782656"/>
     <use style="stroke:#000000;" x="211.613416" xlink:href="#m2443819ba2" y="295.166407"/>
     <use style="stroke:#000000;" x="218.167025" xlink:href="#m2443819ba2" y="49.941696"/>
     <use style="stroke:#000000;" x="224.720634" xlink:href="#m2443819ba2" y="290.974531"/>
     <use style="stroke:#000000;" x="231.274242" xlink:href="#m2443819ba2" y="278.398905"/>
     <use style="stroke:#000000;" x="237.827851" xlink:href="#m2443819ba2" y="49.941696"/>
     <use style="stroke:#000000;" x="244.38146" xlink:href="#m2443819ba2" y="286.782656"/>
     <use style="stroke:#000000;" x="250.935069" xlink:href="#m2443819ba2" y="286.782656"/>
     <use style="stroke:#000000;" x="257.488678" xlink:href="#m2443819ba2" y="49.941696"/>
     <use style="stroke:#000000;" x="264.042287" xlink:href="#m2443819ba2" y="278.398905"/>
     <use style="stroke:#000000;" x="270.595895" xlink:href="#m2443819ba2" y="286.782656"/>
     <use style="stroke:#000000;" x="277.149504" xlink:href="#m2443819ba2" y="49.941696"/>
     <use style="stroke:#000000;" x="283.703113" xlink:href="#m2443819ba2" y="286.782656"/>
     <use style="stroke:#000000;" x="290.256722" xlink:href="#m2443819ba2" y="282.590781"/>
     <use style="stroke:#000000;" x="296.810331" xlink:href="#m2443819ba2" y="49.941696"/>
     <use style="stroke:#000000;" x="303.363939" xlink:href="#m2443819ba2" y="299.358282"/>
     <use style="stroke:#000000;" x="309.917548" xlink:href="#m2443819ba2" y="284.686718"/>
     <use style="stroke:#000000;" x="316.471157" xlink:href="#m2443819ba2" y="49.941696"/>
     <use style="stroke:#000000;" x="323.024766" xlink:href="#m2443819ba2" y="295.166407"/>
     <use style="stroke:#000000;" x="329.578375" xlink:href="#m2443819ba2" y="288.878594"/>
     <use style="stroke:#000000;" x="336.131983" xlink:href="#m2443819ba2" y="49.941696"/>
     <use style="stroke:#000000;" x="342.685592" xlink:href="#m2443819ba2" y="282.590781"/>
     <use style="stroke:#000000;" x="349.239201" xlink:href="#m2443819ba2" y="290.974531"/>
     <use style="stroke:#000000;" x="355.79281" xlink:href="#m2443819ba2" y="49.941696"/>
     <use style="stroke:#000000;" x="368.900028" xlink:href="#m2443819ba2" y="284.686718"/>
     <use style="stroke:#000000;" x="382.007245" xlink:href="#m2443819ba2" y="286.782656"/>
     <use style="stroke:#000000;" x="388.560854" xlink:href="#m2443819ba2" y="284.686718"/>
     <use style="stroke:#000000;" x="395.114463" xlink:href="#m2443819ba2" y="49.941696"/>
     <use style="stroke:#000000;" x="401.668072" xlink:href="#m2443819ba2" y="286.782656"/>
     <use style="stroke:#000000;" x="414.775289" xlink:href="#m2443819ba2" y="49.941696"/>
     <use style="stroke:#000000;" x="421.328898" xlink:href="#m2443819ba2" y="282.590781"/>
     <use style="stroke:#000000;" x="427.882507" xlink:href="#m2443819ba2" y="293.070469"/>
     <use style="stroke:#000000;" x="434.436116" xlink:href="#m2443819ba2" y="49.941696"/>
     <use style="stroke:#000000;" x="447.543333" xlink:href="#m2443819ba2" y="282.590781"/>
     <use style="stroke:#000000;" x="454.096942" xlink:href="#m2443819ba2" y="49.941696"/>
     <use style="stroke:#000000;" x="460.650551" xlink:href="#m2443819ba2" y="286.782656"/>
     <use style="stroke:#000000;" x="467.20416" xlink:href="#m2443819ba2" y="295.166407"/>
     <use style="stroke:#000000;" x="473.757769" xlink:href="#m2443819ba2" y="49.941696"/>
     <use style="stroke:#000000;" x="486.864986" xlink:href="#m2443819ba2" y="274.20703"/>
     <use style="stroke:#000000;" x="493.418595" xlink:href="#m2443819ba2" y="49.941696"/>
     <use style="stroke:#000000;" x="499.972204" xlink:href="#m2443819ba2" y="278.398905"/>
     <use style="stroke:#000000;" x="506.525813" xlink:href="#m2443819ba2" y="282.590781"/>
     <use style="stroke:#000000;" x="513.079421" xlink:href="#m2443819ba2" y="49.941696"/>
     <use style="stroke:#000000;" x="519.63303" xlink:href="#m2443819ba2" y="288.878594"/>
     <use style="stroke:#000000;" x="526.186639" xlink:href="#m2443819ba2" y="293.070469"/>
     <use style="stroke:#000000;" x="532.740248" xlink:href="#m2443819ba2" y="49.941696"/>
     <use style="stroke:#000000;" x="539.293857" xlink:href="#m2443819ba2" y="282.590781"/>
     <use style="stroke:#000000;" x="545.847466" xlink:href="#m2443819ba2" y="286.782656"/>
     <use style="stroke:#000000;" x="552.401074" xlink:href="#m2443819ba2" y="49.941696"/>
     <use style="stroke:#000000;" x="558.954683" xlink:href="#m2443819ba2" y="288.878594"/>
     <use style="stroke:#000000;" x="565.508292" xlink:href="#m2443819ba2" y="282.590781"/>
     <use style="stroke:#000000;" x="572.061901" xlink:href="#m2443819ba2" y="49.941696"/>
     <use style="stroke:#000000;" x="578.61551" xlink:href="#m2443819ba2" y="286.782656"/>
     <use style="stroke:#000000;" x="585.169118" xlink:href="#m2443819ba2" y="282.590781"/>
     <use style="stroke:#000000;" x="591.722727" xlink:href="#m2443819ba2" y="49.941696"/>
     <use style="stroke:#000000;" x="604.829945" xlink:href="#m2443819ba2" y="290.974531"/>
     <use style="stroke:#000000;" x="611.383554" xlink:href="#m2443819ba2" y="49.941696"/>
     <use style="stroke:#000000;" x="617.937163" xlink:href="#m2443819ba2" y="286.782656"/>
     <use style="stroke:#000000;" x="624.490771" xlink:href="#m2443819ba2" y="284.686718"/>
     <use style="stroke:#000000;" x="631.04438" xlink:href="#m2443819ba2" y="49.941696"/>
     <use style="stroke:#000000;" x="637.597989" xlink:href="#m2443819ba2" y="278.398905"/>
     <use style="stroke:#000000;" x="650.705207" xlink:href="#m2443819ba2" y="49.941696"/>
     <use style="stroke:#000000;" x="657.258815" xlink:href="#m2443819ba2" y="295.166407"/>
     <use style="stroke:#000000;" x="663.812424" xlink:href="#m2443819ba2" y="290.974531"/>
    </g>
   </g>
   <g id="line2d_30">
    <path clip-path="url(#p7c672585a9)" d="M 80.54124 184.897489 
L 87.094848 199.106775 
L 100.202066 206.423948 
L 106.755675 212.973069 
L 113.309284 206.601963 
L 119.862893 200.228284 
L 126.416501 185.142531 
L 132.97011 199.351817 
L 139.523719 190.790717 
L 146.077328 206.66899 
L 152.630937 213.218111 
L 159.184545 206.847005 
L 165.738154 200.473326 
L 178.845372 199.596858 
L 185.398981 191.035758 
L 191.95259 206.914031 
L 198.506198 213.463152 
L 205.059807 207.092046 
L 211.613416 200.718367 
L 218.167025 185.632614 
L 224.720634 199.841899 
L 231.274242 191.2808 
L 237.827851 207.159073 
L 244.38146 213.708194 
L 250.935069 207.337087 
L 257.488678 200.963408 
L 264.042287 185.877655 
L 270.595895 200.086941 
L 277.149504 191.525841 
L 283.703113 207.404114 
L 290.256722 213.953235 
L 296.810331 207.582129 
L 303.363939 201.20845 
L 309.917548 186.122696 
L 316.471157 200.331982 
L 323.024766 191.770883 
L 329.578375 207.649155 
L 336.131983 214.198277 
L 342.685592 207.82717 
L 349.239201 201.453491 
L 355.79281 186.367738 
L 368.900028 192.015924 
L 382.007245 214.443318 
L 388.560854 208.072212 
L 395.114463 201.698533 
L 401.668072 186.612779 
L 414.775289 192.260965 
L 421.328898 208.139238 
L 427.882507 214.688359 
L 434.436116 208.317253 
L 447.543333 186.857821 
L 454.096942 201.067106 
L 460.650551 192.506007 
L 467.20416 208.38428 
L 473.757769 214.933401 
L 486.864986 202.188615 
L 493.418595 187.102862 
L 499.972204 201.312148 
L 506.525813 192.751048 
L 513.079421 208.629321 
L 519.63303 215.178442 
L 526.186639 208.807336 
L 532.740248 202.433657 
L 539.293857 187.347903 
L 545.847466 201.557189 
L 552.401074 192.99609 
L 558.954683 208.874362 
L 565.508292 215.423484 
L 572.061901 209.052377 
L 578.61551 202.678698 
L 585.169118 187.592945 
L 591.722727 201.802231 
L 604.829945 209.119404 
L 611.383554 215.668525 
L 617.937163 209.297419 
L 624.490771 202.92374 
L 631.04438 187.837986 
L 637.597989 202.047272 
L 650.705207 209.364445 
L 657.258815 215.913567 
L 663.812424 209.54246 
L 670.366033 203.168781 
" style="fill:none;stroke:#0072b2;stroke-linecap:square;stroke-width:1.5;"/>
   </g>
   <g id="patch_3">
    <path d="M 51.05 390.04 
L 51.05 10.8 
" style="fill:none;stroke:#000000;stroke-linecap:square;stroke-linejoin:miter;stroke-width:0.8;"/>
   </g>
   <g id="patch_4">
    <path d="M 699.857273 390.04 
L 699.857273 10.8 
" style="fill:none;stroke:#000000;stroke-linecap:square;stroke-linejoin:miter;stroke-width:0.8;"/>
   </g>
   <g id="patch_5">
    <path d="M 51.05 390.04 
L 699.857273 390.04 
" style="fill:none;stroke:#000000;stroke-linecap:square;stroke-linejoin:miter;stroke-width:0.8;"/>
   </g>
   <g id="patch_6">
    <path d="M 51.05 10.8 
L 699.857273 10.8 
" style="fill:none;stroke:#000000;stroke-linecap:square;stroke-linejoin:miter;stroke-width:0.8;"/>
   </g>
  </g>
 </g>
 <defs>
  <clipPath id="p7c672585a9">
   <rect height="379.24" width="648.807273" x="51.05" y="10.8"/>
  </clipPath>
 </defs>
</svg>
