<?xml version="1.0" encoding="utf-8" standalone="no"?>
<!DOCTYPE svg PUBLIC "-//W3C//DTD SVG 1.1//EN"
  "http://www.w3.org/Graphics/SVG/1.1/DTD/svg11.dtd">
<!-- Created with matplotlib (https://matplotlib.org/) -->
<svg height="432pt" version="1.1" viewBox="0 0 720 432" width="720pt" xmlns="http://www.w3.org/2000/svg" xmlns:xlink="http://www.w3.org/1999/xlink">
 <defs>
  <style type="text/css">
*{stroke-linecap:butt;stroke-linejoin:round;}
  </style>
 </defs>
 <g id="figure_1">
  <g id="patch_1">
   <path d="M 0 432 
L 720 432 
L 720 0 
L 0 0 
z
" style="fill:#ffffff;"/>
  </g>
  <g id="axes_1">
   <g id="patch_2">
    <path d="M 51.05 390.04 
L 699.857273 390.04 
L 699.857273 10.8 
L 51.05 10.8 
z
" style="fill:#ffffff;"/>
   </g>
   <g id="PolyCollection_1">
    <defs>
     <path d="M 80.54124 -398.778559 
L 80.54124 -104.248313 
L 87.094848 -97.88472 
L 100.202066 -87.233332 
L 106.755675 -72.44327 
L 113.309284 -88.398511 
L 119.862893 -93.898665 
L 126.416501 -104.607913 
L 132.97011 -96.25112 
L 139.523719 -100.482761 
L 146.077328 -85.446368 
L 152.630937 -82.48936 
L 159.184545 -83.533129 
L 165.738154 -86.59708 
L 178.845372 -94.075416 
L 185.398981 -98.217705 
L 191.95259 -76.644688 
L 198.506198 -81.345679 
L 205.059807 -86.397498 
L 211.613416 -90.13572 
L 218.167025 -110.343834 
L 224.720634 -80.251831 
L 231.274242 -110.828406 
L 237.827851 -88.251035 
L 244.38146 -73.29821 
L 250.935069 -91.271105 
L 257.488678 -83.80989 
L 264.042287 -103.209253 
L 270.595895 -112.047768 
L 277.149504 -87.235458 
L 283.703113 -81.246091 
L 290.256722 -77.083549 
L 296.810331 -86.025876 
L 303.363939 -85.627275 
L 309.917548 -104.380144 
L 316.471157 -85.431972 
L 323.024766 -97.006733 
L 329.578375 -80.473926 
L 336.131983 -78.457436 
L 342.685592 -80.257416 
L 349.239201 -102.557701 
L 355.79281 -101.621683 
L 368.900028 -81.512374 
L 382.007245 -63.067428 
L 388.560854 -72.276199 
L 395.114463 -89.658176 
L 401.668072 -109.603786 
L 414.775289 -102.888294 
L 421.328898 -83.63632 
L 427.882507 -85.277318 
L 434.436116 -82.818599 
L 447.543333 -105.531133 
L 454.096942 -101.212682 
L 460.650551 -91.168855 
L 467.20416 -74.181984 
L 473.757769 -80.551706 
L 486.864986 -88.103832 
L 493.418595 -99.382988 
L 499.972204 -98.865651 
L 506.525813 -89.855803 
L 513.079421 -77.050325 
L 519.63303 -71.878213 
L 526.186639 -79.12375 
L 532.740248 -80.972144 
L 539.293857 -108.416581 
L 545.847466 -93.324437 
L 552.401074 -90.046383 
L 558.954683 -78.320297 
L 565.508292 -77.297515 
L 572.061901 -80.985556 
L 578.61551 -88.011308 
L 585.169118 -100.458356 
L 591.722727 -96.646259 
L 604.829945 -84.283588 
L 611.383554 -59.198182 
L 617.937163 -85.847248 
L 624.490771 -80.519943 
L 631.04438 -96.3684 
L 637.597989 -95.413279 
L 650.705207 -88.426001 
L 657.258815 -77.765627 
L 663.812424 -82.062375 
L 670.366033 -90.338109 
L 670.366033 -376.598028 
L 670.366033 -376.598028 
L 663.812424 -386.910966 
L 657.258815 -364.767258 
L 650.705207 -376.214434 
L 637.597989 -394.869183 
L 631.04438 -387.006159 
L 624.490771 -369.61331 
L 617.937163 -370.351734 
L 611.383554 -362.238627 
L 604.829945 -365.181249 
L 591.722727 -375.076393 
L 585.169118 -384.17166 
L 578.61551 -380.374102 
L 572.061901 -377.394803 
L 565.508292 -373.82212 
L 558.954683 -380.711938 
L 552.401074 -394.423172 
L 545.847466 -389.349222 
L 539.293857 -386.896557 
L 532.740248 -382.267609 
L 526.186639 -379.858055 
L 519.63303 -381.806891 
L 513.079421 -374.9825 
L 506.525813 -393.999441 
L 499.972204 -392.915755 
L 493.418595 -394.607015 
L 486.864986 -390.908217 
L 473.757769 -373.096635 
L 467.20416 -381.9104 
L 460.650551 -402.221667 
L 454.096942 -386.160552 
L 447.543333 -388.648301 
L 434.436116 -376.838787 
L 427.882507 -373.81897 
L 421.328898 -368.40299 
L 414.775289 -393.764838 
L 401.668072 -395.584998 
L 395.114463 -391.203306 
L 388.560854 -383.350203 
L 382.007245 -356.717501 
L 368.900028 -390.51235 
L 355.79281 -395.933458 
L 349.239201 -388.747865 
L 342.685592 -387.666588 
L 336.131983 -370.556206 
L 329.578375 -379.88551 
L 323.024766 -382.341961 
L 316.471157 -395.048261 
L 309.917548 -395.029095 
L 303.363939 -380.571935 
L 296.810331 -386.987361 
L 290.256722 -368.368056 
L 283.703113 -380.683773 
L 277.149504 -386.875466 
L 270.595895 -389.717936 
L 264.042287 -394.65637 
L 257.488678 -386.994022 
L 250.935069 -388.048716 
L 244.38146 -363.963343 
L 237.827851 -382.686453 
L 231.274242 -403.961818 
L 224.720634 -388.17303 
L 218.167025 -389.767202 
L 211.613416 -396.761516 
L 205.059807 -379.263339 
L 198.506198 -374.40983 
L 191.95259 -376.096139 
L 185.398981 -385.611108 
L 178.845372 -386.663328 
L 165.738154 -393.106897 
L 159.184545 -376.430709 
L 152.630937 -370.024647 
L 146.077328 -375.844349 
L 139.523719 -390.387874 
L 132.97011 -388.50519 
L 126.416501 -391.43819 
L 119.862893 -392.143205 
L 113.309284 -385.676855 
L 106.755675 -377.640204 
L 100.202066 -367.473153 
L 87.094848 -396.94615 
L 80.54124 -398.778559 
z
" id="m31cd0db1fd" style="stroke:#0072b2;stroke-opacity:0.2;"/>
    </defs>
    <g clip-path="url(#pccce54a979)">
     <use style="fill:#0072b2;fill-opacity:0.2;stroke:#0072b2;stroke-opacity:0.2;" x="0" xlink:href="#m31cd0db1fd" y="432"/>
    </g>
   </g>
   <g id="matplotlib.axis_1">
    <g id="xtick_1">
     <g id="line2d_1">
      <path clip-path="url(#pccce54a979)" d="M 126.416501 390.04 
L 126.416501 10.8 
" style="fill:none;stroke:#808080;stroke-linecap:square;stroke-opacity:0.2;"/>
     </g>
     <g id="line2d_2">
      <defs>
       <path d="M 0 0 
L 0 3.5 
" id="mb11abd28de" style="stroke:#000000;stroke-width:0.8;"/>
      </defs>
      <g>
       <use style="stroke:#000000;stroke-width:0.8;" x="126.416501" xlink:href="#mb11abd28de" y="390.04"/>
      </g>
     </g>
     <g id="text_1">
      <!-- 2019-01-08 -->
      <defs>
       <path d="M 19.1875 8.296875 
L 53.609375 8.296875 
L 53.609375 0 
L 7.328125 0 
L 7.328125 8.296875 
Q 12.9375 14.109375 22.625 23.890625 
Q 32.328125 33.6875 34.8125 36.53125 
Q 39.546875 41.84375 41.421875 45.53125 
Q 43.3125 49.21875 43.3125 52.78125 
Q 43.3125 58.59375 39.234375 62.25 
Q 35.15625 65.921875 28.609375 65.921875 
Q 23.96875 65.921875 18.8125 64.3125 
Q 13.671875 62.703125 7.8125 59.421875 
L 7.8125 69.390625 
Q 13.765625 71.78125 18.9375 73 
Q 24.125 74.21875 28.421875 74.21875 
Q 39.75 74.21875 46.484375 68.546875 
Q 53.21875 62.890625 53.21875 53.421875 
Q 53.21875 48.921875 51.53125 44.890625 
Q 49.859375 40.875 45.40625 35.40625 
Q 44.1875 33.984375 37.640625 27.21875 
Q 31.109375 20.453125 19.1875 8.296875 
z
" id="DejaVuSans-50"/>
       <path d="M 31.78125 66.40625 
Q 24.171875 66.40625 20.328125 58.90625 
Q 16.5 51.421875 16.5 36.375 
Q 16.5 21.390625 20.328125 13.890625 
Q 24.171875 6.390625 31.78125 6.390625 
Q 39.453125 6.390625 43.28125 13.890625 
Q 47.125 21.390625 47.125 36.375 
Q 47.125 51.421875 43.28125 58.90625 
Q 39.453125 66.40625 31.78125 66.40625 
z
M 31.78125 74.21875 
Q 44.046875 74.21875 50.515625 64.515625 
Q 56.984375 54.828125 56.984375 36.375 
Q 56.984375 17.96875 50.515625 8.265625 
Q 44.046875 -1.421875 31.78125 -1.421875 
Q 19.53125 -1.421875 13.0625 8.265625 
Q 6.59375 17.96875 6.59375 36.375 
Q 6.59375 54.828125 13.0625 64.515625 
Q 19.53125 74.21875 31.78125 74.21875 
z
" id="DejaVuSans-48"/>
       <path d="M 12.40625 8.296875 
L 28.515625 8.296875 
L 28.515625 63.921875 
L 10.984375 60.40625 
L 10.984375 69.390625 
L 28.421875 72.90625 
L 38.28125 72.90625 
L 38.28125 8.296875 
L 54.390625 8.296875 
L 54.390625 0 
L 12.40625 0 
z
" id="DejaVuSans-49"/>
       <path d="M 10.984375 1.515625 
L 10.984375 10.5 
Q 14.703125 8.734375 18.5 7.8125 
Q 22.3125 6.890625 25.984375 6.890625 
Q 35.75 6.890625 40.890625 13.453125 
Q 46.046875 20.015625 46.78125 33.40625 
Q 43.953125 29.203125 39.59375 26.953125 
Q 35.25 24.703125 29.984375 24.703125 
Q 19.046875 24.703125 12.671875 31.3125 
Q 6.296875 37.9375 6.296875 49.421875 
Q 6.296875 60.640625 12.9375 67.421875 
Q 19.578125 74.21875 30.609375 74.21875 
Q 43.265625 74.21875 49.921875 64.515625 
Q 56.59375 54.828125 56.59375 36.375 
Q 56.59375 19.140625 48.40625 8.859375 
Q 40.234375 -1.421875 26.421875 -1.421875 
Q 22.703125 -1.421875 18.890625 -0.6875 
Q 15.09375 0.046875 10.984375 1.515625 
z
M 30.609375 32.421875 
Q 37.25 32.421875 41.125 36.953125 
Q 45.015625 41.5 45.015625 49.421875 
Q 45.015625 57.28125 41.125 61.84375 
Q 37.25 66.40625 30.609375 66.40625 
Q 23.96875 66.40625 20.09375 61.84375 
Q 16.21875 57.28125 16.21875 49.421875 
Q 16.21875 41.5 20.09375 36.953125 
Q 23.96875 32.421875 30.609375 32.421875 
z
" id="DejaVuSans-57"/>
       <path d="M 4.890625 31.390625 
L 31.203125 31.390625 
L 31.203125 23.390625 
L 4.890625 23.390625 
z
" id="DejaVuSans-45"/>
       <path d="M 31.78125 34.625 
Q 24.75 34.625 20.71875 30.859375 
Q 16.703125 27.09375 16.703125 20.515625 
Q 16.703125 13.921875 20.71875 10.15625 
Q 24.75 6.390625 31.78125 6.390625 
Q 38.8125 6.390625 42.859375 10.171875 
Q 46.921875 13.96875 46.921875 20.515625 
Q 46.921875 27.09375 42.890625 30.859375 
Q 38.875 34.625 31.78125 34.625 
z
M 21.921875 38.8125 
Q 15.578125 40.375 12.03125 44.71875 
Q 8.5 49.078125 8.5 55.328125 
Q 8.5 64.0625 14.71875 69.140625 
Q 20.953125 74.21875 31.78125 74.21875 
Q 42.671875 74.21875 48.875 69.140625 
Q 55.078125 64.0625 55.078125 55.328125 
Q 55.078125 49.078125 51.53125 44.71875 
Q 48 40.375 41.703125 38.8125 
Q 48.828125 37.15625 52.796875 32.3125 
Q 56.78125 27.484375 56.78125 20.515625 
Q 56.78125 9.90625 50.3125 4.234375 
Q 43.84375 -1.421875 31.78125 -1.421875 
Q 19.734375 -1.421875 13.25 4.234375 
Q 6.78125 9.90625 6.78125 20.515625 
Q 6.78125 27.484375 10.78125 32.3125 
Q 14.796875 37.15625 21.921875 38.8125 
z
M 18.3125 54.390625 
Q 18.3125 48.734375 21.84375 45.5625 
Q 25.390625 42.390625 31.78125 42.390625 
Q 38.140625 42.390625 41.71875 45.5625 
Q 45.3125 48.734375 45.3125 54.390625 
Q 45.3125 60.0625 41.71875 63.234375 
Q 38.140625 66.40625 31.78125 66.40625 
Q 25.390625 66.40625 21.84375 63.234375 
Q 18.3125 60.0625 18.3125 54.390625 
z
" id="DejaVuSans-56"/>
      </defs>
      <g transform="translate(97.358689 404.638438)scale(0.1 -0.1)">
       <use xlink:href="#DejaVuSans-50"/>
       <use x="63.623047" xlink:href="#DejaVuSans-48"/>
       <use x="127.246094" xlink:href="#DejaVuSans-49"/>
       <use x="190.869141" xlink:href="#DejaVuSans-57"/>
       <use x="254.492188" xlink:href="#DejaVuSans-45"/>
       <use x="290.576172" xlink:href="#DejaVuSans-48"/>
       <use x="354.199219" xlink:href="#DejaVuSans-49"/>
       <use x="417.822266" xlink:href="#DejaVuSans-45"/>
       <use x="453.90625" xlink:href="#DejaVuSans-48"/>
       <use x="517.529297" xlink:href="#DejaVuSans-56"/>
      </g>
     </g>
    </g>
    <g id="xtick_2">
     <g id="line2d_3">
      <path clip-path="url(#pccce54a979)" d="M 218.167025 390.04 
L 218.167025 10.8 
" style="fill:none;stroke:#808080;stroke-linecap:square;stroke-opacity:0.2;"/>
     </g>
     <g id="line2d_4">
      <g>
       <use style="stroke:#000000;stroke-width:0.8;" x="218.167025" xlink:href="#mb11abd28de" y="390.04"/>
      </g>
     </g>
     <g id="text_2">
      <!-- 2019-01-22 -->
      <g transform="translate(189.109212 404.638438)scale(0.1 -0.1)">
       <use xlink:href="#DejaVuSans-50"/>
       <use x="63.623047" xlink:href="#DejaVuSans-48"/>
       <use x="127.246094" xlink:href="#DejaVuSans-49"/>
       <use x="190.869141" xlink:href="#DejaVuSans-57"/>
       <use x="254.492188" xlink:href="#DejaVuSans-45"/>
       <use x="290.576172" xlink:href="#DejaVuSans-48"/>
       <use x="354.199219" xlink:href="#DejaVuSans-49"/>
       <use x="417.822266" xlink:href="#DejaVuSans-45"/>
       <use x="453.90625" xlink:href="#DejaVuSans-50"/>
       <use x="517.529297" xlink:href="#DejaVuSans-50"/>
      </g>
     </g>
    </g>
    <g id="xtick_3">
     <g id="line2d_5">
      <path clip-path="url(#pccce54a979)" d="M 309.917548 390.04 
L 309.917548 10.8 
" style="fill:none;stroke:#808080;stroke-linecap:square;stroke-opacity:0.2;"/>
     </g>
     <g id="line2d_6">
      <g>
       <use style="stroke:#000000;stroke-width:0.8;" x="309.917548" xlink:href="#mb11abd28de" y="390.04"/>
      </g>
     </g>
     <g id="text_3">
      <!-- 2019-02-05 -->
      <defs>
       <path d="M 10.796875 72.90625 
L 49.515625 72.90625 
L 49.515625 64.59375 
L 19.828125 64.59375 
L 19.828125 46.734375 
Q 21.96875 47.46875 24.109375 47.828125 
Q 26.265625 48.1875 28.421875 48.1875 
Q 40.625 48.1875 47.75 41.5 
Q 54.890625 34.8125 54.890625 23.390625 
Q 54.890625 11.625 47.5625 5.09375 
Q 40.234375 -1.421875 26.90625 -1.421875 
Q 22.3125 -1.421875 17.546875 -0.640625 
Q 12.796875 0.140625 7.71875 1.703125 
L 7.71875 11.625 
Q 12.109375 9.234375 16.796875 8.0625 
Q 21.484375 6.890625 26.703125 6.890625 
Q 35.15625 6.890625 40.078125 11.328125 
Q 45.015625 15.765625 45.015625 23.390625 
Q 45.015625 31 40.078125 35.4375 
Q 35.15625 39.890625 26.703125 39.890625 
Q 22.75 39.890625 18.8125 39.015625 
Q 14.890625 38.140625 10.796875 36.28125 
z
" id="DejaVuSans-53"/>
      </defs>
      <g transform="translate(280.859736 404.638438)scale(0.1 -0.1)">
       <use xlink:href="#DejaVuSans-50"/>
       <use x="63.623047" xlink:href="#DejaVuSans-48"/>
       <use x="127.246094" xlink:href="#DejaVuSans-49"/>
       <use x="190.869141" xlink:href="#DejaVuSans-57"/>
       <use x="254.492188" xlink:href="#DejaVuSans-45"/>
       <use x="290.576172" xlink:href="#DejaVuSans-48"/>
       <use x="354.199219" xlink:href="#DejaVuSans-50"/>
       <use x="417.822266" xlink:href="#DejaVuSans-45"/>
       <use x="453.90625" xlink:href="#DejaVuSans-48"/>
       <use x="517.529297" xlink:href="#DejaVuSans-53"/>
      </g>
     </g>
    </g>
    <g id="xtick_4">
     <g id="line2d_7">
      <path clip-path="url(#pccce54a979)" d="M 401.668072 390.04 
L 401.668072 10.8 
" style="fill:none;stroke:#808080;stroke-linecap:square;stroke-opacity:0.2;"/>
     </g>
     <g id="line2d_8">
      <g>
       <use style="stroke:#000000;stroke-width:0.8;" x="401.668072" xlink:href="#mb11abd28de" y="390.04"/>
      </g>
     </g>
     <g id="text_4">
      <!-- 2019-02-19 -->
      <g transform="translate(372.610259 404.638438)scale(0.1 -0.1)">
       <use xlink:href="#DejaVuSans-50"/>
       <use x="63.623047" xlink:href="#DejaVuSans-48"/>
       <use x="127.246094" xlink:href="#DejaVuSans-49"/>
       <use x="190.869141" xlink:href="#DejaVuSans-57"/>
       <use x="254.492188" xlink:href="#DejaVuSans-45"/>
       <use x="290.576172" xlink:href="#DejaVuSans-48"/>
       <use x="354.199219" xlink:href="#DejaVuSans-50"/>
       <use x="417.822266" xlink:href="#DejaVuSans-45"/>
       <use x="453.90625" xlink:href="#DejaVuSans-49"/>
       <use x="517.529297" xlink:href="#DejaVuSans-57"/>
      </g>
     </g>
    </g>
    <g id="xtick_5">
     <g id="line2d_9">
      <path clip-path="url(#pccce54a979)" d="M 493.418595 390.04 
L 493.418595 10.8 
" style="fill:none;stroke:#808080;stroke-linecap:square;stroke-opacity:0.2;"/>
     </g>
     <g id="line2d_10">
      <g>
       <use style="stroke:#000000;stroke-width:0.8;" x="493.418595" xlink:href="#mb11abd28de" y="390.04"/>
      </g>
     </g>
     <g id="text_5">
      <!-- 2019-03-05 -->
      <defs>
       <path d="M 40.578125 39.3125 
Q 47.65625 37.796875 51.625 33 
Q 55.609375 28.21875 55.609375 21.1875 
Q 55.609375 10.40625 48.1875 4.484375 
Q 40.765625 -1.421875 27.09375 -1.421875 
Q 22.515625 -1.421875 17.65625 -0.515625 
Q 12.796875 0.390625 7.625 2.203125 
L 7.625 11.71875 
Q 11.71875 9.328125 16.59375 8.109375 
Q 21.484375 6.890625 26.8125 6.890625 
Q 36.078125 6.890625 40.9375 10.546875 
Q 45.796875 14.203125 45.796875 21.1875 
Q 45.796875 27.640625 41.28125 31.265625 
Q 36.765625 34.90625 28.71875 34.90625 
L 20.21875 34.90625 
L 20.21875 43.015625 
L 29.109375 43.015625 
Q 36.375 43.015625 40.234375 45.921875 
Q 44.09375 48.828125 44.09375 54.296875 
Q 44.09375 59.90625 40.109375 62.90625 
Q 36.140625 65.921875 28.71875 65.921875 
Q 24.65625 65.921875 20.015625 65.03125 
Q 15.375 64.15625 9.8125 62.3125 
L 9.8125 71.09375 
Q 15.4375 72.65625 20.34375 73.4375 
Q 25.25 74.21875 29.59375 74.21875 
Q 40.828125 74.21875 47.359375 69.109375 
Q 53.90625 64.015625 53.90625 55.328125 
Q 53.90625 49.265625 50.4375 45.09375 
Q 46.96875 40.921875 40.578125 39.3125 
z
" id="DejaVuSans-51"/>
      </defs>
      <g transform="translate(464.360783 404.638438)scale(0.1 -0.1)">
       <use xlink:href="#DejaVuSans-50"/>
       <use x="63.623047" xlink:href="#DejaVuSans-48"/>
       <use x="127.246094" xlink:href="#DejaVuSans-49"/>
       <use x="190.869141" xlink:href="#DejaVuSans-57"/>
       <use x="254.492188" xlink:href="#DejaVuSans-45"/>
       <use x="290.576172" xlink:href="#DejaVuSans-48"/>
       <use x="354.199219" xlink:href="#DejaVuSans-51"/>
       <use x="417.822266" xlink:href="#DejaVuSans-45"/>
       <use x="453.90625" xlink:href="#DejaVuSans-48"/>
       <use x="517.529297" xlink:href="#DejaVuSans-53"/>
      </g>
     </g>
    </g>
    <g id="xtick_6">
     <g id="line2d_11">
      <path clip-path="url(#pccce54a979)" d="M 585.169118 390.04 
L 585.169118 10.8 
" style="fill:none;stroke:#808080;stroke-linecap:square;stroke-opacity:0.2;"/>
     </g>
     <g id="line2d_12">
      <g>
       <use style="stroke:#000000;stroke-width:0.8;" x="585.169118" xlink:href="#mb11abd28de" y="390.04"/>
      </g>
     </g>
     <g id="text_6">
      <!-- 2019-03-19 -->
      <g transform="translate(556.111306 404.638438)scale(0.1 -0.1)">
       <use xlink:href="#DejaVuSans-50"/>
       <use x="63.623047" xlink:href="#DejaVuSans-48"/>
       <use x="127.246094" xlink:href="#DejaVuSans-49"/>
       <use x="190.869141" xlink:href="#DejaVuSans-57"/>
       <use x="254.492188" xlink:href="#DejaVuSans-45"/>
       <use x="290.576172" xlink:href="#DejaVuSans-48"/>
       <use x="354.199219" xlink:href="#DejaVuSans-51"/>
       <use x="417.822266" xlink:href="#DejaVuSans-45"/>
       <use x="453.90625" xlink:href="#DejaVuSans-49"/>
       <use x="517.529297" xlink:href="#DejaVuSans-57"/>
      </g>
     </g>
    </g>
    <g id="xtick_7">
     <g id="line2d_13">
      <path clip-path="url(#pccce54a979)" d="M 676.919642 390.04 
L 676.919642 10.8 
" style="fill:none;stroke:#808080;stroke-linecap:square;stroke-opacity:0.2;"/>
     </g>
     <g id="line2d_14">
      <g>
       <use style="stroke:#000000;stroke-width:0.8;" x="676.919642" xlink:href="#mb11abd28de" y="390.04"/>
      </g>
     </g>
     <g id="text_7">
      <!-- 2019-04-02 -->
      <defs>
       <path d="M 37.796875 64.3125 
L 12.890625 25.390625 
L 37.796875 25.390625 
z
M 35.203125 72.90625 
L 47.609375 72.90625 
L 47.609375 25.390625 
L 58.015625 25.390625 
L 58.015625 17.1875 
L 47.609375 17.1875 
L 47.609375 0 
L 37.796875 0 
L 37.796875 17.1875 
L 4.890625 17.1875 
L 4.890625 26.703125 
z
" id="DejaVuSans-52"/>
      </defs>
      <g transform="translate(647.861829 404.638438)scale(0.1 -0.1)">
       <use xlink:href="#DejaVuSans-50"/>
       <use x="63.623047" xlink:href="#DejaVuSans-48"/>
       <use x="127.246094" xlink:href="#DejaVuSans-49"/>
       <use x="190.869141" xlink:href="#DejaVuSans-57"/>
       <use x="254.492188" xlink:href="#DejaVuSans-45"/>
       <use x="290.576172" xlink:href="#DejaVuSans-48"/>
       <use x="354.199219" xlink:href="#DejaVuSans-52"/>
       <use x="417.822266" xlink:href="#DejaVuSans-45"/>
       <use x="453.90625" xlink:href="#DejaVuSans-48"/>
       <use x="517.529297" xlink:href="#DejaVuSans-50"/>
      </g>
     </g>
    </g>
    <g id="text_8">
     <!-- ds -->
     <defs>
      <path d="M 45.40625 46.390625 
L 45.40625 75.984375 
L 54.390625 75.984375 
L 54.390625 0 
L 45.40625 0 
L 45.40625 8.203125 
Q 42.578125 3.328125 38.25 0.953125 
Q 33.9375 -1.421875 27.875 -1.421875 
Q 17.96875 -1.421875 11.734375 6.484375 
Q 5.515625 14.40625 5.515625 27.296875 
Q 5.515625 40.1875 11.734375 48.09375 
Q 17.96875 56 27.875 56 
Q 33.9375 56 38.25 53.625 
Q 42.578125 51.265625 45.40625 46.390625 
z
M 14.796875 27.296875 
Q 14.796875 17.390625 18.875 11.75 
Q 22.953125 6.109375 30.078125 6.109375 
Q 37.203125 6.109375 41.296875 11.75 
Q 45.40625 17.390625 45.40625 27.296875 
Q 45.40625 37.203125 41.296875 42.84375 
Q 37.203125 48.484375 30.078125 48.484375 
Q 22.953125 48.484375 18.875 42.84375 
Q 14.796875 37.203125 14.796875 27.296875 
z
" id="DejaVuSans-100"/>
      <path d="M 44.28125 53.078125 
L 44.28125 44.578125 
Q 40.484375 46.53125 36.375 47.5 
Q 32.28125 48.484375 27.875 48.484375 
Q 21.1875 48.484375 17.84375 46.4375 
Q 14.5 44.390625 14.5 40.28125 
Q 14.5 37.15625 16.890625 35.375 
Q 19.28125 33.59375 26.515625 31.984375 
L 29.59375 31.296875 
Q 39.15625 29.25 43.1875 25.515625 
Q 47.21875 21.78125 47.21875 15.09375 
Q 47.21875 7.46875 41.1875 3.015625 
Q 35.15625 -1.421875 24.609375 -1.421875 
Q 20.21875 -1.421875 15.453125 -0.5625 
Q 10.6875 0.296875 5.421875 2 
L 5.421875 11.28125 
Q 10.40625 8.6875 15.234375 7.390625 
Q 20.0625 6.109375 24.8125 6.109375 
Q 31.15625 6.109375 34.5625 8.28125 
Q 37.984375 10.453125 37.984375 14.40625 
Q 37.984375 18.0625 35.515625 20.015625 
Q 33.0625 21.96875 24.703125 23.78125 
L 21.578125 24.515625 
Q 13.234375 26.265625 9.515625 29.90625 
Q 5.8125 33.546875 5.8125 39.890625 
Q 5.8125 47.609375 11.28125 51.796875 
Q 16.75 56 26.8125 56 
Q 31.78125 56 36.171875 55.265625 
Q 40.578125 54.546875 44.28125 53.078125 
z
" id="DejaVuSans-115"/>
     </defs>
     <g transform="translate(369.67473 418.316562)scale(0.1 -0.1)">
      <use xlink:href="#DejaVuSans-100"/>
      <use x="63.476562" xlink:href="#DejaVuSans-115"/>
     </g>
    </g>
   </g>
   <g id="matplotlib.axis_2">
    <g id="ytick_1">
     <g id="line2d_15">
      <path clip-path="url(#pccce54a979)" d="M 51.05 371.781412 
L 699.857273 371.781412 
" style="fill:none;stroke:#808080;stroke-linecap:square;stroke-opacity:0.2;"/>
     </g>
     <g id="line2d_16">
      <defs>
       <path d="M 0 0 
L -3.5 0 
" id="m142e353325" style="stroke:#000000;stroke-width:0.8;"/>
      </defs>
      <g>
       <use style="stroke:#000000;stroke-width:0.8;" x="51.05" xlink:href="#m142e353325" y="371.781412"/>
      </g>
     </g>
     <g id="text_9">
      <!-- 100 -->
      <g transform="translate(24.9625 375.580631)scale(0.1 -0.1)">
       <use xlink:href="#DejaVuSans-49"/>
       <use x="63.623047" xlink:href="#DejaVuSans-48"/>
       <use x="127.246094" xlink:href="#DejaVuSans-48"/>
      </g>
     </g>
    </g>
    <g id="ytick_2">
     <g id="line2d_17">
      <path clip-path="url(#pccce54a979)" d="M 51.05 329.077739 
L 699.857273 329.077739 
" style="fill:none;stroke:#808080;stroke-linecap:square;stroke-opacity:0.2;"/>
     </g>
     <g id="line2d_18">
      <g>
       <use style="stroke:#000000;stroke-width:0.8;" x="51.05" xlink:href="#m142e353325" y="329.077739"/>
      </g>
     </g>
     <g id="text_10">
      <!-- 120 -->
      <g transform="translate(24.9625 332.876957)scale(0.1 -0.1)">
       <use xlink:href="#DejaVuSans-49"/>
       <use x="63.623047" xlink:href="#DejaVuSans-50"/>
       <use x="127.246094" xlink:href="#DejaVuSans-48"/>
      </g>
     </g>
    </g>
    <g id="ytick_3">
     <g id="line2d_19">
      <path clip-path="url(#pccce54a979)" d="M 51.05 286.374065 
L 699.857273 286.374065 
" style="fill:none;stroke:#808080;stroke-linecap:square;stroke-opacity:0.2;"/>
     </g>
     <g id="line2d_20">
      <g>
       <use style="stroke:#000000;stroke-width:0.8;" x="51.05" xlink:href="#m142e353325" y="286.374065"/>
      </g>
     </g>
     <g id="text_11">
      <!-- 140 -->
      <g transform="translate(24.9625 290.173284)scale(0.1 -0.1)">
       <use xlink:href="#DejaVuSans-49"/>
       <use x="63.623047" xlink:href="#DejaVuSans-52"/>
       <use x="127.246094" xlink:href="#DejaVuSans-48"/>
      </g>
     </g>
    </g>
    <g id="ytick_4">
     <g id="line2d_21">
      <path clip-path="url(#pccce54a979)" d="M 51.05 243.670391 
L 699.857273 243.670391 
" style="fill:none;stroke:#808080;stroke-linecap:square;stroke-opacity:0.2;"/>
     </g>
     <g id="line2d_22">
      <g>
       <use style="stroke:#000000;stroke-width:0.8;" x="51.05" xlink:href="#m142e353325" y="243.670391"/>
      </g>
     </g>
     <g id="text_12">
      <!-- 160 -->
      <defs>
       <path d="M 33.015625 40.375 
Q 26.375 40.375 22.484375 35.828125 
Q 18.609375 31.296875 18.609375 23.390625 
Q 18.609375 15.53125 22.484375 10.953125 
Q 26.375 6.390625 33.015625 6.390625 
Q 39.65625 6.390625 43.53125 10.953125 
Q 47.40625 15.53125 47.40625 23.390625 
Q 47.40625 31.296875 43.53125 35.828125 
Q 39.65625 40.375 33.015625 40.375 
z
M 52.59375 71.296875 
L 52.59375 62.3125 
Q 48.875 64.0625 45.09375 64.984375 
Q 41.3125 65.921875 37.59375 65.921875 
Q 27.828125 65.921875 22.671875 59.328125 
Q 17.53125 52.734375 16.796875 39.40625 
Q 19.671875 43.65625 24.015625 45.921875 
Q 28.375 48.1875 33.59375 48.1875 
Q 44.578125 48.1875 50.953125 41.515625 
Q 57.328125 34.859375 57.328125 23.390625 
Q 57.328125 12.15625 50.6875 5.359375 
Q 44.046875 -1.421875 33.015625 -1.421875 
Q 20.359375 -1.421875 13.671875 8.265625 
Q 6.984375 17.96875 6.984375 36.375 
Q 6.984375 53.65625 15.1875 63.9375 
Q 23.390625 74.21875 37.203125 74.21875 
Q 40.921875 74.21875 44.703125 73.484375 
Q 48.484375 72.75 52.59375 71.296875 
z
" id="DejaVuSans-54"/>
      </defs>
      <g transform="translate(24.9625 247.46961)scale(0.1 -0.1)">
       <use xlink:href="#DejaVuSans-49"/>
       <use x="63.623047" xlink:href="#DejaVuSans-54"/>
       <use x="127.246094" xlink:href="#DejaVuSans-48"/>
      </g>
     </g>
    </g>
    <g id="ytick_5">
     <g id="line2d_23">
      <path clip-path="url(#pccce54a979)" d="M 51.05 200.966718 
L 699.857273 200.966718 
" style="fill:none;stroke:#808080;stroke-linecap:square;stroke-opacity:0.2;"/>
     </g>
     <g id="line2d_24">
      <g>
       <use style="stroke:#000000;stroke-width:0.8;" x="51.05" xlink:href="#m142e353325" y="200.966718"/>
      </g>
     </g>
     <g id="text_13">
      <!-- 180 -->
      <g transform="translate(24.9625 204.765936)scale(0.1 -0.1)">
       <use xlink:href="#DejaVuSans-49"/>
       <use x="63.623047" xlink:href="#DejaVuSans-56"/>
       <use x="127.246094" xlink:href="#DejaVuSans-48"/>
      </g>
     </g>
    </g>
    <g id="ytick_6">
     <g id="line2d_25">
      <path clip-path="url(#pccce54a979)" d="M 51.05 158.263044 
L 699.857273 158.263044 
" style="fill:none;stroke:#808080;stroke-linecap:square;stroke-opacity:0.2;"/>
     </g>
     <g id="line2d_26">
      <g>
       <use style="stroke:#000000;stroke-width:0.8;" x="51.05" xlink:href="#m142e353325" y="158.263044"/>
      </g>
     </g>
     <g id="text_14">
      <!-- 200 -->
      <g transform="translate(24.9625 162.062263)scale(0.1 -0.1)">
       <use xlink:href="#DejaVuSans-50"/>
       <use x="63.623047" xlink:href="#DejaVuSans-48"/>
       <use x="127.246094" xlink:href="#DejaVuSans-48"/>
      </g>
     </g>
    </g>
    <g id="ytick_7">
     <g id="line2d_27">
      <path clip-path="url(#pccce54a979)" d="M 51.05 115.55937 
L 699.857273 115.55937 
" style="fill:none;stroke:#808080;stroke-linecap:square;stroke-opacity:0.2;"/>
     </g>
     <g id="line2d_28">
      <g>
       <use style="stroke:#000000;stroke-width:0.8;" x="51.05" xlink:href="#m142e353325" y="115.55937"/>
      </g>
     </g>
     <g id="text_15">
      <!-- 220 -->
      <g transform="translate(24.9625 119.358589)scale(0.1 -0.1)">
       <use xlink:href="#DejaVuSans-50"/>
       <use x="63.623047" xlink:href="#DejaVuSans-50"/>
       <use x="127.246094" xlink:href="#DejaVuSans-48"/>
      </g>
     </g>
    </g>
    <g id="ytick_8">
     <g id="line2d_29">
      <path clip-path="url(#pccce54a979)" d="M 51.05 72.855697 
L 699.857273 72.855697 
" style="fill:none;stroke:#808080;stroke-linecap:square;stroke-opacity:0.2;"/>
     </g>
     <g id="line2d_30">
      <g>
       <use style="stroke:#000000;stroke-width:0.8;" x="51.05" xlink:href="#m142e353325" y="72.855697"/>
      </g>
     </g>
     <g id="text_16">
      <!-- 240 -->
      <g transform="translate(24.9625 76.654916)scale(0.1 -0.1)">
       <use xlink:href="#DejaVuSans-50"/>
       <use x="63.623047" xlink:href="#DejaVuSans-52"/>
       <use x="127.246094" xlink:href="#DejaVuSans-48"/>
      </g>
     </g>
    </g>
    <g id="ytick_9">
     <g id="line2d_31">
      <path clip-path="url(#pccce54a979)" d="M 51.05 30.152023 
L 699.857273 30.152023 
" style="fill:none;stroke:#808080;stroke-linecap:square;stroke-opacity:0.2;"/>
     </g>
     <g id="line2d_32">
      <g>
       <use style="stroke:#000000;stroke-width:0.8;" x="51.05" xlink:href="#m142e353325" y="30.152023"/>
      </g>
     </g>
     <g id="text_17">
      <!-- 260 -->
      <g transform="translate(24.9625 33.951242)scale(0.1 -0.1)">
       <use xlink:href="#DejaVuSans-50"/>
       <use x="63.623047" xlink:href="#DejaVuSans-54"/>
       <use x="127.246094" xlink:href="#DejaVuSans-48"/>
      </g>
     </g>
    </g>
    <g id="text_18">
     <!-- y -->
     <defs>
      <path d="M 32.171875 -5.078125 
Q 28.375 -14.84375 24.75 -17.8125 
Q 21.140625 -20.796875 15.09375 -20.796875 
L 7.90625 -20.796875 
L 7.90625 -13.28125 
L 13.1875 -13.28125 
Q 16.890625 -13.28125 18.9375 -11.515625 
Q 21 -9.765625 23.484375 -3.21875 
L 25.09375 0.875 
L 2.984375 54.6875 
L 12.5 54.6875 
L 29.59375 11.921875 
L 46.6875 54.6875 
L 56.203125 54.6875 
z
" id="DejaVuSans-121"/>
     </defs>
     <g transform="translate(18.882812 203.379375)rotate(-90)scale(0.1 -0.1)">
      <use xlink:href="#DejaVuSans-121"/>
     </g>
    </g>
   </g>
   <g id="line2d_33">
    <defs>
     <path d="M 0 1.5 
C 0.397805 1.5 0.77937 1.341951 1.06066 1.06066 
C 1.341951 0.77937 1.5 0.397805 1.5 0 
C 1.5 -0.397805 1.341951 -0.77937 1.06066 -1.06066 
C 0.77937 -1.341951 0.397805 -1.5 0 -1.5 
C -0.397805 -1.5 -0.77937 -1.341951 -1.06066 -1.06066 
C -1.341951 -0.77937 -1.5 -0.397805 -1.5 0 
C -1.5 0.397805 -1.341951 0.77937 -1.06066 1.06066 
C -0.77937 1.341951 -0.397805 1.5 0 1.5 
z
" id="m659ac8a805" style="stroke:#000000;"/>
    </defs>
    <g clip-path="url(#pccce54a979)">
     <use style="stroke:#000000;" x="80.54124" xlink:href="#m659ac8a805" y="40.827942"/>
     <use style="stroke:#000000;" x="87.094848" xlink:href="#m659ac8a805" y="294.9148"/>
     <use style="stroke:#000000;" x="100.202066" xlink:href="#m659ac8a805" y="40.827942"/>
     <use style="stroke:#000000;" x="106.755675" xlink:href="#m659ac8a805" y="269.292595"/>
     <use style="stroke:#000000;" x="113.309284" xlink:href="#m659ac8a805" y="284.238881"/>
     <use style="stroke:#000000;" x="119.862893" xlink:href="#m659ac8a805" y="40.827942"/>
     <use style="stroke:#000000;" x="126.416501" xlink:href="#m659ac8a805" y="279.968514"/>
     <use style="stroke:#000000;" x="132.97011" xlink:href="#m659ac8a805" y="277.83333"/>
     <use style="stroke:#000000;" x="139.523719" xlink:href="#m659ac8a805" y="40.827942"/>
     <use style="stroke:#000000;" x="146.077328" xlink:href="#m659ac8a805" y="292.779616"/>
     <use style="stroke:#000000;" x="152.630937" xlink:href="#m659ac8a805" y="303.455534"/>
     <use style="stroke:#000000;" x="159.184545" xlink:href="#m659ac8a805" y="40.827942"/>
     <use style="stroke:#000000;" x="165.738154" xlink:href="#m659ac8a805" y="290.644432"/>
     <use style="stroke:#000000;" x="178.845372" xlink:href="#m659ac8a805" y="40.827942"/>
     <use style="stroke:#000000;" x="185.398981" xlink:href="#m659ac8a805" y="282.103698"/>
     <use style="stroke:#000000;" x="191.95259" xlink:href="#m659ac8a805" y="282.103698"/>
     <use style="stroke:#000000;" x="198.506198" xlink:href="#m659ac8a805" y="40.827942"/>
     <use style="stroke:#000000;" x="205.059807" xlink:href="#m659ac8a805" y="282.103698"/>
     <use style="stroke:#000000;" x="211.613416" xlink:href="#m659ac8a805" y="277.83333"/>
     <use style="stroke:#000000;" x="218.167025" xlink:href="#m659ac8a805" y="40.827942"/>
     <use style="stroke:#000000;" x="224.720634" xlink:href="#m659ac8a805" y="284.238881"/>
     <use style="stroke:#000000;" x="231.274242" xlink:href="#m659ac8a805" y="277.83333"/>
     <use style="stroke:#000000;" x="237.827851" xlink:href="#m659ac8a805" y="40.827942"/>
     <use style="stroke:#000000;" x="244.38146" xlink:href="#m659ac8a805" y="277.83333"/>
     <use style="stroke:#000000;" x="250.935069" xlink:href="#m659ac8a805" y="282.103698"/>
     <use style="stroke:#000000;" x="257.488678" xlink:href="#m659ac8a805" y="40.827942"/>
     <use style="stroke:#000000;" x="264.042287" xlink:href="#m659ac8a805" y="292.779616"/>
     <use style="stroke:#000000;" x="270.595895" xlink:href="#m659ac8a805" y="267.157412"/>
     <use style="stroke:#000000;" x="277.149504" xlink:href="#m659ac8a805" y="40.827942"/>
     <use style="stroke:#000000;" x="283.703113" xlink:href="#m659ac8a805" y="282.103698"/>
     <use style="stroke:#000000;" x="290.256722" xlink:href="#m659ac8a805" y="282.103698"/>
     <use style="stroke:#000000;" x="296.810331" xlink:href="#m659ac8a805" y="40.827942"/>
     <use style="stroke:#000000;" x="303.363939" xlink:href="#m659ac8a805" y="279.968514"/>
     <use style="stroke:#000000;" x="309.917548" xlink:href="#m659ac8a805" y="294.9148"/>
     <use style="stroke:#000000;" x="316.471157" xlink:href="#m659ac8a805" y="40.827942"/>
     <use style="stroke:#000000;" x="323.024766" xlink:href="#m659ac8a805" y="288.509249"/>
     <use style="stroke:#000000;" x="329.578375" xlink:href="#m659ac8a805" y="284.238881"/>
     <use style="stroke:#000000;" x="336.131983" xlink:href="#m659ac8a805" y="40.827942"/>
     <use style="stroke:#000000;" x="342.685592" xlink:href="#m659ac8a805" y="282.103698"/>
     <use style="stroke:#000000;" x="349.239201" xlink:href="#m659ac8a805" y="279.968514"/>
     <use style="stroke:#000000;" x="355.79281" xlink:href="#m659ac8a805" y="40.827942"/>
     <use style="stroke:#000000;" x="368.900028" xlink:href="#m659ac8a805" y="277.83333"/>
     <use style="stroke:#000000;" x="382.007245" xlink:href="#m659ac8a805" y="277.83333"/>
     <use style="stroke:#000000;" x="388.560854" xlink:href="#m659ac8a805" y="282.103698"/>
     <use style="stroke:#000000;" x="395.114463" xlink:href="#m659ac8a805" y="40.827942"/>
     <use style="stroke:#000000;" x="401.668072" xlink:href="#m659ac8a805" y="282.103698"/>
     <use style="stroke:#000000;" x="414.775289" xlink:href="#m659ac8a805" y="40.827942"/>
     <use style="stroke:#000000;" x="421.328898" xlink:href="#m659ac8a805" y="284.238881"/>
     <use style="stroke:#000000;" x="427.882507" xlink:href="#m659ac8a805" y="279.968514"/>
     <use style="stroke:#000000;" x="434.436116" xlink:href="#m659ac8a805" y="40.827942"/>
     <use style="stroke:#000000;" x="447.543333" xlink:href="#m659ac8a805" y="277.83333"/>
     <use style="stroke:#000000;" x="454.096942" xlink:href="#m659ac8a805" y="40.827942"/>
     <use style="stroke:#000000;" x="460.650551" xlink:href="#m659ac8a805" y="297.049983"/>
     <use style="stroke:#000000;" x="467.20416" xlink:href="#m659ac8a805" y="273.562963"/>
     <use style="stroke:#000000;" x="473.757769" xlink:href="#m659ac8a805" y="40.827942"/>
     <use style="stroke:#000000;" x="486.864986" xlink:href="#m659ac8a805" y="277.83333"/>
     <use style="stroke:#000000;" x="493.418595" xlink:href="#m659ac8a805" y="40.827942"/>
     <use style="stroke:#000000;" x="499.972204" xlink:href="#m659ac8a805" y="284.238881"/>
     <use style="stroke:#000000;" x="506.525813" xlink:href="#m659ac8a805" y="290.644432"/>
     <use style="stroke:#000000;" x="513.079421" xlink:href="#m659ac8a805" y="40.827942"/>
     <use style="stroke:#000000;" x="519.63303" xlink:href="#m659ac8a805" y="288.509249"/>
     <use style="stroke:#000000;" x="526.186639" xlink:href="#m659ac8a805" y="273.562963"/>
     <use style="stroke:#000000;" x="532.740248" xlink:href="#m659ac8a805" y="40.827942"/>
     <use style="stroke:#000000;" x="539.293857" xlink:href="#m659ac8a805" y="286.374065"/>
     <use style="stroke:#000000;" x="545.847466" xlink:href="#m659ac8a805" y="269.292595"/>
     <use style="stroke:#000000;" x="552.401074" xlink:href="#m659ac8a805" y="40.827942"/>
     <use style="stroke:#000000;" x="558.954683" xlink:href="#m659ac8a805" y="282.103698"/>
     <use style="stroke:#000000;" x="565.508292" xlink:href="#m659ac8a805" y="277.83333"/>
     <use style="stroke:#000000;" x="572.061901" xlink:href="#m659ac8a805" y="40.827942"/>
     <use style="stroke:#000000;" x="578.61551" xlink:href="#m659ac8a805" y="279.968514"/>
     <use style="stroke:#000000;" x="585.169118" xlink:href="#m659ac8a805" y="279.968514"/>
     <use style="stroke:#000000;" x="591.722727" xlink:href="#m659ac8a805" y="40.827942"/>
     <use style="stroke:#000000;" x="604.829945" xlink:href="#m659ac8a805" y="273.562963"/>
     <use style="stroke:#000000;" x="611.383554" xlink:href="#m659ac8a805" y="40.827942"/>
     <use style="stroke:#000000;" x="617.937163" xlink:href="#m659ac8a805" y="277.83333"/>
     <use style="stroke:#000000;" x="624.490771" xlink:href="#m659ac8a805" y="286.374065"/>
     <use style="stroke:#000000;" x="631.04438" xlink:href="#m659ac8a805" y="40.827942"/>
     <use style="stroke:#000000;" x="637.597989" xlink:href="#m659ac8a805" y="279.968514"/>
     <use style="stroke:#000000;" x="650.705207" xlink:href="#m659ac8a805" y="40.827942"/>
     <use style="stroke:#000000;" x="657.258815" xlink:href="#m659ac8a805" y="282.103698"/>
     <use style="stroke:#000000;" x="663.812424" xlink:href="#m659ac8a805" y="277.83333"/>
    </g>
   </g>
   <g id="line2d_34">
    <path clip-path="url(#pccce54a979)" d="M 80.54124 182.19038 
L 87.094848 191.894259 
L 100.202066 200.559367 
L 106.755675 206.925857 
L 113.309284 199.501097 
L 119.862893 193.34991 
L 126.416501 182.345594 
L 132.97011 192.049472 
L 139.523719 187.085194 
L 146.077328 200.714581 
L 152.630937 207.081071 
L 159.184545 199.65631 
L 165.738154 193.505124 
L 178.845372 192.204685 
L 185.398981 187.240408 
L 191.95259 200.869794 
L 198.506198 207.236284 
L 205.059807 199.811523 
L 211.613416 193.660337 
L 218.167025 182.65602 
L 224.720634 192.359899 
L 231.274242 187.395621 
L 237.827851 201.025007 
L 244.38146 207.391497 
L 250.935069 199.966737 
L 257.488678 193.815551 
L 264.042287 182.811234 
L 270.595895 192.515112 
L 277.149504 187.550834 
L 283.703113 201.180221 
L 290.256722 207.546711 
L 296.810331 200.12195 
L 303.363939 193.970764 
L 309.917548 182.966447 
L 316.471157 192.670326 
L 323.024766 187.706048 
L 329.578375 201.335434 
L 336.131983 207.701924 
L 342.685592 200.277164 
L 349.239201 194.125977 
L 355.79281 183.12166 
L 368.900028 187.861261 
L 382.007245 207.857137 
L 388.560854 200.432377 
L 395.114463 194.281191 
L 401.668072 183.276874 
L 414.775289 188.016475 
L 421.328898 201.645861 
L 427.882507 208.012351 
L 434.436116 200.58759 
L 447.543333 183.432087 
L 454.096942 193.135966 
L 460.650551 188.171688 
L 467.20416 201.801074 
L 473.757769 208.167564 
L 486.864986 194.591618 
L 493.418595 183.587301 
L 499.972204 193.291179 
L 506.525813 188.326901 
L 513.079421 201.956288 
L 519.63303 208.322778 
L 526.186639 200.898017 
L 532.740248 194.746831 
L 539.293857 183.742514 
L 545.847466 193.446393 
L 552.401074 188.482115 
L 558.954683 202.111501 
L 565.508292 208.477991 
L 572.061901 201.053231 
L 578.61551 194.902044 
L 585.169118 183.897727 
L 591.722727 193.601606 
L 604.829945 202.266715 
L 611.383554 208.633204 
L 617.937163 201.208444 
L 624.490771 195.057258 
L 631.04438 184.052941 
L 637.597989 193.756819 
L 650.705207 202.421928 
L 657.258815 208.788418 
L 663.812424 201.363657 
L 670.366033 195.212471 
" style="fill:none;stroke:#0072b2;stroke-linecap:square;stroke-width:1.5;"/>
   </g>
   <g id="patch_3">
    <path d="M 51.05 390.04 
L 51.05 10.8 
" style="fill:none;stroke:#000000;stroke-linecap:square;stroke-linejoin:miter;stroke-width:0.8;"/>
   </g>
   <g id="patch_4">
    <path d="M 699.857273 390.04 
L 699.857273 10.8 
" style="fill:none;stroke:#000000;stroke-linecap:square;stroke-linejoin:miter;stroke-width:0.8;"/>
   </g>
   <g id="patch_5">
    <path d="M 51.05 390.04 
L 699.857273 390.04 
" style="fill:none;stroke:#000000;stroke-linecap:square;stroke-linejoin:miter;stroke-width:0.8;"/>
   </g>
   <g id="patch_6">
    <path d="M 51.05 10.8 
L 699.857273 10.8 
" style="fill:none;stroke:#000000;stroke-linecap:square;stroke-linejoin:miter;stroke-width:0.8;"/>
   </g>
  </g>
 </g>
 <defs>
  <clipPath id="pccce54a979">
   <rect height="379.24" width="648.807273" x="51.05" y="10.8"/>
  </clipPath>
 </defs>
</svg>
