<?xml version="1.0" encoding="utf-8" standalone="no"?>
<!DOCTYPE svg PUBLIC "-//W3C//DTD SVG 1.1//EN"
  "http://www.w3.org/Graphics/SVG/1.1/DTD/svg11.dtd">
<!-- Created with matplotlib (https://matplotlib.org/) -->
<svg height="432pt" version="1.1" viewBox="0 0 720 432" width="720pt" xmlns="http://www.w3.org/2000/svg" xmlns:xlink="http://www.w3.org/1999/xlink">
 <defs>
  <style type="text/css">
*{stroke-linecap:butt;stroke-linejoin:round;}
  </style>
 </defs>
 <g id="figure_1">
  <g id="patch_1">
   <path d="M 0 432 
L 720 432 
L 720 0 
L 0 0 
z
" style="fill:#ffffff;"/>
  </g>
  <g id="axes_1">
   <g id="patch_2">
    <path d="M 51.05 390.04 
L 699.857273 390.04 
L 699.857273 10.8 
L 51.05 10.8 
z
" style="fill:#ffffff;"/>
   </g>
   <g id="PolyCollection_1">
    <defs>
     <path d="M 80.54124 -393.889609 
L 80.54124 -104.656064 
L 87.094848 -89.073165 
L 100.202066 -77.009642 
L 106.755675 -68.90796 
L 113.309284 -76.657987 
L 119.862893 -82.564218 
L 126.416501 -95.720804 
L 132.97011 -83.602653 
L 139.523719 -91.06117 
L 146.077328 -78.086607 
L 152.630937 -70.743783 
L 159.184545 -75.72677 
L 165.738154 -88.515916 
L 178.845372 -87.949398 
L 185.398981 -93.227744 
L 191.95259 -82.46035 
L 198.506198 -74.058636 
L 205.059807 -70.093492 
L 211.613416 -85.381581 
L 218.167025 -97.757206 
L 224.720634 -75.618945 
L 231.274242 -97.426639 
L 237.827851 -71.346911 
L 244.38146 -79.309568 
L 250.935069 -80.167191 
L 257.488678 -82.737978 
L 264.042287 -99.801289 
L 270.595895 -77.410434 
L 277.149504 -96.946588 
L 283.703113 -67.903536 
L 290.256722 -74.422217 
L 296.810331 -79.302333 
L 303.363939 -75.29062 
L 309.917548 -98.330145 
L 316.471157 -94.33681 
L 323.024766 -83.886694 
L 329.578375 -85.657321 
L 336.131983 -74.999183 
L 342.685592 -83.627747 
L 349.239201 -79.156365 
L 355.79281 -83.959173 
L 368.900028 -81.245336 
L 382.007245 -59.821912 
L 388.560854 -73.287579 
L 395.114463 -82.84442 
L 401.668072 -89.687121 
L 414.775289 -92.820566 
L 421.328898 -79.478768 
L 427.882507 -83.473831 
L 434.436116 -84.302874 
L 447.543333 -91.037341 
L 454.096942 -77.629268 
L 460.650551 -93.447474 
L 467.20416 -69.2067 
L 473.757769 -69.085544 
L 486.864986 -84.667775 
L 493.418595 -83.475607 
L 499.972204 -81.719369 
L 506.525813 -90.362658 
L 513.079421 -75.037064 
L 519.63303 -59.198182 
L 526.186639 -82.853761 
L 532.740248 -86.309684 
L 539.293857 -87.176095 
L 545.847466 -86.681016 
L 552.401074 -87.882341 
L 558.954683 -80.943017 
L 565.508292 -70.160124 
L 572.061901 -84.746541 
L 578.61551 -85.623279 
L 585.169118 -94.903558 
L 591.722727 -79.229835 
L 604.829945 -70.034761 
L 611.383554 -85.534442 
L 617.937163 -68.86663 
L 624.490771 -82.855966 
L 631.04438 -97.571921 
L 637.597989 -80.170166 
L 650.705207 -77.829258 
L 657.258815 -62.011154 
L 663.812424 -67.988938 
L 670.366033 -79.47968 
L 670.366033 -378.046554 
L 670.366033 -378.046554 
L 663.812424 -364.352073 
L 657.258815 -355.943188 
L 650.705207 -361.033315 
L 637.597989 -382.372656 
L 631.04438 -397.076688 
L 624.490771 -371.399721 
L 617.937163 -366.878308 
L 611.383554 -365.627047 
L 604.829945 -358.684347 
L 591.722727 -366.992343 
L 585.169118 -377.728789 
L 578.61551 -361.561199 
L 572.061901 -375.789027 
L 565.508292 -352.206498 
L 558.954683 -370.044028 
L 552.401074 -384.537169 
L 545.847466 -371.11481 
L 539.293857 -386.012693 
L 532.740248 -373.311756 
L 526.186639 -360.617022 
L 519.63303 -357.603465 
L 513.079421 -362.937993 
L 506.525813 -375.91386 
L 499.972204 -366.979109 
L 493.418595 -374.632976 
L 486.864986 -371.613195 
L 473.757769 -361.912806 
L 467.20416 -375.861807 
L 460.650551 -364.96635 
L 454.096942 -376.310165 
L 447.543333 -398.527272 
L 434.436116 -371.340707 
L 427.882507 -363.348984 
L 421.328898 -364.963004 
L 414.775289 -381.630136 
L 401.668072 -388.061632 
L 395.114463 -359.634541 
L 388.560854 -366.060889 
L 382.007245 -348.22301 
L 368.900028 -375.059233 
L 355.79281 -392.68387 
L 349.239201 -371.819053 
L 342.685592 -374.687936 
L 336.131983 -374.425492 
L 329.578375 -359.197 
L 323.024766 -383.204284 
L 316.471157 -378.5231 
L 309.917548 -390.69528 
L 303.363939 -373.894643 
L 296.810331 -367.793027 
L 290.256722 -364.543979 
L 283.703113 -370.721304 
L 277.149504 -376.327049 
L 270.595895 -389.987732 
L 264.042287 -403.961818 
L 257.488678 -361.775376 
L 250.935069 -367.137671 
L 244.38146 -370.167208 
L 237.827851 -365.484583 
L 231.274242 -385.569869 
L 224.720634 -391.023834 
L 218.167025 -400.448946 
L 211.613416 -372.387668 
L 205.059807 -370.137303 
L 198.506198 -357.656215 
L 191.95259 -375.79262 
L 185.398981 -379.095314 
L 178.845372 -377.346484 
L 165.738154 -379.675737 
L 159.184545 -371.702905 
L 152.630937 -370.747351 
L 146.077328 -370.037809 
L 139.523719 -395.041598 
L 132.97011 -379.887601 
L 126.416501 -387.458691 
L 119.862893 -389.536794 
L 113.309284 -362.749918 
L 106.755675 -366.186515 
L 100.202066 -371.811859 
L 87.094848 -373.648161 
L 80.54124 -393.889609 
z
" id="m9b82aac7ce" style="stroke:#0072b2;stroke-opacity:0.2;"/>
    </defs>
    <g clip-path="url(#p6f4e8ed2be)">
     <use style="fill:#0072b2;fill-opacity:0.2;stroke:#0072b2;stroke-opacity:0.2;" x="0" xlink:href="#m9b82aac7ce" y="432"/>
    </g>
   </g>
   <g id="matplotlib.axis_1">
    <g id="xtick_1">
     <g id="line2d_1">
      <path clip-path="url(#p6f4e8ed2be)" d="M 126.416501 390.04 
L 126.416501 10.8 
" style="fill:none;stroke:#808080;stroke-linecap:square;stroke-opacity:0.2;"/>
     </g>
     <g id="line2d_2">
      <defs>
       <path d="M 0 0 
L 0 3.5 
" id="m1a63408af8" style="stroke:#000000;stroke-width:0.8;"/>
      </defs>
      <g>
       <use style="stroke:#000000;stroke-width:0.8;" x="126.416501" xlink:href="#m1a63408af8" y="390.04"/>
      </g>
     </g>
     <g id="text_1">
      <!-- 2019-01-08 -->
      <defs>
       <path d="M 19.1875 8.296875 
L 53.609375 8.296875 
L 53.609375 0 
L 7.328125 0 
L 7.328125 8.296875 
Q 12.9375 14.109375 22.625 23.890625 
Q 32.328125 33.6875 34.8125 36.53125 
Q 39.546875 41.84375 41.421875 45.53125 
Q 43.3125 49.21875 43.3125 52.78125 
Q 43.3125 58.59375 39.234375 62.25 
Q 35.15625 65.921875 28.609375 65.921875 
Q 23.96875 65.921875 18.8125 64.3125 
Q 13.671875 62.703125 7.8125 59.421875 
L 7.8125 69.390625 
Q 13.765625 71.78125 18.9375 73 
Q 24.125 74.21875 28.421875 74.21875 
Q 39.75 74.21875 46.484375 68.546875 
Q 53.21875 62.890625 53.21875 53.421875 
Q 53.21875 48.921875 51.53125 44.890625 
Q 49.859375 40.875 45.40625 35.40625 
Q 44.1875 33.984375 37.640625 27.21875 
Q 31.109375 20.453125 19.1875 8.296875 
z
" id="DejaVuSans-50"/>
       <path d="M 31.78125 66.40625 
Q 24.171875 66.40625 20.328125 58.90625 
Q 16.5 51.421875 16.5 36.375 
Q 16.5 21.390625 20.328125 13.890625 
Q 24.171875 6.390625 31.78125 6.390625 
Q 39.453125 6.390625 43.28125 13.890625 
Q 47.125 21.390625 47.125 36.375 
Q 47.125 51.421875 43.28125 58.90625 
Q 39.453125 66.40625 31.78125 66.40625 
z
M 31.78125 74.21875 
Q 44.046875 74.21875 50.515625 64.515625 
Q 56.984375 54.828125 56.984375 36.375 
Q 56.984375 17.96875 50.515625 8.265625 
Q 44.046875 -1.421875 31.78125 -1.421875 
Q 19.53125 -1.421875 13.0625 8.265625 
Q 6.59375 17.96875 6.59375 36.375 
Q 6.59375 54.828125 13.0625 64.515625 
Q 19.53125 74.21875 31.78125 74.21875 
z
" id="DejaVuSans-48"/>
       <path d="M 12.40625 8.296875 
L 28.515625 8.296875 
L 28.515625 63.921875 
L 10.984375 60.40625 
L 10.984375 69.390625 
L 28.421875 72.90625 
L 38.28125 72.90625 
L 38.28125 8.296875 
L 54.390625 8.296875 
L 54.390625 0 
L 12.40625 0 
z
" id="DejaVuSans-49"/>
       <path d="M 10.984375 1.515625 
L 10.984375 10.5 
Q 14.703125 8.734375 18.5 7.8125 
Q 22.3125 6.890625 25.984375 6.890625 
Q 35.75 6.890625 40.890625 13.453125 
Q 46.046875 20.015625 46.78125 33.40625 
Q 43.953125 29.203125 39.59375 26.953125 
Q 35.25 24.703125 29.984375 24.703125 
Q 19.046875 24.703125 12.671875 31.3125 
Q 6.296875 37.9375 6.296875 49.421875 
Q 6.296875 60.640625 12.9375 67.421875 
Q 19.578125 74.21875 30.609375 74.21875 
Q 43.265625 74.21875 49.921875 64.515625 
Q 56.59375 54.828125 56.59375 36.375 
Q 56.59375 19.140625 48.40625 8.859375 
Q 40.234375 -1.421875 26.421875 -1.421875 
Q 22.703125 -1.421875 18.890625 -0.6875 
Q 15.09375 0.046875 10.984375 1.515625 
z
M 30.609375 32.421875 
Q 37.25 32.421875 41.125 36.953125 
Q 45.015625 41.5 45.015625 49.421875 
Q 45.015625 57.28125 41.125 61.84375 
Q 37.25 66.40625 30.609375 66.40625 
Q 23.96875 66.40625 20.09375 61.84375 
Q 16.21875 57.28125 16.21875 49.421875 
Q 16.21875 41.5 20.09375 36.953125 
Q 23.96875 32.421875 30.609375 32.421875 
z
" id="DejaVuSans-57"/>
       <path d="M 4.890625 31.390625 
L 31.203125 31.390625 
L 31.203125 23.390625 
L 4.890625 23.390625 
z
" id="DejaVuSans-45"/>
       <path d="M 31.78125 34.625 
Q 24.75 34.625 20.71875 30.859375 
Q 16.703125 27.09375 16.703125 20.515625 
Q 16.703125 13.921875 20.71875 10.15625 
Q 24.75 6.390625 31.78125 6.390625 
Q 38.8125 6.390625 42.859375 10.171875 
Q 46.921875 13.96875 46.921875 20.515625 
Q 46.921875 27.09375 42.890625 30.859375 
Q 38.875 34.625 31.78125 34.625 
z
M 21.921875 38.8125 
Q 15.578125 40.375 12.03125 44.71875 
Q 8.5 49.078125 8.5 55.328125 
Q 8.5 64.0625 14.71875 69.140625 
Q 20.953125 74.21875 31.78125 74.21875 
Q 42.671875 74.21875 48.875 69.140625 
Q 55.078125 64.0625 55.078125 55.328125 
Q 55.078125 49.078125 51.53125 44.71875 
Q 48 40.375 41.703125 38.8125 
Q 48.828125 37.15625 52.796875 32.3125 
Q 56.78125 27.484375 56.78125 20.515625 
Q 56.78125 9.90625 50.3125 4.234375 
Q 43.84375 -1.421875 31.78125 -1.421875 
Q 19.734375 -1.421875 13.25 4.234375 
Q 6.78125 9.90625 6.78125 20.515625 
Q 6.78125 27.484375 10.78125 32.3125 
Q 14.796875 37.15625 21.921875 38.8125 
z
M 18.3125 54.390625 
Q 18.3125 48.734375 21.84375 45.5625 
Q 25.390625 42.390625 31.78125 42.390625 
Q 38.140625 42.390625 41.71875 45.5625 
Q 45.3125 48.734375 45.3125 54.390625 
Q 45.3125 60.0625 41.71875 63.234375 
Q 38.140625 66.40625 31.78125 66.40625 
Q 25.390625 66.40625 21.84375 63.234375 
Q 18.3125 60.0625 18.3125 54.390625 
z
" id="DejaVuSans-56"/>
      </defs>
      <g transform="translate(97.358689 404.638438)scale(0.1 -0.1)">
       <use xlink:href="#DejaVuSans-50"/>
       <use x="63.623047" xlink:href="#DejaVuSans-48"/>
       <use x="127.246094" xlink:href="#DejaVuSans-49"/>
       <use x="190.869141" xlink:href="#DejaVuSans-57"/>
       <use x="254.492188" xlink:href="#DejaVuSans-45"/>
       <use x="290.576172" xlink:href="#DejaVuSans-48"/>
       <use x="354.199219" xlink:href="#DejaVuSans-49"/>
       <use x="417.822266" xlink:href="#DejaVuSans-45"/>
       <use x="453.90625" xlink:href="#DejaVuSans-48"/>
       <use x="517.529297" xlink:href="#DejaVuSans-56"/>
      </g>
     </g>
    </g>
    <g id="xtick_2">
     <g id="line2d_3">
      <path clip-path="url(#p6f4e8ed2be)" d="M 218.167025 390.04 
L 218.167025 10.8 
" style="fill:none;stroke:#808080;stroke-linecap:square;stroke-opacity:0.2;"/>
     </g>
     <g id="line2d_4">
      <g>
       <use style="stroke:#000000;stroke-width:0.8;" x="218.167025" xlink:href="#m1a63408af8" y="390.04"/>
      </g>
     </g>
     <g id="text_2">
      <!-- 2019-01-22 -->
      <g transform="translate(189.109212 404.638438)scale(0.1 -0.1)">
       <use xlink:href="#DejaVuSans-50"/>
       <use x="63.623047" xlink:href="#DejaVuSans-48"/>
       <use x="127.246094" xlink:href="#DejaVuSans-49"/>
       <use x="190.869141" xlink:href="#DejaVuSans-57"/>
       <use x="254.492188" xlink:href="#DejaVuSans-45"/>
       <use x="290.576172" xlink:href="#DejaVuSans-48"/>
       <use x="354.199219" xlink:href="#DejaVuSans-49"/>
       <use x="417.822266" xlink:href="#DejaVuSans-45"/>
       <use x="453.90625" xlink:href="#DejaVuSans-50"/>
       <use x="517.529297" xlink:href="#DejaVuSans-50"/>
      </g>
     </g>
    </g>
    <g id="xtick_3">
     <g id="line2d_5">
      <path clip-path="url(#p6f4e8ed2be)" d="M 309.917548 390.04 
L 309.917548 10.8 
" style="fill:none;stroke:#808080;stroke-linecap:square;stroke-opacity:0.2;"/>
     </g>
     <g id="line2d_6">
      <g>
       <use style="stroke:#000000;stroke-width:0.8;" x="309.917548" xlink:href="#m1a63408af8" y="390.04"/>
      </g>
     </g>
     <g id="text_3">
      <!-- 2019-02-05 -->
      <defs>
       <path d="M 10.796875 72.90625 
L 49.515625 72.90625 
L 49.515625 64.59375 
L 19.828125 64.59375 
L 19.828125 46.734375 
Q 21.96875 47.46875 24.109375 47.828125 
Q 26.265625 48.1875 28.421875 48.1875 
Q 40.625 48.1875 47.75 41.5 
Q 54.890625 34.8125 54.890625 23.390625 
Q 54.890625 11.625 47.5625 5.09375 
Q 40.234375 -1.421875 26.90625 -1.421875 
Q 22.3125 -1.421875 17.546875 -0.640625 
Q 12.796875 0.140625 7.71875 1.703125 
L 7.71875 11.625 
Q 12.109375 9.234375 16.796875 8.0625 
Q 21.484375 6.890625 26.703125 6.890625 
Q 35.15625 6.890625 40.078125 11.328125 
Q 45.015625 15.765625 45.015625 23.390625 
Q 45.015625 31 40.078125 35.4375 
Q 35.15625 39.890625 26.703125 39.890625 
Q 22.75 39.890625 18.8125 39.015625 
Q 14.890625 38.140625 10.796875 36.28125 
z
" id="DejaVuSans-53"/>
      </defs>
      <g transform="translate(280.859736 404.638438)scale(0.1 -0.1)">
       <use xlink:href="#DejaVuSans-50"/>
       <use x="63.623047" xlink:href="#DejaVuSans-48"/>
       <use x="127.246094" xlink:href="#DejaVuSans-49"/>
       <use x="190.869141" xlink:href="#DejaVuSans-57"/>
       <use x="254.492188" xlink:href="#DejaVuSans-45"/>
       <use x="290.576172" xlink:href="#DejaVuSans-48"/>
       <use x="354.199219" xlink:href="#DejaVuSans-50"/>
       <use x="417.822266" xlink:href="#DejaVuSans-45"/>
       <use x="453.90625" xlink:href="#DejaVuSans-48"/>
       <use x="517.529297" xlink:href="#DejaVuSans-53"/>
      </g>
     </g>
    </g>
    <g id="xtick_4">
     <g id="line2d_7">
      <path clip-path="url(#p6f4e8ed2be)" d="M 401.668072 390.04 
L 401.668072 10.8 
" style="fill:none;stroke:#808080;stroke-linecap:square;stroke-opacity:0.2;"/>
     </g>
     <g id="line2d_8">
      <g>
       <use style="stroke:#000000;stroke-width:0.8;" x="401.668072" xlink:href="#m1a63408af8" y="390.04"/>
      </g>
     </g>
     <g id="text_4">
      <!-- 2019-02-19 -->
      <g transform="translate(372.610259 404.638438)scale(0.1 -0.1)">
       <use xlink:href="#DejaVuSans-50"/>
       <use x="63.623047" xlink:href="#DejaVuSans-48"/>
       <use x="127.246094" xlink:href="#DejaVuSans-49"/>
       <use x="190.869141" xlink:href="#DejaVuSans-57"/>
       <use x="254.492188" xlink:href="#DejaVuSans-45"/>
       <use x="290.576172" xlink:href="#DejaVuSans-48"/>
       <use x="354.199219" xlink:href="#DejaVuSans-50"/>
       <use x="417.822266" xlink:href="#DejaVuSans-45"/>
       <use x="453.90625" xlink:href="#DejaVuSans-49"/>
       <use x="517.529297" xlink:href="#DejaVuSans-57"/>
      </g>
     </g>
    </g>
    <g id="xtick_5">
     <g id="line2d_9">
      <path clip-path="url(#p6f4e8ed2be)" d="M 493.418595 390.04 
L 493.418595 10.8 
" style="fill:none;stroke:#808080;stroke-linecap:square;stroke-opacity:0.2;"/>
     </g>
     <g id="line2d_10">
      <g>
       <use style="stroke:#000000;stroke-width:0.8;" x="493.418595" xlink:href="#m1a63408af8" y="390.04"/>
      </g>
     </g>
     <g id="text_5">
      <!-- 2019-03-05 -->
      <defs>
       <path d="M 40.578125 39.3125 
Q 47.65625 37.796875 51.625 33 
Q 55.609375 28.21875 55.609375 21.1875 
Q 55.609375 10.40625 48.1875 4.484375 
Q 40.765625 -1.421875 27.09375 -1.421875 
Q 22.515625 -1.421875 17.65625 -0.515625 
Q 12.796875 0.390625 7.625 2.203125 
L 7.625 11.71875 
Q 11.71875 9.328125 16.59375 8.109375 
Q 21.484375 6.890625 26.8125 6.890625 
Q 36.078125 6.890625 40.9375 10.546875 
Q 45.796875 14.203125 45.796875 21.1875 
Q 45.796875 27.640625 41.28125 31.265625 
Q 36.765625 34.90625 28.71875 34.90625 
L 20.21875 34.90625 
L 20.21875 43.015625 
L 29.109375 43.015625 
Q 36.375 43.015625 40.234375 45.921875 
Q 44.09375 48.828125 44.09375 54.296875 
Q 44.09375 59.90625 40.109375 62.90625 
Q 36.140625 65.921875 28.71875 65.921875 
Q 24.65625 65.921875 20.015625 65.03125 
Q 15.375 64.15625 9.8125 62.3125 
L 9.8125 71.09375 
Q 15.4375 72.65625 20.34375 73.4375 
Q 25.25 74.21875 29.59375 74.21875 
Q 40.828125 74.21875 47.359375 69.109375 
Q 53.90625 64.015625 53.90625 55.328125 
Q 53.90625 49.265625 50.4375 45.09375 
Q 46.96875 40.921875 40.578125 39.3125 
z
" id="DejaVuSans-51"/>
      </defs>
      <g transform="translate(464.360783 404.638438)scale(0.1 -0.1)">
       <use xlink:href="#DejaVuSans-50"/>
       <use x="63.623047" xlink:href="#DejaVuSans-48"/>
       <use x="127.246094" xlink:href="#DejaVuSans-49"/>
       <use x="190.869141" xlink:href="#DejaVuSans-57"/>
       <use x="254.492188" xlink:href="#DejaVuSans-45"/>
       <use x="290.576172" xlink:href="#DejaVuSans-48"/>
       <use x="354.199219" xlink:href="#DejaVuSans-51"/>
       <use x="417.822266" xlink:href="#DejaVuSans-45"/>
       <use x="453.90625" xlink:href="#DejaVuSans-48"/>
       <use x="517.529297" xlink:href="#DejaVuSans-53"/>
      </g>
     </g>
    </g>
    <g id="xtick_6">
     <g id="line2d_11">
      <path clip-path="url(#p6f4e8ed2be)" d="M 585.169118 390.04 
L 585.169118 10.8 
" style="fill:none;stroke:#808080;stroke-linecap:square;stroke-opacity:0.2;"/>
     </g>
     <g id="line2d_12">
      <g>
       <use style="stroke:#000000;stroke-width:0.8;" x="585.169118" xlink:href="#m1a63408af8" y="390.04"/>
      </g>
     </g>
     <g id="text_6">
      <!-- 2019-03-19 -->
      <g transform="translate(556.111306 404.638438)scale(0.1 -0.1)">
       <use xlink:href="#DejaVuSans-50"/>
       <use x="63.623047" xlink:href="#DejaVuSans-48"/>
       <use x="127.246094" xlink:href="#DejaVuSans-49"/>
       <use x="190.869141" xlink:href="#DejaVuSans-57"/>
       <use x="254.492188" xlink:href="#DejaVuSans-45"/>
       <use x="290.576172" xlink:href="#DejaVuSans-48"/>
       <use x="354.199219" xlink:href="#DejaVuSans-51"/>
       <use x="417.822266" xlink:href="#DejaVuSans-45"/>
       <use x="453.90625" xlink:href="#DejaVuSans-49"/>
       <use x="517.529297" xlink:href="#DejaVuSans-57"/>
      </g>
     </g>
    </g>
    <g id="xtick_7">
     <g id="line2d_13">
      <path clip-path="url(#p6f4e8ed2be)" d="M 676.919642 390.04 
L 676.919642 10.8 
" style="fill:none;stroke:#808080;stroke-linecap:square;stroke-opacity:0.2;"/>
     </g>
     <g id="line2d_14">
      <g>
       <use style="stroke:#000000;stroke-width:0.8;" x="676.919642" xlink:href="#m1a63408af8" y="390.04"/>
      </g>
     </g>
     <g id="text_7">
      <!-- 2019-04-02 -->
      <defs>
       <path d="M 37.796875 64.3125 
L 12.890625 25.390625 
L 37.796875 25.390625 
z
M 35.203125 72.90625 
L 47.609375 72.90625 
L 47.609375 25.390625 
L 58.015625 25.390625 
L 58.015625 17.1875 
L 47.609375 17.1875 
L 47.609375 0 
L 37.796875 0 
L 37.796875 17.1875 
L 4.890625 17.1875 
L 4.890625 26.703125 
z
" id="DejaVuSans-52"/>
      </defs>
      <g transform="translate(647.861829 404.638438)scale(0.1 -0.1)">
       <use xlink:href="#DejaVuSans-50"/>
       <use x="63.623047" xlink:href="#DejaVuSans-48"/>
       <use x="127.246094" xlink:href="#DejaVuSans-49"/>
       <use x="190.869141" xlink:href="#DejaVuSans-57"/>
       <use x="254.492188" xlink:href="#DejaVuSans-45"/>
       <use x="290.576172" xlink:href="#DejaVuSans-48"/>
       <use x="354.199219" xlink:href="#DejaVuSans-52"/>
       <use x="417.822266" xlink:href="#DejaVuSans-45"/>
       <use x="453.90625" xlink:href="#DejaVuSans-48"/>
       <use x="517.529297" xlink:href="#DejaVuSans-50"/>
      </g>
     </g>
    </g>
    <g id="text_8">
     <!-- ds -->
     <defs>
      <path d="M 45.40625 46.390625 
L 45.40625 75.984375 
L 54.390625 75.984375 
L 54.390625 0 
L 45.40625 0 
L 45.40625 8.203125 
Q 42.578125 3.328125 38.25 0.953125 
Q 33.9375 -1.421875 27.875 -1.421875 
Q 17.96875 -1.421875 11.734375 6.484375 
Q 5.515625 14.40625 5.515625 27.296875 
Q 5.515625 40.1875 11.734375 48.09375 
Q 17.96875 56 27.875 56 
Q 33.9375 56 38.25 53.625 
Q 42.578125 51.265625 45.40625 46.390625 
z
M 14.796875 27.296875 
Q 14.796875 17.390625 18.875 11.75 
Q 22.953125 6.109375 30.078125 6.109375 
Q 37.203125 6.109375 41.296875 11.75 
Q 45.40625 17.390625 45.40625 27.296875 
Q 45.40625 37.203125 41.296875 42.84375 
Q 37.203125 48.484375 30.078125 48.484375 
Q 22.953125 48.484375 18.875 42.84375 
Q 14.796875 37.203125 14.796875 27.296875 
z
" id="DejaVuSans-100"/>
      <path d="M 44.28125 53.078125 
L 44.28125 44.578125 
Q 40.484375 46.53125 36.375 47.5 
Q 32.28125 48.484375 27.875 48.484375 
Q 21.1875 48.484375 17.84375 46.4375 
Q 14.5 44.390625 14.5 40.28125 
Q 14.5 37.15625 16.890625 35.375 
Q 19.28125 33.59375 26.515625 31.984375 
L 29.59375 31.296875 
Q 39.15625 29.25 43.1875 25.515625 
Q 47.21875 21.78125 47.21875 15.09375 
Q 47.21875 7.46875 41.1875 3.015625 
Q 35.15625 -1.421875 24.609375 -1.421875 
Q 20.21875 -1.421875 15.453125 -0.5625 
Q 10.6875 0.296875 5.421875 2 
L 5.421875 11.28125 
Q 10.40625 8.6875 15.234375 7.390625 
Q 20.0625 6.109375 24.8125 6.109375 
Q 31.15625 6.109375 34.5625 8.28125 
Q 37.984375 10.453125 37.984375 14.40625 
Q 37.984375 18.0625 35.515625 20.015625 
Q 33.0625 21.96875 24.703125 23.78125 
L 21.578125 24.515625 
Q 13.234375 26.265625 9.515625 29.90625 
Q 5.8125 33.546875 5.8125 39.890625 
Q 5.8125 47.609375 11.28125 51.796875 
Q 16.75 56 26.8125 56 
Q 31.78125 56 36.171875 55.265625 
Q 40.578125 54.546875 44.28125 53.078125 
z
" id="DejaVuSans-115"/>
     </defs>
     <g transform="translate(369.67473 418.316562)scale(0.1 -0.1)">
      <use xlink:href="#DejaVuSans-100"/>
      <use x="63.476562" xlink:href="#DejaVuSans-115"/>
     </g>
    </g>
   </g>
   <g id="matplotlib.axis_2">
    <g id="ytick_1">
     <g id="line2d_15">
      <path clip-path="url(#p6f4e8ed2be)" d="M 51.05 376.086475 
L 699.857273 376.086475 
" style="fill:none;stroke:#808080;stroke-linecap:square;stroke-opacity:0.2;"/>
     </g>
     <g id="line2d_16">
      <defs>
       <path d="M 0 0 
L -3.5 0 
" id="me03deb29b7" style="stroke:#000000;stroke-width:0.8;"/>
      </defs>
      <g>
       <use style="stroke:#000000;stroke-width:0.8;" x="51.05" xlink:href="#me03deb29b7" y="376.086475"/>
      </g>
     </g>
     <g id="text_9">
      <!-- 100 -->
      <g transform="translate(24.9625 379.885694)scale(0.1 -0.1)">
       <use xlink:href="#DejaVuSans-49"/>
       <use x="63.623047" xlink:href="#DejaVuSans-48"/>
       <use x="127.246094" xlink:href="#DejaVuSans-48"/>
      </g>
     </g>
    </g>
    <g id="ytick_2">
     <g id="line2d_17">
      <path clip-path="url(#p6f4e8ed2be)" d="M 51.05 323.623397 
L 699.857273 323.623397 
" style="fill:none;stroke:#808080;stroke-linecap:square;stroke-opacity:0.2;"/>
     </g>
     <g id="line2d_18">
      <g>
       <use style="stroke:#000000;stroke-width:0.8;" x="51.05" xlink:href="#me03deb29b7" y="323.623397"/>
      </g>
     </g>
     <g id="text_10">
      <!-- 125 -->
      <g transform="translate(24.9625 327.422616)scale(0.1 -0.1)">
       <use xlink:href="#DejaVuSans-49"/>
       <use x="63.623047" xlink:href="#DejaVuSans-50"/>
       <use x="127.246094" xlink:href="#DejaVuSans-53"/>
      </g>
     </g>
    </g>
    <g id="ytick_3">
     <g id="line2d_19">
      <path clip-path="url(#p6f4e8ed2be)" d="M 51.05 271.160319 
L 699.857273 271.160319 
" style="fill:none;stroke:#808080;stroke-linecap:square;stroke-opacity:0.2;"/>
     </g>
     <g id="line2d_20">
      <g>
       <use style="stroke:#000000;stroke-width:0.8;" x="51.05" xlink:href="#me03deb29b7" y="271.160319"/>
      </g>
     </g>
     <g id="text_11">
      <!-- 150 -->
      <g transform="translate(24.9625 274.959538)scale(0.1 -0.1)">
       <use xlink:href="#DejaVuSans-49"/>
       <use x="63.623047" xlink:href="#DejaVuSans-53"/>
       <use x="127.246094" xlink:href="#DejaVuSans-48"/>
      </g>
     </g>
    </g>
    <g id="ytick_4">
     <g id="line2d_21">
      <path clip-path="url(#p6f4e8ed2be)" d="M 51.05 218.69724 
L 699.857273 218.69724 
" style="fill:none;stroke:#808080;stroke-linecap:square;stroke-opacity:0.2;"/>
     </g>
     <g id="line2d_22">
      <g>
       <use style="stroke:#000000;stroke-width:0.8;" x="51.05" xlink:href="#me03deb29b7" y="218.69724"/>
      </g>
     </g>
     <g id="text_12">
      <!-- 175 -->
      <defs>
       <path d="M 8.203125 72.90625 
L 55.078125 72.90625 
L 55.078125 68.703125 
L 28.609375 0 
L 18.3125 0 
L 43.21875 64.59375 
L 8.203125 64.59375 
z
" id="DejaVuSans-55"/>
      </defs>
      <g transform="translate(24.9625 222.496459)scale(0.1 -0.1)">
       <use xlink:href="#DejaVuSans-49"/>
       <use x="63.623047" xlink:href="#DejaVuSans-55"/>
       <use x="127.246094" xlink:href="#DejaVuSans-53"/>
      </g>
     </g>
    </g>
    <g id="ytick_5">
     <g id="line2d_23">
      <path clip-path="url(#p6f4e8ed2be)" d="M 51.05 166.234162 
L 699.857273 166.234162 
" style="fill:none;stroke:#808080;stroke-linecap:square;stroke-opacity:0.2;"/>
     </g>
     <g id="line2d_24">
      <g>
       <use style="stroke:#000000;stroke-width:0.8;" x="51.05" xlink:href="#me03deb29b7" y="166.234162"/>
      </g>
     </g>
     <g id="text_13">
      <!-- 200 -->
      <g transform="translate(24.9625 170.033381)scale(0.1 -0.1)">
       <use xlink:href="#DejaVuSans-50"/>
       <use x="63.623047" xlink:href="#DejaVuSans-48"/>
       <use x="127.246094" xlink:href="#DejaVuSans-48"/>
      </g>
     </g>
    </g>
    <g id="ytick_6">
     <g id="line2d_25">
      <path clip-path="url(#p6f4e8ed2be)" d="M 51.05 113.771084 
L 699.857273 113.771084 
" style="fill:none;stroke:#808080;stroke-linecap:square;stroke-opacity:0.2;"/>
     </g>
     <g id="line2d_26">
      <g>
       <use style="stroke:#000000;stroke-width:0.8;" x="51.05" xlink:href="#me03deb29b7" y="113.771084"/>
      </g>
     </g>
     <g id="text_14">
      <!-- 225 -->
      <g transform="translate(24.9625 117.570303)scale(0.1 -0.1)">
       <use xlink:href="#DejaVuSans-50"/>
       <use x="63.623047" xlink:href="#DejaVuSans-50"/>
       <use x="127.246094" xlink:href="#DejaVuSans-53"/>
      </g>
     </g>
    </g>
    <g id="ytick_7">
     <g id="line2d_27">
      <path clip-path="url(#p6f4e8ed2be)" d="M 51.05 61.308006 
L 699.857273 61.308006 
" style="fill:none;stroke:#808080;stroke-linecap:square;stroke-opacity:0.2;"/>
     </g>
     <g id="line2d_28">
      <g>
       <use style="stroke:#000000;stroke-width:0.8;" x="51.05" xlink:href="#me03deb29b7" y="61.308006"/>
      </g>
     </g>
     <g id="text_15">
      <!-- 250 -->
      <g transform="translate(24.9625 65.107224)scale(0.1 -0.1)">
       <use xlink:href="#DejaVuSans-50"/>
       <use x="63.623047" xlink:href="#DejaVuSans-53"/>
       <use x="127.246094" xlink:href="#DejaVuSans-48"/>
      </g>
     </g>
    </g>
    <g id="text_16">
     <!-- y -->
     <defs>
      <path d="M 32.171875 -5.078125 
Q 28.375 -14.84375 24.75 -17.8125 
Q 21.140625 -20.796875 15.09375 -20.796875 
L 7.90625 -20.796875 
L 7.90625 -13.28125 
L 13.1875 -13.28125 
Q 16.890625 -13.28125 18.9375 -11.515625 
Q 21 -9.765625 23.484375 -3.21875 
L 25.09375 0.875 
L 2.984375 54.6875 
L 12.5 54.6875 
L 29.59375 11.921875 
L 46.6875 54.6875 
L 56.203125 54.6875 
z
" id="DejaVuSans-121"/>
     </defs>
     <g transform="translate(18.882812 203.379375)rotate(-90)scale(0.1 -0.1)">
      <use xlink:href="#DejaVuSans-121"/>
     </g>
    </g>
   </g>
   <g id="line2d_29">
    <defs>
     <path d="M 0 1.5 
C 0.397805 1.5 0.77937 1.341951 1.06066 1.06066 
C 1.341951 0.77937 1.5 0.397805 1.5 0 
C 1.5 -0.397805 1.341951 -0.77937 1.06066 -1.06066 
C 0.77937 -1.341951 0.397805 -1.5 0 -1.5 
C -0.397805 -1.5 -0.77937 -1.341951 -1.06066 -1.06066 
C -1.341951 -0.77937 -1.5 -0.397805 -1.5 0 
C -1.5 0.397805 -1.341951 0.77937 -1.06066 1.06066 
C -0.77937 1.341951 -0.397805 1.5 0 1.5 
z
" id="m038bb4275d" style="stroke:#000000;"/>
    </defs>
    <g clip-path="url(#p6f4e8ed2be)">
     <use style="stroke:#000000;" x="80.54124" xlink:href="#m038bb4275d" y="50.81539"/>
     <use style="stroke:#000000;" x="87.094848" xlink:href="#m038bb4275d" y="285.849981"/>
     <use style="stroke:#000000;" x="100.202066" xlink:href="#m038bb4275d" y="50.81539"/>
     <use style="stroke:#000000;" x="106.755675" xlink:href="#m038bb4275d" y="275.357365"/>
     <use style="stroke:#000000;" x="113.309284" xlink:href="#m038bb4275d" y="285.849981"/>
     <use style="stroke:#000000;" x="119.862893" xlink:href="#m038bb4275d" y="50.81539"/>
     <use style="stroke:#000000;" x="126.416501" xlink:href="#m038bb4275d" y="275.357365"/>
     <use style="stroke:#000000;" x="132.97011" xlink:href="#m038bb4275d" y="296.342596"/>
     <use style="stroke:#000000;" x="139.523719" xlink:href="#m038bb4275d" y="50.81539"/>
     <use style="stroke:#000000;" x="146.077328" xlink:href="#m038bb4275d" y="294.244073"/>
     <use style="stroke:#000000;" x="152.630937" xlink:href="#m038bb4275d" y="290.047027"/>
     <use style="stroke:#000000;" x="159.184545" xlink:href="#m038bb4275d" y="50.81539"/>
     <use style="stroke:#000000;" x="165.738154" xlink:href="#m038bb4275d" y="287.948504"/>
     <use style="stroke:#000000;" x="178.845372" xlink:href="#m038bb4275d" y="50.81539"/>
     <use style="stroke:#000000;" x="185.398981" xlink:href="#m038bb4275d" y="287.948504"/>
     <use style="stroke:#000000;" x="191.95259" xlink:href="#m038bb4275d" y="292.14555"/>
     <use style="stroke:#000000;" x="198.506198" xlink:href="#m038bb4275d" y="50.81539"/>
     <use style="stroke:#000000;" x="205.059807" xlink:href="#m038bb4275d" y="298.441119"/>
     <use style="stroke:#000000;" x="211.613416" xlink:href="#m038bb4275d" y="296.342596"/>
     <use style="stroke:#000000;" x="218.167025" xlink:href="#m038bb4275d" y="50.81539"/>
     <use style="stroke:#000000;" x="224.720634" xlink:href="#m038bb4275d" y="287.948504"/>
     <use style="stroke:#000000;" x="231.274242" xlink:href="#m038bb4275d" y="292.14555"/>
     <use style="stroke:#000000;" x="237.827851" xlink:href="#m038bb4275d" y="50.81539"/>
     <use style="stroke:#000000;" x="244.38146" xlink:href="#m038bb4275d" y="287.948504"/>
     <use style="stroke:#000000;" x="250.935069" xlink:href="#m038bb4275d" y="283.751458"/>
     <use style="stroke:#000000;" x="257.488678" xlink:href="#m038bb4275d" y="50.81539"/>
     <use style="stroke:#000000;" x="264.042287" xlink:href="#m038bb4275d" y="296.342596"/>
     <use style="stroke:#000000;" x="270.595895" xlink:href="#m038bb4275d" y="292.14555"/>
     <use style="stroke:#000000;" x="277.149504" xlink:href="#m038bb4275d" y="50.81539"/>
     <use style="stroke:#000000;" x="283.703113" xlink:href="#m038bb4275d" y="287.948504"/>
     <use style="stroke:#000000;" x="290.256722" xlink:href="#m038bb4275d" y="304.736689"/>
     <use style="stroke:#000000;" x="296.810331" xlink:href="#m038bb4275d" y="50.81539"/>
     <use style="stroke:#000000;" x="303.363939" xlink:href="#m038bb4275d" y="285.849981"/>
     <use style="stroke:#000000;" x="309.917548" xlink:href="#m038bb4275d" y="298.441119"/>
     <use style="stroke:#000000;" x="316.471157" xlink:href="#m038bb4275d" y="50.81539"/>
     <use style="stroke:#000000;" x="323.024766" xlink:href="#m038bb4275d" y="292.14555"/>
     <use style="stroke:#000000;" x="329.578375" xlink:href="#m038bb4275d" y="290.047027"/>
     <use style="stroke:#000000;" x="336.131983" xlink:href="#m038bb4275d" y="50.81539"/>
     <use style="stroke:#000000;" x="342.685592" xlink:href="#m038bb4275d" y="277.455888"/>
     <use style="stroke:#000000;" x="349.239201" xlink:href="#m038bb4275d" y="298.441119"/>
     <use style="stroke:#000000;" x="355.79281" xlink:href="#m038bb4275d" y="50.81539"/>
     <use style="stroke:#000000;" x="368.900028" xlink:href="#m038bb4275d" y="290.047027"/>
     <use style="stroke:#000000;" x="382.007245" xlink:href="#m038bb4275d" y="300.539643"/>
     <use style="stroke:#000000;" x="388.560854" xlink:href="#m038bb4275d" y="292.14555"/>
     <use style="stroke:#000000;" x="395.114463" xlink:href="#m038bb4275d" y="50.81539"/>
     <use style="stroke:#000000;" x="401.668072" xlink:href="#m038bb4275d" y="294.244073"/>
     <use style="stroke:#000000;" x="414.775289" xlink:href="#m038bb4275d" y="50.81539"/>
     <use style="stroke:#000000;" x="421.328898" xlink:href="#m038bb4275d" y="290.047027"/>
     <use style="stroke:#000000;" x="427.882507" xlink:href="#m038bb4275d" y="296.342596"/>
     <use style="stroke:#000000;" x="434.436116" xlink:href="#m038bb4275d" y="50.81539"/>
     <use style="stroke:#000000;" x="447.543333" xlink:href="#m038bb4275d" y="285.849981"/>
     <use style="stroke:#000000;" x="454.096942" xlink:href="#m038bb4275d" y="50.81539"/>
     <use style="stroke:#000000;" x="460.650551" xlink:href="#m038bb4275d" y="294.244073"/>
     <use style="stroke:#000000;" x="467.20416" xlink:href="#m038bb4275d" y="287.948504"/>
     <use style="stroke:#000000;" x="473.757769" xlink:href="#m038bb4275d" y="50.81539"/>
     <use style="stroke:#000000;" x="486.864986" xlink:href="#m038bb4275d" y="296.342596"/>
     <use style="stroke:#000000;" x="493.418595" xlink:href="#m038bb4275d" y="50.81539"/>
     <use style="stroke:#000000;" x="499.972204" xlink:href="#m038bb4275d" y="290.047027"/>
     <use style="stroke:#000000;" x="506.525813" xlink:href="#m038bb4275d" y="287.948504"/>
     <use style="stroke:#000000;" x="513.079421" xlink:href="#m038bb4275d" y="50.81539"/>
     <use style="stroke:#000000;" x="519.63303" xlink:href="#m038bb4275d" y="279.554411"/>
     <use style="stroke:#000000;" x="526.186639" xlink:href="#m038bb4275d" y="296.342596"/>
     <use style="stroke:#000000;" x="532.740248" xlink:href="#m038bb4275d" y="50.81539"/>
     <use style="stroke:#000000;" x="539.293857" xlink:href="#m038bb4275d" y="287.948504"/>
     <use style="stroke:#000000;" x="545.847466" xlink:href="#m038bb4275d" y="294.244073"/>
     <use style="stroke:#000000;" x="552.401074" xlink:href="#m038bb4275d" y="50.81539"/>
     <use style="stroke:#000000;" x="558.954683" xlink:href="#m038bb4275d" y="285.849981"/>
     <use style="stroke:#000000;" x="565.508292" xlink:href="#m038bb4275d" y="287.948504"/>
     <use style="stroke:#000000;" x="572.061901" xlink:href="#m038bb4275d" y="50.81539"/>
     <use style="stroke:#000000;" x="578.61551" xlink:href="#m038bb4275d" y="279.554411"/>
     <use style="stroke:#000000;" x="585.169118" xlink:href="#m038bb4275d" y="300.539643"/>
     <use style="stroke:#000000;" x="591.722727" xlink:href="#m038bb4275d" y="50.81539"/>
     <use style="stroke:#000000;" x="604.829945" xlink:href="#m038bb4275d" y="292.14555"/>
     <use style="stroke:#000000;" x="611.383554" xlink:href="#m038bb4275d" y="50.81539"/>
     <use style="stroke:#000000;" x="617.937163" xlink:href="#m038bb4275d" y="283.751458"/>
     <use style="stroke:#000000;" x="624.490771" xlink:href="#m038bb4275d" y="283.751458"/>
     <use style="stroke:#000000;" x="631.04438" xlink:href="#m038bb4275d" y="50.81539"/>
     <use style="stroke:#000000;" x="637.597989" xlink:href="#m038bb4275d" y="283.751458"/>
     <use style="stroke:#000000;" x="650.705207" xlink:href="#m038bb4275d" y="50.81539"/>
     <use style="stroke:#000000;" x="657.258815" xlink:href="#m038bb4275d" y="277.455888"/>
     <use style="stroke:#000000;" x="663.812424" xlink:href="#m038bb4275d" y="287.948504"/>
    </g>
   </g>
   <g id="line2d_30">
    <path clip-path="url(#p6f4e8ed2be)" d="M 80.54124 188.81542 
L 87.094848 200.959904 
L 100.202066 208.176053 
L 106.755675 213.503167 
L 113.309284 207.010556 
L 119.862893 200.963327 
L 126.416501 189.173235 
L 132.97011 201.31772 
L 139.523719 193.184514 
L 146.077328 208.533869 
L 152.630937 213.860983 
L 159.184545 207.368372 
L 165.738154 201.321143 
L 178.845372 201.675536 
L 185.398981 193.54233 
L 191.95259 208.891685 
L 198.506198 214.218799 
L 205.059807 207.726188 
L 211.613416 201.678959 
L 218.167025 189.888867 
L 224.720634 202.033352 
L 231.274242 193.900146 
L 237.827851 209.2495 
L 244.38146 214.576615 
L 250.935069 208.084003 
L 257.488678 202.036775 
L 264.042287 190.246683 
L 270.595895 202.391168 
L 277.149504 194.257962 
L 283.703113 209.607316 
L 290.256722 214.934431 
L 296.810331 208.441819 
L 303.363939 202.394591 
L 309.917548 190.604499 
L 316.471157 202.748984 
L 323.024766 194.615778 
L 329.578375 209.965132 
L 336.131983 215.292247 
L 342.685592 208.799635 
L 349.239201 202.752406 
L 355.79281 190.962315 
L 368.900028 194.973594 
L 382.007245 215.650062 
L 388.560854 209.157451 
L 395.114463 203.110222 
L 401.668072 191.320131 
L 414.775289 195.331409 
L 421.328898 210.680764 
L 427.882507 216.007878 
L 434.436116 209.515267 
L 447.543333 191.677946 
L 454.096942 203.822431 
L 460.650551 195.689225 
L 467.20416 211.03858 
L 473.757769 216.365694 
L 486.864986 203.825854 
L 493.418595 192.035762 
L 499.972204 204.180247 
L 506.525813 196.047041 
L 513.079421 211.396395 
L 519.63303 216.72351 
L 526.186639 210.230898 
L 532.740248 204.18367 
L 539.293857 192.393578 
L 545.847466 204.538063 
L 552.401074 196.404857 
L 558.954683 211.754211 
L 565.508292 217.081326 
L 572.061901 210.588714 
L 578.61551 204.541486 
L 585.169118 192.751394 
L 591.722727 204.895879 
L 604.829945 212.112027 
L 611.383554 217.439142 
L 617.937163 210.94653 
L 624.490771 204.899301 
L 631.04438 193.10921 
L 637.597989 205.253694 
L 650.705207 212.469843 
L 657.258815 217.796957 
L 663.812424 211.304346 
L 670.366033 205.257117 
" style="fill:none;stroke:#0072b2;stroke-linecap:square;stroke-width:1.5;"/>
   </g>
   <g id="patch_3">
    <path d="M 51.05 390.04 
L 51.05 10.8 
" style="fill:none;stroke:#000000;stroke-linecap:square;stroke-linejoin:miter;stroke-width:0.8;"/>
   </g>
   <g id="patch_4">
    <path d="M 699.857273 390.04 
L 699.857273 10.8 
" style="fill:none;stroke:#000000;stroke-linecap:square;stroke-linejoin:miter;stroke-width:0.8;"/>
   </g>
   <g id="patch_5">
    <path d="M 51.05 390.04 
L 699.857273 390.04 
" style="fill:none;stroke:#000000;stroke-linecap:square;stroke-linejoin:miter;stroke-width:0.8;"/>
   </g>
   <g id="patch_6">
    <path d="M 51.05 10.8 
L 699.857273 10.8 
" style="fill:none;stroke:#000000;stroke-linecap:square;stroke-linejoin:miter;stroke-width:0.8;"/>
   </g>
  </g>
 </g>
 <defs>
  <clipPath id="p6f4e8ed2be">
   <rect height="379.24" width="648.807273" x="51.05" y="10.8"/>
  </clipPath>
 </defs>
</svg>
