<?xml version="1.0" encoding="utf-8" standalone="no"?>
<!DOCTYPE svg PUBLIC "-//W3C//DTD SVG 1.1//EN"
  "http://www.w3.org/Graphics/SVG/1.1/DTD/svg11.dtd">
<!-- Created with matplotlib (https://matplotlib.org/) -->
<svg height="432pt" version="1.1" viewBox="0 0 720 432" width="720pt" xmlns="http://www.w3.org/2000/svg" xmlns:xlink="http://www.w3.org/1999/xlink">
 <defs>
  <style type="text/css">
*{stroke-linecap:butt;stroke-linejoin:round;}
  </style>
 </defs>
 <g id="figure_1">
  <g id="patch_1">
   <path d="M 0 432 
L 720 432 
L 720 0 
L 0 0 
z
" style="fill:#ffffff;"/>
  </g>
  <g id="axes_1">
   <g id="patch_2">
    <path d="M 51.05 390.04 
L 699.857273 390.04 
L 699.857273 10.8 
L 51.05 10.8 
z
" style="fill:#ffffff;"/>
   </g>
   <g id="PolyCollection_1">
    <defs>
     <path d="M 80.54124 -387.811518 
L 80.54124 -95.619473 
L 87.094848 -86.894821 
L 100.202066 -74.893322 
L 106.755675 -74.451122 
L 113.309284 -67.121104 
L 119.862893 -74.939469 
L 126.416501 -84.920108 
L 132.97011 -82.069409 
L 139.523719 -85.794805 
L 146.077328 -79.738072 
L 152.630937 -73.327533 
L 159.184545 -77.061801 
L 165.738154 -76.938358 
L 178.845372 -76.938138 
L 185.398981 -101.949838 
L 191.95259 -69.201735 
L 198.506198 -71.755525 
L 205.059807 -79.896157 
L 211.613416 -69.18153 
L 218.167025 -91.718189 
L 224.720634 -76.724108 
L 231.274242 -86.762608 
L 237.827851 -68.647005 
L 244.38146 -61.090756 
L 250.935069 -72.505698 
L 257.488678 -60.897962 
L 264.042287 -102.41951 
L 270.595895 -82.615502 
L 277.149504 -83.348435 
L 283.703113 -76.522015 
L 290.256722 -75.369806 
L 296.810331 -83.410859 
L 303.363939 -75.570257 
L 309.917548 -90.830353 
L 316.471157 -77.607536 
L 323.024766 -89.70417 
L 329.578375 -68.188891 
L 336.131983 -65.915417 
L 342.685592 -74.197656 
L 349.239201 -79.780967 
L 355.79281 -80.263471 
L 368.900028 -90.706826 
L 382.007245 -60.398529 
L 388.560854 -70.191497 
L 395.114463 -89.338182 
L 401.668072 -86.339996 
L 414.775289 -84.583389 
L 421.328898 -65.752874 
L 427.882507 -64.377268 
L 434.436116 -75.784689 
L 447.543333 -93.315601 
L 454.096942 -68.955711 
L 460.650551 -83.247986 
L 467.20416 -66.249993 
L 473.757769 -60.067374 
L 486.864986 -83.554021 
L 493.418595 -101.476338 
L 499.972204 -75.451817 
L 506.525813 -83.685072 
L 513.079421 -79.639161 
L 519.63303 -66.013395 
L 526.186639 -75.983211 
L 532.740248 -75.247367 
L 539.293857 -95.622483 
L 545.847466 -83.447164 
L 552.401074 -89.165614 
L 558.954683 -77.710235 
L 565.508292 -64.182273 
L 572.061901 -76.061089 
L 578.61551 -82.213652 
L 585.169118 -97.611031 
L 591.722727 -68.474502 
L 604.829945 -71.754981 
L 611.383554 -67.412012 
L 617.937163 -66.824173 
L 624.490771 -74.629116 
L 631.04438 -86.3359 
L 637.597989 -73.580997 
L 650.705207 -73.681831 
L 657.258815 -59.198182 
L 663.812424 -74.251431 
L 670.366033 -76.37978 
L 670.366033 -374.651309 
L 670.366033 -374.651309 
L 663.812424 -378.754638 
L 657.258815 -360.780514 
L 650.705207 -375.994139 
L 637.597989 -376.115322 
L 631.04438 -383.567861 
L 624.490771 -379.45878 
L 617.937163 -375.944128 
L 611.383554 -370.065396 
L 604.829945 -359.359932 
L 591.722727 -371.245012 
L 585.169118 -403.961818 
L 578.61551 -377.191894 
L 572.061901 -372.02926 
L 565.508292 -366.689132 
L 558.954683 -373.230939 
L 552.401074 -392.408219 
L 545.847466 -382.102385 
L 539.293857 -382.440662 
L 532.740248 -386.026202 
L 526.186639 -363.793813 
L 519.63303 -361.43651 
L 513.079421 -375.123003 
L 506.525813 -389.396155 
L 499.972204 -386.93879 
L 493.418595 -392.980894 
L 486.864986 -380.274741 
L 473.757769 -366.960357 
L 467.20416 -365.174207 
L 460.650551 -395.433657 
L 454.096942 -368.397172 
L 447.543333 -376.860228 
L 434.436116 -366.55272 
L 427.882507 -361.924902 
L 421.328898 -362.356148 
L 414.775289 -384.883547 
L 401.668072 -387.017506 
L 395.114463 -374.590817 
L 388.560854 -368.511103 
L 382.007245 -364.060943 
L 368.900028 -392.298876 
L 355.79281 -396.934463 
L 349.239201 -373.127233 
L 342.685592 -367.856001 
L 336.131983 -368.100729 
L 329.578375 -378.135926 
L 323.024766 -381.509211 
L 316.471157 -370.862129 
L 309.917548 -392.933479 
L 303.363939 -379.947073 
L 296.810331 -365.765765 
L 290.256722 -357.597342 
L 283.703113 -368.867062 
L 277.149504 -381.760358 
L 270.595895 -380.357618 
L 264.042287 -399.012992 
L 257.488678 -378.657681 
L 250.935069 -367.606474 
L 244.38146 -358.269331 
L 237.827851 -378.835947 
L 231.274242 -376.099406 
L 224.720634 -378.160439 
L 218.167025 -392.10648 
L 211.613416 -392.002026 
L 205.059807 -379.756929 
L 198.506198 -367.745035 
L 191.95259 -360.282736 
L 185.398981 -388.298476 
L 178.845372 -388.092381 
L 165.738154 -364.977453 
L 159.184545 -370.223665 
L 152.630937 -362.177281 
L 146.077328 -383.265659 
L 139.523719 -394.054906 
L 132.97011 -382.70945 
L 126.416501 -392.166767 
L 119.862893 -383.68265 
L 113.309284 -378.674552 
L 106.755675 -363.493402 
L 100.202066 -375.64671 
L 87.094848 -386.184069 
L 80.54124 -387.811518 
z
" id="me696c4121f" style="stroke:#0072b2;stroke-opacity:0.2;"/>
    </defs>
    <g clip-path="url(#p8e921bee20)">
     <use style="fill:#0072b2;fill-opacity:0.2;stroke:#0072b2;stroke-opacity:0.2;" x="0" xlink:href="#me696c4121f" y="432"/>
    </g>
   </g>
   <g id="matplotlib.axis_1">
    <g id="xtick_1">
     <g id="line2d_1">
      <path clip-path="url(#p8e921bee20)" d="M 126.416501 390.04 
L 126.416501 10.8 
" style="fill:none;stroke:#808080;stroke-linecap:square;stroke-opacity:0.2;"/>
     </g>
     <g id="line2d_2">
      <defs>
       <path d="M 0 0 
L 0 3.5 
" id="mdd8f84a72d" style="stroke:#000000;stroke-width:0.8;"/>
      </defs>
      <g>
       <use style="stroke:#000000;stroke-width:0.8;" x="126.416501" xlink:href="#mdd8f84a72d" y="390.04"/>
      </g>
     </g>
     <g id="text_1">
      <!-- 2019-01-08 -->
      <defs>
       <path d="M 19.1875 8.296875 
L 53.609375 8.296875 
L 53.609375 0 
L 7.328125 0 
L 7.328125 8.296875 
Q 12.9375 14.109375 22.625 23.890625 
Q 32.328125 33.6875 34.8125 36.53125 
Q 39.546875 41.84375 41.421875 45.53125 
Q 43.3125 49.21875 43.3125 52.78125 
Q 43.3125 58.59375 39.234375 62.25 
Q 35.15625 65.921875 28.609375 65.921875 
Q 23.96875 65.921875 18.8125 64.3125 
Q 13.671875 62.703125 7.8125 59.421875 
L 7.8125 69.390625 
Q 13.765625 71.78125 18.9375 73 
Q 24.125 74.21875 28.421875 74.21875 
Q 39.75 74.21875 46.484375 68.546875 
Q 53.21875 62.890625 53.21875 53.421875 
Q 53.21875 48.921875 51.53125 44.890625 
Q 49.859375 40.875 45.40625 35.40625 
Q 44.1875 33.984375 37.640625 27.21875 
Q 31.109375 20.453125 19.1875 8.296875 
z
" id="DejaVuSans-50"/>
       <path d="M 31.78125 66.40625 
Q 24.171875 66.40625 20.328125 58.90625 
Q 16.5 51.421875 16.5 36.375 
Q 16.5 21.390625 20.328125 13.890625 
Q 24.171875 6.390625 31.78125 6.390625 
Q 39.453125 6.390625 43.28125 13.890625 
Q 47.125 21.390625 47.125 36.375 
Q 47.125 51.421875 43.28125 58.90625 
Q 39.453125 66.40625 31.78125 66.40625 
z
M 31.78125 74.21875 
Q 44.046875 74.21875 50.515625 64.515625 
Q 56.984375 54.828125 56.984375 36.375 
Q 56.984375 17.96875 50.515625 8.265625 
Q 44.046875 -1.421875 31.78125 -1.421875 
Q 19.53125 -1.421875 13.0625 8.265625 
Q 6.59375 17.96875 6.59375 36.375 
Q 6.59375 54.828125 13.0625 64.515625 
Q 19.53125 74.21875 31.78125 74.21875 
z
" id="DejaVuSans-48"/>
       <path d="M 12.40625 8.296875 
L 28.515625 8.296875 
L 28.515625 63.921875 
L 10.984375 60.40625 
L 10.984375 69.390625 
L 28.421875 72.90625 
L 38.28125 72.90625 
L 38.28125 8.296875 
L 54.390625 8.296875 
L 54.390625 0 
L 12.40625 0 
z
" id="DejaVuSans-49"/>
       <path d="M 10.984375 1.515625 
L 10.984375 10.5 
Q 14.703125 8.734375 18.5 7.8125 
Q 22.3125 6.890625 25.984375 6.890625 
Q 35.75 6.890625 40.890625 13.453125 
Q 46.046875 20.015625 46.78125 33.40625 
Q 43.953125 29.203125 39.59375 26.953125 
Q 35.25 24.703125 29.984375 24.703125 
Q 19.046875 24.703125 12.671875 31.3125 
Q 6.296875 37.9375 6.296875 49.421875 
Q 6.296875 60.640625 12.9375 67.421875 
Q 19.578125 74.21875 30.609375 74.21875 
Q 43.265625 74.21875 49.921875 64.515625 
Q 56.59375 54.828125 56.59375 36.375 
Q 56.59375 19.140625 48.40625 8.859375 
Q 40.234375 -1.421875 26.421875 -1.421875 
Q 22.703125 -1.421875 18.890625 -0.6875 
Q 15.09375 0.046875 10.984375 1.515625 
z
M 30.609375 32.421875 
Q 37.25 32.421875 41.125 36.953125 
Q 45.015625 41.5 45.015625 49.421875 
Q 45.015625 57.28125 41.125 61.84375 
Q 37.25 66.40625 30.609375 66.40625 
Q 23.96875 66.40625 20.09375 61.84375 
Q 16.21875 57.28125 16.21875 49.421875 
Q 16.21875 41.5 20.09375 36.953125 
Q 23.96875 32.421875 30.609375 32.421875 
z
" id="DejaVuSans-57"/>
       <path d="M 4.890625 31.390625 
L 31.203125 31.390625 
L 31.203125 23.390625 
L 4.890625 23.390625 
z
" id="DejaVuSans-45"/>
       <path d="M 31.78125 34.625 
Q 24.75 34.625 20.71875 30.859375 
Q 16.703125 27.09375 16.703125 20.515625 
Q 16.703125 13.921875 20.71875 10.15625 
Q 24.75 6.390625 31.78125 6.390625 
Q 38.8125 6.390625 42.859375 10.171875 
Q 46.921875 13.96875 46.921875 20.515625 
Q 46.921875 27.09375 42.890625 30.859375 
Q 38.875 34.625 31.78125 34.625 
z
M 21.921875 38.8125 
Q 15.578125 40.375 12.03125 44.71875 
Q 8.5 49.078125 8.5 55.328125 
Q 8.5 64.0625 14.71875 69.140625 
Q 20.953125 74.21875 31.78125 74.21875 
Q 42.671875 74.21875 48.875 69.140625 
Q 55.078125 64.0625 55.078125 55.328125 
Q 55.078125 49.078125 51.53125 44.71875 
Q 48 40.375 41.703125 38.8125 
Q 48.828125 37.15625 52.796875 32.3125 
Q 56.78125 27.484375 56.78125 20.515625 
Q 56.78125 9.90625 50.3125 4.234375 
Q 43.84375 -1.421875 31.78125 -1.421875 
Q 19.734375 -1.421875 13.25 4.234375 
Q 6.78125 9.90625 6.78125 20.515625 
Q 6.78125 27.484375 10.78125 32.3125 
Q 14.796875 37.15625 21.921875 38.8125 
z
M 18.3125 54.390625 
Q 18.3125 48.734375 21.84375 45.5625 
Q 25.390625 42.390625 31.78125 42.390625 
Q 38.140625 42.390625 41.71875 45.5625 
Q 45.3125 48.734375 45.3125 54.390625 
Q 45.3125 60.0625 41.71875 63.234375 
Q 38.140625 66.40625 31.78125 66.40625 
Q 25.390625 66.40625 21.84375 63.234375 
Q 18.3125 60.0625 18.3125 54.390625 
z
" id="DejaVuSans-56"/>
      </defs>
      <g transform="translate(97.358689 404.638438)scale(0.1 -0.1)">
       <use xlink:href="#DejaVuSans-50"/>
       <use x="63.623047" xlink:href="#DejaVuSans-48"/>
       <use x="127.246094" xlink:href="#DejaVuSans-49"/>
       <use x="190.869141" xlink:href="#DejaVuSans-57"/>
       <use x="254.492188" xlink:href="#DejaVuSans-45"/>
       <use x="290.576172" xlink:href="#DejaVuSans-48"/>
       <use x="354.199219" xlink:href="#DejaVuSans-49"/>
       <use x="417.822266" xlink:href="#DejaVuSans-45"/>
       <use x="453.90625" xlink:href="#DejaVuSans-48"/>
       <use x="517.529297" xlink:href="#DejaVuSans-56"/>
      </g>
     </g>
    </g>
    <g id="xtick_2">
     <g id="line2d_3">
      <path clip-path="url(#p8e921bee20)" d="M 218.167025 390.04 
L 218.167025 10.8 
" style="fill:none;stroke:#808080;stroke-linecap:square;stroke-opacity:0.2;"/>
     </g>
     <g id="line2d_4">
      <g>
       <use style="stroke:#000000;stroke-width:0.8;" x="218.167025" xlink:href="#mdd8f84a72d" y="390.04"/>
      </g>
     </g>
     <g id="text_2">
      <!-- 2019-01-22 -->
      <g transform="translate(189.109212 404.638438)scale(0.1 -0.1)">
       <use xlink:href="#DejaVuSans-50"/>
       <use x="63.623047" xlink:href="#DejaVuSans-48"/>
       <use x="127.246094" xlink:href="#DejaVuSans-49"/>
       <use x="190.869141" xlink:href="#DejaVuSans-57"/>
       <use x="254.492188" xlink:href="#DejaVuSans-45"/>
       <use x="290.576172" xlink:href="#DejaVuSans-48"/>
       <use x="354.199219" xlink:href="#DejaVuSans-49"/>
       <use x="417.822266" xlink:href="#DejaVuSans-45"/>
       <use x="453.90625" xlink:href="#DejaVuSans-50"/>
       <use x="517.529297" xlink:href="#DejaVuSans-50"/>
      </g>
     </g>
    </g>
    <g id="xtick_3">
     <g id="line2d_5">
      <path clip-path="url(#p8e921bee20)" d="M 309.917548 390.04 
L 309.917548 10.8 
" style="fill:none;stroke:#808080;stroke-linecap:square;stroke-opacity:0.2;"/>
     </g>
     <g id="line2d_6">
      <g>
       <use style="stroke:#000000;stroke-width:0.8;" x="309.917548" xlink:href="#mdd8f84a72d" y="390.04"/>
      </g>
     </g>
     <g id="text_3">
      <!-- 2019-02-05 -->
      <defs>
       <path d="M 10.796875 72.90625 
L 49.515625 72.90625 
L 49.515625 64.59375 
L 19.828125 64.59375 
L 19.828125 46.734375 
Q 21.96875 47.46875 24.109375 47.828125 
Q 26.265625 48.1875 28.421875 48.1875 
Q 40.625 48.1875 47.75 41.5 
Q 54.890625 34.8125 54.890625 23.390625 
Q 54.890625 11.625 47.5625 5.09375 
Q 40.234375 -1.421875 26.90625 -1.421875 
Q 22.3125 -1.421875 17.546875 -0.640625 
Q 12.796875 0.140625 7.71875 1.703125 
L 7.71875 11.625 
Q 12.109375 9.234375 16.796875 8.0625 
Q 21.484375 6.890625 26.703125 6.890625 
Q 35.15625 6.890625 40.078125 11.328125 
Q 45.015625 15.765625 45.015625 23.390625 
Q 45.015625 31 40.078125 35.4375 
Q 35.15625 39.890625 26.703125 39.890625 
Q 22.75 39.890625 18.8125 39.015625 
Q 14.890625 38.140625 10.796875 36.28125 
z
" id="DejaVuSans-53"/>
      </defs>
      <g transform="translate(280.859736 404.638438)scale(0.1 -0.1)">
       <use xlink:href="#DejaVuSans-50"/>
       <use x="63.623047" xlink:href="#DejaVuSans-48"/>
       <use x="127.246094" xlink:href="#DejaVuSans-49"/>
       <use x="190.869141" xlink:href="#DejaVuSans-57"/>
       <use x="254.492188" xlink:href="#DejaVuSans-45"/>
       <use x="290.576172" xlink:href="#DejaVuSans-48"/>
       <use x="354.199219" xlink:href="#DejaVuSans-50"/>
       <use x="417.822266" xlink:href="#DejaVuSans-45"/>
       <use x="453.90625" xlink:href="#DejaVuSans-48"/>
       <use x="517.529297" xlink:href="#DejaVuSans-53"/>
      </g>
     </g>
    </g>
    <g id="xtick_4">
     <g id="line2d_7">
      <path clip-path="url(#p8e921bee20)" d="M 401.668072 390.04 
L 401.668072 10.8 
" style="fill:none;stroke:#808080;stroke-linecap:square;stroke-opacity:0.2;"/>
     </g>
     <g id="line2d_8">
      <g>
       <use style="stroke:#000000;stroke-width:0.8;" x="401.668072" xlink:href="#mdd8f84a72d" y="390.04"/>
      </g>
     </g>
     <g id="text_4">
      <!-- 2019-02-19 -->
      <g transform="translate(372.610259 404.638438)scale(0.1 -0.1)">
       <use xlink:href="#DejaVuSans-50"/>
       <use x="63.623047" xlink:href="#DejaVuSans-48"/>
       <use x="127.246094" xlink:href="#DejaVuSans-49"/>
       <use x="190.869141" xlink:href="#DejaVuSans-57"/>
       <use x="254.492188" xlink:href="#DejaVuSans-45"/>
       <use x="290.576172" xlink:href="#DejaVuSans-48"/>
       <use x="354.199219" xlink:href="#DejaVuSans-50"/>
       <use x="417.822266" xlink:href="#DejaVuSans-45"/>
       <use x="453.90625" xlink:href="#DejaVuSans-49"/>
       <use x="517.529297" xlink:href="#DejaVuSans-57"/>
      </g>
     </g>
    </g>
    <g id="xtick_5">
     <g id="line2d_9">
      <path clip-path="url(#p8e921bee20)" d="M 493.418595 390.04 
L 493.418595 10.8 
" style="fill:none;stroke:#808080;stroke-linecap:square;stroke-opacity:0.2;"/>
     </g>
     <g id="line2d_10">
      <g>
       <use style="stroke:#000000;stroke-width:0.8;" x="493.418595" xlink:href="#mdd8f84a72d" y="390.04"/>
      </g>
     </g>
     <g id="text_5">
      <!-- 2019-03-05 -->
      <defs>
       <path d="M 40.578125 39.3125 
Q 47.65625 37.796875 51.625 33 
Q 55.609375 28.21875 55.609375 21.1875 
Q 55.609375 10.40625 48.1875 4.484375 
Q 40.765625 -1.421875 27.09375 -1.421875 
Q 22.515625 -1.421875 17.65625 -0.515625 
Q 12.796875 0.390625 7.625 2.203125 
L 7.625 11.71875 
Q 11.71875 9.328125 16.59375 8.109375 
Q 21.484375 6.890625 26.8125 6.890625 
Q 36.078125 6.890625 40.9375 10.546875 
Q 45.796875 14.203125 45.796875 21.1875 
Q 45.796875 27.640625 41.28125 31.265625 
Q 36.765625 34.90625 28.71875 34.90625 
L 20.21875 34.90625 
L 20.21875 43.015625 
L 29.109375 43.015625 
Q 36.375 43.015625 40.234375 45.921875 
Q 44.09375 48.828125 44.09375 54.296875 
Q 44.09375 59.90625 40.109375 62.90625 
Q 36.140625 65.921875 28.71875 65.921875 
Q 24.65625 65.921875 20.015625 65.03125 
Q 15.375 64.15625 9.8125 62.3125 
L 9.8125 71.09375 
Q 15.4375 72.65625 20.34375 73.4375 
Q 25.25 74.21875 29.59375 74.21875 
Q 40.828125 74.21875 47.359375 69.109375 
Q 53.90625 64.015625 53.90625 55.328125 
Q 53.90625 49.265625 50.4375 45.09375 
Q 46.96875 40.921875 40.578125 39.3125 
z
" id="DejaVuSans-51"/>
      </defs>
      <g transform="translate(464.360783 404.638438)scale(0.1 -0.1)">
       <use xlink:href="#DejaVuSans-50"/>
       <use x="63.623047" xlink:href="#DejaVuSans-48"/>
       <use x="127.246094" xlink:href="#DejaVuSans-49"/>
       <use x="190.869141" xlink:href="#DejaVuSans-57"/>
       <use x="254.492188" xlink:href="#DejaVuSans-45"/>
       <use x="290.576172" xlink:href="#DejaVuSans-48"/>
       <use x="354.199219" xlink:href="#DejaVuSans-51"/>
       <use x="417.822266" xlink:href="#DejaVuSans-45"/>
       <use x="453.90625" xlink:href="#DejaVuSans-48"/>
       <use x="517.529297" xlink:href="#DejaVuSans-53"/>
      </g>
     </g>
    </g>
    <g id="xtick_6">
     <g id="line2d_11">
      <path clip-path="url(#p8e921bee20)" d="M 585.169118 390.04 
L 585.169118 10.8 
" style="fill:none;stroke:#808080;stroke-linecap:square;stroke-opacity:0.2;"/>
     </g>
     <g id="line2d_12">
      <g>
       <use style="stroke:#000000;stroke-width:0.8;" x="585.169118" xlink:href="#mdd8f84a72d" y="390.04"/>
      </g>
     </g>
     <g id="text_6">
      <!-- 2019-03-19 -->
      <g transform="translate(556.111306 404.638438)scale(0.1 -0.1)">
       <use xlink:href="#DejaVuSans-50"/>
       <use x="63.623047" xlink:href="#DejaVuSans-48"/>
       <use x="127.246094" xlink:href="#DejaVuSans-49"/>
       <use x="190.869141" xlink:href="#DejaVuSans-57"/>
       <use x="254.492188" xlink:href="#DejaVuSans-45"/>
       <use x="290.576172" xlink:href="#DejaVuSans-48"/>
       <use x="354.199219" xlink:href="#DejaVuSans-51"/>
       <use x="417.822266" xlink:href="#DejaVuSans-45"/>
       <use x="453.90625" xlink:href="#DejaVuSans-49"/>
       <use x="517.529297" xlink:href="#DejaVuSans-57"/>
      </g>
     </g>
    </g>
    <g id="xtick_7">
     <g id="line2d_13">
      <path clip-path="url(#p8e921bee20)" d="M 676.919642 390.04 
L 676.919642 10.8 
" style="fill:none;stroke:#808080;stroke-linecap:square;stroke-opacity:0.2;"/>
     </g>
     <g id="line2d_14">
      <g>
       <use style="stroke:#000000;stroke-width:0.8;" x="676.919642" xlink:href="#mdd8f84a72d" y="390.04"/>
      </g>
     </g>
     <g id="text_7">
      <!-- 2019-04-02 -->
      <defs>
       <path d="M 37.796875 64.3125 
L 12.890625 25.390625 
L 37.796875 25.390625 
z
M 35.203125 72.90625 
L 47.609375 72.90625 
L 47.609375 25.390625 
L 58.015625 25.390625 
L 58.015625 17.1875 
L 47.609375 17.1875 
L 47.609375 0 
L 37.796875 0 
L 37.796875 17.1875 
L 4.890625 17.1875 
L 4.890625 26.703125 
z
" id="DejaVuSans-52"/>
      </defs>
      <g transform="translate(647.861829 404.638438)scale(0.1 -0.1)">
       <use xlink:href="#DejaVuSans-50"/>
       <use x="63.623047" xlink:href="#DejaVuSans-48"/>
       <use x="127.246094" xlink:href="#DejaVuSans-49"/>
       <use x="190.869141" xlink:href="#DejaVuSans-57"/>
       <use x="254.492188" xlink:href="#DejaVuSans-45"/>
       <use x="290.576172" xlink:href="#DejaVuSans-48"/>
       <use x="354.199219" xlink:href="#DejaVuSans-52"/>
       <use x="417.822266" xlink:href="#DejaVuSans-45"/>
       <use x="453.90625" xlink:href="#DejaVuSans-48"/>
       <use x="517.529297" xlink:href="#DejaVuSans-50"/>
      </g>
     </g>
    </g>
    <g id="text_8">
     <!-- ds -->
     <defs>
      <path d="M 45.40625 46.390625 
L 45.40625 75.984375 
L 54.390625 75.984375 
L 54.390625 0 
L 45.40625 0 
L 45.40625 8.203125 
Q 42.578125 3.328125 38.25 0.953125 
Q 33.9375 -1.421875 27.875 -1.421875 
Q 17.96875 -1.421875 11.734375 6.484375 
Q 5.515625 14.40625 5.515625 27.296875 
Q 5.515625 40.1875 11.734375 48.09375 
Q 17.96875 56 27.875 56 
Q 33.9375 56 38.25 53.625 
Q 42.578125 51.265625 45.40625 46.390625 
z
M 14.796875 27.296875 
Q 14.796875 17.390625 18.875 11.75 
Q 22.953125 6.109375 30.078125 6.109375 
Q 37.203125 6.109375 41.296875 11.75 
Q 45.40625 17.390625 45.40625 27.296875 
Q 45.40625 37.203125 41.296875 42.84375 
Q 37.203125 48.484375 30.078125 48.484375 
Q 22.953125 48.484375 18.875 42.84375 
Q 14.796875 37.203125 14.796875 27.296875 
z
" id="DejaVuSans-100"/>
      <path d="M 44.28125 53.078125 
L 44.28125 44.578125 
Q 40.484375 46.53125 36.375 47.5 
Q 32.28125 48.484375 27.875 48.484375 
Q 21.1875 48.484375 17.84375 46.4375 
Q 14.5 44.390625 14.5 40.28125 
Q 14.5 37.15625 16.890625 35.375 
Q 19.28125 33.59375 26.515625 31.984375 
L 29.59375 31.296875 
Q 39.15625 29.25 43.1875 25.515625 
Q 47.21875 21.78125 47.21875 15.09375 
Q 47.21875 7.46875 41.1875 3.015625 
Q 35.15625 -1.421875 24.609375 -1.421875 
Q 20.21875 -1.421875 15.453125 -0.5625 
Q 10.6875 0.296875 5.421875 2 
L 5.421875 11.28125 
Q 10.40625 8.6875 15.234375 7.390625 
Q 20.0625 6.109375 24.8125 6.109375 
Q 31.15625 6.109375 34.5625 8.28125 
Q 37.984375 10.453125 37.984375 14.40625 
Q 37.984375 18.0625 35.515625 20.015625 
Q 33.0625 21.96875 24.703125 23.78125 
L 21.578125 24.515625 
Q 13.234375 26.265625 9.515625 29.90625 
Q 5.8125 33.546875 5.8125 39.890625 
Q 5.8125 47.609375 11.28125 51.796875 
Q 16.75 56 26.8125 56 
Q 31.78125 56 36.171875 55.265625 
Q 40.578125 54.546875 44.28125 53.078125 
z
" id="DejaVuSans-115"/>
     </defs>
     <g transform="translate(369.67473 418.316562)scale(0.1 -0.1)">
      <use xlink:href="#DejaVuSans-100"/>
      <use x="63.476562" xlink:href="#DejaVuSans-115"/>
     </g>
    </g>
   </g>
   <g id="matplotlib.axis_2">
    <g id="ytick_1">
     <g id="line2d_15">
      <path clip-path="url(#p8e921bee20)" d="M 51.05 379.269628 
L 699.857273 379.269628 
" style="fill:none;stroke:#808080;stroke-linecap:square;stroke-opacity:0.2;"/>
     </g>
     <g id="line2d_16">
      <defs>
       <path d="M 0 0 
L -3.5 0 
" id="m7cc988ce89" style="stroke:#000000;stroke-width:0.8;"/>
      </defs>
      <g>
       <use style="stroke:#000000;stroke-width:0.8;" x="51.05" xlink:href="#m7cc988ce89" y="379.269628"/>
      </g>
     </g>
     <g id="text_9">
      <!-- 100 -->
      <g transform="translate(24.9625 383.068847)scale(0.1 -0.1)">
       <use xlink:href="#DejaVuSans-49"/>
       <use x="63.623047" xlink:href="#DejaVuSans-48"/>
       <use x="127.246094" xlink:href="#DejaVuSans-48"/>
      </g>
     </g>
    </g>
    <g id="ytick_2">
     <g id="line2d_17">
      <path clip-path="url(#p8e921bee20)" d="M 51.05 336.229874 
L 699.857273 336.229874 
" style="fill:none;stroke:#808080;stroke-linecap:square;stroke-opacity:0.2;"/>
     </g>
     <g id="line2d_18">
      <g>
       <use style="stroke:#000000;stroke-width:0.8;" x="51.05" xlink:href="#m7cc988ce89" y="336.229874"/>
      </g>
     </g>
     <g id="text_10">
      <!-- 120 -->
      <g transform="translate(24.9625 340.029093)scale(0.1 -0.1)">
       <use xlink:href="#DejaVuSans-49"/>
       <use x="63.623047" xlink:href="#DejaVuSans-50"/>
       <use x="127.246094" xlink:href="#DejaVuSans-48"/>
      </g>
     </g>
    </g>
    <g id="ytick_3">
     <g id="line2d_19">
      <path clip-path="url(#p8e921bee20)" d="M 51.05 293.19012 
L 699.857273 293.19012 
" style="fill:none;stroke:#808080;stroke-linecap:square;stroke-opacity:0.2;"/>
     </g>
     <g id="line2d_20">
      <g>
       <use style="stroke:#000000;stroke-width:0.8;" x="51.05" xlink:href="#m7cc988ce89" y="293.19012"/>
      </g>
     </g>
     <g id="text_11">
      <!-- 140 -->
      <g transform="translate(24.9625 296.989339)scale(0.1 -0.1)">
       <use xlink:href="#DejaVuSans-49"/>
       <use x="63.623047" xlink:href="#DejaVuSans-52"/>
       <use x="127.246094" xlink:href="#DejaVuSans-48"/>
      </g>
     </g>
    </g>
    <g id="ytick_4">
     <g id="line2d_21">
      <path clip-path="url(#p8e921bee20)" d="M 51.05 250.150367 
L 699.857273 250.150367 
" style="fill:none;stroke:#808080;stroke-linecap:square;stroke-opacity:0.2;"/>
     </g>
     <g id="line2d_22">
      <g>
       <use style="stroke:#000000;stroke-width:0.8;" x="51.05" xlink:href="#m7cc988ce89" y="250.150367"/>
      </g>
     </g>
     <g id="text_12">
      <!-- 160 -->
      <defs>
       <path d="M 33.015625 40.375 
Q 26.375 40.375 22.484375 35.828125 
Q 18.609375 31.296875 18.609375 23.390625 
Q 18.609375 15.53125 22.484375 10.953125 
Q 26.375 6.390625 33.015625 6.390625 
Q 39.65625 6.390625 43.53125 10.953125 
Q 47.40625 15.53125 47.40625 23.390625 
Q 47.40625 31.296875 43.53125 35.828125 
Q 39.65625 40.375 33.015625 40.375 
z
M 52.59375 71.296875 
L 52.59375 62.3125 
Q 48.875 64.0625 45.09375 64.984375 
Q 41.3125 65.921875 37.59375 65.921875 
Q 27.828125 65.921875 22.671875 59.328125 
Q 17.53125 52.734375 16.796875 39.40625 
Q 19.671875 43.65625 24.015625 45.921875 
Q 28.375 48.1875 33.59375 48.1875 
Q 44.578125 48.1875 50.953125 41.515625 
Q 57.328125 34.859375 57.328125 23.390625 
Q 57.328125 12.15625 50.6875 5.359375 
Q 44.046875 -1.421875 33.015625 -1.421875 
Q 20.359375 -1.421875 13.671875 8.265625 
Q 6.984375 17.96875 6.984375 36.375 
Q 6.984375 53.65625 15.1875 63.9375 
Q 23.390625 74.21875 37.203125 74.21875 
Q 40.921875 74.21875 44.703125 73.484375 
Q 48.484375 72.75 52.59375 71.296875 
z
" id="DejaVuSans-54"/>
      </defs>
      <g transform="translate(24.9625 253.949585)scale(0.1 -0.1)">
       <use xlink:href="#DejaVuSans-49"/>
       <use x="63.623047" xlink:href="#DejaVuSans-54"/>
       <use x="127.246094" xlink:href="#DejaVuSans-48"/>
      </g>
     </g>
    </g>
    <g id="ytick_5">
     <g id="line2d_23">
      <path clip-path="url(#p8e921bee20)" d="M 51.05 207.110613 
L 699.857273 207.110613 
" style="fill:none;stroke:#808080;stroke-linecap:square;stroke-opacity:0.2;"/>
     </g>
     <g id="line2d_24">
      <g>
       <use style="stroke:#000000;stroke-width:0.8;" x="51.05" xlink:href="#m7cc988ce89" y="207.110613"/>
      </g>
     </g>
     <g id="text_13">
      <!-- 180 -->
      <g transform="translate(24.9625 210.909832)scale(0.1 -0.1)">
       <use xlink:href="#DejaVuSans-49"/>
       <use x="63.623047" xlink:href="#DejaVuSans-56"/>
       <use x="127.246094" xlink:href="#DejaVuSans-48"/>
      </g>
     </g>
    </g>
    <g id="ytick_6">
     <g id="line2d_25">
      <path clip-path="url(#p8e921bee20)" d="M 51.05 164.070859 
L 699.857273 164.070859 
" style="fill:none;stroke:#808080;stroke-linecap:square;stroke-opacity:0.2;"/>
     </g>
     <g id="line2d_26">
      <g>
       <use style="stroke:#000000;stroke-width:0.8;" x="51.05" xlink:href="#m7cc988ce89" y="164.070859"/>
      </g>
     </g>
     <g id="text_14">
      <!-- 200 -->
      <g transform="translate(24.9625 167.870078)scale(0.1 -0.1)">
       <use xlink:href="#DejaVuSans-50"/>
       <use x="63.623047" xlink:href="#DejaVuSans-48"/>
       <use x="127.246094" xlink:href="#DejaVuSans-48"/>
      </g>
     </g>
    </g>
    <g id="ytick_7">
     <g id="line2d_27">
      <path clip-path="url(#p8e921bee20)" d="M 51.05 121.031105 
L 699.857273 121.031105 
" style="fill:none;stroke:#808080;stroke-linecap:square;stroke-opacity:0.2;"/>
     </g>
     <g id="line2d_28">
      <g>
       <use style="stroke:#000000;stroke-width:0.8;" x="51.05" xlink:href="#m7cc988ce89" y="121.031105"/>
      </g>
     </g>
     <g id="text_15">
      <!-- 220 -->
      <g transform="translate(24.9625 124.830324)scale(0.1 -0.1)">
       <use xlink:href="#DejaVuSans-50"/>
       <use x="63.623047" xlink:href="#DejaVuSans-50"/>
       <use x="127.246094" xlink:href="#DejaVuSans-48"/>
      </g>
     </g>
    </g>
    <g id="ytick_8">
     <g id="line2d_29">
      <path clip-path="url(#p8e921bee20)" d="M 51.05 77.991351 
L 699.857273 77.991351 
" style="fill:none;stroke:#808080;stroke-linecap:square;stroke-opacity:0.2;"/>
     </g>
     <g id="line2d_30">
      <g>
       <use style="stroke:#000000;stroke-width:0.8;" x="51.05" xlink:href="#m7cc988ce89" y="77.991351"/>
      </g>
     </g>
     <g id="text_16">
      <!-- 240 -->
      <g transform="translate(24.9625 81.79057)scale(0.1 -0.1)">
       <use xlink:href="#DejaVuSans-50"/>
       <use x="63.623047" xlink:href="#DejaVuSans-52"/>
       <use x="127.246094" xlink:href="#DejaVuSans-48"/>
      </g>
     </g>
    </g>
    <g id="ytick_9">
     <g id="line2d_31">
      <path clip-path="url(#p8e921bee20)" d="M 51.05 34.951598 
L 699.857273 34.951598 
" style="fill:none;stroke:#808080;stroke-linecap:square;stroke-opacity:0.2;"/>
     </g>
     <g id="line2d_32">
      <g>
       <use style="stroke:#000000;stroke-width:0.8;" x="51.05" xlink:href="#m7cc988ce89" y="34.951598"/>
      </g>
     </g>
     <g id="text_17">
      <!-- 260 -->
      <g transform="translate(24.9625 38.750816)scale(0.1 -0.1)">
       <use xlink:href="#DejaVuSans-50"/>
       <use x="63.623047" xlink:href="#DejaVuSans-54"/>
       <use x="127.246094" xlink:href="#DejaVuSans-48"/>
      </g>
     </g>
    </g>
    <g id="text_18">
     <!-- y -->
     <defs>
      <path d="M 32.171875 -5.078125 
Q 28.375 -14.84375 24.75 -17.8125 
Q 21.140625 -20.796875 15.09375 -20.796875 
L 7.90625 -20.796875 
L 7.90625 -13.28125 
L 13.1875 -13.28125 
Q 16.890625 -13.28125 18.9375 -11.515625 
Q 21 -9.765625 23.484375 -3.21875 
L 25.09375 0.875 
L 2.984375 54.6875 
L 12.5 54.6875 
L 29.59375 11.921875 
L 46.6875 54.6875 
L 56.203125 54.6875 
z
" id="DejaVuSans-121"/>
     </defs>
     <g transform="translate(18.882812 203.379375)rotate(-90)scale(0.1 -0.1)">
      <use xlink:href="#DejaVuSans-121"/>
     </g>
    </g>
   </g>
   <g id="line2d_33">
    <defs>
     <path d="M 0 1.5 
C 0.397805 1.5 0.77937 1.341951 1.06066 1.06066 
C 1.341951 0.77937 1.5 0.397805 1.5 0 
C 1.5 -0.397805 1.341951 -0.77937 1.06066 -1.06066 
C 0.77937 -1.341951 0.397805 -1.5 0 -1.5 
C -0.397805 -1.5 -0.77937 -1.341951 -1.06066 -1.06066 
C -1.341951 -0.77937 -1.5 -0.397805 -1.5 0 
C -1.5 0.397805 -1.341951 0.77937 -1.06066 1.06066 
C -0.77937 1.341951 -0.397805 1.5 0 1.5 
z
" id="m388a372c14" style="stroke:#000000;"/>
    </defs>
    <g clip-path="url(#p8e921bee20)">
     <use style="stroke:#000000;" x="80.54124" xlink:href="#m388a372c14" y="45.711536"/>
     <use style="stroke:#000000;" x="87.094848" xlink:href="#m388a372c14" y="297.494096"/>
     <use style="stroke:#000000;" x="100.202066" xlink:href="#m388a372c14" y="45.711536"/>
     <use style="stroke:#000000;" x="106.755675" xlink:href="#m388a372c14" y="288.886145"/>
     <use style="stroke:#000000;" x="113.309284" xlink:href="#m388a372c14" y="291.038133"/>
     <use style="stroke:#000000;" x="119.862893" xlink:href="#m388a372c14" y="45.711536"/>
     <use style="stroke:#000000;" x="126.416501" xlink:href="#m388a372c14" y="297.494096"/>
     <use style="stroke:#000000;" x="132.97011" xlink:href="#m388a372c14" y="293.19012"/>
     <use style="stroke:#000000;" x="139.523719" xlink:href="#m388a372c14" y="45.711536"/>
     <use style="stroke:#000000;" x="146.077328" xlink:href="#m388a372c14" y="288.886145"/>
     <use style="stroke:#000000;" x="152.630937" xlink:href="#m388a372c14" y="288.886145"/>
     <use style="stroke:#000000;" x="159.184545" xlink:href="#m388a372c14" y="45.711536"/>
     <use style="stroke:#000000;" x="165.738154" xlink:href="#m388a372c14" y="301.798071"/>
     <use style="stroke:#000000;" x="178.845372" xlink:href="#m388a372c14" y="45.711536"/>
     <use style="stroke:#000000;" x="185.398981" xlink:href="#m388a372c14" y="293.19012"/>
     <use style="stroke:#000000;" x="191.95259" xlink:href="#m388a372c14" y="282.430182"/>
     <use style="stroke:#000000;" x="198.506198" xlink:href="#m388a372c14" y="45.711536"/>
     <use style="stroke:#000000;" x="205.059807" xlink:href="#m388a372c14" y="288.886145"/>
     <use style="stroke:#000000;" x="211.613416" xlink:href="#m388a372c14" y="293.19012"/>
     <use style="stroke:#000000;" x="218.167025" xlink:href="#m388a372c14" y="45.711536"/>
     <use style="stroke:#000000;" x="224.720634" xlink:href="#m388a372c14" y="288.886145"/>
     <use style="stroke:#000000;" x="231.274242" xlink:href="#m388a372c14" y="284.58217"/>
     <use style="stroke:#000000;" x="237.827851" xlink:href="#m388a372c14" y="45.711536"/>
     <use style="stroke:#000000;" x="244.38146" xlink:href="#m388a372c14" y="284.58217"/>
     <use style="stroke:#000000;" x="250.935069" xlink:href="#m388a372c14" y="291.038133"/>
     <use style="stroke:#000000;" x="257.488678" xlink:href="#m388a372c14" y="45.711536"/>
     <use style="stroke:#000000;" x="264.042287" xlink:href="#m388a372c14" y="284.58217"/>
     <use style="stroke:#000000;" x="270.595895" xlink:href="#m388a372c14" y="291.038133"/>
     <use style="stroke:#000000;" x="277.149504" xlink:href="#m388a372c14" y="45.711536"/>
     <use style="stroke:#000000;" x="283.703113" xlink:href="#m388a372c14" y="284.58217"/>
     <use style="stroke:#000000;" x="290.256722" xlink:href="#m388a372c14" y="293.19012"/>
     <use style="stroke:#000000;" x="296.810331" xlink:href="#m388a372c14" y="45.711536"/>
     <use style="stroke:#000000;" x="303.363939" xlink:href="#m388a372c14" y="301.798071"/>
     <use style="stroke:#000000;" x="309.917548" xlink:href="#m388a372c14" y="293.19012"/>
     <use style="stroke:#000000;" x="316.471157" xlink:href="#m388a372c14" y="45.711536"/>
     <use style="stroke:#000000;" x="323.024766" xlink:href="#m388a372c14" y="297.494096"/>
     <use style="stroke:#000000;" x="329.578375" xlink:href="#m388a372c14" y="288.886145"/>
     <use style="stroke:#000000;" x="336.131983" xlink:href="#m388a372c14" y="45.711536"/>
     <use style="stroke:#000000;" x="342.685592" xlink:href="#m388a372c14" y="284.58217"/>
     <use style="stroke:#000000;" x="349.239201" xlink:href="#m388a372c14" y="297.494096"/>
     <use style="stroke:#000000;" x="355.79281" xlink:href="#m388a372c14" y="45.711536"/>
     <use style="stroke:#000000;" x="368.900028" xlink:href="#m388a372c14" y="288.886145"/>
     <use style="stroke:#000000;" x="382.007245" xlink:href="#m388a372c14" y="293.19012"/>
     <use style="stroke:#000000;" x="388.560854" xlink:href="#m388a372c14" y="288.886145"/>
     <use style="stroke:#000000;" x="395.114463" xlink:href="#m388a372c14" y="45.711536"/>
     <use style="stroke:#000000;" x="401.668072" xlink:href="#m388a372c14" y="293.19012"/>
     <use style="stroke:#000000;" x="414.775289" xlink:href="#m388a372c14" y="45.711536"/>
     <use style="stroke:#000000;" x="421.328898" xlink:href="#m388a372c14" y="288.886145"/>
     <use style="stroke:#000000;" x="427.882507" xlink:href="#m388a372c14" y="295.342108"/>
     <use style="stroke:#000000;" x="434.436116" xlink:href="#m388a372c14" y="45.711536"/>
     <use style="stroke:#000000;" x="447.543333" xlink:href="#m388a372c14" y="288.886145"/>
     <use style="stroke:#000000;" x="454.096942" xlink:href="#m388a372c14" y="45.711536"/>
     <use style="stroke:#000000;" x="460.650551" xlink:href="#m388a372c14" y="291.038133"/>
     <use style="stroke:#000000;" x="467.20416" xlink:href="#m388a372c14" y="297.494096"/>
     <use style="stroke:#000000;" x="473.757769" xlink:href="#m388a372c14" y="45.711536"/>
     <use style="stroke:#000000;" x="486.864986" xlink:href="#m388a372c14" y="286.734157"/>
     <use style="stroke:#000000;" x="493.418595" xlink:href="#m388a372c14" y="45.711536"/>
     <use style="stroke:#000000;" x="499.972204" xlink:href="#m388a372c14" y="282.430182"/>
     <use style="stroke:#000000;" x="506.525813" xlink:href="#m388a372c14" y="284.58217"/>
     <use style="stroke:#000000;" x="513.079421" xlink:href="#m388a372c14" y="45.711536"/>
     <use style="stroke:#000000;" x="519.63303" xlink:href="#m388a372c14" y="293.19012"/>
     <use style="stroke:#000000;" x="526.186639" xlink:href="#m388a372c14" y="288.886145"/>
     <use style="stroke:#000000;" x="532.740248" xlink:href="#m388a372c14" y="45.711536"/>
     <use style="stroke:#000000;" x="539.293857" xlink:href="#m388a372c14" y="284.58217"/>
     <use style="stroke:#000000;" x="545.847466" xlink:href="#m388a372c14" y="288.886145"/>
     <use style="stroke:#000000;" x="552.401074" xlink:href="#m388a372c14" y="45.711536"/>
     <use style="stroke:#000000;" x="558.954683" xlink:href="#m388a372c14" y="288.886145"/>
     <use style="stroke:#000000;" x="565.508292" xlink:href="#m388a372c14" y="284.58217"/>
     <use style="stroke:#000000;" x="572.061901" xlink:href="#m388a372c14" y="45.711536"/>
     <use style="stroke:#000000;" x="578.61551" xlink:href="#m388a372c14" y="288.886145"/>
     <use style="stroke:#000000;" x="585.169118" xlink:href="#m388a372c14" y="280.278194"/>
     <use style="stroke:#000000;" x="591.722727" xlink:href="#m388a372c14" y="45.711536"/>
     <use style="stroke:#000000;" x="604.829945" xlink:href="#m388a372c14" y="293.19012"/>
     <use style="stroke:#000000;" x="611.383554" xlink:href="#m388a372c14" y="45.711536"/>
     <use style="stroke:#000000;" x="617.937163" xlink:href="#m388a372c14" y="297.494096"/>
     <use style="stroke:#000000;" x="624.490771" xlink:href="#m388a372c14" y="288.886145"/>
     <use style="stroke:#000000;" x="631.04438" xlink:href="#m388a372c14" y="45.711536"/>
     <use style="stroke:#000000;" x="637.597989" xlink:href="#m388a372c14" y="284.58217"/>
     <use style="stroke:#000000;" x="650.705207" xlink:href="#m388a372c14" y="45.711536"/>
     <use style="stroke:#000000;" x="657.258815" xlink:href="#m388a372c14" y="297.494096"/>
     <use style="stroke:#000000;" x="663.812424" xlink:href="#m388a372c14" y="286.734157"/>
    </g>
   </g>
   <g id="line2d_34">
    <path clip-path="url(#p8e921bee20)" d="M 80.54124 186.128329 
L 87.094848 199.495494 
L 100.202066 206.620939 
L 106.755675 214.171503 
L 113.309284 206.987374 
L 119.862893 202.577144 
L 126.416501 186.349214 
L 132.97011 199.716379 
L 139.523719 191.33328 
L 146.077328 206.841824 
L 152.630937 214.392387 
L 159.184545 207.208259 
L 165.738154 202.798028 
L 178.845372 199.937263 
L 185.398981 191.554164 
L 191.95259 207.062708 
L 198.506198 214.613272 
L 205.059807 207.429143 
L 211.613416 203.018913 
L 218.167025 186.790983 
L 224.720634 200.158148 
L 231.274242 191.775049 
L 237.827851 207.283593 
L 244.38146 214.834156 
L 250.935069 207.650028 
L 257.488678 203.239797 
L 264.042287 187.011867 
L 270.595895 200.379032 
L 277.149504 191.995933 
L 283.703113 207.504477 
L 290.256722 215.055041 
L 296.810331 207.870912 
L 303.363939 203.460682 
L 309.917548 187.232752 
L 316.471157 200.599917 
L 323.024766 192.216818 
L 329.578375 207.725362 
L 336.131983 215.275925 
L 342.685592 208.091797 
L 349.239201 203.681566 
L 355.79281 187.453636 
L 368.900028 192.437703 
L 382.007245 215.49681 
L 388.560854 208.312681 
L 395.114463 203.902451 
L 401.668072 187.674521 
L 414.775289 192.658587 
L 421.328898 208.167131 
L 427.882507 215.717694 
L 434.436116 208.533566 
L 447.543333 187.895405 
L 454.096942 201.26257 
L 460.650551 192.879472 
L 467.20416 208.388015 
L 473.757769 215.938579 
L 486.864986 204.34422 
L 493.418595 188.11629 
L 499.972204 201.483455 
L 506.525813 193.100356 
L 513.079421 208.6089 
L 519.63303 216.159463 
L 526.186639 208.975335 
L 532.740248 204.565104 
L 539.293857 188.337175 
L 545.847466 201.704339 
L 552.401074 193.321241 
L 558.954683 208.829784 
L 565.508292 216.380348 
L 572.061901 209.196219 
L 578.61551 204.785989 
L 585.169118 188.558059 
L 591.722727 201.925224 
L 604.829945 209.050669 
L 611.383554 216.601232 
L 617.937163 209.417104 
L 624.490771 205.006873 
L 631.04438 188.778944 
L 637.597989 202.146108 
L 650.705207 209.271553 
L 657.258815 216.822117 
L 663.812424 209.637988 
L 670.366033 205.227758 
" style="fill:none;stroke:#0072b2;stroke-linecap:square;stroke-width:1.5;"/>
   </g>
   <g id="patch_3">
    <path d="M 51.05 390.04 
L 51.05 10.8 
" style="fill:none;stroke:#000000;stroke-linecap:square;stroke-linejoin:miter;stroke-width:0.8;"/>
   </g>
   <g id="patch_4">
    <path d="M 699.857273 390.04 
L 699.857273 10.8 
" style="fill:none;stroke:#000000;stroke-linecap:square;stroke-linejoin:miter;stroke-width:0.8;"/>
   </g>
   <g id="patch_5">
    <path d="M 51.05 390.04 
L 699.857273 390.04 
" style="fill:none;stroke:#000000;stroke-linecap:square;stroke-linejoin:miter;stroke-width:0.8;"/>
   </g>
   <g id="patch_6">
    <path d="M 51.05 10.8 
L 699.857273 10.8 
" style="fill:none;stroke:#000000;stroke-linecap:square;stroke-linejoin:miter;stroke-width:0.8;"/>
   </g>
  </g>
 </g>
 <defs>
  <clipPath id="p8e921bee20">
   <rect height="379.24" width="648.807273" x="51.05" y="10.8"/>
  </clipPath>
 </defs>
</svg>
