<?xml version="1.0" encoding="utf-8" standalone="no"?>
<!DOCTYPE svg PUBLIC "-//W3C//DTD SVG 1.1//EN"
  "http://www.w3.org/Graphics/SVG/1.1/DTD/svg11.dtd">
<!-- Created with matplotlib (https://matplotlib.org/) -->
<svg height="432pt" version="1.1" viewBox="0 0 720 432" width="720pt" xmlns="http://www.w3.org/2000/svg" xmlns:xlink="http://www.w3.org/1999/xlink">
 <defs>
  <style type="text/css">
*{stroke-linecap:butt;stroke-linejoin:round;}
  </style>
 </defs>
 <g id="figure_1">
  <g id="patch_1">
   <path d="M 0 432 
L 720 432 
L 720 0 
L 0 0 
z
" style="fill:#ffffff;"/>
  </g>
  <g id="axes_1">
   <g id="patch_2">
    <path d="M 51.05 390.04 
L 699.857273 390.04 
L 699.857273 10.8 
L 51.05 10.8 
z
" style="fill:#ffffff;"/>
   </g>
   <g id="PolyCollection_1">
    <defs>
     <path d="M 80.54124 -392.443059 
L 80.54124 -92.802608 
L 87.094848 -83.77625 
L 100.202066 -86.426001 
L 106.755675 -68.908472 
L 113.309284 -86.768294 
L 119.862893 -86.38078 
L 126.416501 -106.054637 
L 132.97011 -86.930366 
L 139.523719 -99.060468 
L 146.077328 -80.010805 
L 152.630937 -79.792577 
L 159.184545 -90.51309 
L 165.738154 -86.190945 
L 178.845372 -90.908106 
L 185.398981 -98.896878 
L 191.95259 -81.968765 
L 198.506198 -69.803871 
L 205.059807 -83.516457 
L 211.613416 -89.733642 
L 218.167025 -84.469784 
L 224.720634 -96.084942 
L 231.274242 -107.62124 
L 237.827851 -83.003451 
L 244.38146 -72.31869 
L 250.935069 -75.52514 
L 257.488678 -104.008769 
L 264.042287 -96.728234 
L 270.595895 -92.661727 
L 277.149504 -95.515257 
L 283.703113 -72.711529 
L 290.256722 -72.091337 
L 296.810331 -90.151212 
L 303.363939 -79.010557 
L 309.917548 -97.588855 
L 316.471157 -78.05795 
L 323.024766 -88.166135 
L 329.578375 -77.41881 
L 336.131983 -81.599528 
L 342.685592 -78.552515 
L 349.239201 -91.762163 
L 355.79281 -110.676763 
L 368.900028 -93.329337 
L 382.007245 -79.238154 
L 388.560854 -90.018217 
L 395.114463 -95.653093 
L 401.668072 -109.152498 
L 414.775289 -92.599684 
L 421.328898 -82.465868 
L 427.882507 -59.198182 
L 434.436116 -69.486513 
L 447.543333 -96.791748 
L 454.096942 -91.45296 
L 460.650551 -96.429343 
L 467.20416 -82.875541 
L 473.757769 -72.150918 
L 486.864986 -75.843109 
L 493.418595 -96.830549 
L 499.972204 -87.207432 
L 506.525813 -97.363271 
L 513.079421 -78.350502 
L 519.63303 -70.843303 
L 526.186639 -69.128214 
L 532.740248 -79.304778 
L 539.293857 -90.815467 
L 545.847466 -101.224987 
L 552.401074 -96.931344 
L 558.954683 -76.6608 
L 565.508292 -80.022115 
L 572.061901 -87.332479 
L 578.61551 -84.509715 
L 585.169118 -95.68644 
L 591.722727 -88.699152 
L 604.829945 -79.853227 
L 611.383554 -69.898633 
L 617.937163 -84.956133 
L 624.490771 -85.542064 
L 631.04438 -113.413727 
L 637.597989 -79.710726 
L 650.705207 -69.078391 
L 657.258815 -79.099398 
L 663.812424 -72.221718 
L 670.366033 -83.932889 
L 670.366033 -385.42963 
L 670.366033 -385.42963 
L 663.812424 -377.63336 
L 657.258815 -366.366597 
L 650.705207 -379.499185 
L 637.597989 -390.96685 
L 631.04438 -386.331457 
L 624.490771 -380.373363 
L 617.937163 -375.977431 
L 611.383554 -367.718124 
L 604.829945 -369.347405 
L 591.722727 -389.80044 
L 585.169118 -391.916212 
L 578.61551 -372.247184 
L 572.061901 -367.154527 
L 565.508292 -368.878387 
L 558.954683 -375.707342 
L 552.401074 -395.331358 
L 545.847466 -378.275242 
L 539.293857 -395.644427 
L 532.740248 -384.551031 
L 526.186639 -379.531443 
L 519.63303 -361.420129 
L 513.079421 -373.654103 
L 506.525813 -380.754739 
L 499.972204 -374.566723 
L 493.418595 -396.179368 
L 486.864986 -386.198685 
L 473.757769 -367.198121 
L 467.20416 -371.918553 
L 460.650551 -383.715984 
L 454.096942 -392.982272 
L 447.543333 -384.212245 
L 434.436116 -383.16748 
L 427.882507 -366.11439 
L 421.328898 -370.407024 
L 414.775289 -395.350833 
L 401.668072 -403.961818 
L 395.114463 -374.288424 
L 388.560854 -373.013813 
L 382.007245 -375.464849 
L 368.900028 -394.293763 
L 355.79281 -403.453227 
L 349.239201 -387.011226 
L 342.685592 -376.390471 
L 336.131983 -368.604387 
L 329.578375 -370.804478 
L 323.024766 -383.234228 
L 316.471157 -394.776327 
L 309.917548 -394.71147 
L 303.363939 -381.357392 
L 296.810331 -381.903063 
L 290.256722 -365.669707 
L 283.703113 -372.910182 
L 277.149504 -396.179609 
L 270.595895 -387.31469 
L 264.042287 -397.627647 
L 257.488678 -383.715097 
L 250.935069 -389.206922 
L 244.38146 -371.052144 
L 237.827851 -372.508404 
L 231.274242 -398.981226 
L 224.720634 -382.681979 
L 218.167025 -389.950848 
L 211.613416 -390.89096 
L 205.059807 -375.111099 
L 198.506198 -370.620045 
L 191.95259 -365.67404 
L 185.398981 -391.919099 
L 178.845372 -377.157322 
L 165.738154 -399.855471 
L 159.184545 -379.882274 
L 152.630937 -359.899076 
L 146.077328 -379.329522 
L 139.523719 -389.404997 
L 132.97011 -388.490594 
L 126.416501 -396.415706 
L 119.862893 -380.579061 
L 113.309284 -381.011204 
L 106.755675 -371.651771 
L 100.202066 -378.398315 
L 87.094848 -387.223793 
L 80.54124 -392.443059 
z
" id="md0eaab8d37" style="stroke:#0072b2;stroke-opacity:0.2;"/>
    </defs>
    <g clip-path="url(#p8cbb0daeab)">
     <use style="fill:#0072b2;fill-opacity:0.2;stroke:#0072b2;stroke-opacity:0.2;" x="0" xlink:href="#md0eaab8d37" y="432"/>
    </g>
   </g>
   <g id="matplotlib.axis_1">
    <g id="xtick_1">
     <g id="line2d_1">
      <path clip-path="url(#p8cbb0daeab)" d="M 126.416501 390.04 
L 126.416501 10.8 
" style="fill:none;stroke:#808080;stroke-linecap:square;stroke-opacity:0.2;"/>
     </g>
     <g id="line2d_2">
      <defs>
       <path d="M 0 0 
L 0 3.5 
" id="m6ec8249b02" style="stroke:#000000;stroke-width:0.8;"/>
      </defs>
      <g>
       <use style="stroke:#000000;stroke-width:0.8;" x="126.416501" xlink:href="#m6ec8249b02" y="390.04"/>
      </g>
     </g>
     <g id="text_1">
      <!-- 2019-01-08 -->
      <defs>
       <path d="M 19.1875 8.296875 
L 53.609375 8.296875 
L 53.609375 0 
L 7.328125 0 
L 7.328125 8.296875 
Q 12.9375 14.109375 22.625 23.890625 
Q 32.328125 33.6875 34.8125 36.53125 
Q 39.546875 41.84375 41.421875 45.53125 
Q 43.3125 49.21875 43.3125 52.78125 
Q 43.3125 58.59375 39.234375 62.25 
Q 35.15625 65.921875 28.609375 65.921875 
Q 23.96875 65.921875 18.8125 64.3125 
Q 13.671875 62.703125 7.8125 59.421875 
L 7.8125 69.390625 
Q 13.765625 71.78125 18.9375 73 
Q 24.125 74.21875 28.421875 74.21875 
Q 39.75 74.21875 46.484375 68.546875 
Q 53.21875 62.890625 53.21875 53.421875 
Q 53.21875 48.921875 51.53125 44.890625 
Q 49.859375 40.875 45.40625 35.40625 
Q 44.1875 33.984375 37.640625 27.21875 
Q 31.109375 20.453125 19.1875 8.296875 
z
" id="DejaVuSans-50"/>
       <path d="M 31.78125 66.40625 
Q 24.171875 66.40625 20.328125 58.90625 
Q 16.5 51.421875 16.5 36.375 
Q 16.5 21.390625 20.328125 13.890625 
Q 24.171875 6.390625 31.78125 6.390625 
Q 39.453125 6.390625 43.28125 13.890625 
Q 47.125 21.390625 47.125 36.375 
Q 47.125 51.421875 43.28125 58.90625 
Q 39.453125 66.40625 31.78125 66.40625 
z
M 31.78125 74.21875 
Q 44.046875 74.21875 50.515625 64.515625 
Q 56.984375 54.828125 56.984375 36.375 
Q 56.984375 17.96875 50.515625 8.265625 
Q 44.046875 -1.421875 31.78125 -1.421875 
Q 19.53125 -1.421875 13.0625 8.265625 
Q 6.59375 17.96875 6.59375 36.375 
Q 6.59375 54.828125 13.0625 64.515625 
Q 19.53125 74.21875 31.78125 74.21875 
z
" id="DejaVuSans-48"/>
       <path d="M 12.40625 8.296875 
L 28.515625 8.296875 
L 28.515625 63.921875 
L 10.984375 60.40625 
L 10.984375 69.390625 
L 28.421875 72.90625 
L 38.28125 72.90625 
L 38.28125 8.296875 
L 54.390625 8.296875 
L 54.390625 0 
L 12.40625 0 
z
" id="DejaVuSans-49"/>
       <path d="M 10.984375 1.515625 
L 10.984375 10.5 
Q 14.703125 8.734375 18.5 7.8125 
Q 22.3125 6.890625 25.984375 6.890625 
Q 35.75 6.890625 40.890625 13.453125 
Q 46.046875 20.015625 46.78125 33.40625 
Q 43.953125 29.203125 39.59375 26.953125 
Q 35.25 24.703125 29.984375 24.703125 
Q 19.046875 24.703125 12.671875 31.3125 
Q 6.296875 37.9375 6.296875 49.421875 
Q 6.296875 60.640625 12.9375 67.421875 
Q 19.578125 74.21875 30.609375 74.21875 
Q 43.265625 74.21875 49.921875 64.515625 
Q 56.59375 54.828125 56.59375 36.375 
Q 56.59375 19.140625 48.40625 8.859375 
Q 40.234375 -1.421875 26.421875 -1.421875 
Q 22.703125 -1.421875 18.890625 -0.6875 
Q 15.09375 0.046875 10.984375 1.515625 
z
M 30.609375 32.421875 
Q 37.25 32.421875 41.125 36.953125 
Q 45.015625 41.5 45.015625 49.421875 
Q 45.015625 57.28125 41.125 61.84375 
Q 37.25 66.40625 30.609375 66.40625 
Q 23.96875 66.40625 20.09375 61.84375 
Q 16.21875 57.28125 16.21875 49.421875 
Q 16.21875 41.5 20.09375 36.953125 
Q 23.96875 32.421875 30.609375 32.421875 
z
" id="DejaVuSans-57"/>
       <path d="M 4.890625 31.390625 
L 31.203125 31.390625 
L 31.203125 23.390625 
L 4.890625 23.390625 
z
" id="DejaVuSans-45"/>
       <path d="M 31.78125 34.625 
Q 24.75 34.625 20.71875 30.859375 
Q 16.703125 27.09375 16.703125 20.515625 
Q 16.703125 13.921875 20.71875 10.15625 
Q 24.75 6.390625 31.78125 6.390625 
Q 38.8125 6.390625 42.859375 10.171875 
Q 46.921875 13.96875 46.921875 20.515625 
Q 46.921875 27.09375 42.890625 30.859375 
Q 38.875 34.625 31.78125 34.625 
z
M 21.921875 38.8125 
Q 15.578125 40.375 12.03125 44.71875 
Q 8.5 49.078125 8.5 55.328125 
Q 8.5 64.0625 14.71875 69.140625 
Q 20.953125 74.21875 31.78125 74.21875 
Q 42.671875 74.21875 48.875 69.140625 
Q 55.078125 64.0625 55.078125 55.328125 
Q 55.078125 49.078125 51.53125 44.71875 
Q 48 40.375 41.703125 38.8125 
Q 48.828125 37.15625 52.796875 32.3125 
Q 56.78125 27.484375 56.78125 20.515625 
Q 56.78125 9.90625 50.3125 4.234375 
Q 43.84375 -1.421875 31.78125 -1.421875 
Q 19.734375 -1.421875 13.25 4.234375 
Q 6.78125 9.90625 6.78125 20.515625 
Q 6.78125 27.484375 10.78125 32.3125 
Q 14.796875 37.15625 21.921875 38.8125 
z
M 18.3125 54.390625 
Q 18.3125 48.734375 21.84375 45.5625 
Q 25.390625 42.390625 31.78125 42.390625 
Q 38.140625 42.390625 41.71875 45.5625 
Q 45.3125 48.734375 45.3125 54.390625 
Q 45.3125 60.0625 41.71875 63.234375 
Q 38.140625 66.40625 31.78125 66.40625 
Q 25.390625 66.40625 21.84375 63.234375 
Q 18.3125 60.0625 18.3125 54.390625 
z
" id="DejaVuSans-56"/>
      </defs>
      <g transform="translate(97.358689 404.638438)scale(0.1 -0.1)">
       <use xlink:href="#DejaVuSans-50"/>
       <use x="63.623047" xlink:href="#DejaVuSans-48"/>
       <use x="127.246094" xlink:href="#DejaVuSans-49"/>
       <use x="190.869141" xlink:href="#DejaVuSans-57"/>
       <use x="254.492188" xlink:href="#DejaVuSans-45"/>
       <use x="290.576172" xlink:href="#DejaVuSans-48"/>
       <use x="354.199219" xlink:href="#DejaVuSans-49"/>
       <use x="417.822266" xlink:href="#DejaVuSans-45"/>
       <use x="453.90625" xlink:href="#DejaVuSans-48"/>
       <use x="517.529297" xlink:href="#DejaVuSans-56"/>
      </g>
     </g>
    </g>
    <g id="xtick_2">
     <g id="line2d_3">
      <path clip-path="url(#p8cbb0daeab)" d="M 218.167025 390.04 
L 218.167025 10.8 
" style="fill:none;stroke:#808080;stroke-linecap:square;stroke-opacity:0.2;"/>
     </g>
     <g id="line2d_4">
      <g>
       <use style="stroke:#000000;stroke-width:0.8;" x="218.167025" xlink:href="#m6ec8249b02" y="390.04"/>
      </g>
     </g>
     <g id="text_2">
      <!-- 2019-01-22 -->
      <g transform="translate(189.109212 404.638438)scale(0.1 -0.1)">
       <use xlink:href="#DejaVuSans-50"/>
       <use x="63.623047" xlink:href="#DejaVuSans-48"/>
       <use x="127.246094" xlink:href="#DejaVuSans-49"/>
       <use x="190.869141" xlink:href="#DejaVuSans-57"/>
       <use x="254.492188" xlink:href="#DejaVuSans-45"/>
       <use x="290.576172" xlink:href="#DejaVuSans-48"/>
       <use x="354.199219" xlink:href="#DejaVuSans-49"/>
       <use x="417.822266" xlink:href="#DejaVuSans-45"/>
       <use x="453.90625" xlink:href="#DejaVuSans-50"/>
       <use x="517.529297" xlink:href="#DejaVuSans-50"/>
      </g>
     </g>
    </g>
    <g id="xtick_3">
     <g id="line2d_5">
      <path clip-path="url(#p8cbb0daeab)" d="M 309.917548 390.04 
L 309.917548 10.8 
" style="fill:none;stroke:#808080;stroke-linecap:square;stroke-opacity:0.2;"/>
     </g>
     <g id="line2d_6">
      <g>
       <use style="stroke:#000000;stroke-width:0.8;" x="309.917548" xlink:href="#m6ec8249b02" y="390.04"/>
      </g>
     </g>
     <g id="text_3">
      <!-- 2019-02-05 -->
      <defs>
       <path d="M 10.796875 72.90625 
L 49.515625 72.90625 
L 49.515625 64.59375 
L 19.828125 64.59375 
L 19.828125 46.734375 
Q 21.96875 47.46875 24.109375 47.828125 
Q 26.265625 48.1875 28.421875 48.1875 
Q 40.625 48.1875 47.75 41.5 
Q 54.890625 34.8125 54.890625 23.390625 
Q 54.890625 11.625 47.5625 5.09375 
Q 40.234375 -1.421875 26.90625 -1.421875 
Q 22.3125 -1.421875 17.546875 -0.640625 
Q 12.796875 0.140625 7.71875 1.703125 
L 7.71875 11.625 
Q 12.109375 9.234375 16.796875 8.0625 
Q 21.484375 6.890625 26.703125 6.890625 
Q 35.15625 6.890625 40.078125 11.328125 
Q 45.015625 15.765625 45.015625 23.390625 
Q 45.015625 31 40.078125 35.4375 
Q 35.15625 39.890625 26.703125 39.890625 
Q 22.75 39.890625 18.8125 39.015625 
Q 14.890625 38.140625 10.796875 36.28125 
z
" id="DejaVuSans-53"/>
      </defs>
      <g transform="translate(280.859736 404.638438)scale(0.1 -0.1)">
       <use xlink:href="#DejaVuSans-50"/>
       <use x="63.623047" xlink:href="#DejaVuSans-48"/>
       <use x="127.246094" xlink:href="#DejaVuSans-49"/>
       <use x="190.869141" xlink:href="#DejaVuSans-57"/>
       <use x="254.492188" xlink:href="#DejaVuSans-45"/>
       <use x="290.576172" xlink:href="#DejaVuSans-48"/>
       <use x="354.199219" xlink:href="#DejaVuSans-50"/>
       <use x="417.822266" xlink:href="#DejaVuSans-45"/>
       <use x="453.90625" xlink:href="#DejaVuSans-48"/>
       <use x="517.529297" xlink:href="#DejaVuSans-53"/>
      </g>
     </g>
    </g>
    <g id="xtick_4">
     <g id="line2d_7">
      <path clip-path="url(#p8cbb0daeab)" d="M 401.668072 390.04 
L 401.668072 10.8 
" style="fill:none;stroke:#808080;stroke-linecap:square;stroke-opacity:0.2;"/>
     </g>
     <g id="line2d_8">
      <g>
       <use style="stroke:#000000;stroke-width:0.8;" x="401.668072" xlink:href="#m6ec8249b02" y="390.04"/>
      </g>
     </g>
     <g id="text_4">
      <!-- 2019-02-19 -->
      <g transform="translate(372.610259 404.638438)scale(0.1 -0.1)">
       <use xlink:href="#DejaVuSans-50"/>
       <use x="63.623047" xlink:href="#DejaVuSans-48"/>
       <use x="127.246094" xlink:href="#DejaVuSans-49"/>
       <use x="190.869141" xlink:href="#DejaVuSans-57"/>
       <use x="254.492188" xlink:href="#DejaVuSans-45"/>
       <use x="290.576172" xlink:href="#DejaVuSans-48"/>
       <use x="354.199219" xlink:href="#DejaVuSans-50"/>
       <use x="417.822266" xlink:href="#DejaVuSans-45"/>
       <use x="453.90625" xlink:href="#DejaVuSans-49"/>
       <use x="517.529297" xlink:href="#DejaVuSans-57"/>
      </g>
     </g>
    </g>
    <g id="xtick_5">
     <g id="line2d_9">
      <path clip-path="url(#p8cbb0daeab)" d="M 493.418595 390.04 
L 493.418595 10.8 
" style="fill:none;stroke:#808080;stroke-linecap:square;stroke-opacity:0.2;"/>
     </g>
     <g id="line2d_10">
      <g>
       <use style="stroke:#000000;stroke-width:0.8;" x="493.418595" xlink:href="#m6ec8249b02" y="390.04"/>
      </g>
     </g>
     <g id="text_5">
      <!-- 2019-03-05 -->
      <defs>
       <path d="M 40.578125 39.3125 
Q 47.65625 37.796875 51.625 33 
Q 55.609375 28.21875 55.609375 21.1875 
Q 55.609375 10.40625 48.1875 4.484375 
Q 40.765625 -1.421875 27.09375 -1.421875 
Q 22.515625 -1.421875 17.65625 -0.515625 
Q 12.796875 0.390625 7.625 2.203125 
L 7.625 11.71875 
Q 11.71875 9.328125 16.59375 8.109375 
Q 21.484375 6.890625 26.8125 6.890625 
Q 36.078125 6.890625 40.9375 10.546875 
Q 45.796875 14.203125 45.796875 21.1875 
Q 45.796875 27.640625 41.28125 31.265625 
Q 36.765625 34.90625 28.71875 34.90625 
L 20.21875 34.90625 
L 20.21875 43.015625 
L 29.109375 43.015625 
Q 36.375 43.015625 40.234375 45.921875 
Q 44.09375 48.828125 44.09375 54.296875 
Q 44.09375 59.90625 40.109375 62.90625 
Q 36.140625 65.921875 28.71875 65.921875 
Q 24.65625 65.921875 20.015625 65.03125 
Q 15.375 64.15625 9.8125 62.3125 
L 9.8125 71.09375 
Q 15.4375 72.65625 20.34375 73.4375 
Q 25.25 74.21875 29.59375 74.21875 
Q 40.828125 74.21875 47.359375 69.109375 
Q 53.90625 64.015625 53.90625 55.328125 
Q 53.90625 49.265625 50.4375 45.09375 
Q 46.96875 40.921875 40.578125 39.3125 
z
" id="DejaVuSans-51"/>
      </defs>
      <g transform="translate(464.360783 404.638438)scale(0.1 -0.1)">
       <use xlink:href="#DejaVuSans-50"/>
       <use x="63.623047" xlink:href="#DejaVuSans-48"/>
       <use x="127.246094" xlink:href="#DejaVuSans-49"/>
       <use x="190.869141" xlink:href="#DejaVuSans-57"/>
       <use x="254.492188" xlink:href="#DejaVuSans-45"/>
       <use x="290.576172" xlink:href="#DejaVuSans-48"/>
       <use x="354.199219" xlink:href="#DejaVuSans-51"/>
       <use x="417.822266" xlink:href="#DejaVuSans-45"/>
       <use x="453.90625" xlink:href="#DejaVuSans-48"/>
       <use x="517.529297" xlink:href="#DejaVuSans-53"/>
      </g>
     </g>
    </g>
    <g id="xtick_6">
     <g id="line2d_11">
      <path clip-path="url(#p8cbb0daeab)" d="M 585.169118 390.04 
L 585.169118 10.8 
" style="fill:none;stroke:#808080;stroke-linecap:square;stroke-opacity:0.2;"/>
     </g>
     <g id="line2d_12">
      <g>
       <use style="stroke:#000000;stroke-width:0.8;" x="585.169118" xlink:href="#m6ec8249b02" y="390.04"/>
      </g>
     </g>
     <g id="text_6">
      <!-- 2019-03-19 -->
      <g transform="translate(556.111306 404.638438)scale(0.1 -0.1)">
       <use xlink:href="#DejaVuSans-50"/>
       <use x="63.623047" xlink:href="#DejaVuSans-48"/>
       <use x="127.246094" xlink:href="#DejaVuSans-49"/>
       <use x="190.869141" xlink:href="#DejaVuSans-57"/>
       <use x="254.492188" xlink:href="#DejaVuSans-45"/>
       <use x="290.576172" xlink:href="#DejaVuSans-48"/>
       <use x="354.199219" xlink:href="#DejaVuSans-51"/>
       <use x="417.822266" xlink:href="#DejaVuSans-45"/>
       <use x="453.90625" xlink:href="#DejaVuSans-49"/>
       <use x="517.529297" xlink:href="#DejaVuSans-57"/>
      </g>
     </g>
    </g>
    <g id="xtick_7">
     <g id="line2d_13">
      <path clip-path="url(#p8cbb0daeab)" d="M 676.919642 390.04 
L 676.919642 10.8 
" style="fill:none;stroke:#808080;stroke-linecap:square;stroke-opacity:0.2;"/>
     </g>
     <g id="line2d_14">
      <g>
       <use style="stroke:#000000;stroke-width:0.8;" x="676.919642" xlink:href="#m6ec8249b02" y="390.04"/>
      </g>
     </g>
     <g id="text_7">
      <!-- 2019-04-02 -->
      <defs>
       <path d="M 37.796875 64.3125 
L 12.890625 25.390625 
L 37.796875 25.390625 
z
M 35.203125 72.90625 
L 47.609375 72.90625 
L 47.609375 25.390625 
L 58.015625 25.390625 
L 58.015625 17.1875 
L 47.609375 17.1875 
L 47.609375 0 
L 37.796875 0 
L 37.796875 17.1875 
L 4.890625 17.1875 
L 4.890625 26.703125 
z
" id="DejaVuSans-52"/>
      </defs>
      <g transform="translate(647.861829 404.638438)scale(0.1 -0.1)">
       <use xlink:href="#DejaVuSans-50"/>
       <use x="63.623047" xlink:href="#DejaVuSans-48"/>
       <use x="127.246094" xlink:href="#DejaVuSans-49"/>
       <use x="190.869141" xlink:href="#DejaVuSans-57"/>
       <use x="254.492188" xlink:href="#DejaVuSans-45"/>
       <use x="290.576172" xlink:href="#DejaVuSans-48"/>
       <use x="354.199219" xlink:href="#DejaVuSans-52"/>
       <use x="417.822266" xlink:href="#DejaVuSans-45"/>
       <use x="453.90625" xlink:href="#DejaVuSans-48"/>
       <use x="517.529297" xlink:href="#DejaVuSans-50"/>
      </g>
     </g>
    </g>
    <g id="text_8">
     <!-- ds -->
     <defs>
      <path d="M 45.40625 46.390625 
L 45.40625 75.984375 
L 54.390625 75.984375 
L 54.390625 0 
L 45.40625 0 
L 45.40625 8.203125 
Q 42.578125 3.328125 38.25 0.953125 
Q 33.9375 -1.421875 27.875 -1.421875 
Q 17.96875 -1.421875 11.734375 6.484375 
Q 5.515625 14.40625 5.515625 27.296875 
Q 5.515625 40.1875 11.734375 48.09375 
Q 17.96875 56 27.875 56 
Q 33.9375 56 38.25 53.625 
Q 42.578125 51.265625 45.40625 46.390625 
z
M 14.796875 27.296875 
Q 14.796875 17.390625 18.875 11.75 
Q 22.953125 6.109375 30.078125 6.109375 
Q 37.203125 6.109375 41.296875 11.75 
Q 45.40625 17.390625 45.40625 27.296875 
Q 45.40625 37.203125 41.296875 42.84375 
Q 37.203125 48.484375 30.078125 48.484375 
Q 22.953125 48.484375 18.875 42.84375 
Q 14.796875 37.203125 14.796875 27.296875 
z
" id="DejaVuSans-100"/>
      <path d="M 44.28125 53.078125 
L 44.28125 44.578125 
Q 40.484375 46.53125 36.375 47.5 
Q 32.28125 48.484375 27.875 48.484375 
Q 21.1875 48.484375 17.84375 46.4375 
Q 14.5 44.390625 14.5 40.28125 
Q 14.5 37.15625 16.890625 35.375 
Q 19.28125 33.59375 26.515625 31.984375 
L 29.59375 31.296875 
Q 39.15625 29.25 43.1875 25.515625 
Q 47.21875 21.78125 47.21875 15.09375 
Q 47.21875 7.46875 41.1875 3.015625 
Q 35.15625 -1.421875 24.609375 -1.421875 
Q 20.21875 -1.421875 15.453125 -0.5625 
Q 10.6875 0.296875 5.421875 2 
L 5.421875 11.28125 
Q 10.40625 8.6875 15.234375 7.390625 
Q 20.0625 6.109375 24.8125 6.109375 
Q 31.15625 6.109375 34.5625 8.28125 
Q 37.984375 10.453125 37.984375 14.40625 
Q 37.984375 18.0625 35.515625 20.015625 
Q 33.0625 21.96875 24.703125 23.78125 
L 21.578125 24.515625 
Q 13.234375 26.265625 9.515625 29.90625 
Q 5.8125 33.546875 5.8125 39.890625 
Q 5.8125 47.609375 11.28125 51.796875 
Q 16.75 56 26.8125 56 
Q 31.78125 56 36.171875 55.265625 
Q 40.578125 54.546875 44.28125 53.078125 
z
" id="DejaVuSans-115"/>
     </defs>
     <g transform="translate(369.67473 418.316562)scale(0.1 -0.1)">
      <use xlink:href="#DejaVuSans-100"/>
      <use x="63.476562" xlink:href="#DejaVuSans-115"/>
     </g>
    </g>
   </g>
   <g id="matplotlib.axis_2">
    <g id="ytick_1">
     <g id="line2d_15">
      <path clip-path="url(#p8cbb0daeab)" d="M 51.05 371.14771 
L 699.857273 371.14771 
" style="fill:none;stroke:#808080;stroke-linecap:square;stroke-opacity:0.2;"/>
     </g>
     <g id="line2d_16">
      <defs>
       <path d="M 0 0 
L -3.5 0 
" id="m1736e76f23" style="stroke:#000000;stroke-width:0.8;"/>
      </defs>
      <g>
       <use style="stroke:#000000;stroke-width:0.8;" x="51.05" xlink:href="#m1736e76f23" y="371.14771"/>
      </g>
     </g>
     <g id="text_9">
      <!-- 100 -->
      <g transform="translate(24.9625 374.946929)scale(0.1 -0.1)">
       <use xlink:href="#DejaVuSans-49"/>
       <use x="63.623047" xlink:href="#DejaVuSans-48"/>
       <use x="127.246094" xlink:href="#DejaVuSans-48"/>
      </g>
     </g>
    </g>
    <g id="ytick_2">
     <g id="line2d_17">
      <path clip-path="url(#p8cbb0daeab)" d="M 51.05 328.690326 
L 699.857273 328.690326 
" style="fill:none;stroke:#808080;stroke-linecap:square;stroke-opacity:0.2;"/>
     </g>
     <g id="line2d_18">
      <g>
       <use style="stroke:#000000;stroke-width:0.8;" x="51.05" xlink:href="#m1736e76f23" y="328.690326"/>
      </g>
     </g>
     <g id="text_10">
      <!-- 120 -->
      <g transform="translate(24.9625 332.489545)scale(0.1 -0.1)">
       <use xlink:href="#DejaVuSans-49"/>
       <use x="63.623047" xlink:href="#DejaVuSans-50"/>
       <use x="127.246094" xlink:href="#DejaVuSans-48"/>
      </g>
     </g>
    </g>
    <g id="ytick_3">
     <g id="line2d_19">
      <path clip-path="url(#p8cbb0daeab)" d="M 51.05 286.232942 
L 699.857273 286.232942 
" style="fill:none;stroke:#808080;stroke-linecap:square;stroke-opacity:0.2;"/>
     </g>
     <g id="line2d_20">
      <g>
       <use style="stroke:#000000;stroke-width:0.8;" x="51.05" xlink:href="#m1736e76f23" y="286.232942"/>
      </g>
     </g>
     <g id="text_11">
      <!-- 140 -->
      <g transform="translate(24.9625 290.03216)scale(0.1 -0.1)">
       <use xlink:href="#DejaVuSans-49"/>
       <use x="63.623047" xlink:href="#DejaVuSans-52"/>
       <use x="127.246094" xlink:href="#DejaVuSans-48"/>
      </g>
     </g>
    </g>
    <g id="ytick_4">
     <g id="line2d_21">
      <path clip-path="url(#p8cbb0daeab)" d="M 51.05 243.775557 
L 699.857273 243.775557 
" style="fill:none;stroke:#808080;stroke-linecap:square;stroke-opacity:0.2;"/>
     </g>
     <g id="line2d_22">
      <g>
       <use style="stroke:#000000;stroke-width:0.8;" x="51.05" xlink:href="#m1736e76f23" y="243.775557"/>
      </g>
     </g>
     <g id="text_12">
      <!-- 160 -->
      <defs>
       <path d="M 33.015625 40.375 
Q 26.375 40.375 22.484375 35.828125 
Q 18.609375 31.296875 18.609375 23.390625 
Q 18.609375 15.53125 22.484375 10.953125 
Q 26.375 6.390625 33.015625 6.390625 
Q 39.65625 6.390625 43.53125 10.953125 
Q 47.40625 15.53125 47.40625 23.390625 
Q 47.40625 31.296875 43.53125 35.828125 
Q 39.65625 40.375 33.015625 40.375 
z
M 52.59375 71.296875 
L 52.59375 62.3125 
Q 48.875 64.0625 45.09375 64.984375 
Q 41.3125 65.921875 37.59375 65.921875 
Q 27.828125 65.921875 22.671875 59.328125 
Q 17.53125 52.734375 16.796875 39.40625 
Q 19.671875 43.65625 24.015625 45.921875 
Q 28.375 48.1875 33.59375 48.1875 
Q 44.578125 48.1875 50.953125 41.515625 
Q 57.328125 34.859375 57.328125 23.390625 
Q 57.328125 12.15625 50.6875 5.359375 
Q 44.046875 -1.421875 33.015625 -1.421875 
Q 20.359375 -1.421875 13.671875 8.265625 
Q 6.984375 17.96875 6.984375 36.375 
Q 6.984375 53.65625 15.1875 63.9375 
Q 23.390625 74.21875 37.203125 74.21875 
Q 40.921875 74.21875 44.703125 73.484375 
Q 48.484375 72.75 52.59375 71.296875 
z
" id="DejaVuSans-54"/>
      </defs>
      <g transform="translate(24.9625 247.574776)scale(0.1 -0.1)">
       <use xlink:href="#DejaVuSans-49"/>
       <use x="63.623047" xlink:href="#DejaVuSans-54"/>
       <use x="127.246094" xlink:href="#DejaVuSans-48"/>
      </g>
     </g>
    </g>
    <g id="ytick_5">
     <g id="line2d_23">
      <path clip-path="url(#p8cbb0daeab)" d="M 51.05 201.318173 
L 699.857273 201.318173 
" style="fill:none;stroke:#808080;stroke-linecap:square;stroke-opacity:0.2;"/>
     </g>
     <g id="line2d_24">
      <g>
       <use style="stroke:#000000;stroke-width:0.8;" x="51.05" xlink:href="#m1736e76f23" y="201.318173"/>
      </g>
     </g>
     <g id="text_13">
      <!-- 180 -->
      <g transform="translate(24.9625 205.117392)scale(0.1 -0.1)">
       <use xlink:href="#DejaVuSans-49"/>
       <use x="63.623047" xlink:href="#DejaVuSans-56"/>
       <use x="127.246094" xlink:href="#DejaVuSans-48"/>
      </g>
     </g>
    </g>
    <g id="ytick_6">
     <g id="line2d_25">
      <path clip-path="url(#p8cbb0daeab)" d="M 51.05 158.860789 
L 699.857273 158.860789 
" style="fill:none;stroke:#808080;stroke-linecap:square;stroke-opacity:0.2;"/>
     </g>
     <g id="line2d_26">
      <g>
       <use style="stroke:#000000;stroke-width:0.8;" x="51.05" xlink:href="#m1736e76f23" y="158.860789"/>
      </g>
     </g>
     <g id="text_14">
      <!-- 200 -->
      <g transform="translate(24.9625 162.660007)scale(0.1 -0.1)">
       <use xlink:href="#DejaVuSans-50"/>
       <use x="63.623047" xlink:href="#DejaVuSans-48"/>
       <use x="127.246094" xlink:href="#DejaVuSans-48"/>
      </g>
     </g>
    </g>
    <g id="ytick_7">
     <g id="line2d_27">
      <path clip-path="url(#p8cbb0daeab)" d="M 51.05 116.403404 
L 699.857273 116.403404 
" style="fill:none;stroke:#808080;stroke-linecap:square;stroke-opacity:0.2;"/>
     </g>
     <g id="line2d_28">
      <g>
       <use style="stroke:#000000;stroke-width:0.8;" x="51.05" xlink:href="#m1736e76f23" y="116.403404"/>
      </g>
     </g>
     <g id="text_15">
      <!-- 220 -->
      <g transform="translate(24.9625 120.202623)scale(0.1 -0.1)">
       <use xlink:href="#DejaVuSans-50"/>
       <use x="63.623047" xlink:href="#DejaVuSans-50"/>
       <use x="127.246094" xlink:href="#DejaVuSans-48"/>
      </g>
     </g>
    </g>
    <g id="ytick_8">
     <g id="line2d_29">
      <path clip-path="url(#p8cbb0daeab)" d="M 51.05 73.94602 
L 699.857273 73.94602 
" style="fill:none;stroke:#808080;stroke-linecap:square;stroke-opacity:0.2;"/>
     </g>
     <g id="line2d_30">
      <g>
       <use style="stroke:#000000;stroke-width:0.8;" x="51.05" xlink:href="#m1736e76f23" y="73.94602"/>
      </g>
     </g>
     <g id="text_16">
      <!-- 240 -->
      <g transform="translate(24.9625 77.745239)scale(0.1 -0.1)">
       <use xlink:href="#DejaVuSans-50"/>
       <use x="63.623047" xlink:href="#DejaVuSans-52"/>
       <use x="127.246094" xlink:href="#DejaVuSans-48"/>
      </g>
     </g>
    </g>
    <g id="ytick_9">
     <g id="line2d_31">
      <path clip-path="url(#p8cbb0daeab)" d="M 51.05 31.488635 
L 699.857273 31.488635 
" style="fill:none;stroke:#808080;stroke-linecap:square;stroke-opacity:0.2;"/>
     </g>
     <g id="line2d_32">
      <g>
       <use style="stroke:#000000;stroke-width:0.8;" x="51.05" xlink:href="#m1736e76f23" y="31.488635"/>
      </g>
     </g>
     <g id="text_17">
      <!-- 260 -->
      <g transform="translate(24.9625 35.287854)scale(0.1 -0.1)">
       <use xlink:href="#DejaVuSans-50"/>
       <use x="63.623047" xlink:href="#DejaVuSans-54"/>
       <use x="127.246094" xlink:href="#DejaVuSans-48"/>
      </g>
     </g>
    </g>
    <g id="text_18">
     <!-- y -->
     <defs>
      <path d="M 32.171875 -5.078125 
Q 28.375 -14.84375 24.75 -17.8125 
Q 21.140625 -20.796875 15.09375 -20.796875 
L 7.90625 -20.796875 
L 7.90625 -13.28125 
L 13.1875 -13.28125 
Q 16.890625 -13.28125 18.9375 -11.515625 
Q 21 -9.765625 23.484375 -3.21875 
L 25.09375 0.875 
L 2.984375 54.6875 
L 12.5 54.6875 
L 29.59375 11.921875 
L 46.6875 54.6875 
L 56.203125 54.6875 
z
" id="DejaVuSans-121"/>
     </defs>
     <g transform="translate(18.882812 203.379375)rotate(-90)scale(0.1 -0.1)">
      <use xlink:href="#DejaVuSans-121"/>
     </g>
    </g>
   </g>
   <g id="line2d_33">
    <defs>
     <path d="M 0 1.5 
C 0.397805 1.5 0.77937 1.341951 1.06066 1.06066 
C 1.341951 0.77937 1.5 0.397805 1.5 0 
C 1.5 -0.397805 1.341951 -0.77937 1.06066 -1.06066 
C 0.77937 -1.341951 0.397805 -1.5 0 -1.5 
C -0.397805 -1.5 -0.77937 -1.341951 -1.06066 -1.06066 
C -1.341951 -0.77937 -1.5 -0.397805 -1.5 0 
C -1.5 0.397805 -1.341951 0.77937 -1.06066 1.06066 
C -0.77937 1.341951 -0.397805 1.5 0 1.5 
z
" id="ma5ed2adf47" style="stroke:#000000;"/>
    </defs>
    <g clip-path="url(#p8cbb0daeab)">
     <use style="stroke:#000000;" x="80.54124" xlink:href="#ma5ed2adf47" y="42.102982"/>
     <use style="stroke:#000000;" x="87.094848" xlink:href="#ma5ed2adf47" y="294.724418"/>
     <use style="stroke:#000000;" x="100.202066" xlink:href="#ma5ed2adf47" y="42.102982"/>
     <use style="stroke:#000000;" x="106.755675" xlink:href="#ma5ed2adf47" y="286.232942"/>
     <use style="stroke:#000000;" x="113.309284" xlink:href="#ma5ed2adf47" y="277.741465"/>
     <use style="stroke:#000000;" x="119.862893" xlink:href="#ma5ed2adf47" y="42.102982"/>
     <use style="stroke:#000000;" x="126.416501" xlink:href="#ma5ed2adf47" y="281.987203"/>
     <use style="stroke:#000000;" x="132.97011" xlink:href="#ma5ed2adf47" y="281.987203"/>
     <use style="stroke:#000000;" x="139.523719" xlink:href="#ma5ed2adf47" y="42.102982"/>
     <use style="stroke:#000000;" x="146.077328" xlink:href="#ma5ed2adf47" y="286.232942"/>
     <use style="stroke:#000000;" x="152.630937" xlink:href="#ma5ed2adf47" y="281.987203"/>
     <use style="stroke:#000000;" x="159.184545" xlink:href="#ma5ed2adf47" y="42.102982"/>
     <use style="stroke:#000000;" x="165.738154" xlink:href="#ma5ed2adf47" y="296.847288"/>
     <use style="stroke:#000000;" x="178.845372" xlink:href="#ma5ed2adf47" y="42.102982"/>
     <use style="stroke:#000000;" x="185.398981" xlink:href="#ma5ed2adf47" y="284.110072"/>
     <use style="stroke:#000000;" x="191.95259" xlink:href="#ma5ed2adf47" y="273.495726"/>
     <use style="stroke:#000000;" x="198.506198" xlink:href="#ma5ed2adf47" y="42.102982"/>
     <use style="stroke:#000000;" x="205.059807" xlink:href="#ma5ed2adf47" y="286.232942"/>
     <use style="stroke:#000000;" x="211.613416" xlink:href="#ma5ed2adf47" y="286.232942"/>
     <use style="stroke:#000000;" x="218.167025" xlink:href="#ma5ed2adf47" y="42.102982"/>
     <use style="stroke:#000000;" x="224.720634" xlink:href="#ma5ed2adf47" y="286.232942"/>
     <use style="stroke:#000000;" x="231.274242" xlink:href="#ma5ed2adf47" y="281.987203"/>
     <use style="stroke:#000000;" x="237.827851" xlink:href="#ma5ed2adf47" y="42.102982"/>
     <use style="stroke:#000000;" x="244.38146" xlink:href="#ma5ed2adf47" y="277.741465"/>
     <use style="stroke:#000000;" x="250.935069" xlink:href="#ma5ed2adf47" y="279.864334"/>
     <use style="stroke:#000000;" x="257.488678" xlink:href="#ma5ed2adf47" y="42.102982"/>
     <use style="stroke:#000000;" x="264.042287" xlink:href="#ma5ed2adf47" y="281.987203"/>
     <use style="stroke:#000000;" x="270.595895" xlink:href="#ma5ed2adf47" y="277.741465"/>
     <use style="stroke:#000000;" x="277.149504" xlink:href="#ma5ed2adf47" y="42.102982"/>
     <use style="stroke:#000000;" x="283.703113" xlink:href="#ma5ed2adf47" y="279.864334"/>
     <use style="stroke:#000000;" x="290.256722" xlink:href="#ma5ed2adf47" y="290.47868"/>
     <use style="stroke:#000000;" x="296.810331" xlink:href="#ma5ed2adf47" y="42.102982"/>
     <use style="stroke:#000000;" x="303.363939" xlink:href="#ma5ed2adf47" y="288.355811"/>
     <use style="stroke:#000000;" x="309.917548" xlink:href="#ma5ed2adf47" y="292.601549"/>
     <use style="stroke:#000000;" x="316.471157" xlink:href="#ma5ed2adf47" y="42.102982"/>
     <use style="stroke:#000000;" x="323.024766" xlink:href="#ma5ed2adf47" y="298.970157"/>
     <use style="stroke:#000000;" x="329.578375" xlink:href="#ma5ed2adf47" y="279.864334"/>
     <use style="stroke:#000000;" x="336.131983" xlink:href="#ma5ed2adf47" y="42.102982"/>
     <use style="stroke:#000000;" x="342.685592" xlink:href="#ma5ed2adf47" y="275.618595"/>
     <use style="stroke:#000000;" x="349.239201" xlink:href="#ma5ed2adf47" y="294.724418"/>
     <use style="stroke:#000000;" x="355.79281" xlink:href="#ma5ed2adf47" y="42.102982"/>
     <use style="stroke:#000000;" x="368.900028" xlink:href="#ma5ed2adf47" y="281.987203"/>
     <use style="stroke:#000000;" x="382.007245" xlink:href="#ma5ed2adf47" y="284.110072"/>
     <use style="stroke:#000000;" x="388.560854" xlink:href="#ma5ed2adf47" y="281.987203"/>
     <use style="stroke:#000000;" x="395.114463" xlink:href="#ma5ed2adf47" y="42.102982"/>
     <use style="stroke:#000000;" x="401.668072" xlink:href="#ma5ed2adf47" y="286.232942"/>
     <use style="stroke:#000000;" x="414.775289" xlink:href="#ma5ed2adf47" y="42.102982"/>
     <use style="stroke:#000000;" x="421.328898" xlink:href="#ma5ed2adf47" y="290.47868"/>
     <use style="stroke:#000000;" x="427.882507" xlink:href="#ma5ed2adf47" y="284.110072"/>
     <use style="stroke:#000000;" x="434.436116" xlink:href="#ma5ed2adf47" y="42.102982"/>
     <use style="stroke:#000000;" x="447.543333" xlink:href="#ma5ed2adf47" y="281.987203"/>
     <use style="stroke:#000000;" x="454.096942" xlink:href="#ma5ed2adf47" y="42.102982"/>
     <use style="stroke:#000000;" x="460.650551" xlink:href="#ma5ed2adf47" y="281.987203"/>
     <use style="stroke:#000000;" x="467.20416" xlink:href="#ma5ed2adf47" y="290.47868"/>
     <use style="stroke:#000000;" x="473.757769" xlink:href="#ma5ed2adf47" y="42.102982"/>
     <use style="stroke:#000000;" x="486.864986" xlink:href="#ma5ed2adf47" y="290.47868"/>
     <use style="stroke:#000000;" x="493.418595" xlink:href="#ma5ed2adf47" y="42.102982"/>
     <use style="stroke:#000000;" x="499.972204" xlink:href="#ma5ed2adf47" y="281.987203"/>
     <use style="stroke:#000000;" x="506.525813" xlink:href="#ma5ed2adf47" y="284.110072"/>
     <use style="stroke:#000000;" x="513.079421" xlink:href="#ma5ed2adf47" y="42.102982"/>
     <use style="stroke:#000000;" x="519.63303" xlink:href="#ma5ed2adf47" y="290.47868"/>
     <use style="stroke:#000000;" x="526.186639" xlink:href="#ma5ed2adf47" y="275.618595"/>
     <use style="stroke:#000000;" x="532.740248" xlink:href="#ma5ed2adf47" y="42.102982"/>
     <use style="stroke:#000000;" x="539.293857" xlink:href="#ma5ed2adf47" y="288.355811"/>
     <use style="stroke:#000000;" x="545.847466" xlink:href="#ma5ed2adf47" y="279.864334"/>
     <use style="stroke:#000000;" x="552.401074" xlink:href="#ma5ed2adf47" y="42.102982"/>
     <use style="stroke:#000000;" x="558.954683" xlink:href="#ma5ed2adf47" y="281.987203"/>
     <use style="stroke:#000000;" x="565.508292" xlink:href="#ma5ed2adf47" y="284.110072"/>
     <use style="stroke:#000000;" x="572.061901" xlink:href="#ma5ed2adf47" y="42.102982"/>
     <use style="stroke:#000000;" x="578.61551" xlink:href="#ma5ed2adf47" y="286.232942"/>
     <use style="stroke:#000000;" x="585.169118" xlink:href="#ma5ed2adf47" y="277.741465"/>
     <use style="stroke:#000000;" x="591.722727" xlink:href="#ma5ed2adf47" y="42.102982"/>
     <use style="stroke:#000000;" x="604.829945" xlink:href="#ma5ed2adf47" y="286.232942"/>
     <use style="stroke:#000000;" x="611.383554" xlink:href="#ma5ed2adf47" y="42.102982"/>
     <use style="stroke:#000000;" x="617.937163" xlink:href="#ma5ed2adf47" y="290.47868"/>
     <use style="stroke:#000000;" x="624.490771" xlink:href="#ma5ed2adf47" y="288.355811"/>
     <use style="stroke:#000000;" x="631.04438" xlink:href="#ma5ed2adf47" y="42.102982"/>
     <use style="stroke:#000000;" x="637.597989" xlink:href="#ma5ed2adf47" y="288.355811"/>
     <use style="stroke:#000000;" x="650.705207" xlink:href="#ma5ed2adf47" y="42.102982"/>
     <use style="stroke:#000000;" x="657.258815" xlink:href="#ma5ed2adf47" y="281.987203"/>
     <use style="stroke:#000000;" x="663.812424" xlink:href="#ma5ed2adf47" y="286.232942"/>
    </g>
   </g>
   <g id="line2d_34">
    <path clip-path="url(#p8cbb0daeab)" d="M 80.54124 180.630608 
L 87.094848 193.655386 
L 100.202066 200.390972 
L 106.755675 207.280943 
L 113.309284 199.197412 
L 119.862893 197.587573 
L 126.416501 181.070525 
L 132.97011 194.095302 
L 139.523719 186.239194 
L 146.077328 200.830888 
L 152.630937 207.72086 
L 159.184545 199.637329 
L 165.738154 198.02749 
L 178.845372 194.535219 
L 185.398981 186.679111 
L 191.95259 201.270805 
L 198.506198 208.160777 
L 205.059807 200.077245 
L 211.613416 198.467406 
L 218.167025 181.950358 
L 224.720634 194.975135 
L 231.274242 187.119027 
L 237.827851 201.710722 
L 244.38146 208.600693 
L 250.935069 200.517162 
L 257.488678 198.907323 
L 264.042287 182.390275 
L 270.595895 195.415052 
L 277.149504 187.558944 
L 283.703113 202.150638 
L 290.256722 209.04061 
L 296.810331 200.957079 
L 303.363939 199.34724 
L 309.917548 182.830191 
L 316.471157 195.854969 
L 323.024766 187.998861 
L 329.578375 202.590555 
L 336.131983 209.480527 
L 342.685592 201.396995 
L 349.239201 199.787156 
L 355.79281 183.270108 
L 368.900028 188.438777 
L 382.007245 209.920443 
L 388.560854 201.836912 
L 395.114463 200.227073 
L 401.668072 183.710025 
L 414.775289 188.878694 
L 421.328898 203.470388 
L 427.882507 210.36036 
L 434.436116 202.276828 
L 447.543333 184.149941 
L 454.096942 197.174719 
L 460.650551 189.318611 
L 467.20416 203.910305 
L 473.757769 210.800277 
L 486.864986 201.106906 
L 493.418595 184.589858 
L 499.972204 197.614635 
L 506.525813 189.758527 
L 513.079421 204.350221 
L 519.63303 211.240193 
L 526.186639 203.156662 
L 532.740248 201.546823 
L 539.293857 185.029775 
L 545.847466 198.054552 
L 552.401074 190.198444 
L 558.954683 204.790138 
L 565.508292 211.68011 
L 572.061901 203.596578 
L 578.61551 201.98674 
L 585.169118 185.469691 
L 591.722727 198.494469 
L 604.829945 205.230055 
L 611.383554 212.120026 
L 617.937163 204.036495 
L 624.490771 202.426656 
L 631.04438 185.909608 
L 637.597989 198.934385 
L 650.705207 205.669971 
L 657.258815 212.559943 
L 663.812424 204.476412 
L 670.366033 202.866573 
" style="fill:none;stroke:#0072b2;stroke-linecap:square;stroke-width:1.5;"/>
   </g>
   <g id="patch_3">
    <path d="M 51.05 390.04 
L 51.05 10.8 
" style="fill:none;stroke:#000000;stroke-linecap:square;stroke-linejoin:miter;stroke-width:0.8;"/>
   </g>
   <g id="patch_4">
    <path d="M 699.857273 390.04 
L 699.857273 10.8 
" style="fill:none;stroke:#000000;stroke-linecap:square;stroke-linejoin:miter;stroke-width:0.8;"/>
   </g>
   <g id="patch_5">
    <path d="M 51.05 390.04 
L 699.857273 390.04 
" style="fill:none;stroke:#000000;stroke-linecap:square;stroke-linejoin:miter;stroke-width:0.8;"/>
   </g>
   <g id="patch_6">
    <path d="M 51.05 10.8 
L 699.857273 10.8 
" style="fill:none;stroke:#000000;stroke-linecap:square;stroke-linejoin:miter;stroke-width:0.8;"/>
   </g>
  </g>
 </g>
 <defs>
  <clipPath id="p8cbb0daeab">
   <rect height="379.24" width="648.807273" x="51.05" y="10.8"/>
  </clipPath>
 </defs>
</svg>
