<?xml version="1.0" encoding="utf-8" standalone="no"?>
<!DOCTYPE svg PUBLIC "-//W3C//DTD SVG 1.1//EN"
  "http://www.w3.org/Graphics/SVG/1.1/DTD/svg11.dtd">
<!-- Created with matplotlib (https://matplotlib.org/) -->
<svg height="432pt" version="1.1" viewBox="0 0 720 432" width="720pt" xmlns="http://www.w3.org/2000/svg" xmlns:xlink="http://www.w3.org/1999/xlink">
 <defs>
  <style type="text/css">
*{stroke-linecap:butt;stroke-linejoin:round;}
  </style>
 </defs>
 <g id="figure_1">
  <g id="patch_1">
   <path d="M 0 432 
L 720 432 
L 720 0 
L 0 0 
z
" style="fill:#ffffff;"/>
  </g>
  <g id="axes_1">
   <g id="patch_2">
    <path d="M 51.05 390.04 
L 699.857273 390.04 
L 699.857273 10.8 
L 51.05 10.8 
z
" style="fill:#ffffff;"/>
   </g>
   <g id="PolyCollection_1">
    <defs>
     <path d="M 80.54124 -394.261174 
L 80.54124 -89.509203 
L 87.094848 -94.947353 
L 100.202066 -85.572847 
L 106.755675 -79.514903 
L 113.309284 -82.687043 
L 119.862893 -92.398757 
L 126.416501 -98.462788 
L 132.97011 -95.743721 
L 139.523719 -96.359249 
L 146.077328 -83.16411 
L 152.630937 -76.766518 
L 159.184545 -65.706772 
L 165.738154 -78.032249 
L 178.845372 -94.788593 
L 185.398981 -94.296557 
L 191.95259 -85.744505 
L 198.506198 -72.105509 
L 205.059807 -68.993676 
L 211.613416 -90.689724 
L 218.167025 -100.586374 
L 224.720634 -90.371195 
L 231.274242 -87.859933 
L 237.827851 -93.240901 
L 244.38146 -76.456026 
L 250.935069 -87.521775 
L 257.488678 -79.057632 
L 264.042287 -95.235547 
L 270.595895 -78.662644 
L 277.149504 -94.429594 
L 283.703113 -79.600998 
L 290.256722 -85.716642 
L 296.810331 -68.594233 
L 303.363939 -74.386872 
L 309.917548 -101.492903 
L 316.471157 -97.184949 
L 323.024766 -93.674779 
L 329.578375 -79.005073 
L 336.131983 -59.198182 
L 342.685592 -77.631811 
L 349.239201 -76.859145 
L 355.79281 -96.653658 
L 368.900028 -84.959409 
L 382.007245 -65.933429 
L 388.560854 -96.605757 
L 395.114463 -79.528745 
L 401.668072 -93.691006 
L 414.775289 -82.999709 
L 421.328898 -80.209223 
L 427.882507 -61.465173 
L 434.436116 -77.032307 
L 447.543333 -92.650169 
L 454.096942 -82.846976 
L 460.650551 -88.477598 
L 467.20416 -77.536266 
L 473.757769 -67.262797 
L 486.864986 -72.734609 
L 493.418595 -83.498086 
L 499.972204 -81.328282 
L 506.525813 -98.466311 
L 513.079421 -60.127634 
L 519.63303 -69.122099 
L 526.186639 -77.040008 
L 532.740248 -78.474102 
L 539.293857 -90.97467 
L 545.847466 -67.224538 
L 552.401074 -90.135014 
L 558.954683 -77.810457 
L 565.508292 -71.261179 
L 572.061901 -67.943544 
L 578.61551 -79.835303 
L 585.169118 -97.573439 
L 591.722727 -88.246577 
L 604.829945 -67.998189 
L 611.383554 -72.796148 
L 617.937163 -74.176827 
L 624.490771 -80.354416 
L 631.04438 -86.352275 
L 637.597989 -88.513866 
L 650.705207 -78.263242 
L 657.258815 -72.452663 
L 663.812424 -75.230061 
L 670.366033 -81.217673 
L 670.366033 -370.932567 
L 670.366033 -370.932567 
L 663.812424 -381.419707 
L 657.258815 -362.63801 
L 650.705207 -383.602585 
L 637.597989 -382.397345 
L 631.04438 -391.503674 
L 624.490771 -373.286382 
L 617.937163 -374.474799 
L 611.383554 -367.484521 
L 604.829945 -380.475444 
L 591.722727 -385.307009 
L 585.169118 -387.123297 
L 578.61551 -377.411339 
L 572.061901 -379.366991 
L 565.508292 -358.055226 
L 558.954683 -371.308601 
L 552.401074 -384.476903 
L 545.847466 -377.109774 
L 539.293857 -396.24658 
L 532.740248 -384.879113 
L 526.186639 -382.389342 
L 519.63303 -363.100522 
L 513.079421 -375.810761 
L 506.525813 -381.30504 
L 499.972204 -385.086292 
L 493.418595 -391.454767 
L 486.864986 -377.650776 
L 473.757769 -363.401629 
L 467.20416 -372.645588 
L 460.650551 -385.223588 
L 454.096942 -372.999104 
L 447.543333 -403.961818 
L 434.436116 -372.512524 
L 427.882507 -358.174589 
L 421.328898 -366.0561 
L 414.775289 -379.900539 
L 401.668072 -392.733094 
L 395.114463 -369.555026 
L 388.560854 -369.156859 
L 382.007245 -349.237259 
L 368.900028 -377.752331 
L 355.79281 -388.746651 
L 349.239201 -382.048215 
L 342.685592 -361.596303 
L 336.131983 -372.198936 
L 329.578375 -380.568583 
L 323.024766 -387.530457 
L 316.471157 -379.67743 
L 309.917548 -398.338648 
L 303.363939 -391.134415 
L 296.810331 -379.38532 
L 290.256722 -367.23832 
L 283.703113 -376.894988 
L 277.149504 -390.380575 
L 270.595895 -375.665684 
L 264.042287 -391.566871 
L 257.488678 -365.990304 
L 250.935069 -373.9253 
L 244.38146 -363.837841 
L 237.827851 -378.394022 
L 231.274242 -380.629888 
L 224.720634 -379.647995 
L 218.167025 -385.022081 
L 211.613416 -383.656746 
L 205.059807 -371.184956 
L 198.506198 -383.322761 
L 191.95259 -370.206314 
L 185.398981 -385.368342 
L 178.845372 -392.70394 
L 165.738154 -383.591146 
L 159.184545 -381.117816 
L 152.630937 -371.207507 
L 146.077328 -375.096181 
L 139.523719 -377.298292 
L 132.97011 -379.379399 
L 126.416501 -392.817902 
L 119.862893 -384.726359 
L 113.309284 -381.257409 
L 106.755675 -371.83831 
L 100.202066 -373.45103 
L 87.094848 -382.840183 
L 80.54124 -394.261174 
z
" id="m0f8c3a197c" style="stroke:#0072b2;stroke-opacity:0.2;"/>
    </defs>
    <g clip-path="url(#pf5f1857c8d)">
     <use style="fill:#0072b2;fill-opacity:0.2;stroke:#0072b2;stroke-opacity:0.2;" x="0" xlink:href="#m0f8c3a197c" y="432"/>
    </g>
   </g>
   <g id="matplotlib.axis_1">
    <g id="xtick_1">
     <g id="line2d_1">
      <path clip-path="url(#pf5f1857c8d)" d="M 126.416501 390.04 
L 126.416501 10.8 
" style="fill:none;stroke:#808080;stroke-linecap:square;stroke-opacity:0.2;"/>
     </g>
     <g id="line2d_2">
      <defs>
       <path d="M 0 0 
L 0 3.5 
" id="md6ad7af52f" style="stroke:#000000;stroke-width:0.8;"/>
      </defs>
      <g>
       <use style="stroke:#000000;stroke-width:0.8;" x="126.416501" xlink:href="#md6ad7af52f" y="390.04"/>
      </g>
     </g>
     <g id="text_1">
      <!-- 2019-01-08 -->
      <defs>
       <path d="M 19.1875 8.296875 
L 53.609375 8.296875 
L 53.609375 0 
L 7.328125 0 
L 7.328125 8.296875 
Q 12.9375 14.109375 22.625 23.890625 
Q 32.328125 33.6875 34.8125 36.53125 
Q 39.546875 41.84375 41.421875 45.53125 
Q 43.3125 49.21875 43.3125 52.78125 
Q 43.3125 58.59375 39.234375 62.25 
Q 35.15625 65.921875 28.609375 65.921875 
Q 23.96875 65.921875 18.8125 64.3125 
Q 13.671875 62.703125 7.8125 59.421875 
L 7.8125 69.390625 
Q 13.765625 71.78125 18.9375 73 
Q 24.125 74.21875 28.421875 74.21875 
Q 39.75 74.21875 46.484375 68.546875 
Q 53.21875 62.890625 53.21875 53.421875 
Q 53.21875 48.921875 51.53125 44.890625 
Q 49.859375 40.875 45.40625 35.40625 
Q 44.1875 33.984375 37.640625 27.21875 
Q 31.109375 20.453125 19.1875 8.296875 
z
" id="DejaVuSans-50"/>
       <path d="M 31.78125 66.40625 
Q 24.171875 66.40625 20.328125 58.90625 
Q 16.5 51.421875 16.5 36.375 
Q 16.5 21.390625 20.328125 13.890625 
Q 24.171875 6.390625 31.78125 6.390625 
Q 39.453125 6.390625 43.28125 13.890625 
Q 47.125 21.390625 47.125 36.375 
Q 47.125 51.421875 43.28125 58.90625 
Q 39.453125 66.40625 31.78125 66.40625 
z
M 31.78125 74.21875 
Q 44.046875 74.21875 50.515625 64.515625 
Q 56.984375 54.828125 56.984375 36.375 
Q 56.984375 17.96875 50.515625 8.265625 
Q 44.046875 -1.421875 31.78125 -1.421875 
Q 19.53125 -1.421875 13.0625 8.265625 
Q 6.59375 17.96875 6.59375 36.375 
Q 6.59375 54.828125 13.0625 64.515625 
Q 19.53125 74.21875 31.78125 74.21875 
z
" id="DejaVuSans-48"/>
       <path d="M 12.40625 8.296875 
L 28.515625 8.296875 
L 28.515625 63.921875 
L 10.984375 60.40625 
L 10.984375 69.390625 
L 28.421875 72.90625 
L 38.28125 72.90625 
L 38.28125 8.296875 
L 54.390625 8.296875 
L 54.390625 0 
L 12.40625 0 
z
" id="DejaVuSans-49"/>
       <path d="M 10.984375 1.515625 
L 10.984375 10.5 
Q 14.703125 8.734375 18.5 7.8125 
Q 22.3125 6.890625 25.984375 6.890625 
Q 35.75 6.890625 40.890625 13.453125 
Q 46.046875 20.015625 46.78125 33.40625 
Q 43.953125 29.203125 39.59375 26.953125 
Q 35.25 24.703125 29.984375 24.703125 
Q 19.046875 24.703125 12.671875 31.3125 
Q 6.296875 37.9375 6.296875 49.421875 
Q 6.296875 60.640625 12.9375 67.421875 
Q 19.578125 74.21875 30.609375 74.21875 
Q 43.265625 74.21875 49.921875 64.515625 
Q 56.59375 54.828125 56.59375 36.375 
Q 56.59375 19.140625 48.40625 8.859375 
Q 40.234375 -1.421875 26.421875 -1.421875 
Q 22.703125 -1.421875 18.890625 -0.6875 
Q 15.09375 0.046875 10.984375 1.515625 
z
M 30.609375 32.421875 
Q 37.25 32.421875 41.125 36.953125 
Q 45.015625 41.5 45.015625 49.421875 
Q 45.015625 57.28125 41.125 61.84375 
Q 37.25 66.40625 30.609375 66.40625 
Q 23.96875 66.40625 20.09375 61.84375 
Q 16.21875 57.28125 16.21875 49.421875 
Q 16.21875 41.5 20.09375 36.953125 
Q 23.96875 32.421875 30.609375 32.421875 
z
" id="DejaVuSans-57"/>
       <path d="M 4.890625 31.390625 
L 31.203125 31.390625 
L 31.203125 23.390625 
L 4.890625 23.390625 
z
" id="DejaVuSans-45"/>
       <path d="M 31.78125 34.625 
Q 24.75 34.625 20.71875 30.859375 
Q 16.703125 27.09375 16.703125 20.515625 
Q 16.703125 13.921875 20.71875 10.15625 
Q 24.75 6.390625 31.78125 6.390625 
Q 38.8125 6.390625 42.859375 10.171875 
Q 46.921875 13.96875 46.921875 20.515625 
Q 46.921875 27.09375 42.890625 30.859375 
Q 38.875 34.625 31.78125 34.625 
z
M 21.921875 38.8125 
Q 15.578125 40.375 12.03125 44.71875 
Q 8.5 49.078125 8.5 55.328125 
Q 8.5 64.0625 14.71875 69.140625 
Q 20.953125 74.21875 31.78125 74.21875 
Q 42.671875 74.21875 48.875 69.140625 
Q 55.078125 64.0625 55.078125 55.328125 
Q 55.078125 49.078125 51.53125 44.71875 
Q 48 40.375 41.703125 38.8125 
Q 48.828125 37.15625 52.796875 32.3125 
Q 56.78125 27.484375 56.78125 20.515625 
Q 56.78125 9.90625 50.3125 4.234375 
Q 43.84375 -1.421875 31.78125 -1.421875 
Q 19.734375 -1.421875 13.25 4.234375 
Q 6.78125 9.90625 6.78125 20.515625 
Q 6.78125 27.484375 10.78125 32.3125 
Q 14.796875 37.15625 21.921875 38.8125 
z
M 18.3125 54.390625 
Q 18.3125 48.734375 21.84375 45.5625 
Q 25.390625 42.390625 31.78125 42.390625 
Q 38.140625 42.390625 41.71875 45.5625 
Q 45.3125 48.734375 45.3125 54.390625 
Q 45.3125 60.0625 41.71875 63.234375 
Q 38.140625 66.40625 31.78125 66.40625 
Q 25.390625 66.40625 21.84375 63.234375 
Q 18.3125 60.0625 18.3125 54.390625 
z
" id="DejaVuSans-56"/>
      </defs>
      <g transform="translate(97.358689 404.638438)scale(0.1 -0.1)">
       <use xlink:href="#DejaVuSans-50"/>
       <use x="63.623047" xlink:href="#DejaVuSans-48"/>
       <use x="127.246094" xlink:href="#DejaVuSans-49"/>
       <use x="190.869141" xlink:href="#DejaVuSans-57"/>
       <use x="254.492188" xlink:href="#DejaVuSans-45"/>
       <use x="290.576172" xlink:href="#DejaVuSans-48"/>
       <use x="354.199219" xlink:href="#DejaVuSans-49"/>
       <use x="417.822266" xlink:href="#DejaVuSans-45"/>
       <use x="453.90625" xlink:href="#DejaVuSans-48"/>
       <use x="517.529297" xlink:href="#DejaVuSans-56"/>
      </g>
     </g>
    </g>
    <g id="xtick_2">
     <g id="line2d_3">
      <path clip-path="url(#pf5f1857c8d)" d="M 218.167025 390.04 
L 218.167025 10.8 
" style="fill:none;stroke:#808080;stroke-linecap:square;stroke-opacity:0.2;"/>
     </g>
     <g id="line2d_4">
      <g>
       <use style="stroke:#000000;stroke-width:0.8;" x="218.167025" xlink:href="#md6ad7af52f" y="390.04"/>
      </g>
     </g>
     <g id="text_2">
      <!-- 2019-01-22 -->
      <g transform="translate(189.109212 404.638438)scale(0.1 -0.1)">
       <use xlink:href="#DejaVuSans-50"/>
       <use x="63.623047" xlink:href="#DejaVuSans-48"/>
       <use x="127.246094" xlink:href="#DejaVuSans-49"/>
       <use x="190.869141" xlink:href="#DejaVuSans-57"/>
       <use x="254.492188" xlink:href="#DejaVuSans-45"/>
       <use x="290.576172" xlink:href="#DejaVuSans-48"/>
       <use x="354.199219" xlink:href="#DejaVuSans-49"/>
       <use x="417.822266" xlink:href="#DejaVuSans-45"/>
       <use x="453.90625" xlink:href="#DejaVuSans-50"/>
       <use x="517.529297" xlink:href="#DejaVuSans-50"/>
      </g>
     </g>
    </g>
    <g id="xtick_3">
     <g id="line2d_5">
      <path clip-path="url(#pf5f1857c8d)" d="M 309.917548 390.04 
L 309.917548 10.8 
" style="fill:none;stroke:#808080;stroke-linecap:square;stroke-opacity:0.2;"/>
     </g>
     <g id="line2d_6">
      <g>
       <use style="stroke:#000000;stroke-width:0.8;" x="309.917548" xlink:href="#md6ad7af52f" y="390.04"/>
      </g>
     </g>
     <g id="text_3">
      <!-- 2019-02-05 -->
      <defs>
       <path d="M 10.796875 72.90625 
L 49.515625 72.90625 
L 49.515625 64.59375 
L 19.828125 64.59375 
L 19.828125 46.734375 
Q 21.96875 47.46875 24.109375 47.828125 
Q 26.265625 48.1875 28.421875 48.1875 
Q 40.625 48.1875 47.75 41.5 
Q 54.890625 34.8125 54.890625 23.390625 
Q 54.890625 11.625 47.5625 5.09375 
Q 40.234375 -1.421875 26.90625 -1.421875 
Q 22.3125 -1.421875 17.546875 -0.640625 
Q 12.796875 0.140625 7.71875 1.703125 
L 7.71875 11.625 
Q 12.109375 9.234375 16.796875 8.0625 
Q 21.484375 6.890625 26.703125 6.890625 
Q 35.15625 6.890625 40.078125 11.328125 
Q 45.015625 15.765625 45.015625 23.390625 
Q 45.015625 31 40.078125 35.4375 
Q 35.15625 39.890625 26.703125 39.890625 
Q 22.75 39.890625 18.8125 39.015625 
Q 14.890625 38.140625 10.796875 36.28125 
z
" id="DejaVuSans-53"/>
      </defs>
      <g transform="translate(280.859736 404.638438)scale(0.1 -0.1)">
       <use xlink:href="#DejaVuSans-50"/>
       <use x="63.623047" xlink:href="#DejaVuSans-48"/>
       <use x="127.246094" xlink:href="#DejaVuSans-49"/>
       <use x="190.869141" xlink:href="#DejaVuSans-57"/>
       <use x="254.492188" xlink:href="#DejaVuSans-45"/>
       <use x="290.576172" xlink:href="#DejaVuSans-48"/>
       <use x="354.199219" xlink:href="#DejaVuSans-50"/>
       <use x="417.822266" xlink:href="#DejaVuSans-45"/>
       <use x="453.90625" xlink:href="#DejaVuSans-48"/>
       <use x="517.529297" xlink:href="#DejaVuSans-53"/>
      </g>
     </g>
    </g>
    <g id="xtick_4">
     <g id="line2d_7">
      <path clip-path="url(#pf5f1857c8d)" d="M 401.668072 390.04 
L 401.668072 10.8 
" style="fill:none;stroke:#808080;stroke-linecap:square;stroke-opacity:0.2;"/>
     </g>
     <g id="line2d_8">
      <g>
       <use style="stroke:#000000;stroke-width:0.8;" x="401.668072" xlink:href="#md6ad7af52f" y="390.04"/>
      </g>
     </g>
     <g id="text_4">
      <!-- 2019-02-19 -->
      <g transform="translate(372.610259 404.638438)scale(0.1 -0.1)">
       <use xlink:href="#DejaVuSans-50"/>
       <use x="63.623047" xlink:href="#DejaVuSans-48"/>
       <use x="127.246094" xlink:href="#DejaVuSans-49"/>
       <use x="190.869141" xlink:href="#DejaVuSans-57"/>
       <use x="254.492188" xlink:href="#DejaVuSans-45"/>
       <use x="290.576172" xlink:href="#DejaVuSans-48"/>
       <use x="354.199219" xlink:href="#DejaVuSans-50"/>
       <use x="417.822266" xlink:href="#DejaVuSans-45"/>
       <use x="453.90625" xlink:href="#DejaVuSans-49"/>
       <use x="517.529297" xlink:href="#DejaVuSans-57"/>
      </g>
     </g>
    </g>
    <g id="xtick_5">
     <g id="line2d_9">
      <path clip-path="url(#pf5f1857c8d)" d="M 493.418595 390.04 
L 493.418595 10.8 
" style="fill:none;stroke:#808080;stroke-linecap:square;stroke-opacity:0.2;"/>
     </g>
     <g id="line2d_10">
      <g>
       <use style="stroke:#000000;stroke-width:0.8;" x="493.418595" xlink:href="#md6ad7af52f" y="390.04"/>
      </g>
     </g>
     <g id="text_5">
      <!-- 2019-03-05 -->
      <defs>
       <path d="M 40.578125 39.3125 
Q 47.65625 37.796875 51.625 33 
Q 55.609375 28.21875 55.609375 21.1875 
Q 55.609375 10.40625 48.1875 4.484375 
Q 40.765625 -1.421875 27.09375 -1.421875 
Q 22.515625 -1.421875 17.65625 -0.515625 
Q 12.796875 0.390625 7.625 2.203125 
L 7.625 11.71875 
Q 11.71875 9.328125 16.59375 8.109375 
Q 21.484375 6.890625 26.8125 6.890625 
Q 36.078125 6.890625 40.9375 10.546875 
Q 45.796875 14.203125 45.796875 21.1875 
Q 45.796875 27.640625 41.28125 31.265625 
Q 36.765625 34.90625 28.71875 34.90625 
L 20.21875 34.90625 
L 20.21875 43.015625 
L 29.109375 43.015625 
Q 36.375 43.015625 40.234375 45.921875 
Q 44.09375 48.828125 44.09375 54.296875 
Q 44.09375 59.90625 40.109375 62.90625 
Q 36.140625 65.921875 28.71875 65.921875 
Q 24.65625 65.921875 20.015625 65.03125 
Q 15.375 64.15625 9.8125 62.3125 
L 9.8125 71.09375 
Q 15.4375 72.65625 20.34375 73.4375 
Q 25.25 74.21875 29.59375 74.21875 
Q 40.828125 74.21875 47.359375 69.109375 
Q 53.90625 64.015625 53.90625 55.328125 
Q 53.90625 49.265625 50.4375 45.09375 
Q 46.96875 40.921875 40.578125 39.3125 
z
" id="DejaVuSans-51"/>
      </defs>
      <g transform="translate(464.360783 404.638438)scale(0.1 -0.1)">
       <use xlink:href="#DejaVuSans-50"/>
       <use x="63.623047" xlink:href="#DejaVuSans-48"/>
       <use x="127.246094" xlink:href="#DejaVuSans-49"/>
       <use x="190.869141" xlink:href="#DejaVuSans-57"/>
       <use x="254.492188" xlink:href="#DejaVuSans-45"/>
       <use x="290.576172" xlink:href="#DejaVuSans-48"/>
       <use x="354.199219" xlink:href="#DejaVuSans-51"/>
       <use x="417.822266" xlink:href="#DejaVuSans-45"/>
       <use x="453.90625" xlink:href="#DejaVuSans-48"/>
       <use x="517.529297" xlink:href="#DejaVuSans-53"/>
      </g>
     </g>
    </g>
    <g id="xtick_6">
     <g id="line2d_11">
      <path clip-path="url(#pf5f1857c8d)" d="M 585.169118 390.04 
L 585.169118 10.8 
" style="fill:none;stroke:#808080;stroke-linecap:square;stroke-opacity:0.2;"/>
     </g>
     <g id="line2d_12">
      <g>
       <use style="stroke:#000000;stroke-width:0.8;" x="585.169118" xlink:href="#md6ad7af52f" y="390.04"/>
      </g>
     </g>
     <g id="text_6">
      <!-- 2019-03-19 -->
      <g transform="translate(556.111306 404.638438)scale(0.1 -0.1)">
       <use xlink:href="#DejaVuSans-50"/>
       <use x="63.623047" xlink:href="#DejaVuSans-48"/>
       <use x="127.246094" xlink:href="#DejaVuSans-49"/>
       <use x="190.869141" xlink:href="#DejaVuSans-57"/>
       <use x="254.492188" xlink:href="#DejaVuSans-45"/>
       <use x="290.576172" xlink:href="#DejaVuSans-48"/>
       <use x="354.199219" xlink:href="#DejaVuSans-51"/>
       <use x="417.822266" xlink:href="#DejaVuSans-45"/>
       <use x="453.90625" xlink:href="#DejaVuSans-49"/>
       <use x="517.529297" xlink:href="#DejaVuSans-57"/>
      </g>
     </g>
    </g>
    <g id="xtick_7">
     <g id="line2d_13">
      <path clip-path="url(#pf5f1857c8d)" d="M 676.919642 390.04 
L 676.919642 10.8 
" style="fill:none;stroke:#808080;stroke-linecap:square;stroke-opacity:0.2;"/>
     </g>
     <g id="line2d_14">
      <g>
       <use style="stroke:#000000;stroke-width:0.8;" x="676.919642" xlink:href="#md6ad7af52f" y="390.04"/>
      </g>
     </g>
     <g id="text_7">
      <!-- 2019-04-02 -->
      <defs>
       <path d="M 37.796875 64.3125 
L 12.890625 25.390625 
L 37.796875 25.390625 
z
M 35.203125 72.90625 
L 47.609375 72.90625 
L 47.609375 25.390625 
L 58.015625 25.390625 
L 58.015625 17.1875 
L 47.609375 17.1875 
L 47.609375 0 
L 37.796875 0 
L 37.796875 17.1875 
L 4.890625 17.1875 
L 4.890625 26.703125 
z
" id="DejaVuSans-52"/>
      </defs>
      <g transform="translate(647.861829 404.638438)scale(0.1 -0.1)">
       <use xlink:href="#DejaVuSans-50"/>
       <use x="63.623047" xlink:href="#DejaVuSans-48"/>
       <use x="127.246094" xlink:href="#DejaVuSans-49"/>
       <use x="190.869141" xlink:href="#DejaVuSans-57"/>
       <use x="254.492188" xlink:href="#DejaVuSans-45"/>
       <use x="290.576172" xlink:href="#DejaVuSans-48"/>
       <use x="354.199219" xlink:href="#DejaVuSans-52"/>
       <use x="417.822266" xlink:href="#DejaVuSans-45"/>
       <use x="453.90625" xlink:href="#DejaVuSans-48"/>
       <use x="517.529297" xlink:href="#DejaVuSans-50"/>
      </g>
     </g>
    </g>
    <g id="text_8">
     <!-- ds -->
     <defs>
      <path d="M 45.40625 46.390625 
L 45.40625 75.984375 
L 54.390625 75.984375 
L 54.390625 0 
L 45.40625 0 
L 45.40625 8.203125 
Q 42.578125 3.328125 38.25 0.953125 
Q 33.9375 -1.421875 27.875 -1.421875 
Q 17.96875 -1.421875 11.734375 6.484375 
Q 5.515625 14.40625 5.515625 27.296875 
Q 5.515625 40.1875 11.734375 48.09375 
Q 17.96875 56 27.875 56 
Q 33.9375 56 38.25 53.625 
Q 42.578125 51.265625 45.40625 46.390625 
z
M 14.796875 27.296875 
Q 14.796875 17.390625 18.875 11.75 
Q 22.953125 6.109375 30.078125 6.109375 
Q 37.203125 6.109375 41.296875 11.75 
Q 45.40625 17.390625 45.40625 27.296875 
Q 45.40625 37.203125 41.296875 42.84375 
Q 37.203125 48.484375 30.078125 48.484375 
Q 22.953125 48.484375 18.875 42.84375 
Q 14.796875 37.203125 14.796875 27.296875 
z
" id="DejaVuSans-100"/>
      <path d="M 44.28125 53.078125 
L 44.28125 44.578125 
Q 40.484375 46.53125 36.375 47.5 
Q 32.28125 48.484375 27.875 48.484375 
Q 21.1875 48.484375 17.84375 46.4375 
Q 14.5 44.390625 14.5 40.28125 
Q 14.5 37.15625 16.890625 35.375 
Q 19.28125 33.59375 26.515625 31.984375 
L 29.59375 31.296875 
Q 39.15625 29.25 43.1875 25.515625 
Q 47.21875 21.78125 47.21875 15.09375 
Q 47.21875 7.46875 41.1875 3.015625 
Q 35.15625 -1.421875 24.609375 -1.421875 
Q 20.21875 -1.421875 15.453125 -0.5625 
Q 10.6875 0.296875 5.421875 2 
L 5.421875 11.28125 
Q 10.40625 8.6875 15.234375 7.390625 
Q 20.0625 6.109375 24.8125 6.109375 
Q 31.15625 6.109375 34.5625 8.28125 
Q 37.984375 10.453125 37.984375 14.40625 
Q 37.984375 18.0625 35.515625 20.015625 
Q 33.0625 21.96875 24.703125 23.78125 
L 21.578125 24.515625 
Q 13.234375 26.265625 9.515625 29.90625 
Q 5.8125 33.546875 5.8125 39.890625 
Q 5.8125 47.609375 11.28125 51.796875 
Q 16.75 56 26.8125 56 
Q 31.78125 56 36.171875 55.265625 
Q 40.578125 54.546875 44.28125 53.078125 
z
" id="DejaVuSans-115"/>
     </defs>
     <g transform="translate(369.67473 418.316562)scale(0.1 -0.1)">
      <use xlink:href="#DejaVuSans-100"/>
      <use x="63.476562" xlink:href="#DejaVuSans-115"/>
     </g>
    </g>
   </g>
   <g id="matplotlib.axis_2">
    <g id="ytick_1">
     <g id="line2d_15">
      <path clip-path="url(#pf5f1857c8d)" d="M 51.05 385.237276 
L 699.857273 385.237276 
" style="fill:none;stroke:#808080;stroke-linecap:square;stroke-opacity:0.2;"/>
     </g>
     <g id="line2d_16">
      <defs>
       <path d="M 0 0 
L -3.5 0 
" id="m7f9124ebda" style="stroke:#000000;stroke-width:0.8;"/>
      </defs>
      <g>
       <use style="stroke:#000000;stroke-width:0.8;" x="51.05" xlink:href="#m7f9124ebda" y="385.237276"/>
      </g>
     </g>
     <g id="text_9">
      <!-- 100 -->
      <g transform="translate(24.9625 389.036495)scale(0.1 -0.1)">
       <use xlink:href="#DejaVuSans-49"/>
       <use x="63.623047" xlink:href="#DejaVuSans-48"/>
       <use x="127.246094" xlink:href="#DejaVuSans-48"/>
      </g>
     </g>
    </g>
    <g id="ytick_2">
     <g id="line2d_17">
      <path clip-path="url(#pf5f1857c8d)" d="M 51.05 341.331442 
L 699.857273 341.331442 
" style="fill:none;stroke:#808080;stroke-linecap:square;stroke-opacity:0.2;"/>
     </g>
     <g id="line2d_18">
      <g>
       <use style="stroke:#000000;stroke-width:0.8;" x="51.05" xlink:href="#m7f9124ebda" y="341.331442"/>
      </g>
     </g>
     <g id="text_10">
      <!-- 120 -->
      <g transform="translate(24.9625 345.130661)scale(0.1 -0.1)">
       <use xlink:href="#DejaVuSans-49"/>
       <use x="63.623047" xlink:href="#DejaVuSans-50"/>
       <use x="127.246094" xlink:href="#DejaVuSans-48"/>
      </g>
     </g>
    </g>
    <g id="ytick_3">
     <g id="line2d_19">
      <path clip-path="url(#pf5f1857c8d)" d="M 51.05 297.425609 
L 699.857273 297.425609 
" style="fill:none;stroke:#808080;stroke-linecap:square;stroke-opacity:0.2;"/>
     </g>
     <g id="line2d_20">
      <g>
       <use style="stroke:#000000;stroke-width:0.8;" x="51.05" xlink:href="#m7f9124ebda" y="297.425609"/>
      </g>
     </g>
     <g id="text_11">
      <!-- 140 -->
      <g transform="translate(24.9625 301.224827)scale(0.1 -0.1)">
       <use xlink:href="#DejaVuSans-49"/>
       <use x="63.623047" xlink:href="#DejaVuSans-52"/>
       <use x="127.246094" xlink:href="#DejaVuSans-48"/>
      </g>
     </g>
    </g>
    <g id="ytick_4">
     <g id="line2d_21">
      <path clip-path="url(#pf5f1857c8d)" d="M 51.05 253.519775 
L 699.857273 253.519775 
" style="fill:none;stroke:#808080;stroke-linecap:square;stroke-opacity:0.2;"/>
     </g>
     <g id="line2d_22">
      <g>
       <use style="stroke:#000000;stroke-width:0.8;" x="51.05" xlink:href="#m7f9124ebda" y="253.519775"/>
      </g>
     </g>
     <g id="text_12">
      <!-- 160 -->
      <defs>
       <path d="M 33.015625 40.375 
Q 26.375 40.375 22.484375 35.828125 
Q 18.609375 31.296875 18.609375 23.390625 
Q 18.609375 15.53125 22.484375 10.953125 
Q 26.375 6.390625 33.015625 6.390625 
Q 39.65625 6.390625 43.53125 10.953125 
Q 47.40625 15.53125 47.40625 23.390625 
Q 47.40625 31.296875 43.53125 35.828125 
Q 39.65625 40.375 33.015625 40.375 
z
M 52.59375 71.296875 
L 52.59375 62.3125 
Q 48.875 64.0625 45.09375 64.984375 
Q 41.3125 65.921875 37.59375 65.921875 
Q 27.828125 65.921875 22.671875 59.328125 
Q 17.53125 52.734375 16.796875 39.40625 
Q 19.671875 43.65625 24.015625 45.921875 
Q 28.375 48.1875 33.59375 48.1875 
Q 44.578125 48.1875 50.953125 41.515625 
Q 57.328125 34.859375 57.328125 23.390625 
Q 57.328125 12.15625 50.6875 5.359375 
Q 44.046875 -1.421875 33.015625 -1.421875 
Q 20.359375 -1.421875 13.671875 8.265625 
Q 6.984375 17.96875 6.984375 36.375 
Q 6.984375 53.65625 15.1875 63.9375 
Q 23.390625 74.21875 37.203125 74.21875 
Q 40.921875 74.21875 44.703125 73.484375 
Q 48.484375 72.75 52.59375 71.296875 
z
" id="DejaVuSans-54"/>
      </defs>
      <g transform="translate(24.9625 257.318993)scale(0.1 -0.1)">
       <use xlink:href="#DejaVuSans-49"/>
       <use x="63.623047" xlink:href="#DejaVuSans-54"/>
       <use x="127.246094" xlink:href="#DejaVuSans-48"/>
      </g>
     </g>
    </g>
    <g id="ytick_5">
     <g id="line2d_23">
      <path clip-path="url(#pf5f1857c8d)" d="M 51.05 209.613941 
L 699.857273 209.613941 
" style="fill:none;stroke:#808080;stroke-linecap:square;stroke-opacity:0.2;"/>
     </g>
     <g id="line2d_24">
      <g>
       <use style="stroke:#000000;stroke-width:0.8;" x="51.05" xlink:href="#m7f9124ebda" y="209.613941"/>
      </g>
     </g>
     <g id="text_13">
      <!-- 180 -->
      <g transform="translate(24.9625 213.413159)scale(0.1 -0.1)">
       <use xlink:href="#DejaVuSans-49"/>
       <use x="63.623047" xlink:href="#DejaVuSans-56"/>
       <use x="127.246094" xlink:href="#DejaVuSans-48"/>
      </g>
     </g>
    </g>
    <g id="ytick_6">
     <g id="line2d_25">
      <path clip-path="url(#pf5f1857c8d)" d="M 51.05 165.708107 
L 699.857273 165.708107 
" style="fill:none;stroke:#808080;stroke-linecap:square;stroke-opacity:0.2;"/>
     </g>
     <g id="line2d_26">
      <g>
       <use style="stroke:#000000;stroke-width:0.8;" x="51.05" xlink:href="#m7f9124ebda" y="165.708107"/>
      </g>
     </g>
     <g id="text_14">
      <!-- 200 -->
      <g transform="translate(24.9625 169.507326)scale(0.1 -0.1)">
       <use xlink:href="#DejaVuSans-50"/>
       <use x="63.623047" xlink:href="#DejaVuSans-48"/>
       <use x="127.246094" xlink:href="#DejaVuSans-48"/>
      </g>
     </g>
    </g>
    <g id="ytick_7">
     <g id="line2d_27">
      <path clip-path="url(#pf5f1857c8d)" d="M 51.05 121.802273 
L 699.857273 121.802273 
" style="fill:none;stroke:#808080;stroke-linecap:square;stroke-opacity:0.2;"/>
     </g>
     <g id="line2d_28">
      <g>
       <use style="stroke:#000000;stroke-width:0.8;" x="51.05" xlink:href="#m7f9124ebda" y="121.802273"/>
      </g>
     </g>
     <g id="text_15">
      <!-- 220 -->
      <g transform="translate(24.9625 125.601492)scale(0.1 -0.1)">
       <use xlink:href="#DejaVuSans-50"/>
       <use x="63.623047" xlink:href="#DejaVuSans-50"/>
       <use x="127.246094" xlink:href="#DejaVuSans-48"/>
      </g>
     </g>
    </g>
    <g id="ytick_8">
     <g id="line2d_29">
      <path clip-path="url(#pf5f1857c8d)" d="M 51.05 77.896439 
L 699.857273 77.896439 
" style="fill:none;stroke:#808080;stroke-linecap:square;stroke-opacity:0.2;"/>
     </g>
     <g id="line2d_30">
      <g>
       <use style="stroke:#000000;stroke-width:0.8;" x="51.05" xlink:href="#m7f9124ebda" y="77.896439"/>
      </g>
     </g>
     <g id="text_16">
      <!-- 240 -->
      <g transform="translate(24.9625 81.695658)scale(0.1 -0.1)">
       <use xlink:href="#DejaVuSans-50"/>
       <use x="63.623047" xlink:href="#DejaVuSans-52"/>
       <use x="127.246094" xlink:href="#DejaVuSans-48"/>
      </g>
     </g>
    </g>
    <g id="ytick_9">
     <g id="line2d_31">
      <path clip-path="url(#pf5f1857c8d)" d="M 51.05 33.990605 
L 699.857273 33.990605 
" style="fill:none;stroke:#808080;stroke-linecap:square;stroke-opacity:0.2;"/>
     </g>
     <g id="line2d_32">
      <g>
       <use style="stroke:#000000;stroke-width:0.8;" x="51.05" xlink:href="#m7f9124ebda" y="33.990605"/>
      </g>
     </g>
     <g id="text_17">
      <!-- 260 -->
      <g transform="translate(24.9625 37.789824)scale(0.1 -0.1)">
       <use xlink:href="#DejaVuSans-50"/>
       <use x="63.623047" xlink:href="#DejaVuSans-54"/>
       <use x="127.246094" xlink:href="#DejaVuSans-48"/>
      </g>
     </g>
    </g>
    <g id="text_18">
     <!-- y -->
     <defs>
      <path d="M 32.171875 -5.078125 
Q 28.375 -14.84375 24.75 -17.8125 
Q 21.140625 -20.796875 15.09375 -20.796875 
L 7.90625 -20.796875 
L 7.90625 -13.28125 
L 13.1875 -13.28125 
Q 16.890625 -13.28125 18.9375 -11.515625 
Q 21 -9.765625 23.484375 -3.21875 
L 25.09375 0.875 
L 2.984375 54.6875 
L 12.5 54.6875 
L 29.59375 11.921875 
L 46.6875 54.6875 
L 56.203125 54.6875 
z
" id="DejaVuSans-121"/>
     </defs>
     <g transform="translate(18.882812 203.379375)rotate(-90)scale(0.1 -0.1)">
      <use xlink:href="#DejaVuSans-121"/>
     </g>
    </g>
   </g>
   <g id="line2d_33">
    <defs>
     <path d="M 0 1.5 
C 0.397805 1.5 0.77937 1.341951 1.06066 1.06066 
C 1.341951 0.77937 1.5 0.397805 1.5 0 
C 1.5 -0.397805 1.341951 -0.77937 1.06066 -1.06066 
C 0.77937 -1.341951 0.397805 -1.5 0 -1.5 
C -0.397805 -1.5 -0.77937 -1.341951 -1.06066 -1.06066 
C -1.341951 -0.77937 -1.5 -0.397805 -1.5 0 
C -1.5 0.397805 -1.341951 0.77937 -1.06066 1.06066 
C -0.77937 1.341951 -0.397805 1.5 0 1.5 
z
" id="m8abe9c770c" style="stroke:#000000;"/>
    </defs>
    <g clip-path="url(#pf5f1857c8d)">
     <use style="stroke:#000000;" x="80.54124" xlink:href="#m8abe9c770c" y="44.967064"/>
     <use style="stroke:#000000;" x="87.094848" xlink:href="#m8abe9c770c" y="293.035025"/>
     <use style="stroke:#000000;" x="100.202066" xlink:href="#m8abe9c770c" y="44.967064"/>
     <use style="stroke:#000000;" x="106.755675" xlink:href="#m8abe9c770c" y="293.035025"/>
     <use style="stroke:#000000;" x="113.309284" xlink:href="#m8abe9c770c" y="286.44915"/>
     <use style="stroke:#000000;" x="119.862893" xlink:href="#m8abe9c770c" y="44.967064"/>
     <use style="stroke:#000000;" x="126.416501" xlink:href="#m8abe9c770c" y="290.839733"/>
     <use style="stroke:#000000;" x="132.97011" xlink:href="#m8abe9c770c" y="279.863275"/>
     <use style="stroke:#000000;" x="139.523719" xlink:href="#m8abe9c770c" y="44.967064"/>
     <use style="stroke:#000000;" x="146.077328" xlink:href="#m8abe9c770c" y="297.425609"/>
     <use style="stroke:#000000;" x="152.630937" xlink:href="#m8abe9c770c" y="290.839733"/>
     <use style="stroke:#000000;" x="159.184545" xlink:href="#m8abe9c770c" y="44.967064"/>
     <use style="stroke:#000000;" x="165.738154" xlink:href="#m8abe9c770c" y="293.035025"/>
     <use style="stroke:#000000;" x="178.845372" xlink:href="#m8abe9c770c" y="44.967064"/>
     <use style="stroke:#000000;" x="185.398981" xlink:href="#m8abe9c770c" y="290.839733"/>
     <use style="stroke:#000000;" x="191.95259" xlink:href="#m8abe9c770c" y="279.863275"/>
     <use style="stroke:#000000;" x="198.506198" xlink:href="#m8abe9c770c" y="44.967064"/>
     <use style="stroke:#000000;" x="205.059807" xlink:href="#m8abe9c770c" y="284.253858"/>
     <use style="stroke:#000000;" x="211.613416" xlink:href="#m8abe9c770c" y="286.44915"/>
     <use style="stroke:#000000;" x="218.167025" xlink:href="#m8abe9c770c" y="44.967064"/>
     <use style="stroke:#000000;" x="224.720634" xlink:href="#m8abe9c770c" y="288.644442"/>
     <use style="stroke:#000000;" x="231.274242" xlink:href="#m8abe9c770c" y="290.839733"/>
     <use style="stroke:#000000;" x="237.827851" xlink:href="#m8abe9c770c" y="44.967064"/>
     <use style="stroke:#000000;" x="244.38146" xlink:href="#m8abe9c770c" y="293.035025"/>
     <use style="stroke:#000000;" x="250.935069" xlink:href="#m8abe9c770c" y="275.472692"/>
     <use style="stroke:#000000;" x="257.488678" xlink:href="#m8abe9c770c" y="44.967064"/>
     <use style="stroke:#000000;" x="264.042287" xlink:href="#m8abe9c770c" y="290.839733"/>
     <use style="stroke:#000000;" x="270.595895" xlink:href="#m8abe9c770c" y="284.253858"/>
     <use style="stroke:#000000;" x="277.149504" xlink:href="#m8abe9c770c" y="44.967064"/>
     <use style="stroke:#000000;" x="283.703113" xlink:href="#m8abe9c770c" y="271.082108"/>
     <use style="stroke:#000000;" x="290.256722" xlink:href="#m8abe9c770c" y="284.253858"/>
     <use style="stroke:#000000;" x="296.810331" xlink:href="#m8abe9c770c" y="44.967064"/>
     <use style="stroke:#000000;" x="303.363939" xlink:href="#m8abe9c770c" y="284.253858"/>
     <use style="stroke:#000000;" x="309.917548" xlink:href="#m8abe9c770c" y="290.839733"/>
     <use style="stroke:#000000;" x="316.471157" xlink:href="#m8abe9c770c" y="44.967064"/>
     <use style="stroke:#000000;" x="323.024766" xlink:href="#m8abe9c770c" y="288.644442"/>
     <use style="stroke:#000000;" x="329.578375" xlink:href="#m8abe9c770c" y="268.886816"/>
     <use style="stroke:#000000;" x="336.131983" xlink:href="#m8abe9c770c" y="44.967064"/>
     <use style="stroke:#000000;" x="342.685592" xlink:href="#m8abe9c770c" y="290.839733"/>
     <use style="stroke:#000000;" x="349.239201" xlink:href="#m8abe9c770c" y="301.816192"/>
     <use style="stroke:#000000;" x="355.79281" xlink:href="#m8abe9c770c" y="44.967064"/>
     <use style="stroke:#000000;" x="368.900028" xlink:href="#m8abe9c770c" y="297.425609"/>
     <use style="stroke:#000000;" x="382.007245" xlink:href="#m8abe9c770c" y="288.644442"/>
     <use style="stroke:#000000;" x="388.560854" xlink:href="#m8abe9c770c" y="297.425609"/>
     <use style="stroke:#000000;" x="395.114463" xlink:href="#m8abe9c770c" y="44.967064"/>
     <use style="stroke:#000000;" x="401.668072" xlink:href="#m8abe9c770c" y="288.644442"/>
     <use style="stroke:#000000;" x="414.775289" xlink:href="#m8abe9c770c" y="44.967064"/>
     <use style="stroke:#000000;" x="421.328898" xlink:href="#m8abe9c770c" y="286.44915"/>
     <use style="stroke:#000000;" x="427.882507" xlink:href="#m8abe9c770c" y="279.863275"/>
     <use style="stroke:#000000;" x="434.436116" xlink:href="#m8abe9c770c" y="44.967064"/>
     <use style="stroke:#000000;" x="447.543333" xlink:href="#m8abe9c770c" y="293.035025"/>
     <use style="stroke:#000000;" x="454.096942" xlink:href="#m8abe9c770c" y="44.967064"/>
     <use style="stroke:#000000;" x="460.650551" xlink:href="#m8abe9c770c" y="284.253858"/>
     <use style="stroke:#000000;" x="467.20416" xlink:href="#m8abe9c770c" y="282.058567"/>
     <use style="stroke:#000000;" x="473.757769" xlink:href="#m8abe9c770c" y="44.967064"/>
     <use style="stroke:#000000;" x="486.864986" xlink:href="#m8abe9c770c" y="288.644442"/>
     <use style="stroke:#000000;" x="493.418595" xlink:href="#m8abe9c770c" y="44.967064"/>
     <use style="stroke:#000000;" x="499.972204" xlink:href="#m8abe9c770c" y="279.863275"/>
     <use style="stroke:#000000;" x="506.525813" xlink:href="#m8abe9c770c" y="288.644442"/>
     <use style="stroke:#000000;" x="513.079421" xlink:href="#m8abe9c770c" y="44.967064"/>
     <use style="stroke:#000000;" x="519.63303" xlink:href="#m8abe9c770c" y="288.644442"/>
     <use style="stroke:#000000;" x="526.186639" xlink:href="#m8abe9c770c" y="288.644442"/>
     <use style="stroke:#000000;" x="532.740248" xlink:href="#m8abe9c770c" y="44.967064"/>
     <use style="stroke:#000000;" x="539.293857" xlink:href="#m8abe9c770c" y="277.667983"/>
     <use style="stroke:#000000;" x="545.847466" xlink:href="#m8abe9c770c" y="288.644442"/>
     <use style="stroke:#000000;" x="552.401074" xlink:href="#m8abe9c770c" y="44.967064"/>
     <use style="stroke:#000000;" x="558.954683" xlink:href="#m8abe9c770c" y="290.839733"/>
     <use style="stroke:#000000;" x="565.508292" xlink:href="#m8abe9c770c" y="275.472692"/>
     <use style="stroke:#000000;" x="572.061901" xlink:href="#m8abe9c770c" y="44.967064"/>
     <use style="stroke:#000000;" x="578.61551" xlink:href="#m8abe9c770c" y="293.035025"/>
     <use style="stroke:#000000;" x="585.169118" xlink:href="#m8abe9c770c" y="282.058567"/>
     <use style="stroke:#000000;" x="591.722727" xlink:href="#m8abe9c770c" y="44.967064"/>
     <use style="stroke:#000000;" x="604.829945" xlink:href="#m8abe9c770c" y="288.644442"/>
     <use style="stroke:#000000;" x="611.383554" xlink:href="#m8abe9c770c" y="44.967064"/>
     <use style="stroke:#000000;" x="617.937163" xlink:href="#m8abe9c770c" y="297.425609"/>
     <use style="stroke:#000000;" x="624.490771" xlink:href="#m8abe9c770c" y="284.253858"/>
     <use style="stroke:#000000;" x="631.04438" xlink:href="#m8abe9c770c" y="44.967064"/>
     <use style="stroke:#000000;" x="637.597989" xlink:href="#m8abe9c770c" y="288.644442"/>
     <use style="stroke:#000000;" x="650.705207" xlink:href="#m8abe9c770c" y="44.967064"/>
     <use style="stroke:#000000;" x="657.258815" xlink:href="#m8abe9c770c" y="297.425609"/>
     <use style="stroke:#000000;" x="663.812424" xlink:href="#m8abe9c770c" y="288.644442"/>
    </g>
   </g>
   <g id="line2d_34">
    <path clip-path="url(#pf5f1857c8d)" d="M 80.54124 184.254254 
L 87.094848 196.250149 
L 100.202066 201.530341 
L 106.755675 210.937913 
L 113.309284 205.21663 
L 119.862893 199.069554 
L 126.416501 184.606612 
L 132.97011 196.602507 
L 139.523719 190.512747 
L 146.077328 201.882698 
L 152.630937 211.290271 
L 159.184545 205.568988 
L 165.738154 199.421912 
L 178.845372 196.954865 
L 185.398981 190.865104 
L 191.95259 202.235056 
L 198.506198 211.642628 
L 205.059807 205.921346 
L 211.613416 199.77427 
L 218.167025 185.311327 
L 224.720634 197.307222 
L 231.274242 191.217462 
L 237.827851 202.587414 
L 244.38146 211.994986 
L 250.935069 206.273703 
L 257.488678 200.126627 
L 264.042287 185.663685 
L 270.595895 197.65958 
L 277.149504 191.569819 
L 283.703113 202.939771 
L 290.256722 212.347344 
L 296.810331 206.626061 
L 303.363939 200.478985 
L 309.917548 186.016042 
L 316.471157 198.011938 
L 323.024766 191.922177 
L 329.578375 203.292129 
L 336.131983 212.699701 
L 342.685592 206.978419 
L 349.239201 200.831343 
L 355.79281 186.3684 
L 368.900028 192.274535 
L 382.007245 213.052059 
L 388.560854 207.330776 
L 395.114463 201.1837 
L 401.668072 186.720757 
L 414.775289 192.626892 
L 421.328898 203.996844 
L 427.882507 213.404417 
L 434.436116 207.683134 
L 447.543333 187.073115 
L 454.096942 199.06901 
L 460.650551 192.97925 
L 467.20416 204.349202 
L 473.757769 213.756774 
L 486.864986 201.888416 
L 493.418595 187.425473 
L 499.972204 199.421368 
L 506.525813 193.331608 
L 513.079421 204.701559 
L 519.63303 214.109132 
L 526.186639 208.387849 
L 532.740248 202.240773 
L 539.293857 187.77783 
L 545.847466 199.773726 
L 552.401074 193.683965 
L 558.954683 205.053917 
L 565.508292 214.46149 
L 572.061901 208.740207 
L 578.61551 202.593131 
L 585.169118 188.130188 
L 591.722727 200.126083 
L 604.829945 205.406275 
L 611.383554 214.813847 
L 617.937163 209.092564 
L 624.490771 202.945488 
L 631.04438 188.482546 
L 637.597989 200.478441 
L 650.705207 205.758632 
L 657.258815 215.166205 
L 663.812424 209.444922 
L 670.366033 203.297846 
" style="fill:none;stroke:#0072b2;stroke-linecap:square;stroke-width:1.5;"/>
   </g>
   <g id="patch_3">
    <path d="M 51.05 390.04 
L 51.05 10.8 
" style="fill:none;stroke:#000000;stroke-linecap:square;stroke-linejoin:miter;stroke-width:0.8;"/>
   </g>
   <g id="patch_4">
    <path d="M 699.857273 390.04 
L 699.857273 10.8 
" style="fill:none;stroke:#000000;stroke-linecap:square;stroke-linejoin:miter;stroke-width:0.8;"/>
   </g>
   <g id="patch_5">
    <path d="M 51.05 390.04 
L 699.857273 390.04 
" style="fill:none;stroke:#000000;stroke-linecap:square;stroke-linejoin:miter;stroke-width:0.8;"/>
   </g>
   <g id="patch_6">
    <path d="M 51.05 10.8 
L 699.857273 10.8 
" style="fill:none;stroke:#000000;stroke-linecap:square;stroke-linejoin:miter;stroke-width:0.8;"/>
   </g>
  </g>
 </g>
 <defs>
  <clipPath id="pf5f1857c8d">
   <rect height="379.24" width="648.807273" x="51.05" y="10.8"/>
  </clipPath>
 </defs>
</svg>
