<?xml version="1.0" encoding="utf-8" standalone="no"?>
<!DOCTYPE svg PUBLIC "-//W3C//DTD SVG 1.1//EN"
  "http://www.w3.org/Graphics/SVG/1.1/DTD/svg11.dtd">
<!-- Created with matplotlib (https://matplotlib.org/) -->
<svg height="432pt" version="1.1" viewBox="0 0 720 432" width="720pt" xmlns="http://www.w3.org/2000/svg" xmlns:xlink="http://www.w3.org/1999/xlink">
 <defs>
  <style type="text/css">
*{stroke-linecap:butt;stroke-linejoin:round;}
  </style>
 </defs>
 <g id="figure_1">
  <g id="patch_1">
   <path d="M 0 432 
L 720 432 
L 720 0 
L 0 0 
z
" style="fill:#ffffff;"/>
  </g>
  <g id="axes_1">
   <g id="patch_2">
    <path d="M 51.05 390.04 
L 699.857273 390.04 
L 699.857273 10.8 
L 51.05 10.8 
z
" style="fill:#ffffff;"/>
   </g>
   <g id="PolyCollection_1">
    <defs>
     <path d="M 80.54124 -386.18181 
L 80.54124 -103.367758 
L 87.094848 -88.366123 
L 100.202066 -83.475512 
L 106.755675 -82.289465 
L 113.309284 -81.700053 
L 119.862893 -84.372807 
L 126.416501 -93.46606 
L 132.97011 -81.944148 
L 139.523719 -99.32487 
L 146.077328 -84.032915 
L 152.630937 -84.237047 
L 159.184545 -84.070734 
L 165.738154 -92.552121 
L 178.845372 -87.455232 
L 185.398981 -87.620983 
L 191.95259 -74.225357 
L 198.506198 -67.490152 
L 205.059807 -79.217768 
L 211.613416 -89.298143 
L 218.167025 -103.72974 
L 224.720634 -80.441619 
L 231.274242 -97.338357 
L 237.827851 -71.339853 
L 244.38146 -67.470438 
L 250.935069 -77.058569 
L 257.488678 -86.380033 
L 264.042287 -100.802828 
L 270.595895 -88.260604 
L 277.149504 -98.550278 
L 283.703113 -90.730034 
L 290.256722 -75.309003 
L 296.810331 -87.93092 
L 303.363939 -103.451976 
L 309.917548 -104.058345 
L 316.471157 -85.534444 
L 323.024766 -108.686516 
L 329.578375 -81.619183 
L 336.131983 -65.002285 
L 342.685592 -85.486187 
L 349.239201 -80.452501 
L 355.79281 -96.601008 
L 368.900028 -110.107432 
L 382.007245 -77.045864 
L 388.560854 -73.889499 
L 395.114463 -83.929405 
L 401.668072 -101.303151 
L 414.775289 -100.907802 
L 421.328898 -59.198182 
L 427.882507 -75.031477 
L 434.436116 -79.051733 
L 447.543333 -96.610877 
L 454.096942 -81.561891 
L 460.650551 -98.983651 
L 467.20416 -80.471907 
L 473.757769 -71.121596 
L 486.864986 -89.568547 
L 493.418595 -111.359921 
L 499.972204 -78.909819 
L 506.525813 -89.005408 
L 513.079421 -65.022942 
L 519.63303 -70.458704 
L 526.186639 -89.271934 
L 532.740248 -79.808086 
L 539.293857 -101.253607 
L 545.847466 -69.310991 
L 552.401074 -103.296757 
L 558.954683 -80.73655 
L 565.508292 -75.969879 
L 572.061901 -95.884687 
L 578.61551 -92.338956 
L 585.169118 -94.340755 
L 591.722727 -80.923743 
L 604.829945 -89.28924 
L 611.383554 -61.664588 
L 617.937163 -87.266943 
L 624.490771 -77.083566 
L 631.04438 -112.916937 
L 637.597989 -88.61288 
L 650.705207 -85.123921 
L 657.258815 -75.20924 
L 663.812424 -82.047095 
L 670.366033 -85.272078 
L 670.366033 -362.254862 
L 670.366033 -362.254862 
L 663.812424 -368.401392 
L 657.258815 -347.821353 
L 650.705207 -364.316086 
L 637.597989 -372.409668 
L 631.04438 -384.364086 
L 624.490771 -374.748905 
L 617.937163 -370.70045 
L 611.383554 -352.663517 
L 604.829945 -370.075962 
L 591.722727 -366.139678 
L 585.169118 -383.888465 
L 578.61551 -377.037985 
L 572.061901 -368.061576 
L 565.508292 -355.314969 
L 558.954683 -361.611153 
L 552.401074 -377.859543 
L 545.847466 -371.718609 
L 539.293857 -383.792751 
L 532.740248 -368.207869 
L 526.186639 -367.174053 
L 519.63303 -365.055367 
L 513.079421 -370.839932 
L 506.525813 -374.142878 
L 499.972204 -375.898348 
L 493.418595 -393.393397 
L 486.864986 -376.274106 
L 473.757769 -355.021956 
L 467.20416 -367.13521 
L 460.650551 -371.020285 
L 454.096942 -371.64706 
L 447.543333 -383.522539 
L 434.436116 -361.185496 
L 427.882507 -362.509425 
L 421.328898 -357.305432 
L 414.775289 -380.344598 
L 401.668072 -403.961818 
L 395.114463 -366.146091 
L 388.560854 -379.090864 
L 382.007245 -367.656088 
L 368.900028 -382.125737 
L 355.79281 -381.471691 
L 349.239201 -381.703537 
L 342.685592 -358.855914 
L 336.131983 -356.814566 
L 329.578375 -372.748051 
L 323.024766 -393.22619 
L 316.471157 -369.386727 
L 309.917548 -393.674489 
L 303.363939 -373.992478 
L 296.810331 -381.598211 
L 290.256722 -362.144862 
L 283.703113 -372.455307 
L 277.149504 -390.224959 
L 270.595895 -376.650722 
L 264.042287 -391.083805 
L 257.488678 -375.931458 
L 250.935069 -362.89828 
L 244.38146 -367.583074 
L 237.827851 -358.772256 
L 231.274242 -393.082293 
L 224.720634 -371.525695 
L 218.167025 -390.214854 
L 211.613416 -385.072758 
L 205.059807 -381.656917 
L 198.506198 -362.868269 
L 191.95259 -366.388502 
L 185.398981 -380.735741 
L 178.845372 -361.243399 
L 165.738154 -380.791578 
L 159.184545 -371.888727 
L 152.630937 -361.748254 
L 146.077328 -359.535775 
L 139.523719 -387.584074 
L 132.97011 -370.549722 
L 126.416501 -385.542589 
L 119.862893 -376.792642 
L 113.309284 -366.324433 
L 106.755675 -360.50254 
L 100.202066 -369.601114 
L 87.094848 -384.600912 
L 80.54124 -386.18181 
z
" id="m3ef0ed977b" style="stroke:#0072b2;stroke-opacity:0.2;"/>
    </defs>
    <g clip-path="url(#pf7f9dd7794)">
     <use style="fill:#0072b2;fill-opacity:0.2;stroke:#0072b2;stroke-opacity:0.2;" x="0" xlink:href="#m3ef0ed977b" y="432"/>
    </g>
   </g>
   <g id="matplotlib.axis_1">
    <g id="xtick_1">
     <g id="line2d_1">
      <path clip-path="url(#pf7f9dd7794)" d="M 126.416501 390.04 
L 126.416501 10.8 
" style="fill:none;stroke:#808080;stroke-linecap:square;stroke-opacity:0.2;"/>
     </g>
     <g id="line2d_2">
      <defs>
       <path d="M 0 0 
L 0 3.5 
" id="m31ca6ae890" style="stroke:#000000;stroke-width:0.8;"/>
      </defs>
      <g>
       <use style="stroke:#000000;stroke-width:0.8;" x="126.416501" xlink:href="#m31ca6ae890" y="390.04"/>
      </g>
     </g>
     <g id="text_1">
      <!-- 2019-01-08 -->
      <defs>
       <path d="M 19.1875 8.296875 
L 53.609375 8.296875 
L 53.609375 0 
L 7.328125 0 
L 7.328125 8.296875 
Q 12.9375 14.109375 22.625 23.890625 
Q 32.328125 33.6875 34.8125 36.53125 
Q 39.546875 41.84375 41.421875 45.53125 
Q 43.3125 49.21875 43.3125 52.78125 
Q 43.3125 58.59375 39.234375 62.25 
Q 35.15625 65.921875 28.609375 65.921875 
Q 23.96875 65.921875 18.8125 64.3125 
Q 13.671875 62.703125 7.8125 59.421875 
L 7.8125 69.390625 
Q 13.765625 71.78125 18.9375 73 
Q 24.125 74.21875 28.421875 74.21875 
Q 39.75 74.21875 46.484375 68.546875 
Q 53.21875 62.890625 53.21875 53.421875 
Q 53.21875 48.921875 51.53125 44.890625 
Q 49.859375 40.875 45.40625 35.40625 
Q 44.1875 33.984375 37.640625 27.21875 
Q 31.109375 20.453125 19.1875 8.296875 
z
" id="DejaVuSans-50"/>
       <path d="M 31.78125 66.40625 
Q 24.171875 66.40625 20.328125 58.90625 
Q 16.5 51.421875 16.5 36.375 
Q 16.5 21.390625 20.328125 13.890625 
Q 24.171875 6.390625 31.78125 6.390625 
Q 39.453125 6.390625 43.28125 13.890625 
Q 47.125 21.390625 47.125 36.375 
Q 47.125 51.421875 43.28125 58.90625 
Q 39.453125 66.40625 31.78125 66.40625 
z
M 31.78125 74.21875 
Q 44.046875 74.21875 50.515625 64.515625 
Q 56.984375 54.828125 56.984375 36.375 
Q 56.984375 17.96875 50.515625 8.265625 
Q 44.046875 -1.421875 31.78125 -1.421875 
Q 19.53125 -1.421875 13.0625 8.265625 
Q 6.59375 17.96875 6.59375 36.375 
Q 6.59375 54.828125 13.0625 64.515625 
Q 19.53125 74.21875 31.78125 74.21875 
z
" id="DejaVuSans-48"/>
       <path d="M 12.40625 8.296875 
L 28.515625 8.296875 
L 28.515625 63.921875 
L 10.984375 60.40625 
L 10.984375 69.390625 
L 28.421875 72.90625 
L 38.28125 72.90625 
L 38.28125 8.296875 
L 54.390625 8.296875 
L 54.390625 0 
L 12.40625 0 
z
" id="DejaVuSans-49"/>
       <path d="M 10.984375 1.515625 
L 10.984375 10.5 
Q 14.703125 8.734375 18.5 7.8125 
Q 22.3125 6.890625 25.984375 6.890625 
Q 35.75 6.890625 40.890625 13.453125 
Q 46.046875 20.015625 46.78125 33.40625 
Q 43.953125 29.203125 39.59375 26.953125 
Q 35.25 24.703125 29.984375 24.703125 
Q 19.046875 24.703125 12.671875 31.3125 
Q 6.296875 37.9375 6.296875 49.421875 
Q 6.296875 60.640625 12.9375 67.421875 
Q 19.578125 74.21875 30.609375 74.21875 
Q 43.265625 74.21875 49.921875 64.515625 
Q 56.59375 54.828125 56.59375 36.375 
Q 56.59375 19.140625 48.40625 8.859375 
Q 40.234375 -1.421875 26.421875 -1.421875 
Q 22.703125 -1.421875 18.890625 -0.6875 
Q 15.09375 0.046875 10.984375 1.515625 
z
M 30.609375 32.421875 
Q 37.25 32.421875 41.125 36.953125 
Q 45.015625 41.5 45.015625 49.421875 
Q 45.015625 57.28125 41.125 61.84375 
Q 37.25 66.40625 30.609375 66.40625 
Q 23.96875 66.40625 20.09375 61.84375 
Q 16.21875 57.28125 16.21875 49.421875 
Q 16.21875 41.5 20.09375 36.953125 
Q 23.96875 32.421875 30.609375 32.421875 
z
" id="DejaVuSans-57"/>
       <path d="M 4.890625 31.390625 
L 31.203125 31.390625 
L 31.203125 23.390625 
L 4.890625 23.390625 
z
" id="DejaVuSans-45"/>
       <path d="M 31.78125 34.625 
Q 24.75 34.625 20.71875 30.859375 
Q 16.703125 27.09375 16.703125 20.515625 
Q 16.703125 13.921875 20.71875 10.15625 
Q 24.75 6.390625 31.78125 6.390625 
Q 38.8125 6.390625 42.859375 10.171875 
Q 46.921875 13.96875 46.921875 20.515625 
Q 46.921875 27.09375 42.890625 30.859375 
Q 38.875 34.625 31.78125 34.625 
z
M 21.921875 38.8125 
Q 15.578125 40.375 12.03125 44.71875 
Q 8.5 49.078125 8.5 55.328125 
Q 8.5 64.0625 14.71875 69.140625 
Q 20.953125 74.21875 31.78125 74.21875 
Q 42.671875 74.21875 48.875 69.140625 
Q 55.078125 64.0625 55.078125 55.328125 
Q 55.078125 49.078125 51.53125 44.71875 
Q 48 40.375 41.703125 38.8125 
Q 48.828125 37.15625 52.796875 32.3125 
Q 56.78125 27.484375 56.78125 20.515625 
Q 56.78125 9.90625 50.3125 4.234375 
Q 43.84375 -1.421875 31.78125 -1.421875 
Q 19.734375 -1.421875 13.25 4.234375 
Q 6.78125 9.90625 6.78125 20.515625 
Q 6.78125 27.484375 10.78125 32.3125 
Q 14.796875 37.15625 21.921875 38.8125 
z
M 18.3125 54.390625 
Q 18.3125 48.734375 21.84375 45.5625 
Q 25.390625 42.390625 31.78125 42.390625 
Q 38.140625 42.390625 41.71875 45.5625 
Q 45.3125 48.734375 45.3125 54.390625 
Q 45.3125 60.0625 41.71875 63.234375 
Q 38.140625 66.40625 31.78125 66.40625 
Q 25.390625 66.40625 21.84375 63.234375 
Q 18.3125 60.0625 18.3125 54.390625 
z
" id="DejaVuSans-56"/>
      </defs>
      <g transform="translate(97.358689 404.638438)scale(0.1 -0.1)">
       <use xlink:href="#DejaVuSans-50"/>
       <use x="63.623047" xlink:href="#DejaVuSans-48"/>
       <use x="127.246094" xlink:href="#DejaVuSans-49"/>
       <use x="190.869141" xlink:href="#DejaVuSans-57"/>
       <use x="254.492188" xlink:href="#DejaVuSans-45"/>
       <use x="290.576172" xlink:href="#DejaVuSans-48"/>
       <use x="354.199219" xlink:href="#DejaVuSans-49"/>
       <use x="417.822266" xlink:href="#DejaVuSans-45"/>
       <use x="453.90625" xlink:href="#DejaVuSans-48"/>
       <use x="517.529297" xlink:href="#DejaVuSans-56"/>
      </g>
     </g>
    </g>
    <g id="xtick_2">
     <g id="line2d_3">
      <path clip-path="url(#pf7f9dd7794)" d="M 218.167025 390.04 
L 218.167025 10.8 
" style="fill:none;stroke:#808080;stroke-linecap:square;stroke-opacity:0.2;"/>
     </g>
     <g id="line2d_4">
      <g>
       <use style="stroke:#000000;stroke-width:0.8;" x="218.167025" xlink:href="#m31ca6ae890" y="390.04"/>
      </g>
     </g>
     <g id="text_2">
      <!-- 2019-01-22 -->
      <g transform="translate(189.109212 404.638438)scale(0.1 -0.1)">
       <use xlink:href="#DejaVuSans-50"/>
       <use x="63.623047" xlink:href="#DejaVuSans-48"/>
       <use x="127.246094" xlink:href="#DejaVuSans-49"/>
       <use x="190.869141" xlink:href="#DejaVuSans-57"/>
       <use x="254.492188" xlink:href="#DejaVuSans-45"/>
       <use x="290.576172" xlink:href="#DejaVuSans-48"/>
       <use x="354.199219" xlink:href="#DejaVuSans-49"/>
       <use x="417.822266" xlink:href="#DejaVuSans-45"/>
       <use x="453.90625" xlink:href="#DejaVuSans-50"/>
       <use x="517.529297" xlink:href="#DejaVuSans-50"/>
      </g>
     </g>
    </g>
    <g id="xtick_3">
     <g id="line2d_5">
      <path clip-path="url(#pf7f9dd7794)" d="M 309.917548 390.04 
L 309.917548 10.8 
" style="fill:none;stroke:#808080;stroke-linecap:square;stroke-opacity:0.2;"/>
     </g>
     <g id="line2d_6">
      <g>
       <use style="stroke:#000000;stroke-width:0.8;" x="309.917548" xlink:href="#m31ca6ae890" y="390.04"/>
      </g>
     </g>
     <g id="text_3">
      <!-- 2019-02-05 -->
      <defs>
       <path d="M 10.796875 72.90625 
L 49.515625 72.90625 
L 49.515625 64.59375 
L 19.828125 64.59375 
L 19.828125 46.734375 
Q 21.96875 47.46875 24.109375 47.828125 
Q 26.265625 48.1875 28.421875 48.1875 
Q 40.625 48.1875 47.75 41.5 
Q 54.890625 34.8125 54.890625 23.390625 
Q 54.890625 11.625 47.5625 5.09375 
Q 40.234375 -1.421875 26.90625 -1.421875 
Q 22.3125 -1.421875 17.546875 -0.640625 
Q 12.796875 0.140625 7.71875 1.703125 
L 7.71875 11.625 
Q 12.109375 9.234375 16.796875 8.0625 
Q 21.484375 6.890625 26.703125 6.890625 
Q 35.15625 6.890625 40.078125 11.328125 
Q 45.015625 15.765625 45.015625 23.390625 
Q 45.015625 31 40.078125 35.4375 
Q 35.15625 39.890625 26.703125 39.890625 
Q 22.75 39.890625 18.8125 39.015625 
Q 14.890625 38.140625 10.796875 36.28125 
z
" id="DejaVuSans-53"/>
      </defs>
      <g transform="translate(280.859736 404.638438)scale(0.1 -0.1)">
       <use xlink:href="#DejaVuSans-50"/>
       <use x="63.623047" xlink:href="#DejaVuSans-48"/>
       <use x="127.246094" xlink:href="#DejaVuSans-49"/>
       <use x="190.869141" xlink:href="#DejaVuSans-57"/>
       <use x="254.492188" xlink:href="#DejaVuSans-45"/>
       <use x="290.576172" xlink:href="#DejaVuSans-48"/>
       <use x="354.199219" xlink:href="#DejaVuSans-50"/>
       <use x="417.822266" xlink:href="#DejaVuSans-45"/>
       <use x="453.90625" xlink:href="#DejaVuSans-48"/>
       <use x="517.529297" xlink:href="#DejaVuSans-53"/>
      </g>
     </g>
    </g>
    <g id="xtick_4">
     <g id="line2d_7">
      <path clip-path="url(#pf7f9dd7794)" d="M 401.668072 390.04 
L 401.668072 10.8 
" style="fill:none;stroke:#808080;stroke-linecap:square;stroke-opacity:0.2;"/>
     </g>
     <g id="line2d_8">
      <g>
       <use style="stroke:#000000;stroke-width:0.8;" x="401.668072" xlink:href="#m31ca6ae890" y="390.04"/>
      </g>
     </g>
     <g id="text_4">
      <!-- 2019-02-19 -->
      <g transform="translate(372.610259 404.638438)scale(0.1 -0.1)">
       <use xlink:href="#DejaVuSans-50"/>
       <use x="63.623047" xlink:href="#DejaVuSans-48"/>
       <use x="127.246094" xlink:href="#DejaVuSans-49"/>
       <use x="190.869141" xlink:href="#DejaVuSans-57"/>
       <use x="254.492188" xlink:href="#DejaVuSans-45"/>
       <use x="290.576172" xlink:href="#DejaVuSans-48"/>
       <use x="354.199219" xlink:href="#DejaVuSans-50"/>
       <use x="417.822266" xlink:href="#DejaVuSans-45"/>
       <use x="453.90625" xlink:href="#DejaVuSans-49"/>
       <use x="517.529297" xlink:href="#DejaVuSans-57"/>
      </g>
     </g>
    </g>
    <g id="xtick_5">
     <g id="line2d_9">
      <path clip-path="url(#pf7f9dd7794)" d="M 493.418595 390.04 
L 493.418595 10.8 
" style="fill:none;stroke:#808080;stroke-linecap:square;stroke-opacity:0.2;"/>
     </g>
     <g id="line2d_10">
      <g>
       <use style="stroke:#000000;stroke-width:0.8;" x="493.418595" xlink:href="#m31ca6ae890" y="390.04"/>
      </g>
     </g>
     <g id="text_5">
      <!-- 2019-03-05 -->
      <defs>
       <path d="M 40.578125 39.3125 
Q 47.65625 37.796875 51.625 33 
Q 55.609375 28.21875 55.609375 21.1875 
Q 55.609375 10.40625 48.1875 4.484375 
Q 40.765625 -1.421875 27.09375 -1.421875 
Q 22.515625 -1.421875 17.65625 -0.515625 
Q 12.796875 0.390625 7.625 2.203125 
L 7.625 11.71875 
Q 11.71875 9.328125 16.59375 8.109375 
Q 21.484375 6.890625 26.8125 6.890625 
Q 36.078125 6.890625 40.9375 10.546875 
Q 45.796875 14.203125 45.796875 21.1875 
Q 45.796875 27.640625 41.28125 31.265625 
Q 36.765625 34.90625 28.71875 34.90625 
L 20.21875 34.90625 
L 20.21875 43.015625 
L 29.109375 43.015625 
Q 36.375 43.015625 40.234375 45.921875 
Q 44.09375 48.828125 44.09375 54.296875 
Q 44.09375 59.90625 40.109375 62.90625 
Q 36.140625 65.921875 28.71875 65.921875 
Q 24.65625 65.921875 20.015625 65.03125 
Q 15.375 64.15625 9.8125 62.3125 
L 9.8125 71.09375 
Q 15.4375 72.65625 20.34375 73.4375 
Q 25.25 74.21875 29.59375 74.21875 
Q 40.828125 74.21875 47.359375 69.109375 
Q 53.90625 64.015625 53.90625 55.328125 
Q 53.90625 49.265625 50.4375 45.09375 
Q 46.96875 40.921875 40.578125 39.3125 
z
" id="DejaVuSans-51"/>
      </defs>
      <g transform="translate(464.360783 404.638438)scale(0.1 -0.1)">
       <use xlink:href="#DejaVuSans-50"/>
       <use x="63.623047" xlink:href="#DejaVuSans-48"/>
       <use x="127.246094" xlink:href="#DejaVuSans-49"/>
       <use x="190.869141" xlink:href="#DejaVuSans-57"/>
       <use x="254.492188" xlink:href="#DejaVuSans-45"/>
       <use x="290.576172" xlink:href="#DejaVuSans-48"/>
       <use x="354.199219" xlink:href="#DejaVuSans-51"/>
       <use x="417.822266" xlink:href="#DejaVuSans-45"/>
       <use x="453.90625" xlink:href="#DejaVuSans-48"/>
       <use x="517.529297" xlink:href="#DejaVuSans-53"/>
      </g>
     </g>
    </g>
    <g id="xtick_6">
     <g id="line2d_11">
      <path clip-path="url(#pf7f9dd7794)" d="M 585.169118 390.04 
L 585.169118 10.8 
" style="fill:none;stroke:#808080;stroke-linecap:square;stroke-opacity:0.2;"/>
     </g>
     <g id="line2d_12">
      <g>
       <use style="stroke:#000000;stroke-width:0.8;" x="585.169118" xlink:href="#m31ca6ae890" y="390.04"/>
      </g>
     </g>
     <g id="text_6">
      <!-- 2019-03-19 -->
      <g transform="translate(556.111306 404.638438)scale(0.1 -0.1)">
       <use xlink:href="#DejaVuSans-50"/>
       <use x="63.623047" xlink:href="#DejaVuSans-48"/>
       <use x="127.246094" xlink:href="#DejaVuSans-49"/>
       <use x="190.869141" xlink:href="#DejaVuSans-57"/>
       <use x="254.492188" xlink:href="#DejaVuSans-45"/>
       <use x="290.576172" xlink:href="#DejaVuSans-48"/>
       <use x="354.199219" xlink:href="#DejaVuSans-51"/>
       <use x="417.822266" xlink:href="#DejaVuSans-45"/>
       <use x="453.90625" xlink:href="#DejaVuSans-49"/>
       <use x="517.529297" xlink:href="#DejaVuSans-57"/>
      </g>
     </g>
    </g>
    <g id="xtick_7">
     <g id="line2d_13">
      <path clip-path="url(#pf7f9dd7794)" d="M 676.919642 390.04 
L 676.919642 10.8 
" style="fill:none;stroke:#808080;stroke-linecap:square;stroke-opacity:0.2;"/>
     </g>
     <g id="line2d_14">
      <g>
       <use style="stroke:#000000;stroke-width:0.8;" x="676.919642" xlink:href="#m31ca6ae890" y="390.04"/>
      </g>
     </g>
     <g id="text_7">
      <!-- 2019-04-02 -->
      <defs>
       <path d="M 37.796875 64.3125 
L 12.890625 25.390625 
L 37.796875 25.390625 
z
M 35.203125 72.90625 
L 47.609375 72.90625 
L 47.609375 25.390625 
L 58.015625 25.390625 
L 58.015625 17.1875 
L 47.609375 17.1875 
L 47.609375 0 
L 37.796875 0 
L 37.796875 17.1875 
L 4.890625 17.1875 
L 4.890625 26.703125 
z
" id="DejaVuSans-52"/>
      </defs>
      <g transform="translate(647.861829 404.638438)scale(0.1 -0.1)">
       <use xlink:href="#DejaVuSans-50"/>
       <use x="63.623047" xlink:href="#DejaVuSans-48"/>
       <use x="127.246094" xlink:href="#DejaVuSans-49"/>
       <use x="190.869141" xlink:href="#DejaVuSans-57"/>
       <use x="254.492188" xlink:href="#DejaVuSans-45"/>
       <use x="290.576172" xlink:href="#DejaVuSans-48"/>
       <use x="354.199219" xlink:href="#DejaVuSans-52"/>
       <use x="417.822266" xlink:href="#DejaVuSans-45"/>
       <use x="453.90625" xlink:href="#DejaVuSans-48"/>
       <use x="517.529297" xlink:href="#DejaVuSans-50"/>
      </g>
     </g>
    </g>
    <g id="text_8">
     <!-- ds -->
     <defs>
      <path d="M 45.40625 46.390625 
L 45.40625 75.984375 
L 54.390625 75.984375 
L 54.390625 0 
L 45.40625 0 
L 45.40625 8.203125 
Q 42.578125 3.328125 38.25 0.953125 
Q 33.9375 -1.421875 27.875 -1.421875 
Q 17.96875 -1.421875 11.734375 6.484375 
Q 5.515625 14.40625 5.515625 27.296875 
Q 5.515625 40.1875 11.734375 48.09375 
Q 17.96875 56 27.875 56 
Q 33.9375 56 38.25 53.625 
Q 42.578125 51.265625 45.40625 46.390625 
z
M 14.796875 27.296875 
Q 14.796875 17.390625 18.875 11.75 
Q 22.953125 6.109375 30.078125 6.109375 
Q 37.203125 6.109375 41.296875 11.75 
Q 45.40625 17.390625 45.40625 27.296875 
Q 45.40625 37.203125 41.296875 42.84375 
Q 37.203125 48.484375 30.078125 48.484375 
Q 22.953125 48.484375 18.875 42.84375 
Q 14.796875 37.203125 14.796875 27.296875 
z
" id="DejaVuSans-100"/>
      <path d="M 44.28125 53.078125 
L 44.28125 44.578125 
Q 40.484375 46.53125 36.375 47.5 
Q 32.28125 48.484375 27.875 48.484375 
Q 21.1875 48.484375 17.84375 46.4375 
Q 14.5 44.390625 14.5 40.28125 
Q 14.5 37.15625 16.890625 35.375 
Q 19.28125 33.59375 26.515625 31.984375 
L 29.59375 31.296875 
Q 39.15625 29.25 43.1875 25.515625 
Q 47.21875 21.78125 47.21875 15.09375 
Q 47.21875 7.46875 41.1875 3.015625 
Q 35.15625 -1.421875 24.609375 -1.421875 
Q 20.21875 -1.421875 15.453125 -0.5625 
Q 10.6875 0.296875 5.421875 2 
L 5.421875 11.28125 
Q 10.40625 8.6875 15.234375 7.390625 
Q 20.0625 6.109375 24.8125 6.109375 
Q 31.15625 6.109375 34.5625 8.28125 
Q 37.984375 10.453125 37.984375 14.40625 
Q 37.984375 18.0625 35.515625 20.015625 
Q 33.0625 21.96875 24.703125 23.78125 
L 21.578125 24.515625 
Q 13.234375 26.265625 9.515625 29.90625 
Q 5.8125 33.546875 5.8125 39.890625 
Q 5.8125 47.609375 11.28125 51.796875 
Q 16.75 56 26.8125 56 
Q 31.78125 56 36.171875 55.265625 
Q 40.578125 54.546875 44.28125 53.078125 
z
" id="DejaVuSans-115"/>
     </defs>
     <g transform="translate(369.67473 418.316562)scale(0.1 -0.1)">
      <use xlink:href="#DejaVuSans-100"/>
      <use x="63.476562" xlink:href="#DejaVuSans-115"/>
     </g>
    </g>
   </g>
   <g id="matplotlib.axis_2">
    <g id="ytick_1">
     <g id="line2d_15">
      <path clip-path="url(#pf7f9dd7794)" d="M 51.05 370.789839 
L 699.857273 370.789839 
" style="fill:none;stroke:#808080;stroke-linecap:square;stroke-opacity:0.2;"/>
     </g>
     <g id="line2d_16">
      <defs>
       <path d="M 0 0 
L -3.5 0 
" id="m553e1f510b" style="stroke:#000000;stroke-width:0.8;"/>
      </defs>
      <g>
       <use style="stroke:#000000;stroke-width:0.8;" x="51.05" xlink:href="#m553e1f510b" y="370.789839"/>
      </g>
     </g>
     <g id="text_9">
      <!-- 100 -->
      <g transform="translate(24.9625 374.589058)scale(0.1 -0.1)">
       <use xlink:href="#DejaVuSans-49"/>
       <use x="63.623047" xlink:href="#DejaVuSans-48"/>
       <use x="127.246094" xlink:href="#DejaVuSans-48"/>
      </g>
     </g>
    </g>
    <g id="ytick_2">
     <g id="line2d_17">
      <path clip-path="url(#pf7f9dd7794)" d="M 51.05 319.290723 
L 699.857273 319.290723 
" style="fill:none;stroke:#808080;stroke-linecap:square;stroke-opacity:0.2;"/>
     </g>
     <g id="line2d_18">
      <g>
       <use style="stroke:#000000;stroke-width:0.8;" x="51.05" xlink:href="#m553e1f510b" y="319.290723"/>
      </g>
     </g>
     <g id="text_10">
      <!-- 125 -->
      <g transform="translate(24.9625 323.089942)scale(0.1 -0.1)">
       <use xlink:href="#DejaVuSans-49"/>
       <use x="63.623047" xlink:href="#DejaVuSans-50"/>
       <use x="127.246094" xlink:href="#DejaVuSans-53"/>
      </g>
     </g>
    </g>
    <g id="ytick_3">
     <g id="line2d_19">
      <path clip-path="url(#pf7f9dd7794)" d="M 51.05 267.791607 
L 699.857273 267.791607 
" style="fill:none;stroke:#808080;stroke-linecap:square;stroke-opacity:0.2;"/>
     </g>
     <g id="line2d_20">
      <g>
       <use style="stroke:#000000;stroke-width:0.8;" x="51.05" xlink:href="#m553e1f510b" y="267.791607"/>
      </g>
     </g>
     <g id="text_11">
      <!-- 150 -->
      <g transform="translate(24.9625 271.590826)scale(0.1 -0.1)">
       <use xlink:href="#DejaVuSans-49"/>
       <use x="63.623047" xlink:href="#DejaVuSans-53"/>
       <use x="127.246094" xlink:href="#DejaVuSans-48"/>
      </g>
     </g>
    </g>
    <g id="ytick_4">
     <g id="line2d_21">
      <path clip-path="url(#pf7f9dd7794)" d="M 51.05 216.292491 
L 699.857273 216.292491 
" style="fill:none;stroke:#808080;stroke-linecap:square;stroke-opacity:0.2;"/>
     </g>
     <g id="line2d_22">
      <g>
       <use style="stroke:#000000;stroke-width:0.8;" x="51.05" xlink:href="#m553e1f510b" y="216.292491"/>
      </g>
     </g>
     <g id="text_12">
      <!-- 175 -->
      <defs>
       <path d="M 8.203125 72.90625 
L 55.078125 72.90625 
L 55.078125 68.703125 
L 28.609375 0 
L 18.3125 0 
L 43.21875 64.59375 
L 8.203125 64.59375 
z
" id="DejaVuSans-55"/>
      </defs>
      <g transform="translate(24.9625 220.09171)scale(0.1 -0.1)">
       <use xlink:href="#DejaVuSans-49"/>
       <use x="63.623047" xlink:href="#DejaVuSans-55"/>
       <use x="127.246094" xlink:href="#DejaVuSans-53"/>
      </g>
     </g>
    </g>
    <g id="ytick_5">
     <g id="line2d_23">
      <path clip-path="url(#pf7f9dd7794)" d="M 51.05 164.793375 
L 699.857273 164.793375 
" style="fill:none;stroke:#808080;stroke-linecap:square;stroke-opacity:0.2;"/>
     </g>
     <g id="line2d_24">
      <g>
       <use style="stroke:#000000;stroke-width:0.8;" x="51.05" xlink:href="#m553e1f510b" y="164.793375"/>
      </g>
     </g>
     <g id="text_13">
      <!-- 200 -->
      <g transform="translate(24.9625 168.592594)scale(0.1 -0.1)">
       <use xlink:href="#DejaVuSans-50"/>
       <use x="63.623047" xlink:href="#DejaVuSans-48"/>
       <use x="127.246094" xlink:href="#DejaVuSans-48"/>
      </g>
     </g>
    </g>
    <g id="ytick_6">
     <g id="line2d_25">
      <path clip-path="url(#pf7f9dd7794)" d="M 51.05 113.294259 
L 699.857273 113.294259 
" style="fill:none;stroke:#808080;stroke-linecap:square;stroke-opacity:0.2;"/>
     </g>
     <g id="line2d_26">
      <g>
       <use style="stroke:#000000;stroke-width:0.8;" x="51.05" xlink:href="#m553e1f510b" y="113.294259"/>
      </g>
     </g>
     <g id="text_14">
      <!-- 225 -->
      <g transform="translate(24.9625 117.093478)scale(0.1 -0.1)">
       <use xlink:href="#DejaVuSans-50"/>
       <use x="63.623047" xlink:href="#DejaVuSans-50"/>
       <use x="127.246094" xlink:href="#DejaVuSans-53"/>
      </g>
     </g>
    </g>
    <g id="ytick_7">
     <g id="line2d_27">
      <path clip-path="url(#pf7f9dd7794)" d="M 51.05 61.795143 
L 699.857273 61.795143 
" style="fill:none;stroke:#808080;stroke-linecap:square;stroke-opacity:0.2;"/>
     </g>
     <g id="line2d_28">
      <g>
       <use style="stroke:#000000;stroke-width:0.8;" x="51.05" xlink:href="#m553e1f510b" y="61.795143"/>
      </g>
     </g>
     <g id="text_15">
      <!-- 250 -->
      <g transform="translate(24.9625 65.594362)scale(0.1 -0.1)">
       <use xlink:href="#DejaVuSans-50"/>
       <use x="63.623047" xlink:href="#DejaVuSans-53"/>
       <use x="127.246094" xlink:href="#DejaVuSans-48"/>
      </g>
     </g>
    </g>
    <g id="text_16">
     <!-- y -->
     <defs>
      <path d="M 32.171875 -5.078125 
Q 28.375 -14.84375 24.75 -17.8125 
Q 21.140625 -20.796875 15.09375 -20.796875 
L 7.90625 -20.796875 
L 7.90625 -13.28125 
L 13.1875 -13.28125 
Q 16.890625 -13.28125 18.9375 -11.515625 
Q 21 -9.765625 23.484375 -3.21875 
L 25.09375 0.875 
L 2.984375 54.6875 
L 12.5 54.6875 
L 29.59375 11.921875 
L 46.6875 54.6875 
L 56.203125 54.6875 
z
" id="DejaVuSans-121"/>
     </defs>
     <g transform="translate(18.882812 203.379375)rotate(-90)scale(0.1 -0.1)">
      <use xlink:href="#DejaVuSans-121"/>
     </g>
    </g>
   </g>
   <g id="line2d_29">
    <defs>
     <path d="M 0 1.5 
C 0.397805 1.5 0.77937 1.341951 1.06066 1.06066 
C 1.341951 0.77937 1.5 0.397805 1.5 0 
C 1.5 -0.397805 1.341951 -0.77937 1.06066 -1.06066 
C 0.77937 -1.341951 0.397805 -1.5 0 -1.5 
C -0.397805 -1.5 -0.77937 -1.341951 -1.06066 -1.06066 
C -1.341951 -0.77937 -1.5 -0.397805 -1.5 0 
C -1.5 0.397805 -1.341951 0.77937 -1.06066 1.06066 
C -0.77937 1.341951 -0.397805 1.5 0 1.5 
z
" id="m27b104f12a" style="stroke:#000000;"/>
    </defs>
    <g clip-path="url(#pf7f9dd7794)">
     <use style="stroke:#000000;" x="80.54124" xlink:href="#m27b104f12a" y="51.49532"/>
     <use style="stroke:#000000;" x="87.094848" xlink:href="#m27b104f12a" y="292.511183"/>
     <use style="stroke:#000000;" x="100.202066" xlink:href="#m27b104f12a" y="51.49532"/>
     <use style="stroke:#000000;" x="106.755675" xlink:href="#m27b104f12a" y="292.511183"/>
     <use style="stroke:#000000;" x="113.309284" xlink:href="#m27b104f12a" y="284.271324"/>
     <use style="stroke:#000000;" x="119.862893" xlink:href="#m27b104f12a" y="51.49532"/>
     <use style="stroke:#000000;" x="126.416501" xlink:href="#m27b104f12a" y="282.21136"/>
     <use style="stroke:#000000;" x="132.97011" xlink:href="#m27b104f12a" y="296.631112"/>
     <use style="stroke:#000000;" x="139.523719" xlink:href="#m27b104f12a" y="51.49532"/>
     <use style="stroke:#000000;" x="146.077328" xlink:href="#m27b104f12a" y="294.571147"/>
     <use style="stroke:#000000;" x="152.630937" xlink:href="#m27b104f12a" y="288.391254"/>
     <use style="stroke:#000000;" x="159.184545" xlink:href="#m27b104f12a" y="51.49532"/>
     <use style="stroke:#000000;" x="165.738154" xlink:href="#m27b104f12a" y="292.511183"/>
     <use style="stroke:#000000;" x="178.845372" xlink:href="#m27b104f12a" y="51.49532"/>
     <use style="stroke:#000000;" x="185.398981" xlink:href="#m27b104f12a" y="284.271324"/>
     <use style="stroke:#000000;" x="191.95259" xlink:href="#m27b104f12a" y="284.271324"/>
     <use style="stroke:#000000;" x="198.506198" xlink:href="#m27b104f12a" y="51.49532"/>
     <use style="stroke:#000000;" x="205.059807" xlink:href="#m27b104f12a" y="280.151395"/>
     <use style="stroke:#000000;" x="211.613416" xlink:href="#m27b104f12a" y="288.391254"/>
     <use style="stroke:#000000;" x="218.167025" xlink:href="#m27b104f12a" y="51.49532"/>
     <use style="stroke:#000000;" x="224.720634" xlink:href="#m27b104f12a" y="296.631112"/>
     <use style="stroke:#000000;" x="231.274242" xlink:href="#m27b104f12a" y="280.151395"/>
     <use style="stroke:#000000;" x="237.827851" xlink:href="#m27b104f12a" y="51.49532"/>
     <use style="stroke:#000000;" x="244.38146" xlink:href="#m27b104f12a" y="276.031466"/>
     <use style="stroke:#000000;" x="250.935069" xlink:href="#m27b104f12a" y="284.271324"/>
     <use style="stroke:#000000;" x="257.488678" xlink:href="#m27b104f12a" y="51.49532"/>
     <use style="stroke:#000000;" x="264.042287" xlink:href="#m27b104f12a" y="292.511183"/>
     <use style="stroke:#000000;" x="270.595895" xlink:href="#m27b104f12a" y="276.031466"/>
     <use style="stroke:#000000;" x="277.149504" xlink:href="#m27b104f12a" y="51.49532"/>
     <use style="stroke:#000000;" x="283.703113" xlink:href="#m27b104f12a" y="286.331289"/>
     <use style="stroke:#000000;" x="290.256722" xlink:href="#m27b104f12a" y="288.391254"/>
     <use style="stroke:#000000;" x="296.810331" xlink:href="#m27b104f12a" y="51.49532"/>
     <use style="stroke:#000000;" x="303.363939" xlink:href="#m27b104f12a" y="282.21136"/>
     <use style="stroke:#000000;" x="309.917548" xlink:href="#m27b104f12a" y="292.511183"/>
     <use style="stroke:#000000;" x="316.471157" xlink:href="#m27b104f12a" y="51.49532"/>
     <use style="stroke:#000000;" x="323.024766" xlink:href="#m27b104f12a" y="300.751041"/>
     <use style="stroke:#000000;" x="329.578375" xlink:href="#m27b104f12a" y="284.271324"/>
     <use style="stroke:#000000;" x="336.131983" xlink:href="#m27b104f12a" y="51.49532"/>
     <use style="stroke:#000000;" x="342.685592" xlink:href="#m27b104f12a" y="280.151395"/>
     <use style="stroke:#000000;" x="349.239201" xlink:href="#m27b104f12a" y="288.391254"/>
     <use style="stroke:#000000;" x="355.79281" xlink:href="#m27b104f12a" y="51.49532"/>
     <use style="stroke:#000000;" x="368.900028" xlink:href="#m27b104f12a" y="280.151395"/>
     <use style="stroke:#000000;" x="382.007245" xlink:href="#m27b104f12a" y="284.271324"/>
     <use style="stroke:#000000;" x="388.560854" xlink:href="#m27b104f12a" y="284.271324"/>
     <use style="stroke:#000000;" x="395.114463" xlink:href="#m27b104f12a" y="51.49532"/>
     <use style="stroke:#000000;" x="401.668072" xlink:href="#m27b104f12a" y="284.271324"/>
     <use style="stroke:#000000;" x="414.775289" xlink:href="#m27b104f12a" y="51.49532"/>
     <use style="stroke:#000000;" x="421.328898" xlink:href="#m27b104f12a" y="288.391254"/>
     <use style="stroke:#000000;" x="427.882507" xlink:href="#m27b104f12a" y="284.271324"/>
     <use style="stroke:#000000;" x="434.436116" xlink:href="#m27b104f12a" y="51.49532"/>
     <use style="stroke:#000000;" x="447.543333" xlink:href="#m27b104f12a" y="284.271324"/>
     <use style="stroke:#000000;" x="454.096942" xlink:href="#m27b104f12a" y="51.49532"/>
     <use style="stroke:#000000;" x="460.650551" xlink:href="#m27b104f12a" y="288.391254"/>
     <use style="stroke:#000000;" x="467.20416" xlink:href="#m27b104f12a" y="292.511183"/>
     <use style="stroke:#000000;" x="473.757769" xlink:href="#m27b104f12a" y="51.49532"/>
     <use style="stroke:#000000;" x="486.864986" xlink:href="#m27b104f12a" y="288.391254"/>
     <use style="stroke:#000000;" x="493.418595" xlink:href="#m27b104f12a" y="51.49532"/>
     <use style="stroke:#000000;" x="499.972204" xlink:href="#m27b104f12a" y="280.151395"/>
     <use style="stroke:#000000;" x="506.525813" xlink:href="#m27b104f12a" y="286.331289"/>
     <use style="stroke:#000000;" x="513.079421" xlink:href="#m27b104f12a" y="51.49532"/>
     <use style="stroke:#000000;" x="519.63303" xlink:href="#m27b104f12a" y="298.691077"/>
     <use style="stroke:#000000;" x="526.186639" xlink:href="#m27b104f12a" y="278.09143"/>
     <use style="stroke:#000000;" x="532.740248" xlink:href="#m27b104f12a" y="51.49532"/>
     <use style="stroke:#000000;" x="539.293857" xlink:href="#m27b104f12a" y="292.511183"/>
     <use style="stroke:#000000;" x="545.847466" xlink:href="#m27b104f12a" y="284.271324"/>
     <use style="stroke:#000000;" x="552.401074" xlink:href="#m27b104f12a" y="51.49532"/>
     <use style="stroke:#000000;" x="558.954683" xlink:href="#m27b104f12a" y="288.391254"/>
     <use style="stroke:#000000;" x="565.508292" xlink:href="#m27b104f12a" y="286.331289"/>
     <use style="stroke:#000000;" x="572.061901" xlink:href="#m27b104f12a" y="51.49532"/>
     <use style="stroke:#000000;" x="578.61551" xlink:href="#m27b104f12a" y="284.271324"/>
     <use style="stroke:#000000;" x="585.169118" xlink:href="#m27b104f12a" y="284.271324"/>
     <use style="stroke:#000000;" x="591.722727" xlink:href="#m27b104f12a" y="51.49532"/>
     <use style="stroke:#000000;" x="604.829945" xlink:href="#m27b104f12a" y="292.511183"/>
     <use style="stroke:#000000;" x="611.383554" xlink:href="#m27b104f12a" y="51.49532"/>
     <use style="stroke:#000000;" x="617.937163" xlink:href="#m27b104f12a" y="288.391254"/>
     <use style="stroke:#000000;" x="624.490771" xlink:href="#m27b104f12a" y="284.271324"/>
     <use style="stroke:#000000;" x="631.04438" xlink:href="#m27b104f12a" y="51.49532"/>
     <use style="stroke:#000000;" x="637.597989" xlink:href="#m27b104f12a" y="292.511183"/>
     <use style="stroke:#000000;" x="650.705207" xlink:href="#m27b104f12a" y="51.49532"/>
     <use style="stroke:#000000;" x="657.258815" xlink:href="#m27b104f12a" y="284.271324"/>
     <use style="stroke:#000000;" x="663.812424" xlink:href="#m27b104f12a" y="288.391254"/>
    </g>
   </g>
   <g id="line2d_30">
    <path clip-path="url(#pf7f9dd7794)" d="M 80.54124 186.921189 
L 87.094848 200.130247 
L 100.202066 207.612772 
L 106.755675 212.395799 
L 113.309284 204.041174 
L 119.862893 199.404792 
L 126.416501 187.269225 
L 132.97011 200.478283 
L 139.523719 191.075844 
L 146.077328 207.960808 
L 152.630937 212.743836 
L 159.184545 204.389211 
L 165.738154 199.752829 
L 178.845372 200.826319 
L 185.398981 191.42388 
L 191.95259 208.308845 
L 198.506198 213.091872 
L 205.059807 204.737247 
L 211.613416 200.100865 
L 218.167025 187.965298 
L 224.720634 201.174356 
L 231.274242 191.771917 
L 237.827851 208.656881 
L 244.38146 213.439909 
L 250.935069 205.085283 
L 257.488678 200.448901 
L 264.042287 188.313334 
L 270.595895 201.522392 
L 277.149504 192.119953 
L 283.703113 209.004918 
L 290.256722 213.787945 
L 296.810331 205.43332 
L 303.363939 200.796938 
L 309.917548 188.66137 
L 316.471157 201.870428 
L 323.024766 192.467989 
L 329.578375 209.352954 
L 336.131983 214.135981 
L 342.685592 205.781356 
L 349.239201 201.144974 
L 355.79281 189.009407 
L 368.900028 192.816026 
L 382.007245 214.484018 
L 388.560854 206.129393 
L 395.114463 201.493011 
L 401.668072 189.357443 
L 414.775289 193.164062 
L 421.328898 210.049027 
L 427.882507 214.832054 
L 434.436116 206.477429 
L 447.543333 189.705479 
L 454.096942 202.914538 
L 460.650551 193.512098 
L 467.20416 210.397063 
L 473.757769 215.18009 
L 486.864986 202.189083 
L 493.418595 190.053516 
L 499.972204 203.262574 
L 506.525813 193.860135 
L 513.079421 210.745099 
L 519.63303 215.528127 
L 526.186639 207.173502 
L 532.740248 202.53712 
L 539.293857 190.401552 
L 545.847466 203.61061 
L 552.401074 194.208171 
L 558.954683 211.093136 
L 565.508292 215.876163 
L 572.061901 207.521538 
L 578.61551 202.885156 
L 585.169118 190.749588 
L 591.722727 203.958647 
L 604.829945 211.441172 
L 611.383554 216.224199 
L 617.937163 207.869574 
L 624.490771 203.233192 
L 631.04438 191.097625 
L 637.597989 204.306683 
L 650.705207 211.789208 
L 657.258815 216.572236 
L 663.812424 208.217611 
L 670.366033 203.581229 
" style="fill:none;stroke:#0072b2;stroke-linecap:square;stroke-width:1.5;"/>
   </g>
   <g id="patch_3">
    <path d="M 51.05 390.04 
L 51.05 10.8 
" style="fill:none;stroke:#000000;stroke-linecap:square;stroke-linejoin:miter;stroke-width:0.8;"/>
   </g>
   <g id="patch_4">
    <path d="M 699.857273 390.04 
L 699.857273 10.8 
" style="fill:none;stroke:#000000;stroke-linecap:square;stroke-linejoin:miter;stroke-width:0.8;"/>
   </g>
   <g id="patch_5">
    <path d="M 51.05 390.04 
L 699.857273 390.04 
" style="fill:none;stroke:#000000;stroke-linecap:square;stroke-linejoin:miter;stroke-width:0.8;"/>
   </g>
   <g id="patch_6">
    <path d="M 51.05 10.8 
L 699.857273 10.8 
" style="fill:none;stroke:#000000;stroke-linecap:square;stroke-linejoin:miter;stroke-width:0.8;"/>
   </g>
  </g>
 </g>
 <defs>
  <clipPath id="pf7f9dd7794">
   <rect height="379.24" width="648.807273" x="51.05" y="10.8"/>
  </clipPath>
 </defs>
</svg>
