<?xml version="1.0" encoding="utf-8" standalone="no"?>
<!DOCTYPE svg PUBLIC "-//W3C//DTD SVG 1.1//EN"
  "http://www.w3.org/Graphics/SVG/1.1/DTD/svg11.dtd">
<!-- Created with matplotlib (https://matplotlib.org/) -->
<svg height="432pt" version="1.1" viewBox="0 0 720 432" width="720pt" xmlns="http://www.w3.org/2000/svg" xmlns:xlink="http://www.w3.org/1999/xlink">
 <defs>
  <style type="text/css">
*{stroke-linecap:butt;stroke-linejoin:round;}
  </style>
 </defs>
 <g id="figure_1">
  <g id="patch_1">
   <path d="M 0 432 
L 720 432 
L 720 0 
L 0 0 
z
" style="fill:#ffffff;"/>
  </g>
  <g id="axes_1">
   <g id="patch_2">
    <path d="M 51.05 390.04 
L 699.857273 390.04 
L 699.857273 10.8 
L 51.05 10.8 
z
" style="fill:#ffffff;"/>
   </g>
   <g id="PolyCollection_1">
    <defs>
     <path d="M 80.54124 -401.593594 
L 80.54124 -89.751252 
L 87.094848 -94.733104 
L 100.202066 -88.591583 
L 106.755675 -74.316492 
L 113.309284 -76.263309 
L 119.862893 -79.343101 
L 126.416501 -105.056061 
L 132.97011 -95.883686 
L 139.523719 -100.794365 
L 146.077328 -88.85388 
L 152.630937 -81.628282 
L 159.184545 -82.306187 
L 165.738154 -90.777723 
L 178.845372 -92.809903 
L 185.398981 -104.381898 
L 191.95259 -82.550569 
L 198.506198 -76.78957 
L 205.059807 -82.543581 
L 211.613416 -90.4024 
L 218.167025 -108.63099 
L 224.720634 -94.836639 
L 231.274242 -100.058216 
L 237.827851 -82.85381 
L 244.38146 -80.333821 
L 250.935069 -90.700789 
L 257.488678 -80.010923 
L 264.042287 -107.42895 
L 270.595895 -93.370123 
L 277.149504 -99.560935 
L 283.703113 -84.696676 
L 290.256722 -79.952701 
L 296.810331 -90.055033 
L 303.363939 -90.603571 
L 309.917548 -96.16177 
L 316.471157 -102.838314 
L 323.024766 -101.618954 
L 329.578375 -76.776141 
L 336.131983 -68.845407 
L 342.685592 -84.167726 
L 349.239201 -86.740643 
L 355.79281 -97.804964 
L 368.900028 -93.510387 
L 382.007245 -76.453863 
L 388.560854 -78.465573 
L 395.114463 -89.473499 
L 401.668072 -98.953068 
L 414.775289 -92.658219 
L 421.328898 -85.779241 
L 427.882507 -59.198182 
L 434.436116 -66.875726 
L 447.543333 -96.813209 
L 454.096942 -80.261935 
L 460.650551 -82.56022 
L 467.20416 -82.306287 
L 473.757769 -84.917594 
L 486.864986 -75.553627 
L 493.418595 -101.770085 
L 499.972204 -83.743272 
L 506.525813 -102.782222 
L 513.079421 -83.204626 
L 519.63303 -77.933133 
L 526.186639 -76.130606 
L 532.740248 -89.727518 
L 539.293857 -102.444526 
L 545.847466 -94.106167 
L 552.401074 -85.472851 
L 558.954683 -81.09269 
L 565.508292 -75.823304 
L 572.061901 -72.698997 
L 578.61551 -89.904547 
L 585.169118 -90.500969 
L 591.722727 -84.358331 
L 604.829945 -78.803663 
L 611.383554 -68.457117 
L 617.937163 -82.088048 
L 624.490771 -85.092188 
L 631.04438 -96.970995 
L 637.597989 -83.146452 
L 650.705207 -72.111482 
L 657.258815 -80.122392 
L 663.812424 -64.063709 
L 670.366033 -81.673533 
L 670.366033 -367.018008 
L 670.366033 -367.018008 
L 663.812424 -352.086915 
L 657.258815 -340.49845 
L 650.705207 -346.907493 
L 637.597989 -364.499827 
L 631.04438 -381.38894 
L 624.490771 -359.287675 
L 617.937163 -352.128197 
L 611.383554 -348.488494 
L 604.829945 -356.425363 
L 591.722727 -370.255735 
L 585.169118 -367.73833 
L 578.61551 -364.21646 
L 572.061901 -365.053648 
L 565.508292 -339.550388 
L 558.954683 -352.431414 
L 552.401074 -368.089968 
L 545.847466 -360.446751 
L 539.293857 -370.64877 
L 532.740248 -369.332337 
L 526.186639 -356.649997 
L 519.63303 -354.991931 
L 513.079421 -346.163762 
L 506.525813 -369.327313 
L 499.972204 -366.4874 
L 493.418595 -376.95739 
L 486.864986 -359.777929 
L 473.757769 -347.97403 
L 467.20416 -355.852269 
L 460.650551 -367.706366 
L 454.096942 -374.318419 
L 447.543333 -380.678639 
L 434.436116 -357.884671 
L 427.882507 -357.405003 
L 421.328898 -358.82752 
L 414.775289 -371.620408 
L 401.668072 -378.307178 
L 395.114463 -375.033424 
L 388.560854 -357.377865 
L 382.007245 -352.366884 
L 368.900028 -371.603408 
L 355.79281 -381.925293 
L 349.239201 -365.71564 
L 342.685592 -370.196412 
L 336.131983 -356.739591 
L 329.578375 -361.530978 
L 323.024766 -375.550429 
L 316.471157 -375.367048 
L 309.917548 -368.440924 
L 303.363939 -369.198954 
L 296.810331 -358.22701 
L 290.256722 -358.361576 
L 283.703113 -361.193372 
L 277.149504 -374.955113 
L 270.595895 -377.649464 
L 264.042287 -403.961818 
L 257.488678 -372.910852 
L 250.935069 -348.400997 
L 244.38146 -352.899156 
L 237.827851 -369.263245 
L 231.274242 -382.181278 
L 224.720634 -372.398284 
L 218.167025 -386.683539 
L 211.613416 -362.150912 
L 205.059807 -363.245542 
L 198.506198 -356.918109 
L 191.95259 -363.393632 
L 185.398981 -374.616684 
L 178.845372 -373.512764 
L 165.738154 -363.87696 
L 159.184545 -364.453032 
L 152.630937 -363.183614 
L 146.077328 -363.059185 
L 139.523719 -380.643275 
L 132.97011 -380.902922 
L 126.416501 -377.679525 
L 119.862893 -373.032335 
L 113.309284 -363.646039 
L 106.755675 -361.949669 
L 100.202066 -371.947629 
L 87.094848 -371.338086 
L 80.54124 -401.593594 
z
" id="md47217f075" style="stroke:#0072b2;stroke-opacity:0.2;"/>
    </defs>
    <g clip-path="url(#pa814a43a0a)">
     <use style="fill:#0072b2;fill-opacity:0.2;stroke:#0072b2;stroke-opacity:0.2;" x="0" xlink:href="#md47217f075" y="432"/>
    </g>
   </g>
   <g id="matplotlib.axis_1">
    <g id="xtick_1">
     <g id="line2d_1">
      <path clip-path="url(#pa814a43a0a)" d="M 126.416501 390.04 
L 126.416501 10.8 
" style="fill:none;stroke:#808080;stroke-linecap:square;stroke-opacity:0.2;"/>
     </g>
     <g id="line2d_2">
      <defs>
       <path d="M 0 0 
L 0 3.5 
" id="m8d7218b464" style="stroke:#000000;stroke-width:0.8;"/>
      </defs>
      <g>
       <use style="stroke:#000000;stroke-width:0.8;" x="126.416501" xlink:href="#m8d7218b464" y="390.04"/>
      </g>
     </g>
     <g id="text_1">
      <!-- 2019-01-08 -->
      <defs>
       <path d="M 19.1875 8.296875 
L 53.609375 8.296875 
L 53.609375 0 
L 7.328125 0 
L 7.328125 8.296875 
Q 12.9375 14.109375 22.625 23.890625 
Q 32.328125 33.6875 34.8125 36.53125 
Q 39.546875 41.84375 41.421875 45.53125 
Q 43.3125 49.21875 43.3125 52.78125 
Q 43.3125 58.59375 39.234375 62.25 
Q 35.15625 65.921875 28.609375 65.921875 
Q 23.96875 65.921875 18.8125 64.3125 
Q 13.671875 62.703125 7.8125 59.421875 
L 7.8125 69.390625 
Q 13.765625 71.78125 18.9375 73 
Q 24.125 74.21875 28.421875 74.21875 
Q 39.75 74.21875 46.484375 68.546875 
Q 53.21875 62.890625 53.21875 53.421875 
Q 53.21875 48.921875 51.53125 44.890625 
Q 49.859375 40.875 45.40625 35.40625 
Q 44.1875 33.984375 37.640625 27.21875 
Q 31.109375 20.453125 19.1875 8.296875 
z
" id="DejaVuSans-50"/>
       <path d="M 31.78125 66.40625 
Q 24.171875 66.40625 20.328125 58.90625 
Q 16.5 51.421875 16.5 36.375 
Q 16.5 21.390625 20.328125 13.890625 
Q 24.171875 6.390625 31.78125 6.390625 
Q 39.453125 6.390625 43.28125 13.890625 
Q 47.125 21.390625 47.125 36.375 
Q 47.125 51.421875 43.28125 58.90625 
Q 39.453125 66.40625 31.78125 66.40625 
z
M 31.78125 74.21875 
Q 44.046875 74.21875 50.515625 64.515625 
Q 56.984375 54.828125 56.984375 36.375 
Q 56.984375 17.96875 50.515625 8.265625 
Q 44.046875 -1.421875 31.78125 -1.421875 
Q 19.53125 -1.421875 13.0625 8.265625 
Q 6.59375 17.96875 6.59375 36.375 
Q 6.59375 54.828125 13.0625 64.515625 
Q 19.53125 74.21875 31.78125 74.21875 
z
" id="DejaVuSans-48"/>
       <path d="M 12.40625 8.296875 
L 28.515625 8.296875 
L 28.515625 63.921875 
L 10.984375 60.40625 
L 10.984375 69.390625 
L 28.421875 72.90625 
L 38.28125 72.90625 
L 38.28125 8.296875 
L 54.390625 8.296875 
L 54.390625 0 
L 12.40625 0 
z
" id="DejaVuSans-49"/>
       <path d="M 10.984375 1.515625 
L 10.984375 10.5 
Q 14.703125 8.734375 18.5 7.8125 
Q 22.3125 6.890625 25.984375 6.890625 
Q 35.75 6.890625 40.890625 13.453125 
Q 46.046875 20.015625 46.78125 33.40625 
Q 43.953125 29.203125 39.59375 26.953125 
Q 35.25 24.703125 29.984375 24.703125 
Q 19.046875 24.703125 12.671875 31.3125 
Q 6.296875 37.9375 6.296875 49.421875 
Q 6.296875 60.640625 12.9375 67.421875 
Q 19.578125 74.21875 30.609375 74.21875 
Q 43.265625 74.21875 49.921875 64.515625 
Q 56.59375 54.828125 56.59375 36.375 
Q 56.59375 19.140625 48.40625 8.859375 
Q 40.234375 -1.421875 26.421875 -1.421875 
Q 22.703125 -1.421875 18.890625 -0.6875 
Q 15.09375 0.046875 10.984375 1.515625 
z
M 30.609375 32.421875 
Q 37.25 32.421875 41.125 36.953125 
Q 45.015625 41.5 45.015625 49.421875 
Q 45.015625 57.28125 41.125 61.84375 
Q 37.25 66.40625 30.609375 66.40625 
Q 23.96875 66.40625 20.09375 61.84375 
Q 16.21875 57.28125 16.21875 49.421875 
Q 16.21875 41.5 20.09375 36.953125 
Q 23.96875 32.421875 30.609375 32.421875 
z
" id="DejaVuSans-57"/>
       <path d="M 4.890625 31.390625 
L 31.203125 31.390625 
L 31.203125 23.390625 
L 4.890625 23.390625 
z
" id="DejaVuSans-45"/>
       <path d="M 31.78125 34.625 
Q 24.75 34.625 20.71875 30.859375 
Q 16.703125 27.09375 16.703125 20.515625 
Q 16.703125 13.921875 20.71875 10.15625 
Q 24.75 6.390625 31.78125 6.390625 
Q 38.8125 6.390625 42.859375 10.171875 
Q 46.921875 13.96875 46.921875 20.515625 
Q 46.921875 27.09375 42.890625 30.859375 
Q 38.875 34.625 31.78125 34.625 
z
M 21.921875 38.8125 
Q 15.578125 40.375 12.03125 44.71875 
Q 8.5 49.078125 8.5 55.328125 
Q 8.5 64.0625 14.71875 69.140625 
Q 20.953125 74.21875 31.78125 74.21875 
Q 42.671875 74.21875 48.875 69.140625 
Q 55.078125 64.0625 55.078125 55.328125 
Q 55.078125 49.078125 51.53125 44.71875 
Q 48 40.375 41.703125 38.8125 
Q 48.828125 37.15625 52.796875 32.3125 
Q 56.78125 27.484375 56.78125 20.515625 
Q 56.78125 9.90625 50.3125 4.234375 
Q 43.84375 -1.421875 31.78125 -1.421875 
Q 19.734375 -1.421875 13.25 4.234375 
Q 6.78125 9.90625 6.78125 20.515625 
Q 6.78125 27.484375 10.78125 32.3125 
Q 14.796875 37.15625 21.921875 38.8125 
z
M 18.3125 54.390625 
Q 18.3125 48.734375 21.84375 45.5625 
Q 25.390625 42.390625 31.78125 42.390625 
Q 38.140625 42.390625 41.71875 45.5625 
Q 45.3125 48.734375 45.3125 54.390625 
Q 45.3125 60.0625 41.71875 63.234375 
Q 38.140625 66.40625 31.78125 66.40625 
Q 25.390625 66.40625 21.84375 63.234375 
Q 18.3125 60.0625 18.3125 54.390625 
z
" id="DejaVuSans-56"/>
      </defs>
      <g transform="translate(97.358689 404.638438)scale(0.1 -0.1)">
       <use xlink:href="#DejaVuSans-50"/>
       <use x="63.623047" xlink:href="#DejaVuSans-48"/>
       <use x="127.246094" xlink:href="#DejaVuSans-49"/>
       <use x="190.869141" xlink:href="#DejaVuSans-57"/>
       <use x="254.492188" xlink:href="#DejaVuSans-45"/>
       <use x="290.576172" xlink:href="#DejaVuSans-48"/>
       <use x="354.199219" xlink:href="#DejaVuSans-49"/>
       <use x="417.822266" xlink:href="#DejaVuSans-45"/>
       <use x="453.90625" xlink:href="#DejaVuSans-48"/>
       <use x="517.529297" xlink:href="#DejaVuSans-56"/>
      </g>
     </g>
    </g>
    <g id="xtick_2">
     <g id="line2d_3">
      <path clip-path="url(#pa814a43a0a)" d="M 218.167025 390.04 
L 218.167025 10.8 
" style="fill:none;stroke:#808080;stroke-linecap:square;stroke-opacity:0.2;"/>
     </g>
     <g id="line2d_4">
      <g>
       <use style="stroke:#000000;stroke-width:0.8;" x="218.167025" xlink:href="#m8d7218b464" y="390.04"/>
      </g>
     </g>
     <g id="text_2">
      <!-- 2019-01-22 -->
      <g transform="translate(189.109212 404.638438)scale(0.1 -0.1)">
       <use xlink:href="#DejaVuSans-50"/>
       <use x="63.623047" xlink:href="#DejaVuSans-48"/>
       <use x="127.246094" xlink:href="#DejaVuSans-49"/>
       <use x="190.869141" xlink:href="#DejaVuSans-57"/>
       <use x="254.492188" xlink:href="#DejaVuSans-45"/>
       <use x="290.576172" xlink:href="#DejaVuSans-48"/>
       <use x="354.199219" xlink:href="#DejaVuSans-49"/>
       <use x="417.822266" xlink:href="#DejaVuSans-45"/>
       <use x="453.90625" xlink:href="#DejaVuSans-50"/>
       <use x="517.529297" xlink:href="#DejaVuSans-50"/>
      </g>
     </g>
    </g>
    <g id="xtick_3">
     <g id="line2d_5">
      <path clip-path="url(#pa814a43a0a)" d="M 309.917548 390.04 
L 309.917548 10.8 
" style="fill:none;stroke:#808080;stroke-linecap:square;stroke-opacity:0.2;"/>
     </g>
     <g id="line2d_6">
      <g>
       <use style="stroke:#000000;stroke-width:0.8;" x="309.917548" xlink:href="#m8d7218b464" y="390.04"/>
      </g>
     </g>
     <g id="text_3">
      <!-- 2019-02-05 -->
      <defs>
       <path d="M 10.796875 72.90625 
L 49.515625 72.90625 
L 49.515625 64.59375 
L 19.828125 64.59375 
L 19.828125 46.734375 
Q 21.96875 47.46875 24.109375 47.828125 
Q 26.265625 48.1875 28.421875 48.1875 
Q 40.625 48.1875 47.75 41.5 
Q 54.890625 34.8125 54.890625 23.390625 
Q 54.890625 11.625 47.5625 5.09375 
Q 40.234375 -1.421875 26.90625 -1.421875 
Q 22.3125 -1.421875 17.546875 -0.640625 
Q 12.796875 0.140625 7.71875 1.703125 
L 7.71875 11.625 
Q 12.109375 9.234375 16.796875 8.0625 
Q 21.484375 6.890625 26.703125 6.890625 
Q 35.15625 6.890625 40.078125 11.328125 
Q 45.015625 15.765625 45.015625 23.390625 
Q 45.015625 31 40.078125 35.4375 
Q 35.15625 39.890625 26.703125 39.890625 
Q 22.75 39.890625 18.8125 39.015625 
Q 14.890625 38.140625 10.796875 36.28125 
z
" id="DejaVuSans-53"/>
      </defs>
      <g transform="translate(280.859736 404.638438)scale(0.1 -0.1)">
       <use xlink:href="#DejaVuSans-50"/>
       <use x="63.623047" xlink:href="#DejaVuSans-48"/>
       <use x="127.246094" xlink:href="#DejaVuSans-49"/>
       <use x="190.869141" xlink:href="#DejaVuSans-57"/>
       <use x="254.492188" xlink:href="#DejaVuSans-45"/>
       <use x="290.576172" xlink:href="#DejaVuSans-48"/>
       <use x="354.199219" xlink:href="#DejaVuSans-50"/>
       <use x="417.822266" xlink:href="#DejaVuSans-45"/>
       <use x="453.90625" xlink:href="#DejaVuSans-48"/>
       <use x="517.529297" xlink:href="#DejaVuSans-53"/>
      </g>
     </g>
    </g>
    <g id="xtick_4">
     <g id="line2d_7">
      <path clip-path="url(#pa814a43a0a)" d="M 401.668072 390.04 
L 401.668072 10.8 
" style="fill:none;stroke:#808080;stroke-linecap:square;stroke-opacity:0.2;"/>
     </g>
     <g id="line2d_8">
      <g>
       <use style="stroke:#000000;stroke-width:0.8;" x="401.668072" xlink:href="#m8d7218b464" y="390.04"/>
      </g>
     </g>
     <g id="text_4">
      <!-- 2019-02-19 -->
      <g transform="translate(372.610259 404.638438)scale(0.1 -0.1)">
       <use xlink:href="#DejaVuSans-50"/>
       <use x="63.623047" xlink:href="#DejaVuSans-48"/>
       <use x="127.246094" xlink:href="#DejaVuSans-49"/>
       <use x="190.869141" xlink:href="#DejaVuSans-57"/>
       <use x="254.492188" xlink:href="#DejaVuSans-45"/>
       <use x="290.576172" xlink:href="#DejaVuSans-48"/>
       <use x="354.199219" xlink:href="#DejaVuSans-50"/>
       <use x="417.822266" xlink:href="#DejaVuSans-45"/>
       <use x="453.90625" xlink:href="#DejaVuSans-49"/>
       <use x="517.529297" xlink:href="#DejaVuSans-57"/>
      </g>
     </g>
    </g>
    <g id="xtick_5">
     <g id="line2d_9">
      <path clip-path="url(#pa814a43a0a)" d="M 493.418595 390.04 
L 493.418595 10.8 
" style="fill:none;stroke:#808080;stroke-linecap:square;stroke-opacity:0.2;"/>
     </g>
     <g id="line2d_10">
      <g>
       <use style="stroke:#000000;stroke-width:0.8;" x="493.418595" xlink:href="#m8d7218b464" y="390.04"/>
      </g>
     </g>
     <g id="text_5">
      <!-- 2019-03-05 -->
      <defs>
       <path d="M 40.578125 39.3125 
Q 47.65625 37.796875 51.625 33 
Q 55.609375 28.21875 55.609375 21.1875 
Q 55.609375 10.40625 48.1875 4.484375 
Q 40.765625 -1.421875 27.09375 -1.421875 
Q 22.515625 -1.421875 17.65625 -0.515625 
Q 12.796875 0.390625 7.625 2.203125 
L 7.625 11.71875 
Q 11.71875 9.328125 16.59375 8.109375 
Q 21.484375 6.890625 26.8125 6.890625 
Q 36.078125 6.890625 40.9375 10.546875 
Q 45.796875 14.203125 45.796875 21.1875 
Q 45.796875 27.640625 41.28125 31.265625 
Q 36.765625 34.90625 28.71875 34.90625 
L 20.21875 34.90625 
L 20.21875 43.015625 
L 29.109375 43.015625 
Q 36.375 43.015625 40.234375 45.921875 
Q 44.09375 48.828125 44.09375 54.296875 
Q 44.09375 59.90625 40.109375 62.90625 
Q 36.140625 65.921875 28.71875 65.921875 
Q 24.65625 65.921875 20.015625 65.03125 
Q 15.375 64.15625 9.8125 62.3125 
L 9.8125 71.09375 
Q 15.4375 72.65625 20.34375 73.4375 
Q 25.25 74.21875 29.59375 74.21875 
Q 40.828125 74.21875 47.359375 69.109375 
Q 53.90625 64.015625 53.90625 55.328125 
Q 53.90625 49.265625 50.4375 45.09375 
Q 46.96875 40.921875 40.578125 39.3125 
z
" id="DejaVuSans-51"/>
      </defs>
      <g transform="translate(464.360783 404.638438)scale(0.1 -0.1)">
       <use xlink:href="#DejaVuSans-50"/>
       <use x="63.623047" xlink:href="#DejaVuSans-48"/>
       <use x="127.246094" xlink:href="#DejaVuSans-49"/>
       <use x="190.869141" xlink:href="#DejaVuSans-57"/>
       <use x="254.492188" xlink:href="#DejaVuSans-45"/>
       <use x="290.576172" xlink:href="#DejaVuSans-48"/>
       <use x="354.199219" xlink:href="#DejaVuSans-51"/>
       <use x="417.822266" xlink:href="#DejaVuSans-45"/>
       <use x="453.90625" xlink:href="#DejaVuSans-48"/>
       <use x="517.529297" xlink:href="#DejaVuSans-53"/>
      </g>
     </g>
    </g>
    <g id="xtick_6">
     <g id="line2d_11">
      <path clip-path="url(#pa814a43a0a)" d="M 585.169118 390.04 
L 585.169118 10.8 
" style="fill:none;stroke:#808080;stroke-linecap:square;stroke-opacity:0.2;"/>
     </g>
     <g id="line2d_12">
      <g>
       <use style="stroke:#000000;stroke-width:0.8;" x="585.169118" xlink:href="#m8d7218b464" y="390.04"/>
      </g>
     </g>
     <g id="text_6">
      <!-- 2019-03-19 -->
      <g transform="translate(556.111306 404.638438)scale(0.1 -0.1)">
       <use xlink:href="#DejaVuSans-50"/>
       <use x="63.623047" xlink:href="#DejaVuSans-48"/>
       <use x="127.246094" xlink:href="#DejaVuSans-49"/>
       <use x="190.869141" xlink:href="#DejaVuSans-57"/>
       <use x="254.492188" xlink:href="#DejaVuSans-45"/>
       <use x="290.576172" xlink:href="#DejaVuSans-48"/>
       <use x="354.199219" xlink:href="#DejaVuSans-51"/>
       <use x="417.822266" xlink:href="#DejaVuSans-45"/>
       <use x="453.90625" xlink:href="#DejaVuSans-49"/>
       <use x="517.529297" xlink:href="#DejaVuSans-57"/>
      </g>
     </g>
    </g>
    <g id="xtick_7">
     <g id="line2d_13">
      <path clip-path="url(#pa814a43a0a)" d="M 676.919642 390.04 
L 676.919642 10.8 
" style="fill:none;stroke:#808080;stroke-linecap:square;stroke-opacity:0.2;"/>
     </g>
     <g id="line2d_14">
      <g>
       <use style="stroke:#000000;stroke-width:0.8;" x="676.919642" xlink:href="#m8d7218b464" y="390.04"/>
      </g>
     </g>
     <g id="text_7">
      <!-- 2019-04-02 -->
      <defs>
       <path d="M 37.796875 64.3125 
L 12.890625 25.390625 
L 37.796875 25.390625 
z
M 35.203125 72.90625 
L 47.609375 72.90625 
L 47.609375 25.390625 
L 58.015625 25.390625 
L 58.015625 17.1875 
L 47.609375 17.1875 
L 47.609375 0 
L 37.796875 0 
L 37.796875 17.1875 
L 4.890625 17.1875 
L 4.890625 26.703125 
z
" id="DejaVuSans-52"/>
      </defs>
      <g transform="translate(647.861829 404.638438)scale(0.1 -0.1)">
       <use xlink:href="#DejaVuSans-50"/>
       <use x="63.623047" xlink:href="#DejaVuSans-48"/>
       <use x="127.246094" xlink:href="#DejaVuSans-49"/>
       <use x="190.869141" xlink:href="#DejaVuSans-57"/>
       <use x="254.492188" xlink:href="#DejaVuSans-45"/>
       <use x="290.576172" xlink:href="#DejaVuSans-48"/>
       <use x="354.199219" xlink:href="#DejaVuSans-52"/>
       <use x="417.822266" xlink:href="#DejaVuSans-45"/>
       <use x="453.90625" xlink:href="#DejaVuSans-48"/>
       <use x="517.529297" xlink:href="#DejaVuSans-50"/>
      </g>
     </g>
    </g>
    <g id="text_8">
     <!-- ds -->
     <defs>
      <path d="M 45.40625 46.390625 
L 45.40625 75.984375 
L 54.390625 75.984375 
L 54.390625 0 
L 45.40625 0 
L 45.40625 8.203125 
Q 42.578125 3.328125 38.25 0.953125 
Q 33.9375 -1.421875 27.875 -1.421875 
Q 17.96875 -1.421875 11.734375 6.484375 
Q 5.515625 14.40625 5.515625 27.296875 
Q 5.515625 40.1875 11.734375 48.09375 
Q 17.96875 56 27.875 56 
Q 33.9375 56 38.25 53.625 
Q 42.578125 51.265625 45.40625 46.390625 
z
M 14.796875 27.296875 
Q 14.796875 17.390625 18.875 11.75 
Q 22.953125 6.109375 30.078125 6.109375 
Q 37.203125 6.109375 41.296875 11.75 
Q 45.40625 17.390625 45.40625 27.296875 
Q 45.40625 37.203125 41.296875 42.84375 
Q 37.203125 48.484375 30.078125 48.484375 
Q 22.953125 48.484375 18.875 42.84375 
Q 14.796875 37.203125 14.796875 27.296875 
z
" id="DejaVuSans-100"/>
      <path d="M 44.28125 53.078125 
L 44.28125 44.578125 
Q 40.484375 46.53125 36.375 47.5 
Q 32.28125 48.484375 27.875 48.484375 
Q 21.1875 48.484375 17.84375 46.4375 
Q 14.5 44.390625 14.5 40.28125 
Q 14.5 37.15625 16.890625 35.375 
Q 19.28125 33.59375 26.515625 31.984375 
L 29.59375 31.296875 
Q 39.15625 29.25 43.1875 25.515625 
Q 47.21875 21.78125 47.21875 15.09375 
Q 47.21875 7.46875 41.1875 3.015625 
Q 35.15625 -1.421875 24.609375 -1.421875 
Q 20.21875 -1.421875 15.453125 -0.5625 
Q 10.6875 0.296875 5.421875 2 
L 5.421875 11.28125 
Q 10.40625 8.6875 15.234375 7.390625 
Q 20.0625 6.109375 24.8125 6.109375 
Q 31.15625 6.109375 34.5625 8.28125 
Q 37.984375 10.453125 37.984375 14.40625 
Q 37.984375 18.0625 35.515625 20.015625 
Q 33.0625 21.96875 24.703125 23.78125 
L 21.578125 24.515625 
Q 13.234375 26.265625 9.515625 29.90625 
Q 5.8125 33.546875 5.8125 39.890625 
Q 5.8125 47.609375 11.28125 51.796875 
Q 16.75 56 26.8125 56 
Q 31.78125 56 36.171875 55.265625 
Q 40.578125 54.546875 44.28125 53.078125 
z
" id="DejaVuSans-115"/>
     </defs>
     <g transform="translate(369.67473 418.316562)scale(0.1 -0.1)">
      <use xlink:href="#DejaVuSans-100"/>
      <use x="63.476562" xlink:href="#DejaVuSans-115"/>
     </g>
    </g>
   </g>
   <g id="matplotlib.axis_2">
    <g id="ytick_1">
     <g id="line2d_15">
      <path clip-path="url(#pa814a43a0a)" d="M 51.05 373.340042 
L 699.857273 373.340042 
" style="fill:none;stroke:#808080;stroke-linecap:square;stroke-opacity:0.2;"/>
     </g>
     <g id="line2d_16">
      <defs>
       <path d="M 0 0 
L -3.5 0 
" id="me9b5ec6007" style="stroke:#000000;stroke-width:0.8;"/>
      </defs>
      <g>
       <use style="stroke:#000000;stroke-width:0.8;" x="51.05" xlink:href="#me9b5ec6007" y="373.340042"/>
      </g>
     </g>
     <g id="text_9">
      <!-- 100 -->
      <g transform="translate(24.9625 377.139261)scale(0.1 -0.1)">
       <use xlink:href="#DejaVuSans-49"/>
       <use x="63.623047" xlink:href="#DejaVuSans-48"/>
       <use x="127.246094" xlink:href="#DejaVuSans-48"/>
      </g>
     </g>
    </g>
    <g id="ytick_2">
     <g id="line2d_17">
      <path clip-path="url(#pa814a43a0a)" d="M 51.05 322.764159 
L 699.857273 322.764159 
" style="fill:none;stroke:#808080;stroke-linecap:square;stroke-opacity:0.2;"/>
     </g>
     <g id="line2d_18">
      <g>
       <use style="stroke:#000000;stroke-width:0.8;" x="51.05" xlink:href="#me9b5ec6007" y="322.764159"/>
      </g>
     </g>
     <g id="text_10">
      <!-- 125 -->
      <g transform="translate(24.9625 326.563378)scale(0.1 -0.1)">
       <use xlink:href="#DejaVuSans-49"/>
       <use x="63.623047" xlink:href="#DejaVuSans-50"/>
       <use x="127.246094" xlink:href="#DejaVuSans-53"/>
      </g>
     </g>
    </g>
    <g id="ytick_3">
     <g id="line2d_19">
      <path clip-path="url(#pa814a43a0a)" d="M 51.05 272.188276 
L 699.857273 272.188276 
" style="fill:none;stroke:#808080;stroke-linecap:square;stroke-opacity:0.2;"/>
     </g>
     <g id="line2d_20">
      <g>
       <use style="stroke:#000000;stroke-width:0.8;" x="51.05" xlink:href="#me9b5ec6007" y="272.188276"/>
      </g>
     </g>
     <g id="text_11">
      <!-- 150 -->
      <g transform="translate(24.9625 275.987495)scale(0.1 -0.1)">
       <use xlink:href="#DejaVuSans-49"/>
       <use x="63.623047" xlink:href="#DejaVuSans-53"/>
       <use x="127.246094" xlink:href="#DejaVuSans-48"/>
      </g>
     </g>
    </g>
    <g id="ytick_4">
     <g id="line2d_21">
      <path clip-path="url(#pa814a43a0a)" d="M 51.05 221.612393 
L 699.857273 221.612393 
" style="fill:none;stroke:#808080;stroke-linecap:square;stroke-opacity:0.2;"/>
     </g>
     <g id="line2d_22">
      <g>
       <use style="stroke:#000000;stroke-width:0.8;" x="51.05" xlink:href="#me9b5ec6007" y="221.612393"/>
      </g>
     </g>
     <g id="text_12">
      <!-- 175 -->
      <defs>
       <path d="M 8.203125 72.90625 
L 55.078125 72.90625 
L 55.078125 68.703125 
L 28.609375 0 
L 18.3125 0 
L 43.21875 64.59375 
L 8.203125 64.59375 
z
" id="DejaVuSans-55"/>
      </defs>
      <g transform="translate(24.9625 225.411612)scale(0.1 -0.1)">
       <use xlink:href="#DejaVuSans-49"/>
       <use x="63.623047" xlink:href="#DejaVuSans-55"/>
       <use x="127.246094" xlink:href="#DejaVuSans-53"/>
      </g>
     </g>
    </g>
    <g id="ytick_5">
     <g id="line2d_23">
      <path clip-path="url(#pa814a43a0a)" d="M 51.05 171.03651 
L 699.857273 171.03651 
" style="fill:none;stroke:#808080;stroke-linecap:square;stroke-opacity:0.2;"/>
     </g>
     <g id="line2d_24">
      <g>
       <use style="stroke:#000000;stroke-width:0.8;" x="51.05" xlink:href="#me9b5ec6007" y="171.03651"/>
      </g>
     </g>
     <g id="text_13">
      <!-- 200 -->
      <g transform="translate(24.9625 174.835729)scale(0.1 -0.1)">
       <use xlink:href="#DejaVuSans-50"/>
       <use x="63.623047" xlink:href="#DejaVuSans-48"/>
       <use x="127.246094" xlink:href="#DejaVuSans-48"/>
      </g>
     </g>
    </g>
    <g id="ytick_6">
     <g id="line2d_25">
      <path clip-path="url(#pa814a43a0a)" d="M 51.05 120.460627 
L 699.857273 120.460627 
" style="fill:none;stroke:#808080;stroke-linecap:square;stroke-opacity:0.2;"/>
     </g>
     <g id="line2d_26">
      <g>
       <use style="stroke:#000000;stroke-width:0.8;" x="51.05" xlink:href="#me9b5ec6007" y="120.460627"/>
      </g>
     </g>
     <g id="text_14">
      <!-- 225 -->
      <g transform="translate(24.9625 124.259846)scale(0.1 -0.1)">
       <use xlink:href="#DejaVuSans-50"/>
       <use x="63.623047" xlink:href="#DejaVuSans-50"/>
       <use x="127.246094" xlink:href="#DejaVuSans-53"/>
      </g>
     </g>
    </g>
    <g id="ytick_7">
     <g id="line2d_27">
      <path clip-path="url(#pa814a43a0a)" d="M 51.05 69.884744 
L 699.857273 69.884744 
" style="fill:none;stroke:#808080;stroke-linecap:square;stroke-opacity:0.2;"/>
     </g>
     <g id="line2d_28">
      <g>
       <use style="stroke:#000000;stroke-width:0.8;" x="51.05" xlink:href="#me9b5ec6007" y="69.884744"/>
      </g>
     </g>
     <g id="text_15">
      <!-- 250 -->
      <g transform="translate(24.9625 73.683963)scale(0.1 -0.1)">
       <use xlink:href="#DejaVuSans-50"/>
       <use x="63.623047" xlink:href="#DejaVuSans-53"/>
       <use x="127.246094" xlink:href="#DejaVuSans-48"/>
      </g>
     </g>
    </g>
    <g id="ytick_8">
     <g id="line2d_29">
      <path clip-path="url(#pa814a43a0a)" d="M 51.05 19.308861 
L 699.857273 19.308861 
" style="fill:none;stroke:#808080;stroke-linecap:square;stroke-opacity:0.2;"/>
     </g>
     <g id="line2d_30">
      <g>
       <use style="stroke:#000000;stroke-width:0.8;" x="51.05" xlink:href="#me9b5ec6007" y="19.308861"/>
      </g>
     </g>
     <g id="text_16">
      <!-- 275 -->
      <g transform="translate(24.9625 23.10808)scale(0.1 -0.1)">
       <use xlink:href="#DejaVuSans-50"/>
       <use x="63.623047" xlink:href="#DejaVuSans-55"/>
       <use x="127.246094" xlink:href="#DejaVuSans-53"/>
      </g>
     </g>
    </g>
    <g id="text_17">
     <!-- y -->
     <defs>
      <path d="M 32.171875 -5.078125 
Q 28.375 -14.84375 24.75 -17.8125 
Q 21.140625 -20.796875 15.09375 -20.796875 
L 7.90625 -20.796875 
L 7.90625 -13.28125 
L 13.1875 -13.28125 
Q 16.890625 -13.28125 18.9375 -11.515625 
Q 21 -9.765625 23.484375 -3.21875 
L 25.09375 0.875 
L 2.984375 54.6875 
L 12.5 54.6875 
L 29.59375 11.921875 
L 46.6875 54.6875 
L 56.203125 54.6875 
z
" id="DejaVuSans-121"/>
     </defs>
     <g transform="translate(18.882812 203.379375)rotate(-90)scale(0.1 -0.1)">
      <use xlink:href="#DejaVuSans-121"/>
     </g>
    </g>
   </g>
   <g id="line2d_31">
    <defs>
     <path d="M 0 1.5 
C 0.397805 1.5 0.77937 1.341951 1.06066 1.06066 
C 1.341951 0.77937 1.5 0.397805 1.5 0 
C 1.5 -0.397805 1.341951 -0.77937 1.06066 -1.06066 
C 0.77937 -1.341951 0.397805 -1.5 0 -1.5 
C -0.397805 -1.5 -0.77937 -1.341951 -1.06066 -1.06066 
C -1.341951 -0.77937 -1.5 -0.397805 -1.5 0 
C -1.5 0.397805 -1.341951 0.77937 -1.06066 1.06066 
C -0.77937 1.341951 -0.397805 1.5 0 1.5 
z
" id="m3804aea9c7" style="stroke:#000000;"/>
    </defs>
    <g clip-path="url(#pa814a43a0a)">
     <use style="stroke:#000000;" x="80.54124" xlink:href="#m3804aea9c7" y="59.769568"/>
     <use style="stroke:#000000;" x="87.094848" xlink:href="#m3804aea9c7" y="284.326488"/>
     <use style="stroke:#000000;" x="100.202066" xlink:href="#m3804aea9c7" y="59.769568"/>
     <use style="stroke:#000000;" x="106.755675" xlink:href="#m3804aea9c7" y="276.234347"/>
     <use style="stroke:#000000;" x="113.309284" xlink:href="#m3804aea9c7" y="292.418629"/>
     <use style="stroke:#000000;" x="119.862893" xlink:href="#m3804aea9c7" y="59.769568"/>
     <use style="stroke:#000000;" x="126.416501" xlink:href="#m3804aea9c7" y="282.303453"/>
     <use style="stroke:#000000;" x="132.97011" xlink:href="#m3804aea9c7" y="284.326488"/>
     <use style="stroke:#000000;" x="139.523719" xlink:href="#m3804aea9c7" y="59.769568"/>
     <use style="stroke:#000000;" x="146.077328" xlink:href="#m3804aea9c7" y="282.303453"/>
     <use style="stroke:#000000;" x="152.630937" xlink:href="#m3804aea9c7" y="288.372559"/>
     <use style="stroke:#000000;" x="159.184545" xlink:href="#m3804aea9c7" y="59.769568"/>
     <use style="stroke:#000000;" x="165.738154" xlink:href="#m3804aea9c7" y="290.395594"/>
     <use style="stroke:#000000;" x="178.845372" xlink:href="#m3804aea9c7" y="59.769568"/>
     <use style="stroke:#000000;" x="185.398981" xlink:href="#m3804aea9c7" y="290.395594"/>
     <use style="stroke:#000000;" x="191.95259" xlink:href="#m3804aea9c7" y="290.395594"/>
     <use style="stroke:#000000;" x="198.506198" xlink:href="#m3804aea9c7" y="59.769568"/>
     <use style="stroke:#000000;" x="205.059807" xlink:href="#m3804aea9c7" y="288.372559"/>
     <use style="stroke:#000000;" x="211.613416" xlink:href="#m3804aea9c7" y="300.510771"/>
     <use style="stroke:#000000;" x="218.167025" xlink:href="#m3804aea9c7" y="59.769568"/>
     <use style="stroke:#000000;" x="224.720634" xlink:href="#m3804aea9c7" y="280.280418"/>
     <use style="stroke:#000000;" x="231.274242" xlink:href="#m3804aea9c7" y="284.326488"/>
     <use style="stroke:#000000;" x="237.827851" xlink:href="#m3804aea9c7" y="59.769568"/>
     <use style="stroke:#000000;" x="244.38146" xlink:href="#m3804aea9c7" y="288.372559"/>
     <use style="stroke:#000000;" x="250.935069" xlink:href="#m3804aea9c7" y="288.372559"/>
     <use style="stroke:#000000;" x="257.488678" xlink:href="#m3804aea9c7" y="59.769568"/>
     <use style="stroke:#000000;" x="264.042287" xlink:href="#m3804aea9c7" y="288.372559"/>
     <use style="stroke:#000000;" x="270.595895" xlink:href="#m3804aea9c7" y="280.280418"/>
     <use style="stroke:#000000;" x="277.149504" xlink:href="#m3804aea9c7" y="59.769568"/>
     <use style="stroke:#000000;" x="283.703113" xlink:href="#m3804aea9c7" y="284.326488"/>
     <use style="stroke:#000000;" x="290.256722" xlink:href="#m3804aea9c7" y="284.326488"/>
     <use style="stroke:#000000;" x="296.810331" xlink:href="#m3804aea9c7" y="59.769568"/>
     <use style="stroke:#000000;" x="303.363939" xlink:href="#m3804aea9c7" y="274.211312"/>
     <use style="stroke:#000000;" x="309.917548" xlink:href="#m3804aea9c7" y="290.395594"/>
     <use style="stroke:#000000;" x="316.471157" xlink:href="#m3804aea9c7" y="59.769568"/>
     <use style="stroke:#000000;" x="323.024766" xlink:href="#m3804aea9c7" y="292.418629"/>
     <use style="stroke:#000000;" x="329.578375" xlink:href="#m3804aea9c7" y="284.326488"/>
     <use style="stroke:#000000;" x="336.131983" xlink:href="#m3804aea9c7" y="59.769568"/>
     <use style="stroke:#000000;" x="342.685592" xlink:href="#m3804aea9c7" y="284.326488"/>
     <use style="stroke:#000000;" x="349.239201" xlink:href="#m3804aea9c7" y="286.349524"/>
     <use style="stroke:#000000;" x="355.79281" xlink:href="#m3804aea9c7" y="59.769568"/>
     <use style="stroke:#000000;" x="368.900028" xlink:href="#m3804aea9c7" y="286.349524"/>
     <use style="stroke:#000000;" x="382.007245" xlink:href="#m3804aea9c7" y="288.372559"/>
     <use style="stroke:#000000;" x="388.560854" xlink:href="#m3804aea9c7" y="284.326488"/>
     <use style="stroke:#000000;" x="395.114463" xlink:href="#m3804aea9c7" y="59.769568"/>
     <use style="stroke:#000000;" x="401.668072" xlink:href="#m3804aea9c7" y="288.372559"/>
     <use style="stroke:#000000;" x="414.775289" xlink:href="#m3804aea9c7" y="59.769568"/>
     <use style="stroke:#000000;" x="421.328898" xlink:href="#m3804aea9c7" y="290.395594"/>
     <use style="stroke:#000000;" x="427.882507" xlink:href="#m3804aea9c7" y="292.418629"/>
     <use style="stroke:#000000;" x="434.436116" xlink:href="#m3804aea9c7" y="59.769568"/>
     <use style="stroke:#000000;" x="447.543333" xlink:href="#m3804aea9c7" y="290.395594"/>
     <use style="stroke:#000000;" x="454.096942" xlink:href="#m3804aea9c7" y="59.769568"/>
     <use style="stroke:#000000;" x="460.650551" xlink:href="#m3804aea9c7" y="284.326488"/>
     <use style="stroke:#000000;" x="467.20416" xlink:href="#m3804aea9c7" y="296.4647"/>
     <use style="stroke:#000000;" x="473.757769" xlink:href="#m3804aea9c7" y="59.769568"/>
     <use style="stroke:#000000;" x="486.864986" xlink:href="#m3804aea9c7" y="288.372559"/>
     <use style="stroke:#000000;" x="493.418595" xlink:href="#m3804aea9c7" y="59.769568"/>
     <use style="stroke:#000000;" x="499.972204" xlink:href="#m3804aea9c7" y="290.395594"/>
     <use style="stroke:#000000;" x="506.525813" xlink:href="#m3804aea9c7" y="288.372559"/>
     <use style="stroke:#000000;" x="513.079421" xlink:href="#m3804aea9c7" y="59.769568"/>
     <use style="stroke:#000000;" x="519.63303" xlink:href="#m3804aea9c7" y="292.418629"/>
     <use style="stroke:#000000;" x="526.186639" xlink:href="#m3804aea9c7" y="300.510771"/>
     <use style="stroke:#000000;" x="532.740248" xlink:href="#m3804aea9c7" y="59.769568"/>
     <use style="stroke:#000000;" x="539.293857" xlink:href="#m3804aea9c7" y="288.372559"/>
     <use style="stroke:#000000;" x="545.847466" xlink:href="#m3804aea9c7" y="288.372559"/>
     <use style="stroke:#000000;" x="552.401074" xlink:href="#m3804aea9c7" y="59.769568"/>
     <use style="stroke:#000000;" x="558.954683" xlink:href="#m3804aea9c7" y="284.326488"/>
     <use style="stroke:#000000;" x="565.508292" xlink:href="#m3804aea9c7" y="280.280418"/>
     <use style="stroke:#000000;" x="572.061901" xlink:href="#m3804aea9c7" y="59.769568"/>
     <use style="stroke:#000000;" x="578.61551" xlink:href="#m3804aea9c7" y="284.326488"/>
     <use style="stroke:#000000;" x="585.169118" xlink:href="#m3804aea9c7" y="292.418629"/>
     <use style="stroke:#000000;" x="591.722727" xlink:href="#m3804aea9c7" y="59.769568"/>
     <use style="stroke:#000000;" x="604.829945" xlink:href="#m3804aea9c7" y="302.533806"/>
     <use style="stroke:#000000;" x="611.383554" xlink:href="#m3804aea9c7" y="59.769568"/>
     <use style="stroke:#000000;" x="617.937163" xlink:href="#m3804aea9c7" y="280.280418"/>
     <use style="stroke:#000000;" x="624.490771" xlink:href="#m3804aea9c7" y="292.418629"/>
     <use style="stroke:#000000;" x="631.04438" xlink:href="#m3804aea9c7" y="59.769568"/>
     <use style="stroke:#000000;" x="637.597989" xlink:href="#m3804aea9c7" y="280.280418"/>
     <use style="stroke:#000000;" x="650.705207" xlink:href="#m3804aea9c7" y="59.769568"/>
     <use style="stroke:#000000;" x="657.258815" xlink:href="#m3804aea9c7" y="292.418629"/>
     <use style="stroke:#000000;" x="663.812424" xlink:href="#m3804aea9c7" y="280.280418"/>
    </g>
   </g>
   <g id="line2d_32">
    <path clip-path="url(#pa814a43a0a)" d="M 80.54124 189.631173 
L 87.094848 199.079239 
L 100.202066 209.387559 
L 106.755675 213.641187 
L 113.309284 208.134268 
L 119.862893 201.970443 
L 126.416501 190.211611 
L 132.97011 199.659676 
L 139.523719 193.938771 
L 146.077328 209.967997 
L 152.630937 214.221624 
L 159.184545 208.714706 
L 165.738154 202.550881 
L 178.845372 200.240113 
L 185.398981 194.519208 
L 191.95259 210.548434 
L 198.506198 214.802062 
L 205.059807 209.295143 
L 211.613416 203.131318 
L 218.167025 191.372485 
L 224.720634 200.820551 
L 231.274242 195.099646 
L 237.827851 211.128871 
L 244.38146 215.382499 
L 250.935069 209.87558 
L 257.488678 203.711756 
L 264.042287 191.952923 
L 270.595895 201.400988 
L 277.149504 195.680083 
L 283.703113 211.709309 
L 290.256722 215.962937 
L 296.810331 210.456018 
L 303.363939 204.292193 
L 309.917548 192.53336 
L 316.471157 201.981426 
L 323.024766 196.260521 
L 329.578375 212.289746 
L 336.131983 216.543374 
L 342.685592 211.036455 
L 349.239201 204.87263 
L 355.79281 193.113798 
L 368.900028 196.840958 
L 382.007245 217.123811 
L 388.560854 211.616893 
L 395.114463 205.453068 
L 401.668072 193.694235 
L 414.775289 197.421395 
L 421.328898 213.450621 
L 427.882507 217.704249 
L 434.436116 212.19733 
L 447.543333 194.274672 
L 454.096942 203.722738 
L 460.650551 198.001833 
L 467.20416 214.031058 
L 473.757769 218.284686 
L 486.864986 206.613942 
L 493.418595 194.85511 
L 499.972204 204.303175 
L 506.525813 198.58227 
L 513.079421 214.611496 
L 519.63303 218.865124 
L 526.186639 213.358205 
L 532.740248 207.19438 
L 539.293857 195.435547 
L 545.847466 204.883613 
L 552.401074 199.162708 
L 558.954683 215.191933 
L 565.508292 219.445561 
L 572.061901 213.938642 
L 578.61551 207.774817 
L 585.169118 196.015985 
L 591.722727 205.46405 
L 604.829945 215.77237 
L 611.383554 220.025998 
L 617.937163 214.51908 
L 624.490771 208.355255 
L 631.04438 196.596422 
L 637.597989 206.044487 
L 650.705207 216.352808 
L 657.258815 220.606436 
L 663.812424 215.099517 
L 670.366033 208.935692 
" style="fill:none;stroke:#0072b2;stroke-linecap:square;stroke-width:1.5;"/>
   </g>
   <g id="patch_3">
    <path d="M 51.05 390.04 
L 51.05 10.8 
" style="fill:none;stroke:#000000;stroke-linecap:square;stroke-linejoin:miter;stroke-width:0.8;"/>
   </g>
   <g id="patch_4">
    <path d="M 699.857273 390.04 
L 699.857273 10.8 
" style="fill:none;stroke:#000000;stroke-linecap:square;stroke-linejoin:miter;stroke-width:0.8;"/>
   </g>
   <g id="patch_5">
    <path d="M 51.05 390.04 
L 699.857273 390.04 
" style="fill:none;stroke:#000000;stroke-linecap:square;stroke-linejoin:miter;stroke-width:0.8;"/>
   </g>
   <g id="patch_6">
    <path d="M 51.05 10.8 
L 699.857273 10.8 
" style="fill:none;stroke:#000000;stroke-linecap:square;stroke-linejoin:miter;stroke-width:0.8;"/>
   </g>
  </g>
 </g>
 <defs>
  <clipPath id="pa814a43a0a">
   <rect height="379.24" width="648.807273" x="51.05" y="10.8"/>
  </clipPath>
 </defs>
</svg>
