<?xml version="1.0" encoding="utf-8" standalone="no"?>
<!DOCTYPE svg PUBLIC "-//W3C//DTD SVG 1.1//EN"
  "http://www.w3.org/Graphics/SVG/1.1/DTD/svg11.dtd">
<!-- Created with matplotlib (https://matplotlib.org/) -->
<svg height="432pt" version="1.1" viewBox="0 0 720 432" width="720pt" xmlns="http://www.w3.org/2000/svg" xmlns:xlink="http://www.w3.org/1999/xlink">
 <defs>
  <style type="text/css">
*{stroke-linecap:butt;stroke-linejoin:round;}
  </style>
 </defs>
 <g id="figure_1">
  <g id="patch_1">
   <path d="M 0 432 
L 720 432 
L 720 0 
L 0 0 
z
" style="fill:#ffffff;"/>
  </g>
  <g id="axes_1">
   <g id="patch_2">
    <path d="M 51.05 390.04 
L 699.857273 390.04 
L 699.857273 10.8 
L 51.05 10.8 
z
" style="fill:#ffffff;"/>
   </g>
   <g id="PolyCollection_1">
    <defs>
     <path d="M 80.54124 -388.096042 
L 80.54124 -90.755522 
L 87.094848 -82.136511 
L 100.202066 -85.393298 
L 106.755675 -89.794737 
L 113.309284 -83.872609 
L 119.862893 -92.75667 
L 126.416501 -107.971587 
L 132.97011 -90.068519 
L 139.523719 -90.926321 
L 146.077328 -76.51707 
L 152.630937 -70.190553 
L 159.184545 -80.988833 
L 165.738154 -97.932027 
L 178.845372 -92.888576 
L 185.398981 -87.373822 
L 191.95259 -80.567615 
L 198.506198 -70.507586 
L 205.059807 -87.511488 
L 211.613416 -96.664576 
L 218.167025 -103.836261 
L 224.720634 -84.343465 
L 231.274242 -118.939308 
L 237.827851 -91.65767 
L 244.38146 -71.522286 
L 250.935069 -78.435476 
L 257.488678 -91.97932 
L 264.042287 -100.003545 
L 270.595895 -81.392508 
L 277.149504 -92.065467 
L 283.703113 -84.404716 
L 290.256722 -81.910044 
L 296.810331 -79.954788 
L 303.363939 -90.180661 
L 309.917548 -104.096473 
L 316.471157 -92.897612 
L 323.024766 -91.202516 
L 329.578375 -72.01657 
L 336.131983 -78.072448 
L 342.685592 -81.724076 
L 349.239201 -94.928209 
L 355.79281 -102.725302 
L 368.900028 -91.931629 
L 382.007245 -85.219654 
L 388.560854 -80.989451 
L 395.114463 -90.244994 
L 401.668072 -90.101586 
L 414.775289 -86.044057 
L 421.328898 -75.278917 
L 427.882507 -68.369966 
L 434.436116 -81.989464 
L 447.543333 -101.970961 
L 454.096942 -93.561788 
L 460.650551 -96.150309 
L 467.20416 -71.814859 
L 473.757769 -74.519103 
L 486.864986 -91.583274 
L 493.418595 -90.603213 
L 499.972204 -83.423077 
L 506.525813 -92.889249 
L 513.079421 -75.832916 
L 519.63303 -75.466229 
L 526.186639 -80.227811 
L 532.740248 -84.440684 
L 539.293857 -98.676152 
L 545.847466 -84.353994 
L 552.401074 -93.889718 
L 558.954683 -73.131194 
L 565.508292 -71.776862 
L 572.061901 -88.332132 
L 578.61551 -91.071549 
L 585.169118 -106.81236 
L 591.722727 -84.092764 
L 604.829945 -88.017651 
L 611.383554 -79.882848 
L 617.937163 -82.618455 
L 624.490771 -93.382719 
L 631.04438 -99.461381 
L 637.597989 -87.61263 
L 650.705207 -93.710022 
L 657.258815 -59.198182 
L 663.812424 -85.541513 
L 670.366033 -96.588644 
L 670.366033 -380.23279 
L 670.366033 -380.23279 
L 663.812424 -375.575018 
L 657.258815 -360.207365 
L 650.705207 -393.017743 
L 637.597989 -383.781785 
L 631.04438 -394.443809 
L 624.490771 -376.352922 
L 617.937163 -374.911287 
L 611.383554 -363.450117 
L 604.829945 -383.121538 
L 591.722727 -382.928805 
L 585.169118 -395.929779 
L 578.61551 -387.032868 
L 572.061901 -377.518953 
L 565.508292 -361.866605 
L 558.954683 -379.721667 
L 552.401074 -385.356396 
L 545.847466 -384.051994 
L 539.293857 -385.375929 
L 532.740248 -373.409878 
L 526.186639 -368.000297 
L 519.63303 -358.233615 
L 513.079421 -377.466951 
L 506.525813 -386.746851 
L 499.972204 -395.944921 
L 493.418595 -392.031789 
L 486.864986 -377.193845 
L 473.757769 -371.229681 
L 467.20416 -363.176003 
L 460.650551 -381.662477 
L 454.096942 -376.28917 
L 447.543333 -388.075015 
L 434.436116 -367.787631 
L 427.882507 -359.607998 
L 421.328898 -371.67395 
L 414.775289 -377.996205 
L 401.668072 -383.109897 
L 395.114463 -382.803647 
L 388.560854 -368.764836 
L 382.007245 -363.790055 
L 368.900028 -386.448851 
L 355.79281 -395.120736 
L 349.239201 -381.777208 
L 342.685592 -376.644219 
L 336.131983 -361.817964 
L 329.578375 -372.815398 
L 323.024766 -380.834158 
L 316.471157 -383.860351 
L 309.917548 -403.961818 
L 303.363939 -385.241931 
L 296.810331 -374.503752 
L 290.256722 -375.378864 
L 283.703113 -371.623933 
L 277.149504 -383.648198 
L 270.595895 -384.302897 
L 264.042287 -392.055246 
L 257.488678 -374.605109 
L 250.935069 -375.492254 
L 244.38146 -364.482756 
L 237.827851 -382.001236 
L 231.274242 -402.556718 
L 224.720634 -371.520878 
L 218.167025 -391.247862 
L 211.613416 -378.960467 
L 205.059807 -385.340388 
L 198.506198 -367.760669 
L 191.95259 -374.903578 
L 185.398981 -384.189092 
L 178.845372 -377.899167 
L 165.738154 -388.258957 
L 159.184545 -374.163999 
L 152.630937 -380.917906 
L 146.077328 -368.876046 
L 139.523719 -384.076794 
L 132.97011 -365.214265 
L 126.416501 -396.409124 
L 119.862893 -379.065587 
L 113.309284 -376.867319 
L 106.755675 -366.638859 
L 100.202066 -372.908268 
L 87.094848 -379.281123 
L 80.54124 -388.096042 
z
" id="m3937cdafcb" style="stroke:#0072b2;stroke-opacity:0.2;"/>
    </defs>
    <g clip-path="url(#p6cce2818d9)">
     <use style="fill:#0072b2;fill-opacity:0.2;stroke:#0072b2;stroke-opacity:0.2;" x="0" xlink:href="#m3937cdafcb" y="432"/>
    </g>
   </g>
   <g id="matplotlib.axis_1">
    <g id="xtick_1">
     <g id="line2d_1">
      <path clip-path="url(#p6cce2818d9)" d="M 126.416501 390.04 
L 126.416501 10.8 
" style="fill:none;stroke:#808080;stroke-linecap:square;stroke-opacity:0.2;"/>
     </g>
     <g id="line2d_2">
      <defs>
       <path d="M 0 0 
L 0 3.5 
" id="m5a0f6b972e" style="stroke:#000000;stroke-width:0.8;"/>
      </defs>
      <g>
       <use style="stroke:#000000;stroke-width:0.8;" x="126.416501" xlink:href="#m5a0f6b972e" y="390.04"/>
      </g>
     </g>
     <g id="text_1">
      <!-- 2019-01-08 -->
      <defs>
       <path d="M 19.1875 8.296875 
L 53.609375 8.296875 
L 53.609375 0 
L 7.328125 0 
L 7.328125 8.296875 
Q 12.9375 14.109375 22.625 23.890625 
Q 32.328125 33.6875 34.8125 36.53125 
Q 39.546875 41.84375 41.421875 45.53125 
Q 43.3125 49.21875 43.3125 52.78125 
Q 43.3125 58.59375 39.234375 62.25 
Q 35.15625 65.921875 28.609375 65.921875 
Q 23.96875 65.921875 18.8125 64.3125 
Q 13.671875 62.703125 7.8125 59.421875 
L 7.8125 69.390625 
Q 13.765625 71.78125 18.9375 73 
Q 24.125 74.21875 28.421875 74.21875 
Q 39.75 74.21875 46.484375 68.546875 
Q 53.21875 62.890625 53.21875 53.421875 
Q 53.21875 48.921875 51.53125 44.890625 
Q 49.859375 40.875 45.40625 35.40625 
Q 44.1875 33.984375 37.640625 27.21875 
Q 31.109375 20.453125 19.1875 8.296875 
z
" id="DejaVuSans-50"/>
       <path d="M 31.78125 66.40625 
Q 24.171875 66.40625 20.328125 58.90625 
Q 16.5 51.421875 16.5 36.375 
Q 16.5 21.390625 20.328125 13.890625 
Q 24.171875 6.390625 31.78125 6.390625 
Q 39.453125 6.390625 43.28125 13.890625 
Q 47.125 21.390625 47.125 36.375 
Q 47.125 51.421875 43.28125 58.90625 
Q 39.453125 66.40625 31.78125 66.40625 
z
M 31.78125 74.21875 
Q 44.046875 74.21875 50.515625 64.515625 
Q 56.984375 54.828125 56.984375 36.375 
Q 56.984375 17.96875 50.515625 8.265625 
Q 44.046875 -1.421875 31.78125 -1.421875 
Q 19.53125 -1.421875 13.0625 8.265625 
Q 6.59375 17.96875 6.59375 36.375 
Q 6.59375 54.828125 13.0625 64.515625 
Q 19.53125 74.21875 31.78125 74.21875 
z
" id="DejaVuSans-48"/>
       <path d="M 12.40625 8.296875 
L 28.515625 8.296875 
L 28.515625 63.921875 
L 10.984375 60.40625 
L 10.984375 69.390625 
L 28.421875 72.90625 
L 38.28125 72.90625 
L 38.28125 8.296875 
L 54.390625 8.296875 
L 54.390625 0 
L 12.40625 0 
z
" id="DejaVuSans-49"/>
       <path d="M 10.984375 1.515625 
L 10.984375 10.5 
Q 14.703125 8.734375 18.5 7.8125 
Q 22.3125 6.890625 25.984375 6.890625 
Q 35.75 6.890625 40.890625 13.453125 
Q 46.046875 20.015625 46.78125 33.40625 
Q 43.953125 29.203125 39.59375 26.953125 
Q 35.25 24.703125 29.984375 24.703125 
Q 19.046875 24.703125 12.671875 31.3125 
Q 6.296875 37.9375 6.296875 49.421875 
Q 6.296875 60.640625 12.9375 67.421875 
Q 19.578125 74.21875 30.609375 74.21875 
Q 43.265625 74.21875 49.921875 64.515625 
Q 56.59375 54.828125 56.59375 36.375 
Q 56.59375 19.140625 48.40625 8.859375 
Q 40.234375 -1.421875 26.421875 -1.421875 
Q 22.703125 -1.421875 18.890625 -0.6875 
Q 15.09375 0.046875 10.984375 1.515625 
z
M 30.609375 32.421875 
Q 37.25 32.421875 41.125 36.953125 
Q 45.015625 41.5 45.015625 49.421875 
Q 45.015625 57.28125 41.125 61.84375 
Q 37.25 66.40625 30.609375 66.40625 
Q 23.96875 66.40625 20.09375 61.84375 
Q 16.21875 57.28125 16.21875 49.421875 
Q 16.21875 41.5 20.09375 36.953125 
Q 23.96875 32.421875 30.609375 32.421875 
z
" id="DejaVuSans-57"/>
       <path d="M 4.890625 31.390625 
L 31.203125 31.390625 
L 31.203125 23.390625 
L 4.890625 23.390625 
z
" id="DejaVuSans-45"/>
       <path d="M 31.78125 34.625 
Q 24.75 34.625 20.71875 30.859375 
Q 16.703125 27.09375 16.703125 20.515625 
Q 16.703125 13.921875 20.71875 10.15625 
Q 24.75 6.390625 31.78125 6.390625 
Q 38.8125 6.390625 42.859375 10.171875 
Q 46.921875 13.96875 46.921875 20.515625 
Q 46.921875 27.09375 42.890625 30.859375 
Q 38.875 34.625 31.78125 34.625 
z
M 21.921875 38.8125 
Q 15.578125 40.375 12.03125 44.71875 
Q 8.5 49.078125 8.5 55.328125 
Q 8.5 64.0625 14.71875 69.140625 
Q 20.953125 74.21875 31.78125 74.21875 
Q 42.671875 74.21875 48.875 69.140625 
Q 55.078125 64.0625 55.078125 55.328125 
Q 55.078125 49.078125 51.53125 44.71875 
Q 48 40.375 41.703125 38.8125 
Q 48.828125 37.15625 52.796875 32.3125 
Q 56.78125 27.484375 56.78125 20.515625 
Q 56.78125 9.90625 50.3125 4.234375 
Q 43.84375 -1.421875 31.78125 -1.421875 
Q 19.734375 -1.421875 13.25 4.234375 
Q 6.78125 9.90625 6.78125 20.515625 
Q 6.78125 27.484375 10.78125 32.3125 
Q 14.796875 37.15625 21.921875 38.8125 
z
M 18.3125 54.390625 
Q 18.3125 48.734375 21.84375 45.5625 
Q 25.390625 42.390625 31.78125 42.390625 
Q 38.140625 42.390625 41.71875 45.5625 
Q 45.3125 48.734375 45.3125 54.390625 
Q 45.3125 60.0625 41.71875 63.234375 
Q 38.140625 66.40625 31.78125 66.40625 
Q 25.390625 66.40625 21.84375 63.234375 
Q 18.3125 60.0625 18.3125 54.390625 
z
" id="DejaVuSans-56"/>
      </defs>
      <g transform="translate(97.358689 404.638438)scale(0.1 -0.1)">
       <use xlink:href="#DejaVuSans-50"/>
       <use x="63.623047" xlink:href="#DejaVuSans-48"/>
       <use x="127.246094" xlink:href="#DejaVuSans-49"/>
       <use x="190.869141" xlink:href="#DejaVuSans-57"/>
       <use x="254.492188" xlink:href="#DejaVuSans-45"/>
       <use x="290.576172" xlink:href="#DejaVuSans-48"/>
       <use x="354.199219" xlink:href="#DejaVuSans-49"/>
       <use x="417.822266" xlink:href="#DejaVuSans-45"/>
       <use x="453.90625" xlink:href="#DejaVuSans-48"/>
       <use x="517.529297" xlink:href="#DejaVuSans-56"/>
      </g>
     </g>
    </g>
    <g id="xtick_2">
     <g id="line2d_3">
      <path clip-path="url(#p6cce2818d9)" d="M 218.167025 390.04 
L 218.167025 10.8 
" style="fill:none;stroke:#808080;stroke-linecap:square;stroke-opacity:0.2;"/>
     </g>
     <g id="line2d_4">
      <g>
       <use style="stroke:#000000;stroke-width:0.8;" x="218.167025" xlink:href="#m5a0f6b972e" y="390.04"/>
      </g>
     </g>
     <g id="text_2">
      <!-- 2019-01-22 -->
      <g transform="translate(189.109212 404.638438)scale(0.1 -0.1)">
       <use xlink:href="#DejaVuSans-50"/>
       <use x="63.623047" xlink:href="#DejaVuSans-48"/>
       <use x="127.246094" xlink:href="#DejaVuSans-49"/>
       <use x="190.869141" xlink:href="#DejaVuSans-57"/>
       <use x="254.492188" xlink:href="#DejaVuSans-45"/>
       <use x="290.576172" xlink:href="#DejaVuSans-48"/>
       <use x="354.199219" xlink:href="#DejaVuSans-49"/>
       <use x="417.822266" xlink:href="#DejaVuSans-45"/>
       <use x="453.90625" xlink:href="#DejaVuSans-50"/>
       <use x="517.529297" xlink:href="#DejaVuSans-50"/>
      </g>
     </g>
    </g>
    <g id="xtick_3">
     <g id="line2d_5">
      <path clip-path="url(#p6cce2818d9)" d="M 309.917548 390.04 
L 309.917548 10.8 
" style="fill:none;stroke:#808080;stroke-linecap:square;stroke-opacity:0.2;"/>
     </g>
     <g id="line2d_6">
      <g>
       <use style="stroke:#000000;stroke-width:0.8;" x="309.917548" xlink:href="#m5a0f6b972e" y="390.04"/>
      </g>
     </g>
     <g id="text_3">
      <!-- 2019-02-05 -->
      <defs>
       <path d="M 10.796875 72.90625 
L 49.515625 72.90625 
L 49.515625 64.59375 
L 19.828125 64.59375 
L 19.828125 46.734375 
Q 21.96875 47.46875 24.109375 47.828125 
Q 26.265625 48.1875 28.421875 48.1875 
Q 40.625 48.1875 47.75 41.5 
Q 54.890625 34.8125 54.890625 23.390625 
Q 54.890625 11.625 47.5625 5.09375 
Q 40.234375 -1.421875 26.90625 -1.421875 
Q 22.3125 -1.421875 17.546875 -0.640625 
Q 12.796875 0.140625 7.71875 1.703125 
L 7.71875 11.625 
Q 12.109375 9.234375 16.796875 8.0625 
Q 21.484375 6.890625 26.703125 6.890625 
Q 35.15625 6.890625 40.078125 11.328125 
Q 45.015625 15.765625 45.015625 23.390625 
Q 45.015625 31 40.078125 35.4375 
Q 35.15625 39.890625 26.703125 39.890625 
Q 22.75 39.890625 18.8125 39.015625 
Q 14.890625 38.140625 10.796875 36.28125 
z
" id="DejaVuSans-53"/>
      </defs>
      <g transform="translate(280.859736 404.638438)scale(0.1 -0.1)">
       <use xlink:href="#DejaVuSans-50"/>
       <use x="63.623047" xlink:href="#DejaVuSans-48"/>
       <use x="127.246094" xlink:href="#DejaVuSans-49"/>
       <use x="190.869141" xlink:href="#DejaVuSans-57"/>
       <use x="254.492188" xlink:href="#DejaVuSans-45"/>
       <use x="290.576172" xlink:href="#DejaVuSans-48"/>
       <use x="354.199219" xlink:href="#DejaVuSans-50"/>
       <use x="417.822266" xlink:href="#DejaVuSans-45"/>
       <use x="453.90625" xlink:href="#DejaVuSans-48"/>
       <use x="517.529297" xlink:href="#DejaVuSans-53"/>
      </g>
     </g>
    </g>
    <g id="xtick_4">
     <g id="line2d_7">
      <path clip-path="url(#p6cce2818d9)" d="M 401.668072 390.04 
L 401.668072 10.8 
" style="fill:none;stroke:#808080;stroke-linecap:square;stroke-opacity:0.2;"/>
     </g>
     <g id="line2d_8">
      <g>
       <use style="stroke:#000000;stroke-width:0.8;" x="401.668072" xlink:href="#m5a0f6b972e" y="390.04"/>
      </g>
     </g>
     <g id="text_4">
      <!-- 2019-02-19 -->
      <g transform="translate(372.610259 404.638438)scale(0.1 -0.1)">
       <use xlink:href="#DejaVuSans-50"/>
       <use x="63.623047" xlink:href="#DejaVuSans-48"/>
       <use x="127.246094" xlink:href="#DejaVuSans-49"/>
       <use x="190.869141" xlink:href="#DejaVuSans-57"/>
       <use x="254.492188" xlink:href="#DejaVuSans-45"/>
       <use x="290.576172" xlink:href="#DejaVuSans-48"/>
       <use x="354.199219" xlink:href="#DejaVuSans-50"/>
       <use x="417.822266" xlink:href="#DejaVuSans-45"/>
       <use x="453.90625" xlink:href="#DejaVuSans-49"/>
       <use x="517.529297" xlink:href="#DejaVuSans-57"/>
      </g>
     </g>
    </g>
    <g id="xtick_5">
     <g id="line2d_9">
      <path clip-path="url(#p6cce2818d9)" d="M 493.418595 390.04 
L 493.418595 10.8 
" style="fill:none;stroke:#808080;stroke-linecap:square;stroke-opacity:0.2;"/>
     </g>
     <g id="line2d_10">
      <g>
       <use style="stroke:#000000;stroke-width:0.8;" x="493.418595" xlink:href="#m5a0f6b972e" y="390.04"/>
      </g>
     </g>
     <g id="text_5">
      <!-- 2019-03-05 -->
      <defs>
       <path d="M 40.578125 39.3125 
Q 47.65625 37.796875 51.625 33 
Q 55.609375 28.21875 55.609375 21.1875 
Q 55.609375 10.40625 48.1875 4.484375 
Q 40.765625 -1.421875 27.09375 -1.421875 
Q 22.515625 -1.421875 17.65625 -0.515625 
Q 12.796875 0.390625 7.625 2.203125 
L 7.625 11.71875 
Q 11.71875 9.328125 16.59375 8.109375 
Q 21.484375 6.890625 26.8125 6.890625 
Q 36.078125 6.890625 40.9375 10.546875 
Q 45.796875 14.203125 45.796875 21.1875 
Q 45.796875 27.640625 41.28125 31.265625 
Q 36.765625 34.90625 28.71875 34.90625 
L 20.21875 34.90625 
L 20.21875 43.015625 
L 29.109375 43.015625 
Q 36.375 43.015625 40.234375 45.921875 
Q 44.09375 48.828125 44.09375 54.296875 
Q 44.09375 59.90625 40.109375 62.90625 
Q 36.140625 65.921875 28.71875 65.921875 
Q 24.65625 65.921875 20.015625 65.03125 
Q 15.375 64.15625 9.8125 62.3125 
L 9.8125 71.09375 
Q 15.4375 72.65625 20.34375 73.4375 
Q 25.25 74.21875 29.59375 74.21875 
Q 40.828125 74.21875 47.359375 69.109375 
Q 53.90625 64.015625 53.90625 55.328125 
Q 53.90625 49.265625 50.4375 45.09375 
Q 46.96875 40.921875 40.578125 39.3125 
z
" id="DejaVuSans-51"/>
      </defs>
      <g transform="translate(464.360783 404.638438)scale(0.1 -0.1)">
       <use xlink:href="#DejaVuSans-50"/>
       <use x="63.623047" xlink:href="#DejaVuSans-48"/>
       <use x="127.246094" xlink:href="#DejaVuSans-49"/>
       <use x="190.869141" xlink:href="#DejaVuSans-57"/>
       <use x="254.492188" xlink:href="#DejaVuSans-45"/>
       <use x="290.576172" xlink:href="#DejaVuSans-48"/>
       <use x="354.199219" xlink:href="#DejaVuSans-51"/>
       <use x="417.822266" xlink:href="#DejaVuSans-45"/>
       <use x="453.90625" xlink:href="#DejaVuSans-48"/>
       <use x="517.529297" xlink:href="#DejaVuSans-53"/>
      </g>
     </g>
    </g>
    <g id="xtick_6">
     <g id="line2d_11">
      <path clip-path="url(#p6cce2818d9)" d="M 585.169118 390.04 
L 585.169118 10.8 
" style="fill:none;stroke:#808080;stroke-linecap:square;stroke-opacity:0.2;"/>
     </g>
     <g id="line2d_12">
      <g>
       <use style="stroke:#000000;stroke-width:0.8;" x="585.169118" xlink:href="#m5a0f6b972e" y="390.04"/>
      </g>
     </g>
     <g id="text_6">
      <!-- 2019-03-19 -->
      <g transform="translate(556.111306 404.638438)scale(0.1 -0.1)">
       <use xlink:href="#DejaVuSans-50"/>
       <use x="63.623047" xlink:href="#DejaVuSans-48"/>
       <use x="127.246094" xlink:href="#DejaVuSans-49"/>
       <use x="190.869141" xlink:href="#DejaVuSans-57"/>
       <use x="254.492188" xlink:href="#DejaVuSans-45"/>
       <use x="290.576172" xlink:href="#DejaVuSans-48"/>
       <use x="354.199219" xlink:href="#DejaVuSans-51"/>
       <use x="417.822266" xlink:href="#DejaVuSans-45"/>
       <use x="453.90625" xlink:href="#DejaVuSans-49"/>
       <use x="517.529297" xlink:href="#DejaVuSans-57"/>
      </g>
     </g>
    </g>
    <g id="xtick_7">
     <g id="line2d_13">
      <path clip-path="url(#p6cce2818d9)" d="M 676.919642 390.04 
L 676.919642 10.8 
" style="fill:none;stroke:#808080;stroke-linecap:square;stroke-opacity:0.2;"/>
     </g>
     <g id="line2d_14">
      <g>
       <use style="stroke:#000000;stroke-width:0.8;" x="676.919642" xlink:href="#m5a0f6b972e" y="390.04"/>
      </g>
     </g>
     <g id="text_7">
      <!-- 2019-04-02 -->
      <defs>
       <path d="M 37.796875 64.3125 
L 12.890625 25.390625 
L 37.796875 25.390625 
z
M 35.203125 72.90625 
L 47.609375 72.90625 
L 47.609375 25.390625 
L 58.015625 25.390625 
L 58.015625 17.1875 
L 47.609375 17.1875 
L 47.609375 0 
L 37.796875 0 
L 37.796875 17.1875 
L 4.890625 17.1875 
L 4.890625 26.703125 
z
" id="DejaVuSans-52"/>
      </defs>
      <g transform="translate(647.861829 404.638438)scale(0.1 -0.1)">
       <use xlink:href="#DejaVuSans-50"/>
       <use x="63.623047" xlink:href="#DejaVuSans-48"/>
       <use x="127.246094" xlink:href="#DejaVuSans-49"/>
       <use x="190.869141" xlink:href="#DejaVuSans-57"/>
       <use x="254.492188" xlink:href="#DejaVuSans-45"/>
       <use x="290.576172" xlink:href="#DejaVuSans-48"/>
       <use x="354.199219" xlink:href="#DejaVuSans-52"/>
       <use x="417.822266" xlink:href="#DejaVuSans-45"/>
       <use x="453.90625" xlink:href="#DejaVuSans-48"/>
       <use x="517.529297" xlink:href="#DejaVuSans-50"/>
      </g>
     </g>
    </g>
    <g id="text_8">
     <!-- ds -->
     <defs>
      <path d="M 45.40625 46.390625 
L 45.40625 75.984375 
L 54.390625 75.984375 
L 54.390625 0 
L 45.40625 0 
L 45.40625 8.203125 
Q 42.578125 3.328125 38.25 0.953125 
Q 33.9375 -1.421875 27.875 -1.421875 
Q 17.96875 -1.421875 11.734375 6.484375 
Q 5.515625 14.40625 5.515625 27.296875 
Q 5.515625 40.1875 11.734375 48.09375 
Q 17.96875 56 27.875 56 
Q 33.9375 56 38.25 53.625 
Q 42.578125 51.265625 45.40625 46.390625 
z
M 14.796875 27.296875 
Q 14.796875 17.390625 18.875 11.75 
Q 22.953125 6.109375 30.078125 6.109375 
Q 37.203125 6.109375 41.296875 11.75 
Q 45.40625 17.390625 45.40625 27.296875 
Q 45.40625 37.203125 41.296875 42.84375 
Q 37.203125 48.484375 30.078125 48.484375 
Q 22.953125 48.484375 18.875 42.84375 
Q 14.796875 37.203125 14.796875 27.296875 
z
" id="DejaVuSans-100"/>
      <path d="M 44.28125 53.078125 
L 44.28125 44.578125 
Q 40.484375 46.53125 36.375 47.5 
Q 32.28125 48.484375 27.875 48.484375 
Q 21.1875 48.484375 17.84375 46.4375 
Q 14.5 44.390625 14.5 40.28125 
Q 14.5 37.15625 16.890625 35.375 
Q 19.28125 33.59375 26.515625 31.984375 
L 29.59375 31.296875 
Q 39.15625 29.25 43.1875 25.515625 
Q 47.21875 21.78125 47.21875 15.09375 
Q 47.21875 7.46875 41.1875 3.015625 
Q 35.15625 -1.421875 24.609375 -1.421875 
Q 20.21875 -1.421875 15.453125 -0.5625 
Q 10.6875 0.296875 5.421875 2 
L 5.421875 11.28125 
Q 10.40625 8.6875 15.234375 7.390625 
Q 20.0625 6.109375 24.8125 6.109375 
Q 31.15625 6.109375 34.5625 8.28125 
Q 37.984375 10.453125 37.984375 14.40625 
Q 37.984375 18.0625 35.515625 20.015625 
Q 33.0625 21.96875 24.703125 23.78125 
L 21.578125 24.515625 
Q 13.234375 26.265625 9.515625 29.90625 
Q 5.8125 33.546875 5.8125 39.890625 
Q 5.8125 47.609375 11.28125 51.796875 
Q 16.75 56 26.8125 56 
Q 31.78125 56 36.171875 55.265625 
Q 40.578125 54.546875 44.28125 53.078125 
z
" id="DejaVuSans-115"/>
     </defs>
     <g transform="translate(369.67473 418.316562)scale(0.1 -0.1)">
      <use xlink:href="#DejaVuSans-100"/>
      <use x="63.476562" xlink:href="#DejaVuSans-115"/>
     </g>
    </g>
   </g>
   <g id="matplotlib.axis_2">
    <g id="ytick_1">
     <g id="line2d_15">
      <path clip-path="url(#p6cce2818d9)" d="M 51.05 371.383628 
L 699.857273 371.383628 
" style="fill:none;stroke:#808080;stroke-linecap:square;stroke-opacity:0.2;"/>
     </g>
     <g id="line2d_16">
      <defs>
       <path d="M 0 0 
L -3.5 0 
" id="m609edea9ed" style="stroke:#000000;stroke-width:0.8;"/>
      </defs>
      <g>
       <use style="stroke:#000000;stroke-width:0.8;" x="51.05" xlink:href="#m609edea9ed" y="371.383628"/>
      </g>
     </g>
     <g id="text_9">
      <!-- 100 -->
      <g transform="translate(24.9625 375.182846)scale(0.1 -0.1)">
       <use xlink:href="#DejaVuSans-49"/>
       <use x="63.623047" xlink:href="#DejaVuSans-48"/>
       <use x="127.246094" xlink:href="#DejaVuSans-48"/>
      </g>
     </g>
    </g>
    <g id="ytick_2">
     <g id="line2d_17">
      <path clip-path="url(#p6cce2818d9)" d="M 51.05 318.868833 
L 699.857273 318.868833 
" style="fill:none;stroke:#808080;stroke-linecap:square;stroke-opacity:0.2;"/>
     </g>
     <g id="line2d_18">
      <g>
       <use style="stroke:#000000;stroke-width:0.8;" x="51.05" xlink:href="#m609edea9ed" y="318.868833"/>
      </g>
     </g>
     <g id="text_10">
      <!-- 125 -->
      <g transform="translate(24.9625 322.668051)scale(0.1 -0.1)">
       <use xlink:href="#DejaVuSans-49"/>
       <use x="63.623047" xlink:href="#DejaVuSans-50"/>
       <use x="127.246094" xlink:href="#DejaVuSans-53"/>
      </g>
     </g>
    </g>
    <g id="ytick_3">
     <g id="line2d_19">
      <path clip-path="url(#p6cce2818d9)" d="M 51.05 266.354037 
L 699.857273 266.354037 
" style="fill:none;stroke:#808080;stroke-linecap:square;stroke-opacity:0.2;"/>
     </g>
     <g id="line2d_20">
      <g>
       <use style="stroke:#000000;stroke-width:0.8;" x="51.05" xlink:href="#m609edea9ed" y="266.354037"/>
      </g>
     </g>
     <g id="text_11">
      <!-- 150 -->
      <g transform="translate(24.9625 270.153256)scale(0.1 -0.1)">
       <use xlink:href="#DejaVuSans-49"/>
       <use x="63.623047" xlink:href="#DejaVuSans-53"/>
       <use x="127.246094" xlink:href="#DejaVuSans-48"/>
      </g>
     </g>
    </g>
    <g id="ytick_4">
     <g id="line2d_21">
      <path clip-path="url(#p6cce2818d9)" d="M 51.05 213.839242 
L 699.857273 213.839242 
" style="fill:none;stroke:#808080;stroke-linecap:square;stroke-opacity:0.2;"/>
     </g>
     <g id="line2d_22">
      <g>
       <use style="stroke:#000000;stroke-width:0.8;" x="51.05" xlink:href="#m609edea9ed" y="213.839242"/>
      </g>
     </g>
     <g id="text_12">
      <!-- 175 -->
      <defs>
       <path d="M 8.203125 72.90625 
L 55.078125 72.90625 
L 55.078125 68.703125 
L 28.609375 0 
L 18.3125 0 
L 43.21875 64.59375 
L 8.203125 64.59375 
z
" id="DejaVuSans-55"/>
      </defs>
      <g transform="translate(24.9625 217.638461)scale(0.1 -0.1)">
       <use xlink:href="#DejaVuSans-49"/>
       <use x="63.623047" xlink:href="#DejaVuSans-55"/>
       <use x="127.246094" xlink:href="#DejaVuSans-53"/>
      </g>
     </g>
    </g>
    <g id="ytick_5">
     <g id="line2d_23">
      <path clip-path="url(#p6cce2818d9)" d="M 51.05 161.324447 
L 699.857273 161.324447 
" style="fill:none;stroke:#808080;stroke-linecap:square;stroke-opacity:0.2;"/>
     </g>
     <g id="line2d_24">
      <g>
       <use style="stroke:#000000;stroke-width:0.8;" x="51.05" xlink:href="#m609edea9ed" y="161.324447"/>
      </g>
     </g>
     <g id="text_13">
      <!-- 200 -->
      <g transform="translate(24.9625 165.123666)scale(0.1 -0.1)">
       <use xlink:href="#DejaVuSans-50"/>
       <use x="63.623047" xlink:href="#DejaVuSans-48"/>
       <use x="127.246094" xlink:href="#DejaVuSans-48"/>
      </g>
     </g>
    </g>
    <g id="ytick_6">
     <g id="line2d_25">
      <path clip-path="url(#p6cce2818d9)" d="M 51.05 108.809652 
L 699.857273 108.809652 
" style="fill:none;stroke:#808080;stroke-linecap:square;stroke-opacity:0.2;"/>
     </g>
     <g id="line2d_26">
      <g>
       <use style="stroke:#000000;stroke-width:0.8;" x="51.05" xlink:href="#m609edea9ed" y="108.809652"/>
      </g>
     </g>
     <g id="text_14">
      <!-- 225 -->
      <g transform="translate(24.9625 112.608871)scale(0.1 -0.1)">
       <use xlink:href="#DejaVuSans-50"/>
       <use x="63.623047" xlink:href="#DejaVuSans-50"/>
       <use x="127.246094" xlink:href="#DejaVuSans-53"/>
      </g>
     </g>
    </g>
    <g id="ytick_7">
     <g id="line2d_27">
      <path clip-path="url(#p6cce2818d9)" d="M 51.05 56.294857 
L 699.857273 56.294857 
" style="fill:none;stroke:#808080;stroke-linecap:square;stroke-opacity:0.2;"/>
     </g>
     <g id="line2d_28">
      <g>
       <use style="stroke:#000000;stroke-width:0.8;" x="51.05" xlink:href="#m609edea9ed" y="56.294857"/>
      </g>
     </g>
     <g id="text_15">
      <!-- 250 -->
      <g transform="translate(24.9625 60.094076)scale(0.1 -0.1)">
       <use xlink:href="#DejaVuSans-50"/>
       <use x="63.623047" xlink:href="#DejaVuSans-53"/>
       <use x="127.246094" xlink:href="#DejaVuSans-48"/>
      </g>
     </g>
    </g>
    <g id="text_16">
     <!-- y -->
     <defs>
      <path d="M 32.171875 -5.078125 
Q 28.375 -14.84375 24.75 -17.8125 
Q 21.140625 -20.796875 15.09375 -20.796875 
L 7.90625 -20.796875 
L 7.90625 -13.28125 
L 13.1875 -13.28125 
Q 16.890625 -13.28125 18.9375 -11.515625 
Q 21 -9.765625 23.484375 -3.21875 
L 25.09375 0.875 
L 2.984375 54.6875 
L 12.5 54.6875 
L 29.59375 11.921875 
L 46.6875 54.6875 
L 56.203125 54.6875 
z
" id="DejaVuSans-121"/>
     </defs>
     <g transform="translate(18.882812 203.379375)rotate(-90)scale(0.1 -0.1)">
      <use xlink:href="#DejaVuSans-121"/>
     </g>
    </g>
   </g>
   <g id="line2d_29">
    <defs>
     <path d="M 0 1.5 
C 0.397805 1.5 0.77937 1.341951 1.06066 1.06066 
C 1.341951 0.77937 1.5 0.397805 1.5 0 
C 1.5 -0.397805 1.341951 -0.77937 1.06066 -1.06066 
C 0.77937 -1.341951 0.397805 -1.5 0 -1.5 
C -0.397805 -1.5 -0.77937 -1.341951 -1.06066 -1.06066 
C -1.341951 -0.77937 -1.5 -0.397805 -1.5 0 
C -1.5 0.397805 -1.341951 0.77937 -1.06066 1.06066 
C -0.77937 1.341951 -0.397805 1.5 0 1.5 
z
" id="mfe884d8dcc" style="stroke:#000000;"/>
    </defs>
    <g clip-path="url(#p6cce2818d9)">
     <use style="stroke:#000000;" x="80.54124" xlink:href="#mfe884d8dcc" y="45.791898"/>
     <use style="stroke:#000000;" x="87.094848" xlink:href="#mfe884d8dcc" y="291.561139"/>
     <use style="stroke:#000000;" x="100.202066" xlink:href="#mfe884d8dcc" y="45.791898"/>
     <use style="stroke:#000000;" x="106.755675" xlink:href="#mfe884d8dcc" y="283.158772"/>
     <use style="stroke:#000000;" x="113.309284" xlink:href="#mfe884d8dcc" y="291.561139"/>
     <use style="stroke:#000000;" x="119.862893" xlink:href="#mfe884d8dcc" y="45.791898"/>
     <use style="stroke:#000000;" x="126.416501" xlink:href="#mfe884d8dcc" y="283.158772"/>
     <use style="stroke:#000000;" x="132.97011" xlink:href="#mfe884d8dcc" y="297.862914"/>
     <use style="stroke:#000000;" x="139.523719" xlink:href="#mfe884d8dcc" y="45.791898"/>
     <use style="stroke:#000000;" x="146.077328" xlink:href="#mfe884d8dcc" y="289.460547"/>
     <use style="stroke:#000000;" x="152.630937" xlink:href="#mfe884d8dcc" y="291.561139"/>
     <use style="stroke:#000000;" x="159.184545" xlink:href="#mfe884d8dcc" y="45.791898"/>
     <use style="stroke:#000000;" x="165.738154" xlink:href="#mfe884d8dcc" y="283.158772"/>
     <use style="stroke:#000000;" x="178.845372" xlink:href="#mfe884d8dcc" y="45.791898"/>
     <use style="stroke:#000000;" x="185.398981" xlink:href="#mfe884d8dcc" y="270.555221"/>
     <use style="stroke:#000000;" x="191.95259" xlink:href="#mfe884d8dcc" y="278.957588"/>
     <use style="stroke:#000000;" x="198.506198" xlink:href="#mfe884d8dcc" y="45.791898"/>
     <use style="stroke:#000000;" x="205.059807" xlink:href="#mfe884d8dcc" y="289.460547"/>
     <use style="stroke:#000000;" x="211.613416" xlink:href="#mfe884d8dcc" y="283.158772"/>
     <use style="stroke:#000000;" x="218.167025" xlink:href="#mfe884d8dcc" y="45.791898"/>
     <use style="stroke:#000000;" x="224.720634" xlink:href="#mfe884d8dcc" y="270.555221"/>
     <use style="stroke:#000000;" x="231.274242" xlink:href="#mfe884d8dcc" y="287.359955"/>
     <use style="stroke:#000000;" x="237.827851" xlink:href="#mfe884d8dcc" y="45.791898"/>
     <use style="stroke:#000000;" x="244.38146" xlink:href="#mfe884d8dcc" y="287.359955"/>
     <use style="stroke:#000000;" x="250.935069" xlink:href="#mfe884d8dcc" y="287.359955"/>
     <use style="stroke:#000000;" x="257.488678" xlink:href="#mfe884d8dcc" y="45.791898"/>
     <use style="stroke:#000000;" x="264.042287" xlink:href="#mfe884d8dcc" y="278.957588"/>
     <use style="stroke:#000000;" x="270.595895" xlink:href="#mfe884d8dcc" y="276.856996"/>
     <use style="stroke:#000000;" x="277.149504" xlink:href="#mfe884d8dcc" y="45.791898"/>
     <use style="stroke:#000000;" x="283.703113" xlink:href="#mfe884d8dcc" y="278.957588"/>
     <use style="stroke:#000000;" x="290.256722" xlink:href="#mfe884d8dcc" y="278.957588"/>
     <use style="stroke:#000000;" x="296.810331" xlink:href="#mfe884d8dcc" y="45.791898"/>
     <use style="stroke:#000000;" x="303.363939" xlink:href="#mfe884d8dcc" y="283.158772"/>
     <use style="stroke:#000000;" x="309.917548" xlink:href="#mfe884d8dcc" y="285.259364"/>
     <use style="stroke:#000000;" x="316.471157" xlink:href="#mfe884d8dcc" y="45.791898"/>
     <use style="stroke:#000000;" x="323.024766" xlink:href="#mfe884d8dcc" y="291.561139"/>
     <use style="stroke:#000000;" x="329.578375" xlink:href="#mfe884d8dcc" y="287.359955"/>
     <use style="stroke:#000000;" x="336.131983" xlink:href="#mfe884d8dcc" y="45.791898"/>
     <use style="stroke:#000000;" x="342.685592" xlink:href="#mfe884d8dcc" y="291.561139"/>
     <use style="stroke:#000000;" x="349.239201" xlink:href="#mfe884d8dcc" y="289.460547"/>
     <use style="stroke:#000000;" x="355.79281" xlink:href="#mfe884d8dcc" y="45.791898"/>
     <use style="stroke:#000000;" x="368.900028" xlink:href="#mfe884d8dcc" y="287.359955"/>
     <use style="stroke:#000000;" x="382.007245" xlink:href="#mfe884d8dcc" y="287.359955"/>
     <use style="stroke:#000000;" x="388.560854" xlink:href="#mfe884d8dcc" y="278.957588"/>
     <use style="stroke:#000000;" x="395.114463" xlink:href="#mfe884d8dcc" y="45.791898"/>
     <use style="stroke:#000000;" x="401.668072" xlink:href="#mfe884d8dcc" y="295.762323"/>
     <use style="stroke:#000000;" x="414.775289" xlink:href="#mfe884d8dcc" y="45.791898"/>
     <use style="stroke:#000000;" x="421.328898" xlink:href="#mfe884d8dcc" y="283.158772"/>
     <use style="stroke:#000000;" x="427.882507" xlink:href="#mfe884d8dcc" y="283.158772"/>
     <use style="stroke:#000000;" x="434.436116" xlink:href="#mfe884d8dcc" y="45.791898"/>
     <use style="stroke:#000000;" x="447.543333" xlink:href="#mfe884d8dcc" y="266.354037"/>
     <use style="stroke:#000000;" x="454.096942" xlink:href="#mfe884d8dcc" y="45.791898"/>
     <use style="stroke:#000000;" x="460.650551" xlink:href="#mfe884d8dcc" y="291.561139"/>
     <use style="stroke:#000000;" x="467.20416" xlink:href="#mfe884d8dcc" y="283.158772"/>
     <use style="stroke:#000000;" x="473.757769" xlink:href="#mfe884d8dcc" y="45.791898"/>
     <use style="stroke:#000000;" x="486.864986" xlink:href="#mfe884d8dcc" y="278.957588"/>
     <use style="stroke:#000000;" x="493.418595" xlink:href="#mfe884d8dcc" y="45.791898"/>
     <use style="stroke:#000000;" x="499.972204" xlink:href="#mfe884d8dcc" y="287.359955"/>
     <use style="stroke:#000000;" x="506.525813" xlink:href="#mfe884d8dcc" y="287.359955"/>
     <use style="stroke:#000000;" x="513.079421" xlink:href="#mfe884d8dcc" y="45.791898"/>
     <use style="stroke:#000000;" x="519.63303" xlink:href="#mfe884d8dcc" y="283.158772"/>
     <use style="stroke:#000000;" x="526.186639" xlink:href="#mfe884d8dcc" y="278.957588"/>
     <use style="stroke:#000000;" x="532.740248" xlink:href="#mfe884d8dcc" y="45.791898"/>
     <use style="stroke:#000000;" x="539.293857" xlink:href="#mfe884d8dcc" y="291.561139"/>
     <use style="stroke:#000000;" x="545.847466" xlink:href="#mfe884d8dcc" y="283.158772"/>
     <use style="stroke:#000000;" x="552.401074" xlink:href="#mfe884d8dcc" y="45.791898"/>
     <use style="stroke:#000000;" x="558.954683" xlink:href="#mfe884d8dcc" y="287.359955"/>
     <use style="stroke:#000000;" x="565.508292" xlink:href="#mfe884d8dcc" y="291.561139"/>
     <use style="stroke:#000000;" x="572.061901" xlink:href="#mfe884d8dcc" y="45.791898"/>
     <use style="stroke:#000000;" x="578.61551" xlink:href="#mfe884d8dcc" y="283.158772"/>
     <use style="stroke:#000000;" x="585.169118" xlink:href="#mfe884d8dcc" y="283.158772"/>
     <use style="stroke:#000000;" x="591.722727" xlink:href="#mfe884d8dcc" y="45.791898"/>
     <use style="stroke:#000000;" x="604.829945" xlink:href="#mfe884d8dcc" y="281.05818"/>
     <use style="stroke:#000000;" x="611.383554" xlink:href="#mfe884d8dcc" y="45.791898"/>
     <use style="stroke:#000000;" x="617.937163" xlink:href="#mfe884d8dcc" y="274.756405"/>
     <use style="stroke:#000000;" x="624.490771" xlink:href="#mfe884d8dcc" y="278.957588"/>
     <use style="stroke:#000000;" x="631.04438" xlink:href="#mfe884d8dcc" y="45.791898"/>
     <use style="stroke:#000000;" x="637.597989" xlink:href="#mfe884d8dcc" y="278.957588"/>
     <use style="stroke:#000000;" x="650.705207" xlink:href="#mfe884d8dcc" y="45.791898"/>
     <use style="stroke:#000000;" x="657.258815" xlink:href="#mfe884d8dcc" y="283.158772"/>
     <use style="stroke:#000000;" x="663.812424" xlink:href="#mfe884d8dcc" y="278.957588"/>
    </g>
   </g>
   <g id="line2d_30">
    <path clip-path="url(#p6cce2818d9)" d="M 80.54124 182.986911 
L 87.094848 195.885669 
L 100.202066 203.025081 
L 106.755675 210.377995 
L 113.309284 203.237888 
L 119.862893 195.43731 
L 126.416501 183.217398 
L 132.97011 196.116155 
L 139.523719 188.877664 
L 146.077328 203.255567 
L 152.630937 210.608481 
L 159.184545 203.468375 
L 165.738154 195.667797 
L 178.845372 196.346641 
L 185.398981 189.10815 
L 191.95259 203.486054 
L 198.506198 210.838967 
L 205.059807 203.698861 
L 211.613416 195.898283 
L 218.167025 183.67837 
L 224.720634 196.577127 
L 231.274242 189.338636 
L 237.827851 203.71654 
L 244.38146 211.069453 
L 250.935069 203.929347 
L 257.488678 196.128769 
L 264.042287 183.908856 
L 270.595895 196.807613 
L 277.149504 189.569122 
L 283.703113 203.947026 
L 290.256722 211.29994 
L 296.810331 204.159833 
L 303.363939 196.359255 
L 309.917548 184.139342 
L 316.471157 197.038099 
L 323.024766 189.799608 
L 329.578375 204.177512 
L 336.131983 211.530426 
L 342.685592 204.390319 
L 349.239201 196.589741 
L 355.79281 184.369829 
L 368.900028 190.030094 
L 382.007245 211.760912 
L 388.560854 204.620805 
L 395.114463 196.820227 
L 401.668072 184.600315 
L 414.775289 190.260581 
L 421.328898 204.638484 
L 427.882507 211.991398 
L 434.436116 204.851292 
L 447.543333 184.830801 
L 454.096942 197.729558 
L 460.650551 190.491067 
L 467.20416 204.868971 
L 473.757769 212.221884 
L 486.864986 197.2812 
L 493.418595 185.061287 
L 499.972204 197.960044 
L 506.525813 190.721553 
L 513.079421 205.099457 
L 519.63303 212.45237 
L 526.186639 205.312264 
L 532.740248 197.511686 
L 539.293857 185.291773 
L 545.847466 198.19053 
L 552.401074 190.952039 
L 558.954683 205.329943 
L 565.508292 212.682857 
L 572.061901 205.54275 
L 578.61551 197.742172 
L 585.169118 185.522259 
L 591.722727 198.421016 
L 604.829945 205.560429 
L 611.383554 212.913343 
L 617.937163 205.773236 
L 624.490771 197.972658 
L 631.04438 185.752746 
L 637.597989 198.651503 
L 650.705207 205.790915 
L 657.258815 213.143829 
L 663.812424 206.003722 
L 670.366033 198.203145 
" style="fill:none;stroke:#0072b2;stroke-linecap:square;stroke-width:1.5;"/>
   </g>
   <g id="patch_3">
    <path d="M 51.05 390.04 
L 51.05 10.8 
" style="fill:none;stroke:#000000;stroke-linecap:square;stroke-linejoin:miter;stroke-width:0.8;"/>
   </g>
   <g id="patch_4">
    <path d="M 699.857273 390.04 
L 699.857273 10.8 
" style="fill:none;stroke:#000000;stroke-linecap:square;stroke-linejoin:miter;stroke-width:0.8;"/>
   </g>
   <g id="patch_5">
    <path d="M 51.05 390.04 
L 699.857273 390.04 
" style="fill:none;stroke:#000000;stroke-linecap:square;stroke-linejoin:miter;stroke-width:0.8;"/>
   </g>
   <g id="patch_6">
    <path d="M 51.05 10.8 
L 699.857273 10.8 
" style="fill:none;stroke:#000000;stroke-linecap:square;stroke-linejoin:miter;stroke-width:0.8;"/>
   </g>
  </g>
 </g>
 <defs>
  <clipPath id="p6cce2818d9">
   <rect height="379.24" width="648.807273" x="51.05" y="10.8"/>
  </clipPath>
 </defs>
</svg>
