<?xml version="1.0" encoding="utf-8" standalone="no"?>
<!DOCTYPE svg PUBLIC "-//W3C//DTD SVG 1.1//EN"
  "http://www.w3.org/Graphics/SVG/1.1/DTD/svg11.dtd">
<!-- Created with matplotlib (https://matplotlib.org/) -->
<svg height="432pt" version="1.1" viewBox="0 0 720 432" width="720pt" xmlns="http://www.w3.org/2000/svg" xmlns:xlink="http://www.w3.org/1999/xlink">
 <defs>
  <style type="text/css">
*{stroke-linecap:butt;stroke-linejoin:round;}
  </style>
 </defs>
 <g id="figure_1">
  <g id="patch_1">
   <path d="M 0 432 
L 720 432 
L 720 0 
L 0 0 
z
" style="fill:#ffffff;"/>
  </g>
  <g id="axes_1">
   <g id="patch_2">
    <path d="M 51.05 390.04 
L 699.857273 390.04 
L 699.857273 10.8 
L 51.05 10.8 
z
" style="fill:#ffffff;"/>
   </g>
   <g id="PolyCollection_1">
    <defs>
     <path d="M 80.54124 -393.276454 
L 80.54124 -106.307821 
L 87.094848 -81.568378 
L 100.202066 -88.922269 
L 106.755675 -81.86425 
L 113.309284 -84.943336 
L 119.862893 -93.396099 
L 126.416501 -108.857706 
L 132.97011 -93.92664 
L 139.523719 -95.660952 
L 146.077328 -76.832431 
L 152.630937 -74.709746 
L 159.184545 -81.346095 
L 165.738154 -93.087894 
L 178.845372 -89.330947 
L 185.398981 -92.100057 
L 191.95259 -85.218508 
L 198.506198 -73.145466 
L 205.059807 -76.970562 
L 211.613416 -101.760756 
L 218.167025 -100.121338 
L 224.720634 -98.104411 
L 231.274242 -100.957981 
L 237.827851 -88.31429 
L 244.38146 -68.223901 
L 250.935069 -91.33516 
L 257.488678 -84.989478 
L 264.042287 -95.59686 
L 270.595895 -92.632279 
L 277.149504 -97.090982 
L 283.703113 -84.150658 
L 290.256722 -73.117694 
L 296.810331 -88.196811 
L 303.363939 -89.529416 
L 309.917548 -98.959559 
L 316.471157 -86.083917 
L 323.024766 -108.685506 
L 329.578375 -81.344972 
L 336.131983 -59.198182 
L 342.685592 -87.545719 
L 349.239201 -91.77208 
L 355.79281 -110.37581 
L 368.900028 -91.796012 
L 382.007245 -72.246699 
L 388.560854 -96.263776 
L 395.114463 -93.815303 
L 401.668072 -100.007566 
L 414.775289 -105.427861 
L 421.328898 -93.225405 
L 427.882507 -72.537081 
L 434.436116 -78.533647 
L 447.543333 -101.435543 
L 454.096942 -90.94577 
L 460.650551 -99.485133 
L 467.20416 -92.376098 
L 473.757769 -77.874212 
L 486.864986 -85.239272 
L 493.418595 -101.473135 
L 499.972204 -74.123673 
L 506.525813 -107.484005 
L 513.079421 -83.066286 
L 519.63303 -78.391468 
L 526.186639 -71.285271 
L 532.740248 -100.321571 
L 539.293857 -108.885019 
L 545.847466 -89.349968 
L 552.401074 -96.495076 
L 558.954683 -73.687998 
L 565.508292 -74.61631 
L 572.061901 -82.818478 
L 578.61551 -89.073835 
L 585.169118 -99.737244 
L 591.722727 -89.322931 
L 604.829945 -85.971994 
L 611.383554 -71.085236 
L 617.937163 -84.516392 
L 624.490771 -81.118003 
L 631.04438 -106.538283 
L 637.597989 -83.555691 
L 650.705207 -86.541965 
L 657.258815 -84.310959 
L 663.812424 -79.493721 
L 670.366033 -81.75104 
L 670.366033 -381.209186 
L 670.366033 -381.209186 
L 663.812424 -380.56594 
L 657.258815 -372.495749 
L 650.705207 -375.494312 
L 637.597989 -378.858284 
L 631.04438 -394.653271 
L 624.490771 -377.759337 
L 617.937163 -372.793768 
L 611.383554 -364.360576 
L 604.829945 -375.838116 
L 591.722727 -380.323282 
L 585.169118 -397.523487 
L 578.61551 -373.938659 
L 572.061901 -378.84487 
L 565.508292 -371.105519 
L 558.954683 -367.548647 
L 552.401074 -399.63571 
L 545.847466 -388.038735 
L 539.293857 -395.313536 
L 532.740248 -380.777495 
L 526.186639 -367.402476 
L 519.63303 -379.993024 
L 513.079421 -376.876199 
L 506.525813 -390.896659 
L 499.972204 -378.416096 
L 493.418595 -381.678476 
L 486.864986 -384.494267 
L 473.757769 -373.687116 
L 467.20416 -367.54781 
L 460.650551 -381.391214 
L 454.096942 -386.566406 
L 447.543333 -392.136208 
L 434.436116 -367.29075 
L 427.882507 -368.756686 
L 421.328898 -374.022346 
L 414.775289 -397.632026 
L 401.668072 -394.95048 
L 395.114463 -386.069784 
L 388.560854 -389.163094 
L 382.007245 -366.458328 
L 368.900028 -380.989646 
L 355.79281 -391.011925 
L 349.239201 -387.853871 
L 342.685592 -376.181818 
L 336.131983 -366.119431 
L 329.578375 -374.560373 
L 323.024766 -388.853227 
L 316.471157 -375.332801 
L 309.917548 -403.961818 
L 303.363939 -379.901851 
L 296.810331 -373.360652 
L 290.256722 -374.737425 
L 283.703113 -376.190997 
L 277.149504 -382.746567 
L 270.595895 -385.848399 
L 264.042287 -393.613078 
L 257.488678 -378.470024 
L 250.935069 -384.470822 
L 244.38146 -365.431355 
L 237.827851 -369.944854 
L 231.274242 -398.060286 
L 224.720634 -379.827671 
L 218.167025 -387.958326 
L 211.613416 -382.54834 
L 205.059807 -386.690779 
L 198.506198 -373.939399 
L 191.95259 -387.082974 
L 185.398981 -373.326413 
L 178.845372 -377.934659 
L 165.738154 -387.111496 
L 159.184545 -367.889135 
L 152.630937 -380.555636 
L 146.077328 -381.814982 
L 139.523719 -391.087413 
L 132.97011 -375.201849 
L 126.416501 -393.532402 
L 119.862893 -376.742944 
L 113.309284 -371.295912 
L 106.755675 -368.793081 
L 100.202066 -373.293429 
L 87.094848 -376.971192 
L 80.54124 -393.276454 
z
" id="ma6cf78fb42" style="stroke:#0072b2;stroke-opacity:0.2;"/>
    </defs>
    <g clip-path="url(#p310ff1286e)">
     <use style="fill:#0072b2;fill-opacity:0.2;stroke:#0072b2;stroke-opacity:0.2;" x="0" xlink:href="#ma6cf78fb42" y="432"/>
    </g>
   </g>
   <g id="matplotlib.axis_1">
    <g id="xtick_1">
     <g id="line2d_1">
      <path clip-path="url(#p310ff1286e)" d="M 126.416501 390.04 
L 126.416501 10.8 
" style="fill:none;stroke:#808080;stroke-linecap:square;stroke-opacity:0.2;"/>
     </g>
     <g id="line2d_2">
      <defs>
       <path d="M 0 0 
L 0 3.5 
" id="ma74b03a37a" style="stroke:#000000;stroke-width:0.8;"/>
      </defs>
      <g>
       <use style="stroke:#000000;stroke-width:0.8;" x="126.416501" xlink:href="#ma74b03a37a" y="390.04"/>
      </g>
     </g>
     <g id="text_1">
      <!-- 2019-01-08 -->
      <defs>
       <path d="M 19.1875 8.296875 
L 53.609375 8.296875 
L 53.609375 0 
L 7.328125 0 
L 7.328125 8.296875 
Q 12.9375 14.109375 22.625 23.890625 
Q 32.328125 33.6875 34.8125 36.53125 
Q 39.546875 41.84375 41.421875 45.53125 
Q 43.3125 49.21875 43.3125 52.78125 
Q 43.3125 58.59375 39.234375 62.25 
Q 35.15625 65.921875 28.609375 65.921875 
Q 23.96875 65.921875 18.8125 64.3125 
Q 13.671875 62.703125 7.8125 59.421875 
L 7.8125 69.390625 
Q 13.765625 71.78125 18.9375 73 
Q 24.125 74.21875 28.421875 74.21875 
Q 39.75 74.21875 46.484375 68.546875 
Q 53.21875 62.890625 53.21875 53.421875 
Q 53.21875 48.921875 51.53125 44.890625 
Q 49.859375 40.875 45.40625 35.40625 
Q 44.1875 33.984375 37.640625 27.21875 
Q 31.109375 20.453125 19.1875 8.296875 
z
" id="DejaVuSans-50"/>
       <path d="M 31.78125 66.40625 
Q 24.171875 66.40625 20.328125 58.90625 
Q 16.5 51.421875 16.5 36.375 
Q 16.5 21.390625 20.328125 13.890625 
Q 24.171875 6.390625 31.78125 6.390625 
Q 39.453125 6.390625 43.28125 13.890625 
Q 47.125 21.390625 47.125 36.375 
Q 47.125 51.421875 43.28125 58.90625 
Q 39.453125 66.40625 31.78125 66.40625 
z
M 31.78125 74.21875 
Q 44.046875 74.21875 50.515625 64.515625 
Q 56.984375 54.828125 56.984375 36.375 
Q 56.984375 17.96875 50.515625 8.265625 
Q 44.046875 -1.421875 31.78125 -1.421875 
Q 19.53125 -1.421875 13.0625 8.265625 
Q 6.59375 17.96875 6.59375 36.375 
Q 6.59375 54.828125 13.0625 64.515625 
Q 19.53125 74.21875 31.78125 74.21875 
z
" id="DejaVuSans-48"/>
       <path d="M 12.40625 8.296875 
L 28.515625 8.296875 
L 28.515625 63.921875 
L 10.984375 60.40625 
L 10.984375 69.390625 
L 28.421875 72.90625 
L 38.28125 72.90625 
L 38.28125 8.296875 
L 54.390625 8.296875 
L 54.390625 0 
L 12.40625 0 
z
" id="DejaVuSans-49"/>
       <path d="M 10.984375 1.515625 
L 10.984375 10.5 
Q 14.703125 8.734375 18.5 7.8125 
Q 22.3125 6.890625 25.984375 6.890625 
Q 35.75 6.890625 40.890625 13.453125 
Q 46.046875 20.015625 46.78125 33.40625 
Q 43.953125 29.203125 39.59375 26.953125 
Q 35.25 24.703125 29.984375 24.703125 
Q 19.046875 24.703125 12.671875 31.3125 
Q 6.296875 37.9375 6.296875 49.421875 
Q 6.296875 60.640625 12.9375 67.421875 
Q 19.578125 74.21875 30.609375 74.21875 
Q 43.265625 74.21875 49.921875 64.515625 
Q 56.59375 54.828125 56.59375 36.375 
Q 56.59375 19.140625 48.40625 8.859375 
Q 40.234375 -1.421875 26.421875 -1.421875 
Q 22.703125 -1.421875 18.890625 -0.6875 
Q 15.09375 0.046875 10.984375 1.515625 
z
M 30.609375 32.421875 
Q 37.25 32.421875 41.125 36.953125 
Q 45.015625 41.5 45.015625 49.421875 
Q 45.015625 57.28125 41.125 61.84375 
Q 37.25 66.40625 30.609375 66.40625 
Q 23.96875 66.40625 20.09375 61.84375 
Q 16.21875 57.28125 16.21875 49.421875 
Q 16.21875 41.5 20.09375 36.953125 
Q 23.96875 32.421875 30.609375 32.421875 
z
" id="DejaVuSans-57"/>
       <path d="M 4.890625 31.390625 
L 31.203125 31.390625 
L 31.203125 23.390625 
L 4.890625 23.390625 
z
" id="DejaVuSans-45"/>
       <path d="M 31.78125 34.625 
Q 24.75 34.625 20.71875 30.859375 
Q 16.703125 27.09375 16.703125 20.515625 
Q 16.703125 13.921875 20.71875 10.15625 
Q 24.75 6.390625 31.78125 6.390625 
Q 38.8125 6.390625 42.859375 10.171875 
Q 46.921875 13.96875 46.921875 20.515625 
Q 46.921875 27.09375 42.890625 30.859375 
Q 38.875 34.625 31.78125 34.625 
z
M 21.921875 38.8125 
Q 15.578125 40.375 12.03125 44.71875 
Q 8.5 49.078125 8.5 55.328125 
Q 8.5 64.0625 14.71875 69.140625 
Q 20.953125 74.21875 31.78125 74.21875 
Q 42.671875 74.21875 48.875 69.140625 
Q 55.078125 64.0625 55.078125 55.328125 
Q 55.078125 49.078125 51.53125 44.71875 
Q 48 40.375 41.703125 38.8125 
Q 48.828125 37.15625 52.796875 32.3125 
Q 56.78125 27.484375 56.78125 20.515625 
Q 56.78125 9.90625 50.3125 4.234375 
Q 43.84375 -1.421875 31.78125 -1.421875 
Q 19.734375 -1.421875 13.25 4.234375 
Q 6.78125 9.90625 6.78125 20.515625 
Q 6.78125 27.484375 10.78125 32.3125 
Q 14.796875 37.15625 21.921875 38.8125 
z
M 18.3125 54.390625 
Q 18.3125 48.734375 21.84375 45.5625 
Q 25.390625 42.390625 31.78125 42.390625 
Q 38.140625 42.390625 41.71875 45.5625 
Q 45.3125 48.734375 45.3125 54.390625 
Q 45.3125 60.0625 41.71875 63.234375 
Q 38.140625 66.40625 31.78125 66.40625 
Q 25.390625 66.40625 21.84375 63.234375 
Q 18.3125 60.0625 18.3125 54.390625 
z
" id="DejaVuSans-56"/>
      </defs>
      <g transform="translate(97.358689 404.638438)scale(0.1 -0.1)">
       <use xlink:href="#DejaVuSans-50"/>
       <use x="63.623047" xlink:href="#DejaVuSans-48"/>
       <use x="127.246094" xlink:href="#DejaVuSans-49"/>
       <use x="190.869141" xlink:href="#DejaVuSans-57"/>
       <use x="254.492188" xlink:href="#DejaVuSans-45"/>
       <use x="290.576172" xlink:href="#DejaVuSans-48"/>
       <use x="354.199219" xlink:href="#DejaVuSans-49"/>
       <use x="417.822266" xlink:href="#DejaVuSans-45"/>
       <use x="453.90625" xlink:href="#DejaVuSans-48"/>
       <use x="517.529297" xlink:href="#DejaVuSans-56"/>
      </g>
     </g>
    </g>
    <g id="xtick_2">
     <g id="line2d_3">
      <path clip-path="url(#p310ff1286e)" d="M 218.167025 390.04 
L 218.167025 10.8 
" style="fill:none;stroke:#808080;stroke-linecap:square;stroke-opacity:0.2;"/>
     </g>
     <g id="line2d_4">
      <g>
       <use style="stroke:#000000;stroke-width:0.8;" x="218.167025" xlink:href="#ma74b03a37a" y="390.04"/>
      </g>
     </g>
     <g id="text_2">
      <!-- 2019-01-22 -->
      <g transform="translate(189.109212 404.638438)scale(0.1 -0.1)">
       <use xlink:href="#DejaVuSans-50"/>
       <use x="63.623047" xlink:href="#DejaVuSans-48"/>
       <use x="127.246094" xlink:href="#DejaVuSans-49"/>
       <use x="190.869141" xlink:href="#DejaVuSans-57"/>
       <use x="254.492188" xlink:href="#DejaVuSans-45"/>
       <use x="290.576172" xlink:href="#DejaVuSans-48"/>
       <use x="354.199219" xlink:href="#DejaVuSans-49"/>
       <use x="417.822266" xlink:href="#DejaVuSans-45"/>
       <use x="453.90625" xlink:href="#DejaVuSans-50"/>
       <use x="517.529297" xlink:href="#DejaVuSans-50"/>
      </g>
     </g>
    </g>
    <g id="xtick_3">
     <g id="line2d_5">
      <path clip-path="url(#p310ff1286e)" d="M 309.917548 390.04 
L 309.917548 10.8 
" style="fill:none;stroke:#808080;stroke-linecap:square;stroke-opacity:0.2;"/>
     </g>
     <g id="line2d_6">
      <g>
       <use style="stroke:#000000;stroke-width:0.8;" x="309.917548" xlink:href="#ma74b03a37a" y="390.04"/>
      </g>
     </g>
     <g id="text_3">
      <!-- 2019-02-05 -->
      <defs>
       <path d="M 10.796875 72.90625 
L 49.515625 72.90625 
L 49.515625 64.59375 
L 19.828125 64.59375 
L 19.828125 46.734375 
Q 21.96875 47.46875 24.109375 47.828125 
Q 26.265625 48.1875 28.421875 48.1875 
Q 40.625 48.1875 47.75 41.5 
Q 54.890625 34.8125 54.890625 23.390625 
Q 54.890625 11.625 47.5625 5.09375 
Q 40.234375 -1.421875 26.90625 -1.421875 
Q 22.3125 -1.421875 17.546875 -0.640625 
Q 12.796875 0.140625 7.71875 1.703125 
L 7.71875 11.625 
Q 12.109375 9.234375 16.796875 8.0625 
Q 21.484375 6.890625 26.703125 6.890625 
Q 35.15625 6.890625 40.078125 11.328125 
Q 45.015625 15.765625 45.015625 23.390625 
Q 45.015625 31 40.078125 35.4375 
Q 35.15625 39.890625 26.703125 39.890625 
Q 22.75 39.890625 18.8125 39.015625 
Q 14.890625 38.140625 10.796875 36.28125 
z
" id="DejaVuSans-53"/>
      </defs>
      <g transform="translate(280.859736 404.638438)scale(0.1 -0.1)">
       <use xlink:href="#DejaVuSans-50"/>
       <use x="63.623047" xlink:href="#DejaVuSans-48"/>
       <use x="127.246094" xlink:href="#DejaVuSans-49"/>
       <use x="190.869141" xlink:href="#DejaVuSans-57"/>
       <use x="254.492188" xlink:href="#DejaVuSans-45"/>
       <use x="290.576172" xlink:href="#DejaVuSans-48"/>
       <use x="354.199219" xlink:href="#DejaVuSans-50"/>
       <use x="417.822266" xlink:href="#DejaVuSans-45"/>
       <use x="453.90625" xlink:href="#DejaVuSans-48"/>
       <use x="517.529297" xlink:href="#DejaVuSans-53"/>
      </g>
     </g>
    </g>
    <g id="xtick_4">
     <g id="line2d_7">
      <path clip-path="url(#p310ff1286e)" d="M 401.668072 390.04 
L 401.668072 10.8 
" style="fill:none;stroke:#808080;stroke-linecap:square;stroke-opacity:0.2;"/>
     </g>
     <g id="line2d_8">
      <g>
       <use style="stroke:#000000;stroke-width:0.8;" x="401.668072" xlink:href="#ma74b03a37a" y="390.04"/>
      </g>
     </g>
     <g id="text_4">
      <!-- 2019-02-19 -->
      <g transform="translate(372.610259 404.638438)scale(0.1 -0.1)">
       <use xlink:href="#DejaVuSans-50"/>
       <use x="63.623047" xlink:href="#DejaVuSans-48"/>
       <use x="127.246094" xlink:href="#DejaVuSans-49"/>
       <use x="190.869141" xlink:href="#DejaVuSans-57"/>
       <use x="254.492188" xlink:href="#DejaVuSans-45"/>
       <use x="290.576172" xlink:href="#DejaVuSans-48"/>
       <use x="354.199219" xlink:href="#DejaVuSans-50"/>
       <use x="417.822266" xlink:href="#DejaVuSans-45"/>
       <use x="453.90625" xlink:href="#DejaVuSans-49"/>
       <use x="517.529297" xlink:href="#DejaVuSans-57"/>
      </g>
     </g>
    </g>
    <g id="xtick_5">
     <g id="line2d_9">
      <path clip-path="url(#p310ff1286e)" d="M 493.418595 390.04 
L 493.418595 10.8 
" style="fill:none;stroke:#808080;stroke-linecap:square;stroke-opacity:0.2;"/>
     </g>
     <g id="line2d_10">
      <g>
       <use style="stroke:#000000;stroke-width:0.8;" x="493.418595" xlink:href="#ma74b03a37a" y="390.04"/>
      </g>
     </g>
     <g id="text_5">
      <!-- 2019-03-05 -->
      <defs>
       <path d="M 40.578125 39.3125 
Q 47.65625 37.796875 51.625 33 
Q 55.609375 28.21875 55.609375 21.1875 
Q 55.609375 10.40625 48.1875 4.484375 
Q 40.765625 -1.421875 27.09375 -1.421875 
Q 22.515625 -1.421875 17.65625 -0.515625 
Q 12.796875 0.390625 7.625 2.203125 
L 7.625 11.71875 
Q 11.71875 9.328125 16.59375 8.109375 
Q 21.484375 6.890625 26.8125 6.890625 
Q 36.078125 6.890625 40.9375 10.546875 
Q 45.796875 14.203125 45.796875 21.1875 
Q 45.796875 27.640625 41.28125 31.265625 
Q 36.765625 34.90625 28.71875 34.90625 
L 20.21875 34.90625 
L 20.21875 43.015625 
L 29.109375 43.015625 
Q 36.375 43.015625 40.234375 45.921875 
Q 44.09375 48.828125 44.09375 54.296875 
Q 44.09375 59.90625 40.109375 62.90625 
Q 36.140625 65.921875 28.71875 65.921875 
Q 24.65625 65.921875 20.015625 65.03125 
Q 15.375 64.15625 9.8125 62.3125 
L 9.8125 71.09375 
Q 15.4375 72.65625 20.34375 73.4375 
Q 25.25 74.21875 29.59375 74.21875 
Q 40.828125 74.21875 47.359375 69.109375 
Q 53.90625 64.015625 53.90625 55.328125 
Q 53.90625 49.265625 50.4375 45.09375 
Q 46.96875 40.921875 40.578125 39.3125 
z
" id="DejaVuSans-51"/>
      </defs>
      <g transform="translate(464.360783 404.638438)scale(0.1 -0.1)">
       <use xlink:href="#DejaVuSans-50"/>
       <use x="63.623047" xlink:href="#DejaVuSans-48"/>
       <use x="127.246094" xlink:href="#DejaVuSans-49"/>
       <use x="190.869141" xlink:href="#DejaVuSans-57"/>
       <use x="254.492188" xlink:href="#DejaVuSans-45"/>
       <use x="290.576172" xlink:href="#DejaVuSans-48"/>
       <use x="354.199219" xlink:href="#DejaVuSans-51"/>
       <use x="417.822266" xlink:href="#DejaVuSans-45"/>
       <use x="453.90625" xlink:href="#DejaVuSans-48"/>
       <use x="517.529297" xlink:href="#DejaVuSans-53"/>
      </g>
     </g>
    </g>
    <g id="xtick_6">
     <g id="line2d_11">
      <path clip-path="url(#p310ff1286e)" d="M 585.169118 390.04 
L 585.169118 10.8 
" style="fill:none;stroke:#808080;stroke-linecap:square;stroke-opacity:0.2;"/>
     </g>
     <g id="line2d_12">
      <g>
       <use style="stroke:#000000;stroke-width:0.8;" x="585.169118" xlink:href="#ma74b03a37a" y="390.04"/>
      </g>
     </g>
     <g id="text_6">
      <!-- 2019-03-19 -->
      <g transform="translate(556.111306 404.638438)scale(0.1 -0.1)">
       <use xlink:href="#DejaVuSans-50"/>
       <use x="63.623047" xlink:href="#DejaVuSans-48"/>
       <use x="127.246094" xlink:href="#DejaVuSans-49"/>
       <use x="190.869141" xlink:href="#DejaVuSans-57"/>
       <use x="254.492188" xlink:href="#DejaVuSans-45"/>
       <use x="290.576172" xlink:href="#DejaVuSans-48"/>
       <use x="354.199219" xlink:href="#DejaVuSans-51"/>
       <use x="417.822266" xlink:href="#DejaVuSans-45"/>
       <use x="453.90625" xlink:href="#DejaVuSans-49"/>
       <use x="517.529297" xlink:href="#DejaVuSans-57"/>
      </g>
     </g>
    </g>
    <g id="xtick_7">
     <g id="line2d_13">
      <path clip-path="url(#p310ff1286e)" d="M 676.919642 390.04 
L 676.919642 10.8 
" style="fill:none;stroke:#808080;stroke-linecap:square;stroke-opacity:0.2;"/>
     </g>
     <g id="line2d_14">
      <g>
       <use style="stroke:#000000;stroke-width:0.8;" x="676.919642" xlink:href="#ma74b03a37a" y="390.04"/>
      </g>
     </g>
     <g id="text_7">
      <!-- 2019-04-02 -->
      <defs>
       <path d="M 37.796875 64.3125 
L 12.890625 25.390625 
L 37.796875 25.390625 
z
M 35.203125 72.90625 
L 47.609375 72.90625 
L 47.609375 25.390625 
L 58.015625 25.390625 
L 58.015625 17.1875 
L 47.609375 17.1875 
L 47.609375 0 
L 37.796875 0 
L 37.796875 17.1875 
L 4.890625 17.1875 
L 4.890625 26.703125 
z
" id="DejaVuSans-52"/>
      </defs>
      <g transform="translate(647.861829 404.638438)scale(0.1 -0.1)">
       <use xlink:href="#DejaVuSans-50"/>
       <use x="63.623047" xlink:href="#DejaVuSans-48"/>
       <use x="127.246094" xlink:href="#DejaVuSans-49"/>
       <use x="190.869141" xlink:href="#DejaVuSans-57"/>
       <use x="254.492188" xlink:href="#DejaVuSans-45"/>
       <use x="290.576172" xlink:href="#DejaVuSans-48"/>
       <use x="354.199219" xlink:href="#DejaVuSans-52"/>
       <use x="417.822266" xlink:href="#DejaVuSans-45"/>
       <use x="453.90625" xlink:href="#DejaVuSans-48"/>
       <use x="517.529297" xlink:href="#DejaVuSans-50"/>
      </g>
     </g>
    </g>
    <g id="text_8">
     <!-- ds -->
     <defs>
      <path d="M 45.40625 46.390625 
L 45.40625 75.984375 
L 54.390625 75.984375 
L 54.390625 0 
L 45.40625 0 
L 45.40625 8.203125 
Q 42.578125 3.328125 38.25 0.953125 
Q 33.9375 -1.421875 27.875 -1.421875 
Q 17.96875 -1.421875 11.734375 6.484375 
Q 5.515625 14.40625 5.515625 27.296875 
Q 5.515625 40.1875 11.734375 48.09375 
Q 17.96875 56 27.875 56 
Q 33.9375 56 38.25 53.625 
Q 42.578125 51.265625 45.40625 46.390625 
z
M 14.796875 27.296875 
Q 14.796875 17.390625 18.875 11.75 
Q 22.953125 6.109375 30.078125 6.109375 
Q 37.203125 6.109375 41.296875 11.75 
Q 45.40625 17.390625 45.40625 27.296875 
Q 45.40625 37.203125 41.296875 42.84375 
Q 37.203125 48.484375 30.078125 48.484375 
Q 22.953125 48.484375 18.875 42.84375 
Q 14.796875 37.203125 14.796875 27.296875 
z
" id="DejaVuSans-100"/>
      <path d="M 44.28125 53.078125 
L 44.28125 44.578125 
Q 40.484375 46.53125 36.375 47.5 
Q 32.28125 48.484375 27.875 48.484375 
Q 21.1875 48.484375 17.84375 46.4375 
Q 14.5 44.390625 14.5 40.28125 
Q 14.5 37.15625 16.890625 35.375 
Q 19.28125 33.59375 26.515625 31.984375 
L 29.59375 31.296875 
Q 39.15625 29.25 43.1875 25.515625 
Q 47.21875 21.78125 47.21875 15.09375 
Q 47.21875 7.46875 41.1875 3.015625 
Q 35.15625 -1.421875 24.609375 -1.421875 
Q 20.21875 -1.421875 15.453125 -0.5625 
Q 10.6875 0.296875 5.421875 2 
L 5.421875 11.28125 
Q 10.40625 8.6875 15.234375 7.390625 
Q 20.0625 6.109375 24.8125 6.109375 
Q 31.15625 6.109375 34.5625 8.28125 
Q 37.984375 10.453125 37.984375 14.40625 
Q 37.984375 18.0625 35.515625 20.015625 
Q 33.0625 21.96875 24.703125 23.78125 
L 21.578125 24.515625 
Q 13.234375 26.265625 9.515625 29.90625 
Q 5.8125 33.546875 5.8125 39.890625 
Q 5.8125 47.609375 11.28125 51.796875 
Q 16.75 56 26.8125 56 
Q 31.78125 56 36.171875 55.265625 
Q 40.578125 54.546875 44.28125 53.078125 
z
" id="DejaVuSans-115"/>
     </defs>
     <g transform="translate(369.67473 418.316562)scale(0.1 -0.1)">
      <use xlink:href="#DejaVuSans-100"/>
      <use x="63.476562" xlink:href="#DejaVuSans-115"/>
     </g>
    </g>
   </g>
   <g id="matplotlib.axis_2">
    <g id="ytick_1">
     <g id="line2d_15">
      <path clip-path="url(#p310ff1286e)" d="M 51.05 371.056047 
L 699.857273 371.056047 
" style="fill:none;stroke:#808080;stroke-linecap:square;stroke-opacity:0.2;"/>
     </g>
     <g id="line2d_16">
      <defs>
       <path d="M 0 0 
L -3.5 0 
" id="m4e5913b465" style="stroke:#000000;stroke-width:0.8;"/>
      </defs>
      <g>
       <use style="stroke:#000000;stroke-width:0.8;" x="51.05" xlink:href="#m4e5913b465" y="371.056047"/>
      </g>
     </g>
     <g id="text_9">
      <!-- 100 -->
      <g transform="translate(24.9625 374.855266)scale(0.1 -0.1)">
       <use xlink:href="#DejaVuSans-49"/>
       <use x="63.623047" xlink:href="#DejaVuSans-48"/>
       <use x="127.246094" xlink:href="#DejaVuSans-48"/>
      </g>
     </g>
    </g>
    <g id="ytick_2">
     <g id="line2d_17">
      <path clip-path="url(#p310ff1286e)" d="M 51.05 318.409078 
L 699.857273 318.409078 
" style="fill:none;stroke:#808080;stroke-linecap:square;stroke-opacity:0.2;"/>
     </g>
     <g id="line2d_18">
      <g>
       <use style="stroke:#000000;stroke-width:0.8;" x="51.05" xlink:href="#m4e5913b465" y="318.409078"/>
      </g>
     </g>
     <g id="text_10">
      <!-- 125 -->
      <g transform="translate(24.9625 322.208297)scale(0.1 -0.1)">
       <use xlink:href="#DejaVuSans-49"/>
       <use x="63.623047" xlink:href="#DejaVuSans-50"/>
       <use x="127.246094" xlink:href="#DejaVuSans-53"/>
      </g>
     </g>
    </g>
    <g id="ytick_3">
     <g id="line2d_19">
      <path clip-path="url(#p310ff1286e)" d="M 51.05 265.762109 
L 699.857273 265.762109 
" style="fill:none;stroke:#808080;stroke-linecap:square;stroke-opacity:0.2;"/>
     </g>
     <g id="line2d_20">
      <g>
       <use style="stroke:#000000;stroke-width:0.8;" x="51.05" xlink:href="#m4e5913b465" y="265.762109"/>
      </g>
     </g>
     <g id="text_11">
      <!-- 150 -->
      <g transform="translate(24.9625 269.561327)scale(0.1 -0.1)">
       <use xlink:href="#DejaVuSans-49"/>
       <use x="63.623047" xlink:href="#DejaVuSans-53"/>
       <use x="127.246094" xlink:href="#DejaVuSans-48"/>
      </g>
     </g>
    </g>
    <g id="ytick_4">
     <g id="line2d_21">
      <path clip-path="url(#p310ff1286e)" d="M 51.05 213.11514 
L 699.857273 213.11514 
" style="fill:none;stroke:#808080;stroke-linecap:square;stroke-opacity:0.2;"/>
     </g>
     <g id="line2d_22">
      <g>
       <use style="stroke:#000000;stroke-width:0.8;" x="51.05" xlink:href="#m4e5913b465" y="213.11514"/>
      </g>
     </g>
     <g id="text_12">
      <!-- 175 -->
      <defs>
       <path d="M 8.203125 72.90625 
L 55.078125 72.90625 
L 55.078125 68.703125 
L 28.609375 0 
L 18.3125 0 
L 43.21875 64.59375 
L 8.203125 64.59375 
z
" id="DejaVuSans-55"/>
      </defs>
      <g transform="translate(24.9625 216.914358)scale(0.1 -0.1)">
       <use xlink:href="#DejaVuSans-49"/>
       <use x="63.623047" xlink:href="#DejaVuSans-55"/>
       <use x="127.246094" xlink:href="#DejaVuSans-53"/>
      </g>
     </g>
    </g>
    <g id="ytick_5">
     <g id="line2d_23">
      <path clip-path="url(#p310ff1286e)" d="M 51.05 160.46817 
L 699.857273 160.46817 
" style="fill:none;stroke:#808080;stroke-linecap:square;stroke-opacity:0.2;"/>
     </g>
     <g id="line2d_24">
      <g>
       <use style="stroke:#000000;stroke-width:0.8;" x="51.05" xlink:href="#m4e5913b465" y="160.46817"/>
      </g>
     </g>
     <g id="text_13">
      <!-- 200 -->
      <g transform="translate(24.9625 164.267389)scale(0.1 -0.1)">
       <use xlink:href="#DejaVuSans-50"/>
       <use x="63.623047" xlink:href="#DejaVuSans-48"/>
       <use x="127.246094" xlink:href="#DejaVuSans-48"/>
      </g>
     </g>
    </g>
    <g id="ytick_6">
     <g id="line2d_25">
      <path clip-path="url(#p310ff1286e)" d="M 51.05 107.821201 
L 699.857273 107.821201 
" style="fill:none;stroke:#808080;stroke-linecap:square;stroke-opacity:0.2;"/>
     </g>
     <g id="line2d_26">
      <g>
       <use style="stroke:#000000;stroke-width:0.8;" x="51.05" xlink:href="#m4e5913b465" y="107.821201"/>
      </g>
     </g>
     <g id="text_14">
      <!-- 225 -->
      <g transform="translate(24.9625 111.62042)scale(0.1 -0.1)">
       <use xlink:href="#DejaVuSans-50"/>
       <use x="63.623047" xlink:href="#DejaVuSans-50"/>
       <use x="127.246094" xlink:href="#DejaVuSans-53"/>
      </g>
     </g>
    </g>
    <g id="ytick_7">
     <g id="line2d_27">
      <path clip-path="url(#p310ff1286e)" d="M 51.05 55.174232 
L 699.857273 55.174232 
" style="fill:none;stroke:#808080;stroke-linecap:square;stroke-opacity:0.2;"/>
     </g>
     <g id="line2d_28">
      <g>
       <use style="stroke:#000000;stroke-width:0.8;" x="51.05" xlink:href="#m4e5913b465" y="55.174232"/>
      </g>
     </g>
     <g id="text_15">
      <!-- 250 -->
      <g transform="translate(24.9625 58.973451)scale(0.1 -0.1)">
       <use xlink:href="#DejaVuSans-50"/>
       <use x="63.623047" xlink:href="#DejaVuSans-53"/>
       <use x="127.246094" xlink:href="#DejaVuSans-48"/>
      </g>
     </g>
    </g>
    <g id="text_16">
     <!-- y -->
     <defs>
      <path d="M 32.171875 -5.078125 
Q 28.375 -14.84375 24.75 -17.8125 
Q 21.140625 -20.796875 15.09375 -20.796875 
L 7.90625 -20.796875 
L 7.90625 -13.28125 
L 13.1875 -13.28125 
Q 16.890625 -13.28125 18.9375 -11.515625 
Q 21 -9.765625 23.484375 -3.21875 
L 25.09375 0.875 
L 2.984375 54.6875 
L 12.5 54.6875 
L 29.59375 11.921875 
L 46.6875 54.6875 
L 56.203125 54.6875 
z
" id="DejaVuSans-121"/>
     </defs>
     <g transform="translate(18.882812 203.379375)rotate(-90)scale(0.1 -0.1)">
      <use xlink:href="#DejaVuSans-121"/>
     </g>
    </g>
   </g>
   <g id="line2d_29">
    <defs>
     <path d="M 0 1.5 
C 0.397805 1.5 0.77937 1.341951 1.06066 1.06066 
C 1.341951 0.77937 1.5 0.397805 1.5 0 
C 1.5 -0.397805 1.341951 -0.77937 1.06066 -1.06066 
C 0.77937 -1.341951 0.397805 -1.5 0 -1.5 
C -0.397805 -1.5 -0.77937 -1.341951 -1.06066 -1.06066 
C -1.341951 -0.77937 -1.5 -0.397805 -1.5 0 
C -1.5 0.397805 -1.341951 0.77937 -1.06066 1.06066 
C -0.77937 1.341951 -0.397805 1.5 0 1.5 
z
" id="md5b010005a" style="stroke:#000000;"/>
    </defs>
    <g clip-path="url(#p310ff1286e)">
     <use style="stroke:#000000;" x="80.54124" xlink:href="#md5b010005a" y="44.644838"/>
     <use style="stroke:#000000;" x="87.094848" xlink:href="#md5b010005a" y="284.715018"/>
     <use style="stroke:#000000;" x="100.202066" xlink:href="#md5b010005a" y="44.644838"/>
     <use style="stroke:#000000;" x="106.755675" xlink:href="#md5b010005a" y="278.397381"/>
     <use style="stroke:#000000;" x="113.309284" xlink:href="#md5b010005a" y="276.291503"/>
     <use style="stroke:#000000;" x="119.862893" xlink:href="#md5b010005a" y="44.644838"/>
     <use style="stroke:#000000;" x="126.416501" xlink:href="#md5b010005a" y="280.50326"/>
     <use style="stroke:#000000;" x="132.97011" xlink:href="#md5b010005a" y="293.138533"/>
     <use style="stroke:#000000;" x="139.523719" xlink:href="#md5b010005a" y="44.644838"/>
     <use style="stroke:#000000;" x="146.077328" xlink:href="#md5b010005a" y="282.609139"/>
     <use style="stroke:#000000;" x="152.630937" xlink:href="#md5b010005a" y="274.185624"/>
     <use style="stroke:#000000;" x="159.184545" xlink:href="#md5b010005a" y="44.644838"/>
     <use style="stroke:#000000;" x="165.738154" xlink:href="#md5b010005a" y="282.609139"/>
     <use style="stroke:#000000;" x="178.845372" xlink:href="#md5b010005a" y="44.644838"/>
     <use style="stroke:#000000;" x="185.398981" xlink:href="#md5b010005a" y="276.291503"/>
     <use style="stroke:#000000;" x="191.95259" xlink:href="#md5b010005a" y="278.397381"/>
     <use style="stroke:#000000;" x="198.506198" xlink:href="#md5b010005a" y="44.644838"/>
     <use style="stroke:#000000;" x="205.059807" xlink:href="#md5b010005a" y="278.397381"/>
     <use style="stroke:#000000;" x="211.613416" xlink:href="#md5b010005a" y="295.244411"/>
     <use style="stroke:#000000;" x="218.167025" xlink:href="#md5b010005a" y="44.644838"/>
     <use style="stroke:#000000;" x="224.720634" xlink:href="#md5b010005a" y="286.820896"/>
     <use style="stroke:#000000;" x="231.274242" xlink:href="#md5b010005a" y="278.397381"/>
     <use style="stroke:#000000;" x="237.827851" xlink:href="#md5b010005a" y="44.644838"/>
     <use style="stroke:#000000;" x="244.38146" xlink:href="#md5b010005a" y="286.820896"/>
     <use style="stroke:#000000;" x="250.935069" xlink:href="#md5b010005a" y="286.820896"/>
     <use style="stroke:#000000;" x="257.488678" xlink:href="#md5b010005a" y="44.644838"/>
     <use style="stroke:#000000;" x="264.042287" xlink:href="#md5b010005a" y="280.50326"/>
     <use style="stroke:#000000;" x="270.595895" xlink:href="#md5b010005a" y="282.609139"/>
     <use style="stroke:#000000;" x="277.149504" xlink:href="#md5b010005a" y="44.644838"/>
     <use style="stroke:#000000;" x="283.703113" xlink:href="#md5b010005a" y="274.185624"/>
     <use style="stroke:#000000;" x="290.256722" xlink:href="#md5b010005a" y="280.50326"/>
     <use style="stroke:#000000;" x="296.810331" xlink:href="#md5b010005a" y="44.644838"/>
     <use style="stroke:#000000;" x="303.363939" xlink:href="#md5b010005a" y="282.609139"/>
     <use style="stroke:#000000;" x="309.917548" xlink:href="#md5b010005a" y="278.397381"/>
     <use style="stroke:#000000;" x="316.471157" xlink:href="#md5b010005a" y="44.644838"/>
     <use style="stroke:#000000;" x="323.024766" xlink:href="#md5b010005a" y="286.820896"/>
     <use style="stroke:#000000;" x="329.578375" xlink:href="#md5b010005a" y="278.397381"/>
     <use style="stroke:#000000;" x="336.131983" xlink:href="#md5b010005a" y="44.644838"/>
     <use style="stroke:#000000;" x="342.685592" xlink:href="#md5b010005a" y="278.397381"/>
     <use style="stroke:#000000;" x="349.239201" xlink:href="#md5b010005a" y="282.609139"/>
     <use style="stroke:#000000;" x="355.79281" xlink:href="#md5b010005a" y="44.644838"/>
     <use style="stroke:#000000;" x="368.900028" xlink:href="#md5b010005a" y="291.032654"/>
     <use style="stroke:#000000;" x="382.007245" xlink:href="#md5b010005a" y="295.244411"/>
     <use style="stroke:#000000;" x="388.560854" xlink:href="#md5b010005a" y="291.032654"/>
     <use style="stroke:#000000;" x="395.114463" xlink:href="#md5b010005a" y="44.644838"/>
     <use style="stroke:#000000;" x="401.668072" xlink:href="#md5b010005a" y="291.032654"/>
     <use style="stroke:#000000;" x="414.775289" xlink:href="#md5b010005a" y="44.644838"/>
     <use style="stroke:#000000;" x="421.328898" xlink:href="#md5b010005a" y="282.609139"/>
     <use style="stroke:#000000;" x="427.882507" xlink:href="#md5b010005a" y="291.032654"/>
     <use style="stroke:#000000;" x="434.436116" xlink:href="#md5b010005a" y="44.644838"/>
     <use style="stroke:#000000;" x="447.543333" xlink:href="#md5b010005a" y="295.244411"/>
     <use style="stroke:#000000;" x="454.096942" xlink:href="#md5b010005a" y="44.644838"/>
     <use style="stroke:#000000;" x="460.650551" xlink:href="#md5b010005a" y="278.397381"/>
     <use style="stroke:#000000;" x="467.20416" xlink:href="#md5b010005a" y="274.185624"/>
     <use style="stroke:#000000;" x="473.757769" xlink:href="#md5b010005a" y="44.644838"/>
     <use style="stroke:#000000;" x="486.864986" xlink:href="#md5b010005a" y="284.715018"/>
     <use style="stroke:#000000;" x="493.418595" xlink:href="#md5b010005a" y="44.644838"/>
     <use style="stroke:#000000;" x="499.972204" xlink:href="#md5b010005a" y="282.609139"/>
     <use style="stroke:#000000;" x="506.525813" xlink:href="#md5b010005a" y="278.397381"/>
     <use style="stroke:#000000;" x="513.079421" xlink:href="#md5b010005a" y="44.644838"/>
     <use style="stroke:#000000;" x="519.63303" xlink:href="#md5b010005a" y="282.609139"/>
     <use style="stroke:#000000;" x="526.186639" xlink:href="#md5b010005a" y="286.820896"/>
     <use style="stroke:#000000;" x="532.740248" xlink:href="#md5b010005a" y="44.644838"/>
     <use style="stroke:#000000;" x="539.293857" xlink:href="#md5b010005a" y="291.032654"/>
     <use style="stroke:#000000;" x="545.847466" xlink:href="#md5b010005a" y="282.609139"/>
     <use style="stroke:#000000;" x="552.401074" xlink:href="#md5b010005a" y="44.644838"/>
     <use style="stroke:#000000;" x="558.954683" xlink:href="#md5b010005a" y="286.820896"/>
     <use style="stroke:#000000;" x="565.508292" xlink:href="#md5b010005a" y="282.609139"/>
     <use style="stroke:#000000;" x="572.061901" xlink:href="#md5b010005a" y="44.644838"/>
     <use style="stroke:#000000;" x="578.61551" xlink:href="#md5b010005a" y="265.762109"/>
     <use style="stroke:#000000;" x="585.169118" xlink:href="#md5b010005a" y="282.609139"/>
     <use style="stroke:#000000;" x="591.722727" xlink:href="#md5b010005a" y="44.644838"/>
     <use style="stroke:#000000;" x="604.829945" xlink:href="#md5b010005a" y="278.397381"/>
     <use style="stroke:#000000;" x="611.383554" xlink:href="#md5b010005a" y="44.644838"/>
     <use style="stroke:#000000;" x="617.937163" xlink:href="#md5b010005a" y="278.397381"/>
     <use style="stroke:#000000;" x="624.490771" xlink:href="#md5b010005a" y="280.50326"/>
     <use style="stroke:#000000;" x="631.04438" xlink:href="#md5b010005a" y="44.644838"/>
     <use style="stroke:#000000;" x="637.597989" xlink:href="#md5b010005a" y="274.185624"/>
     <use style="stroke:#000000;" x="650.705207" xlink:href="#md5b010005a" y="44.644838"/>
     <use style="stroke:#000000;" x="657.258815" xlink:href="#md5b010005a" y="269.973866"/>
     <use style="stroke:#000000;" x="663.812424" xlink:href="#md5b010005a" y="274.185624"/>
    </g>
   </g>
   <g id="line2d_30">
    <path clip-path="url(#p310ff1286e)" d="M 80.54124 183.42624 
L 87.094848 195.182495 
L 100.202066 199.494529 
L 106.755675 207.540915 
L 113.309284 200.770099 
L 119.862893 194.187831 
L 126.416501 183.71073 
L 132.97011 195.466985 
L 139.523719 185.532113 
L 146.077328 199.77902 
L 152.630937 207.825405 
L 159.184545 201.054589 
L 165.738154 194.472321 
L 178.845372 195.751475 
L 185.398981 185.816603 
L 191.95259 200.06351 
L 198.506198 208.109895 
L 205.059807 201.339079 
L 211.613416 194.756811 
L 218.167025 184.279711 
L 224.720634 196.035965 
L 231.274242 186.101094 
L 237.827851 200.348 
L 244.38146 208.394385 
L 250.935069 201.62357 
L 257.488678 195.041302 
L 264.042287 184.564201 
L 270.595895 196.320456 
L 277.149504 186.385584 
L 283.703113 200.63249 
L 290.256722 208.678876 
L 296.810331 201.90806 
L 303.363939 195.325792 
L 309.917548 184.848691 
L 316.471157 196.604946 
L 323.024766 186.670074 
L 329.578375 200.916981 
L 336.131983 208.963366 
L 342.685592 202.19255 
L 349.239201 195.610282 
L 355.79281 185.133181 
L 368.900028 186.954564 
L 382.007245 209.247856 
L 388.560854 202.47704 
L 395.114463 195.894772 
L 401.668072 185.417671 
L 414.775289 187.239054 
L 421.328898 201.48596 
L 427.882507 209.532345 
L 434.436116 202.761529 
L 447.543333 185.70216 
L 454.096942 197.458415 
L 460.650551 187.523543 
L 467.20416 201.77045 
L 473.757769 209.816835 
L 486.864986 196.463751 
L 493.418595 185.98665 
L 499.972204 197.742905 
L 506.525813 187.808033 
L 513.079421 202.054939 
L 519.63303 210.101324 
L 526.186639 203.330509 
L 532.740248 196.74824 
L 539.293857 186.27114 
L 545.847466 198.027394 
L 552.401074 188.092522 
L 558.954683 202.339429 
L 565.508292 210.385814 
L 572.061901 203.614998 
L 578.61551 197.03273 
L 585.169118 186.555629 
L 591.722727 198.311884 
L 604.829945 202.623918 
L 611.383554 210.670303 
L 617.937163 203.899488 
L 624.490771 197.317219 
L 631.04438 186.840119 
L 637.597989 198.596373 
L 650.705207 202.908408 
L 657.258815 210.954793 
L 663.812424 204.183977 
L 670.366033 197.601709 
" style="fill:none;stroke:#0072b2;stroke-linecap:square;stroke-width:1.5;"/>
   </g>
   <g id="patch_3">
    <path d="M 51.05 390.04 
L 51.05 10.8 
" style="fill:none;stroke:#000000;stroke-linecap:square;stroke-linejoin:miter;stroke-width:0.8;"/>
   </g>
   <g id="patch_4">
    <path d="M 699.857273 390.04 
L 699.857273 10.8 
" style="fill:none;stroke:#000000;stroke-linecap:square;stroke-linejoin:miter;stroke-width:0.8;"/>
   </g>
   <g id="patch_5">
    <path d="M 51.05 390.04 
L 699.857273 390.04 
" style="fill:none;stroke:#000000;stroke-linecap:square;stroke-linejoin:miter;stroke-width:0.8;"/>
   </g>
   <g id="patch_6">
    <path d="M 51.05 10.8 
L 699.857273 10.8 
" style="fill:none;stroke:#000000;stroke-linecap:square;stroke-linejoin:miter;stroke-width:0.8;"/>
   </g>
  </g>
 </g>
 <defs>
  <clipPath id="p310ff1286e">
   <rect height="379.24" width="648.807273" x="51.05" y="10.8"/>
  </clipPath>
 </defs>
</svg>
